<?xml version="1.0" encoding="UTF-8" standalone="no"?><svg xmlns="http://www.w3.org/2000/svg" xmlns:xlink="http://www.w3.org/1999/xlink" contentStyleType="text/css" height="1644px" preserveAspectRatio="none" style="width:1267px;height:1644px;background:#FFFFFF;" version="1.1" viewBox="0 0 1267 1644" width="1267.8px" zoomAndPan="magnify"><defs/><g><!--MD5=[dbe2c98d3d239224c1c32488b69de42b]
class ScheduleVaccinationUI--><g id="elem_ScheduleVaccinationUI"><rect codeLine="6" fill="#F1F1F1" height="31.5844" id="ScheduleVaccinationUI" rx="1.5" ry="1.5" style="stroke:#181818;stroke-width:0.3;" width="132" x="545.4" y="4.2"/><ellipse cx="554.4" cy="15.1922" fill="#ADD1B2" rx="6.6" ry="6.6" style="stroke:#181818;stroke-width:0.6;"/><path d="M555.6,13.0922 Q555.7219,12.7922 555.8625,12.6422 Q556.0031,12.4922 556.1625,12.4922 Q556.4438,12.4922 556.6219,12.6609 Q556.8,12.8297 556.8,13.2234 L556.8,14.1609 Q556.8,14.5547 556.6313,14.7234 Q556.4625,14.8922 556.2,14.8922 Q555.9656,14.8922 555.8156,14.7891 Q555.6656,14.6859 555.6,14.4141 Q555.5719,14.2266 555.4688,14.1234 Q555.2813,13.9266 554.9438,13.8141 Q554.6062,13.6922 554.2688,13.6922 Q553.8469,13.6922 553.4906,13.8609 Q553.1438,14.0297 552.8719,14.4047 Q552.6,14.7797 552.6,15.2953 L552.6,15.8484 Q552.6,16.4672 553.1062,16.8797 Q553.6125,17.2922 554.5125,17.2922 Q555.0469,17.2922 555.4219,17.1703 Q555.6375,17.1047 555.8813,16.8891 Q556.0406,16.7672 556.125,16.7297 Q556.2094,16.6922 556.3125,16.6922 Q556.5094,16.6922 556.65,16.8516 Q556.8,17.0016 556.8,17.2172 Q556.8,17.4234 556.5938,17.6672 Q556.2937,18.0234 555.8156,18.2203 Q555.1875,18.4922 554.4187,18.4922 Q553.5188,18.4922 552.7969,18.1359 Q552.2156,17.8547 551.8031,17.2453 Q551.4,16.6359 551.4,15.9141 L551.4,15.2578 Q551.4,14.5078 551.7563,13.8516 Q552.1219,13.1953 552.75,12.8484 Q553.3875,12.4922 554.1,12.4922 Q554.5313,12.4922 554.9063,12.6422 Q555.2813,12.7922 555.6,13.0922 Z " fill="#000000"/><text fill="#000000" font-family="sans-serif" font-size="10.8" lengthAdjust="spacing" textLength="110.4" x="564" y="19.6113">ScheduleVaccinationUI</text><line style="stroke:#181818;stroke-width:0.3;" x1="546" x2="676.8" y1="26.1844" y2="26.1844"/><line style="stroke:#181818;stroke-width:0.3;" x1="546" x2="676.8" y1="30.9844" y2="30.9844"/></g><!--MD5=[bd1d3e915bc9fc9efef099e792fa3d79]
class ScheduleVaccinationController--><g id="elem_ScheduleVaccinationController"><rect codeLine="8" fill="#F1F1F1" height="159.4594" id="ScheduleVaccinationController" rx="1.5" ry="1.5" style="stroke:#181818;stroke-width:0.3;" width="330.6" x="446.1" y="96.6"/><ellipse cx="534.15" cy="107.5922" fill="#ADD1B2" rx="6.6" ry="6.6" style="stroke:#181818;stroke-width:0.6;"/><path d="M535.35,105.4922 Q535.4719,105.1922 535.6125,105.0422 Q535.7531,104.8922 535.9125,104.8922 Q536.1938,104.8922 536.3719,105.0609 Q536.55,105.2297 536.55,105.6234 L536.55,106.5609 Q536.55,106.9547 536.3813,107.1234 Q536.2125,107.2922 535.95,107.2922 Q535.7156,107.2922 535.5656,107.1891 Q535.4156,107.0859 535.35,106.8141 Q535.3219,106.6266 535.2188,106.5234 Q535.0313,106.3266 534.6938,106.2141 Q534.3562,106.0922 534.0188,106.0922 Q533.5969,106.0922 533.2406,106.2609 Q532.8938,106.4297 532.6219,106.8047 Q532.35,107.1797 532.35,107.6953 L532.35,108.2484 Q532.35,108.8672 532.8562,109.2797 Q533.3625,109.6922 534.2625,109.6922 Q534.7969,109.6922 535.1719,109.5703 Q535.3875,109.5047 535.6313,109.2891 Q535.7906,109.1672 535.875,109.1297 Q535.9594,109.0922 536.0625,109.0922 Q536.2594,109.0922 536.4,109.2516 Q536.55,109.4016 536.55,109.6172 Q536.55,109.8234 536.3438,110.0672 Q536.0437,110.4234 535.5656,110.6203 Q534.9375,110.8922 534.1687,110.8922 Q533.2688,110.8922 532.5469,110.5359 Q531.9656,110.2547 531.5531,109.6453 Q531.15,109.0359 531.15,108.3141 L531.15,107.6578 Q531.15,106.9078 531.5063,106.2516 Q531.8719,105.5953 532.5,105.2484 Q533.1375,104.8922 533.85,104.8922 Q534.2813,104.8922 534.6563,105.0422 Q535.0313,105.1922 535.35,105.4922 Z " fill="#000000"/><text fill="#000000" font-family="sans-serif" font-size="10.8" lengthAdjust="spacing" textLength="147" x="547.65" y="112.0113">ScheduleVaccinationController</text><line style="stroke:#181818;stroke-width:0.3;" x1="446.7" x2="776.1" y1="118.5844" y2="118.5844"/><text fill="#000000" font-family="sans-serif" font-size="10.8" lengthAdjust="spacing" textLength="43.2" x="450.9" y="133.3957">-App app</text><line style="stroke:#181818;stroke-width:0.3;" x1="446.7" x2="776.1" y1="139.3688" y2="139.3688"/><text fill="#000000" font-family="sans-serif" font-size="10.8" lengthAdjust="spacing" textLength="112.2" x="450.9" y="154.1801">+validateUserSession()</text><text fill="#000000" font-family="sans-serif" font-size="10.8" lengthAdjust="spacing" textLength="133.2" x="450.9" y="170.1645">+getVaccinationCenterList()</text><text fill="#000000" font-family="sans-serif" font-size="10.8" lengthAdjust="spacing" textLength="226.2" x="450.9" y="186.1488">+getAvailableVaccineTypes(vaccinationCenter)</text><text fill="#000000" font-family="sans-serif" font-size="10.8" lengthAdjust="spacing" textLength="206.4" x="450.9" y="202.1332">+getAvailableSlots(vaccinationCenter,date)</text><text fill="#000000" font-family="sans-serif" font-size="10.8" lengthAdjust="spacing" textLength="321" x="450.9" y="218.1176">+createVaccineSchedule(vaccinationCenter,vaccineType,date,slot)</text><text fill="#000000" font-family="sans-serif" font-size="10.8" lengthAdjust="spacing" textLength="193.8" x="450.9" y="234.102">+scheduleVaccination(vaccineSchedule)</text><text fill="#000000" font-family="sans-serif" font-size="10.8" lengthAdjust="spacing" textLength="125.4" x="450.9" y="250.0863">+receiveSMSNotification()</text></g><!--MD5=[335f4d9be48430461c68bf6d6fdba145]
class App--><g id="elem_App"><rect codeLine="20" fill="#F1F1F1" height="95.5219" id="App" rx="1.5" ry="1.5" style="stroke:#181818;stroke-width:0.3;" width="135.6" x="4.2" y="332.7"/><ellipse cx="58.95" cy="343.6922" fill="#ADD1B2" rx="6.6" ry="6.6" style="stroke:#181818;stroke-width:0.6;"/><path d="M60.15,341.5922 Q60.2719,341.2922 60.4125,341.1422 Q60.5531,340.9922 60.7125,340.9922 Q60.9938,340.9922 61.1719,341.1609 Q61.35,341.3297 61.35,341.7234 L61.35,342.6609 Q61.35,343.0547 61.1813,343.2234 Q61.0125,343.3922 60.75,343.3922 Q60.5156,343.3922 60.3656,343.2891 Q60.2156,343.1859 60.15,342.9141 Q60.1219,342.7266 60.0188,342.6234 Q59.8313,342.4266 59.4938,342.3141 Q59.1563,342.1922 58.8187,342.1922 Q58.3969,342.1922 58.0406,342.3609 Q57.6937,342.5297 57.4219,342.9047 Q57.15,343.2797 57.15,343.7953 L57.15,344.3484 Q57.15,344.9672 57.6563,345.3797 Q58.1625,345.7922 59.0625,345.7922 Q59.5969,345.7922 59.9719,345.6703 Q60.1875,345.6047 60.4313,345.3891 Q60.5906,345.2672 60.675,345.2297 Q60.7594,345.1922 60.8625,345.1922 Q61.0594,345.1922 61.2,345.3516 Q61.35,345.5016 61.35,345.7172 Q61.35,345.9234 61.1438,346.1672 Q60.8438,346.5234 60.3656,346.7203 Q59.7375,346.9922 58.9688,346.9922 Q58.0687,346.9922 57.3469,346.6359 Q56.7656,346.3547 56.3531,345.7453 Q55.95,345.1359 55.95,344.4141 L55.95,343.7578 Q55.95,343.0078 56.3063,342.3516 Q56.6719,341.6953 57.3,341.3484 Q57.9375,340.9922 58.65,340.9922 Q59.0813,340.9922 59.4563,341.1422 Q59.8313,341.2922 60.15,341.5922 Z " fill="#000000"/><text fill="#000000" font-family="sans-serif" font-size="10.8" lengthAdjust="spacing" textLength="18.6" x="72.45" y="348.1113">App</text><line style="stroke:#181818;stroke-width:0.3;" x1="4.8" x2="139.2" y1="354.6844" y2="354.6844"/><line style="stroke:#181818;stroke-width:0.3;" x1="4.8" x2="139.2" y1="359.4844" y2="359.4844"/><text fill="#000000" font-family="sans-serif" font-size="10.8" lengthAdjust="spacing" textLength="74.4" x="9" y="374.2957">+getCompany()</text><text fill="#000000" font-family="sans-serif" font-size="10.8" lengthAdjust="spacing" textLength="126" x="9" y="390.2801">+getCurrentUserSession()</text><text fill="#000000" font-family="sans-serif" font-size="10.8" lengthAdjust="spacing" text-decoration="underline" textLength="97.2" x="9" y="406.2645">+static getInstance()</text><text fill="#000000" font-family="sans-serif" font-size="10.8" lengthAdjust="spacing" textLength="55.8" x="9" y="422.2488">-bootstrap()</text></g><!--MD5=[02e4b9b7573f1156f41e60aa5b4e25a4]
class Company--><g id="elem_Company"><rect codeLine="28" fill="#F1F1F1" height="79.5375" id="Company" rx="1.5" ry="1.5" style="stroke:#181818;stroke-width:0.3;" width="96" x="160.8" y="340.5"/><ellipse cx="182.76" cy="351.4922" fill="#ADD1B2" rx="6.6" ry="6.6" style="stroke:#181818;stroke-width:0.6;"/><path d="M183.96,349.3922 Q184.0819,349.0922 184.2225,348.9422 Q184.3631,348.7922 184.5225,348.7922 Q184.8038,348.7922 184.9819,348.9609 Q185.16,349.1297 185.16,349.5234 L185.16,350.4609 Q185.16,350.8547 184.9913,351.0234 Q184.8225,351.1922 184.56,351.1922 Q184.3256,351.1922 184.1756,351.0891 Q184.0256,350.9859 183.96,350.7141 Q183.9319,350.5266 183.8288,350.4234 Q183.6413,350.2266 183.3038,350.1141 Q182.9663,349.9922 182.6288,349.9922 Q182.2069,349.9922 181.8506,350.1609 Q181.5038,350.3297 181.2319,350.7047 Q180.96,351.0797 180.96,351.5953 L180.96,352.1484 Q180.96,352.7672 181.4663,353.1797 Q181.9725,353.5922 182.8725,353.5922 Q183.4069,353.5922 183.7819,353.4703 Q183.9975,353.4047 184.2413,353.1891 Q184.4006,353.0672 184.485,353.0297 Q184.5694,352.9922 184.6725,352.9922 Q184.8694,352.9922 185.01,353.1516 Q185.16,353.3016 185.16,353.5172 Q185.16,353.7234 184.9538,353.9672 Q184.6538,354.3234 184.1756,354.5203 Q183.5475,354.7922 182.7788,354.7922 Q181.8788,354.7922 181.1569,354.4359 Q180.5756,354.1547 180.1631,353.5453 Q179.76,352.9359 179.76,352.2141 L179.76,351.5578 Q179.76,350.8078 180.1163,350.1516 Q180.4819,349.4953 181.11,349.1484 Q181.7475,348.7922 182.46,348.7922 Q182.8913,348.7922 183.2663,348.9422 Q183.6413,349.0922 183.96,349.3922 Z " fill="#000000"/><text fill="#000000" font-family="sans-serif" font-size="10.8" lengthAdjust="spacing" textLength="45.6" x="195.24" y="355.9113">Company</text><line style="stroke:#181818;stroke-width:0.3;" x1="161.4" x2="256.2" y1="362.4844" y2="362.4844"/><text fill="#000000" font-family="sans-serif" font-size="10.8" lengthAdjust="spacing" textLength="58.8" x="165.6" y="377.2957">-designation</text><line style="stroke:#181818;stroke-width:0.3;" x1="161.4" x2="256.2" y1="383.2688" y2="383.2688"/><text fill="#000000" font-family="sans-serif" font-size="10.8" lengthAdjust="spacing" textLength="68.4" x="165.6" y="398.0801">+getPlatform()</text><text fill="#000000" font-family="sans-serif" font-size="10.8" lengthAdjust="spacing" textLength="86.4" x="165.6" y="414.0645">+getAuthFacade()</text></g><!--MD5=[8ae808d068a8995f06b9b3ec51357f0b]
class AuthFacade--><g id="elem_AuthFacade"><rect codeLine="34" fill="#F1F1F1" height="47.5688" id="AuthFacade" rx="1.5" ry="1.5" style="stroke:#181818;stroke-width:0.3;" width="135.6" x="88.2" y="533.4"/><ellipse cx="123.45" cy="544.3922" fill="#ADD1B2" rx="6.6" ry="6.6" style="stroke:#181818;stroke-width:0.6;"/><path d="M124.65,542.2922 Q124.7719,541.9922 124.9125,541.8422 Q125.0531,541.6922 125.2125,541.6922 Q125.4937,541.6922 125.6719,541.8609 Q125.85,542.0297 125.85,542.4234 L125.85,543.3609 Q125.85,543.7547 125.6812,543.9234 Q125.5125,544.0922 125.25,544.0922 Q125.0156,544.0922 124.8656,543.9891 Q124.7156,543.8859 124.65,543.6141 Q124.6219,543.4266 124.5188,543.3234 Q124.3313,543.1266 123.9937,543.0141 Q123.6563,542.8922 123.3188,542.8922 Q122.8969,542.8922 122.5406,543.0609 Q122.1938,543.2297 121.9219,543.6047 Q121.65,543.9797 121.65,544.4953 L121.65,545.0484 Q121.65,545.6672 122.1563,546.0797 Q122.6625,546.4922 123.5625,546.4922 Q124.0969,546.4922 124.4719,546.3703 Q124.6875,546.3047 124.9312,546.0891 Q125.0906,545.9672 125.175,545.9297 Q125.2594,545.8922 125.3625,545.8922 Q125.5594,545.8922 125.7,546.0516 Q125.85,546.2016 125.85,546.4172 Q125.85,546.6234 125.6438,546.8672 Q125.3438,547.2234 124.8656,547.4203 Q124.2375,547.6922 123.4688,547.6922 Q122.5688,547.6922 121.8469,547.3359 Q121.2656,547.0547 120.8531,546.4453 Q120.45,545.8359 120.45,545.1141 L120.45,544.4578 Q120.45,543.7078 120.8062,543.0516 Q121.1719,542.3953 121.8,542.0484 Q122.4375,541.6922 123.15,541.6922 Q123.5813,541.6922 123.9563,541.8422 Q124.3313,541.9922 124.65,542.2922 Z " fill="#000000"/><text fill="#000000" font-family="sans-serif" font-size="10.8" lengthAdjust="spacing" textLength="57.6" x="136.95" y="548.8113">AuthFacade</text><line style="stroke:#181818;stroke-width:0.3;" x1="88.8" x2="223.2" y1="555.3844" y2="555.3844"/><line style="stroke:#181818;stroke-width:0.3;" x1="88.8" x2="223.2" y1="560.1844" y2="560.1844"/><text fill="#000000" font-family="sans-serif" font-size="10.8" lengthAdjust="spacing" textLength="126" x="93" y="574.9957">+getCurrentUserSession()</text></g><!--MD5=[99b8db98afdc2c8404e39242ef4c1e65]
class Platform--><g id="elem_Platform"><rect codeLine="39" fill="#F1F1F1" height="127.4906" id="Platform" rx="1.5" ry="1.5" style="stroke:#181818;stroke-width:0.3;" width="292.2" x="465.3" y="316.8"/><ellipse cx="587.85" cy="327.7922" fill="#ADD1B2" rx="6.6" ry="6.6" style="stroke:#181818;stroke-width:0.6;"/><path d="M589.05,325.6922 Q589.1719,325.3922 589.3125,325.2422 Q589.4531,325.0922 589.6125,325.0922 Q589.8938,325.0922 590.0719,325.2609 Q590.25,325.4297 590.25,325.8234 L590.25,326.7609 Q590.25,327.1547 590.0813,327.3234 Q589.9125,327.4922 589.65,327.4922 Q589.4156,327.4922 589.2656,327.3891 Q589.1156,327.2859 589.05,327.0141 Q589.0219,326.8266 588.9187,326.7234 Q588.7312,326.5266 588.3938,326.4141 Q588.0563,326.2922 587.7188,326.2922 Q587.2969,326.2922 586.9406,326.4609 Q586.5938,326.6297 586.3219,327.0047 Q586.05,327.3797 586.05,327.8953 L586.05,328.4484 Q586.05,329.0672 586.5563,329.4797 Q587.0625,329.8922 587.9625,329.8922 Q588.4969,329.8922 588.8719,329.7703 Q589.0875,329.7047 589.3313,329.4891 Q589.4906,329.3672 589.575,329.3297 Q589.6594,329.2922 589.7625,329.2922 Q589.9594,329.2922 590.1,329.4516 Q590.25,329.6016 590.25,329.8172 Q590.25,330.0234 590.0437,330.2672 Q589.7438,330.6234 589.2656,330.8203 Q588.6375,331.0922 587.8688,331.0922 Q586.9688,331.0922 586.2469,330.7359 Q585.6656,330.4547 585.2531,329.8453 Q584.85,329.2359 584.85,328.5141 L584.85,327.8578 Q584.85,327.1078 585.2063,326.4516 Q585.5719,325.7953 586.2,325.4484 Q586.8375,325.0922 587.55,325.0922 Q587.9812,325.0922 588.3562,325.2422 Q588.7312,325.3922 589.05,325.6922 Z " fill="#000000"/><text fill="#000000" font-family="sans-serif" font-size="10.8" lengthAdjust="spacing" textLength="39.6" x="601.35" y="332.2113">Platform</text><line style="stroke:#181818;stroke-width:0.3;" x1="465.9" x2="756.9" y1="338.7844" y2="338.7844"/><text fill="#000000" font-family="sans-serif" font-size="10.8" lengthAdjust="spacing" textLength="117.6" x="470.1" y="353.5957">-SMSNotifier smsNotifier</text><text fill="#000000" font-family="sans-serif" font-size="10.8" lengthAdjust="spacing" textLength="197.4" x="470.1" y="369.5801">-RegisterSNSUser m_oRegisterSNSUser</text><text fill="#000000" font-family="sans-serif" font-size="10.8" lengthAdjust="spacing" textLength="282.6" x="470.1" y="385.5645">-RegisterVaccinationCenter m_oRegisterVaccinationCenter</text><line style="stroke:#181818;stroke-width:0.3;" x1="465.9" x2="756.9" y1="391.5375" y2="391.5375"/><text fill="#000000" font-family="sans-serif" font-size="10.8" lengthAdjust="spacing" textLength="156.6" x="470.1" y="406.3488">+getRegisterVaccinationCenter()</text><text fill="#000000" font-family="sans-serif" font-size="10.8" lengthAdjust="spacing" textLength="114" x="470.1" y="422.3332">+getRegisterSNSUser()</text><text fill="#000000" font-family="sans-serif" font-size="10.8" lengthAdjust="spacing" textLength="86.4" x="470.1" y="438.3176">+getSMSNotifier()</text></g><!--MD5=[cdc77c16edb505c2e403aad7696b033b]
class RegisterVaccinationCenter--><g id="elem_RegisterVaccinationCenter"><rect codeLine="49" fill="#F1F1F1" height="79.5375" id="RegisterVaccinationCenter" rx="1.5" ry="1.5" style="stroke:#181818;stroke-width:0.3;" width="240" x="491.4" y="517.2"/><ellipse cx="543.75" cy="528.1922" fill="#ADD1B2" rx="6.6" ry="6.6" style="stroke:#181818;stroke-width:0.6;"/><path d="M544.95,526.0922 Q545.0719,525.7922 545.2125,525.6422 Q545.3531,525.4922 545.5125,525.4922 Q545.7937,525.4922 545.9719,525.6609 Q546.15,525.8297 546.15,526.2234 L546.15,527.1609 Q546.15,527.5547 545.9812,527.7234 Q545.8125,527.8922 545.55,527.8922 Q545.3156,527.8922 545.1656,527.7891 Q545.0156,527.6859 544.95,527.4141 Q544.9219,527.2266 544.8188,527.1234 Q544.6313,526.9266 544.2937,526.8141 Q543.9563,526.6922 543.6188,526.6922 Q543.1969,526.6922 542.8406,526.8609 Q542.4938,527.0297 542.2219,527.4047 Q541.95,527.7797 541.95,528.2953 L541.95,528.8484 Q541.95,529.4672 542.4563,529.8797 Q542.9625,530.2922 543.8625,530.2922 Q544.3969,530.2922 544.7719,530.1703 Q544.9875,530.1047 545.2312,529.8891 Q545.3906,529.7672 545.475,529.7297 Q545.5594,529.6922 545.6625,529.6922 Q545.8594,529.6922 546,529.8516 Q546.15,530.0016 546.15,530.2172 Q546.15,530.4234 545.9438,530.6672 Q545.6438,531.0234 545.1656,531.2203 Q544.5375,531.4922 543.7688,531.4922 Q542.8688,531.4922 542.1469,531.1359 Q541.5656,530.8547 541.1531,530.2453 Q540.75,529.6359 540.75,528.9141 L540.75,528.2578 Q540.75,527.5078 541.1062,526.8516 Q541.4719,526.1953 542.1,525.8484 Q542.7375,525.4922 543.45,525.4922 Q543.8813,525.4922 544.2563,525.6422 Q544.6313,525.7922 544.95,526.0922 Z " fill="#000000"/><text fill="#000000" font-family="sans-serif" font-size="10.8" lengthAdjust="spacing" textLength="127.8" x="557.25" y="532.6113">RegisterVaccinationCenter</text><line style="stroke:#181818;stroke-width:0.3;" x1="492" x2="730.8" y1="539.1844" y2="539.1844"/><text fill="#000000" font-family="sans-serif" font-size="10.8" lengthAdjust="spacing" textLength="79.8" x="496.2" y="553.9957">-Email m_oEmail</text><text fill="#000000" font-family="sans-serif" font-size="10.8" lengthAdjust="spacing" textLength="230.4" x="496.2" y="569.9801">-List&lt;VaccinationCenter&gt; listVaccinationCenters</text><line style="stroke:#181818;stroke-width:0.3;" x1="492" x2="730.8" y1="575.9531" y2="575.9531"/><text fill="#000000" font-family="sans-serif" font-size="10.8" lengthAdjust="spacing" textLength="138.6" x="496.2" y="590.7645">+getListVaccinationCenters()</text></g><!--MD5=[de60e6d4f424ae4d0522096f76a59010]
class VaccinationCenter--><g id="elem_VaccinationCenter"><rect codeLine="56" fill="#F1F1F1" height="383.2406" id="VaccinationCenter" rx="1.5" ry="1.5" style="stroke:#181818;stroke-width:0.3;" width="289.2" x="600.6" y="670.2"/><ellipse cx="697.65" cy="681.1922" fill="#ADD1B2" rx="6.6" ry="6.6" style="stroke:#181818;stroke-width:0.6;"/><path d="M698.85,679.0922 Q698.9719,678.7922 699.1125,678.6422 Q699.2531,678.4922 699.4125,678.4922 Q699.6938,678.4922 699.8719,678.6609 Q700.05,678.8297 700.05,679.2234 L700.05,680.1609 Q700.05,680.5547 699.8813,680.7234 Q699.7125,680.8922 699.45,680.8922 Q699.2156,680.8922 699.0656,680.7891 Q698.9156,680.6859 698.85,680.4141 Q698.8219,680.2266 698.7188,680.1234 Q698.5313,679.9266 698.1938,679.8141 Q697.8562,679.6922 697.5188,679.6922 Q697.0969,679.6922 696.7406,679.8609 Q696.3938,680.0297 696.1219,680.4047 Q695.85,680.7797 695.85,681.2953 L695.85,681.8484 Q695.85,682.4672 696.3562,682.8797 Q696.8625,683.2922 697.7625,683.2922 Q698.2969,683.2922 698.6719,683.1703 Q698.8875,683.1047 699.1313,682.8891 Q699.2906,682.7672 699.375,682.7297 Q699.4594,682.6922 699.5625,682.6922 Q699.7594,682.6922 699.9,682.8516 Q700.05,683.0016 700.05,683.2172 Q700.05,683.4234 699.8438,683.6672 Q699.5437,684.0234 699.0656,684.2203 Q698.4375,684.4922 697.6687,684.4922 Q696.7688,684.4922 696.0469,684.1359 Q695.4656,683.8547 695.0531,683.2453 Q694.65,682.6359 694.65,681.9141 L694.65,681.2578 Q694.65,680.5078 695.0063,679.8516 Q695.3719,679.1953 696,678.8484 Q696.6375,678.4922 697.35,678.4922 Q697.7813,678.4922 698.1563,678.6422 Q698.5313,678.7922 698.85,679.0922 Z " fill="#000000"/><text fill="#000000" font-family="sans-serif" font-size="10.8" lengthAdjust="spacing" textLength="87.6" x="711.15" y="685.6113">VaccinationCenter</text><line style="stroke:#181818;stroke-width:0.3;" x1="601.2" x2="889.2" y1="692.1844" y2="692.1844"/><text fill="#000000" font-family="sans-serif" font-size="10.8" lengthAdjust="spacing" textLength="30" x="605.4" y="706.9957">-name</text><text fill="#000000" font-family="sans-serif" font-size="10.8" lengthAdjust="spacing" textLength="42" x="605.4" y="722.9801">-address</text><text fill="#000000" font-family="sans-serif" font-size="10.8" lengthAdjust="spacing" textLength="71.4" x="605.4" y="738.9645">-phoneNumber</text><text fill="#000000" font-family="sans-serif" font-size="10.8" lengthAdjust="spacing" textLength="67.8" x="605.4" y="754.9488">-emailAddress</text><text fill="#000000" font-family="sans-serif" font-size="10.8" lengthAdjust="spacing" textLength="55.2" x="605.4" y="770.9332">-faxNumber</text><text fill="#000000" font-family="sans-serif" font-size="10.8" lengthAdjust="spacing" textLength="79.2" x="605.4" y="786.9176">-websiteAddress</text><text fill="#000000" font-family="sans-serif" font-size="10.8" lengthAdjust="spacing" textLength="70.8" x="605.4" y="802.902">-openingHours</text><text fill="#000000" font-family="sans-serif" font-size="10.8" lengthAdjust="spacing" textLength="79.8" x="605.4" y="818.8863">-openingMinutes</text><text fill="#000000" font-family="sans-serif" font-size="10.8" lengthAdjust="spacing" textLength="66" x="605.4" y="834.8707">-closingHours</text><text fill="#000000" font-family="sans-serif" font-size="10.8" lengthAdjust="spacing" textLength="75" x="605.4" y="850.8551">-closingMinutes</text><text fill="#000000" font-family="sans-serif" font-size="10.8" lengthAdjust="spacing" textLength="61.2" x="605.4" y="866.8395">-slotDuration</text><text fill="#000000" font-family="sans-serif" font-size="10.8" lengthAdjust="spacing" textLength="103.8" x="605.4" y="882.8238">-maxNumberVaccines</text><text fill="#000000" font-family="sans-serif" font-size="10.8" lengthAdjust="spacing" textLength="125.4" x="605.4" y="898.8082">-List&lt;Day&gt; operatingDays</text><text fill="#000000" font-family="sans-serif" font-size="10.8" lengthAdjust="spacing" textLength="132.6" x="605.4" y="914.7926">-WaitingRoom waitingRoom</text><text fill="#000000" font-family="sans-serif" font-size="10.8" lengthAdjust="spacing" textLength="130.8" x="605.4" y="930.777">-List&lt;Vaccine&gt; listVaccines</text><text fill="#000000" font-family="sans-serif" font-size="10.8" lengthAdjust="spacing" textLength="180" x="605.4" y="946.7613">-List&lt;VaccineType&gt; listVaccineTypes</text><line style="stroke:#181818;stroke-width:0.3;" x1="601.2" x2="889.2" y1="952.7344" y2="952.7344"/><text fill="#000000" font-family="sans-serif" font-size="10.8" lengthAdjust="spacing" textLength="113.4" x="605.4" y="967.5457">+getListVaccineTypes()</text><text fill="#000000" font-family="sans-serif" font-size="10.8" lengthAdjust="spacing" textLength="243.6" x="605.4" y="983.5301">+getAllAvailableSlotsInVaccinationCenter(dateDay)</text><text fill="#000000" font-family="sans-serif" font-size="10.8" lengthAdjust="spacing" textLength="88.2" x="605.4" y="999.5145">+getDay(dateDay)</text><text fill="#000000" font-family="sans-serif" font-size="10.8" lengthAdjust="spacing" textLength="159" x="605.4" y="1015.4988">+validateScheduleDate(dateDay)</text><text fill="#000000" font-family="sans-serif" font-size="10.8" lengthAdjust="spacing" textLength="279.6" x="605.4" y="1031.4832">+createVaccineSchedule(snsUser, vaccineType, day, slot)</text><text fill="#000000" font-family="sans-serif" font-size="10.8" lengthAdjust="spacing" textLength="176.4" x="605.4" y="1047.4676">+scheduleVaccine(vaccineSchedule)</text></g><!--MD5=[0e501da62322464167c8ec4d233a6b7e]
class VaccineType--><g id="elem_VaccineType"><rect codeLine="83" fill="#F1F1F1" height="111.5063" id="VaccineType" rx="1.5" ry="1.5" style="stroke:#181818;stroke-width:0.3;" width="137.4" x="371.7" y="1126.8"/><ellipse cx="405.45" cy="1137.7922" fill="#ADD1B2" rx="6.6" ry="6.6" style="stroke:#181818;stroke-width:0.6;"/><path d="M406.65,1135.6922 Q406.7719,1135.3922 406.9125,1135.2422 Q407.0531,1135.0922 407.2125,1135.0922 Q407.4938,1135.0922 407.6719,1135.2609 Q407.85,1135.4297 407.85,1135.8234 L407.85,1136.7609 Q407.85,1137.1547 407.6813,1137.3234 Q407.5125,1137.4922 407.25,1137.4922 Q407.0156,1137.4922 406.8656,1137.3891 Q406.7156,1137.2859 406.65,1137.0141 Q406.6219,1136.8266 406.5188,1136.7234 Q406.3313,1136.5266 405.9938,1136.4141 Q405.6563,1136.2922 405.3187,1136.2922 Q404.8969,1136.2922 404.5406,1136.4609 Q404.1937,1136.6297 403.9219,1137.0047 Q403.65,1137.3797 403.65,1137.8953 L403.65,1138.4484 Q403.65,1139.0672 404.1563,1139.4797 Q404.6625,1139.8922 405.5625,1139.8922 Q406.0969,1139.8922 406.4719,1139.7703 Q406.6875,1139.7047 406.9313,1139.4891 Q407.0906,1139.3672 407.175,1139.3297 Q407.2594,1139.2922 407.3625,1139.2922 Q407.5594,1139.2922 407.7,1139.4516 Q407.85,1139.6016 407.85,1139.8172 Q407.85,1140.0234 407.6438,1140.2672 Q407.3438,1140.6234 406.8656,1140.8203 Q406.2375,1141.0922 405.4688,1141.0922 Q404.5687,1141.0922 403.8469,1140.7359 Q403.2656,1140.4547 402.8531,1139.8453 Q402.45,1139.2359 402.45,1138.5141 L402.45,1137.8578 Q402.45,1137.1078 402.8063,1136.4516 Q403.1719,1135.7953 403.8,1135.4484 Q404.4375,1135.0922 405.15,1135.0922 Q405.5813,1135.0922 405.9563,1135.2422 Q406.3313,1135.3922 406.65,1135.6922 Z " fill="#000000"/><text fill="#000000" font-family="sans-serif" font-size="10.8" lengthAdjust="spacing" textLength="62.4" x="418.95" y="1142.2113">VaccineType</text><line style="stroke:#181818;stroke-width:0.3;" x1="372.3" x2="508.5" y1="1148.7844" y2="1148.7844"/><text fill="#000000" font-family="sans-serif" font-size="10.8" lengthAdjust="spacing" textLength="27" x="376.5" y="1163.5957">-code</text><text fill="#000000" font-family="sans-serif" font-size="10.8" lengthAdjust="spacing" textLength="58.8" x="376.5" y="1179.5801">-designation</text><text fill="#000000" font-family="sans-serif" font-size="10.8" lengthAdjust="spacing" textLength="73.2" x="376.5" y="1195.5645">-typeOfVaccine</text><text fill="#000000" font-family="sans-serif" font-size="10.8" lengthAdjust="spacing" textLength="127.8" x="376.5" y="1211.5488">-List&lt;Vaccine&gt; vaccineList</text><text fill="#000000" font-family="sans-serif" font-size="10.8" lengthAdjust="spacing" textLength="85.8" x="376.5" y="1227.5332">+TypesOfVaccine</text><line style="stroke:#181818;stroke-width:0.3;" x1="372.3" x2="508.5" y1="1233.5063" y2="1233.5063"/></g><!--MD5=[cff4d1dfabf1e80e04b31c5c669534b5]
class Day--><g id="elem_Day"><rect codeLine="92" fill="#F1F1F1" height="111.5063" id="Day" rx="1.5" ry="1.5" style="stroke:#181818;stroke-width:0.3;" width="259.8" x="777.3" y="1126.8"/><ellipse cx="893.85" cy="1137.7922" fill="#ADD1B2" rx="6.6" ry="6.6" style="stroke:#181818;stroke-width:0.6;"/><path d="M895.05,1135.6922 Q895.1719,1135.3922 895.3125,1135.2422 Q895.4531,1135.0922 895.6125,1135.0922 Q895.8938,1135.0922 896.0719,1135.2609 Q896.25,1135.4297 896.25,1135.8234 L896.25,1136.7609 Q896.25,1137.1547 896.0813,1137.3234 Q895.9125,1137.4922 895.65,1137.4922 Q895.4156,1137.4922 895.2656,1137.3891 Q895.1156,1137.2859 895.05,1137.0141 Q895.0219,1136.8266 894.9187,1136.7234 Q894.7312,1136.5266 894.3938,1136.4141 Q894.0563,1136.2922 893.7188,1136.2922 Q893.2969,1136.2922 892.9406,1136.4609 Q892.5938,1136.6297 892.3219,1137.0047 Q892.05,1137.3797 892.05,1137.8953 L892.05,1138.4484 Q892.05,1139.0672 892.5563,1139.4797 Q893.0625,1139.8922 893.9625,1139.8922 Q894.4969,1139.8922 894.8719,1139.7703 Q895.0875,1139.7047 895.3313,1139.4891 Q895.4906,1139.3672 895.575,1139.3297 Q895.6594,1139.2922 895.7625,1139.2922 Q895.9594,1139.2922 896.1,1139.4516 Q896.25,1139.6016 896.25,1139.8172 Q896.25,1140.0234 896.0437,1140.2672 Q895.7438,1140.6234 895.2656,1140.8203 Q894.6375,1141.0922 893.8688,1141.0922 Q892.9688,1141.0922 892.2469,1140.7359 Q891.6656,1140.4547 891.2531,1139.8453 Q890.85,1139.2359 890.85,1138.5141 L890.85,1137.8578 Q890.85,1137.1078 891.2063,1136.4516 Q891.5719,1135.7953 892.2,1135.4484 Q892.8375,1135.0922 893.55,1135.0922 Q893.9812,1135.0922 894.3562,1135.2422 Q894.7312,1135.3922 895.05,1135.6922 Z " fill="#000000"/><text fill="#000000" font-family="sans-serif" font-size="10.8" lengthAdjust="spacing" textLength="19.2" x="907.35" y="1142.2113">Day</text><line style="stroke:#181818;stroke-width:0.3;" x1="777.9" x2="1036.5" y1="1148.7844" y2="1148.7844"/><text fill="#000000" font-family="sans-serif" font-size="10.8" lengthAdjust="spacing" textLength="46.8" x="782.1" y="1163.5957">-Date day</text><text fill="#000000" font-family="sans-serif" font-size="10.8" lengthAdjust="spacing" textLength="77.4" x="782.1" y="1179.5801">-List&lt;Slot&gt; slots</text><text fill="#000000" font-family="sans-serif" font-size="10.8" lengthAdjust="spacing" textLength="103.8" x="782.1" y="1195.5645">-maxNumberVaccines</text><line style="stroke:#181818;stroke-width:0.3;" x1="777.9" x2="1036.5" y1="1201.5375" y2="1201.5375"/><text fill="#000000" font-family="sans-serif" font-size="10.8" lengthAdjust="spacing" textLength="250.2" x="782.1" y="1216.3488">+createVaccineSchedule(snsUser,vaccineType,slot)</text><text fill="#000000" font-family="sans-serif" font-size="10.8" lengthAdjust="spacing" textLength="176.4" x="782.1" y="1232.3332">+scheduleVaccine(vaccineSchedule)</text></g><!--MD5=[45c6380d22fb72521f5065026b277fb9]
class Slot--><g id="elem_Slot"><rect codeLine="101" fill="#F1F1F1" height="111.5063" id="Slot" rx="1.5" ry="1.5" style="stroke:#181818;stroke-width:0.3;" width="260.4" x="777" y="1311.6"/><ellipse cx="894.15" cy="1322.5922" fill="#ADD1B2" rx="6.6" ry="6.6" style="stroke:#181818;stroke-width:0.6;"/><path d="M895.35,1320.4922 Q895.4719,1320.1922 895.6125,1320.0422 Q895.7531,1319.8922 895.9125,1319.8922 Q896.1938,1319.8922 896.3719,1320.0609 Q896.55,1320.2297 896.55,1320.6234 L896.55,1321.5609 Q896.55,1321.9547 896.3813,1322.1234 Q896.2125,1322.2922 895.95,1322.2922 Q895.7156,1322.2922 895.5656,1322.1891 Q895.4156,1322.0859 895.35,1321.8141 Q895.3219,1321.6266 895.2188,1321.5234 Q895.0313,1321.3266 894.6938,1321.2141 Q894.3562,1321.0922 894.0188,1321.0922 Q893.5969,1321.0922 893.2406,1321.2609 Q892.8938,1321.4297 892.6219,1321.8047 Q892.35,1322.1797 892.35,1322.6953 L892.35,1323.2484 Q892.35,1323.8672 892.8562,1324.2797 Q893.3625,1324.6922 894.2625,1324.6922 Q894.7969,1324.6922 895.1719,1324.5703 Q895.3875,1324.5047 895.6313,1324.2891 Q895.7906,1324.1672 895.875,1324.1297 Q895.9594,1324.0922 896.0625,1324.0922 Q896.2594,1324.0922 896.4,1324.2516 Q896.55,1324.4016 896.55,1324.6172 Q896.55,1324.8234 896.3438,1325.0672 Q896.0437,1325.4234 895.5656,1325.6203 Q894.9375,1325.8922 894.1687,1325.8922 Q893.2688,1325.8922 892.5469,1325.5359 Q891.9656,1325.2547 891.5531,1324.6453 Q891.15,1324.0359 891.15,1323.3141 L891.15,1322.6578 Q891.15,1321.9078 891.5063,1321.2516 Q891.8719,1320.5953 892.5,1320.2484 Q893.1375,1319.8922 893.85,1319.8922 Q894.2813,1319.8922 894.6563,1320.0422 Q895.0313,1320.1922 895.35,1320.4922 Z " fill="#000000"/><text fill="#000000" font-family="sans-serif" font-size="10.8" lengthAdjust="spacing" textLength="18.6" x="907.65" y="1327.0113">Slot</text><line style="stroke:#181818;stroke-width:0.3;" x1="777.6" x2="1036.8" y1="1333.5844" y2="1333.5844"/><text fill="#000000" font-family="sans-serif" font-size="10.8" lengthAdjust="spacing" textLength="51" x="781.8" y="1348.3957">-Date hour</text><text fill="#000000" font-family="sans-serif" font-size="10.8" lengthAdjust="spacing" textLength="229.2" x="781.8" y="1364.3801">-List&lt;VaccineSchedule&gt; scheduledVaccinations</text><line style="stroke:#181818;stroke-width:0.3;" x1="777.6" x2="1036.8" y1="1370.3531" y2="1370.3531"/><text fill="#000000" font-family="sans-serif" font-size="10.8" lengthAdjust="spacing" textLength="250.8" x="781.8" y="1385.1645">+createVaccineSchedule(day,vaccineType,snsUser)</text><text fill="#000000" font-family="sans-serif" font-size="10.8" lengthAdjust="spacing" textLength="81" x="781.8" y="1401.1488">-createDate(day)</text><text fill="#000000" font-family="sans-serif" font-size="10.8" lengthAdjust="spacing" textLength="193.8" x="781.8" y="1417.1332">+scheduleVaccination(vaccineSchedule)</text></g><!--MD5=[cd4ce1c0d44638ff9f42448de30e6b92]
class VaccineSchedule--><g id="elem_VaccineSchedule"><rect codeLine="110" fill="#F1F1F1" height="143.475" id="VaccineSchedule" rx="1.5" ry="1.5" style="stroke:#181818;stroke-width:0.3;" width="140.4" x="692.4" y="1496.4"/><ellipse cx="717.6" cy="1507.3922" fill="#ADD1B2" rx="6.6" ry="6.6" style="stroke:#181818;stroke-width:0.6;"/><path d="M718.8,1505.2922 Q718.9219,1504.9922 719.0625,1504.8422 Q719.2031,1504.6922 719.3625,1504.6922 Q719.6438,1504.6922 719.8219,1504.8609 Q720,1505.0297 720,1505.4234 L720,1506.3609 Q720,1506.7547 719.8313,1506.9234 Q719.6625,1507.0922 719.4,1507.0922 Q719.1656,1507.0922 719.0156,1506.9891 Q718.8656,1506.8859 718.8,1506.6141 Q718.7719,1506.4266 718.6687,1506.3234 Q718.4812,1506.1266 718.1438,1506.0141 Q717.8063,1505.8922 717.4688,1505.8922 Q717.0469,1505.8922 716.6906,1506.0609 Q716.3438,1506.2297 716.0719,1506.6047 Q715.8,1506.9797 715.8,1507.4953 L715.8,1508.0484 Q715.8,1508.6672 716.3063,1509.0797 Q716.8125,1509.4922 717.7125,1509.4922 Q718.2469,1509.4922 718.6219,1509.3703 Q718.8375,1509.3047 719.0813,1509.0891 Q719.2406,1508.9672 719.325,1508.9297 Q719.4094,1508.8922 719.5125,1508.8922 Q719.7094,1508.8922 719.85,1509.0516 Q720,1509.2016 720,1509.4172 Q720,1509.6234 719.7937,1509.8672 Q719.4938,1510.2234 719.0156,1510.4203 Q718.3875,1510.6922 717.6188,1510.6922 Q716.7188,1510.6922 715.9969,1510.3359 Q715.4156,1510.0547 715.0031,1509.4453 Q714.6,1508.8359 714.6,1508.1141 L714.6,1507.4578 Q714.6,1506.7078 714.9563,1506.0516 Q715.3219,1505.3953 715.95,1505.0484 Q716.5875,1504.6922 717.3,1504.6922 Q717.7312,1504.6922 718.1062,1504.8422 Q718.4812,1504.9922 718.8,1505.2922 Z " fill="#000000"/><text fill="#000000" font-family="sans-serif" font-size="10.8" lengthAdjust="spacing" textLength="82.8" x="730.8" y="1511.8113">VaccineSchedule</text><line style="stroke:#181818;stroke-width:0.3;" x1="693" x2="832.2" y1="1518.3844" y2="1518.3844"/><text fill="#000000" font-family="sans-serif" font-size="10.8" lengthAdjust="spacing" textLength="106.2" x="697.2" y="1533.1957">-Date vaccinationDate</text><text fill="#000000" font-family="sans-serif" font-size="10.8" lengthAdjust="spacing" textLength="91.2" x="697.2" y="1549.1801">-SNSUser snsUser</text><text fill="#000000" font-family="sans-serif" font-size="10.8" lengthAdjust="spacing" textLength="130.2" x="697.2" y="1565.1645">-VaccineType vaccineType</text><text fill="#000000" font-family="sans-serif" font-size="10.8" lengthAdjust="spacing" textLength="84" x="697.2" y="1581.1488">-validateEntrance</text><line style="stroke:#181818;stroke-width:0.3;" x1="693" x2="832.2" y1="1587.1219" y2="1587.1219"/><text fill="#000000" font-family="sans-serif" font-size="10.8" lengthAdjust="spacing" textLength="130.8" x="697.2" y="1601.9332">-validateVaccineSchedule()</text><text fill="#000000" font-family="sans-serif" font-size="10.8" lengthAdjust="spacing" textLength="48.6" x="697.2" y="1617.9176">-getDate()</text><text fill="#000000" font-family="sans-serif" font-size="10.8" lengthAdjust="spacing" textLength="67.2" x="697.2" y="1633.902">-getSnsUser()</text></g><!--MD5=[1155c950036316d3e595853e21159178]
class RegisterSNSUser--><g id="elem_RegisterSNSUser"><rect codeLine="122" fill="#F1F1F1" height="79.5375" id="RegisterSNSUser" rx="1.5" ry="1.5" style="stroke:#181818;stroke-width:0.3;" width="149.4" x="320.7" y="517.2"/><ellipse cx="349.05" cy="528.1922" fill="#ADD1B2" rx="6.6" ry="6.6" style="stroke:#181818;stroke-width:0.6;"/><path d="M350.25,526.0922 Q350.3719,525.7922 350.5125,525.6422 Q350.6531,525.4922 350.8125,525.4922 Q351.0938,525.4922 351.2719,525.6609 Q351.45,525.8297 351.45,526.2234 L351.45,527.1609 Q351.45,527.5547 351.2813,527.7234 Q351.1125,527.8922 350.85,527.8922 Q350.6156,527.8922 350.4656,527.7891 Q350.3156,527.6859 350.25,527.4141 Q350.2219,527.2266 350.1188,527.1234 Q349.9313,526.9266 349.5938,526.8141 Q349.2562,526.6922 348.9188,526.6922 Q348.4969,526.6922 348.1406,526.8609 Q347.7938,527.0297 347.5219,527.4047 Q347.25,527.7797 347.25,528.2953 L347.25,528.8484 Q347.25,529.4672 347.7562,529.8797 Q348.2625,530.2922 349.1625,530.2922 Q349.6969,530.2922 350.0719,530.1703 Q350.2875,530.1047 350.5313,529.8891 Q350.6906,529.7672 350.775,529.7297 Q350.8594,529.6922 350.9625,529.6922 Q351.1594,529.6922 351.3,529.8516 Q351.45,530.0016 351.45,530.2172 Q351.45,530.4234 351.2438,530.6672 Q350.9437,531.0234 350.4656,531.2203 Q349.8375,531.4922 349.0687,531.4922 Q348.1688,531.4922 347.4469,531.1359 Q346.8656,530.8547 346.4531,530.2453 Q346.05,529.6359 346.05,528.9141 L346.05,528.2578 Q346.05,527.5078 346.4063,526.8516 Q346.7719,526.1953 347.4,525.8484 Q348.0375,525.4922 348.75,525.4922 Q349.1813,525.4922 349.5563,525.6422 Q349.9313,525.7922 350.25,526.0922 Z " fill="#000000"/><text fill="#000000" font-family="sans-serif" font-size="10.8" lengthAdjust="spacing" textLength="85.2" x="362.55" y="532.6113">RegisterSNSUser</text><line style="stroke:#181818;stroke-width:0.3;" x1="321.3" x2="469.5" y1="539.1844" y2="539.1844"/><text fill="#000000" font-family="sans-serif" font-size="10.8" lengthAdjust="spacing" textLength="139.8" x="325.5" y="553.9957">-List&lt;SNSUser&gt; listSNSUser</text><text fill="#000000" font-family="sans-serif" font-size="10.8" lengthAdjust="spacing" textLength="121.2" x="325.5" y="569.9801">-AuthFacade authFacade</text><line style="stroke:#181818;stroke-width:0.3;" x1="321.3" x2="469.5" y1="575.9531" y2="575.9531"/><text fill="#000000" font-family="sans-serif" font-size="10.8" lengthAdjust="spacing" textLength="138" x="325.5" y="590.7645">+getSNSUserByEmail(email)</text></g><!--MD5=[72be06cc7ae02ccc98efe28a50e62246]
class SNSUser--><g id="elem_SNSUser"><rect codeLine="130" fill="#F1F1F1" height="191.4281" id="SNSUser" rx="1.5" ry="1.5" style="stroke:#181818;stroke-width:0.3;" width="205.8" x="320.7" y="766.2"/><ellipse cx="397.35" cy="777.1922" fill="#ADD1B2" rx="6.6" ry="6.6" style="stroke:#181818;stroke-width:0.6;"/><path d="M398.55,775.0922 Q398.6719,774.7922 398.8125,774.6422 Q398.9531,774.4922 399.1125,774.4922 Q399.3938,774.4922 399.5719,774.6609 Q399.75,774.8297 399.75,775.2234 L399.75,776.1609 Q399.75,776.5547 399.5813,776.7234 Q399.4125,776.8922 399.15,776.8922 Q398.9156,776.8922 398.7656,776.7891 Q398.6156,776.6859 398.55,776.4141 Q398.5219,776.2266 398.4188,776.1234 Q398.2313,775.9266 397.8938,775.8141 Q397.5563,775.6922 397.2188,775.6922 Q396.7969,775.6922 396.4406,775.8609 Q396.0938,776.0297 395.8219,776.4047 Q395.55,776.7797 395.55,777.2953 L395.55,777.8484 Q395.55,778.4672 396.0563,778.8797 Q396.5625,779.2922 397.4625,779.2922 Q397.9969,779.2922 398.3719,779.1703 Q398.5875,779.1047 398.8313,778.8891 Q398.9906,778.7672 399.075,778.7297 Q399.1594,778.6922 399.2625,778.6922 Q399.4594,778.6922 399.6,778.8516 Q399.75,779.0016 399.75,779.2172 Q399.75,779.4234 399.5438,779.6672 Q399.2438,780.0234 398.7656,780.2203 Q398.1375,780.4922 397.3688,780.4922 Q396.4688,780.4922 395.7469,780.1359 Q395.1656,779.8547 394.7531,779.2453 Q394.35,778.6359 394.35,777.9141 L394.35,777.2578 Q394.35,776.5078 394.7063,775.8516 Q395.0719,775.1953 395.7,774.8484 Q396.3375,774.4922 397.05,774.4922 Q397.4813,774.4922 397.8563,774.6422 Q398.2313,774.7922 398.55,775.0922 Z " fill="#000000"/><text fill="#000000" font-family="sans-serif" font-size="10.8" lengthAdjust="spacing" textLength="45" x="410.85" y="781.6113">SNSUser</text><line style="stroke:#181818;stroke-width:0.3;" x1="321.3" x2="525.9" y1="788.1844" y2="788.1844"/><text fill="#000000" font-family="sans-serif" font-size="10.8" lengthAdjust="spacing" textLength="30" x="325.5" y="802.9957">-name</text><text fill="#000000" font-family="sans-serif" font-size="10.8" lengthAdjust="spacing" textLength="42" x="325.5" y="818.9801">-address</text><text fill="#000000" font-family="sans-serif" font-size="10.8" lengthAdjust="spacing" textLength="37.2" x="325.5" y="834.9645">-gender</text><text fill="#000000" font-family="sans-serif" font-size="10.8" lengthAdjust="spacing" textLength="28.8" x="325.5" y="850.9488">-email</text><text fill="#000000" font-family="sans-serif" font-size="10.8" lengthAdjust="spacing" textLength="47.4" x="325.5" y="866.9332">-birthDate</text><text fill="#000000" font-family="sans-serif" font-size="10.8" lengthAdjust="spacing" textLength="81" x="325.5" y="882.9176">-snsUserNumber</text><text fill="#000000" font-family="sans-serif" font-size="10.8" lengthAdjust="spacing" textLength="94.8" x="325.5" y="898.902">-citizenCardNumber</text><line style="stroke:#181818;stroke-width:0.3;" x1="321.3" x2="525.9" y1="904.875" y2="904.875"/><text fill="#000000" font-family="sans-serif" font-size="10.8" lengthAdjust="spacing" textLength="70.8" x="325.5" y="919.6863">+equals(email)</text><text fill="#000000" font-family="sans-serif" font-size="10.8" lengthAdjust="spacing" textLength="55.2" x="325.5" y="935.6707">+getEmail()</text><text fill="#000000" font-family="sans-serif" font-size="10.8" lengthAdjust="spacing" textLength="196.2" x="325.5" y="951.6551">+addVaccineSchedule(vaccineSchedule)</text></g><!--MD5=[5d909b6c20725e19f5c6863827561ff4]
class Constants--><g id="elem_Constants"><rect codeLine="143" fill="#F1F1F1" height="47.5688" id="Constants" rx="1.5" ry="1.5" style="stroke:#181818;stroke-width:0.3;" width="109.8" x="1154.1" y="356.7"/><ellipse cx="1180.95" cy="367.6922" fill="#ADD1B2" rx="6.6" ry="6.6" style="stroke:#181818;stroke-width:0.6;"/><path d="M1182.15,365.5922 Q1182.2719,365.2922 1182.4125,365.1422 Q1182.5531,364.9922 1182.7125,364.9922 Q1182.9937,364.9922 1183.1719,365.1609 Q1183.35,365.3297 1183.35,365.7234 L1183.35,366.6609 Q1183.35,367.0547 1183.1812,367.2234 Q1183.0125,367.3922 1182.75,367.3922 Q1182.5156,367.3922 1182.3656,367.2891 Q1182.2156,367.1859 1182.15,366.9141 Q1182.1219,366.7266 1182.0188,366.6234 Q1181.8313,366.4266 1181.4937,366.3141 Q1181.1563,366.1922 1180.8188,366.1922 Q1180.3969,366.1922 1180.0406,366.3609 Q1179.6938,366.5297 1179.4219,366.9047 Q1179.15,367.2797 1179.15,367.7953 L1179.15,368.3484 Q1179.15,368.9672 1179.6563,369.3797 Q1180.1625,369.7922 1181.0625,369.7922 Q1181.5969,369.7922 1181.9719,369.6703 Q1182.1875,369.6047 1182.4312,369.3891 Q1182.5906,369.2672 1182.675,369.2297 Q1182.7594,369.1922 1182.8625,369.1922 Q1183.0594,369.1922 1183.2,369.3516 Q1183.35,369.5016 1183.35,369.7172 Q1183.35,369.9234 1183.1438,370.1672 Q1182.8438,370.5234 1182.3656,370.7203 Q1181.7375,370.9922 1180.9688,370.9922 Q1180.0688,370.9922 1179.3469,370.6359 Q1178.7656,370.3547 1178.3531,369.7453 Q1177.95,369.1359 1177.95,368.4141 L1177.95,367.7578 Q1177.95,367.0078 1178.3062,366.3516 Q1178.6719,365.6953 1179.3,365.3484 Q1179.9375,364.9922 1180.65,364.9922 Q1181.0813,364.9922 1181.4563,365.1422 Q1181.8313,365.2922 1182.15,365.5922 Z " fill="#000000"/><text fill="#000000" font-family="sans-serif" font-size="10.8" lengthAdjust="spacing" textLength="48.6" x="1194.45" y="372.1113">Constants</text><line style="stroke:#181818;stroke-width:0.3;" x1="1154.7" x2="1263.3" y1="378.6844" y2="378.6844"/><text fill="#000000" font-family="sans-serif" font-size="10.8" lengthAdjust="spacing" textLength="100.2" x="1158.9" y="393.4957">+ROLE_SNS_USER</text><line style="stroke:#181818;stroke-width:0.3;" x1="1154.7" x2="1263.3" y1="399.4688" y2="399.4688"/></g><!--MD5=[04c5233df36241082d1764b80619f581]
class SMSNotifier--><g id="elem_SMSNotifier"><rect codeLine="148" fill="#F1F1F1" height="79.5375" id="SMSNotifier" rx="1.5" ry="1.5" style="stroke:#181818;stroke-width:0.3;" width="295.2" x="752.4" y="517.2"/><ellipse cx="867.45" cy="528.1922" fill="#ADD1B2" rx="6.6" ry="6.6" style="stroke:#181818;stroke-width:0.6;"/><path d="M868.65,526.0922 Q868.7719,525.7922 868.9125,525.6422 Q869.0531,525.4922 869.2125,525.4922 Q869.4938,525.4922 869.6719,525.6609 Q869.85,525.8297 869.85,526.2234 L869.85,527.1609 Q869.85,527.5547 869.6813,527.7234 Q869.5125,527.8922 869.25,527.8922 Q869.0156,527.8922 868.8656,527.7891 Q868.7156,527.6859 868.65,527.4141 Q868.6219,527.2266 868.5188,527.1234 Q868.3313,526.9266 867.9938,526.8141 Q867.6563,526.6922 867.3188,526.6922 Q866.8969,526.6922 866.5406,526.8609 Q866.1938,527.0297 865.9219,527.4047 Q865.65,527.7797 865.65,528.2953 L865.65,528.8484 Q865.65,529.4672 866.1563,529.8797 Q866.6625,530.2922 867.5625,530.2922 Q868.0969,530.2922 868.4719,530.1703 Q868.6875,530.1047 868.9313,529.8891 Q869.0906,529.7672 869.175,529.7297 Q869.2594,529.6922 869.3625,529.6922 Q869.5594,529.6922 869.7,529.8516 Q869.85,530.0016 869.85,530.2172 Q869.85,530.4234 869.6438,530.6672 Q869.3438,531.0234 868.8656,531.2203 Q868.2375,531.4922 867.4688,531.4922 Q866.5688,531.4922 865.8469,531.1359 Q865.2656,530.8547 864.8531,530.2453 Q864.45,529.6359 864.45,528.9141 L864.45,528.2578 Q864.45,527.5078 864.8063,526.8516 Q865.1719,526.1953 865.8,525.8484 Q866.4375,525.4922 867.15,525.4922 Q867.5813,525.4922 867.9563,525.6422 Q868.3313,525.7922 868.65,526.0922 Z " fill="#000000"/><text fill="#000000" font-family="sans-serif" font-size="10.8" lengthAdjust="spacing" textLength="57.6" x="880.95" y="532.6113">SMSNotifier</text><line style="stroke:#181818;stroke-width:0.3;" x1="753" x2="1047" y1="539.1844" y2="539.1844"/><text fill="#000000" font-family="sans-serif" font-size="10.8" lengthAdjust="spacing" textLength="167.4" x="757.2" y="553.9957">+fileName = "SMSNotifications.txt";</text><line style="stroke:#181818;stroke-width:0.3;" x1="753" x2="1047" y1="559.9688" y2="559.9688"/><text fill="#000000" font-family="sans-serif" font-size="10.8" lengthAdjust="spacing" textLength="285.6" x="757.2" y="574.7801">+addVaccineSchedule(vaccinationCenter,vaccineSchedule)</text><text fill="#000000" font-family="sans-serif" font-size="10.8" lengthAdjust="spacing" textLength="235.8" x="757.2" y="590.7645">+buildString(vaccinationCenter,vaccineSchedule)</text></g><!--MD5=[4cec49d352670e8d15e67f3c35a7ae00]
link ScheduleVaccinationUI to ScheduleVaccinationController--><g id="link_ScheduleVaccinationUI_ScheduleVaccinationController"><path codeLine="158" d="M611.4,36.138 C611.4,49.944 611.4,71.322 611.4,93.234 " fill="none" id="ScheduleVaccinationUI-to-ScheduleVaccinationController" style="stroke:#181818;stroke-width:0.6;stroke-dasharray:7.0,7.0;"/><polygon fill="#181818" points="611.4,96.474,613.8,91.074,611.4,93.474,609,91.074,611.4,96.474" style="stroke:#181818;stroke-width:0.6;"/></g><!--MD5=[26c036055d81a5a5c9d8d26bdd651650]
link ScheduleVaccinationController to App--><g id="link_ScheduleVaccinationController_App"><path codeLine="159" d="M446.046,210.708 C355.32,233.172 242.748,267.708 150,316.8 C142.398,320.826 134.826,325.644 127.554,330.798 " fill="none" id="ScheduleVaccinationController-to-App" style="stroke:#181818;stroke-width:0.6;stroke-dasharray:7.0,7.0;"/><polygon fill="#181818" points="125.094,332.556,130.88,331.3549,127.5306,330.8058,128.0796,327.4564,125.094,332.556" style="stroke:#181818;stroke-width:0.6;"/></g><!--MD5=[67d24ff541f966760aea0c4bd402d51e]
link ScheduleVaccinationController to Platform--><g id="link_ScheduleVaccinationController_Platform"><path codeLine="160" d="M611.4,256.278 C611.4,275.232 611.4,295.272 611.4,313.572 " fill="none" id="ScheduleVaccinationController-to-Platform" style="stroke:#181818;stroke-width:0.6;stroke-dasharray:7.0,7.0;"/><polygon fill="#181818" points="611.4,316.728,613.8,311.328,611.4,313.728,609,311.328,611.4,316.728" style="stroke:#181818;stroke-width:0.6;"/></g><!--MD5=[ff14761972ffacb1a50539def95233be]
link ScheduleVaccinationController to Company--><g id="link_ScheduleVaccinationController_Company"><path codeLine="161" d="M445.938,207.198 C387.288,223.632 323.412,248.598 273,286.2 C255.012,299.622 240.318,319.626 229.554,337.704 " fill="none" id="ScheduleVaccinationController-to-Company" style="stroke:#181818;stroke-width:0.6;stroke-dasharray:7.0,7.0;"/><polygon fill="#181818" points="227.994,340.356,232.8001,336.9177,229.5147,337.77,228.6624,334.4846,227.994,340.356" style="stroke:#181818;stroke-width:0.6;"/></g><!--MD5=[347e986bcb1be11bfc430afff3475539]
link ScheduleVaccinationController to VaccinationCenter--><g id="link_ScheduleVaccinationController_VaccinationCenter"><path codeLine="162" d="M776.904,253.998 C878.256,310.992 999.372,399.21 1057.8,517.2 C1110.948,624.522 997.464,723.036 892.656,786.894 " fill="none" id="ScheduleVaccinationController-to-VaccinationCenter" style="stroke:#181818;stroke-width:0.6;stroke-dasharray:7.0,7.0;"/><polygon fill="#181818" points="890.028,788.49,895.8897,787.741,892.5929,786.934,893.4,783.6372,890.028,788.49" style="stroke:#181818;stroke-width:0.6;"/></g><!--MD5=[7ab6e397e1080da69586c622a4b487cb]
link ScheduleVaccinationController to Slot--><g id="link_ScheduleVaccinationController_Slot"><path codeLine="163" d="M776.826,209.868 C925.962,244.386 1122,304.152 1122,379.8 C1122,379.8 1122,379.8 1122,1183.2 C1122,1237.974 1081.14,1279.896 1035.066,1309.752 " fill="none" id="ScheduleVaccinationController-to-Slot" style="stroke:#181818;stroke-width:0.6;stroke-dasharray:7.0,7.0;"/><polygon fill="#181818" points="1032.306,1311.522,1038.1462,1310.6207,1034.8295,1309.8997,1035.5505,1306.5831,1032.306,1311.522" style="stroke:#181818;stroke-width:0.6;"/></g><!--MD5=[bc2226c82b97bd3b1b09ec0bd46ddd99]
link ScheduleVaccinationController to VaccineType--><g id="link_ScheduleVaccinationController_VaccineType"><path codeLine="164" d="M445.98,216.354 C366.642,246.078 288.6,296.49 288.6,379.8 C288.6,379.8 288.6,379.8 288.6,862.5 C288.6,947.976 272.832,976.728 310.2,1053.6 C323.958,1081.908 346.59,1107.546 369.15,1128.336 " fill="none" id="ScheduleVaccinationController-to-VaccineType" style="stroke:#181818;stroke-width:0.6;stroke-dasharray:7.0,7.0;"/><polygon fill="#181818" points="371.616,1130.592,369.241,1125.181,369.3985,1128.5714,366.0081,1128.729,371.616,1130.592" style="stroke:#181818;stroke-width:0.6;"/></g><!--MD5=[eb97743631f012273651d5f6dadc21fb]
link ScheduleVaccinationController to Constants--><g id="link_ScheduleVaccinationController_Constants"><path codeLine="165" d="M776.718,198.462 C907.764,217.812 1078.356,248.904 1137.6,286.2 C1163.67,302.616 1183.794,332.148 1195.932,353.664 " fill="none" id="ScheduleVaccinationController-to-Constants" style="stroke:#181818;stroke-width:0.6;stroke-dasharray:7.0,7.0;"/><polygon fill="#181818" points="1197.522,356.508,1196.9746,350.6241,1196.0549,353.8912,1192.7878,352.9715,1197.522,356.508" style="stroke:#181818;stroke-width:0.6;"/></g><!--MD5=[717d4b03d3c4372f4eafe5e342a0a7dd]
link Company to AuthFacade--><g id="link_Company_AuthFacade"><path codeLine="166" d="M196.95,420.384 C186.84,453.996 172.584,501.372 163.836,530.454 " fill="none" id="Company-to-AuthFacade" style="stroke:#181818;stroke-width:0.6;stroke-dasharray:7.0,7.0;"/><polygon fill="#181818" points="162.954,533.382,166.8106,528.9046,163.82,530.5097,162.2149,527.5191,162.954,533.382" style="stroke:#181818;stroke-width:0.6;"/></g><!--MD5=[407f5cddcdb18dfe0f3a2e42bd3fef57]
link App to AuthFacade--><g id="link_App_AuthFacade"><path codeLine="167" d="M94.62,428.262 C110.358,461.142 130.746,503.736 143.604,530.604 " fill="none" id="App-to-AuthFacade" style="stroke:#181818;stroke-width:0.6;stroke-dasharray:7.0,7.0;"/><polygon fill="#181818" points="144.9,533.31,144.73,527.4031,143.6032,530.6048,140.4016,529.478,144.9,533.31" style="stroke:#181818;stroke-width:0.6;"/></g><!--MD5=[27f173b3d875a2683e1e26543d28b4c1]
link Platform to RegisterVaccinationCenter--><g id="link_Platform_RegisterVaccinationCenter"><path codeLine="168" d="M611.4,444.114 C611.4,468.48 611.4,495.612 611.4,517.11 " fill="none" id="Platform-RegisterVaccinationCenter" style="stroke:#181818;stroke-width:0.6;"/><polygon fill="#000000" points="614.4,483.7055,616.1634,478.2784,612.6366,478.2784,614.4,483.7055" style="stroke:#000000;stroke-width:0.6;"/><text fill="#000000" font-family="sans-serif" font-size="7.8" lengthAdjust="spacing" textLength="12.6" x="621" y="483.8971">has</text><text fill="#000000" font-family="sans-serif" font-size="7.8" lengthAdjust="spacing" textLength="4.2" x="605.768" y="458.31">1</text><text fill="#000000" font-family="sans-serif" font-size="7.8" lengthAdjust="spacing" textLength="4.2" x="605.6391" y="509.4028">1</text></g><!--MD5=[03e53bae7fc4ae54f470c8bef76d191a]
link RegisterVaccinationCenter to VaccinationCenter--><g id="link_RegisterVaccinationCenter_VaccinationCenter"><path codeLine="169" d="M628.752,597.078 C637.506,616.932 648.828,642.624 660.966,670.176 " fill="none" id="RegisterVaccinationCenter-VaccinationCenter" style="stroke:#181818;stroke-width:0.6;"/><polygon fill="#000000" points="651.6098,636.4507,651.0348,630.7734,647.8076,632.1956,651.6098,636.4507" style="stroke:#000000;stroke-width:0.6;"/><text fill="#000000" font-family="sans-serif" font-size="7.8" lengthAdjust="spacing" textLength="12.6" x="657" y="636.8971">has</text><text fill="#000000" font-family="sans-serif" font-size="7.8" lengthAdjust="spacing" textLength="4.2" x="624.6913" y="610.7799">1</text><text fill="#000000" font-family="sans-serif" font-size="7.8" lengthAdjust="spacing" textLength="3" x="654.4568" y="662.2259">*</text></g><!--MD5=[6b276e2dfed8b8354946f9f8bab747bb]
link VaccinationCenter to VaccineType--><g id="link_VaccinationCenter_VaccineType"><path codeLine="170" d="M600.39,1014.294 C562.062,1054.47 523.098,1095.312 493.218,1126.632 " fill="none" id="VaccinationCenter-VaccineType" style="stroke:#181818;stroke-width:0.6;"/><polygon fill="#000000" points="531.9292,1092.4761,536.9512,1089.7666,534.3995,1087.3322,531.9292,1092.4761" style="stroke:#000000;stroke-width:0.6;"/><text fill="#000000" font-family="sans-serif" font-size="7.8" lengthAdjust="spacing" textLength="12.6" x="540.6" y="1093.4971">has</text><text fill="#000000" font-family="sans-serif" font-size="7.8" lengthAdjust="spacing" textLength="4.2" x="590.593" y="1015.9426">1</text><text fill="#000000" font-family="sans-serif" font-size="7.8" lengthAdjust="spacing" textLength="3" x="493.0118" y="1119.0031">*</text></g><!--MD5=[44ddd124081204635aa1bcb7eb50042f]
link Platform to RegisterSNSUser--><g id="link_Platform_RegisterSNSUser"><path codeLine="171" d="M533.724,444.114 C504.606,467.766 472.29,494.028 446.22,515.208 " fill="none" id="Platform-to-RegisterSNSUser" style="stroke:#181818;stroke-width:0.6;"/><polygon fill="#181818" points="443.88,517.11,449.5878,515.5801,446.2125,515.2234,446.5693,511.8481,443.88,517.11" style="stroke:#181818;stroke-width:0.6;"/><polygon fill="#000000" points="498.0716,482.5972,503.3956,480.5436,501.1718,477.8064,498.0716,482.5972" style="stroke:#000000;stroke-width:0.6;"/><text fill="#000000" font-family="sans-serif" font-size="7.8" lengthAdjust="spacing" textLength="12.6" x="507" y="483.8971">has</text><text fill="#000000" font-family="sans-serif" font-size="7.8" lengthAdjust="spacing" textLength="4.2" x="522.6304" y="458.31">1</text><text fill="#000000" font-family="sans-serif" font-size="7.8" lengthAdjust="spacing" textLength="4.2" x="443.4216" y="509.4028">1</text></g><!--MD5=[302781c94dffe0e8b3032a5077f059b2]
link RegisterSNSUser to SNSUser--><g id="link_RegisterSNSUser_SNSUser"><path codeLine="172" d="M399.06,597.078 C402.942,638.928 409.242,706.71 414.48,763.14 " fill="none" id="RegisterSNSUser-to-SNSUser" style="stroke:#181818;stroke-width:0.6;"/><polygon fill="#181818" points="414.762,766.164,416.6415,760.5615,414.4788,763.1774,411.8629,761.0147,414.762,766.164" style="stroke:#181818;stroke-width:0.6;"/><polygon fill="#000000" points="406.4774,636.6926,407.7314,631.1258,404.2198,631.4519,406.4774,636.6926" style="stroke:#000000;stroke-width:0.6;"/><text fill="#000000" font-family="sans-serif" font-size="7.8" lengthAdjust="spacing" textLength="12.6" x="412.8" y="636.8971">has</text><text fill="#000000" font-family="sans-serif" font-size="7.8" lengthAdjust="spacing" textLength="4.2" x="393.6943" y="610.7799">1</text><text fill="#000000" font-family="sans-serif" font-size="7.8" lengthAdjust="spacing" textLength="3" x="410.0031" y="758.5377">*</text></g><!--MD5=[e4f582b8b48f7f61a15a78f6c5e9900d]
link VaccinationCenter to Day--><g id="link_VaccinationCenter_Day"><path codeLine="173" d="M842.124,1053.66 C855.042,1079.13 867.396,1103.496 877.8,1124.022 " fill="none" id="VaccinationCenter-to-Day" style="stroke:#181818;stroke-width:0.6;"/><polygon fill="#181818" points="879.192,1126.758,878.8784,1120.857,877.8298,1124.0851,874.6018,1123.0365,879.192,1126.758" style="stroke:#181818;stroke-width:0.6;"/><polygon fill="#000000" points="868.3567,1092.9812,867.4752,1087.3433,864.3297,1088.9382,868.3567,1092.9812" style="stroke:#000000;stroke-width:0.6;"/><text fill="#000000" font-family="sans-serif" font-size="7.8" lengthAdjust="spacing" textLength="29.4" x="873.6" y="1093.4971">contains</text><text fill="#000000" font-family="sans-serif" font-size="7.8" lengthAdjust="spacing" textLength="4.2" x="838.9183" y="1067.5964">1</text><text fill="#000000" font-family="sans-serif" font-size="7.8" lengthAdjust="spacing" textLength="3" x="872.545" y="1119.1392">*</text></g><!--MD5=[466451d383b1ad542b42b3bed4f43384]
link Day to Slot--><g id="link_Day_Slot"><path codeLine="174" d="M907.2,1238.538 C907.2,1260.576 907.2,1285.962 907.2,1308.306 " fill="none" id="Day-to-Slot" style="stroke:#181818;stroke-width:0.6;"/><polygon fill="#181818" points="907.2,1311.576,909.6,1306.176,907.2,1308.576,904.8,1306.176,907.2,1311.576" style="stroke:#181818;stroke-width:0.6;"/><polygon fill="#000000" points="910.2,1278.1055,911.9634,1272.6784,908.4366,1272.6784,910.2,1278.1055" style="stroke:#000000;stroke-width:0.6;"/><text fill="#000000" font-family="sans-serif" font-size="7.8" lengthAdjust="spacing" textLength="29.4" x="916.8" y="1278.2971">contains</text><text fill="#000000" font-family="sans-serif" font-size="7.8" lengthAdjust="spacing" textLength="4.2" x="901.5577" y="1252.3948">1</text><text fill="#000000" font-family="sans-serif" font-size="7.8" lengthAdjust="spacing" textLength="3" x="902.7848" y="1303.9586">*</text></g><!--MD5=[b10ccaee82a2a14db586e48fe75e4fa7]
link Slot to VaccineSchedule--><g id="link_Slot_VaccineSchedule"><path codeLine="175" d="M867.114,1423.308 C851.304,1445.112 832.92,1470.486 816.012,1493.808 " fill="none" id="Slot-to-VaccineSchedule" style="stroke:#181818;stroke-width:0.6;"/><polygon fill="#181818" points="814.17,1496.352,819.2815,1493.3868,815.9299,1493.9225,815.3942,1490.5709,814.17,1496.352" style="stroke:#181818;stroke-width:0.6;"/><polygon fill="#000000" points="844.8393,1462.3345,849.4521,1458.9753,846.5967,1456.9055,844.8393,1462.3345" style="stroke:#000000;stroke-width:0.6;"/><text fill="#000000" font-family="sans-serif" font-size="7.8" lengthAdjust="spacing" textLength="29.4" x="853.2" y="1463.0971">contains</text><text fill="#000000" font-family="sans-serif" font-size="7.8" lengthAdjust="spacing" textLength="4.2" x="858.5278" y="1437.1626">1</text><text fill="#000000" font-family="sans-serif" font-size="7.8" lengthAdjust="spacing" textLength="3" x="813.1007" y="1488.6727">*</text></g><!--MD5=[1fe780c5042c93c38b83d74528355a6b]
link VaccinationCenter to VaccineSchedule--><g id="link_VaccinationCenter_VaccineSchedule"><path codeLine="176" d="M749.922,1053.75 C753.498,1198.608 758.214,1389.774 760.77,1493.256 " fill="none" id="VaccinationCenter-to-VaccineSchedule" style="stroke:#181818;stroke-width:0.6;stroke-dasharray:7.0,7.0;"/><polygon fill="#181818" points="760.842,1496.292,763.1024,1490.8321,760.7649,1493.293,758.304,1490.9555,760.842,1496.292" style="stroke:#181818;stroke-width:0.6;"/></g><!--MD5=[3e8795b8297caaa2a52cffa82647c0c5]
link Platform to SMSNotifier--><g id="link_Platform_SMSNotifier"><path codeLine="177" d="M715.182,444.114 C755.262,468.48 799.872,495.612 835.224,517.11 " fill="none" id="Platform-SMSNotifier" style="stroke:#181818;stroke-width:0.6;"/><polygon fill="#000000" points="787.3633,482.2642,783.6424,477.9378,781.8101,480.9511,787.3633,482.2642" style="stroke:#000000;stroke-width:0.6;"/><text fill="#000000" font-family="sans-serif" font-size="7.8" lengthAdjust="spacing" textLength="12.6" x="791.4" y="483.8971">has</text><text fill="#000000" font-family="sans-serif" font-size="7.8" lengthAdjust="spacing" textLength="4.2" x="716.8471" y="458.31">1</text><text fill="#000000" font-family="sans-serif" font-size="7.8" lengthAdjust="spacing" textLength="4.2" x="822.3782" y="509.4028">1</text></g><!--MD5=[9cdf47101fa8339ca9db7d95cc14d267]
@startuml
skinparam classAttributeIconSize 0
skinparam padding 2
skinparam ranksep 100
skinparam classFontSize 18

class ScheduleVaccinationUI

class ScheduleVaccinationController
{
- App app
+validateUserSession()
+getVaccinationCenterList()
+getAvailableVaccineTypes(vaccinationCenter)
+getAvailableSlots(vaccinationCenter,date)
+createVaccineSchedule(vaccinationCenter,vaccineType,date,slot)
+scheduleVaccination(vaccineSchedule)
+receiveSMSNotification()
}

class App
{
    +getCompany()
    +getCurrentUserSession()
    +{static} static getInstance()
    -bootstrap()
}

class Company {
-designation
+getPlatform()
+getAuthFacade()
}

class AuthFacade
{
+getCurrentUserSession()
}

class Platform
{
-SMSNotifier smsNotifier
-RegisterSNSUser m_oRegisterSNSUser
-RegisterVaccinationCenter m_oRegisterVaccinationCenter
+getRegisterVaccinationCenter()
+getRegisterSNSUser()
+getSMSNotifier()
}

class RegisterVaccinationCenter
{
-Email m_oEmail
-List<VaccinationCenter> listVaccinationCenters
+getListVaccinationCenters()
}

class VaccinationCenter
{
-name
-address
-phoneNumber
-emailAddress
-faxNumber
-websiteAddress
-openingHours
-openingMinutes
-closingHours
-closingMinutes
-slotDuration
-maxNumberVaccines
-List<Day> operatingDays
-WaitingRoom waitingRoom
-List<Vaccine> listVaccines
-List<VaccineType> listVaccineTypes
+getListVaccineTypes()
+getAllAvailableSlotsInVaccinationCenter(dateDay)
+getDay(dateDay)
+validateScheduleDate(dateDay)
+createVaccineSchedule(snsUser, vaccineType, day, slot)
+scheduleVaccine(vaccineSchedule)

}

class VaccineType
{
-code
-designation
-typeOfVaccine
-List<Vaccine> vaccineList
+TypesOfVaccine
}

class Day
{
-Date day
-List<Slot> slots
-maxNumberVaccines
+createVaccineSchedule(snsUser,vaccineType,slot)
+scheduleVaccine(vaccineSchedule)
}

class Slot
{
-Date hour
-List<VaccineSchedule> scheduledVaccinations
+createVaccineSchedule(day,vaccineType,snsUser)
-createDate(day)
+scheduleVaccination(vaccineSchedule)
}

class VaccineSchedule
{
-Date vaccinationDate
-SNSUser snsUser
-VaccineType vaccineType
-validateEntrance
-validateVaccineSchedule()
-getDate()
-getSnsUser()
}


class RegisterSNSUser
{
-List<SNSUser> listSNSUser
-AuthFacade authFacade
+getSNSUserByEmail(email)

}

class SNSUser {
-name
-address
-gender
-email
-birthDate
-snsUserNumber
-citizenCardNumber
+equals(email)
+getEmail()
+addVaccineSchedule(vaccineSchedule)
}

class Constants
{
+ROLE_SNS_USER
}

class SMSNotifier
{
+fileName = "SMSNotifications.txt";
+addVaccineSchedule(vaccinationCenter,vaccineSchedule)
+buildString(vaccinationCenter,vaccineSchedule)
}




ScheduleVaccinationUI ..> ScheduleVaccinationController
ScheduleVaccinationController ..> App
ScheduleVaccinationController ..> Platform
ScheduleVaccinationController ..> Company
ScheduleVaccinationController ..> VaccinationCenter
ScheduleVaccinationController ..> Slot
ScheduleVaccinationController ..> VaccineType
ScheduleVaccinationController ..> Constants
Company ..> AuthFacade
App ..> AuthFacade
Platform "1" - -"1" RegisterVaccinationCenter : has >
RegisterVaccinationCenter "1" - - "*" VaccinationCenter : has >
VaccinationCenter "1" - - "*" VaccineType : has >
Platform "1" - -> "1" RegisterSNSUser : has >
RegisterSNSUser "1"- -> "*" SNSUser : has >
VaccinationCenter "1" - -> "*" Day: contains >
Day "1" - -> "*" Slot : contains >
Slot "1" - -> "*" VaccineSchedule : contains >
VaccinationCenter ..> VaccineSchedule
Platform "1" - - "1" SMSNotifier : has >





@enduml

PlantUML version 1.2022.4(Sat Apr 09 14:29:17 BST 2022)
(GPL source distribution)
Java Runtime: OpenJDK Runtime Environment
JVM: OpenJDK 64-Bit Server VM
Default Encoding: Cp1252
Language: en
Country: US
--></g></svg>