<?xml version="1.0" encoding="UTF-8" standalone="no"?><svg xmlns="http://www.w3.org/2000/svg" xmlns:xlink="http://www.w3.org/1999/xlink" contentStyleType="text/css" height="1724px" preserveAspectRatio="none" style="width:1376px;height:1724px;background:#FFFFFF;" version="1.1" viewBox="0 0 1376 1724" width="1376px" zoomAndPan="magnify"><defs/><g><!--MD5=[335f4d9be48430461c68bf6d6fdba145]
class App--><g id="elem_App"><rect codeLine="8" fill="#F1F1F1" height="159.2031" id="App" rx="2.5" ry="2.5" style="stroke:#181818;stroke-width:0.5;" width="218" x="609" y="581"/><ellipse cx="696.25" cy="599.3203" fill="#ADD1B2" rx="11" ry="11" style="stroke:#181818;stroke-width:1.0;"/><path d="M698.25,595.8203 Q698.4531,595.3203 698.6875,595.0703 Q698.9219,594.8203 699.1875,594.8203 Q699.6563,594.8203 699.9531,595.1016 Q700.25,595.3828 700.25,596.0391 L700.25,597.6016 Q700.25,598.2578 699.9688,598.5391 Q699.6875,598.8203 699.25,598.8203 Q698.8594,598.8203 698.6094,598.6484 Q698.3594,598.4766 698.25,598.0234 Q698.2031,597.7109 698.0313,597.5391 Q697.7188,597.2109 697.1563,597.0234 Q696.5938,596.8203 696.0313,596.8203 Q695.3281,596.8203 694.7344,597.1016 Q694.1563,597.3828 693.7031,598.0078 Q693.25,598.6328 693.25,599.4922 L693.25,600.4141 Q693.25,601.4453 694.0938,602.1328 Q694.9375,602.8203 696.4375,602.8203 Q697.3281,602.8203 697.9531,602.6172 Q698.3125,602.5078 698.7188,602.1484 Q698.9844,601.9453 699.125,601.8828 Q699.2656,601.8203 699.4375,601.8203 Q699.7656,601.8203 700,602.0859 Q700.25,602.3359 700.25,602.6953 Q700.25,603.0391 699.9063,603.4453 Q699.4063,604.0391 698.6094,604.3672 Q697.5625,604.8203 696.2813,604.8203 Q694.7813,604.8203 693.5781,604.2266 Q692.6094,603.7578 691.9219,602.7422 Q691.25,601.7266 691.25,600.5234 L691.25,599.4297 Q691.25,598.1797 691.8438,597.0859 Q692.4531,595.9922 693.5,595.4141 Q694.5625,594.8203 695.75,594.8203 Q696.4688,594.8203 697.0938,595.0703 Q697.7188,595.3203 698.25,595.8203 Z " fill="#000000"/><text fill="#000000" font-family="sans-serif" font-size="18" lengthAdjust="spacing" textLength="31" x="718.75" y="606.6855">App</text><line style="stroke:#181818;stroke-width:0.5;" x1="610" x2="826" y1="617.6406" y2="617.6406"/><text fill="#000000" font-family="sans-serif" font-size="18" lengthAdjust="spacing" textLength="159" x="617" y="642.3262">-Company company</text><text fill="#000000" font-family="sans-serif" font-size="18" lengthAdjust="spacing" textLength="202" x="617" y="668.9668">-AuthFacade authFacade</text><line style="stroke:#181818;stroke-width:0.5;" x1="610" x2="826" y1="678.9219" y2="678.9219"/><text fill="#000000" font-family="sans-serif" font-size="18" lengthAdjust="spacing" textLength="124" x="617" y="703.6074">+getCompany()</text><text fill="#000000" font-family="sans-serif" font-size="18" lengthAdjust="spacing" textLength="115" x="617" y="730.248">+getInstance()</text></g><!--MD5=[02e4b9b7573f1156f41e60aa5b4e25a4]
class Company--><g id="elem_Company"><rect codeLine="14" fill="#F1F1F1" height="159.2031" id="Company" rx="2.5" ry="2.5" style="stroke:#181818;stroke-width:0.5;" width="218" x="862" y="581"/><ellipse cx="926.75" cy="599.3203" fill="#ADD1B2" rx="11" ry="11" style="stroke:#181818;stroke-width:1.0;"/><path d="M928.75,595.8203 Q928.9531,595.3203 929.1875,595.0703 Q929.4219,594.8203 929.6875,594.8203 Q930.1563,594.8203 930.4531,595.1016 Q930.75,595.3828 930.75,596.0391 L930.75,597.6016 Q930.75,598.2578 930.4688,598.5391 Q930.1875,598.8203 929.75,598.8203 Q929.3594,598.8203 929.1094,598.6484 Q928.8594,598.4766 928.75,598.0234 Q928.7031,597.7109 928.5313,597.5391 Q928.2188,597.2109 927.6563,597.0234 Q927.0938,596.8203 926.5313,596.8203 Q925.8281,596.8203 925.2344,597.1016 Q924.6563,597.3828 924.2031,598.0078 Q923.75,598.6328 923.75,599.4922 L923.75,600.4141 Q923.75,601.4453 924.5938,602.1328 Q925.4375,602.8203 926.9375,602.8203 Q927.8281,602.8203 928.4531,602.6172 Q928.8125,602.5078 929.2188,602.1484 Q929.4844,601.9453 929.625,601.8828 Q929.7656,601.8203 929.9375,601.8203 Q930.2656,601.8203 930.5,602.0859 Q930.75,602.3359 930.75,602.6953 Q930.75,603.0391 930.4063,603.4453 Q929.9063,604.0391 929.1094,604.3672 Q928.0625,604.8203 926.7813,604.8203 Q925.2813,604.8203 924.0781,604.2266 Q923.1094,603.7578 922.4219,602.7422 Q921.75,601.7266 921.75,600.5234 L921.75,599.4297 Q921.75,598.1797 922.3438,597.0859 Q922.9531,595.9922 924,595.4141 Q925.0625,594.8203 926.25,594.8203 Q926.9688,594.8203 927.5938,595.0703 Q928.2188,595.3203 928.75,595.8203 Z " fill="#000000"/><text fill="#000000" font-family="sans-serif" font-size="18" lengthAdjust="spacing" textLength="76" x="949.25" y="606.6855">Company</text><line style="stroke:#181818;stroke-width:0.5;" x1="863" x2="1079" y1="617.6406" y2="617.6406"/><text fill="#000000" font-family="sans-serif" font-size="18" lengthAdjust="spacing" textLength="150" x="870" y="642.3262">-String designation</text><text fill="#000000" font-family="sans-serif" font-size="18" lengthAdjust="spacing" textLength="202" x="870" y="668.9668">-AuthFacade authFacade</text><text fill="#000000" font-family="sans-serif" font-size="18" lengthAdjust="spacing" textLength="177" x="870" y="695.6074">-Platform m_oPlatform</text><line style="stroke:#181818;stroke-width:0.5;" x1="863" x2="1079" y1="705.5625" y2="705.5625"/><text fill="#000000" font-family="sans-serif" font-size="18" lengthAdjust="spacing" textLength="114" x="870" y="730.248">+getPlatform()</text></g><!--MD5=[99b8db98afdc2c8404e39242ef4c1e65]
class Platform--><g id="elem_Platform"><rect codeLine="20" fill="#F1F1F1" height="132.5625" id="Platform" rx="2.5" ry="2.5" style="stroke:#181818;stroke-width:0.5;" width="403" x="931.5" y="862"/><ellipse cx="1093.75" cy="880.3203" fill="#ADD1B2" rx="11" ry="11" style="stroke:#181818;stroke-width:1.0;"/><path d="M1095.75,876.8203 Q1095.9531,876.3203 1096.1875,876.0703 Q1096.4219,875.8203 1096.6875,875.8203 Q1097.1563,875.8203 1097.4531,876.1016 Q1097.75,876.3828 1097.75,877.0391 L1097.75,878.6016 Q1097.75,879.2578 1097.4688,879.5391 Q1097.1875,879.8203 1096.75,879.8203 Q1096.3594,879.8203 1096.1094,879.6484 Q1095.8594,879.4766 1095.75,879.0234 Q1095.7031,878.7109 1095.5313,878.5391 Q1095.2188,878.2109 1094.6563,878.0234 Q1094.0938,877.8203 1093.5313,877.8203 Q1092.8281,877.8203 1092.2344,878.1016 Q1091.6563,878.3828 1091.2031,879.0078 Q1090.75,879.6328 1090.75,880.4922 L1090.75,881.4141 Q1090.75,882.4453 1091.5938,883.1328 Q1092.4375,883.8203 1093.9375,883.8203 Q1094.8281,883.8203 1095.4531,883.6172 Q1095.8125,883.5078 1096.2188,883.1484 Q1096.4844,882.9453 1096.625,882.8828 Q1096.7656,882.8203 1096.9375,882.8203 Q1097.2656,882.8203 1097.5,883.0859 Q1097.75,883.3359 1097.75,883.6953 Q1097.75,884.0391 1097.4063,884.4453 Q1096.9063,885.0391 1096.1094,885.3672 Q1095.0625,885.8203 1093.7813,885.8203 Q1092.2813,885.8203 1091.0781,885.2266 Q1090.1094,884.7578 1089.4219,883.7422 Q1088.75,882.7266 1088.75,881.5234 L1088.75,880.4297 Q1088.75,879.1797 1089.3438,878.0859 Q1089.9531,876.9922 1091,876.4141 Q1092.0625,875.8203 1093.25,875.8203 Q1093.9688,875.8203 1094.5938,876.0703 Q1095.2188,876.3203 1095.75,876.8203 Z " fill="#000000"/><text fill="#000000" font-family="sans-serif" font-size="18" lengthAdjust="spacing" textLength="66" x="1116.25" y="887.6855">Platform</text><line style="stroke:#181818;stroke-width:0.5;" x1="932.5" x2="1333.5" y1="898.6406" y2="898.6406"/><text fill="#000000" font-family="sans-serif" font-size="18" lengthAdjust="spacing" textLength="145" x="939.5" y="923.3262">-String description</text><text fill="#000000" font-family="sans-serif" font-size="18" lengthAdjust="spacing" textLength="387" x="939.5" y="949.9668">-RegisterVaccineType m_oRegisterVaccineType</text><line style="stroke:#181818;stroke-width:0.5;" x1="932.5" x2="1333.5" y1="959.9219" y2="959.9219"/><text fill="#000000" font-family="sans-serif" font-size="18" lengthAdjust="spacing" textLength="219" x="939.5" y="984.6074">+getRegisterVaccineType()</text></g><!--MD5=[de60e6d4f424ae4d0522096f76a59010]
class VaccinationCenter--><g id="elem_VaccinationCenter"><rect codeLine="25" fill="#F1F1F1" height="52.6406" id="VaccinationCenter" rx="2.5" ry="2.5" style="stroke:#181818;stroke-width:0.5;" width="185" x="682.5" y="902"/><ellipse cx="697.5" cy="920.3203" fill="#A9DCDF" rx="11" ry="11" style="stroke:#181818;stroke-width:1.0;"/><path d="M699.25,921.8203 L695.9531,921.8203 L695.5156,922.8203 L695.5156,922.8203 L695.9844,922.8203 L696.5,923.4453 L696.5,923.8203 L696.5,924.1953 L695.9844,924.8203 L695.5156,924.8203 L693.625,924.8203 L693.0156,924.8203 L692.5,924.1953 L692.5,923.8203 L692.5,923.4453 L693.0156,922.8203 L693.625,922.8203 L695.9375,916.8203 L695.0625,916.8203 L694.0156,916.8203 L693.5,916.1953 L693.5,915.8203 L693.5,915.4453 L694.0156,914.8203 L695.0625,914.8203 L698.7344,914.8203 L701.4219,922.8203 L701.9844,922.8203 L701.9844,922.8203 L702.5,923.4453 L702.5,923.8203 L702.5,924.1953 L701.9844,924.8203 L701.4219,924.8203 L699.5313,924.8203 L699.0156,924.8203 L698.5,924.1953 L698.5,923.8203 L698.5,923.4453 L699.0156,922.8203 L699.5313,922.8203 L699.5313,922.8203 L699.25,921.8203 Z M698.7031,919.8203 L697.5,916.2422 L696.4688,919.8203 L698.7031,919.8203 Z " fill="#000000"/><text fill="#000000" font-family="sans-serif" font-size="18" font-style="italic" lengthAdjust="spacing" textLength="149" x="713.5" y="927.6855">VaccinationCenter</text><line style="stroke:#181818;stroke-width:0.5;" x1="683.5" x2="866.5" y1="938.6406" y2="938.6406"/><line style="stroke:#181818;stroke-width:0.5;" x1="683.5" x2="866.5" y1="946.6406" y2="946.6406"/></g><!--MD5=[19e445fc4d3b48519cbe33da05496394]
class Vaccine--><g id="elem_Vaccine"><rect codeLine="26" fill="#F1F1F1" height="239.125" id="Vaccine" rx="2.5" ry="2.5" style="stroke:#181818;stroke-width:0.5;" width="772" x="217" y="1117"/><ellipse cx="565.25" cy="1135.3203" fill="#ADD1B2" rx="11" ry="11" style="stroke:#181818;stroke-width:1.0;"/><path d="M567.25,1131.8203 Q567.4531,1131.3203 567.6875,1131.0703 Q567.9219,1130.8203 568.1875,1130.8203 Q568.6563,1130.8203 568.9531,1131.1016 Q569.25,1131.3828 569.25,1132.0391 L569.25,1133.6016 Q569.25,1134.2578 568.9688,1134.5391 Q568.6875,1134.8203 568.25,1134.8203 Q567.8594,1134.8203 567.6094,1134.6484 Q567.3594,1134.4766 567.25,1134.0234 Q567.2031,1133.7109 567.0313,1133.5391 Q566.7188,1133.2109 566.1563,1133.0234 Q565.5938,1132.8203 565.0313,1132.8203 Q564.3281,1132.8203 563.7344,1133.1016 Q563.1563,1133.3828 562.7031,1134.0078 Q562.25,1134.6328 562.25,1135.4922 L562.25,1136.4141 Q562.25,1137.4453 563.0938,1138.1328 Q563.9375,1138.8203 565.4375,1138.8203 Q566.3281,1138.8203 566.9531,1138.6172 Q567.3125,1138.5078 567.7188,1138.1484 Q567.9844,1137.9453 568.125,1137.8828 Q568.2656,1137.8203 568.4375,1137.8203 Q568.7656,1137.8203 569,1138.0859 Q569.25,1138.3359 569.25,1138.6953 Q569.25,1139.0391 568.9063,1139.4453 Q568.4063,1140.0391 567.6094,1140.3672 Q566.5625,1140.8203 565.2813,1140.8203 Q563.7813,1140.8203 562.5781,1140.2266 Q561.6094,1139.7578 560.9219,1138.7422 Q560.25,1137.7266 560.25,1136.5234 L560.25,1135.4297 Q560.25,1134.1797 560.8438,1133.0859 Q561.4531,1131.9922 562.5,1131.4141 Q563.5625,1130.8203 564.75,1130.8203 Q565.4688,1130.8203 566.0938,1131.0703 Q566.7188,1131.3203 567.25,1131.8203 Z " fill="#000000"/><text fill="#000000" font-family="sans-serif" font-size="18" lengthAdjust="spacing" textLength="63" x="587.75" y="1142.6855">Vaccine</text><line style="stroke:#181818;stroke-width:0.5;" x1="218" x2="988" y1="1153.6406" y2="1153.6406"/><text fill="#000000" font-family="sans-serif" font-size="18" lengthAdjust="spacing" textLength="437" x="225" y="1178.3262">-List&lt;AdministrationProcess&gt; listAdministrationProcess</text><text fill="#000000" font-family="sans-serif" font-size="18" lengthAdjust="spacing" textLength="72" x="225" y="1204.9668">-String id</text><text fill="#000000" font-family="sans-serif" font-size="18" lengthAdjust="spacing" textLength="102" x="225" y="1231.6074">-String name</text><line style="stroke:#181818;stroke-width:0.5;" x1="218" x2="988" y1="1241.5625" y2="1241.5625"/><text fill="#000000" font-family="sans-serif" font-size="18" lengthAdjust="spacing" textLength="154" x="225" y="1266.248">+Vaccine(id, name)</text><text fill="#000000" font-family="sans-serif" font-size="18" lengthAdjust="spacing" textLength="756" x="225" y="1292.8887">+newAdministrationProcess(ageGroups, referenceDose, dosesToBeAdministered, timeInterval)</text><text fill="#000000" font-family="sans-serif" font-size="18" lengthAdjust="spacing" textLength="438" x="225" y="1319.5293">+validateAdministrationProcess(administrationProcess)</text><text fill="#000000" font-family="sans-serif" font-size="18" lengthAdjust="spacing" textLength="406" x="225" y="1346.1699">+addAdministrationProcess(administrationProcess)</text></g><!--MD5=[a2530d24bafc45bb45314d96545aa194]
class AdministrationProcess--><g id="elem_AdministrationProcess"><rect codeLine="35" fill="#F1F1F1" height="239.125" id="AdministrationProcess" rx="2.5" ry="2.5" style="stroke:#181818;stroke-width:0.5;" width="1050" x="7" y="1478"/><ellipse cx="437.25" cy="1496.3203" fill="#ADD1B2" rx="11" ry="11" style="stroke:#181818;stroke-width:1.0;"/><path d="M439.25,1492.8203 Q439.4531,1492.3203 439.6875,1492.0703 Q439.9219,1491.8203 440.1875,1491.8203 Q440.6563,1491.8203 440.9531,1492.1016 Q441.25,1492.3828 441.25,1493.0391 L441.25,1494.6016 Q441.25,1495.2578 440.9688,1495.5391 Q440.6875,1495.8203 440.25,1495.8203 Q439.8594,1495.8203 439.6094,1495.6484 Q439.3594,1495.4766 439.25,1495.0234 Q439.2031,1494.7109 439.0313,1494.5391 Q438.7188,1494.2109 438.1563,1494.0234 Q437.5938,1493.8203 437.0313,1493.8203 Q436.3281,1493.8203 435.7344,1494.1016 Q435.1563,1494.3828 434.7031,1495.0078 Q434.25,1495.6328 434.25,1496.4922 L434.25,1497.4141 Q434.25,1498.4453 435.0938,1499.1328 Q435.9375,1499.8203 437.4375,1499.8203 Q438.3281,1499.8203 438.9531,1499.6172 Q439.3125,1499.5078 439.7188,1499.1484 Q439.9844,1498.9453 440.125,1498.8828 Q440.2656,1498.8203 440.4375,1498.8203 Q440.7656,1498.8203 441,1499.0859 Q441.25,1499.3359 441.25,1499.6953 Q441.25,1500.0391 440.9063,1500.4453 Q440.4063,1501.0391 439.6094,1501.3672 Q438.5625,1501.8203 437.2813,1501.8203 Q435.7813,1501.8203 434.5781,1501.2266 Q433.6094,1500.7578 432.9219,1499.7422 Q432.25,1498.7266 432.25,1497.5234 L432.25,1496.4297 Q432.25,1495.1797 432.8438,1494.0859 Q433.4531,1492.9922 434.5,1492.4141 Q435.5625,1491.8203 436.75,1491.8203 Q437.4688,1491.8203 438.0938,1492.0703 Q438.7188,1492.3203 439.25,1492.8203 Z " fill="#000000"/><text fill="#000000" font-family="sans-serif" font-size="18" lengthAdjust="spacing" textLength="177" x="459.75" y="1503.6855">AdministrationProcess</text><line style="stroke:#181818;stroke-width:0.5;" x1="8" x2="1056" y1="1514.6406" y2="1514.6406"/><text fill="#000000" font-family="sans-serif" font-size="18" lengthAdjust="spacing" textLength="215" x="15" y="1539.3262">-List&lt;Integer[]&gt; ageGroups</text><text fill="#000000" font-family="sans-serif" font-size="18" lengthAdjust="spacing" textLength="186" x="15" y="1565.9668">-Double referenceDose</text><text fill="#000000" font-family="sans-serif" font-size="18" lengthAdjust="spacing" textLength="261" x="15" y="1592.6074">-Integer dosesToBeAdministered</text><text fill="#000000" font-family="sans-serif" font-size="18" lengthAdjust="spacing" textLength="217" x="15" y="1619.248">-List&lt;Integer[]&gt; timeInterval</text><line style="stroke:#181818;stroke-width:0.5;" x1="8" x2="1056" y1="1629.2031" y2="1629.2031"/><text fill="#000000" font-family="sans-serif" font-size="18" lengthAdjust="spacing" textLength="1034" x="15" y="1653.8887">+AdministrationProcess(List&lt;Integer[]&gt; ageGroups,Double referenceDose,int dosesToBeAdministered,List&lt;Integer[]&gt; timeInterval)</text><text fill="#000000" font-family="sans-serif" font-size="18" lengthAdjust="spacing" textLength="818" x="15" y="1680.5293">+AdministrationProcess(List&lt;Integer[]&gt; ageGroups,Double referenceDose,int dosesToBeAdministered)</text><text fill="#000000" font-family="sans-serif" font-size="18" lengthAdjust="spacing" textLength="85" x="15" y="1707.1699">+toString()</text></g><!--MD5=[0e501da62322464167c8ec4d233a6b7e]
class VaccineType--><g id="elem_VaccineType"><rect codeLine="44" fill="#F1F1F1" height="132.5625" id="VaccineType" rx="2.5" ry="2.5" style="stroke:#181818;stroke-width:0.5;" width="140" x="1092" y="1531"/><ellipse cx="1107" cy="1549.3203" fill="#ADD1B2" rx="11" ry="11" style="stroke:#181818;stroke-width:1.0;"/><path d="M1109,1545.8203 Q1109.2031,1545.3203 1109.4375,1545.0703 Q1109.6719,1544.8203 1109.9375,1544.8203 Q1110.4063,1544.8203 1110.7031,1545.1016 Q1111,1545.3828 1111,1546.0391 L1111,1547.6016 Q1111,1548.2578 1110.7188,1548.5391 Q1110.4375,1548.8203 1110,1548.8203 Q1109.6094,1548.8203 1109.3594,1548.6484 Q1109.1094,1548.4766 1109,1548.0234 Q1108.9531,1547.7109 1108.7813,1547.5391 Q1108.4688,1547.2109 1107.9063,1547.0234 Q1107.3438,1546.8203 1106.7813,1546.8203 Q1106.0781,1546.8203 1105.4844,1547.1016 Q1104.9063,1547.3828 1104.4531,1548.0078 Q1104,1548.6328 1104,1549.4922 L1104,1550.4141 Q1104,1551.4453 1104.8438,1552.1328 Q1105.6875,1552.8203 1107.1875,1552.8203 Q1108.0781,1552.8203 1108.7031,1552.6172 Q1109.0625,1552.5078 1109.4688,1552.1484 Q1109.7344,1551.9453 1109.875,1551.8828 Q1110.0156,1551.8203 1110.1875,1551.8203 Q1110.5156,1551.8203 1110.75,1552.0859 Q1111,1552.3359 1111,1552.6953 Q1111,1553.0391 1110.6563,1553.4453 Q1110.1563,1554.0391 1109.3594,1554.3672 Q1108.3125,1554.8203 1107.0313,1554.8203 Q1105.5313,1554.8203 1104.3281,1554.2266 Q1103.3594,1553.7578 1102.6719,1552.7422 Q1102,1551.7266 1102,1550.5234 L1102,1549.4297 Q1102,1548.1797 1102.5938,1547.0859 Q1103.2031,1545.9922 1104.25,1545.4141 Q1105.3125,1544.8203 1106.5,1544.8203 Q1107.2188,1544.8203 1107.8438,1545.0703 Q1108.4688,1545.3203 1109,1545.8203 Z " fill="#000000"/><text fill="#000000" font-family="sans-serif" font-size="18" lengthAdjust="spacing" textLength="104" x="1123" y="1556.6855">VaccineType</text><line style="stroke:#181818;stroke-width:0.5;" x1="1093" x2="1231" y1="1567.6406" y2="1567.6406"/><text fill="#000000" font-family="sans-serif" font-size="18" lengthAdjust="spacing" textLength="39" x="1100" y="1592.3262">code</text><text fill="#000000" font-family="sans-serif" font-size="18" lengthAdjust="spacing" textLength="92" x="1100" y="1618.9668">designation</text><text fill="#000000" font-family="sans-serif" font-size="18" lengthAdjust="spacing" textLength="47" x="1100" y="1645.6074">whold</text><line style="stroke:#181818;stroke-width:0.5;" x1="1093" x2="1231" y1="1655.5625" y2="1655.5625"/></g><!--MD5=[0e7c043a007ff36ee83ae1d805ce7932]
class SpecifyNewVaccineUI--><g id="elem_SpecifyNewVaccineUI"><rect codeLine="50" fill="#F1F1F1" height="52.6406" id="SpecifyNewVaccineUI" rx="2.5" ry="2.5" style="stroke:#181818;stroke-width:0.5;" width="211" x="865.5" y="7"/><ellipse cx="880.5" cy="25.3203" fill="#ADD1B2" rx="11" ry="11" style="stroke:#181818;stroke-width:1.0;"/><path d="M882.5,21.8203 Q882.7031,21.3203 882.9375,21.0703 Q883.1719,20.8203 883.4375,20.8203 Q883.9063,20.8203 884.2031,21.1016 Q884.5,21.3828 884.5,22.0391 L884.5,23.6016 Q884.5,24.2578 884.2188,24.5391 Q883.9375,24.8203 883.5,24.8203 Q883.1094,24.8203 882.8594,24.6484 Q882.6094,24.4766 882.5,24.0234 Q882.4531,23.7109 882.2813,23.5391 Q881.9688,23.2109 881.4063,23.0234 Q880.8438,22.8203 880.2813,22.8203 Q879.5781,22.8203 878.9844,23.1016 Q878.4063,23.3828 877.9531,24.0078 Q877.5,24.6328 877.5,25.4922 L877.5,26.4141 Q877.5,27.4453 878.3438,28.1328 Q879.1875,28.8203 880.6875,28.8203 Q881.5781,28.8203 882.2031,28.6172 Q882.5625,28.5078 882.9688,28.1484 Q883.2344,27.9453 883.375,27.8828 Q883.5156,27.8203 883.6875,27.8203 Q884.0156,27.8203 884.25,28.0859 Q884.5,28.3359 884.5,28.6953 Q884.5,29.0391 884.1563,29.4453 Q883.6563,30.0391 882.8594,30.3672 Q881.8125,30.8203 880.5313,30.8203 Q879.0313,30.8203 877.8281,30.2266 Q876.8594,29.7578 876.1719,28.7422 Q875.5,27.7266 875.5,26.5234 L875.5,25.4297 Q875.5,24.1797 876.0938,23.0859 Q876.7031,21.9922 877.75,21.4141 Q878.8125,20.8203 880,20.8203 Q880.7188,20.8203 881.3438,21.0703 Q881.9688,21.3203 882.5,21.8203 Z " fill="#000000"/><text fill="#000000" font-family="sans-serif" font-size="18" lengthAdjust="spacing" textLength="175" x="896.5" y="32.6855">SpecifyNewVaccineUI</text><line style="stroke:#181818;stroke-width:0.5;" x1="866.5" x2="1075.5" y1="43.6406" y2="43.6406"/><line style="stroke:#181818;stroke-width:0.5;" x1="866.5" x2="1075.5" y1="51.6406" y2="51.6406"/></g><!--MD5=[5ff29b2a06d9bf6e3716314822b7d56c]
class SpecifyNewVaccineController--><g id="elem_SpecifyNewVaccineController"><rect codeLine="51" fill="#F1F1F1" height="319.0469" id="SpecifyNewVaccineController" rx="2.5" ry="2.5" style="stroke:#181818;stroke-width:0.5;" width="797" x="572.5" y="161"/><ellipse cx="846.75" cy="179.3203" fill="#ADD1B2" rx="11" ry="11" style="stroke:#181818;stroke-width:1.0;"/><path d="M848.75,175.8203 Q848.9531,175.3203 849.1875,175.0703 Q849.4219,174.8203 849.6875,174.8203 Q850.1563,174.8203 850.4531,175.1016 Q850.75,175.3828 850.75,176.0391 L850.75,177.6016 Q850.75,178.2578 850.4688,178.5391 Q850.1875,178.8203 849.75,178.8203 Q849.3594,178.8203 849.1094,178.6484 Q848.8594,178.4766 848.75,178.0234 Q848.7031,177.7109 848.5313,177.5391 Q848.2188,177.2109 847.6563,177.0234 Q847.0938,176.8203 846.5313,176.8203 Q845.8281,176.8203 845.2344,177.1016 Q844.6563,177.3828 844.2031,178.0078 Q843.75,178.6328 843.75,179.4922 L843.75,180.4141 Q843.75,181.4453 844.5938,182.1328 Q845.4375,182.8203 846.9375,182.8203 Q847.8281,182.8203 848.4531,182.6172 Q848.8125,182.5078 849.2188,182.1484 Q849.4844,181.9453 849.625,181.8828 Q849.7656,181.8203 849.9375,181.8203 Q850.2656,181.8203 850.5,182.0859 Q850.75,182.3359 850.75,182.6953 Q850.75,183.0391 850.4063,183.4453 Q849.9063,184.0391 849.1094,184.3672 Q848.0625,184.8203 846.7813,184.8203 Q845.2813,184.8203 844.0781,184.2266 Q843.1094,183.7578 842.4219,182.7422 Q841.75,181.7266 841.75,180.5234 L841.75,179.4297 Q841.75,178.1797 842.3438,177.0859 Q842.9531,175.9922 844,175.4141 Q845.0625,174.8203 846.25,174.8203 Q846.9688,174.8203 847.5938,175.0703 Q848.2188,175.3203 848.75,175.8203 Z " fill="#000000"/><text fill="#000000" font-family="sans-serif" font-size="18" lengthAdjust="spacing" textLength="236" x="869.25" y="186.6855">SpecifyNewVaccineController</text><line style="stroke:#181818;stroke-width:0.5;" x1="573.5" x2="1368.5" y1="197.6406" y2="197.6406"/><text fill="#000000" font-family="sans-serif" font-size="18" lengthAdjust="spacing" textLength="72" x="580.5" y="222.3262">-App app</text><text fill="#000000" font-family="sans-serif" font-size="18" lengthAdjust="spacing" textLength="135" x="580.5" y="248.9668">-Vaccine vaccine</text><text fill="#000000" font-family="sans-serif" font-size="18" lengthAdjust="spacing" textLength="260" x="580.5" y="275.6074">-List&lt;AdministrationProcess&gt; list</text><line style="stroke:#181818;stroke-width:0.5;" x1="573.5" x2="1368.5" y1="285.5625" y2="285.5625"/><text fill="#000000" font-family="sans-serif" font-size="18" lengthAdjust="spacing" textLength="259" x="580.5" y="310.248">+SpecifyNewVaccineController()</text><text fill="#000000" font-family="sans-serif" font-size="18" lengthAdjust="spacing" textLength="187" x="580.5" y="336.8887">+newVaccine(id, name)</text><text fill="#000000" font-family="sans-serif" font-size="18" lengthAdjust="spacing" textLength="781" x="580.5" y="363.5293">+newAdministrationProcess(IntegerageGroups, dosesToBeAdministered, dosage, listTimeInterval)</text><text fill="#000000" font-family="sans-serif" font-size="18" lengthAdjust="spacing" textLength="140" x="580.5" y="390.1699">+getVaccineInfo()</text><text fill="#000000" font-family="sans-serif" font-size="18" lengthAdjust="spacing" textLength="116" x="580.5" y="416.8105">+addVaccine()</text><text fill="#000000" font-family="sans-serif" font-size="18" lengthAdjust="spacing" textLength="152" x="580.5" y="443.4512">+getVaccineType()</text><text fill="#000000" font-family="sans-serif" font-size="18" lengthAdjust="spacing" textLength="151" x="580.5" y="470.0918">+setVaccineType()</text></g><!--MD5=[48075a6d395c0370ea048b4a1b4dd9a1]
class RegisterVaccineType--><g id="elem_RegisterVaccineType"><rect codeLine="64" fill="#F1F1F1" height="105.9219" id="RegisterVaccineType" rx="2.5" ry="2.5" style="stroke:#181818;stroke-width:0.5;" width="275" x="1024.5" y="1183.5"/><ellipse cx="1070.25" cy="1201.8203" fill="#ADD1B2" rx="11" ry="11" style="stroke:#181818;stroke-width:1.0;"/><path d="M1072.25,1198.3203 Q1072.4531,1197.8203 1072.6875,1197.5703 Q1072.9219,1197.3203 1073.1875,1197.3203 Q1073.6563,1197.3203 1073.9531,1197.6016 Q1074.25,1197.8828 1074.25,1198.5391 L1074.25,1200.1016 Q1074.25,1200.7578 1073.9688,1201.0391 Q1073.6875,1201.3203 1073.25,1201.3203 Q1072.8594,1201.3203 1072.6094,1201.1484 Q1072.3594,1200.9766 1072.25,1200.5234 Q1072.2031,1200.2109 1072.0313,1200.0391 Q1071.7188,1199.7109 1071.1563,1199.5234 Q1070.5938,1199.3203 1070.0313,1199.3203 Q1069.3281,1199.3203 1068.7344,1199.6016 Q1068.1563,1199.8828 1067.7031,1200.5078 Q1067.25,1201.1328 1067.25,1201.9922 L1067.25,1202.9141 Q1067.25,1203.9453 1068.0938,1204.6328 Q1068.9375,1205.3203 1070.4375,1205.3203 Q1071.3281,1205.3203 1071.9531,1205.1172 Q1072.3125,1205.0078 1072.7188,1204.6484 Q1072.9844,1204.4453 1073.125,1204.3828 Q1073.2656,1204.3203 1073.4375,1204.3203 Q1073.7656,1204.3203 1074,1204.5859 Q1074.25,1204.8359 1074.25,1205.1953 Q1074.25,1205.5391 1073.9063,1205.9453 Q1073.4063,1206.5391 1072.6094,1206.8672 Q1071.5625,1207.3203 1070.2813,1207.3203 Q1068.7813,1207.3203 1067.5781,1206.7266 Q1066.6094,1206.2578 1065.9219,1205.2422 Q1065.25,1204.2266 1065.25,1203.0234 L1065.25,1201.9297 Q1065.25,1200.6797 1065.8438,1199.5859 Q1066.4531,1198.4922 1067.5,1197.9141 Q1068.5625,1197.3203 1069.75,1197.3203 Q1070.4688,1197.3203 1071.0938,1197.5703 Q1071.7188,1197.8203 1072.25,1198.3203 Z " fill="#000000"/><text fill="#000000" font-family="sans-serif" font-size="18" lengthAdjust="spacing" textLength="171" x="1092.75" y="1209.1855">RegisterVaccineType</text><line style="stroke:#181818;stroke-width:0.5;" x1="1025.5" x2="1298.5" y1="1220.1406" y2="1220.1406"/><text fill="#000000" font-family="sans-serif" font-size="18" lengthAdjust="spacing" textLength="259" x="1032.5" y="1244.8262">-List&lt;Vaccine&gt; listVaccineTypes</text><line style="stroke:#181818;stroke-width:0.5;" x1="1025.5" x2="1298.5" y1="1254.7813" y2="1254.7813"/><text fill="#000000" font-family="sans-serif" font-size="18" lengthAdjust="spacing" textLength="180" x="1032.5" y="1279.4668">+getListVaccineType()</text></g><!--MD5=[acf82daadde07daa2d8eb34bfd9d97b1]
link SpecifyNewVaccineUI to SpecifyNewVaccineController--><g id="link_SpecifyNewVaccineUI_SpecifyNewVaccineController"><path codeLine="69" d="M971,60.04 C971,82.86 971,118.4 971,155.93 " fill="none" id="SpecifyNewVaccineUI-to-SpecifyNewVaccineController" style="stroke:#181818;stroke-width:1.0;stroke-dasharray:7.0,7.0;"/><polygon fill="#181818" points="971,160.99,975,151.99,971,155.99,967,151.99,971,160.99" style="stroke:#181818;stroke-width:1.0;"/></g><!--MD5=[e00d3c25701aaa035dc03376dce43328]
link SpecifyNewVaccineController to Company--><g id="link_SpecifyNewVaccineController_Company"><path codeLine="70" d="M971,480.11 C971,513.05 971,546.52 971,575.48 " fill="none" id="SpecifyNewVaccineController-to-Company" style="stroke:#181818;stroke-width:1.0;stroke-dasharray:7.0,7.0;"/><polygon fill="#181818" points="971,580.84,975,571.84,971,575.84,967,571.84,971,580.84" style="stroke:#181818;stroke-width:1.0;"/></g><!--MD5=[8fa9a77413a17b8a0ae9128226c77080]
link SpecifyNewVaccineController to Platform--><g id="link_SpecifyNewVaccineController_Platform"><path codeLine="71" d="M1059.61,480.28 C1074.61,512.78 1088.4,547.36 1098,581 C1124.48,673.84 1131.55,785.66 1133.11,856.67 " fill="none" id="SpecifyNewVaccineController-to-Platform" style="stroke:#181818;stroke-width:1.0;stroke-dasharray:7.0,7.0;"/><polygon fill="#181818" points="1133.22,861.71,1137.0392,852.6318,1133.12,856.711,1129.0408,852.7918,1133.22,861.71" style="stroke:#181818;stroke-width:1.0;"/></g><!--MD5=[7fb92f126a94ff4322738188bfbdf4ae]
link SpecifyNewVaccineController to App--><g id="link_SpecifyNewVaccineController_App"><path codeLine="72" d="M852.28,480.11 C827.32,513.46 801.95,547.35 780.08,576.56 " fill="none" id="SpecifyNewVaccineController-to-App" style="stroke:#181818;stroke-width:1.0;stroke-dasharray:7.0,7.0;"/><polygon fill="#181818" points="776.88,580.84,785.469,576.0203,779.8708,576.8331,779.058,571.235,776.88,580.84" style="stroke:#181818;stroke-width:1.0;"/></g><!--MD5=[d0f849386a6bfbd822f11ca3f8e4c12a]
link Platform to RegisterVaccineType--><g id="link_Platform_RegisterVaccineType"><path codeLine="73" d="M1139.22,995.14 C1144.55,1051.34 1152.11,1131.18 1157.04,1183.16 " fill="none" id="Platform-RegisterVaccineType" style="stroke:#181818;stroke-width:1.0;"/><polygon fill="#000000" points="1150.4718,1061.1535,1152.5441,1051.8714,1146.6925,1052.426,1150.4718,1061.1535" style="stroke:#000000;stroke-width:1.0;"/><text fill="#000000" font-family="sans-serif" font-size="13" lengthAdjust="spacing" textLength="21" x="1161" y="1061.4951">has</text><text fill="#000000" font-family="sans-serif" font-size="13" lengthAdjust="spacing" textLength="7" x="1130.2886" y="1017.9775">1</text><text fill="#000000" font-family="sans-serif" font-size="13" lengthAdjust="spacing" textLength="7" x="1146.6998" y="1170.5672">1</text></g><!--MD5=[edb9cc7d2ec7d3549ecb715d4bd88d2d]
link RegisterVaccineType to VaccineType--><g id="link_RegisterVaccineType_VaccineType"><path codeLine="74" d="M1162,1289.7 C1162,1353.49 1162,1461.46 1162,1530.82 " fill="none" id="RegisterVaccineType-VaccineType" style="stroke:#181818;stroke-width:1.0;"/><polygon fill="#000000" points="1167,1422.1758,1169.9389,1413.1307,1164.0611,1413.1307,1167,1422.1758" style="stroke:#000000;stroke-width:1.0;"/><text fill="#000000" font-family="sans-serif" font-size="13" lengthAdjust="spacing" textLength="21" x="1178" y="1422.4951">has</text><text fill="#000000" font-family="sans-serif" font-size="13" lengthAdjust="spacing" textLength="7" x="1152.3297" y="1312.9238">1</text><text fill="#000000" font-family="sans-serif" font-size="13" lengthAdjust="spacing" textLength="5" x="1154.5078" y="1517.9714">*</text></g><!--MD5=[71da4be24892bfec694db06bf9e3c284]
link Company to Platform--><g id="link_Company_Platform"><path codeLine="75" d="M1018.95,740.23 C1042.55,778.99 1070.68,825.17 1093.09,861.97 " fill="none" id="Company-Platform" style="stroke:#181818;stroke-width:1.0;"/><polygon fill="#000000" points="1068.6007,805.4462,1066.4061,796.1923,1061.3859,799.2496,1068.6007,805.4462" style="stroke:#000000;stroke-width:1.0;"/><text fill="#000000" font-family="sans-serif" font-size="13" lengthAdjust="spacing" textLength="21" x="1077" y="806.4951">has</text><text fill="#000000" font-family="sans-serif" font-size="13" lengthAdjust="spacing" textLength="7" x="1013.7307" y="763.7233">1</text><text fill="#000000" font-family="sans-serif" font-size="13" lengthAdjust="spacing" textLength="7" x="1079.1233" y="849.1378">1</text></g><!--MD5=[eebe9b198877275d05dd12630ed9e401]
link Company to VaccinationCenter--><g id="link_Company_VaccinationCenter"><path codeLine="76" d="M912.99,740.23 C872.58,795.07 821.22,864.78 793.97,901.75 " fill="none" id="Company-VaccinationCenter" style="stroke:#181818;stroke-width:1.0;"/><polygon fill="#000000" points="875.0339,805.201,882.7656,799.6627,878.0336,796.1759,875.0339,805.201" style="stroke:#000000;stroke-width:1.0;"/><text fill="#000000" font-family="sans-serif" font-size="13" lengthAdjust="spacing" textLength="53" x="889" y="806.4951">manages</text><text fill="#000000" font-family="sans-serif" font-size="13" lengthAdjust="spacing" textLength="7" x="898.3336" y="763.7233">1</text><text fill="#000000" font-family="sans-serif" font-size="13" lengthAdjust="spacing" textLength="5" x="790.1353" y="889.2838">*</text></g><!--MD5=[759c7f6dbf62b13e16002bff783a0fa8]
link VaccinationCenter to Vaccine--><g id="link_VaccinationCenter_Vaccine"><path codeLine="77" d="M760.63,955.06 C740.65,990.61 703.15,1057.33 669.74,1116.76 " fill="none" id="VaccinationCenter-Vaccine" style="stroke:#181818;stroke-width:1.0;"/><polygon fill="#000000" points="712.5501,1060.5344,719.544,1054.0896,714.4201,1051.2095,712.5501,1060.5344" style="stroke:#000000;stroke-width:1.0;"/><text fill="#000000" font-family="sans-serif" font-size="13" lengthAdjust="spacing" textLength="41" x="726" y="1061.4951">applies</text><text fill="#000000" font-family="sans-serif" font-size="13" lengthAdjust="spacing" textLength="7" x="747.5318" y="978.1689">1</text><text fill="#000000" font-family="sans-serif" font-size="13" lengthAdjust="spacing" textLength="5" x="666.7273" y="1103.9509">*</text></g><!--MD5=[a98252b7739f22b1ddec3651c1c3aaea]
link Vaccine to AdministrationProcess--><g id="link_Vaccine_AdministrationProcess"><path codeLine="78" d="M579.56,1356.04 C571.82,1395.16 563.22,1438.65 555.48,1477.77 " fill="none" id="Vaccine-AdministrationProcess" style="stroke:#181818;stroke-width:1.0;"/><polygon fill="#000000" points="574.0297,1422.0807,578.668,1413.7779,572.9019,1412.6373,574.0297,1422.0807" style="stroke:#000000;stroke-width:1.0;"/><text fill="#000000" font-family="sans-serif" font-size="13" lengthAdjust="spacing" textLength="21" x="586" y="1422.4951">has</text><text fill="#000000" font-family="sans-serif" font-size="13" lengthAdjust="spacing" textLength="7" x="568.7965" y="1379.4359">1</text><text fill="#000000" font-family="sans-serif" font-size="13" lengthAdjust="spacing" textLength="5" x="549.6959" y="1464.9615">*</text></g><!--MD5=[3568623adf67b2630dce9e60c05bd02a]
link Vaccine to VaccineType--><g id="link_Vaccine_VaccineType"><path codeLine="79" d="M888.8,1356.12 C953.7,1390.17 1019.72,1431.03 1075,1478 C1092.6,1492.96 1108.63,1512.15 1122,1530.71 " fill="none" id="Vaccine-VaccineType" style="stroke:#181818;stroke-width:1.0;"/><polygon fill="#000000" points="1016.0026,1420.1724,1010.5232,1412.3988,1007.0005,1417.1041,1016.0026,1420.1724" style="stroke:#000000;stroke-width:1.0;"/><text fill="#000000" font-family="sans-serif" font-size="13" lengthAdjust="spacing" textLength="24" x="1023" y="1422.4951">is of</text><text fill="#000000" font-family="sans-serif" font-size="13" lengthAdjust="spacing" textLength="5" x="898.9417" y="1379.5207">*</text><text fill="#000000" font-family="sans-serif" font-size="13" lengthAdjust="spacing" textLength="7" x="1108.3078" y="1518.3268">1</text></g><!--MD5=[650c92ec7535792362cc5e309df6736d]
@startuml
'https://plantuml.com/sequence-diagram

skinparam classAttributeIconSize 0
skinparam padding 2
skinparam ranksep 100
skinparam classFontSize 18

class App{
-Company company
-AuthFacade authFacade
+getCompany()
+getInstance()
}
class Company{
-String designation
-AuthFacade authFacade
-Platform m_oPlatform
+getPlatform()
}
class Platform{
-String description
-RegisterVaccineType m_oRegisterVaccineType
+getRegisterVaccineType()
}
abstract class VaccinationCenter
class Vaccine{
-List<AdministrationProcess> listAdministrationProcess
-String id
-String name
+Vaccine(id, name)
+newAdministrationProcess(ageGroups, referenceDose, dosesToBeAdministered, timeInterval)
+validateAdministrationProcess(administrationProcess)
+addAdministrationProcess(administrationProcess)
}
class AdministrationProcess{
-List<Integer[]> ageGroups
-Double referenceDose
-Integer dosesToBeAdministered
-List<Integer[]> timeInterval
+AdministrationProcess(List<Integer[]> ageGroups,Double referenceDose,int dosesToBeAdministered,List<Integer[]> timeInterval)
+AdministrationProcess(List<Integer[]> ageGroups,Double referenceDose,int dosesToBeAdministered)
+toString()
}
class VaccineType{
code
designation
whold
}

class SpecifyNewVaccineUI
class SpecifyNewVaccineController{
-App app
-Vaccine vaccine
-List<AdministrationProcess> list
+SpecifyNewVaccineController()
+newVaccine(id, name)
+newAdministrationProcess(IntegerageGroups, dosesToBeAdministered, dosage, listTimeInterval)
+getVaccineInfo()
+addVaccine()
+getVaccineType()
+setVaccineType()
}

class RegisterVaccineType{
-List<Vaccine> listVaccineTypes
+getListVaccineType()
}

SpecifyNewVaccineUI ..> SpecifyNewVaccineController
SpecifyNewVaccineController ..> Company
SpecifyNewVaccineController ..> Platform
SpecifyNewVaccineController ..> App
Platform "1"- -"1" RegisterVaccineType : has >
RegisterVaccineType "1"- -"*" VaccineType : has >
Company "1"- -"1" Platform : has >
Company "1"- -"*" VaccinationCenter : manages >
VaccinationCenter "1"- -"*" Vaccine : applies >
Vaccine "1"- -"*" AdministrationProcess : has >
Vaccine "*"- -"1" VaccineType : is of >

@enduml

@startuml

skinparam classAttributeIconSize 0
skinparam padding 2
skinparam ranksep 100
skinparam classFontSize 18

class App{
-Company company
-AuthFacade authFacade
+getCompany()
+getInstance()
}
class Company{
-String designation
-AuthFacade authFacade
-Platform m_oPlatform
+getPlatform()
}
class Platform{
-String description
-RegisterVaccineType m_oRegisterVaccineType
+getRegisterVaccineType()
}
abstract class VaccinationCenter
class Vaccine{
-List<AdministrationProcess> listAdministrationProcess
-String id
-String name
+Vaccine(id, name)
+newAdministrationProcess(ageGroups, referenceDose, dosesToBeAdministered, timeInterval)
+validateAdministrationProcess(administrationProcess)
+addAdministrationProcess(administrationProcess)
}
class AdministrationProcess{
-List<Integer[]> ageGroups
-Double referenceDose
-Integer dosesToBeAdministered
-List<Integer[]> timeInterval
+AdministrationProcess(List<Integer[]> ageGroups,Double referenceDose,int dosesToBeAdministered,List<Integer[]> timeInterval)
+AdministrationProcess(List<Integer[]> ageGroups,Double referenceDose,int dosesToBeAdministered)
+toString()
}
class VaccineType{
code
designation
whold
}

class SpecifyNewVaccineUI
class SpecifyNewVaccineController{
-App app
-Vaccine vaccine
-List<AdministrationProcess> list
+SpecifyNewVaccineController()
+newVaccine(id, name)
+newAdministrationProcess(IntegerageGroups, dosesToBeAdministered, dosage, listTimeInterval)
+getVaccineInfo()
+addVaccine()
+getVaccineType()
+setVaccineType()
}

class RegisterVaccineType{
-List<Vaccine> listVaccineTypes
+getListVaccineType()
}

SpecifyNewVaccineUI ..> SpecifyNewVaccineController
SpecifyNewVaccineController ..> Company
SpecifyNewVaccineController ..> Platform
SpecifyNewVaccineController ..> App
Platform "1"- -"1" RegisterVaccineType : has >
RegisterVaccineType "1"- -"*" VaccineType : has >
Company "1"- -"1" Platform : has >
Company "1"- -"*" VaccinationCenter : manages >
VaccinationCenter "1"- -"*" Vaccine : applies >
Vaccine "1"- -"*" AdministrationProcess : has >
Vaccine "*"- -"1" VaccineType : is of >

@enduml

PlantUML version 1.2022.4(Sat Apr 09 14:29:17 BST 2022)
(GPL source distribution)
Java Runtime: OpenJDK Runtime Environment
JVM: OpenJDK 64-Bit Server VM
Default Encoding: Cp1252
Language: pt
Country: PT
--></g></svg>