<?xml version="1.0" encoding="UTF-8" standalone="no"?><svg xmlns="http://www.w3.org/2000/svg" xmlns:xlink="http://www.w3.org/1999/xlink" contentStyleType="text/css" height="648px" preserveAspectRatio="none" style="width:431px;height:648px;background:#FFFFFF;" version="1.1" viewBox="0 0 431 648" width="431px" zoomAndPan="magnify"><defs/><g><rect fill="#FFFFFF" height="555.1641" style="stroke:#181818;stroke-width:1.0;" width="10" x="39.5" y="47.6094"/><rect fill="#FFFFFF" height="28" style="stroke:#181818;stroke-width:1.0;" width="10" x="44.5" y="77.9609"/><rect fill="#FFFFFF" height="28" style="stroke:#181818;stroke-width:1.0;" width="10" x="44.5" y="211.6641"/><rect fill="#FFFFFF" height="28" style="stroke:#181818;stroke-width:1.0;" width="10" x="44.5" y="491.4219"/><rect fill="#FFFFFF" height="30" style="stroke:#181818;stroke-width:1.0;" width="10" x="378.5" y="143.3125"/><rect fill="#FFFFFF" height="30" style="stroke:#181818;stroke-width:1.0;" width="10" x="378.5" y="277.0156"/><rect fill="#FFFFFF" height="30" style="stroke:#181818;stroke-width:1.0;" width="10" x="378.5" y="362.7188"/><rect fill="#FFFFFF" height="30" style="stroke:#181818;stroke-width:1.0;" width="10" x="378.5" y="423.0703"/><rect fill="#FFFFFF" height="30" style="stroke:#181818;stroke-width:1.0;" width="10" x="378.5" y="556.7734"/><rect height="272.7578" style="stroke:#000000;stroke-width:1.5;fill:none;" width="415.5" x="10" y="322.0156"/><line style="stroke:#181818;stroke-width:0.5;fill:none;stroke-dasharray:5.0,5.0;" x1="44" x2="44" y1="37.6094" y2="611.7734"/><line style="stroke:#181818;stroke-width:0.5;fill:none;stroke-dasharray:5.0,5.0;" x1="383.5" x2="383.5" y1="37.6094" y2="611.7734"/><rect fill="#E2E2F0" height="31.6094" rx="2.5" ry="2.5" style="stroke:#181818;stroke-width:0.5;" width="49" x="20" y="5"/><text fill="#000000" font-family="sans-serif" font-size="14" lengthAdjust="spacing" textLength="35" x="27" y="26.5332">:Task</text><rect fill="#E2E2F0" height="31.6094" rx="2.5" ry="2.5" style="stroke:#181818;stroke-width:0.5;" width="49" x="20" y="610.7734"/><text fill="#000000" font-family="sans-serif" font-size="14" lengthAdjust="spacing" textLength="35" x="27" y="632.3066">:Task</text><rect fill="#E2E2F0" height="31.6094" rx="2.5" ry="2.5" style="stroke:#181818;stroke-width:0.5;" width="64" x="351.5" y="5"/><text fill="#000000" font-family="sans-serif" font-size="14" lengthAdjust="spacing" textLength="50" x="358.5" y="26.5332">:System</text><rect fill="#E2E2F0" height="31.6094" rx="2.5" ry="2.5" style="stroke:#181818;stroke-width:0.5;" width="64" x="351.5" y="610.7734"/><text fill="#000000" font-family="sans-serif" font-size="14" lengthAdjust="spacing" textLength="50" x="358.5" y="632.3066">:System</text><rect fill="#FFFFFF" height="555.1641" style="stroke:#181818;stroke-width:1.0;" width="10" x="39.5" y="47.6094"/><rect fill="#FFFFFF" height="28" style="stroke:#181818;stroke-width:1.0;" width="10" x="44.5" y="77.9609"/><rect fill="#FFFFFF" height="28" style="stroke:#181818;stroke-width:1.0;" width="10" x="44.5" y="211.6641"/><rect fill="#FFFFFF" height="28" style="stroke:#181818;stroke-width:1.0;" width="10" x="44.5" y="491.4219"/><rect fill="#FFFFFF" height="30" style="stroke:#181818;stroke-width:1.0;" width="10" x="378.5" y="143.3125"/><rect fill="#FFFFFF" height="30" style="stroke:#181818;stroke-width:1.0;" width="10" x="378.5" y="277.0156"/><rect fill="#FFFFFF" height="30" style="stroke:#181818;stroke-width:1.0;" width="10" x="378.5" y="362.7188"/><rect fill="#FFFFFF" height="30" style="stroke:#181818;stroke-width:1.0;" width="10" x="378.5" y="423.0703"/><rect fill="#FFFFFF" height="30" style="stroke:#181818;stroke-width:1.0;" width="10" x="378.5" y="556.7734"/><line style="stroke:#181818;stroke-width:1.0;" x1="54.5" x2="96.5" y1="69.9609" y2="69.9609"/><line style="stroke:#181818;stroke-width:1.0;" x1="96.5" x2="96.5" y1="69.9609" y2="82.9609"/><line style="stroke:#181818;stroke-width:1.0;" x1="55.5" x2="96.5" y1="82.9609" y2="82.9609"/><polygon fill="#181818" points="65.5,78.9609,55.5,82.9609,65.5,86.9609,61.5,82.9609" style="stroke:#181818;stroke-width:1.0;"/><text fill="#000000" font-family="sans-serif" font-size="13" font-weight="bold" lengthAdjust="spacing" textLength="7" x="61.5" y="65.1045">1</text><text fill="#000000" font-family="sans-serif" font-size="13" lengthAdjust="spacing" textLength="54" x="72.5" y="65.1045">readFile()</text><polygon fill="#181818" points="366.5,139.3125,376.5,143.3125,366.5,147.3125,370.5,143.3125" style="stroke:#181818;stroke-width:1.0;"/><line style="stroke:#181818;stroke-width:1.0;" x1="49.5" x2="372.5" y1="143.3125" y2="143.3125"/><text fill="#000000" font-family="sans-serif" font-size="13" font-weight="bold" lengthAdjust="spacing" textLength="7" x="56.5" y="138.4561">2</text><text fill="#000000" font-family="sans-serif" font-size="13" lengthAdjust="spacing" textLength="174" x="67.5" y="138.4561">date = getInstance().getTime()</text><line style="stroke:#181818;stroke-width:1.0;" x1="54.5" x2="96.5" y1="203.6641" y2="203.6641"/><line style="stroke:#181818;stroke-width:1.0;" x1="96.5" x2="96.5" y1="203.6641" y2="216.6641"/><line style="stroke:#181818;stroke-width:1.0;" x1="55.5" x2="96.5" y1="216.6641" y2="216.6641"/><polygon fill="#181818" points="65.5,212.6641,55.5,216.6641,65.5,220.6641,61.5,216.6641" style="stroke:#181818;stroke-width:1.0;"/><text fill="#000000" font-family="sans-serif" font-size="13" font-weight="bold" lengthAdjust="spacing" textLength="7" x="61.5" y="198.8076">3</text><text fill="#000000" font-family="sans-serif" font-size="13" lengthAdjust="spacing" textLength="81" x="72.5" y="198.8076">writeFile(date)</text><polygon fill="#181818" points="366.5,273.0156,376.5,277.0156,366.5,281.0156,370.5,277.0156" style="stroke:#181818;stroke-width:1.0;"/><line style="stroke:#181818;stroke-width:1.0;" x1="49.5" x2="372.5" y1="277.0156" y2="277.0156"/><text fill="#000000" font-family="sans-serif" font-size="13" font-weight="bold" lengthAdjust="spacing" textLength="7" x="56.5" y="272.1592">4</text><text fill="#000000" font-family="sans-serif" font-size="13" lengthAdjust="spacing" textLength="299" x="67.5" y="272.1592">listVaccinationCenter = getListVaccinationCenters()</text><path d="M10,322.0156 L83,322.0156 L83,330.3672 L73,340.3672 L10,340.3672 L10,322.0156 " fill="#EEEEEE" style="stroke:#000000;stroke-width:1.5;"/><rect fill="none" height="272.7578" style="stroke:#000000;stroke-width:1.5;" width="415.5" x="10" y="322.0156"/><text fill="#000000" font-family="sans-serif" font-size="13" font-weight="bold" lengthAdjust="spacing" textLength="28" x="25" y="336.5107">loop</text><polygon fill="#181818" points="366.5,358.7188,376.5,362.7188,366.5,366.7188,370.5,362.7188" style="stroke:#181818;stroke-width:1.0;"/><line style="stroke:#181818;stroke-width:1.0;" x1="49.5" x2="372.5" y1="362.7188" y2="362.7188"/><text fill="#000000" font-family="sans-serif" font-size="13" font-weight="bold" lengthAdjust="spacing" textLength="7" x="56.5" y="357.8623">5</text><text fill="#000000" font-family="sans-serif" font-size="13" lengthAdjust="spacing" textLength="108" x="67.5" y="357.8623">name = getName()</text><polygon fill="#181818" points="366.5,419.0703,376.5,423.0703,366.5,427.0703,370.5,423.0703" style="stroke:#181818;stroke-width:1.0;"/><line style="stroke:#181818;stroke-width:1.0;" x1="49.5" x2="372.5" y1="423.0703" y2="423.0703"/><text fill="#000000" font-family="sans-serif" font-size="13" font-weight="bold" lengthAdjust="spacing" textLength="7" x="56.5" y="418.2139">6</text><text fill="#000000" font-family="sans-serif" font-size="13" lengthAdjust="spacing" textLength="250" x="67.5" y="418.2139">numTotalVac = getNumTotalVaccinesDay()</text><line style="stroke:#181818;stroke-width:1.0;" x1="54.5" x2="96.5" y1="483.4219" y2="483.4219"/><line style="stroke:#181818;stroke-width:1.0;" x1="96.5" x2="96.5" y1="483.4219" y2="496.4219"/><line style="stroke:#181818;stroke-width:1.0;" x1="55.5" x2="96.5" y1="496.4219" y2="496.4219"/><polygon fill="#181818" points="65.5,492.4219,55.5,496.4219,65.5,500.4219,61.5,496.4219" style="stroke:#181818;stroke-width:1.0;"/><text fill="#000000" font-family="sans-serif" font-size="13" font-weight="bold" lengthAdjust="spacing" textLength="7" x="61.5" y="478.5654">7</text><text fill="#000000" font-family="sans-serif" font-size="13" lengthAdjust="spacing" textLength="168" x="72.5" y="478.5654">writeFile(name,numTotalVac)</text><polygon fill="#181818" points="366.5,552.7734,376.5,556.7734,366.5,560.7734,370.5,556.7734" style="stroke:#181818;stroke-width:1.0;"/><line style="stroke:#181818;stroke-width:1.0;" x1="49.5" x2="372.5" y1="556.7734" y2="556.7734"/><text fill="#000000" font-family="sans-serif" font-size="13" font-weight="bold" lengthAdjust="spacing" textLength="7" x="56.5" y="551.917">8</text><text fill="#000000" font-family="sans-serif" font-size="13" lengthAdjust="spacing" textLength="165" x="67.5" y="551.917">setNumTotalVaccinesDay(0)</text><!--MD5=[c2f54676c9c88ae547d84d3c3c9e33fb]
@startuml
'https://plantuml.com/sequence-diagram

autonumber

participant ":Task" as TASK
participant ":System" as SYS

activate TASK
'1
TASK -> TASK : readFile()
activate TASK
deactivate TASK
'2
TASK -> SYS : date = getInstance().getTime()
activate SYS
deactivate SYS
'3
TASK -> TASK : writeFile(date)
activate TASK
deactivate TASK
'4
TASK -> SYS : listVaccinationCenter = getListVaccinationCenters()
activate SYS
deactivate SYS
loop
'5
TASK -> SYS : name = getName()
activate SYS
deactivate SYS
'6
TASK -> SYS : numTotalVac = getNumTotalVaccinesDay()
activate SYS
deactivate SYS
'7
TASK -> TASK : writeFile(name,numTotalVac)
activate TASK
deactivate TASK
'8
TASK -> SYS : setNumTotalVaccinesDay(0)
activate SYS
deactivate SYS
end

@enduml

@startuml

autonumber

participant ":Task" as TASK
participant ":System" as SYS

activate TASK
TASK -> TASK : readFile()
activate TASK
deactivate TASK
TASK -> SYS : date = getInstance().getTime()
activate SYS
deactivate SYS
TASK -> TASK : writeFile(date)
activate TASK
deactivate TASK
TASK -> SYS : listVaccinationCenter = getListVaccinationCenters()
activate SYS
deactivate SYS
loop
TASK -> SYS : name = getName()
activate SYS
deactivate SYS
TASK -> SYS : numTotalVac = getNumTotalVaccinesDay()
activate SYS
deactivate SYS
TASK -> TASK : writeFile(name,numTotalVac)
activate TASK
deactivate TASK
TASK -> SYS : setNumTotalVaccinesDay(0)
activate SYS
deactivate SYS
end

@enduml

PlantUML version 1.2022.4(Sat Apr 09 14:29:17 BST 2022)
(GPL source distribution)
Java Runtime: OpenJDK Runtime Environment
JVM: OpenJDK 64-Bit Server VM
Default Encoding: Cp1252
Language: pt
Country: PT
--></g></svg>