<?xml version="1.0" encoding="UTF-8" standalone="no"?><svg xmlns="http://www.w3.org/2000/svg" xmlns:xlink="http://www.w3.org/1999/xlink" contentStyleType="text/css" height="859px" preserveAspectRatio="none" style="width:979px;height:859px;background:#FFFFFF;" version="1.1" viewBox="0 0 979 859" width="979px" zoomAndPan="magnify"><defs/><g><rect fill="#FFFFFF" height="766.5703" style="stroke:#181818;stroke-width:1.0;" width="10" x="21.5" y="47.6094"/><rect fill="#FFFFFF" height="744.2188" style="stroke:#181818;stroke-width:1.0;" width="10" x="116.5" y="69.9609"/><rect fill="#FFFFFF" height="28" style="stroke:#181818;stroke-width:1.0;" width="10" x="121.5" y="108.3125"/><rect fill="#FFFFFF" height="28" style="stroke:#181818;stroke-width:1.0;" width="10" x="121.5" y="242.0156"/><rect fill="#FFFFFF" height="28" style="stroke:#181818;stroke-width:1.0;" width="10" x="121.5" y="702.8281"/><rect fill="#FFFFFF" height="30" style="stroke:#181818;stroke-width:1.0;" width="10" x="330.5" y="173.6641"/><rect fill="#FFFFFF" height="30" style="stroke:#181818;stroke-width:1.0;" width="10" x="412" y="307.3672"/><rect fill="#FFFFFF" height="30" style="stroke:#181818;stroke-width:1.0;" width="10" x="494.5" y="367.7188"/><rect fill="#FFFFFF" height="30" style="stroke:#181818;stroke-width:1.0;" width="10" x="578.5" y="428.0703"/><rect fill="#FFFFFF" height="30" style="stroke:#181818;stroke-width:1.0;" width="10" x="717" y="488.4219"/><rect fill="#FFFFFF" height="30" style="stroke:#181818;stroke-width:1.0;" width="10" x="889.5" y="574.125"/><rect fill="#FFFFFF" height="30" style="stroke:#181818;stroke-width:1.0;" width="10" x="889.5" y="634.4766"/><rect fill="#FFFFFF" height="30" style="stroke:#181818;stroke-width:1.0;" width="10" x="889.5" y="768.1797"/><rect height="272.7578" style="stroke:#000000;stroke-width:1.5;fill:none;" width="925" x="48.5" y="533.4219"/><line style="stroke:#181818;stroke-width:0.5;fill:none;stroke-dasharray:5.0,5.0;" x1="26" x2="26" y1="37.6094" y2="823.1797"/><line style="stroke:#181818;stroke-width:0.5;fill:none;stroke-dasharray:5.0,5.0;" x1="121.5" x2="121.5" y1="37.6094" y2="823.1797"/><line style="stroke:#181818;stroke-width:0.5;fill:none;stroke-dasharray:5.0,5.0;" x1="335.5" x2="335.5" y1="37.6094" y2="823.1797"/><line style="stroke:#181818;stroke-width:0.5;fill:none;stroke-dasharray:5.0,5.0;" x1="416.5" x2="416.5" y1="37.6094" y2="823.1797"/><line style="stroke:#181818;stroke-width:0.5;fill:none;stroke-dasharray:5.0,5.0;" x1="499.5" x2="499.5" y1="37.6094" y2="823.1797"/><line style="stroke:#181818;stroke-width:0.5;fill:none;stroke-dasharray:5.0,5.0;" x1="583.5" x2="583.5" y1="37.6094" y2="823.1797"/><line style="stroke:#181818;stroke-width:0.5;fill:none;stroke-dasharray:5.0,5.0;" x1="721.5" x2="721.5" y1="37.6094" y2="823.1797"/><line style="stroke:#181818;stroke-width:0.5;fill:none;stroke-dasharray:5.0,5.0;" x1="894.5" x2="894.5" y1="37.6094" y2="823.1797"/><rect fill="#E2E2F0" height="31.6094" rx="2.5" ry="2.5" style="stroke:#181818;stroke-width:0.5;" width="43" x="5" y="5"/><text fill="#000000" font-family="sans-serif" font-size="14" lengthAdjust="spacing" textLength="29" x="12" y="26.5332">:App</text><rect fill="#E2E2F0" height="31.6094" rx="2.5" ry="2.5" style="stroke:#181818;stroke-width:0.5;" width="43" x="5" y="822.1797"/><text fill="#000000" font-family="sans-serif" font-size="14" lengthAdjust="spacing" textLength="29" x="12" y="843.7129">:App</text><rect fill="#E2E2F0" height="31.6094" rx="2.5" ry="2.5" style="stroke:#181818;stroke-width:0.5;" width="126" x="58.5" y="5"/><text fill="#000000" font-family="sans-serif" font-size="14" lengthAdjust="spacing" textLength="112" x="65.5" y="26.5332">:RecordDailyTask</text><rect fill="#E2E2F0" height="31.6094" rx="2.5" ry="2.5" style="stroke:#181818;stroke-width:0.5;" width="126" x="58.5" y="822.1797"/><text fill="#000000" font-family="sans-serif" font-size="14" lengthAdjust="spacing" textLength="112" x="65.5" y="843.7129">:RecordDailyTask</text><rect fill="#E2E2F0" height="31.6094" rx="2.5" ry="2.5" style="stroke:#181818;stroke-width:0.5;" width="76" x="297.5" y="5"/><text fill="#000000" font-family="sans-serif" font-size="14" lengthAdjust="spacing" textLength="62" x="304.5" y="26.5332">:Calendar</text><rect fill="#E2E2F0" height="31.6094" rx="2.5" ry="2.5" style="stroke:#181818;stroke-width:0.5;" width="76" x="297.5" y="822.1797"/><text fill="#000000" font-family="sans-serif" font-size="14" lengthAdjust="spacing" textLength="62" x="304.5" y="843.7129">:Calendar</text><rect fill="#E2E2F0" height="31.6094" rx="2.5" ry="2.5" style="stroke:#181818;stroke-width:0.5;" width="67" x="383.5" y="5"/><text fill="#000000" font-family="sans-serif" font-size="14" lengthAdjust="spacing" textLength="53" x="390.5" y="26.5332">app:App</text><rect fill="#E2E2F0" height="31.6094" rx="2.5" ry="2.5" style="stroke:#181818;stroke-width:0.5;" width="67" x="383.5" y="822.1797"/><text fill="#000000" font-family="sans-serif" font-size="14" lengthAdjust="spacing" textLength="53" x="390.5" y="843.7129">app:App</text><rect fill="#E2E2F0" height="31.6094" rx="2.5" ry="2.5" style="stroke:#181818;stroke-width:0.5;" width="78" x="460.5" y="5"/><text fill="#000000" font-family="sans-serif" font-size="14" lengthAdjust="spacing" textLength="64" x="467.5" y="26.5332">:Company</text><rect fill="#E2E2F0" height="31.6094" rx="2.5" ry="2.5" style="stroke:#181818;stroke-width:0.5;" width="78" x="460.5" y="822.1797"/><text fill="#000000" font-family="sans-serif" font-size="14" lengthAdjust="spacing" textLength="64" x="467.5" y="843.7129">:Company</text><rect fill="#E2E2F0" height="31.6094" rx="2.5" ry="2.5" style="stroke:#181818;stroke-width:0.5;" width="70" x="548.5" y="5"/><text fill="#000000" font-family="sans-serif" font-size="14" lengthAdjust="spacing" textLength="56" x="555.5" y="26.5332">:Platform</text><rect fill="#E2E2F0" height="31.6094" rx="2.5" ry="2.5" style="stroke:#181818;stroke-width:0.5;" width="70" x="548.5" y="822.1797"/><text fill="#000000" font-family="sans-serif" font-size="14" lengthAdjust="spacing" textLength="56" x="555.5" y="843.7129">:Platform</text><rect fill="#E2E2F0" height="31.6094" rx="2.5" ry="2.5" style="stroke:#181818;stroke-width:0.5;" width="187" x="628.5" y="5"/><text fill="#000000" font-family="sans-serif" font-size="14" lengthAdjust="spacing" textLength="173" x="635.5" y="26.5332">:RegisterVaccinationCenter</text><rect fill="#E2E2F0" height="31.6094" rx="2.5" ry="2.5" style="stroke:#181818;stroke-width:0.5;" width="187" x="628.5" y="822.1797"/><text fill="#000000" font-family="sans-serif" font-size="14" lengthAdjust="spacing" textLength="173" x="635.5" y="843.7129">:RegisterVaccinationCenter</text><rect fill="#E2E2F0" height="31.6094" rx="2.5" ry="2.5" style="stroke:#181818;stroke-width:0.5;" width="138" x="825.5" y="5"/><text fill="#000000" font-family="sans-serif" font-size="14" lengthAdjust="spacing" textLength="124" x="832.5" y="26.5332">:Vaccination Center</text><rect fill="#E2E2F0" height="31.6094" rx="2.5" ry="2.5" style="stroke:#181818;stroke-width:0.5;" width="138" x="825.5" y="822.1797"/><text fill="#000000" font-family="sans-serif" font-size="14" lengthAdjust="spacing" textLength="124" x="832.5" y="843.7129">:Vaccination Center</text><rect fill="#FFFFFF" height="766.5703" style="stroke:#181818;stroke-width:1.0;" width="10" x="21.5" y="47.6094"/><rect fill="#FFFFFF" height="744.2188" style="stroke:#181818;stroke-width:1.0;" width="10" x="116.5" y="69.9609"/><rect fill="#FFFFFF" height="28" style="stroke:#181818;stroke-width:1.0;" width="10" x="121.5" y="108.3125"/><rect fill="#FFFFFF" height="28" style="stroke:#181818;stroke-width:1.0;" width="10" x="121.5" y="242.0156"/><rect fill="#FFFFFF" height="28" style="stroke:#181818;stroke-width:1.0;" width="10" x="121.5" y="702.8281"/><rect fill="#FFFFFF" height="30" style="stroke:#181818;stroke-width:1.0;" width="10" x="330.5" y="173.6641"/><rect fill="#FFFFFF" height="30" style="stroke:#181818;stroke-width:1.0;" width="10" x="412" y="307.3672"/><rect fill="#FFFFFF" height="30" style="stroke:#181818;stroke-width:1.0;" width="10" x="494.5" y="367.7188"/><rect fill="#FFFFFF" height="30" style="stroke:#181818;stroke-width:1.0;" width="10" x="578.5" y="428.0703"/><rect fill="#FFFFFF" height="30" style="stroke:#181818;stroke-width:1.0;" width="10" x="717" y="488.4219"/><rect fill="#FFFFFF" height="30" style="stroke:#181818;stroke-width:1.0;" width="10" x="889.5" y="574.125"/><rect fill="#FFFFFF" height="30" style="stroke:#181818;stroke-width:1.0;" width="10" x="889.5" y="634.4766"/><rect fill="#FFFFFF" height="30" style="stroke:#181818;stroke-width:1.0;" width="10" x="889.5" y="768.1797"/><polygon fill="#181818" points="104.5,65.9609,114.5,69.9609,104.5,73.9609,108.5,69.9609" style="stroke:#181818;stroke-width:1.0;"/><line style="stroke:#181818;stroke-width:1.0;" x1="31.5" x2="110.5" y1="69.9609" y2="69.9609"/><text fill="#000000" font-family="sans-serif" font-size="13" font-weight="bold" lengthAdjust="spacing" textLength="7" x="38.5" y="65.1045">1</text><text fill="#000000" font-family="sans-serif" font-size="13" lengthAdjust="spacing" textLength="55" x="49.5" y="65.1045">start(app)</text><line style="stroke:#181818;stroke-width:1.0;" x1="131.5" x2="173.5" y1="100.3125" y2="100.3125"/><line style="stroke:#181818;stroke-width:1.0;" x1="173.5" x2="173.5" y1="100.3125" y2="113.3125"/><line style="stroke:#181818;stroke-width:1.0;" x1="132.5" x2="173.5" y1="113.3125" y2="113.3125"/><polygon fill="#181818" points="142.5,109.3125,132.5,113.3125,142.5,117.3125,138.5,113.3125" style="stroke:#181818;stroke-width:1.0;"/><text fill="#000000" font-family="sans-serif" font-size="13" font-weight="bold" lengthAdjust="spacing" textLength="7" x="138.5" y="95.4561">2</text><text fill="#000000" font-family="sans-serif" font-size="13" lengthAdjust="spacing" textLength="54" x="149.5" y="95.4561">readFile()</text><polygon fill="#181818" points="318.5,169.6641,328.5,173.6641,318.5,177.6641,322.5,173.6641" style="stroke:#181818;stroke-width:1.0;"/><line style="stroke:#181818;stroke-width:1.0;" x1="126.5" x2="324.5" y1="173.6641" y2="173.6641"/><text fill="#000000" font-family="sans-serif" font-size="13" font-weight="bold" lengthAdjust="spacing" textLength="7" x="133.5" y="168.8076">3</text><text fill="#000000" font-family="sans-serif" font-size="13" lengthAdjust="spacing" textLength="174" x="144.5" y="168.8076">date = getInstance().getTime()</text><line style="stroke:#181818;stroke-width:1.0;" x1="131.5" x2="173.5" y1="234.0156" y2="234.0156"/><line style="stroke:#181818;stroke-width:1.0;" x1="173.5" x2="173.5" y1="234.0156" y2="247.0156"/><line style="stroke:#181818;stroke-width:1.0;" x1="132.5" x2="173.5" y1="247.0156" y2="247.0156"/><polygon fill="#181818" points="142.5,243.0156,132.5,247.0156,142.5,251.0156,138.5,247.0156" style="stroke:#181818;stroke-width:1.0;"/><text fill="#000000" font-family="sans-serif" font-size="13" font-weight="bold" lengthAdjust="spacing" textLength="7" x="138.5" y="229.1592">4</text><text fill="#000000" font-family="sans-serif" font-size="13" lengthAdjust="spacing" textLength="81" x="149.5" y="229.1592">writeFile(date)</text><polygon fill="#181818" points="400,303.3672,410,307.3672,400,311.3672,404,307.3672" style="stroke:#181818;stroke-width:1.0;"/><line style="stroke:#181818;stroke-width:1.0;" x1="126.5" x2="406" y1="307.3672" y2="307.3672"/><text fill="#000000" font-family="sans-serif" font-size="13" font-weight="bold" lengthAdjust="spacing" textLength="7" x="133.5" y="302.5107">5</text><text fill="#000000" font-family="sans-serif" font-size="13" lengthAdjust="spacing" textLength="81" x="144.5" y="302.5107">getCompany()</text><polygon fill="#181818" points="482.5,363.7188,492.5,367.7188,482.5,371.7188,486.5,367.7188" style="stroke:#181818;stroke-width:1.0;"/><line style="stroke:#181818;stroke-width:1.0;" x1="126.5" x2="488.5" y1="367.7188" y2="367.7188"/><text fill="#000000" font-family="sans-serif" font-size="13" font-weight="bold" lengthAdjust="spacing" textLength="7" x="133.5" y="362.8623">6</text><text fill="#000000" font-family="sans-serif" font-size="13" lengthAdjust="spacing" textLength="74" x="144.5" y="362.8623">getPlatform()</text><polygon fill="#181818" points="566.5,424.0703,576.5,428.0703,566.5,432.0703,570.5,428.0703" style="stroke:#181818;stroke-width:1.0;"/><line style="stroke:#181818;stroke-width:1.0;" x1="126.5" x2="572.5" y1="428.0703" y2="428.0703"/><text fill="#000000" font-family="sans-serif" font-size="13" font-weight="bold" lengthAdjust="spacing" textLength="7" x="133.5" y="423.2139">7</text><text fill="#000000" font-family="sans-serif" font-size="13" lengthAdjust="spacing" textLength="180" x="144.5" y="423.2139">getRegisterVaccinationCenter()</text><polygon fill="#181818" points="705,484.4219,715,488.4219,705,492.4219,709,488.4219" style="stroke:#181818;stroke-width:1.0;"/><line style="stroke:#181818;stroke-width:1.0;" x1="126.5" x2="711" y1="488.4219" y2="488.4219"/><text fill="#000000" font-family="sans-serif" font-size="13" font-weight="bold" lengthAdjust="spacing" textLength="7" x="133.5" y="483.5654">8</text><text fill="#000000" font-family="sans-serif" font-size="13" lengthAdjust="spacing" textLength="299" x="144.5" y="483.5654">listVaccinationCenter = getListVaccinationCenters()</text><path d="M48.5,533.4219 L121.5,533.4219 L121.5,541.7734 L111.5,551.7734 L48.5,551.7734 L48.5,533.4219 " fill="#EEEEEE" style="stroke:#000000;stroke-width:1.5;"/><rect fill="none" height="272.7578" style="stroke:#000000;stroke-width:1.5;" width="925" x="48.5" y="533.4219"/><text fill="#000000" font-family="sans-serif" font-size="13" font-weight="bold" lengthAdjust="spacing" textLength="28" x="63.5" y="547.917">loop</text><polygon fill="#181818" points="877.5,570.125,887.5,574.125,877.5,578.125,881.5,574.125" style="stroke:#181818;stroke-width:1.0;"/><line style="stroke:#181818;stroke-width:1.0;" x1="126.5" x2="883.5" y1="574.125" y2="574.125"/><text fill="#000000" font-family="sans-serif" font-size="13" font-weight="bold" lengthAdjust="spacing" textLength="7" x="133.5" y="569.2686">9</text><text fill="#000000" font-family="sans-serif" font-size="13" lengthAdjust="spacing" textLength="108" x="144.5" y="569.2686">name = getName()</text><polygon fill="#181818" points="877.5,630.4766,887.5,634.4766,877.5,638.4766,881.5,634.4766" style="stroke:#181818;stroke-width:1.0;"/><line style="stroke:#181818;stroke-width:1.0;" x1="126.5" x2="883.5" y1="634.4766" y2="634.4766"/><text fill="#000000" font-family="sans-serif" font-size="13" font-weight="bold" lengthAdjust="spacing" textLength="14" x="133.5" y="629.6201">10</text><text fill="#000000" font-family="sans-serif" font-size="13" lengthAdjust="spacing" textLength="250" x="151.5" y="629.6201">numTotalVac = getNumTotalVaccinesDay()</text><line style="stroke:#181818;stroke-width:1.0;" x1="131.5" x2="173.5" y1="694.8281" y2="694.8281"/><line style="stroke:#181818;stroke-width:1.0;" x1="173.5" x2="173.5" y1="694.8281" y2="707.8281"/><line style="stroke:#181818;stroke-width:1.0;" x1="132.5" x2="173.5" y1="707.8281" y2="707.8281"/><polygon fill="#181818" points="142.5,703.8281,132.5,707.8281,142.5,711.8281,138.5,707.8281" style="stroke:#181818;stroke-width:1.0;"/><text fill="#000000" font-family="sans-serif" font-size="13" font-weight="bold" lengthAdjust="spacing" textLength="14" x="138.5" y="689.9717">11</text><text fill="#000000" font-family="sans-serif" font-size="13" lengthAdjust="spacing" textLength="168" x="156.5" y="689.9717">writeFile(name,numTotalVac)</text><polygon fill="#181818" points="877.5,764.1797,887.5,768.1797,877.5,772.1797,881.5,768.1797" style="stroke:#181818;stroke-width:1.0;"/><line style="stroke:#181818;stroke-width:1.0;" x1="126.5" x2="883.5" y1="768.1797" y2="768.1797"/><text fill="#000000" font-family="sans-serif" font-size="13" font-weight="bold" lengthAdjust="spacing" textLength="14" x="133.5" y="763.3232">12</text><text fill="#000000" font-family="sans-serif" font-size="13" lengthAdjust="spacing" textLength="165" x="151.5" y="763.3232">setNumTotalVaccinesDay(0)</text><!--MD5=[2bdc4f8ed5952e2efbd86e3df9fb4639]
@startuml
'https://plantuml.com/sequence-diagram

autonumber

participant ":App" as APP
participant ":RecordDailyTask" as TASK
participant ":Calendar" as Cal
participant "app:App" as app
participant ":Company" as comp
participant ":Platform" as plat
participant ":RegisterVaccinationCenter" as Register
participant ":Vaccination Center" as VacCen

activate APP
'1
APP -> TASK : start(app)
activate TASK
'2
TASK -> TASK : readFile()
activate TASK
deactivate TASK
'3
TASK -> Cal : date = getInstance().getTime()
activate Cal
deactivate Cal
'4
TASK -> TASK : writeFile(date)
activate TASK
deactivate TASK
'5
TASK -> app : getCompany()
activate app
deactivate app
'6
TASK -> comp :getPlatform()
activate comp
deactivate comp
'7
TASK -> plat : getRegisterVaccinationCenter()
activate plat
deactivate plat
'8
TASK -> Register : listVaccinationCenter = getListVaccinationCenters()
activate Register
deactivate Register
loop
'9
TASK -> VacCen : name = getName()
activate VacCen
deactivate VacCen
'10
TASK -> VacCen : numTotalVac = getNumTotalVaccinesDay()
activate VacCen
deactivate VacCen
'11
TASK -> TASK : writeFile(name,numTotalVac)
activate TASK
deactivate TASK
'12
TASK -> VacCen : setNumTotalVaccinesDay(0)
activate VacCen
deactivate VacCen
end

@enduml

@startuml

autonumber

participant ":App" as APP
participant ":RecordDailyTask" as TASK
participant ":Calendar" as Cal
participant "app:App" as app
participant ":Company" as comp
participant ":Platform" as plat
participant ":RegisterVaccinationCenter" as Register
participant ":Vaccination Center" as VacCen

activate APP
APP -> TASK : start(app)
activate TASK
TASK -> TASK : readFile()
activate TASK
deactivate TASK
TASK -> Cal : date = getInstance().getTime()
activate Cal
deactivate Cal
TASK -> TASK : writeFile(date)
activate TASK
deactivate TASK
TASK -> app : getCompany()
activate app
deactivate app
TASK -> comp :getPlatform()
activate comp
deactivate comp
TASK -> plat : getRegisterVaccinationCenter()
activate plat
deactivate plat
TASK -> Register : listVaccinationCenter = getListVaccinationCenters()
activate Register
deactivate Register
loop
TASK -> VacCen : name = getName()
activate VacCen
deactivate VacCen
TASK -> VacCen : numTotalVac = getNumTotalVaccinesDay()
activate VacCen
deactivate VacCen
TASK -> TASK : writeFile(name,numTotalVac)
activate TASK
deactivate TASK
TASK -> VacCen : setNumTotalVaccinesDay(0)
activate VacCen
deactivate VacCen
end

@enduml

PlantUML version 1.2022.4(Sat Apr 09 14:29:17 BST 2022)
(GPL source distribution)
Java Runtime: OpenJDK Runtime Environment
JVM: OpenJDK 64-Bit Server VM
Default Encoding: Cp1252
Language: pt
Country: PT
--></g></svg>