<?xml version="1.0" encoding="UTF-8" standalone="no"?><svg xmlns="http://www.w3.org/2000/svg" xmlns:xlink="http://www.w3.org/1999/xlink" contentScriptType="application/ecmascript" contentStyleType="text/css" height="265px" preserveAspectRatio="none" style="width:1120px;height:265px;background:#FFFFFF;" version="1.1" viewBox="0 0 1120 265" width="1120px" zoomAndPan="magnify"><defs><filter height="300%" id="fl8mghq4554a6" width="300%" x="-1" y="-1"><feGaussianBlur result="blurOut" stdDeviation="2.0"/><feColorMatrix in="blurOut" result="blurOut2" type="matrix" values="0 0 0 0 0 0 0 0 0 0 0 0 0 0 0 0 0 0 .4 0"/><feOffset dx="4.0" dy="4.0" in="blurOut2" result="blurOut3"/><feBlend in="SourceGraphic" in2="blurOut3" mode="normal"/></filter></defs><g><!--MD5=[da547346deef918ea16944ba046651ef]
class Administrator--><rect codeLine="10" fill="#FEFECE" filter="url(#fl8mghq4554a6)" height="44.6406" id="Administrator" style="stroke:#A80036;stroke-width:1.5;" width="140" x="312" y="7"/><ellipse cx="327" cy="25.3203" fill="#ADD1B2" rx="11" ry="11" style="stroke:#A80036;stroke-width:1.0;"/><path d="M329,21.8203 Q329.2031,21.3203 329.4375,21.0703 Q329.6719,20.8203 329.9375,20.8203 Q330.4063,20.8203 330.7031,21.1016 Q331,21.3828 331,22.0391 L331,23.6016 Q331,24.2578 330.7188,24.5391 Q330.4375,24.8203 330,24.8203 Q329.6094,24.8203 329.3594,24.6484 Q329.1094,24.4766 329,24.0234 Q328.9531,23.7109 328.7813,23.5391 Q328.4688,23.2109 327.9063,23.0234 Q327.3438,22.8203 326.7813,22.8203 Q326.0781,22.8203 325.4844,23.1016 Q324.9063,23.3828 324.4531,24.0078 Q324,24.6328 324,25.4922 L324,26.4141 Q324,27.4453 324.8438,28.1328 Q325.6875,28.8203 327.1875,28.8203 Q328.0781,28.8203 328.7031,28.6172 Q329.0625,28.5078 329.4688,28.1484 Q329.7344,27.9453 329.875,27.8828 Q330.0156,27.8203 330.1875,27.8203 Q330.5156,27.8203 330.75,28.0859 Q331,28.3359 331,28.6953 Q331,29.0391 330.6563,29.4453 Q330.1563,30.0391 329.3594,30.3672 Q328.3125,30.8203 327.0313,30.8203 Q325.5313,30.8203 324.3281,30.2266 Q323.3594,29.7578 322.6719,28.7422 Q322,27.7266 322,26.5234 L322,25.4297 Q322,24.1797 322.5938,23.0859 Q323.2031,21.9922 324.25,21.4141 Q325.3125,20.8203 326.5,20.8203 Q327.2188,20.8203 327.8438,21.0703 Q328.4688,21.3203 329,21.8203 Z " fill="#000000"/><text fill="#000000" font-family="sans-serif" font-size="18" lengthAdjust="spacing" textLength="104" x="343" y="32.6855">Administrator</text><line style="stroke:#A80036;stroke-width:1.5;" x1="313" x2="451" y1="43.6406" y2="43.6406"/><!--MD5=[02e4b9b7573f1156f41e60aa5b4e25a4]
class Company--><rect codeLine="11" fill="#FEFECE" filter="url(#fl8mghq4554a6)" height="44.6406" id="Company" style="stroke:#A80036;stroke-width:1.5;" width="112" x="7" y="87"/><ellipse cx="22" cy="105.3203" fill="#ADD1B2" rx="11" ry="11" style="stroke:#A80036;stroke-width:1.0;"/><path d="M24,101.8203 Q24.2031,101.3203 24.4375,101.0703 Q24.6719,100.8203 24.9375,100.8203 Q25.4063,100.8203 25.7031,101.1016 Q26,101.3828 26,102.0391 L26,103.6016 Q26,104.2578 25.7188,104.5391 Q25.4375,104.8203 25,104.8203 Q24.6094,104.8203 24.3594,104.6484 Q24.1094,104.4766 24,104.0234 Q23.9531,103.7109 23.7813,103.5391 Q23.4688,103.2109 22.9063,103.0234 Q22.3438,102.8203 21.7813,102.8203 Q21.0781,102.8203 20.4844,103.1016 Q19.9063,103.3828 19.4531,104.0078 Q19,104.6328 19,105.4922 L19,106.4141 Q19,107.4453 19.8438,108.1328 Q20.6875,108.8203 22.1875,108.8203 Q23.0781,108.8203 23.7031,108.6172 Q24.0625,108.5078 24.4688,108.1484 Q24.7344,107.9453 24.875,107.8828 Q25.0156,107.8203 25.1875,107.8203 Q25.5156,107.8203 25.75,108.0859 Q26,108.3359 26,108.6953 Q26,109.0391 25.6563,109.4453 Q25.1563,110.0391 24.3594,110.3672 Q23.3125,110.8203 22.0313,110.8203 Q20.5313,110.8203 19.3281,110.2266 Q18.3594,109.7578 17.6719,108.7422 Q17,107.7266 17,106.5234 L17,105.4297 Q17,104.1797 17.5938,103.0859 Q18.2031,101.9922 19.25,101.4141 Q20.3125,100.8203 21.5,100.8203 Q22.2188,100.8203 22.8438,101.0703 Q23.4688,101.3203 24,101.8203 Z " fill="#000000"/><text fill="#000000" font-family="sans-serif" font-size="18" lengthAdjust="spacing" textLength="76" x="38" y="112.6855">Company</text><line style="stroke:#A80036;stroke-width:1.5;" x1="8" x2="118" y1="123.6406" y2="123.6406"/><!--MD5=[99b8db98afdc2c8404e39242ef4c1e65]
class Platform--><rect codeLine="12" fill="#FEFECE" filter="url(#fl8mghq4554a6)" height="44.6406" id="Platform" style="stroke:#A80036;stroke-width:1.5;" width="102" x="331" y="87"/><ellipse cx="346" cy="105.3203" fill="#ADD1B2" rx="11" ry="11" style="stroke:#A80036;stroke-width:1.0;"/><path d="M348,101.8203 Q348.2031,101.3203 348.4375,101.0703 Q348.6719,100.8203 348.9375,100.8203 Q349.4063,100.8203 349.7031,101.1016 Q350,101.3828 350,102.0391 L350,103.6016 Q350,104.2578 349.7188,104.5391 Q349.4375,104.8203 349,104.8203 Q348.6094,104.8203 348.3594,104.6484 Q348.1094,104.4766 348,104.0234 Q347.9531,103.7109 347.7813,103.5391 Q347.4688,103.2109 346.9063,103.0234 Q346.3438,102.8203 345.7813,102.8203 Q345.0781,102.8203 344.4844,103.1016 Q343.9063,103.3828 343.4531,104.0078 Q343,104.6328 343,105.4922 L343,106.4141 Q343,107.4453 343.8438,108.1328 Q344.6875,108.8203 346.1875,108.8203 Q347.0781,108.8203 347.7031,108.6172 Q348.0625,108.5078 348.4688,108.1484 Q348.7344,107.9453 348.875,107.8828 Q349.0156,107.8203 349.1875,107.8203 Q349.5156,107.8203 349.75,108.0859 Q350,108.3359 350,108.6953 Q350,109.0391 349.6563,109.4453 Q349.1563,110.0391 348.3594,110.3672 Q347.3125,110.8203 346.0313,110.8203 Q344.5313,110.8203 343.3281,110.2266 Q342.3594,109.7578 341.6719,108.7422 Q341,107.7266 341,106.5234 L341,105.4297 Q341,104.1797 341.5938,103.0859 Q342.2031,101.9922 343.25,101.4141 Q344.3125,100.8203 345.5,100.8203 Q346.2188,100.8203 346.8438,101.0703 Q347.4688,101.3203 348,101.8203 Z " fill="#000000"/><text fill="#000000" font-family="sans-serif" font-size="18" lengthAdjust="spacing" textLength="66" x="362" y="112.6855">Platform</text><line style="stroke:#A80036;stroke-width:1.5;" x1="332" x2="432" y1="123.6406" y2="123.6406"/><!--MD5=[de60e6d4f424ae4d0522096f76a59010]
class VaccinationCenter--><rect codeLine="13" fill="#FEFECE" filter="url(#fl8mghq4554a6)" height="44.6406" id="VaccinationCenter" style="stroke:#A80036;stroke-width:1.5;" width="182" x="291" y="167"/><ellipse cx="306" cy="185.3203" fill="#ADD1B2" rx="11" ry="11" style="stroke:#A80036;stroke-width:1.0;"/><path d="M308,181.8203 Q308.2031,181.3203 308.4375,181.0703 Q308.6719,180.8203 308.9375,180.8203 Q309.4063,180.8203 309.7031,181.1016 Q310,181.3828 310,182.0391 L310,183.6016 Q310,184.2578 309.7188,184.5391 Q309.4375,184.8203 309,184.8203 Q308.6094,184.8203 308.3594,184.6484 Q308.1094,184.4766 308,184.0234 Q307.9531,183.7109 307.7813,183.5391 Q307.4688,183.2109 306.9063,183.0234 Q306.3438,182.8203 305.7813,182.8203 Q305.0781,182.8203 304.4844,183.1016 Q303.9063,183.3828 303.4531,184.0078 Q303,184.6328 303,185.4922 L303,186.4141 Q303,187.4453 303.8438,188.1328 Q304.6875,188.8203 306.1875,188.8203 Q307.0781,188.8203 307.7031,188.6172 Q308.0625,188.5078 308.4688,188.1484 Q308.7344,187.9453 308.875,187.8828 Q309.0156,187.8203 309.1875,187.8203 Q309.5156,187.8203 309.75,188.0859 Q310,188.3359 310,188.6953 Q310,189.0391 309.6563,189.4453 Q309.1563,190.0391 308.3594,190.3672 Q307.3125,190.8203 306.0313,190.8203 Q304.5313,190.8203 303.3281,190.2266 Q302.3594,189.7578 301.6719,188.7422 Q301,187.7266 301,186.5234 L301,185.4297 Q301,184.1797 301.5938,183.0859 Q302.2031,181.9922 303.25,181.4141 Q304.3125,180.8203 305.5,180.8203 Q306.2188,180.8203 306.8438,181.0703 Q307.4688,181.3203 308,181.8203 Z " fill="#000000"/><text fill="#000000" font-family="sans-serif" font-size="18" lengthAdjust="spacing" textLength="146" x="322" y="192.6855">VaccinationCenter</text><line style="stroke:#A80036;stroke-width:1.5;" x1="292" x2="472" y1="203.6406" y2="203.6406"/><!--MD5=[19e445fc4d3b48519cbe33da05496394]
class Vaccine--><rect codeLine="14" fill="#FEFECE" filter="url(#fl8mghq4554a6)" height="44.6406" id="Vaccine" style="stroke:#A80036;stroke-width:1.5;" width="99" x="642" y="167"/><ellipse cx="657" cy="185.3203" fill="#ADD1B2" rx="11" ry="11" style="stroke:#A80036;stroke-width:1.0;"/><path d="M659,181.8203 Q659.2031,181.3203 659.4375,181.0703 Q659.6719,180.8203 659.9375,180.8203 Q660.4063,180.8203 660.7031,181.1016 Q661,181.3828 661,182.0391 L661,183.6016 Q661,184.2578 660.7188,184.5391 Q660.4375,184.8203 660,184.8203 Q659.6094,184.8203 659.3594,184.6484 Q659.1094,184.4766 659,184.0234 Q658.9531,183.7109 658.7813,183.5391 Q658.4688,183.2109 657.9063,183.0234 Q657.3438,182.8203 656.7813,182.8203 Q656.0781,182.8203 655.4844,183.1016 Q654.9063,183.3828 654.4531,184.0078 Q654,184.6328 654,185.4922 L654,186.4141 Q654,187.4453 654.8438,188.1328 Q655.6875,188.8203 657.1875,188.8203 Q658.0781,188.8203 658.7031,188.6172 Q659.0625,188.5078 659.4688,188.1484 Q659.7344,187.9453 659.875,187.8828 Q660.0156,187.8203 660.1875,187.8203 Q660.5156,187.8203 660.75,188.0859 Q661,188.3359 661,188.6953 Q661,189.0391 660.6563,189.4453 Q660.1563,190.0391 659.3594,190.3672 Q658.3125,190.8203 657.0313,190.8203 Q655.5313,190.8203 654.3281,190.2266 Q653.3594,189.7578 652.6719,188.7422 Q652,187.7266 652,186.5234 L652,185.4297 Q652,184.1797 652.5938,183.0859 Q653.2031,181.9922 654.25,181.4141 Q655.3125,180.8203 656.5,180.8203 Q657.2188,180.8203 657.8438,181.0703 Q658.4688,181.3203 659,181.8203 Z " fill="#000000"/><text fill="#000000" font-family="sans-serif" font-size="18" lengthAdjust="spacing" textLength="63" x="673" y="192.6855">Vaccine</text><line style="stroke:#A80036;stroke-width:1.5;" x1="643" x2="740" y1="203.6406" y2="203.6406"/><!--MD5=[a2530d24bafc45bb45314d96545aa194]
class AdministrationProcess--><rect codeLine="15" fill="#FEFECE" filter="url(#fl8mghq4554a6)" height="44.6406" id="AdministrationProcess" style="stroke:#A80036;stroke-width:1.5;" width="213" x="893" y="127"/><ellipse cx="908" cy="145.3203" fill="#ADD1B2" rx="11" ry="11" style="stroke:#A80036;stroke-width:1.0;"/><path d="M910,141.8203 Q910.2031,141.3203 910.4375,141.0703 Q910.6719,140.8203 910.9375,140.8203 Q911.4063,140.8203 911.7031,141.1016 Q912,141.3828 912,142.0391 L912,143.6016 Q912,144.2578 911.7188,144.5391 Q911.4375,144.8203 911,144.8203 Q910.6094,144.8203 910.3594,144.6484 Q910.1094,144.4766 910,144.0234 Q909.9531,143.7109 909.7813,143.5391 Q909.4688,143.2109 908.9063,143.0234 Q908.3438,142.8203 907.7813,142.8203 Q907.0781,142.8203 906.4844,143.1016 Q905.9063,143.3828 905.4531,144.0078 Q905,144.6328 905,145.4922 L905,146.4141 Q905,147.4453 905.8438,148.1328 Q906.6875,148.8203 908.1875,148.8203 Q909.0781,148.8203 909.7031,148.6172 Q910.0625,148.5078 910.4688,148.1484 Q910.7344,147.9453 910.875,147.8828 Q911.0156,147.8203 911.1875,147.8203 Q911.5156,147.8203 911.75,148.0859 Q912,148.3359 912,148.6953 Q912,149.0391 911.6563,149.4453 Q911.1563,150.0391 910.3594,150.3672 Q909.3125,150.8203 908.0313,150.8203 Q906.5313,150.8203 905.3281,150.2266 Q904.3594,149.7578 903.6719,148.7422 Q903,147.7266 903,146.5234 L903,145.4297 Q903,144.1797 903.5938,143.0859 Q904.2031,141.9922 905.25,141.4141 Q906.3125,140.8203 907.5,140.8203 Q908.2188,140.8203 908.8438,141.0703 Q909.4688,141.3203 910,141.8203 Z " fill="#000000"/><text fill="#000000" font-family="sans-serif" font-size="18" lengthAdjust="spacing" textLength="177" x="924" y="152.6855">AdministrationProcess</text><line style="stroke:#A80036;stroke-width:1.5;" x1="894" x2="1105" y1="163.6406" y2="163.6406"/><!--MD5=[0e501da62322464167c8ec4d233a6b7e]
class VaccineType--><rect codeLine="16" fill="#FEFECE" filter="url(#fl8mghq4554a6)" height="44.6406" id="VaccineType" style="stroke:#A80036;stroke-width:1.5;" width="140" x="929.5" y="207"/><ellipse cx="944.5" cy="225.3203" fill="#ADD1B2" rx="11" ry="11" style="stroke:#A80036;stroke-width:1.0;"/><path d="M946.5,221.8203 Q946.7031,221.3203 946.9375,221.0703 Q947.1719,220.8203 947.4375,220.8203 Q947.9063,220.8203 948.2031,221.1016 Q948.5,221.3828 948.5,222.0391 L948.5,223.6016 Q948.5,224.2578 948.2188,224.5391 Q947.9375,224.8203 947.5,224.8203 Q947.1094,224.8203 946.8594,224.6484 Q946.6094,224.4766 946.5,224.0234 Q946.4531,223.7109 946.2813,223.5391 Q945.9688,223.2109 945.4063,223.0234 Q944.8438,222.8203 944.2813,222.8203 Q943.5781,222.8203 942.9844,223.1016 Q942.4063,223.3828 941.9531,224.0078 Q941.5,224.6328 941.5,225.4922 L941.5,226.4141 Q941.5,227.4453 942.3438,228.1328 Q943.1875,228.8203 944.6875,228.8203 Q945.5781,228.8203 946.2031,228.6172 Q946.5625,228.5078 946.9688,228.1484 Q947.2344,227.9453 947.375,227.8828 Q947.5156,227.8203 947.6875,227.8203 Q948.0156,227.8203 948.25,228.0859 Q948.5,228.3359 948.5,228.6953 Q948.5,229.0391 948.1563,229.4453 Q947.6563,230.0391 946.8594,230.3672 Q945.8125,230.8203 944.5313,230.8203 Q943.0313,230.8203 941.8281,230.2266 Q940.8594,229.7578 940.1719,228.7422 Q939.5,227.7266 939.5,226.5234 L939.5,225.4297 Q939.5,224.1797 940.0938,223.0859 Q940.7031,221.9922 941.75,221.4141 Q942.8125,220.8203 944,220.8203 Q944.7188,220.8203 945.3438,221.0703 Q945.9688,221.3203 946.5,221.8203 Z " fill="#000000"/><text fill="#000000" font-family="sans-serif" font-size="18" lengthAdjust="spacing" textLength="104" x="960.5" y="232.6855">VaccineType</text><line style="stroke:#A80036;stroke-width:1.5;" x1="930.5" x2="1068.5" y1="243.6406" y2="243.6406"/><!--MD5=[7421f545a0d8420c5bec41e74b387d9c]
class Employee--><rect codeLine="17" fill="#FEFECE" filter="url(#fl8mghq4554a6)" height="44.6406" id="Employee" style="stroke:#A80036;stroke-width:1.5;" width="117" x="633" y="7"/><ellipse cx="648" cy="25.3203" fill="#A9DCDF" rx="11" ry="11" style="stroke:#A80036;stroke-width:1.0;"/><path d="M649.75,26.8203 L646.4531,26.8203 L646.0156,27.8203 L646.0156,27.8203 L646.4844,27.8203 L647,28.4453 L647,28.8203 L647,29.1953 L646.4844,29.8203 L646.0156,29.8203 L644.125,29.8203 L643.5156,29.8203 L643,29.1953 L643,28.8203 L643,28.4453 L643.5156,27.8203 L644.125,27.8203 L646.4375,21.8203 L645.5625,21.8203 L644.5156,21.8203 L644,21.1953 L644,20.8203 L644,20.4453 L644.5156,19.8203 L645.5625,19.8203 L649.2344,19.8203 L651.9219,27.8203 L652.4844,27.8203 L652.4844,27.8203 L653,28.4453 L653,28.8203 L653,29.1953 L652.4844,29.8203 L651.9219,29.8203 L650.0313,29.8203 L649.5156,29.8203 L649,29.1953 L649,28.8203 L649,28.4453 L649.5156,27.8203 L650.0313,27.8203 L650.0313,27.8203 L649.75,26.8203 Z M649.2031,24.8203 L648,21.2422 L646.9688,24.8203 L649.2031,24.8203 Z " fill="#000000"/><text fill="#000000" font-family="sans-serif" font-size="18" font-style="italic" lengthAdjust="spacing" textLength="81" x="664" y="32.6855">Employee</text><line style="stroke:#A80036;stroke-width:1.5;" x1="634" x2="749" y1="43.6406" y2="43.6406"/><!--MD5=[8f7dd94d56b58fc07b233ccd3dd98f8c]
link Administrator to Employee--><path codeLine="19" d="M452.01,29.5 C499.65,29.5 563.08,29.5 612.55,29.5 " fill="none" id="Administrator-to-Employee" style="stroke:#A80036;stroke-width:1.0;"/><polygon fill="none" points="612.81,22.5,632.81,29.5,612.81,36.5,612.81,22.5" style="stroke:#A80036;stroke-width:1.0;"/><!--MD5=[71da4be24892bfec694db06bf9e3c284]
link Company to Platform--><path codeLine="20" d="M119.22,109.5 C178.91,109.5 273.21,109.5 330.85,109.5 " fill="none" id="Company-Platform" style="stroke:#A80036;stroke-width:1.0;"/><polygon fill="#000000" points="195,98.6758,185.9549,95.7369,185.9549,101.6147,195,98.6758" style="stroke:#000000;stroke-width:1.0;"/><text fill="#000000" font-family="sans-serif" font-size="13" lengthAdjust="spacing" textLength="21" x="201" y="103.9951">has</text><text fill="#000000" font-family="sans-serif" font-size="13" lengthAdjust="spacing" textLength="7" x="129.1279" y="126.3219">1</text><text fill="#000000" font-family="sans-serif" font-size="13" lengthAdjust="spacing" textLength="7" x="313.8836" y="126.4514">1</text><!--MD5=[eaea43e34e45c5b9d20b595fc78f1f20]
link Company to Administrator--><path codeLine="21" d="M119.18,93.21 C135.21,88.62 152.76,83.73 169,79.5 C216.39,67.15 270.08,54.5 311.58,45.01 " fill="none" id="Company-Administrator" style="stroke:#A80036;stroke-width:1.0;"/><polygon fill="#000000" points="194.8501,50.4607,185.362,49.8079,186.7904,55.5096,194.8501,50.4607" style="stroke:#000000;stroke-width:1.0;"/><text fill="#000000" font-family="sans-serif" font-size="13" lengthAdjust="spacing" textLength="21" x="201" y="56.9951">has</text><text fill="#000000" font-family="sans-serif" font-size="13" lengthAdjust="spacing" textLength="7" x="129.0828" y="85.3823">1</text><text fill="#000000" font-family="sans-serif" font-size="13" lengthAdjust="spacing" textLength="5" x="296.8539" y="63.1725">*</text><!--MD5=[eebe9b198877275d05dd12630ed9e401]
link Company to VaccinationCenter--><path codeLine="22" d="M119.18,125.79 C135.21,130.38 152.76,135.27 169,139.5 C208.79,149.87 253.04,160.45 290.77,169.2 " fill="none" id="Company-VaccinationCenter" style="stroke:#A80036;stroke-width:1.0;"/><polygon fill="#000000" points="178.8473,129.9021,170.7993,124.8345,169.3577,130.5328,178.8473,129.9021" style="stroke:#000000;stroke-width:1.0;"/><text fill="#000000" font-family="sans-serif" font-size="13" lengthAdjust="spacing" textLength="53" x="185" y="133.9951">manages</text><text fill="#000000" font-family="sans-serif" font-size="13" lengthAdjust="spacing" textLength="7" x="129.0828" y="144.6991">1</text><text fill="#000000" font-family="sans-serif" font-size="13" lengthAdjust="spacing" textLength="5" x="276.1415" y="183.9027">*</text><!--MD5=[759c7f6dbf62b13e16002bff783a0fa8]
link VaccinationCenter to Vaccine--><path codeLine="23" d="M473.18,189.5 C528.3,189.5 596.64,189.5 641.8,189.5 " fill="none" id="VaccinationCenter-Vaccine" style="stroke:#A80036;stroke-width:1.0;"/><polygon fill="#000000" points="533,178.6758,523.9549,175.7369,523.9549,181.6147,533,178.6758" style="stroke:#000000;stroke-width:1.0;"/><text fill="#000000" font-family="sans-serif" font-size="13" lengthAdjust="spacing" textLength="41" x="539" y="183.9951">applies</text><text fill="#000000" font-family="sans-serif" font-size="13" lengthAdjust="spacing" textLength="7" x="482.8842" y="205.8203">1</text><text fill="#000000" font-family="sans-serif" font-size="13" lengthAdjust="spacing" textLength="5" x="626.8394" y="206.5161">*</text><!--MD5=[a98252b7739f22b1ddec3651c1c3aaea]
link Vaccine to AdministrationProcess--><path codeLine="24" d="M741.32,183.12 C781.99,177.8 841.35,170.04 892.8,163.32 " fill="none" id="Vaccine-AdministrationProcess" style="stroke:#A80036;stroke-width:1.0;"/><polygon fill="#000000" points="811.4578,160.0277,802.1081,158.2859,802.8699,164.1142,811.4578,160.0277" style="stroke:#000000;stroke-width:1.0;"/><text fill="#000000" font-family="sans-serif" font-size="13" lengthAdjust="spacing" textLength="21" x="817.5" y="165.9951">has</text><text fill="#000000" font-family="sans-serif" font-size="13" lengthAdjust="spacing" textLength="7" x="751.0994" y="199.1742">1</text><text fill="#000000" font-family="sans-serif" font-size="13" lengthAdjust="spacing" textLength="5" x="877.9812" y="180.515">*</text><!--MD5=[3568623adf67b2630dce9e60c05bd02a]
link Vaccine to VaccineType--><path codeLine="25" d="M741.16,197.03 C759.58,199.81 780.74,202.9 800,205.5 C842.83,211.28 890.95,217.11 929.08,221.58 " fill="none" id="Vaccine-VaccineType" style="stroke:#A80036;stroke-width:1.0;"/><polygon fill="#000000" points="809.9579,195.3235,801.3697,191.2376,800.6083,197.0659,809.9579,195.3235" style="stroke:#000000;stroke-width:1.0;"/><text fill="#000000" font-family="sans-serif" font-size="13" lengthAdjust="spacing" textLength="24" x="816" y="199.9951">is of</text><text fill="#000000" font-family="sans-serif" font-size="13" lengthAdjust="spacing" textLength="5" x="751.1148" y="215.152">*</text><text fill="#000000" font-family="sans-serif" font-size="13" lengthAdjust="spacing" textLength="7" x="912.6066" y="237.3149">1</text><!--MD5=[68bfea53ea92368c0c7afb62e636cab8]
@startuml
'https://plantuml.com/sequence-diagram

skinparam classAttributeIconSize 0
hide methods
left to right direction
skinparam padding 2
skinparam ranksep 100
skinparam classFontSize 18

class Administrator
class Company
class Platform
class VaccinationCenter
class Vaccine
class AdministrationProcess
class VaccineType
abstract class Employee

Administrator - -|> Employee
Company "1"- -"1" Platform : has >
Company "1"- -"*" Administrator : has >
Company "1"- -"*" VaccinationCenter : manages >
VaccinationCenter "1"- -"*" Vaccine : applies >
Vaccine "1"- -"*" AdministrationProcess : has >
Vaccine "*"- -"1" VaccineType : is of >

@enduml

@startuml

skinparam classAttributeIconSize 0
hide methods
left to right direction
skinparam padding 2
skinparam ranksep 100
skinparam classFontSize 18

class Administrator
class Company
class Platform
class VaccinationCenter
class Vaccine
class AdministrationProcess
class VaccineType
abstract class Employee

Administrator - -|> Employee
Company "1"- -"1" Platform : has >
Company "1"- -"*" Administrator : has >
Company "1"- -"*" VaccinationCenter : manages >
VaccinationCenter "1"- -"*" Vaccine : applies >
Vaccine "1"- -"*" AdministrationProcess : has >
Vaccine "*"- -"1" VaccineType : is of >

@enduml

PlantUML version 1.2022.1(Tue Feb 01 18:19:58 GMT 2022)
(GPL source distribution)
Java Runtime: OpenJDK Runtime Environment
JVM: OpenJDK 64-Bit Server VM
Default Encoding: Cp1252
Language: pt
Country: PT
--></g></svg>