<?xml version="1.0" encoding="UTF-8" standalone="no"?><svg xmlns="http://www.w3.org/2000/svg" xmlns:xlink="http://www.w3.org/1999/xlink" contentScriptType="application/ecmascript" contentStyleType="text/css" height="1457px" preserveAspectRatio="none" style="width:892px;height:1457px;background:#FFFFFF;" version="1.1" viewBox="0 0 892 1457" width="892px" zoomAndPan="magnify"><defs><filter height="300%" id="f4xa23djhy3x7" width="300%" x="-1" y="-1"><feGaussianBlur result="blurOut" stdDeviation="2.0"/><feColorMatrix in="blurOut" result="blurOut2" type="matrix" values="0 0 0 0 0 0 0 0 0 0 0 0 0 0 0 0 0 0 .4 0"/><feOffset dx="4.0" dy="4.0" in="blurOut2" result="blurOut3"/><feBlend in="SourceGraphic" in2="blurOut3" mode="normal"/></filter></defs><g><!--MD5=[335f4d9be48430461c68bf6d6fdba145]
class App--><rect codeLine="8" fill="#FEFECE" filter="url(#f4xa23djhy3x7)" height="123.9844" id="App" style="stroke:#A80036;stroke-width:1.5;" width="139" x="99" y="493"/><ellipse cx="146.75" cy="511.3203" fill="#ADD1B2" rx="11" ry="11" style="stroke:#A80036;stroke-width:1.0;"/><path d="M148.75,507.8203 Q148.9531,507.3203 149.1875,507.0703 Q149.4219,506.8203 149.6875,506.8203 Q150.1563,506.8203 150.4531,507.1016 Q150.75,507.3828 150.75,508.0391 L150.75,509.6016 Q150.75,510.2578 150.4688,510.5391 Q150.1875,510.8203 149.75,510.8203 Q149.3594,510.8203 149.1094,510.6484 Q148.8594,510.4766 148.75,510.0234 Q148.7031,509.7109 148.5313,509.5391 Q148.2188,509.2109 147.6563,509.0234 Q147.0938,508.8203 146.5313,508.8203 Q145.8281,508.8203 145.2344,509.1016 Q144.6563,509.3828 144.2031,510.0078 Q143.75,510.6328 143.75,511.4922 L143.75,512.4141 Q143.75,513.4453 144.5938,514.1328 Q145.4375,514.8203 146.9375,514.8203 Q147.8281,514.8203 148.4531,514.6172 Q148.8125,514.5078 149.2188,514.1484 Q149.4844,513.9453 149.625,513.8828 Q149.7656,513.8203 149.9375,513.8203 Q150.2656,513.8203 150.5,514.0859 Q150.75,514.3359 150.75,514.6953 Q150.75,515.0391 150.4063,515.4453 Q149.9063,516.0391 149.1094,516.3672 Q148.0625,516.8203 146.7813,516.8203 Q145.2813,516.8203 144.0781,516.2266 Q143.1094,515.7578 142.4219,514.7422 Q141.75,513.7266 141.75,512.5234 L141.75,511.4297 Q141.75,510.1797 142.3438,509.0859 Q142.9531,507.9922 144,507.4141 Q145.0625,506.8203 146.25,506.8203 Q146.9688,506.8203 147.5938,507.0703 Q148.2188,507.3203 148.75,507.8203 Z " fill="#000000"/><text fill="#000000" font-family="sans-serif" font-size="18" lengthAdjust="spacing" textLength="31" x="169.25" y="518.6855">App</text><line style="stroke:#A80036;stroke-width:1.5;" x1="100" x2="237" y1="529.6406" y2="529.6406"/><text fill="#000000" font-family="sans-serif" font-size="11" lengthAdjust="spacing" textLength="96" x="107" y="547.0596">-Company company</text><text fill="#000000" font-family="sans-serif" font-size="11" lengthAdjust="spacing" textLength="123" x="107" y="564.8955">-AuthFacade authFacade</text><line style="stroke:#A80036;stroke-width:1.5;" x1="100" x2="237" y1="573.3125" y2="573.3125"/><text fill="#000000" font-family="sans-serif" font-size="11" lengthAdjust="spacing" textLength="74" x="107" y="590.7314">+getCompany()</text><text fill="#000000" font-family="sans-serif" font-size="11" lengthAdjust="spacing" textLength="70" x="107" y="608.5674">+getInstance()</text><!--MD5=[7421f545a0d8420c5bec41e74b387d9c]
class Employee--><rect codeLine="14" fill="#FEFECE" filter="url(#f4xa23djhy3x7)" height="52.6406" id="Employee" style="stroke:#A80036;stroke-width:1.5;" width="117" x="761" y="1029"/><ellipse cx="776" cy="1047.3203" fill="#A9DCDF" rx="11" ry="11" style="stroke:#A80036;stroke-width:1.0;"/><path d="M777.75,1048.8203 L774.4531,1048.8203 L774.0156,1049.8203 L774.0156,1049.8203 L774.4844,1049.8203 L775,1050.4453 L775,1050.8203 L775,1051.1953 L774.4844,1051.8203 L774.0156,1051.8203 L772.125,1051.8203 L771.5156,1051.8203 L771,1051.1953 L771,1050.8203 L771,1050.4453 L771.5156,1049.8203 L772.125,1049.8203 L774.4375,1043.8203 L773.5625,1043.8203 L772.5156,1043.8203 L772,1043.1953 L772,1042.8203 L772,1042.4453 L772.5156,1041.8203 L773.5625,1041.8203 L777.2344,1041.8203 L779.9219,1049.8203 L780.4844,1049.8203 L780.4844,1049.8203 L781,1050.4453 L781,1050.8203 L781,1051.1953 L780.4844,1051.8203 L779.9219,1051.8203 L778.0313,1051.8203 L777.5156,1051.8203 L777,1051.1953 L777,1050.8203 L777,1050.4453 L777.5156,1049.8203 L778.0313,1049.8203 L778.0313,1049.8203 L777.75,1048.8203 Z M777.2031,1046.8203 L776,1043.2422 L774.9688,1046.8203 L777.2031,1046.8203 Z " fill="#000000"/><text fill="#000000" font-family="sans-serif" font-size="18" font-style="italic" lengthAdjust="spacing" textLength="81" x="792" y="1054.6855">Employee</text><line style="stroke:#A80036;stroke-width:1.5;" x1="762" x2="877" y1="1065.6406" y2="1065.6406"/><line style="stroke:#A80036;stroke-width:1.5;" x1="762" x2="877" y1="1073.6406" y2="1073.6406"/><!--MD5=[da547346deef918ea16944ba046651ef]
class Administrator--><rect codeLine="15" fill="#FEFECE" filter="url(#f4xa23djhy3x7)" height="52.6406" id="Administrator" style="stroke:#A80036;stroke-width:1.5;" width="140" x="690.5" y="765.5"/><ellipse cx="705.5" cy="783.8203" fill="#ADD1B2" rx="11" ry="11" style="stroke:#A80036;stroke-width:1.0;"/><path d="M707.5,780.3203 Q707.7031,779.8203 707.9375,779.5703 Q708.1719,779.3203 708.4375,779.3203 Q708.9063,779.3203 709.2031,779.6016 Q709.5,779.8828 709.5,780.5391 L709.5,782.1016 Q709.5,782.7578 709.2188,783.0391 Q708.9375,783.3203 708.5,783.3203 Q708.1094,783.3203 707.8594,783.1484 Q707.6094,782.9766 707.5,782.5234 Q707.4531,782.2109 707.2813,782.0391 Q706.9688,781.7109 706.4063,781.5234 Q705.8438,781.3203 705.2813,781.3203 Q704.5781,781.3203 703.9844,781.6016 Q703.4063,781.8828 702.9531,782.5078 Q702.5,783.1328 702.5,783.9922 L702.5,784.9141 Q702.5,785.9453 703.3438,786.6328 Q704.1875,787.3203 705.6875,787.3203 Q706.5781,787.3203 707.2031,787.1172 Q707.5625,787.0078 707.9688,786.6484 Q708.2344,786.4453 708.375,786.3828 Q708.5156,786.3203 708.6875,786.3203 Q709.0156,786.3203 709.25,786.5859 Q709.5,786.8359 709.5,787.1953 Q709.5,787.5391 709.1563,787.9453 Q708.6563,788.5391 707.8594,788.8672 Q706.8125,789.3203 705.5313,789.3203 Q704.0313,789.3203 702.8281,788.7266 Q701.8594,788.2578 701.1719,787.2422 Q700.5,786.2266 700.5,785.0234 L700.5,783.9297 Q700.5,782.6797 701.0938,781.5859 Q701.7031,780.4922 702.75,779.9141 Q703.8125,779.3203 705,779.3203 Q705.7188,779.3203 706.3438,779.5703 Q706.9688,779.8203 707.5,780.3203 Z " fill="#000000"/><text fill="#000000" font-family="sans-serif" font-size="18" lengthAdjust="spacing" textLength="104" x="721.5" y="791.1855">Administrator</text><line style="stroke:#A80036;stroke-width:1.5;" x1="691.5" x2="829.5" y1="802.1406" y2="802.1406"/><line style="stroke:#A80036;stroke-width:1.5;" x1="691.5" x2="829.5" y1="810.1406" y2="810.1406"/><!--MD5=[02e4b9b7573f1156f41e60aa5b4e25a4]
class Company--><rect codeLine="16" fill="#FEFECE" filter="url(#f4xa23djhy3x7)" height="123.9844" id="Company" style="stroke:#A80036;stroke-width:1.5;" width="139" x="374" y="493"/><ellipse cx="401.15" cy="511.3203" fill="#ADD1B2" rx="11" ry="11" style="stroke:#A80036;stroke-width:1.0;"/><path d="M403.15,507.8203 Q403.3531,507.3203 403.5875,507.0703 Q403.8219,506.8203 404.0875,506.8203 Q404.5563,506.8203 404.8531,507.1016 Q405.15,507.3828 405.15,508.0391 L405.15,509.6016 Q405.15,510.2578 404.8688,510.5391 Q404.5875,510.8203 404.15,510.8203 Q403.7594,510.8203 403.5094,510.6484 Q403.2594,510.4766 403.15,510.0234 Q403.1031,509.7109 402.9313,509.5391 Q402.6188,509.2109 402.0563,509.0234 Q401.4938,508.8203 400.9313,508.8203 Q400.2281,508.8203 399.6344,509.1016 Q399.0563,509.3828 398.6031,510.0078 Q398.15,510.6328 398.15,511.4922 L398.15,512.4141 Q398.15,513.4453 398.9938,514.1328 Q399.8375,514.8203 401.3375,514.8203 Q402.2281,514.8203 402.8531,514.6172 Q403.2125,514.5078 403.6188,514.1484 Q403.8844,513.9453 404.025,513.8828 Q404.1656,513.8203 404.3375,513.8203 Q404.6656,513.8203 404.9,514.0859 Q405.15,514.3359 405.15,514.6953 Q405.15,515.0391 404.8063,515.4453 Q404.3063,516.0391 403.5094,516.3672 Q402.4625,516.8203 401.1813,516.8203 Q399.6813,516.8203 398.4781,516.2266 Q397.5094,515.7578 396.8219,514.7422 Q396.15,513.7266 396.15,512.5234 L396.15,511.4297 Q396.15,510.1797 396.7438,509.0859 Q397.3531,507.9922 398.4,507.4141 Q399.4625,506.8203 400.65,506.8203 Q401.3688,506.8203 401.9938,507.0703 Q402.6188,507.3203 403.15,507.8203 Z " fill="#000000"/><text fill="#000000" font-family="sans-serif" font-size="18" lengthAdjust="spacing" textLength="76" x="419.85" y="518.6855">Company</text><line style="stroke:#A80036;stroke-width:1.5;" x1="375" x2="512" y1="529.6406" y2="529.6406"/><text fill="#000000" font-family="sans-serif" font-size="11" lengthAdjust="spacing" textLength="90" x="382" y="547.0596">-String designation</text><text fill="#000000" font-family="sans-serif" font-size="11" lengthAdjust="spacing" textLength="123" x="382" y="564.8955">-AuthFacade authFacade</text><text fill="#000000" font-family="sans-serif" font-size="11" lengthAdjust="spacing" textLength="105" x="382" y="582.7314">-Platform m_oPlatform</text><line style="stroke:#A80036;stroke-width:1.5;" x1="375" x2="512" y1="591.1484" y2="591.1484"/><text fill="#000000" font-family="sans-serif" font-size="11" lengthAdjust="spacing" textLength="68" x="382" y="608.5674">+getPlatform()</text><!--MD5=[99b8db98afdc2c8404e39242ef4c1e65]
class Platform--><rect codeLine="22" fill="#FEFECE" filter="url(#f4xa23djhy3x7)" height="106.1484" id="Platform" style="stroke:#A80036;stroke-width:1.5;" width="251" x="109" y="739"/><ellipse cx="195.25" cy="757.3203" fill="#ADD1B2" rx="11" ry="11" style="stroke:#A80036;stroke-width:1.0;"/><path d="M197.25,753.8203 Q197.4531,753.3203 197.6875,753.0703 Q197.9219,752.8203 198.1875,752.8203 Q198.6563,752.8203 198.9531,753.1016 Q199.25,753.3828 199.25,754.0391 L199.25,755.6016 Q199.25,756.2578 198.9688,756.5391 Q198.6875,756.8203 198.25,756.8203 Q197.8594,756.8203 197.6094,756.6484 Q197.3594,756.4766 197.25,756.0234 Q197.2031,755.7109 197.0313,755.5391 Q196.7188,755.2109 196.1563,755.0234 Q195.5938,754.8203 195.0313,754.8203 Q194.3281,754.8203 193.7344,755.1016 Q193.1563,755.3828 192.7031,756.0078 Q192.25,756.6328 192.25,757.4922 L192.25,758.4141 Q192.25,759.4453 193.0938,760.1328 Q193.9375,760.8203 195.4375,760.8203 Q196.3281,760.8203 196.9531,760.6172 Q197.3125,760.5078 197.7188,760.1484 Q197.9844,759.9453 198.125,759.8828 Q198.2656,759.8203 198.4375,759.8203 Q198.7656,759.8203 199,760.0859 Q199.25,760.3359 199.25,760.6953 Q199.25,761.0391 198.9063,761.4453 Q198.4063,762.0391 197.6094,762.3672 Q196.5625,762.8203 195.2813,762.8203 Q193.7813,762.8203 192.5781,762.2266 Q191.6094,761.7578 190.9219,760.7422 Q190.25,759.7266 190.25,758.5234 L190.25,757.4297 Q190.25,756.1797 190.8438,755.0859 Q191.4531,753.9922 192.5,753.4141 Q193.5625,752.8203 194.75,752.8203 Q195.4688,752.8203 196.0938,753.0703 Q196.7188,753.3203 197.25,753.8203 Z " fill="#000000"/><text fill="#000000" font-family="sans-serif" font-size="18" lengthAdjust="spacing" textLength="66" x="217.75" y="764.6855">Platform</text><line style="stroke:#A80036;stroke-width:1.5;" x1="110" x2="359" y1="775.6406" y2="775.6406"/><text fill="#000000" font-family="sans-serif" font-size="11" lengthAdjust="spacing" textLength="88" x="117" y="793.0596">-String description</text><text fill="#000000" font-family="sans-serif" font-size="11" lengthAdjust="spacing" textLength="235" x="117" y="810.8955">-RegisterVaccineType m_oRegisterVaccineType</text><line style="stroke:#A80036;stroke-width:1.5;" x1="110" x2="359" y1="819.3125" y2="819.3125"/><text fill="#000000" font-family="sans-serif" font-size="11" lengthAdjust="spacing" textLength="133" x="117" y="836.7314">+getRegisterVaccineType()</text><!--MD5=[de60e6d4f424ae4d0522096f76a59010]
class VaccinationCenter--><rect codeLine="27" fill="#FEFECE" filter="url(#f4xa23djhy3x7)" height="52.6406" id="VaccinationCenter" style="stroke:#A80036;stroke-width:1.5;" width="185" x="395" y="765.5"/><ellipse cx="410" cy="783.8203" fill="#A9DCDF" rx="11" ry="11" style="stroke:#A80036;stroke-width:1.0;"/><path d="M411.75,785.3203 L408.4531,785.3203 L408.0156,786.3203 L408.0156,786.3203 L408.4844,786.3203 L409,786.9453 L409,787.3203 L409,787.6953 L408.4844,788.3203 L408.0156,788.3203 L406.125,788.3203 L405.5156,788.3203 L405,787.6953 L405,787.3203 L405,786.9453 L405.5156,786.3203 L406.125,786.3203 L408.4375,780.3203 L407.5625,780.3203 L406.5156,780.3203 L406,779.6953 L406,779.3203 L406,778.9453 L406.5156,778.3203 L407.5625,778.3203 L411.2344,778.3203 L413.9219,786.3203 L414.4844,786.3203 L414.4844,786.3203 L415,786.9453 L415,787.3203 L415,787.6953 L414.4844,788.3203 L413.9219,788.3203 L412.0313,788.3203 L411.5156,788.3203 L411,787.6953 L411,787.3203 L411,786.9453 L411.5156,786.3203 L412.0313,786.3203 L412.0313,786.3203 L411.75,785.3203 Z M411.2031,783.3203 L410,779.7422 L408.9688,783.3203 L411.2031,783.3203 Z " fill="#000000"/><text fill="#000000" font-family="sans-serif" font-size="18" font-style="italic" lengthAdjust="spacing" textLength="149" x="426" y="791.1855">VaccinationCenter</text><line style="stroke:#A80036;stroke-width:1.5;" x1="396" x2="579" y1="802.1406" y2="802.1406"/><line style="stroke:#A80036;stroke-width:1.5;" x1="396" x2="579" y1="810.1406" y2="810.1406"/><!--MD5=[19e445fc4d3b48519cbe33da05496394]
class Vaccine--><rect codeLine="28" fill="#FEFECE" filter="url(#f4xa23djhy3x7)" height="177.4922" id="Vaccine" style="stroke:#A80036;stroke-width:1.5;" width="477" x="249" y="967"/><ellipse cx="449.75" cy="985.3203" fill="#ADD1B2" rx="11" ry="11" style="stroke:#A80036;stroke-width:1.0;"/><path d="M451.75,981.8203 Q451.9531,981.3203 452.1875,981.0703 Q452.4219,980.8203 452.6875,980.8203 Q453.1563,980.8203 453.4531,981.1016 Q453.75,981.3828 453.75,982.0391 L453.75,983.6016 Q453.75,984.2578 453.4688,984.5391 Q453.1875,984.8203 452.75,984.8203 Q452.3594,984.8203 452.1094,984.6484 Q451.8594,984.4766 451.75,984.0234 Q451.7031,983.7109 451.5313,983.5391 Q451.2188,983.2109 450.6563,983.0234 Q450.0938,982.8203 449.5313,982.8203 Q448.8281,982.8203 448.2344,983.1016 Q447.6563,983.3828 447.2031,984.0078 Q446.75,984.6328 446.75,985.4922 L446.75,986.4141 Q446.75,987.4453 447.5938,988.1328 Q448.4375,988.8203 449.9375,988.8203 Q450.8281,988.8203 451.4531,988.6172 Q451.8125,988.5078 452.2188,988.1484 Q452.4844,987.9453 452.625,987.8828 Q452.7656,987.8203 452.9375,987.8203 Q453.2656,987.8203 453.5,988.0859 Q453.75,988.3359 453.75,988.6953 Q453.75,989.0391 453.4063,989.4453 Q452.9063,990.0391 452.1094,990.3672 Q451.0625,990.8203 449.7813,990.8203 Q448.2813,990.8203 447.0781,990.2266 Q446.1094,989.7578 445.4219,988.7422 Q444.75,987.7266 444.75,986.5234 L444.75,985.4297 Q444.75,984.1797 445.3438,983.0859 Q445.9531,981.9922 447,981.4141 Q448.0625,980.8203 449.25,980.8203 Q449.9688,980.8203 450.5938,981.0703 Q451.2188,981.3203 451.75,981.8203 Z " fill="#000000"/><text fill="#000000" font-family="sans-serif" font-size="18" lengthAdjust="spacing" textLength="63" x="472.25" y="992.6855">Vaccine</text><line style="stroke:#A80036;stroke-width:1.5;" x1="250" x2="725" y1="1003.6406" y2="1003.6406"/><text fill="#000000" font-family="sans-serif" font-size="11" lengthAdjust="spacing" textLength="265" x="257" y="1021.0596">-List&lt;AdministrationProcess&gt; listAdministrationProcess</text><text fill="#000000" font-family="sans-serif" font-size="11" lengthAdjust="spacing" textLength="43" x="257" y="1038.8955">-String id</text><text fill="#000000" font-family="sans-serif" font-size="11" lengthAdjust="spacing" textLength="61" x="257" y="1056.7314">-String name</text><line style="stroke:#A80036;stroke-width:1.5;" x1="250" x2="725" y1="1065.1484" y2="1065.1484"/><text fill="#000000" font-family="sans-serif" font-size="11" lengthAdjust="spacing" textLength="94" x="257" y="1082.5674">+Vaccine(id, name)</text><text fill="#000000" font-family="sans-serif" font-size="11" lengthAdjust="spacing" textLength="461" x="257" y="1100.4033">+newAdministrationProcess(ageGroups, referenceDose, dosesToBeAdministered, timeInterval)</text><text fill="#000000" font-family="sans-serif" font-size="11" lengthAdjust="spacing" textLength="265" x="257" y="1118.2393">+validateAdministrationProcess(administrationProcess)</text><text fill="#000000" font-family="sans-serif" font-size="11" lengthAdjust="spacing" textLength="246" x="257" y="1136.0752">+addAdministrationProcess(administrationProcess)</text><!--MD5=[a2530d24bafc45bb45314d96545aa194]
class AdministrationProcess--><rect codeLine="37" fill="#FEFECE" filter="url(#f4xa23djhy3x7)" height="177.4922" id="AdministrationProcess" style="stroke:#A80036;stroke-width:1.5;" width="638" x="215.5" y="1266"/><ellipse cx="439.75" cy="1284.3203" fill="#ADD1B2" rx="11" ry="11" style="stroke:#A80036;stroke-width:1.0;"/><path d="M441.75,1280.8203 Q441.9531,1280.3203 442.1875,1280.0703 Q442.4219,1279.8203 442.6875,1279.8203 Q443.1563,1279.8203 443.4531,1280.1016 Q443.75,1280.3828 443.75,1281.0391 L443.75,1282.6016 Q443.75,1283.2578 443.4688,1283.5391 Q443.1875,1283.8203 442.75,1283.8203 Q442.3594,1283.8203 442.1094,1283.6484 Q441.8594,1283.4766 441.75,1283.0234 Q441.7031,1282.7109 441.5313,1282.5391 Q441.2188,1282.2109 440.6563,1282.0234 Q440.0938,1281.8203 439.5313,1281.8203 Q438.8281,1281.8203 438.2344,1282.1016 Q437.6563,1282.3828 437.2031,1283.0078 Q436.75,1283.6328 436.75,1284.4922 L436.75,1285.4141 Q436.75,1286.4453 437.5938,1287.1328 Q438.4375,1287.8203 439.9375,1287.8203 Q440.8281,1287.8203 441.4531,1287.6172 Q441.8125,1287.5078 442.2188,1287.1484 Q442.4844,1286.9453 442.625,1286.8828 Q442.7656,1286.8203 442.9375,1286.8203 Q443.2656,1286.8203 443.5,1287.0859 Q443.75,1287.3359 443.75,1287.6953 Q443.75,1288.0391 443.4063,1288.4453 Q442.9063,1289.0391 442.1094,1289.3672 Q441.0625,1289.8203 439.7813,1289.8203 Q438.2813,1289.8203 437.0781,1289.2266 Q436.1094,1288.7578 435.4219,1287.7422 Q434.75,1286.7266 434.75,1285.5234 L434.75,1284.4297 Q434.75,1283.1797 435.3438,1282.0859 Q435.9531,1280.9922 437,1280.4141 Q438.0625,1279.8203 439.25,1279.8203 Q439.9688,1279.8203 440.5938,1280.0703 Q441.2188,1280.3203 441.75,1280.8203 Z " fill="#000000"/><text fill="#000000" font-family="sans-serif" font-size="18" lengthAdjust="spacing" textLength="177" x="462.25" y="1291.6855">AdministrationProcess</text><line style="stroke:#A80036;stroke-width:1.5;" x1="216.5" x2="852.5" y1="1302.6406" y2="1302.6406"/><text fill="#000000" font-family="sans-serif" font-size="11" lengthAdjust="spacing" textLength="129" x="223.5" y="1320.0596">-List&lt;Integer[]&gt; ageGroups</text><text fill="#000000" font-family="sans-serif" font-size="11" lengthAdjust="spacing" textLength="113" x="223.5" y="1337.8955">-Double referenceDose</text><text fill="#000000" font-family="sans-serif" font-size="11" lengthAdjust="spacing" textLength="158" x="223.5" y="1355.7314">-Integer dosesToBeAdministered</text><text fill="#000000" font-family="sans-serif" font-size="11" lengthAdjust="spacing" textLength="129" x="223.5" y="1373.5674">-List&lt;Integer[]&gt; timeInterval</text><line style="stroke:#A80036;stroke-width:1.5;" x1="216.5" x2="852.5" y1="1381.9844" y2="1381.9844"/><text fill="#000000" font-family="sans-serif" font-size="11" lengthAdjust="spacing" textLength="622" x="223.5" y="1399.4033">+AdministrationProcess(List&lt;Integer[]&gt; ageGroups,Double referenceDose,int dosesToBeAdministered,List&lt;Integer[]&gt; timeInterval)</text><text fill="#000000" font-family="sans-serif" font-size="11" lengthAdjust="spacing" textLength="494" x="223.5" y="1417.2393">+AdministrationProcess(List&lt;Integer[]&gt; ageGroups,Double referenceDose,int dosesToBeAdministered)</text><text fill="#000000" font-family="sans-serif" font-size="11" lengthAdjust="spacing" textLength="51" x="223.5" y="1435.0752">+toString()</text><!--MD5=[0e501da62322464167c8ec4d233a6b7e]
class VaccineType--><rect codeLine="46" fill="#FEFECE" filter="url(#f4xa23djhy3x7)" height="106.1484" id="VaccineType" style="stroke:#A80036;stroke-width:1.5;" width="140" x="40.5" y="1301.5"/><ellipse cx="55.5" cy="1319.8203" fill="#ADD1B2" rx="11" ry="11" style="stroke:#A80036;stroke-width:1.0;"/><path d="M57.5,1316.3203 Q57.7031,1315.8203 57.9375,1315.5703 Q58.1719,1315.3203 58.4375,1315.3203 Q58.9063,1315.3203 59.2031,1315.6016 Q59.5,1315.8828 59.5,1316.5391 L59.5,1318.1016 Q59.5,1318.7578 59.2188,1319.0391 Q58.9375,1319.3203 58.5,1319.3203 Q58.1094,1319.3203 57.8594,1319.1484 Q57.6094,1318.9766 57.5,1318.5234 Q57.4531,1318.2109 57.2813,1318.0391 Q56.9688,1317.7109 56.4063,1317.5234 Q55.8438,1317.3203 55.2813,1317.3203 Q54.5781,1317.3203 53.9844,1317.6016 Q53.4063,1317.8828 52.9531,1318.5078 Q52.5,1319.1328 52.5,1319.9922 L52.5,1320.9141 Q52.5,1321.9453 53.3438,1322.6328 Q54.1875,1323.3203 55.6875,1323.3203 Q56.5781,1323.3203 57.2031,1323.1172 Q57.5625,1323.0078 57.9688,1322.6484 Q58.2344,1322.4453 58.375,1322.3828 Q58.5156,1322.3203 58.6875,1322.3203 Q59.0156,1322.3203 59.25,1322.5859 Q59.5,1322.8359 59.5,1323.1953 Q59.5,1323.5391 59.1563,1323.9453 Q58.6563,1324.5391 57.8594,1324.8672 Q56.8125,1325.3203 55.5313,1325.3203 Q54.0313,1325.3203 52.8281,1324.7266 Q51.8594,1324.2578 51.1719,1323.2422 Q50.5,1322.2266 50.5,1321.0234 L50.5,1319.9297 Q50.5,1318.6797 51.0938,1317.5859 Q51.7031,1316.4922 52.75,1315.9141 Q53.8125,1315.3203 55,1315.3203 Q55.7188,1315.3203 56.3438,1315.5703 Q56.9688,1315.8203 57.5,1316.3203 Z " fill="#000000"/><text fill="#000000" font-family="sans-serif" font-size="18" lengthAdjust="spacing" textLength="104" x="71.5" y="1327.1855">VaccineType</text><line style="stroke:#A80036;stroke-width:1.5;" x1="41.5" x2="179.5" y1="1338.1406" y2="1338.1406"/><text fill="#000000" font-family="sans-serif" font-size="11" lengthAdjust="spacing" textLength="24" x="48.5" y="1355.5596">code</text><text fill="#000000" font-family="sans-serif" font-size="11" lengthAdjust="spacing" textLength="55" x="48.5" y="1373.3955">designation</text><text fill="#000000" font-family="sans-serif" font-size="11" lengthAdjust="spacing" textLength="30" x="48.5" y="1391.2314">whold</text><line style="stroke:#A80036;stroke-width:1.5;" x1="41.5" x2="179.5" y1="1399.6484" y2="1399.6484"/><!--MD5=[0e7c043a007ff36ee83ae1d805ce7932]
class SpecifyNewVaccineUI--><rect codeLine="52" fill="#FEFECE" filter="url(#f4xa23djhy3x7)" height="52.6406" id="SpecifyNewVaccineUI" style="stroke:#A80036;stroke-width:1.5;" width="211" x="186" y="7"/><ellipse cx="201" cy="25.3203" fill="#ADD1B2" rx="11" ry="11" style="stroke:#A80036;stroke-width:1.0;"/><path d="M203,21.8203 Q203.2031,21.3203 203.4375,21.0703 Q203.6719,20.8203 203.9375,20.8203 Q204.4063,20.8203 204.7031,21.1016 Q205,21.3828 205,22.0391 L205,23.6016 Q205,24.2578 204.7188,24.5391 Q204.4375,24.8203 204,24.8203 Q203.6094,24.8203 203.3594,24.6484 Q203.1094,24.4766 203,24.0234 Q202.9531,23.7109 202.7813,23.5391 Q202.4688,23.2109 201.9063,23.0234 Q201.3438,22.8203 200.7813,22.8203 Q200.0781,22.8203 199.4844,23.1016 Q198.9063,23.3828 198.4531,24.0078 Q198,24.6328 198,25.4922 L198,26.4141 Q198,27.4453 198.8438,28.1328 Q199.6875,28.8203 201.1875,28.8203 Q202.0781,28.8203 202.7031,28.6172 Q203.0625,28.5078 203.4688,28.1484 Q203.7344,27.9453 203.875,27.8828 Q204.0156,27.8203 204.1875,27.8203 Q204.5156,27.8203 204.75,28.0859 Q205,28.3359 205,28.6953 Q205,29.0391 204.6563,29.4453 Q204.1563,30.0391 203.3594,30.3672 Q202.3125,30.8203 201.0313,30.8203 Q199.5313,30.8203 198.3281,30.2266 Q197.3594,29.7578 196.6719,28.7422 Q196,27.7266 196,26.5234 L196,25.4297 Q196,24.1797 196.5938,23.0859 Q197.2031,21.9922 198.25,21.4141 Q199.3125,20.8203 200.5,20.8203 Q201.2188,20.8203 201.8438,21.0703 Q202.4688,21.3203 203,21.8203 Z " fill="#000000"/><text fill="#000000" font-family="sans-serif" font-size="18" lengthAdjust="spacing" textLength="175" x="217" y="32.6855">SpecifyNewVaccineUI</text><line style="stroke:#A80036;stroke-width:1.5;" x1="187" x2="396" y1="43.6406" y2="43.6406"/><line style="stroke:#A80036;stroke-width:1.5;" x1="187" x2="396" y1="51.6406" y2="51.6406"/><!--MD5=[5ff29b2a06d9bf6e3716314822b7d56c]
class SpecifyNewVaccineController--><rect codeLine="53" fill="#FEFECE" filter="url(#f4xa23djhy3x7)" height="231" id="SpecifyNewVaccineController" style="stroke:#A80036;stroke-width:1.5;" width="489" x="47" y="161"/><ellipse cx="167.25" cy="179.3203" fill="#ADD1B2" rx="11" ry="11" style="stroke:#A80036;stroke-width:1.0;"/><path d="M169.25,175.8203 Q169.4531,175.3203 169.6875,175.0703 Q169.9219,174.8203 170.1875,174.8203 Q170.6563,174.8203 170.9531,175.1016 Q171.25,175.3828 171.25,176.0391 L171.25,177.6016 Q171.25,178.2578 170.9688,178.5391 Q170.6875,178.8203 170.25,178.8203 Q169.8594,178.8203 169.6094,178.6484 Q169.3594,178.4766 169.25,178.0234 Q169.2031,177.7109 169.0313,177.5391 Q168.7188,177.2109 168.1563,177.0234 Q167.5938,176.8203 167.0313,176.8203 Q166.3281,176.8203 165.7344,177.1016 Q165.1563,177.3828 164.7031,178.0078 Q164.25,178.6328 164.25,179.4922 L164.25,180.4141 Q164.25,181.4453 165.0938,182.1328 Q165.9375,182.8203 167.4375,182.8203 Q168.3281,182.8203 168.9531,182.6172 Q169.3125,182.5078 169.7188,182.1484 Q169.9844,181.9453 170.125,181.8828 Q170.2656,181.8203 170.4375,181.8203 Q170.7656,181.8203 171,182.0859 Q171.25,182.3359 171.25,182.6953 Q171.25,183.0391 170.9063,183.4453 Q170.4063,184.0391 169.6094,184.3672 Q168.5625,184.8203 167.2813,184.8203 Q165.7813,184.8203 164.5781,184.2266 Q163.6094,183.7578 162.9219,182.7422 Q162.25,181.7266 162.25,180.5234 L162.25,179.4297 Q162.25,178.1797 162.8438,177.0859 Q163.4531,175.9922 164.5,175.4141 Q165.5625,174.8203 166.75,174.8203 Q167.4688,174.8203 168.0938,175.0703 Q168.7188,175.3203 169.25,175.8203 Z " fill="#000000"/><text fill="#000000" font-family="sans-serif" font-size="18" lengthAdjust="spacing" textLength="236" x="189.75" y="186.6855">SpecifyNewVaccineController</text><line style="stroke:#A80036;stroke-width:1.5;" x1="48" x2="535" y1="197.6406" y2="197.6406"/><text fill="#000000" font-family="sans-serif" font-size="11" lengthAdjust="spacing" textLength="45" x="55" y="215.0596">-App app</text><text fill="#000000" font-family="sans-serif" font-size="11" lengthAdjust="spacing" textLength="85" x="55" y="232.8955">-Vaccine vaccine</text><text fill="#000000" font-family="sans-serif" font-size="11" lengthAdjust="spacing" textLength="157" x="55" y="250.7314">-List&lt;AdministrationProcess&gt; list</text><line style="stroke:#A80036;stroke-width:1.5;" x1="48" x2="535" y1="259.1484" y2="259.1484"/><text fill="#000000" font-family="sans-serif" font-size="11" lengthAdjust="spacing" textLength="160" x="55" y="276.5674">+SpecifyNewVaccineController()</text><text fill="#000000" font-family="sans-serif" font-size="11" lengthAdjust="spacing" textLength="116" x="55" y="294.4033">+newVaccine(id, name)</text><text fill="#000000" font-family="sans-serif" font-size="11" lengthAdjust="spacing" textLength="473" x="55" y="312.2393">+newAdministrationProcess(IntegerageGroups, dosesToBeAdministered, dosage, listTimeInterval)</text><text fill="#000000" font-family="sans-serif" font-size="11" lengthAdjust="spacing" textLength="87" x="55" y="330.0752">+getVaccineInfo()</text><text fill="#000000" font-family="sans-serif" font-size="11" lengthAdjust="spacing" textLength="72" x="55" y="347.9111">+addVaccine()</text><text fill="#000000" font-family="sans-serif" font-size="11" lengthAdjust="spacing" textLength="93" x="55" y="365.7471">+getVaccineType()</text><text fill="#000000" font-family="sans-serif" font-size="11" lengthAdjust="spacing" textLength="93" x="55" y="383.583">+setVaccineType()</text><!--MD5=[48075a6d395c0370ea048b4a1b4dd9a1]
class RegisterVaccineType--><rect codeLine="66" fill="#FEFECE" filter="url(#f4xa23djhy3x7)" height="88.3125" id="RegisterVaccineType" style="stroke:#A80036;stroke-width:1.5;" width="207" x="7" y="1011.5"/><ellipse cx="22" cy="1029.8203" fill="#ADD1B2" rx="11" ry="11" style="stroke:#A80036;stroke-width:1.0;"/><path d="M24,1026.3203 Q24.2031,1025.8203 24.4375,1025.5703 Q24.6719,1025.3203 24.9375,1025.3203 Q25.4063,1025.3203 25.7031,1025.6016 Q26,1025.8828 26,1026.5391 L26,1028.1016 Q26,1028.7578 25.7188,1029.0391 Q25.4375,1029.3203 25,1029.3203 Q24.6094,1029.3203 24.3594,1029.1484 Q24.1094,1028.9766 24,1028.5234 Q23.9531,1028.2109 23.7813,1028.0391 Q23.4688,1027.7109 22.9063,1027.5234 Q22.3438,1027.3203 21.7813,1027.3203 Q21.0781,1027.3203 20.4844,1027.6016 Q19.9063,1027.8828 19.4531,1028.5078 Q19,1029.1328 19,1029.9922 L19,1030.9141 Q19,1031.9453 19.8438,1032.6328 Q20.6875,1033.3203 22.1875,1033.3203 Q23.0781,1033.3203 23.7031,1033.1172 Q24.0625,1033.0078 24.4688,1032.6484 Q24.7344,1032.4453 24.875,1032.3828 Q25.0156,1032.3203 25.1875,1032.3203 Q25.5156,1032.3203 25.75,1032.5859 Q26,1032.8359 26,1033.1953 Q26,1033.5391 25.6563,1033.9453 Q25.1563,1034.5391 24.3594,1034.8672 Q23.3125,1035.3203 22.0313,1035.3203 Q20.5313,1035.3203 19.3281,1034.7266 Q18.3594,1034.2578 17.6719,1033.2422 Q17,1032.2266 17,1031.0234 L17,1029.9297 Q17,1028.6797 17.5938,1027.5859 Q18.2031,1026.4922 19.25,1025.9141 Q20.3125,1025.3203 21.5,1025.3203 Q22.2188,1025.3203 22.8438,1025.5703 Q23.4688,1025.8203 24,1026.3203 Z " fill="#000000"/><text fill="#000000" font-family="sans-serif" font-size="18" lengthAdjust="spacing" textLength="171" x="38" y="1037.1855">RegisterVaccineType</text><line style="stroke:#A80036;stroke-width:1.5;" x1="8" x2="213" y1="1048.1406" y2="1048.1406"/><text fill="#000000" font-family="sans-serif" font-size="11" lengthAdjust="spacing" textLength="159" x="15" y="1065.5596">-List&lt;Vaccine&gt; listVaccineTypes</text><line style="stroke:#A80036;stroke-width:1.5;" x1="8" x2="213" y1="1073.9766" y2="1073.9766"/><text fill="#000000" font-family="sans-serif" font-size="11" lengthAdjust="spacing" textLength="110" x="15" y="1091.3955">+getListVaccineType()</text><!--MD5=[acf82daadde07daa2d8eb34bfd9d97b1]
link SpecifyNewVaccineUI to SpecifyNewVaccineController--><path codeLine="71" d="M291.5,60.29 C291.5,83.55 291.5,119.54 291.5,155.47 " fill="none" id="SpecifyNewVaccineUI-to-SpecifyNewVaccineController" style="stroke:#A80036;stroke-width:1.0;stroke-dasharray:7.0,7.0;"/><polygon fill="#A80036" points="291.5,160.77,295.5,151.77,291.5,155.77,287.5,151.77,291.5,160.77" style="stroke:#A80036;stroke-width:1.0;"/><!--MD5=[e00d3c25701aaa035dc03376dce43328]
link SpecifyNewVaccineController to Company--><path codeLine="72" d="M354.64,392.36 C372.6,425.03 391.55,459.5 407.32,488.18 " fill="none" id="SpecifyNewVaccineController-to-Company" style="stroke:#A80036;stroke-width:1.0;stroke-dasharray:7.0,7.0;"/><polygon fill="#A80036" points="409.82,492.73,408.995,482.9158,407.4137,488.3471,401.9824,486.7658,409.82,492.73" style="stroke:#A80036;stroke-width:1.0;"/><!--MD5=[8fa9a77413a17b8a0ae9128226c77080]
link SpecifyNewVaccineController to Platform--><path codeLine="73" d="M279.75,392.26 C272.9,458.07 263.98,542.2 255.5,617 C251.09,655.89 245.81,699.62 241.65,733.51 " fill="none" id="SpecifyNewVaccineController-to-Platform" style="stroke:#A80036;stroke-width:1.0;stroke-dasharray:7.0,7.0;"/><polygon fill="#A80036" points="240.99,738.87,246.0635,730.4285,241.6032,733.9077,238.1239,729.4474,240.99,738.87" style="stroke:#A80036;stroke-width:1.0;"/><!--MD5=[7fb92f126a94ff4322738188bfbdf4ae]
link SpecifyNewVaccineController to App--><path codeLine="74" d="M240.41,392.36 C225.93,424.9 210.66,459.22 197.94,487.83 " fill="none" id="SpecifyNewVaccineController-to-App" style="stroke:#A80036;stroke-width:1.0;stroke-dasharray:7.0,7.0;"/><polygon fill="#A80036" points="195.75,492.73,203.0739,486.1451,197.79,488.1651,195.77,482.8812,195.75,492.73" style="stroke:#A80036;stroke-width:1.0;"/><!--MD5=[d0f849386a6bfbd822f11ca3f8e4c12a]
link Platform to RegisterVaccineType--><path codeLine="75" d="M209.7,845.29 C186.59,894.03 152.54,965.85 130.94,1011.39 " fill="none" id="Platform-RegisterVaccineType" style="stroke:#A80036;stroke-width:1.0;"/><polygon fill="#000000" points="187.3578,910.6936,193.8886,903.7799,188.5776,901.2616,187.3578,910.6936" style="stroke:#000000;stroke-width:1.0;"/><text fill="#000000" font-family="sans-serif" font-size="13" lengthAdjust="spacing" textLength="21" x="200.5" y="911.4951">has</text><text fill="#000000" font-family="sans-serif" font-size="13" lengthAdjust="spacing" textLength="7" x="197.0072" y="868.511">1</text><text fill="#000000" font-family="sans-serif" font-size="13" lengthAdjust="spacing" textLength="7" x="124.2277" y="998.6025">1</text><!--MD5=[edb9cc7d2ec7d3549ecb715d4bd88d2d]
link RegisterVaccineType to VaccineType--><path codeLine="76" d="M110.5,1099.69 C110.5,1153.1 110.5,1243.96 110.5,1301.25 " fill="none" id="RegisterVaccineType-VaccineType" style="stroke:#A80036;stroke-width:1.0;"/><polygon fill="#000000" points="115.5,1210.1758,118.4389,1201.1307,112.5611,1201.1307,115.5,1210.1758" style="stroke:#000000;stroke-width:1.0;"/><text fill="#000000" font-family="sans-serif" font-size="13" lengthAdjust="spacing" textLength="21" x="126.5" y="1210.4951">has</text><text fill="#000000" font-family="sans-serif" font-size="13" lengthAdjust="spacing" textLength="7" x="100.6922" y="1123.1471">1</text><text fill="#000000" font-family="sans-serif" font-size="13" lengthAdjust="spacing" textLength="5" x="102.9234" y="1288.6542">*</text><!--MD5=[8f7dd94d56b58fc07b233ccd3dd98f8c]
link Administrator to Employee--><path codeLine="77" d="M766.26,818.55 C776.24,862.78 796.86,954.17 809.31,1009.32 " fill="none" id="Administrator-to-Employee" style="stroke:#A80036;stroke-width:1.0;"/><polygon fill="none" points="816.14,1007.8,813.71,1028.85,802.48,1010.88,816.14,1007.8" style="stroke:#A80036;stroke-width:1.0;"/><!--MD5=[71da4be24892bfec694db06bf9e3c284]
link Company to Platform--><path codeLine="78" d="M389.13,617.13 C355.51,654.94 312.81,702.95 280.8,738.93 " fill="none" id="Company-Platform" style="stroke:#A80036;stroke-width:1.0;"/><polygon fill="#000000" points="340.1771,681.9119,348.3843,677.1064,343.9923,673.2001,340.1771,681.9119" style="stroke:#000000;stroke-width:1.0;"/><text fill="#000000" font-family="sans-serif" font-size="13" lengthAdjust="spacing" textLength="21" x="354.5" y="683.4951">has</text><text fill="#000000" font-family="sans-serif" font-size="13" lengthAdjust="spacing" textLength="7" x="373.5817" y="640.5344">1</text><text fill="#000000" font-family="sans-serif" font-size="13" lengthAdjust="spacing" textLength="7" x="277.2825" y="725.9637">1</text><!--MD5=[eaea43e34e45c5b9d20b595fc78f1f20]
link Company to Administrator--><path codeLine="79" d="M513.07,607.57 C578.86,656.35 674.88,727.53 725.8,765.27 " fill="none" id="Company-Administrator" style="stroke:#A80036;stroke-width:1.0;"/><polygon fill="#000000" points="629.5167,681.1534,624.0006,673.4059,620.5002,678.1278,629.5167,681.1534" style="stroke:#000000;stroke-width:1.0;"/><text fill="#000000" font-family="sans-serif" font-size="13" lengthAdjust="spacing" textLength="21" x="636.5" y="683.4951">has</text><text fill="#000000" font-family="sans-serif" font-size="13" lengthAdjust="spacing" textLength="7" x="522.8116" y="607.4741">1</text><text fill="#000000" font-family="sans-serif" font-size="13" lengthAdjust="spacing" textLength="5" x="710.225" y="752.8082">*</text><!--MD5=[eebe9b198877275d05dd12630ed9e401]
link Company to VaccinationCenter--><path codeLine="80" d="M454.95,617.13 C463.96,665.27 476.07,729.96 482.69,765.3 " fill="none" id="Company-VaccinationCenter" style="stroke:#A80036;stroke-width:1.0;"/><polygon fill="#000000" points="473.4201,683.0904,474.6444,673.659,468.8669,674.7406,473.4201,683.0904" style="stroke:#000000;stroke-width:1.0;"/><text fill="#000000" font-family="sans-serif" font-size="13" lengthAdjust="spacing" textLength="53" x="483.5" y="683.4951">manages</text><text fill="#000000" font-family="sans-serif" font-size="13" lengthAdjust="spacing" textLength="7" x="446.6008" y="640.5344">1</text><text fill="#000000" font-family="sans-serif" font-size="13" lengthAdjust="spacing" textLength="5" x="473.6534" y="752.8448">*</text><!--MD5=[759c7f6dbf62b13e16002bff783a0fa8]
link VaccinationCenter to Vaccine--><path codeLine="81" d="M487.5,818.55 C487.5,852.67 487.5,914.85 487.5,966.82 " fill="none" id="VaccinationCenter-Vaccine" style="stroke:#A80036;stroke-width:1.0;"/><polygon fill="#000000" points="492.5,911.1758,495.4389,902.1307,489.5611,902.1307,492.5,911.1758" style="stroke:#000000;stroke-width:1.0;"/><text fill="#000000" font-family="sans-serif" font-size="13" lengthAdjust="spacing" textLength="41" x="503.5" y="911.4951">applies</text><text fill="#000000" font-family="sans-serif" font-size="13" lengthAdjust="spacing" textLength="7" x="477.3656" y="841.6569">1</text><text fill="#000000" font-family="sans-serif" font-size="13" lengthAdjust="spacing" textLength="5" x="480.1273" y="954.1374">*</text><!--MD5=[a98252b7739f22b1ddec3651c1c3aaea]
link Vaccine to AdministrationProcess--><path codeLine="82" d="M501.35,1144 C507.43,1182.42 514.55,1227.42 520.63,1265.85 " fill="none" id="Vaccine-AdministrationProcess" style="stroke:#A80036;stroke-width:1.0;"/><polygon fill="#000000" points="517.2814,1210.1143,518.7706,1200.7211,512.965,1201.6397,517.2814,1210.1143" style="stroke:#000000;stroke-width:1.0;"/><text fill="#000000" font-family="sans-serif" font-size="13" lengthAdjust="spacing" textLength="21" x="527.5" y="1210.4951">has</text><text fill="#000000" font-family="sans-serif" font-size="13" lengthAdjust="spacing" textLength="7" x="493.0676" y="1167.9539">1</text><text fill="#000000" font-family="sans-serif" font-size="13" lengthAdjust="spacing" textLength="5" x="512.1087" y="1253.1698">*</text><!--MD5=[3568623adf67b2630dce9e60c05bd02a]
link Vaccine to VaccineType--><path codeLine="83" d="M356.68,1144.2 C305.61,1180.17 247.44,1223.34 197.5,1266 C184.8,1276.85 171.76,1289.22 159.76,1301.16 " fill="none" id="Vaccine-VaccineType" style="stroke:#A80036;stroke-width:1.0;"/><polygon fill="#000000" points="283.5901,1208.2923,292.495,1204.9527,288.8314,1200.3563,283.5901,1208.2923" style="stroke:#000000;stroke-width:1.0;"/><text fill="#000000" font-family="sans-serif" font-size="13" lengthAdjust="spacing" textLength="24" x="298.5" y="1210.4951">is of</text><text fill="#000000" font-family="sans-serif" font-size="13" lengthAdjust="spacing" textLength="5" x="338.4738" y="1167.8629">*</text><text fill="#000000" font-family="sans-serif" font-size="13" lengthAdjust="spacing" textLength="7" x="156.3668" y="1288.5527">1</text><!--MD5=[a5948f5a732c4b369826b8324ae8761e]
@startuml
'https://plantuml.com/sequence-diagram

skinparam classAttributeIconSize 0
skinparam padding 2
skinparam ranksep 100
skinparam classFontSize 18

class App{
-Company company
-AuthFacade authFacade
+getCompany()
+getInstance()
}
abstract class Employee
class Administrator
class Company{
-String designation
-AuthFacade authFacade
-Platform m_oPlatform
+getPlatform()
}
class Platform{
-String description
-RegisterVaccineType m_oRegisterVaccineType
+getRegisterVaccineType()
}
abstract class VaccinationCenter
class Vaccine{
-List<AdministrationProcess> listAdministrationProcess
-String id
-String name
+Vaccine(id, name)
+newAdministrationProcess(ageGroups, referenceDose, dosesToBeAdministered, timeInterval)
+validateAdministrationProcess(administrationProcess)
+addAdministrationProcess(administrationProcess)
}
class AdministrationProcess{
-List<Integer[]> ageGroups
-Double referenceDose
-Integer dosesToBeAdministered
-List<Integer[]> timeInterval
+AdministrationProcess(List<Integer[]> ageGroups,Double referenceDose,int dosesToBeAdministered,List<Integer[]> timeInterval)
+AdministrationProcess(List<Integer[]> ageGroups,Double referenceDose,int dosesToBeAdministered)
+toString()
}
class VaccineType{
code
designation
whold
}

class SpecifyNewVaccineUI
class SpecifyNewVaccineController{
-App app
-Vaccine vaccine
-List<AdministrationProcess> list
+SpecifyNewVaccineController()
+newVaccine(id, name)
+newAdministrationProcess(IntegerageGroups, dosesToBeAdministered, dosage, listTimeInterval)
+getVaccineInfo()
+addVaccine()
+getVaccineType()
+setVaccineType()
}

class RegisterVaccineType{
-List<Vaccine> listVaccineTypes
+getListVaccineType()
}

SpecifyNewVaccineUI ..> SpecifyNewVaccineController
SpecifyNewVaccineController ..> Company
SpecifyNewVaccineController ..> Platform
SpecifyNewVaccineController ..> App
Platform "1"- -"1" RegisterVaccineType : has >
RegisterVaccineType "1"- -"*" VaccineType : has >
Administrator - -|> Employee
Company "1"- -"1" Platform : has >
Company "1"- -"*" Administrator : has >
Company "1"- -"*" VaccinationCenter : manages >
VaccinationCenter "1"- -"*" Vaccine : applies >
Vaccine "1"- -"*" AdministrationProcess : has >
Vaccine "*"- -"1" VaccineType : is of >

@enduml

@startuml

skinparam classAttributeIconSize 0
skinparam padding 2
skinparam ranksep 100
skinparam classFontSize 18

class App{
-Company company
-AuthFacade authFacade
+getCompany()
+getInstance()
}
abstract class Employee
class Administrator
class Company{
-String designation
-AuthFacade authFacade
-Platform m_oPlatform
+getPlatform()
}
class Platform{
-String description
-RegisterVaccineType m_oRegisterVaccineType
+getRegisterVaccineType()
}
abstract class VaccinationCenter
class Vaccine{
-List<AdministrationProcess> listAdministrationProcess
-String id
-String name
+Vaccine(id, name)
+newAdministrationProcess(ageGroups, referenceDose, dosesToBeAdministered, timeInterval)
+validateAdministrationProcess(administrationProcess)
+addAdministrationProcess(administrationProcess)
}
class AdministrationProcess{
-List<Integer[]> ageGroups
-Double referenceDose
-Integer dosesToBeAdministered
-List<Integer[]> timeInterval
+AdministrationProcess(List<Integer[]> ageGroups,Double referenceDose,int dosesToBeAdministered,List<Integer[]> timeInterval)
+AdministrationProcess(List<Integer[]> ageGroups,Double referenceDose,int dosesToBeAdministered)
+toString()
}
class VaccineType{
code
designation
whold
}

class SpecifyNewVaccineUI
class SpecifyNewVaccineController{
-App app
-Vaccine vaccine
-List<AdministrationProcess> list
+SpecifyNewVaccineController()
+newVaccine(id, name)
+newAdministrationProcess(IntegerageGroups, dosesToBeAdministered, dosage, listTimeInterval)
+getVaccineInfo()
+addVaccine()
+getVaccineType()
+setVaccineType()
}

class RegisterVaccineType{
-List<Vaccine> listVaccineTypes
+getListVaccineType()
}

SpecifyNewVaccineUI ..> SpecifyNewVaccineController
SpecifyNewVaccineController ..> Company
SpecifyNewVaccineController ..> Platform
SpecifyNewVaccineController ..> App
Platform "1"- -"1" RegisterVaccineType : has >
RegisterVaccineType "1"- -"*" VaccineType : has >
Administrator - -|> Employee
Company "1"- -"1" Platform : has >
Company "1"- -"*" Administrator : has >
Company "1"- -"*" VaccinationCenter : manages >
VaccinationCenter "1"- -"*" Vaccine : applies >
Vaccine "1"- -"*" AdministrationProcess : has >
Vaccine "*"- -"1" VaccineType : is of >

@enduml

PlantUML version 1.2022.1(Tue Feb 01 18:19:58 GMT 2022)
(GPL source distribution)
Java Runtime: OpenJDK Runtime Environment
JVM: OpenJDK 64-Bit Server VM
Default Encoding: Cp1252
Language: pt
Country: PT
--></g></svg>