<?xml version="1.0" encoding="UTF-8" standalone="no"?><svg xmlns="http://www.w3.org/2000/svg" xmlns:xlink="http://www.w3.org/1999/xlink" contentStyleType="text/css" height="3074px" preserveAspectRatio="none" style="width:891px;height:3074px;background:#FFFFFF;" version="1.1" viewBox="0 0 891 3074" width="891px" zoomAndPan="magnify"><defs/><g><!--MD5=[240f556f1dc864d7752b260fd521f2fb]
class AdministerVaccineUI--><g id="elem_AdministerVaccineUI"><rect codeLine="8" fill="#F1F1F1" height="52.6406" id="AdministerVaccineUI" rx="2.5" ry="2.5" style="stroke:#181818;stroke-width:0.5;" width="199" x="248.5" y="7"/><ellipse cx="263.5" cy="25.3203" fill="#ADD1B2" rx="11" ry="11" style="stroke:#181818;stroke-width:1.0;"/><path d="M265.5,21.8203 Q265.7031,21.3203 265.9375,21.0703 Q266.1719,20.8203 266.4375,20.8203 Q266.9063,20.8203 267.2031,21.1016 Q267.5,21.3828 267.5,22.0391 L267.5,23.6016 Q267.5,24.2578 267.2188,24.5391 Q266.9375,24.8203 266.5,24.8203 Q266.1094,24.8203 265.8594,24.6484 Q265.6094,24.4766 265.5,24.0234 Q265.4531,23.7109 265.2813,23.5391 Q264.9688,23.2109 264.4063,23.0234 Q263.8438,22.8203 263.2813,22.8203 Q262.5781,22.8203 261.9844,23.1016 Q261.4063,23.3828 260.9531,24.0078 Q260.5,24.6328 260.5,25.4922 L260.5,26.4141 Q260.5,27.4453 261.3438,28.1328 Q262.1875,28.8203 263.6875,28.8203 Q264.5781,28.8203 265.2031,28.6172 Q265.5625,28.5078 265.9688,28.1484 Q266.2344,27.9453 266.375,27.8828 Q266.5156,27.8203 266.6875,27.8203 Q267.0156,27.8203 267.25,28.0859 Q267.5,28.3359 267.5,28.6953 Q267.5,29.0391 267.1563,29.4453 Q266.6563,30.0391 265.8594,30.3672 Q264.8125,30.8203 263.5313,30.8203 Q262.0313,30.8203 260.8281,30.2266 Q259.8594,29.7578 259.1719,28.7422 Q258.5,27.7266 258.5,26.5234 L258.5,25.4297 Q258.5,24.1797 259.0938,23.0859 Q259.7031,21.9922 260.75,21.4141 Q261.8125,20.8203 263,20.8203 Q263.7188,20.8203 264.3438,21.0703 Q264.9688,21.3203 265.5,21.8203 Z " fill="#000000"/><text fill="#000000" font-family="sans-serif" font-size="18" lengthAdjust="spacing" textLength="163" x="279.5" y="32.6855">AdministerVaccineUI</text><line style="stroke:#181818;stroke-width:0.5;" x1="249.5" x2="446.5" y1="43.6406" y2="43.6406"/><line style="stroke:#181818;stroke-width:0.5;" x1="249.5" x2="446.5" y1="51.6406" y2="51.6406"/></g><!--MD5=[f36d9e12e522b31e7ae4592ab29db6c3]
class AdministerVaccineController--><g id="elem_AdministerVaccineController"><rect codeLine="10" fill="#F1F1F1" height="292.4063" id="AdministerVaccineController" rx="2.5" ry="2.5" style="stroke:#181818;stroke-width:0.5;" width="304" x="196" y="161"/><ellipse cx="230.8" cy="179.3203" fill="#ADD1B2" rx="11" ry="11" style="stroke:#181818;stroke-width:1.0;"/><path d="M232.8,175.8203 Q233.0031,175.3203 233.2375,175.0703 Q233.4719,174.8203 233.7375,174.8203 Q234.2063,174.8203 234.5031,175.1016 Q234.8,175.3828 234.8,176.0391 L234.8,177.6016 Q234.8,178.2578 234.5188,178.5391 Q234.2375,178.8203 233.8,178.8203 Q233.4094,178.8203 233.1594,178.6484 Q232.9094,178.4766 232.8,178.0234 Q232.7531,177.7109 232.5813,177.5391 Q232.2688,177.2109 231.7063,177.0234 Q231.1438,176.8203 230.5813,176.8203 Q229.8781,176.8203 229.2844,177.1016 Q228.7063,177.3828 228.2531,178.0078 Q227.8,178.6328 227.8,179.4922 L227.8,180.4141 Q227.8,181.4453 228.6438,182.1328 Q229.4875,182.8203 230.9875,182.8203 Q231.8781,182.8203 232.5031,182.6172 Q232.8625,182.5078 233.2688,182.1484 Q233.5344,181.9453 233.675,181.8828 Q233.8156,181.8203 233.9875,181.8203 Q234.3156,181.8203 234.55,182.0859 Q234.8,182.3359 234.8,182.6953 Q234.8,183.0391 234.4563,183.4453 Q233.9563,184.0391 233.1594,184.3672 Q232.1125,184.8203 230.8313,184.8203 Q229.3313,184.8203 228.1281,184.2266 Q227.1594,183.7578 226.4719,182.7422 Q225.8,181.7266 225.8,180.5234 L225.8,179.4297 Q225.8,178.1797 226.3938,177.0859 Q227.0031,175.9922 228.05,175.4141 Q229.1125,174.8203 230.3,174.8203 Q231.0188,174.8203 231.6438,175.0703 Q232.2688,175.3203 232.8,175.8203 Z " fill="#000000"/><text fill="#000000" font-family="sans-serif" font-size="18" lengthAdjust="spacing" textLength="224" x="251.2" y="186.6855">AdministerVaccineController</text><line style="stroke:#181818;stroke-width:0.5;" x1="197" x2="499" y1="197.6406" y2="197.6406"/><text fill="#000000" font-family="sans-serif" font-size="18" lengthAdjust="spacing" textLength="107" x="204" y="222.3262">-App m_oApp</text><line style="stroke:#181818;stroke-width:0.5;" x1="197" x2="499" y1="232.2813" y2="232.2813"/><text fill="#000000" font-family="sans-serif" font-size="18" lengthAdjust="spacing" textLength="187" x="204" y="256.9668">+validateUserSession()</text><text fill="#000000" font-family="sans-serif" font-size="18" lengthAdjust="spacing" textLength="249" x="204" y="283.6074">+getListOfWaitingRoomUsers()</text><text fill="#000000" font-family="sans-serif" font-size="18" lengthAdjust="spacing" textLength="192" x="204" y="310.248">+getAvaliableVaccines()</text><text fill="#000000" font-family="sans-serif" font-size="18" lengthAdjust="spacing" textLength="288" x="204" y="336.8887">+getVaccineAdministrationProcess()</text><text fill="#000000" font-family="sans-serif" font-size="18" lengthAdjust="spacing" textLength="174" x="204" y="363.5293">+getAdverReactions()</text><text fill="#000000" font-family="sans-serif" font-size="18" lengthAdjust="spacing" textLength="119" x="204" y="390.1699">+getDosages()</text><text fill="#000000" font-family="sans-serif" font-size="18" lengthAdjust="spacing" textLength="248" x="204" y="416.8105">+createVaccineAdministration()</text><text fill="#000000" font-family="sans-serif" font-size="18" lengthAdjust="spacing" textLength="258" x="204" y="443.4512">+registerVaccineAdministration()</text></g><!--MD5=[335f4d9be48430461c68bf6d6fdba145]
class App--><g id="elem_App"><rect codeLine="22" fill="#F1F1F1" height="159.2031" id="App" rx="2.5" ry="2.5" style="stroke:#181818;stroke-width:0.5;" width="226" x="7" y="554"/><ellipse cx="98.25" cy="572.3203" fill="#ADD1B2" rx="11" ry="11" style="stroke:#181818;stroke-width:1.0;"/><path d="M100.25,568.8203 Q100.4531,568.3203 100.6875,568.0703 Q100.9219,567.8203 101.1875,567.8203 Q101.6563,567.8203 101.9531,568.1016 Q102.25,568.3828 102.25,569.0391 L102.25,570.6016 Q102.25,571.2578 101.9688,571.5391 Q101.6875,571.8203 101.25,571.8203 Q100.8594,571.8203 100.6094,571.6484 Q100.3594,571.4766 100.25,571.0234 Q100.2031,570.7109 100.0313,570.5391 Q99.7188,570.2109 99.1563,570.0234 Q98.5938,569.8203 98.0313,569.8203 Q97.3281,569.8203 96.7344,570.1016 Q96.1563,570.3828 95.7031,571.0078 Q95.25,571.6328 95.25,572.4922 L95.25,573.4141 Q95.25,574.4453 96.0938,575.1328 Q96.9375,575.8203 98.4375,575.8203 Q99.3281,575.8203 99.9531,575.6172 Q100.3125,575.5078 100.7188,575.1484 Q100.9844,574.9453 101.125,574.8828 Q101.2656,574.8203 101.4375,574.8203 Q101.7656,574.8203 102,575.0859 Q102.25,575.3359 102.25,575.6953 Q102.25,576.0391 101.9063,576.4453 Q101.4063,577.0391 100.6094,577.3672 Q99.5625,577.8203 98.2813,577.8203 Q96.7813,577.8203 95.5781,577.2266 Q94.6094,576.7578 93.9219,575.7422 Q93.25,574.7266 93.25,573.5234 L93.25,572.4297 Q93.25,571.1797 93.8438,570.0859 Q94.4531,568.9922 95.5,568.4141 Q96.5625,567.8203 97.75,567.8203 Q98.4688,567.8203 99.0938,568.0703 Q99.7188,568.3203 100.25,568.8203 Z " fill="#000000"/><text fill="#000000" font-family="sans-serif" font-size="18" lengthAdjust="spacing" textLength="31" x="120.75" y="579.6855">App</text><line style="stroke:#181818;stroke-width:0.5;" x1="8" x2="232" y1="590.6406" y2="590.6406"/><line style="stroke:#181818;stroke-width:0.5;" x1="8" x2="232" y1="598.6406" y2="598.6406"/><text fill="#000000" font-family="sans-serif" font-size="18" lengthAdjust="spacing" textLength="124" x="15" y="623.3262">+getCompany()</text><text fill="#000000" font-family="sans-serif" font-size="18" lengthAdjust="spacing" textLength="210" x="15" y="649.9668">+getCurrentUserSession()</text><text fill="#000000" font-family="sans-serif" font-size="18" lengthAdjust="spacing" text-decoration="underline" textLength="162" x="15" y="676.6074">+static getInstance()</text><text fill="#000000" font-family="sans-serif" font-size="18" lengthAdjust="spacing" textLength="93" x="15" y="703.248">-bootstrap()</text></g><!--MD5=[02e4b9b7573f1156f41e60aa5b4e25a4]
class Company--><g id="elem_Company"><rect codeLine="29" fill="#F1F1F1" height="132.5625" id="Company" rx="2.5" ry="2.5" style="stroke:#181818;stroke-width:0.5;" width="160" x="268" y="567"/><ellipse cx="304.6" cy="585.3203" fill="#ADD1B2" rx="11" ry="11" style="stroke:#181818;stroke-width:1.0;"/><path d="M306.6,581.8203 Q306.8031,581.3203 307.0375,581.0703 Q307.2719,580.8203 307.5375,580.8203 Q308.0063,580.8203 308.3031,581.1016 Q308.6,581.3828 308.6,582.0391 L308.6,583.6016 Q308.6,584.2578 308.3188,584.5391 Q308.0375,584.8203 307.6,584.8203 Q307.2094,584.8203 306.9594,584.6484 Q306.7094,584.4766 306.6,584.0234 Q306.5531,583.7109 306.3813,583.5391 Q306.0688,583.2109 305.5063,583.0234 Q304.9438,582.8203 304.3813,582.8203 Q303.6781,582.8203 303.0844,583.1016 Q302.5063,583.3828 302.0531,584.0078 Q301.6,584.6328 301.6,585.4922 L301.6,586.4141 Q301.6,587.4453 302.4438,588.1328 Q303.2875,588.8203 304.7875,588.8203 Q305.6781,588.8203 306.3031,588.6172 Q306.6625,588.5078 307.0688,588.1484 Q307.3344,587.9453 307.475,587.8828 Q307.6156,587.8203 307.7875,587.8203 Q308.1156,587.8203 308.35,588.0859 Q308.6,588.3359 308.6,588.6953 Q308.6,589.0391 308.2563,589.4453 Q307.7563,590.0391 306.9594,590.3672 Q305.9125,590.8203 304.6313,590.8203 Q303.1313,590.8203 301.9281,590.2266 Q300.9594,589.7578 300.2719,588.7422 Q299.6,587.7266 299.6,586.5234 L299.6,585.4297 Q299.6,584.1797 300.1938,583.0859 Q300.8031,581.9922 301.85,581.4141 Q302.9125,580.8203 304.1,580.8203 Q304.8188,580.8203 305.4438,581.0703 Q306.0688,581.3203 306.6,581.8203 Z " fill="#000000"/><text fill="#000000" font-family="sans-serif" font-size="18" lengthAdjust="spacing" textLength="76" x="325.4" y="592.6855">Company</text><line style="stroke:#181818;stroke-width:0.5;" x1="269" x2="427" y1="603.6406" y2="603.6406"/><text fill="#000000" font-family="sans-serif" font-size="18" lengthAdjust="spacing" textLength="98" x="276" y="628.3262">-designation</text><line style="stroke:#181818;stroke-width:0.5;" x1="269" x2="427" y1="638.2813" y2="638.2813"/><text fill="#000000" font-family="sans-serif" font-size="18" lengthAdjust="spacing" textLength="114" x="276" y="662.9668">+getPlatform()</text><text fill="#000000" font-family="sans-serif" font-size="18" lengthAdjust="spacing" textLength="144" x="276" y="689.6074">+getAuthFacade()</text></g><!--MD5=[99b8db98afdc2c8404e39242ef4c1e65]
class Platform--><g id="elem_Platform"><rect codeLine="35" fill="#F1F1F1" height="132.5625" id="Platform" rx="2.5" ry="2.5" style="stroke:#181818;stroke-width:0.5;" width="353" x="463.5" y="567"/><ellipse cx="600.75" cy="585.3203" fill="#ADD1B2" rx="11" ry="11" style="stroke:#181818;stroke-width:1.0;"/><path d="M602.75,581.8203 Q602.9531,581.3203 603.1875,581.0703 Q603.4219,580.8203 603.6875,580.8203 Q604.1563,580.8203 604.4531,581.1016 Q604.75,581.3828 604.75,582.0391 L604.75,583.6016 Q604.75,584.2578 604.4688,584.5391 Q604.1875,584.8203 603.75,584.8203 Q603.3594,584.8203 603.1094,584.6484 Q602.8594,584.4766 602.75,584.0234 Q602.7031,583.7109 602.5313,583.5391 Q602.2188,583.2109 601.6563,583.0234 Q601.0938,582.8203 600.5313,582.8203 Q599.8281,582.8203 599.2344,583.1016 Q598.6563,583.3828 598.2031,584.0078 Q597.75,584.6328 597.75,585.4922 L597.75,586.4141 Q597.75,587.4453 598.5938,588.1328 Q599.4375,588.8203 600.9375,588.8203 Q601.8281,588.8203 602.4531,588.6172 Q602.8125,588.5078 603.2188,588.1484 Q603.4844,587.9453 603.625,587.8828 Q603.7656,587.8203 603.9375,587.8203 Q604.2656,587.8203 604.5,588.0859 Q604.75,588.3359 604.75,588.6953 Q604.75,589.0391 604.4063,589.4453 Q603.9063,590.0391 603.1094,590.3672 Q602.0625,590.8203 600.7813,590.8203 Q599.2813,590.8203 598.0781,590.2266 Q597.1094,589.7578 596.4219,588.7422 Q595.75,587.7266 595.75,586.5234 L595.75,585.4297 Q595.75,584.1797 596.3438,583.0859 Q596.9531,581.9922 598,581.4141 Q599.0625,580.8203 600.25,580.8203 Q600.9688,580.8203 601.5938,581.0703 Q602.2188,581.3203 602.75,581.8203 Z " fill="#000000"/><text fill="#000000" font-family="sans-serif" font-size="18" lengthAdjust="spacing" textLength="66" x="623.25" y="592.6855">Platform</text><line style="stroke:#181818;stroke-width:0.5;" x1="464.5" x2="815.5" y1="603.6406" y2="603.6406"/><text fill="#000000" font-family="sans-serif" font-size="18" lengthAdjust="spacing" textLength="93" x="471.5" y="628.3262">-description</text><text fill="#000000" font-family="sans-serif" font-size="18" lengthAdjust="spacing" textLength="337" x="471.5" y="654.9668">-RegisterEmployee m_oRegisterEmployee</text><line style="stroke:#181818;stroke-width:0.5;" x1="464.5" x2="815.5" y1="664.9219" y2="664.9219"/><text fill="#000000" font-family="sans-serif" font-size="18" lengthAdjust="spacing" textLength="194" x="471.5" y="689.6074">+getRegisterEmployee()</text></g><!--MD5=[8ae808d068a8995f06b9b3ec51357f0b]
class AuthFacade--><g id="elem_AuthFacade"><rect codeLine="41" fill="#F1F1F1" height="79.2813" id="AuthFacade" rx="2.5" ry="2.5" style="stroke:#181818;stroke-width:0.5;" width="226" x="98" y="848.5"/><ellipse cx="156.75" cy="866.8203" fill="#ADD1B2" rx="11" ry="11" style="stroke:#181818;stroke-width:1.0;"/><path d="M158.75,863.3203 Q158.9531,862.8203 159.1875,862.5703 Q159.4219,862.3203 159.6875,862.3203 Q160.1563,862.3203 160.4531,862.6016 Q160.75,862.8828 160.75,863.5391 L160.75,865.1016 Q160.75,865.7578 160.4688,866.0391 Q160.1875,866.3203 159.75,866.3203 Q159.3594,866.3203 159.1094,866.1484 Q158.8594,865.9766 158.75,865.5234 Q158.7031,865.2109 158.5313,865.0391 Q158.2188,864.7109 157.6563,864.5234 Q157.0938,864.3203 156.5313,864.3203 Q155.8281,864.3203 155.2344,864.6016 Q154.6563,864.8828 154.2031,865.5078 Q153.75,866.1328 153.75,866.9922 L153.75,867.9141 Q153.75,868.9453 154.5938,869.6328 Q155.4375,870.3203 156.9375,870.3203 Q157.8281,870.3203 158.4531,870.1172 Q158.8125,870.0078 159.2188,869.6484 Q159.4844,869.4453 159.625,869.3828 Q159.7656,869.3203 159.9375,869.3203 Q160.2656,869.3203 160.5,869.5859 Q160.75,869.8359 160.75,870.1953 Q160.75,870.5391 160.4063,870.9453 Q159.9063,871.5391 159.1094,871.8672 Q158.0625,872.3203 156.7813,872.3203 Q155.2813,872.3203 154.0781,871.7266 Q153.1094,871.2578 152.4219,870.2422 Q151.75,869.2266 151.75,868.0234 L151.75,866.9297 Q151.75,865.6797 152.3438,864.5859 Q152.9531,863.4922 154,862.9141 Q155.0625,862.3203 156.25,862.3203 Q156.9688,862.3203 157.5938,862.5703 Q158.2188,862.8203 158.75,863.3203 Z " fill="#000000"/><text fill="#000000" font-family="sans-serif" font-size="18" lengthAdjust="spacing" textLength="96" x="179.25" y="874.1855">AuthFacade</text><line style="stroke:#181818;stroke-width:0.5;" x1="99" x2="323" y1="885.1406" y2="885.1406"/><line style="stroke:#181818;stroke-width:0.5;" x1="99" x2="323" y1="893.1406" y2="893.1406"/><text fill="#000000" font-family="sans-serif" font-size="18" lengthAdjust="spacing" textLength="210" x="106" y="917.8262">+getCurrentUserSession()</text></g><!--MD5=[1607d1a70f046fb6f069cf8c3b040e6d]
class RegisterEmployee--><g id="elem_RegisterEmployee"><rect codeLine="46" fill="#F1F1F1" height="105.9219" id="RegisterEmployee" rx="2.5" ry="2.5" style="stroke:#181818;stroke-width:0.5;" width="276" x="502" y="835"/><ellipse cx="560.75" cy="853.3203" fill="#ADD1B2" rx="11" ry="11" style="stroke:#181818;stroke-width:1.0;"/><path d="M562.75,849.8203 Q562.9531,849.3203 563.1875,849.0703 Q563.4219,848.8203 563.6875,848.8203 Q564.1563,848.8203 564.4531,849.1016 Q564.75,849.3828 564.75,850.0391 L564.75,851.6016 Q564.75,852.2578 564.4688,852.5391 Q564.1875,852.8203 563.75,852.8203 Q563.3594,852.8203 563.1094,852.6484 Q562.8594,852.4766 562.75,852.0234 Q562.7031,851.7109 562.5313,851.5391 Q562.2188,851.2109 561.6563,851.0234 Q561.0938,850.8203 560.5313,850.8203 Q559.8281,850.8203 559.2344,851.1016 Q558.6563,851.3828 558.2031,852.0078 Q557.75,852.6328 557.75,853.4922 L557.75,854.4141 Q557.75,855.4453 558.5938,856.1328 Q559.4375,856.8203 560.9375,856.8203 Q561.8281,856.8203 562.4531,856.6172 Q562.8125,856.5078 563.2188,856.1484 Q563.4844,855.9453 563.625,855.8828 Q563.7656,855.8203 563.9375,855.8203 Q564.2656,855.8203 564.5,856.0859 Q564.75,856.3359 564.75,856.6953 Q564.75,857.0391 564.4063,857.4453 Q563.9063,858.0391 563.1094,858.3672 Q562.0625,858.8203 560.7813,858.8203 Q559.2813,858.8203 558.0781,858.2266 Q557.1094,857.7578 556.4219,856.7422 Q555.75,855.7266 555.75,854.5234 L555.75,853.4297 Q555.75,852.1797 556.3438,851.0859 Q556.9531,849.9922 558,849.4141 Q559.0625,848.8203 560.25,848.8203 Q560.9688,848.8203 561.5938,849.0703 Q562.2188,849.3203 562.75,849.8203 Z " fill="#000000"/><text fill="#000000" font-family="sans-serif" font-size="18" lengthAdjust="spacing" textLength="146" x="583.25" y="860.6855">RegisterEmployee</text><line style="stroke:#181818;stroke-width:0.5;" x1="503" x2="777" y1="871.6406" y2="871.6406"/><text fill="#000000" font-family="sans-serif" font-size="18" lengthAdjust="spacing" textLength="241" x="510" y="896.3262">-List&lt;Employee&gt; listEmployee</text><line style="stroke:#181818;stroke-width:0.5;" x1="503" x2="777" y1="906.2813" y2="906.2813"/><text fill="#000000" font-family="sans-serif" font-size="18" lengthAdjust="spacing" textLength="260" x="510" y="930.9668">+getWorkingVaccinationCenter()</text></g><!--MD5=[7421f545a0d8420c5bec41e74b387d9c]
class Employee--><g id="elem_Employee"><rect codeLine="51" fill="#F1F1F1" height="105.9219" id="Employee" rx="2.5" ry="2.5" style="stroke:#181818;stroke-width:0.5;" width="317" x="481.5" y="1063"/><ellipse cx="594.25" cy="1081.3203" fill="#ADD1B2" rx="11" ry="11" style="stroke:#181818;stroke-width:1.0;"/><path d="M596.25,1077.8203 Q596.4531,1077.3203 596.6875,1077.0703 Q596.9219,1076.8203 597.1875,1076.8203 Q597.6563,1076.8203 597.9531,1077.1016 Q598.25,1077.3828 598.25,1078.0391 L598.25,1079.6016 Q598.25,1080.2578 597.9688,1080.5391 Q597.6875,1080.8203 597.25,1080.8203 Q596.8594,1080.8203 596.6094,1080.6484 Q596.3594,1080.4766 596.25,1080.0234 Q596.2031,1079.7109 596.0313,1079.5391 Q595.7188,1079.2109 595.1563,1079.0234 Q594.5938,1078.8203 594.0313,1078.8203 Q593.3281,1078.8203 592.7344,1079.1016 Q592.1563,1079.3828 591.7031,1080.0078 Q591.25,1080.6328 591.25,1081.4922 L591.25,1082.4141 Q591.25,1083.4453 592.0938,1084.1328 Q592.9375,1084.8203 594.4375,1084.8203 Q595.3281,1084.8203 595.9531,1084.6172 Q596.3125,1084.5078 596.7188,1084.1484 Q596.9844,1083.9453 597.125,1083.8828 Q597.2656,1083.8203 597.4375,1083.8203 Q597.7656,1083.8203 598,1084.0859 Q598.25,1084.3359 598.25,1084.6953 Q598.25,1085.0391 597.9063,1085.4453 Q597.4063,1086.0391 596.6094,1086.3672 Q595.5625,1086.8203 594.2813,1086.8203 Q592.7813,1086.8203 591.5781,1086.2266 Q590.6094,1085.7578 589.9219,1084.7422 Q589.25,1083.7266 589.25,1082.5234 L589.25,1081.4297 Q589.25,1080.1797 589.8438,1079.0859 Q590.4531,1077.9922 591.5,1077.4141 Q592.5625,1076.8203 593.75,1076.8203 Q594.4688,1076.8203 595.0938,1077.0703 Q595.7188,1077.3203 596.25,1077.8203 Z " fill="#000000"/><text fill="#000000" font-family="sans-serif" font-size="18" lengthAdjust="spacing" textLength="79" x="616.75" y="1088.6855">Employee</text><line style="stroke:#181818;stroke-width:0.5;" x1="482.5" x2="797.5" y1="1099.6406" y2="1099.6406"/><text fill="#000000" font-family="sans-serif" font-size="18" lengthAdjust="spacing" textLength="301" x="489.5" y="1124.3262">-VaccinationCenter vaccinationCenter</text><line style="stroke:#181818;stroke-width:0.5;" x1="482.5" x2="797.5" y1="1134.2813" y2="1134.2813"/><text fill="#000000" font-family="sans-serif" font-size="18" lengthAdjust="spacing" textLength="260" x="489.5" y="1158.9668">+getWorkingVaccinationCenter()</text></g><!--MD5=[de60e6d4f424ae4d0522096f76a59010]
class VaccinationCenter--><g id="elem_VaccinationCenter"><rect codeLine="56" fill="#F1F1F1" height="212.4844" id="VaccinationCenter" rx="2.5" ry="2.5" style="stroke:#181818;stroke-width:0.5;" width="281" x="499.5" y="1291"/><ellipse cx="560.75" cy="1309.3203" fill="#ADD1B2" rx="11" ry="11" style="stroke:#181818;stroke-width:1.0;"/><path d="M562.75,1305.8203 Q562.9531,1305.3203 563.1875,1305.0703 Q563.4219,1304.8203 563.6875,1304.8203 Q564.1563,1304.8203 564.4531,1305.1016 Q564.75,1305.3828 564.75,1306.0391 L564.75,1307.6016 Q564.75,1308.2578 564.4688,1308.5391 Q564.1875,1308.8203 563.75,1308.8203 Q563.3594,1308.8203 563.1094,1308.6484 Q562.8594,1308.4766 562.75,1308.0234 Q562.7031,1307.7109 562.5313,1307.5391 Q562.2188,1307.2109 561.6563,1307.0234 Q561.0938,1306.8203 560.5313,1306.8203 Q559.8281,1306.8203 559.2344,1307.1016 Q558.6563,1307.3828 558.2031,1308.0078 Q557.75,1308.6328 557.75,1309.4922 L557.75,1310.4141 Q557.75,1311.4453 558.5938,1312.1328 Q559.4375,1312.8203 560.9375,1312.8203 Q561.8281,1312.8203 562.4531,1312.6172 Q562.8125,1312.5078 563.2188,1312.1484 Q563.4844,1311.9453 563.625,1311.8828 Q563.7656,1311.8203 563.9375,1311.8203 Q564.2656,1311.8203 564.5,1312.0859 Q564.75,1312.3359 564.75,1312.6953 Q564.75,1313.0391 564.4063,1313.4453 Q563.9063,1314.0391 563.1094,1314.3672 Q562.0625,1314.8203 560.7813,1314.8203 Q559.2813,1314.8203 558.0781,1314.2266 Q557.1094,1313.7578 556.4219,1312.7422 Q555.75,1311.7266 555.75,1310.5234 L555.75,1309.4297 Q555.75,1308.1797 556.3438,1307.0859 Q556.9531,1305.9922 558,1305.4141 Q559.0625,1304.8203 560.25,1304.8203 Q560.9688,1304.8203 561.5938,1305.0703 Q562.2188,1305.3203 562.75,1305.8203 Z " fill="#000000"/><text fill="#000000" font-family="sans-serif" font-size="18" lengthAdjust="spacing" textLength="146" x="583.25" y="1316.6855">VaccinationCenter</text><line style="stroke:#181818;stroke-width:0.5;" x1="500.5" x2="779.5" y1="1327.6406" y2="1327.6406"/><text fill="#000000" font-family="sans-serif" font-size="18" lengthAdjust="spacing" textLength="221" x="507.5" y="1352.3262">-WaitingRoom waitingRoom</text><line style="stroke:#181818;stroke-width:0.5;" x1="500.5" x2="779.5" y1="1362.2813" y2="1362.2813"/><text fill="#000000" font-family="sans-serif" font-size="18" lengthAdjust="spacing" textLength="239" x="507.5" y="1386.9668">+getWaitingRoomSNSUsers()</text><text fill="#000000" font-family="sans-serif" font-size="18" lengthAdjust="spacing" textLength="265" x="507.5" y="1413.6074">+getVaccineScheduleFromUser()</text><text fill="#000000" font-family="sans-serif" font-size="18" lengthAdjust="spacing" textLength="192" x="507.5" y="1440.248">+getAvaliableVaccines()</text><text fill="#000000" font-family="sans-serif" font-size="18" lengthAdjust="spacing" textLength="248" x="507.5" y="1466.8887">+createVaccineAdministration()</text><text fill="#000000" font-family="sans-serif" font-size="18" lengthAdjust="spacing" textLength="258" x="507.5" y="1493.5293">+registerVaccineAdministration()</text></g><!--MD5=[aaa7e27c4ec43917c82a021675d2c87a]
class WaitingRoom--><g id="elem_WaitingRoom"><rect codeLine="65" fill="#F1F1F1" height="105.9219" id="WaitingRoom" rx="2.5" ry="2.5" style="stroke:#181818;stroke-width:0.5;" width="281" x="394.5" y="1625"/><ellipse cx="475.25" cy="1643.3203" fill="#ADD1B2" rx="11" ry="11" style="stroke:#181818;stroke-width:1.0;"/><path d="M477.25,1639.8203 Q477.4531,1639.3203 477.6875,1639.0703 Q477.9219,1638.8203 478.1875,1638.8203 Q478.6563,1638.8203 478.9531,1639.1016 Q479.25,1639.3828 479.25,1640.0391 L479.25,1641.6016 Q479.25,1642.2578 478.9688,1642.5391 Q478.6875,1642.8203 478.25,1642.8203 Q477.8594,1642.8203 477.6094,1642.6484 Q477.3594,1642.4766 477.25,1642.0234 Q477.2031,1641.7109 477.0313,1641.5391 Q476.7188,1641.2109 476.1563,1641.0234 Q475.5938,1640.8203 475.0313,1640.8203 Q474.3281,1640.8203 473.7344,1641.1016 Q473.1563,1641.3828 472.7031,1642.0078 Q472.25,1642.6328 472.25,1643.4922 L472.25,1644.4141 Q472.25,1645.4453 473.0938,1646.1328 Q473.9375,1646.8203 475.4375,1646.8203 Q476.3281,1646.8203 476.9531,1646.6172 Q477.3125,1646.5078 477.7188,1646.1484 Q477.9844,1645.9453 478.125,1645.8828 Q478.2656,1645.8203 478.4375,1645.8203 Q478.7656,1645.8203 479,1646.0859 Q479.25,1646.3359 479.25,1646.6953 Q479.25,1647.0391 478.9063,1647.4453 Q478.4063,1648.0391 477.6094,1648.3672 Q476.5625,1648.8203 475.2813,1648.8203 Q473.7813,1648.8203 472.5781,1648.2266 Q471.6094,1647.7578 470.9219,1646.7422 Q470.25,1645.7266 470.25,1644.5234 L470.25,1643.4297 Q470.25,1642.1797 470.8438,1641.0859 Q471.4531,1639.9922 472.5,1639.4141 Q473.5625,1638.8203 474.75,1638.8203 Q475.4688,1638.8203 476.0938,1639.0703 Q476.7188,1639.3203 477.25,1639.8203 Z " fill="#000000"/><text fill="#000000" font-family="sans-serif" font-size="18" lengthAdjust="spacing" textLength="107" x="497.75" y="1650.6855">WaitingRoom</text><line style="stroke:#181818;stroke-width:0.5;" x1="395.5" x2="674.5" y1="1661.6406" y2="1661.6406"/><text fill="#000000" font-family="sans-serif" font-size="18" lengthAdjust="spacing" textLength="258" x="402.5" y="1686.3262">-TreeMap&lt;SNSUser,Date&gt; map</text><line style="stroke:#181818;stroke-width:0.5;" x1="395.5" x2="674.5" y1="1696.2813" y2="1696.2813"/><text fill="#000000" font-family="sans-serif" font-size="18" lengthAdjust="spacing" textLength="265" x="402.5" y="1720.9668">+getVaccineScheduleFromUser()</text></g><!--MD5=[19e445fc4d3b48519cbe33da05496394]
class Vaccine--><g id="elem_Vaccine"><rect codeLine="70" fill="#F1F1F1" height="159.2031" id="Vaccine" rx="2.5" ry="2.5" style="stroke:#181818;stroke-width:0.5;" width="453" x="431.5" y="2681"/><ellipse cx="620.25" cy="2699.3203" fill="#ADD1B2" rx="11" ry="11" style="stroke:#181818;stroke-width:1.0;"/><path d="M622.25,2695.8203 Q622.4531,2695.3203 622.6875,2695.0703 Q622.9219,2694.8203 623.1875,2694.8203 Q623.6563,2694.8203 623.9531,2695.1016 Q624.25,2695.3828 624.25,2696.0391 L624.25,2697.6016 Q624.25,2698.2578 623.9688,2698.5391 Q623.6875,2698.8203 623.25,2698.8203 Q622.8594,2698.8203 622.6094,2698.6484 Q622.3594,2698.4766 622.25,2698.0234 Q622.2031,2697.7109 622.0313,2697.5391 Q621.7188,2697.2109 621.1563,2697.0234 Q620.5938,2696.8203 620.0313,2696.8203 Q619.3281,2696.8203 618.7344,2697.1016 Q618.1563,2697.3828 617.7031,2698.0078 Q617.25,2698.6328 617.25,2699.4922 L617.25,2700.4141 Q617.25,2701.4453 618.0938,2702.1328 Q618.9375,2702.8203 620.4375,2702.8203 Q621.3281,2702.8203 621.9531,2702.6172 Q622.3125,2702.5078 622.7188,2702.1484 Q622.9844,2701.9453 623.125,2701.8828 Q623.2656,2701.8203 623.4375,2701.8203 Q623.7656,2701.8203 624,2702.0859 Q624.25,2702.3359 624.25,2702.6953 Q624.25,2703.0391 623.9063,2703.4453 Q623.4063,2704.0391 622.6094,2704.3672 Q621.5625,2704.8203 620.2813,2704.8203 Q618.7813,2704.8203 617.5781,2704.2266 Q616.6094,2703.7578 615.9219,2702.7422 Q615.25,2701.7266 615.25,2700.5234 L615.25,2699.4297 Q615.25,2698.1797 615.8438,2697.0859 Q616.4531,2695.9922 617.5,2695.4141 Q618.5625,2694.8203 619.75,2694.8203 Q620.4688,2694.8203 621.0938,2695.0703 Q621.7188,2695.3203 622.25,2695.8203 Z " fill="#000000"/><text fill="#000000" font-family="sans-serif" font-size="18" lengthAdjust="spacing" textLength="63" x="642.75" y="2706.6855">Vaccine</text><line style="stroke:#181818;stroke-width:0.5;" x1="432.5" x2="883.5" y1="2717.6406" y2="2717.6406"/><text fill="#000000" font-family="sans-serif" font-size="18" lengthAdjust="spacing" textLength="437" x="439.5" y="2742.3262">-List&lt;AdministrationProcess&gt; listAdministrationProcess</text><text fill="#000000" font-family="sans-serif" font-size="18" lengthAdjust="spacing" textLength="20" x="439.5" y="2768.9668">-id</text><text fill="#000000" font-family="sans-serif" font-size="18" lengthAdjust="spacing" textLength="50" x="439.5" y="2795.6074">-name</text><line style="stroke:#181818;stroke-width:0.5;" x1="432.5" x2="883.5" y1="2805.5625" y2="2805.5625"/><text fill="#000000" font-family="sans-serif" font-size="18" lengthAdjust="spacing" textLength="253" x="439.5" y="2830.248">+getListAdministrationProcess()</text></g><!--MD5=[cd4ce1c0d44638ff9f42448de30e6b92]
class VaccineSchedule--><g id="elem_VaccineSchedule"><rect codeLine="77" fill="#F1F1F1" height="185.8438" id="VaccineSchedule" rx="2.5" ry="2.5" style="stroke:#181818;stroke-width:0.5;" width="174" x="659" y="1946"/><ellipse cx="674" cy="1964.3203" fill="#ADD1B2" rx="11" ry="11" style="stroke:#181818;stroke-width:1.0;"/><path d="M676,1960.8203 Q676.2031,1960.3203 676.4375,1960.0703 Q676.6719,1959.8203 676.9375,1959.8203 Q677.4063,1959.8203 677.7031,1960.1016 Q678,1960.3828 678,1961.0391 L678,1962.6016 Q678,1963.2578 677.7188,1963.5391 Q677.4375,1963.8203 677,1963.8203 Q676.6094,1963.8203 676.3594,1963.6484 Q676.1094,1963.4766 676,1963.0234 Q675.9531,1962.7109 675.7813,1962.5391 Q675.4688,1962.2109 674.9063,1962.0234 Q674.3438,1961.8203 673.7813,1961.8203 Q673.0781,1961.8203 672.4844,1962.1016 Q671.9063,1962.3828 671.4531,1963.0078 Q671,1963.6328 671,1964.4922 L671,1965.4141 Q671,1966.4453 671.8438,1967.1328 Q672.6875,1967.8203 674.1875,1967.8203 Q675.0781,1967.8203 675.7031,1967.6172 Q676.0625,1967.5078 676.4688,1967.1484 Q676.7344,1966.9453 676.875,1966.8828 Q677.0156,1966.8203 677.1875,1966.8203 Q677.5156,1966.8203 677.75,1967.0859 Q678,1967.3359 678,1967.6953 Q678,1968.0391 677.6563,1968.4453 Q677.1563,1969.0391 676.3594,1969.3672 Q675.3125,1969.8203 674.0313,1969.8203 Q672.5313,1969.8203 671.3281,1969.2266 Q670.3594,1968.7578 669.6719,1967.7422 Q669,1966.7266 669,1965.5234 L669,1964.4297 Q669,1963.1797 669.5938,1962.0859 Q670.2031,1960.9922 671.25,1960.4141 Q672.3125,1959.8203 673.5,1959.8203 Q674.2188,1959.8203 674.8438,1960.0703 Q675.4688,1960.3203 676,1960.8203 Z " fill="#000000"/><text fill="#000000" font-family="sans-serif" font-size="18" lengthAdjust="spacing" textLength="138" x="690" y="1971.6855">VaccineSchedule</text><line style="stroke:#181818;stroke-width:0.5;" x1="660" x2="832" y1="1982.6406" y2="1982.6406"/><text fill="#000000" font-family="sans-serif" font-size="18" lengthAdjust="spacing" textLength="134" x="667" y="2007.3262">-vaccinationDate</text><text fill="#000000" font-family="sans-serif" font-size="18" lengthAdjust="spacing" textLength="72" x="667" y="2033.9668">-snsUser</text><text fill="#000000" font-family="sans-serif" font-size="18" lengthAdjust="spacing" textLength="108" x="667" y="2060.6074">-vaccineType</text><text fill="#000000" font-family="sans-serif" font-size="18" lengthAdjust="spacing" textLength="140" x="667" y="2087.248">-validateEntrance</text><line style="stroke:#181818;stroke-width:0.5;" x1="660" x2="832" y1="2097.2031" y2="2097.2031"/><text fill="#000000" font-family="sans-serif" font-size="18" lengthAdjust="spacing" textLength="152" x="667" y="2121.8887">+getVaccineType()</text></g><!--MD5=[72be06cc7ae02ccc98efe28a50e62246]
class SNSUser--><g id="elem_SNSUser"><rect codeLine="85" fill="#F1F1F1" height="372.3281" id="SNSUser" rx="2.5" ry="2.5" style="stroke:#181818;stroke-width:0.5;" width="274" x="350" y="1853"/><ellipse cx="443.25" cy="1871.3203" fill="#ADD1B2" rx="11" ry="11" style="stroke:#181818;stroke-width:1.0;"/><path d="M445.25,1867.8203 Q445.4531,1867.3203 445.6875,1867.0703 Q445.9219,1866.8203 446.1875,1866.8203 Q446.6563,1866.8203 446.9531,1867.1016 Q447.25,1867.3828 447.25,1868.0391 L447.25,1869.6016 Q447.25,1870.2578 446.9688,1870.5391 Q446.6875,1870.8203 446.25,1870.8203 Q445.8594,1870.8203 445.6094,1870.6484 Q445.3594,1870.4766 445.25,1870.0234 Q445.2031,1869.7109 445.0313,1869.5391 Q444.7188,1869.2109 444.1563,1869.0234 Q443.5938,1868.8203 443.0313,1868.8203 Q442.3281,1868.8203 441.7344,1869.1016 Q441.1563,1869.3828 440.7031,1870.0078 Q440.25,1870.6328 440.25,1871.4922 L440.25,1872.4141 Q440.25,1873.4453 441.0938,1874.1328 Q441.9375,1874.8203 443.4375,1874.8203 Q444.3281,1874.8203 444.9531,1874.6172 Q445.3125,1874.5078 445.7188,1874.1484 Q445.9844,1873.9453 446.125,1873.8828 Q446.2656,1873.8203 446.4375,1873.8203 Q446.7656,1873.8203 447,1874.0859 Q447.25,1874.3359 447.25,1874.6953 Q447.25,1875.0391 446.9063,1875.4453 Q446.4063,1876.0391 445.6094,1876.3672 Q444.5625,1876.8203 443.2813,1876.8203 Q441.7813,1876.8203 440.5781,1876.2266 Q439.6094,1875.7578 438.9219,1874.7422 Q438.25,1873.7266 438.25,1872.5234 L438.25,1871.4297 Q438.25,1870.1797 438.8438,1869.0859 Q439.4531,1867.9922 440.5,1867.4141 Q441.5625,1866.8203 442.75,1866.8203 Q443.4688,1866.8203 444.0938,1867.0703 Q444.7188,1867.3203 445.25,1867.8203 Z " fill="#000000"/><text fill="#000000" font-family="sans-serif" font-size="18" lengthAdjust="spacing" textLength="75" x="465.75" y="1878.6855">SNSUser</text><line style="stroke:#181818;stroke-width:0.5;" x1="351" x2="623" y1="1889.6406" y2="1889.6406"/><text fill="#000000" font-family="sans-serif" font-size="18" lengthAdjust="spacing" textLength="50" x="358" y="1914.3262">-name</text><text fill="#000000" font-family="sans-serif" font-size="18" lengthAdjust="spacing" textLength="70" x="358" y="1940.9668">-address</text><text fill="#000000" font-family="sans-serif" font-size="18" lengthAdjust="spacing" textLength="62" x="358" y="1967.6074">-gender</text><text fill="#000000" font-family="sans-serif" font-size="18" lengthAdjust="spacing" textLength="48" x="358" y="1994.248">-email</text><text fill="#000000" font-family="sans-serif" font-size="18" lengthAdjust="spacing" textLength="79" x="358" y="2020.8887">-birthDate</text><text fill="#000000" font-family="sans-serif" font-size="18" lengthAdjust="spacing" textLength="135" x="358" y="2047.5293">-snsUserNumber</text><text fill="#000000" font-family="sans-serif" font-size="18" lengthAdjust="spacing" textLength="158" x="358" y="2074.1699">-citizenCardNumber</text><text fill="#000000" font-family="sans-serif" font-size="18" lengthAdjust="spacing" textLength="189" x="358" y="2100.8105">-scheduledVaccinations</text><text fill="#000000" font-family="sans-serif" font-size="18" lengthAdjust="spacing" textLength="150" x="358" y="2127.4512">-adverseReactions</text><text fill="#000000" font-family="sans-serif" font-size="18" lengthAdjust="spacing" textLength="188" x="358" y="2154.0918">-vaccineAdministrations</text><line style="stroke:#181818;stroke-width:0.5;" x1="351" x2="623" y1="2164.0469" y2="2164.0469"/><text fill="#000000" font-family="sans-serif" font-size="18" lengthAdjust="spacing" textLength="193" x="358" y="2188.7324">+getAdverseReactions()</text><text fill="#000000" font-family="sans-serif" font-size="18" lengthAdjust="spacing" textLength="258" x="358" y="2215.373">+registerVaccineAdministration()</text></g><!--MD5=[107cfa23aa516ff83d0cf17a6f9fe7ba]
class VaccineAdministration--><g id="elem_VaccineAdministration"><rect codeLine="100" fill="#F1F1F1" height="212.4844" id="VaccineAdministration" rx="2.5" ry="2.5" style="stroke:#181818;stroke-width:0.5;" width="211" x="464.5" y="2347"/><ellipse cx="479.5" cy="2365.3203" fill="#ADD1B2" rx="11" ry="11" style="stroke:#181818;stroke-width:1.0;"/><path d="M481.5,2361.8203 Q481.7031,2361.3203 481.9375,2361.0703 Q482.1719,2360.8203 482.4375,2360.8203 Q482.9063,2360.8203 483.2031,2361.1016 Q483.5,2361.3828 483.5,2362.0391 L483.5,2363.6016 Q483.5,2364.2578 483.2188,2364.5391 Q482.9375,2364.8203 482.5,2364.8203 Q482.1094,2364.8203 481.8594,2364.6484 Q481.6094,2364.4766 481.5,2364.0234 Q481.4531,2363.7109 481.2813,2363.5391 Q480.9688,2363.2109 480.4063,2363.0234 Q479.8438,2362.8203 479.2813,2362.8203 Q478.5781,2362.8203 477.9844,2363.1016 Q477.4063,2363.3828 476.9531,2364.0078 Q476.5,2364.6328 476.5,2365.4922 L476.5,2366.4141 Q476.5,2367.4453 477.3438,2368.1328 Q478.1875,2368.8203 479.6875,2368.8203 Q480.5781,2368.8203 481.2031,2368.6172 Q481.5625,2368.5078 481.9688,2368.1484 Q482.2344,2367.9453 482.375,2367.8828 Q482.5156,2367.8203 482.6875,2367.8203 Q483.0156,2367.8203 483.25,2368.0859 Q483.5,2368.3359 483.5,2368.6953 Q483.5,2369.0391 483.1563,2369.4453 Q482.6563,2370.0391 481.8594,2370.3672 Q480.8125,2370.8203 479.5313,2370.8203 Q478.0313,2370.8203 476.8281,2370.2266 Q475.8594,2369.7578 475.1719,2368.7422 Q474.5,2367.7266 474.5,2366.5234 L474.5,2365.4297 Q474.5,2364.1797 475.0938,2363.0859 Q475.7031,2361.9922 476.75,2361.4141 Q477.8125,2360.8203 479,2360.8203 Q479.7188,2360.8203 480.3438,2361.0703 Q480.9688,2361.3203 481.5,2361.8203 Z " fill="#000000"/><text fill="#000000" font-family="sans-serif" font-size="18" lengthAdjust="spacing" textLength="175" x="495.5" y="2372.6855">VaccineAdministration</text><line style="stroke:#181818;stroke-width:0.5;" x1="465.5" x2="674.5" y1="2383.6406" y2="2383.6406"/><text fill="#000000" font-family="sans-serif" font-size="18" lengthAdjust="spacing" textLength="72" x="472.5" y="2408.3262">-snsUser</text><text fill="#000000" font-family="sans-serif" font-size="18" lengthAdjust="spacing" textLength="108" x="472.5" y="2434.9668">-vaccineType</text><text fill="#000000" font-family="sans-serif" font-size="18" lengthAdjust="spacing" textLength="67" x="472.5" y="2461.6074">-vaccine</text><text fill="#000000" font-family="sans-serif" font-size="18" lengthAdjust="spacing" textLength="88" x="472.5" y="2488.248">-lotNumber</text><text fill="#000000" font-family="sans-serif" font-size="18" lengthAdjust="spacing" textLength="41" x="472.5" y="2514.8887">-date</text><line style="stroke:#181818;stroke-width:0.5;" x1="465.5" x2="674.5" y1="2524.8438" y2="2524.8438"/><text fill="#000000" font-family="sans-serif" font-size="18" lengthAdjust="spacing" textLength="117" x="472.5" y="2549.5293">+getSnsUser()</text></g><!--MD5=[a2530d24bafc45bb45314d96545aa194]
class AdministrationProcess--><g id="elem_AdministrationProcess"><rect codeLine="109" fill="#F1F1F1" height="105.9219" id="AdministrationProcess" rx="2.5" ry="2.5" style="stroke:#181818;stroke-width:0.5;" width="213" x="551.5" y="2962"/><ellipse cx="566.5" cy="2980.3203" fill="#ADD1B2" rx="11" ry="11" style="stroke:#181818;stroke-width:1.0;"/><path d="M568.5,2976.8203 Q568.7031,2976.3203 568.9375,2976.0703 Q569.1719,2975.8203 569.4375,2975.8203 Q569.9063,2975.8203 570.2031,2976.1016 Q570.5,2976.3828 570.5,2977.0391 L570.5,2978.6016 Q570.5,2979.2578 570.2188,2979.5391 Q569.9375,2979.8203 569.5,2979.8203 Q569.1094,2979.8203 568.8594,2979.6484 Q568.6094,2979.4766 568.5,2979.0234 Q568.4531,2978.7109 568.2813,2978.5391 Q567.9688,2978.2109 567.4063,2978.0234 Q566.8438,2977.8203 566.2813,2977.8203 Q565.5781,2977.8203 564.9844,2978.1016 Q564.4063,2978.3828 563.9531,2979.0078 Q563.5,2979.6328 563.5,2980.4922 L563.5,2981.4141 Q563.5,2982.4453 564.3438,2983.1328 Q565.1875,2983.8203 566.6875,2983.8203 Q567.5781,2983.8203 568.2031,2983.6172 Q568.5625,2983.5078 568.9688,2983.1484 Q569.2344,2982.9453 569.375,2982.8828 Q569.5156,2982.8203 569.6875,2982.8203 Q570.0156,2982.8203 570.25,2983.0859 Q570.5,2983.3359 570.5,2983.6953 Q570.5,2984.0391 570.1563,2984.4453 Q569.6563,2985.0391 568.8594,2985.3672 Q567.8125,2985.8203 566.5313,2985.8203 Q565.0313,2985.8203 563.8281,2985.2266 Q562.8594,2984.7578 562.1719,2983.7422 Q561.5,2982.7266 561.5,2981.5234 L561.5,2980.4297 Q561.5,2979.1797 562.0938,2978.0859 Q562.7031,2976.9922 563.75,2976.4141 Q564.8125,2975.8203 566,2975.8203 Q566.7188,2975.8203 567.3438,2976.0703 Q567.9688,2976.3203 568.5,2976.8203 Z " fill="#000000"/><text fill="#000000" font-family="sans-serif" font-size="18" lengthAdjust="spacing" textLength="177" x="582.5" y="2987.6855">AdministrationProcess</text><line style="stroke:#181818;stroke-width:0.5;" x1="552.5" x2="763.5" y1="2998.6406" y2="2998.6406"/><text fill="#000000" font-family="sans-serif" font-size="18" lengthAdjust="spacing" textLength="124" x="559.5" y="3023.3262">-referenceDose</text><line style="stroke:#181818;stroke-width:0.5;" x1="552.5" x2="763.5" y1="3033.2813" y2="3033.2813"/><text fill="#000000" font-family="sans-serif" font-size="18" lengthAdjust="spacing" textLength="173" x="559.5" y="3057.9668">+getReferenceDose()</text></g><!--MD5=[76896da9d56b0dc28917a842e53c2c90]
link AdministerVaccineUI to AdministerVaccineController--><g id="link_AdministerVaccineUI_AdministerVaccineController"><path codeLine="115" d="M348,60.04 C348,82.97 348,118.65 348,155.79 " fill="none" id="AdministerVaccineUI-to-AdministerVaccineController" style="stroke:#181818;stroke-width:1.0;stroke-dasharray:7.0,7.0;"/><polygon fill="#181818" points="348,160.8,352,151.8,348,155.8,344,151.8,348,160.8" style="stroke:#181818;stroke-width:1.0;"/></g><!--MD5=[7bf9be8d72193149515fddc256adad76]
link AdministerVaccineController to Company--><g id="link_AdministerVaccineController_Company"><path codeLine="116" d="M348,453.17 C348,490.81 348,529.69 348,561.59 " fill="none" id="AdministerVaccineController-to-Company" style="stroke:#181818;stroke-width:1.0;stroke-dasharray:7.0,7.0;"/><polygon fill="#181818" points="348,566.65,352,557.65,348,561.65,344,557.65,348,566.65" style="stroke:#181818;stroke-width:1.0;"/></g><!--MD5=[7251a1d3397593ae6e2dec73b4dc206c]
link AdministerVaccineController to Platform--><g id="link_AdministerVaccineController_Platform"><path codeLine="117" d="M478.63,453.17 C512.92,491.27 548.35,530.65 577.25,562.77 " fill="none" id="AdministerVaccineController-to-Platform" style="stroke:#181818;stroke-width:1.0;stroke-dasharray:7.0,7.0;"/><polygon fill="#181818" points="580.74,566.65,577.6925,557.2845,577.3952,562.9335,571.7461,562.6362,580.74,566.65" style="stroke:#181818;stroke-width:1.0;"/></g><!--MD5=[7ecf270dbbc5e45b388a035d55ce0ae3]
link AdministerVaccineController to App--><g id="link_AdministerVaccineController_App"><path codeLine="118" d="M246,453.17 C222.84,486.14 199,520.06 178.38,549.41 " fill="none" id="AdministerVaccineController-to-App" style="stroke:#181818;stroke-width:1.0;stroke-dasharray:7.0,7.0;"/><polygon fill="#181818" points="175.36,553.7,183.8076,548.6366,178.235,549.6092,177.2624,544.0366,175.36,553.7" style="stroke:#181818;stroke-width:1.0;"/></g><!--MD5=[717d4b03d3c4372f4eafe5e342a0a7dd]
link Company to AuthFacade--><g id="link_Company_AuthFacade"><path codeLine="119" d="M312.36,700.18 C287.83,745.4 255.93,804.19 234.53,843.64 " fill="none" id="Company-to-AuthFacade" style="stroke:#181818;stroke-width:1.0;stroke-dasharray:7.0,7.0;"/><polygon fill="#181818" points="231.97,848.35,239.7844,842.3554,234.3592,843.9578,232.7569,838.5326,231.97,848.35" style="stroke:#181818;stroke-width:1.0;"/></g><!--MD5=[407f5cddcdb18dfe0f3a2e42bd3fef57]
link App to AuthFacade--><g id="link_App_AuthFacade"><path codeLine="120" d="M148.29,713.01 C163.82,756.1 182.49,807.89 195.39,843.7 " fill="none" id="App-to-AuthFacade" style="stroke:#181818;stroke-width:1.0;stroke-dasharray:7.0,7.0;"/><polygon fill="#181818" points="197.1,848.43,197.8267,838.608,195.412,843.7236,190.2964,841.3088,197.1,848.43" style="stroke:#181818;stroke-width:1.0;"/></g><!--MD5=[9a80ca622aa33540c5ebfb66ac08c660]
link Platform to RegisterEmployee--><g id="link_Platform_RegisterEmployee"><path codeLine="121" d="M640,700.18 C640,740.32 640,791.15 640,829.66 " fill="none" id="Platform-to-RegisterEmployee" style="stroke:#181818;stroke-width:1.0;"/><polygon fill="#181818" points="640,834.77,644,825.77,640,829.77,636,825.77,640,834.77" style="stroke:#181818;stroke-width:1.0;"/><polygon fill="#000000" points="645,779.1758,647.9389,770.1307,642.0611,770.1307,645,779.1758" style="stroke:#000000;stroke-width:1.0;"/><text fill="#000000" font-family="sans-serif" font-size="13" lengthAdjust="spacing" textLength="21" x="656" y="779.4951">has</text><text fill="#000000" font-family="sans-serif" font-size="13" lengthAdjust="spacing" textLength="7" x="630.4758" y="723.0213">1</text><text fill="#000000" font-family="sans-serif" font-size="13" lengthAdjust="spacing" textLength="7" x="630.2953" y="822.1913">1</text></g><!--MD5=[eab00be0507a9170c24b1176aa61d4c9]
link RegisterEmployee to Employee--><g id="link_RegisterEmployee_Employee"><path codeLine="122" d="M640,941.13 C640,975.92 640,1021.68 640,1057.52 " fill="none" id="RegisterEmployee-to-Employee" style="stroke:#181818;stroke-width:1.0;"/><polygon fill="#181818" points="640,1062.74,644,1053.74,640,1057.74,636,1053.74,640,1062.74" style="stroke:#181818;stroke-width:1.0;"/><polygon fill="#000000" points="645,1007.1758,647.9389,998.1307,642.0611,998.1307,645,1007.1758" style="stroke:#000000;stroke-width:1.0;"/><text fill="#000000" font-family="sans-serif" font-size="13" lengthAdjust="spacing" textLength="21" x="656" y="1007.4951">has</text><text fill="#000000" font-family="sans-serif" font-size="13" lengthAdjust="spacing" textLength="7" x="630.3297" y="964.3453">1</text><text fill="#000000" font-family="sans-serif" font-size="13" lengthAdjust="spacing" textLength="5" x="632.4234" y="1050.1575">*</text></g><!--MD5=[7454cd36f47ee2c1597ee5b79ae5e9ce]
link Employee to VaccinationCenter--><g id="link_Employee_VaccinationCenter"><path codeLine="123" d="M640,1169.15 C640,1201.91 640,1245.41 640,1285.56 " fill="none" id="Employee-to-VaccinationCenter" style="stroke:#181818;stroke-width:1.0;"/><polygon fill="#181818" points="640,1290.94,644,1281.94,640,1285.94,636,1281.94,640,1290.94" style="stroke:#181818;stroke-width:1.0;"/><polygon fill="#000000" points="645,1235.1758,647.9389,1226.1307,642.0611,1226.1307,645,1235.1758" style="stroke:#000000;stroke-width:1.0;"/><text fill="#000000" font-family="sans-serif" font-size="13" lengthAdjust="spacing" textLength="48" x="656" y="1235.4951">works in</text><text fill="#000000" font-family="sans-serif" font-size="13" lengthAdjust="spacing" textLength="7" x="630.3297" y="1192.3677">1</text><text fill="#000000" font-family="sans-serif" font-size="13" lengthAdjust="spacing" textLength="7" x="630.6133" y="1278.27">1</text></g><!--MD5=[de78e1efbcb885042a1719c3cec87a53]
link VaccinationCenter to WaitingRoom--><g id="link_VaccinationCenter_WaitingRoom"><path codeLine="124" d="M600.45,1503.08 C585.55,1542.68 569.16,1586.24 556.51,1619.85 " fill="none" id="VaccinationCenter-to-WaitingRoom" style="stroke:#181818;stroke-width:1.0;"/><polygon fill="#181818" points="554.67,1624.74,561.5754,1617.7175,556.4256,1620.0584,554.0848,1614.9085,554.67,1624.74" style="stroke:#181818;stroke-width:1.0;"/><polygon fill="#000000" points="585.2391,1568.8554,591.1753,1561.4249,585.674,1559.3548,585.2391,1568.8554" style="stroke:#000000;stroke-width:1.0;"/><text fill="#000000" font-family="sans-serif" font-size="13" lengthAdjust="spacing" textLength="21" x="598" y="1569.4951">has</text><text fill="#000000" font-family="sans-serif" font-size="13" lengthAdjust="spacing" textLength="7" x="588.1416" y="1527.0949">1</text><text fill="#000000" font-family="sans-serif" font-size="13" lengthAdjust="spacing" textLength="7" x="547.4855" y="1612.1575">1</text></g><!--MD5=[1dfd2b8cef5257ed6efd914f274c3279]
link WaitingRoom to SNSUser--><g id="link_WaitingRoom_SNSUser"><path codeLine="125" d="M528.02,1731.2 C523.81,1762.66 518.17,1804.87 512.42,1847.89 " fill="none" id="WaitingRoom-to-SNSUser" style="stroke:#181818;stroke-width:1.0;"/><polygon fill="#181818" points="511.75,1852.86,516.898,1844.4637,512.4071,1847.9034,508.9674,1843.4124,511.75,1852.86" style="stroke:#181818;stroke-width:1.0;"/><polygon fill="#000000" points="525.3375,1797.1317,529.449,1788.5558,523.623,1787.7769,525.3375,1797.1317" style="stroke:#000000;stroke-width:1.0;"/><text fill="#000000" font-family="sans-serif" font-size="13" lengthAdjust="spacing" textLength="21" x="537" y="1797.4951">has</text><text fill="#000000" font-family="sans-serif" font-size="13" lengthAdjust="spacing" textLength="7" x="517.499" y="1754.4238">1</text><text fill="#000000" font-family="sans-serif" font-size="13" lengthAdjust="spacing" textLength="5" x="505.6043" y="1840.081">*</text></g><!--MD5=[1fe780c5042c93c38b83d74528355a6b]
link VaccinationCenter to VaccineSchedule--><g id="link_VaccinationCenter_VaccineSchedule"><path codeLine="126" d="M666.92,1503.21 C676.06,1541.39 685.78,1584.97 693,1625 C712.36,1732.31 727.31,1856.55 736.32,1940.51 " fill="none" id="VaccinationCenter-to-VaccineSchedule" style="stroke:#181818;stroke-width:1.0;"/><polygon fill="#181818" points="736.88,1945.73,739.906,1936.3575,736.3514,1940.758,731.9509,1937.2033,736.88,1945.73" style="stroke:#181818;stroke-width:1.0;"/><text fill="#000000" font-family="sans-serif" font-size="13" lengthAdjust="spacing" textLength="7" x="659.4261" y="1526.8715">1</text><text fill="#000000" font-family="sans-serif" font-size="13" lengthAdjust="spacing" textLength="5" x="728.7947" y="1933.016">*</text></g><!--MD5=[e663fa8a500ab70a311c58503ddffb18]
link VaccineSchedule to Vaccine--><g id="link_VaccineSchedule_Vaccine"><path codeLine="127" d="M738.58,2132.11 C729.75,2236.05 713.58,2410.06 693,2559 C687.7,2597.37 680.52,2639.63 674.05,2675.43 " fill="none" id="VaccineSchedule-to-Vaccine" style="stroke:#181818;stroke-width:1.0;"/><polygon fill="#181818" points="673.1,2680.66,678.6559,2672.5278,674.0007,2675.7418,670.7867,2671.0867,673.1,2680.66" style="stroke:#181818;stroke-width:1.0;"/><polygon fill="#000000" points="722.4103,2458.1409,726.3955,2449.5055,720.5587,2448.8123,722.4103,2458.1409" style="stroke:#000000;stroke-width:1.0;"/><text fill="#000000" font-family="sans-serif" font-size="13" lengthAdjust="spacing" textLength="53" x="734" y="2458.4951">for taking</text><text fill="#000000" font-family="sans-serif" font-size="13" lengthAdjust="spacing" textLength="5" x="730.7046" y="2155.1959">*</text><text fill="#000000" font-family="sans-serif" font-size="13" lengthAdjust="spacing" textLength="7" x="664.955" y="2668.1604">1</text></g><!--MD5=[a98252b7739f22b1ddec3651c1c3aaea]
link Vaccine to AdministrationProcess--><g id="link_Vaccine_AdministrationProcess"><path codeLine="128" d="M658,2840.01 C658,2877.82 658,2922.32 658,2956.86 " fill="none" id="Vaccine-to-AdministrationProcess" style="stroke:#181818;stroke-width:1.0;"/><polygon fill="#181818" points="658,2961.88,662,2952.88,658,2956.88,654,2952.88,658,2961.88" style="stroke:#181818;stroke-width:1.0;"/><polygon fill="#000000" points="663,2906.1758,665.9389,2897.1307,660.0611,2897.1307,663,2906.1758" style="stroke:#000000;stroke-width:1.0;"/><text fill="#000000" font-family="sans-serif" font-size="13" lengthAdjust="spacing" textLength="21" x="674" y="2906.4951">has</text><text fill="#000000" font-family="sans-serif" font-size="13" lengthAdjust="spacing" textLength="7" x="648.493" y="2863.7637">1</text><text fill="#000000" font-family="sans-serif" font-size="13" lengthAdjust="spacing" textLength="5" x="650.4234" y="2949.3154">*</text></g><!--MD5=[e22cf17bb6175b302fa456bd72295241]
link SNSUser to VaccineAdministration--><g id="link_SNSUser_VaccineAdministration"><path codeLine="129" d="M524.31,2225.21 C532.32,2264.94 540.53,2305.71 547.74,2341.53 " fill="none" id="SNSUser-to-VaccineAdministration" style="stroke:#181818;stroke-width:1.0;"/><polygon fill="#181818" points="548.8,2346.78,550.9465,2337.1679,547.8139,2341.8782,543.1036,2338.7456,548.8,2346.78" style="stroke:#181818;stroke-width:1.0;"/><polygon fill="#000000" points="544.9873,2291.0773,546.0823,2281.63,540.3202,2282.7907,544.9873,2291.0773" style="stroke:#000000;stroke-width:1.0;"/><text fill="#000000" font-family="sans-serif" font-size="13" lengthAdjust="spacing" textLength="25" x="555" y="2291.4951">gets</text><text fill="#000000" font-family="sans-serif" font-size="13" lengthAdjust="spacing" textLength="7" x="516.652" y="2248.9832">1</text><text fill="#000000" font-family="sans-serif" font-size="13" lengthAdjust="spacing" textLength="7" x="537.9227" y="2334.0987">1</text></g><!--MD5=[d96ee281cdb1021d3c4ed227c45512e2]
link VaccineAdministration to Vaccine--><g id="link_VaccineAdministration_Vaccine"><path codeLine="130" d="M600.28,2559.14 C611.28,2597.29 623.54,2639.85 633.92,2675.9 " fill="none" id="VaccineAdministration-to-Vaccine" style="stroke:#181818;stroke-width:1.0;"/><polygon fill="#181818" points="635.31,2680.72,636.6568,2670.9637,633.9232,2675.9162,628.9707,2673.1826,635.31,2680.72" style="stroke:#181818;stroke-width:1.0;"/><polygon fill="#000000" points="626.3843,2624.9803,626.7042,2615.4752,621.0561,2617.1025,626.3843,2624.9803" style="stroke:#000000;stroke-width:1.0;"/><text fill="#000000" font-family="sans-serif" font-size="13" lengthAdjust="spacing" textLength="10" x="636" y="2625.4951">of</text><text fill="#000000" font-family="sans-serif" font-size="13" lengthAdjust="spacing" textLength="5" x="595.1732" y="2583.1593">*</text><text fill="#000000" font-family="sans-serif" font-size="13" lengthAdjust="spacing" textLength="7" x="623.7993" y="2668.2257">1</text></g><!--MD5=[3b876de517d62b3a52dcab1870863716]
link VaccineSchedule to VaccineAdministration--><g id="link_VaccineSchedule_VaccineAdministration"><path codeLine="131" d="M706.61,2132.2 C680.09,2194.29 644.99,2276.46 617.01,2341.96 " fill="none" id="VaccineSchedule-to-VaccineAdministration" style="stroke:#181818;stroke-width:1.0;"/><polygon fill="#181818" points="615,2346.65,622.2219,2339.9534,616.9696,2342.0543,614.8687,2336.802,615,2346.65" style="stroke:#181818;stroke-width:1.0;"/><polygon fill="#000000" points="649.9641,2281.5777,643.7083,2288.7412,649.1137,2291.0502,649.9641,2281.5777" style="stroke:#000000;stroke-width:1.0;"/><text fill="#000000" font-family="sans-serif" font-size="13" lengthAdjust="spacing" textLength="42" x="659" y="2291.4951">fulfilling</text><text fill="#000000" font-family="sans-serif" font-size="13" lengthAdjust="spacing" textLength="22" x="678.7626" y="2155.2925">0..1</text><text fill="#000000" font-family="sans-serif" font-size="13" lengthAdjust="spacing" textLength="22" x="593.15" y="2334.3234">0..1</text></g><!--MD5=[b6514e6622602e49ba6379115966c8f0]
@startuml
'https://plantuml.com/sequence-diagram

skinparam classAttributeIconSize 0
skinparam padding 2
skinparam ranksep 100
skinparam classFontSize 18

class AdministerVaccineUI

class AdministerVaccineController{
-App m_oApp
+validateUserSession()
+getListOfWaitingRoomUsers()
+getAvaliableVaccines()
+getVaccineAdministrationProcess()
+getAdverReactions()
+getDosages()
+createVaccineAdministration()
+registerVaccineAdministration()
}

class App{
+getCompany()
+getCurrentUserSession()
+{static} static getInstance()
-bootstrap()
}

class Company{
-designation
+getPlatform()
+getAuthFacade()
}

class Platform{
-description
-RegisterEmployee m_oRegisterEmployee
+getRegisterEmployee()
}

class AuthFacade
{
+getCurrentUserSession()
}

class RegisterEmployee{
-List<Employee> listEmployee
+getWorkingVaccinationCenter()
}

class Employee{
-VaccinationCenter vaccinationCenter
+getWorkingVaccinationCenter()
}

class VaccinationCenter{
-WaitingRoom waitingRoom
+getWaitingRoomSNSUsers()
+getVaccineScheduleFromUser()
+getAvaliableVaccines()
+createVaccineAdministration()
+registerVaccineAdministration()
}

class WaitingRoom{
-TreeMap<SNSUser,Date> map
+getVaccineScheduleFromUser()
}

class Vaccine{
-List<AdministrationProcess> listAdministrationProcess
-id
-name
+getListAdministrationProcess()
}

class VaccineSchedule{
-vaccinationDate
-snsUser
-vaccineType
-validateEntrance
+getVaccineType()
}

class SNSUser{
-name
-address
-gender
-email
-birthDate
-snsUserNumber
-citizenCardNumber
-scheduledVaccinations
-adverseReactions
-vaccineAdministrations
+getAdverseReactions()
+registerVaccineAdministration()
}

class VaccineAdministration{
-snsUser
-vaccineType
-vaccine
-lotNumber
-date
+getSnsUser()
}

class AdministrationProcess{
-referenceDose
+getReferenceDose()
}


AdministerVaccineUI ..> AdministerVaccineController
AdministerVaccineController ..> Company
AdministerVaccineController ..> Platform
AdministerVaccineController ..> App
Company ..> AuthFacade
App ..> AuthFacade
Platform "1" - -> "1" RegisterEmployee : has >
RegisterEmployee "1" - -> "*" Employee : has >
Employee "1" - -> "1" VaccinationCenter : works in >
VaccinationCenter "1" - -> "1" WaitingRoom : has >
WaitingRoom "1" - -> "*" SNSUser : has >
VaccinationCenter "1" - -> "*" VaccineSchedule
VaccineSchedule "*" - -> "1" Vaccine : for taking >
Vaccine "1" - -> "*" AdministrationProcess : has >
SNSUser "1" - -> "1" VaccineAdministration : gets >
VaccineAdministration "*" - -> "1" Vaccine : of >
VaccineSchedule "0..1" - -> "0..1" VaccineAdministration : fulfilling <

@enduml

@startuml

skinparam classAttributeIconSize 0
skinparam padding 2
skinparam ranksep 100
skinparam classFontSize 18

class AdministerVaccineUI

class AdministerVaccineController{
-App m_oApp
+validateUserSession()
+getListOfWaitingRoomUsers()
+getAvaliableVaccines()
+getVaccineAdministrationProcess()
+getAdverReactions()
+getDosages()
+createVaccineAdministration()
+registerVaccineAdministration()
}

class App{
+getCompany()
+getCurrentUserSession()
+{static} static getInstance()
-bootstrap()
}

class Company{
-designation
+getPlatform()
+getAuthFacade()
}

class Platform{
-description
-RegisterEmployee m_oRegisterEmployee
+getRegisterEmployee()
}

class AuthFacade
{
+getCurrentUserSession()
}

class RegisterEmployee{
-List<Employee> listEmployee
+getWorkingVaccinationCenter()
}

class Employee{
-VaccinationCenter vaccinationCenter
+getWorkingVaccinationCenter()
}

class VaccinationCenter{
-WaitingRoom waitingRoom
+getWaitingRoomSNSUsers()
+getVaccineScheduleFromUser()
+getAvaliableVaccines()
+createVaccineAdministration()
+registerVaccineAdministration()
}

class WaitingRoom{
-TreeMap<SNSUser,Date> map
+getVaccineScheduleFromUser()
}

class Vaccine{
-List<AdministrationProcess> listAdministrationProcess
-id
-name
+getListAdministrationProcess()
}

class VaccineSchedule{
-vaccinationDate
-snsUser
-vaccineType
-validateEntrance
+getVaccineType()
}

class SNSUser{
-name
-address
-gender
-email
-birthDate
-snsUserNumber
-citizenCardNumber
-scheduledVaccinations
-adverseReactions
-vaccineAdministrations
+getAdverseReactions()
+registerVaccineAdministration()
}

class VaccineAdministration{
-snsUser
-vaccineType
-vaccine
-lotNumber
-date
+getSnsUser()
}

class AdministrationProcess{
-referenceDose
+getReferenceDose()
}


AdministerVaccineUI ..> AdministerVaccineController
AdministerVaccineController ..> Company
AdministerVaccineController ..> Platform
AdministerVaccineController ..> App
Company ..> AuthFacade
App ..> AuthFacade
Platform "1" - -> "1" RegisterEmployee : has >
RegisterEmployee "1" - -> "*" Employee : has >
Employee "1" - -> "1" VaccinationCenter : works in >
VaccinationCenter "1" - -> "1" WaitingRoom : has >
WaitingRoom "1" - -> "*" SNSUser : has >
VaccinationCenter "1" - -> "*" VaccineSchedule
VaccineSchedule "*" - -> "1" Vaccine : for taking >
Vaccine "1" - -> "*" AdministrationProcess : has >
SNSUser "1" - -> "1" VaccineAdministration : gets >
VaccineAdministration "*" - -> "1" Vaccine : of >
VaccineSchedule "0..1" - -> "0..1" VaccineAdministration : fulfilling <

@enduml

PlantUML version 1.2022.4(Sat Apr 09 14:29:17 BST 2022)
(GPL source distribution)
Java Runtime: OpenJDK Runtime Environment
JVM: OpenJDK 64-Bit Server VM
Default Encoding: Cp1252
Language: pt
Country: PT
--></g></svg>