<?xml version="1.0" encoding="UTF-8" standalone="no"?><svg xmlns="http://www.w3.org/2000/svg" xmlns:xlink="http://www.w3.org/1999/xlink" contentStyleType="text/css" height="1620px" preserveAspectRatio="none" style="width:2495px;height:1620px;background:#FFFFFF;" version="1.1" viewBox="0 0 2495 1620" width="2495px" zoomAndPan="magnify"><defs/><g><rect fill="#FFFFFF" height="1421.2109" style="stroke:#181818;stroke-width:1.0;" width="10" x="36.5" y="92.6094"/><rect fill="#FFFFFF" height="569.2188" style="stroke:#181818;stroke-width:1.0;" width="10" x="556.5" y="114.9609"/><rect fill="#FFFFFF" height="241.7578" style="stroke:#181818;stroke-width:1.0;" width="10" x="556.5" y="714.5313"/><rect fill="#FFFFFF" height="211.7578" style="stroke:#181818;stroke-width:1.0;" width="10" x="556.5" y="986.6406"/><rect fill="#FFFFFF" height="133.6641" style="stroke:#181818;stroke-width:1.0;" width="10" x="556.5" y="1228.75"/><rect fill="#FFFFFF" height="121.0547" style="stroke:#181818;stroke-width:1.0;" width="10" x="556.5" y="1392.7656"/><rect fill="#FFFFFF" height="181.0547" style="stroke:#181818;stroke-width:1.0;" width="10" x="962.5" y="145.3125"/><rect fill="#FFFFFF" height="271.7578" style="stroke:#181818;stroke-width:1.0;" width="10" x="962.5" y="382.0703"/><rect fill="#FFFFFF" height="181.0547" style="stroke:#181818;stroke-width:1.0;" width="10" x="962.5" y="744.8828"/><rect fill="#FFFFFF" height="60.3516" style="stroke:#181818;stroke-width:1.0;" width="10" x="962.5" y="1016.9922"/><rect fill="#FFFFFF" height="60.3516" style="stroke:#181818;stroke-width:1.0;" width="10" x="962.5" y="1107.6953"/><rect fill="#FFFFFF" height="60.7031" style="stroke:#181818;stroke-width:1.0;" width="10" x="962.5" y="1259.1016"/><rect fill="#FFFFFF" height="60.3516" style="stroke:#181818;stroke-width:1.0;" width="10" x="962.5" y="1423.1172"/><rect fill="#FFFFFF" height="30" style="stroke:#181818;stroke-width:1.0;" width="10" x="1106.5" y="175.6641"/><rect fill="#FFFFFF" height="30" style="stroke:#181818;stroke-width:1.0;" width="10" x="1205.5" y="236.0156"/><rect fill="#FFFFFF" height="30" style="stroke:#181818;stroke-width:1.0;" width="10" x="1205.5" y="412.4219"/><rect fill="#FFFFFF" height="30" style="stroke:#181818;stroke-width:1.0;" width="10" x="1329.5" y="296.3672"/><rect fill="#FFFFFF" height="30" style="stroke:#181818;stroke-width:1.0;" width="10" x="1480.5" y="472.7734"/><rect fill="#FFFFFF" height="60.3516" style="stroke:#181818;stroke-width:1.0;" width="10" x="1619.5" y="533.125"/><rect fill="#FFFFFF" height="30" style="stroke:#181818;stroke-width:1.0;" width="10" x="1846.5" y="563.4766"/><rect fill="#FFFFFF" height="30" style="stroke:#181818;stroke-width:1.0;" width="10" x="1959.5" y="623.8281"/><rect fill="#FFFFFF" height="30" style="stroke:#181818;stroke-width:1.0;" width="10" x="1959.5" y="775.2344"/><rect fill="#FFFFFF" height="30" style="stroke:#181818;stroke-width:1.0;" width="10" x="1959.5" y="895.9375"/><rect fill="#FFFFFF" height="30.3516" style="stroke:#181818;stroke-width:1.0;" width="10" x="1959.5" y="1289.4531"/><rect fill="#FFFFFF" height="30" style="stroke:#181818;stroke-width:1.0;" width="10" x="2096" y="835.5859"/><rect fill="#FFFFFF" height="30" style="stroke:#181818;stroke-width:1.0;" width="10" x="2199.5" y="1047.3438"/><rect fill="#FFFFFF" height="30" style="stroke:#181818;stroke-width:1.0;" width="10" x="2276.5" y="1138.0469"/><rect fill="#FFFFFF" height="30" style="stroke:#181818;stroke-width:1.0;" width="10" x="2276.5" y="1453.4688"/><rect height="1180.4531" style="stroke:#000000;stroke-width:1.5;fill:none;" width="2479.5" x="10" y="341.3672"/><line style="stroke:#181818;stroke-width:0.5;fill:none;stroke-dasharray:5.0,5.0;" x1="41" x2="41" y1="82.6094" y2="1538.8203"/><line style="stroke:#181818;stroke-width:0.5;fill:none;stroke-dasharray:5.0,5.0;" x1="561.5" x2="561.5" y1="82.6094" y2="1538.8203"/><line style="stroke:#181818;stroke-width:0.5;fill:none;stroke-dasharray:5.0,5.0;" x1="967.5" x2="967.5" y1="82.6094" y2="1538.8203"/><line style="stroke:#181818;stroke-width:0.5;fill:none;stroke-dasharray:5.0,5.0;" x1="1111" x2="1111" y1="82.6094" y2="1538.8203"/><line style="stroke:#181818;stroke-width:0.5;fill:none;stroke-dasharray:5.0,5.0;" x1="1210" x2="1210" y1="82.6094" y2="1538.8203"/><line style="stroke:#181818;stroke-width:0.5;fill:none;stroke-dasharray:5.0,5.0;" x1="1334" x2="1334" y1="82.6094" y2="1538.8203"/><line style="stroke:#181818;stroke-width:0.5;fill:none;stroke-dasharray:5.0,5.0;" x1="1485" x2="1485" y1="82.6094" y2="1538.8203"/><line style="stroke:#181818;stroke-width:0.5;fill:none;stroke-dasharray:5.0,5.0;" x1="1624" x2="1624" y1="82.6094" y2="1538.8203"/><line style="stroke:#181818;stroke-width:0.5;fill:none;stroke-dasharray:5.0,5.0;" x1="1851.5" x2="1851.5" y1="82.6094" y2="1538.8203"/><line style="stroke:#181818;stroke-width:0.5;fill:none;stroke-dasharray:5.0,5.0;" x1="1964.5" x2="1964.5" y1="82.6094" y2="1538.8203"/><line style="stroke:#181818;stroke-width:0.5;fill:none;stroke-dasharray:5.0,5.0;" x1="2100.5" x2="2100.5" y1="82.6094" y2="1538.8203"/><line style="stroke:#181818;stroke-width:0.5;fill:none;stroke-dasharray:5.0,5.0;" x1="2204.5" x2="2204.5" y1="82.6094" y2="1538.8203"/><line style="stroke:#181818;stroke-width:0.5;fill:none;stroke-dasharray:5.0,5.0;" x1="2281.5" x2="2281.5" y1="82.6094" y2="1538.8203"/><line style="stroke:#181818;stroke-width:0.5;fill:none;stroke-dasharray:5.0,5.0;" x1="2402.5" x2="2402.5" y1="1328.7578" y2="1538.8203"/><text fill="#000000" font-family="sans-serif" font-size="14" lengthAdjust="spacing" textLength="37" x="20" y="79.5332">Nurse</text><ellipse cx="41.5" cy="13.5" fill="#E2E2F0" rx="8" ry="8" style="stroke:#181818;stroke-width:0.5;"/><path d="M41.5,21.5 L41.5,48.5 M28.5,29.5 L54.5,29.5 M41.5,48.5 L28.5,63.5 M41.5,48.5 L54.5,63.5 " fill="none" style="stroke:#181818;stroke-width:0.5;"/><text fill="#000000" font-family="sans-serif" font-size="14" lengthAdjust="spacing" textLength="37" x="20" y="1552.3535">Nurse</text><ellipse cx="41.5" cy="1563.9297" fill="#E2E2F0" rx="8" ry="8" style="stroke:#181818;stroke-width:0.5;"/><path d="M41.5,1571.9297 L41.5,1598.9297 M28.5,1579.9297 L54.5,1579.9297 M41.5,1598.9297 L28.5,1613.9297 M41.5,1598.9297 L54.5,1613.9297 " fill="none" style="stroke:#181818;stroke-width:0.5;"/><text fill="#000000" font-family="sans-serif" font-size="14" lengthAdjust="spacing" textLength="128" x="494.5" y="79.5332">AdministerVaccineUI</text><ellipse cx="561.5" cy="13.5" fill="#E2E2F0" rx="8" ry="8" style="stroke:#181818;stroke-width:0.5;"/><path d="M561.5,21.5 L561.5,48.5 M548.5,29.5 L574.5,29.5 M561.5,48.5 L548.5,63.5 M561.5,48.5 L574.5,63.5 " fill="none" style="stroke:#181818;stroke-width:0.5;"/><text fill="#000000" font-family="sans-serif" font-size="14" lengthAdjust="spacing" textLength="128" x="494.5" y="1552.3535">AdministerVaccineUI</text><ellipse cx="561.5" cy="1563.9297" fill="#E2E2F0" rx="8" ry="8" style="stroke:#181818;stroke-width:0.5;"/><path d="M561.5,1571.9297 L561.5,1598.9297 M548.5,1579.9297 L574.5,1579.9297 M561.5,1598.9297 L548.5,1613.9297 M561.5,1598.9297 L574.5,1613.9297 " fill="none" style="stroke:#181818;stroke-width:0.5;"/><rect fill="#E2E2F0" height="31.6094" rx="2.5" ry="2.5" style="stroke:#181818;stroke-width:0.5;" width="76" x="929.5" y="50"/><text fill="#000000" font-family="sans-serif" font-size="14" lengthAdjust="spacing" textLength="62" x="936.5" y="71.5332">Controller</text><rect fill="#E2E2F0" height="31.6094" rx="2.5" ry="2.5" style="stroke:#181818;stroke-width:0.5;" width="76" x="929.5" y="1537.8203"/><text fill="#000000" font-family="sans-serif" font-size="14" lengthAdjust="spacing" textLength="62" x="936.5" y="1559.3535">Controller</text><rect fill="#E2E2F0" height="31.6094" rx="2.5" ry="2.5" style="stroke:#181818;stroke-width:0.5;" width="39" x="1092" y="50"/><text fill="#000000" font-family="sans-serif" font-size="14" lengthAdjust="spacing" textLength="25" x="1099" y="71.5332">App</text><rect fill="#E2E2F0" height="31.6094" rx="2.5" ry="2.5" style="stroke:#181818;stroke-width:0.5;" width="39" x="1092" y="1537.8203"/><text fill="#000000" font-family="sans-serif" font-size="14" lengthAdjust="spacing" textLength="25" x="1099" y="1559.3535">App</text><rect fill="#E2E2F0" height="31.6094" rx="2.5" ry="2.5" style="stroke:#181818;stroke-width:0.5;" width="75" x="1173" y="50"/><text fill="#000000" font-family="sans-serif" font-size="14" lengthAdjust="spacing" textLength="61" x="1180" y="71.5332">app : App</text><rect fill="#E2E2F0" height="31.6094" rx="2.5" ry="2.5" style="stroke:#181818;stroke-width:0.5;" width="75" x="1173" y="1537.8203"/><text fill="#000000" font-family="sans-serif" font-size="14" lengthAdjust="spacing" textLength="61" x="1180" y="1559.3535">app : App</text><rect fill="#E2E2F0" height="31.6094" rx="2.5" ry="2.5" style="stroke:#181818;stroke-width:0.5;" width="153" x="1258" y="50"/><text fill="#000000" font-family="sans-serif" font-size="14" lengthAdjust="spacing" textLength="139" x="1265" y="71.5332">session : UserSession</text><rect fill="#E2E2F0" height="31.6094" rx="2.5" ry="2.5" style="stroke:#181818;stroke-width:0.5;" width="153" x="1258" y="1537.8203"/><text fill="#000000" font-family="sans-serif" font-size="14" lengthAdjust="spacing" textLength="139" x="1265" y="1559.3535">session : UserSession</text><rect fill="#E2E2F0" height="31.6094" rx="2.5" ry="2.5" style="stroke:#181818;stroke-width:0.5;" width="129" x="1421" y="50"/><text fill="#000000" font-family="sans-serif" font-size="14" lengthAdjust="spacing" textLength="115" x="1428" y="71.5332">platform : Platform</text><rect fill="#E2E2F0" height="31.6094" rx="2.5" ry="2.5" style="stroke:#181818;stroke-width:0.5;" width="129" x="1421" y="1537.8203"/><text fill="#000000" font-family="sans-serif" font-size="14" lengthAdjust="spacing" textLength="115" x="1428" y="1559.3535">platform : Platform</text><rect fill="#E2E2F0" height="31.6094" rx="2.5" ry="2.5" style="stroke:#181818;stroke-width:0.5;" width="129" x="1560" y="50"/><text fill="#000000" font-family="sans-serif" font-size="14" lengthAdjust="spacing" textLength="115" x="1567" y="71.5332">RegisterEmployee</text><rect fill="#E2E2F0" height="31.6094" rx="2.5" ry="2.5" style="stroke:#181818;stroke-width:0.5;" width="129" x="1560" y="1537.8203"/><text fill="#000000" font-family="sans-serif" font-size="14" lengthAdjust="spacing" textLength="115" x="1567" y="1559.3535">RegisterEmployee</text><rect fill="#E2E2F0" height="31.6094" rx="2.5" ry="2.5" style="stroke:#181818;stroke-width:0.5;" width="76" x="1813.5" y="50"/><text fill="#000000" font-family="sans-serif" font-size="14" lengthAdjust="spacing" textLength="62" x="1820.5" y="71.5332">Employee</text><rect fill="#E2E2F0" height="31.6094" rx="2.5" ry="2.5" style="stroke:#181818;stroke-width:0.5;" width="76" x="1813.5" y="1537.8203"/><text fill="#000000" font-family="sans-serif" font-size="14" lengthAdjust="spacing" textLength="62" x="1820.5" y="1559.3535">Employee</text><rect fill="#E2E2F0" height="31.6094" rx="2.5" ry="2.5" style="stroke:#181818;stroke-width:0.5;" width="130" x="1899.5" y="50"/><text fill="#000000" font-family="sans-serif" font-size="14" lengthAdjust="spacing" textLength="116" x="1906.5" y="71.5332">VaccinationCenter</text><rect fill="#E2E2F0" height="31.6094" rx="2.5" ry="2.5" style="stroke:#181818;stroke-width:0.5;" width="130" x="1899.5" y="1537.8203"/><text fill="#000000" font-family="sans-serif" font-size="14" lengthAdjust="spacing" textLength="116" x="1906.5" y="1559.3535">VaccinationCenter</text><rect fill="#E2E2F0" height="31.6094" rx="2.5" ry="2.5" style="stroke:#181818;stroke-width:0.5;" width="123" x="2039.5" y="50"/><text fill="#000000" font-family="sans-serif" font-size="14" lengthAdjust="spacing" textLength="109" x="2046.5" y="71.5332">VaccineSchedule</text><rect fill="#E2E2F0" height="31.6094" rx="2.5" ry="2.5" style="stroke:#181818;stroke-width:0.5;" width="123" x="2039.5" y="1537.8203"/><text fill="#000000" font-family="sans-serif" font-size="14" lengthAdjust="spacing" textLength="109" x="2046.5" y="1559.3535">VaccineSchedule</text><rect fill="#E2E2F0" height="31.6094" rx="2.5" ry="2.5" style="stroke:#181818;stroke-width:0.5;" width="64" x="2172.5" y="50"/><text fill="#000000" font-family="sans-serif" font-size="14" lengthAdjust="spacing" textLength="50" x="2179.5" y="71.5332">Vaccine</text><rect fill="#E2E2F0" height="31.6094" rx="2.5" ry="2.5" style="stroke:#181818;stroke-width:0.5;" width="64" x="2172.5" y="1537.8203"/><text fill="#000000" font-family="sans-serif" font-size="14" lengthAdjust="spacing" textLength="50" x="2179.5" y="1559.3535">Vaccine</text><rect fill="#E2E2F0" height="31.6094" rx="2.5" ry="2.5" style="stroke:#181818;stroke-width:0.5;" width="70" x="2246.5" y="50"/><text fill="#000000" font-family="sans-serif" font-size="14" lengthAdjust="spacing" textLength="56" x="2253.5" y="71.5332">SNSUser</text><rect fill="#E2E2F0" height="31.6094" rx="2.5" ry="2.5" style="stroke:#181818;stroke-width:0.5;" width="70" x="2246.5" y="1537.8203"/><text fill="#000000" font-family="sans-serif" font-size="14" lengthAdjust="spacing" textLength="56" x="2253.5" y="1559.3535">SNSUser</text><rect fill="#E2E2F0" height="31.6094" rx="2.5" ry="2.5" style="stroke:#181818;stroke-width:0.5;" width="153" x="2326.5" y="1537.8203"/><text fill="#000000" font-family="sans-serif" font-size="14" lengthAdjust="spacing" textLength="139" x="2333.5" y="1559.3535">VaccineAdministration</text><rect fill="#FFFFFF" height="1421.2109" style="stroke:#181818;stroke-width:1.0;" width="10" x="36.5" y="92.6094"/><rect fill="#FFFFFF" height="569.2188" style="stroke:#181818;stroke-width:1.0;" width="10" x="556.5" y="114.9609"/><rect fill="#FFFFFF" height="241.7578" style="stroke:#181818;stroke-width:1.0;" width="10" x="556.5" y="714.5313"/><rect fill="#FFFFFF" height="211.7578" style="stroke:#181818;stroke-width:1.0;" width="10" x="556.5" y="986.6406"/><rect fill="#FFFFFF" height="133.6641" style="stroke:#181818;stroke-width:1.0;" width="10" x="556.5" y="1228.75"/><rect fill="#FFFFFF" height="121.0547" style="stroke:#181818;stroke-width:1.0;" width="10" x="556.5" y="1392.7656"/><rect fill="#FFFFFF" height="181.0547" style="stroke:#181818;stroke-width:1.0;" width="10" x="962.5" y="145.3125"/><rect fill="#FFFFFF" height="271.7578" style="stroke:#181818;stroke-width:1.0;" width="10" x="962.5" y="382.0703"/><rect fill="#FFFFFF" height="181.0547" style="stroke:#181818;stroke-width:1.0;" width="10" x="962.5" y="744.8828"/><rect fill="#FFFFFF" height="60.3516" style="stroke:#181818;stroke-width:1.0;" width="10" x="962.5" y="1016.9922"/><rect fill="#FFFFFF" height="60.3516" style="stroke:#181818;stroke-width:1.0;" width="10" x="962.5" y="1107.6953"/><rect fill="#FFFFFF" height="60.7031" style="stroke:#181818;stroke-width:1.0;" width="10" x="962.5" y="1259.1016"/><rect fill="#FFFFFF" height="60.3516" style="stroke:#181818;stroke-width:1.0;" width="10" x="962.5" y="1423.1172"/><rect fill="#FFFFFF" height="30" style="stroke:#181818;stroke-width:1.0;" width="10" x="1106.5" y="175.6641"/><rect fill="#FFFFFF" height="30" style="stroke:#181818;stroke-width:1.0;" width="10" x="1205.5" y="236.0156"/><rect fill="#FFFFFF" height="30" style="stroke:#181818;stroke-width:1.0;" width="10" x="1205.5" y="412.4219"/><rect fill="#FFFFFF" height="30" style="stroke:#181818;stroke-width:1.0;" width="10" x="1329.5" y="296.3672"/><rect fill="#FFFFFF" height="30" style="stroke:#181818;stroke-width:1.0;" width="10" x="1480.5" y="472.7734"/><rect fill="#FFFFFF" height="60.3516" style="stroke:#181818;stroke-width:1.0;" width="10" x="1619.5" y="533.125"/><rect fill="#FFFFFF" height="30" style="stroke:#181818;stroke-width:1.0;" width="10" x="1846.5" y="563.4766"/><rect fill="#FFFFFF" height="30" style="stroke:#181818;stroke-width:1.0;" width="10" x="1959.5" y="623.8281"/><rect fill="#FFFFFF" height="30" style="stroke:#181818;stroke-width:1.0;" width="10" x="1959.5" y="775.2344"/><rect fill="#FFFFFF" height="30" style="stroke:#181818;stroke-width:1.0;" width="10" x="1959.5" y="895.9375"/><rect fill="#FFFFFF" height="30.3516" style="stroke:#181818;stroke-width:1.0;" width="10" x="1959.5" y="1289.4531"/><rect fill="#FFFFFF" height="30" style="stroke:#181818;stroke-width:1.0;" width="10" x="2096" y="835.5859"/><rect fill="#FFFFFF" height="30" style="stroke:#181818;stroke-width:1.0;" width="10" x="2199.5" y="1047.3438"/><rect fill="#FFFFFF" height="30" style="stroke:#181818;stroke-width:1.0;" width="10" x="2276.5" y="1138.0469"/><rect fill="#FFFFFF" height="30" style="stroke:#181818;stroke-width:1.0;" width="10" x="2276.5" y="1453.4688"/><polygon fill="#181818" points="544.5,110.9609,554.5,114.9609,544.5,118.9609,548.5,114.9609" style="stroke:#181818;stroke-width:1.0;"/><line style="stroke:#181818;stroke-width:1.0;" x1="46.5" x2="550.5" y1="114.9609" y2="114.9609"/><text fill="#000000" font-family="sans-serif" font-size="13" font-weight="bold" lengthAdjust="spacing" textLength="7" x="53.5" y="110.1045">1</text><text fill="#000000" font-family="sans-serif" font-size="13" lengthAdjust="spacing" textLength="120" x="64.5" y="110.1045">Administer a vaccine</text><polygon fill="#181818" points="950.5,141.3125,960.5,145.3125,950.5,149.3125,954.5,145.3125" style="stroke:#181818;stroke-width:1.0;"/><line style="stroke:#181818;stroke-width:1.0;" x1="566.5" x2="956.5" y1="145.3125" y2="145.3125"/><text fill="#000000" font-family="sans-serif" font-size="13" font-weight="bold" lengthAdjust="spacing" textLength="7" x="573.5" y="140.4561">2</text><text fill="#000000" font-family="sans-serif" font-size="13" lengthAdjust="spacing" textLength="125" x="584.5" y="140.4561">validateUserSession()</text><polygon fill="#181818" points="1094.5,171.6641,1104.5,175.6641,1094.5,179.6641,1098.5,175.6641" style="stroke:#181818;stroke-width:1.0;"/><line style="stroke:#181818;stroke-width:1.0;" x1="972.5" x2="1100.5" y1="175.6641" y2="175.6641"/><text fill="#000000" font-family="sans-serif" font-size="13" font-weight="bold" lengthAdjust="spacing" textLength="7" x="979.5" y="170.8076">3</text><text fill="#000000" font-family="sans-serif" font-size="13" lengthAdjust="spacing" textLength="104" x="990.5" y="170.8076">app=getInstance()</text><polygon fill="#181818" points="1193.5,232.0156,1203.5,236.0156,1193.5,240.0156,1197.5,236.0156" style="stroke:#181818;stroke-width:1.0;"/><line style="stroke:#181818;stroke-width:1.0;" x1="972.5" x2="1199.5" y1="236.0156" y2="236.0156"/><text fill="#000000" font-family="sans-serif" font-size="13" font-weight="bold" lengthAdjust="spacing" textLength="7" x="979.5" y="231.1592">4</text><text fill="#000000" font-family="sans-serif" font-size="13" lengthAdjust="spacing" textLength="203" x="990.5" y="231.1592">session = getCurrentUserSession()</text><polygon fill="#181818" points="1317.5,292.3672,1327.5,296.3672,1317.5,300.3672,1321.5,296.3672" style="stroke:#181818;stroke-width:1.0;"/><line style="stroke:#181818;stroke-width:1.0;" x1="972.5" x2="1323.5" y1="296.3672" y2="296.3672"/><text fill="#000000" font-family="sans-serif" font-size="13" font-weight="bold" lengthAdjust="spacing" textLength="7" x="979.5" y="291.5107">5</text><text fill="#000000" font-family="sans-serif" font-size="13" lengthAdjust="spacing" textLength="267" x="990.5" y="291.5107">answer = isLoggedInWithRole(ROLE_NURSE)</text><path d="M10,341.3672 L71,341.3672 L71,349.7188 L61,359.7188 L10,359.7188 L10,341.3672 " fill="#EEEEEE" style="stroke:#000000;stroke-width:1.5;"/><rect fill="none" height="1180.4531" style="stroke:#000000;stroke-width:1.5;" width="2479.5" x="10" y="341.3672"/><text fill="#000000" font-family="sans-serif" font-size="13" font-weight="bold" lengthAdjust="spacing" textLength="16" x="25" y="355.8623">alt</text><text fill="#000000" font-family="sans-serif" font-size="11" font-weight="bold" lengthAdjust="spacing" textLength="85" x="86" y="354.7861">[answer = true]</text><polygon fill="#181818" points="950.5,378.0703,960.5,382.0703,950.5,386.0703,954.5,382.0703" style="stroke:#181818;stroke-width:1.0;"/><line style="stroke:#181818;stroke-width:1.0;" x1="566.5" x2="956.5" y1="382.0703" y2="382.0703"/><text fill="#000000" font-family="sans-serif" font-size="13" font-weight="bold" lengthAdjust="spacing" textLength="7" x="573.5" y="377.2139">6</text><text fill="#000000" font-family="sans-serif" font-size="13" lengthAdjust="spacing" textLength="172" x="584.5" y="377.2139">getListOfWaitingRoomUsers()</text><polygon fill="#181818" points="1193.5,408.4219,1203.5,412.4219,1193.5,416.4219,1197.5,412.4219" style="stroke:#181818;stroke-width:1.0;"/><line style="stroke:#181818;stroke-width:1.0;" x1="972.5" x2="1199.5" y1="412.4219" y2="412.4219"/><text fill="#000000" font-family="sans-serif" font-size="13" font-weight="bold" lengthAdjust="spacing" textLength="7" x="979.5" y="407.5654">7</text><text fill="#000000" font-family="sans-serif" font-size="13" lengthAdjust="spacing" textLength="74" x="990.5" y="407.5654">getPlatform()</text><polygon fill="#181818" points="1468.5,468.7734,1478.5,472.7734,1468.5,476.7734,1472.5,472.7734" style="stroke:#181818;stroke-width:1.0;"/><line style="stroke:#181818;stroke-width:1.0;" x1="972.5" x2="1474.5" y1="472.7734" y2="472.7734"/><text fill="#000000" font-family="sans-serif" font-size="13" font-weight="bold" lengthAdjust="spacing" textLength="7" x="979.5" y="467.917">8</text><text fill="#000000" font-family="sans-serif" font-size="13" lengthAdjust="spacing" textLength="132" x="990.5" y="467.917">getRegisterEmployee()</text><polygon fill="#181818" points="1607.5,529.125,1617.5,533.125,1607.5,537.125,1611.5,533.125" style="stroke:#181818;stroke-width:1.0;"/><line style="stroke:#181818;stroke-width:1.0;" x1="972.5" x2="1613.5" y1="533.125" y2="533.125"/><text fill="#000000" font-family="sans-serif" font-size="13" font-weight="bold" lengthAdjust="spacing" textLength="7" x="979.5" y="528.2686">9</text><text fill="#000000" font-family="sans-serif" font-size="13" lengthAdjust="spacing" textLength="211" x="990.5" y="528.2686">getWorkingVaccinationCenter(email)</text><polygon fill="#181818" points="1834.5,559.4766,1844.5,563.4766,1834.5,567.4766,1838.5,563.4766" style="stroke:#181818;stroke-width:1.0;"/><line style="stroke:#181818;stroke-width:1.0;" x1="1629.5" x2="1840.5" y1="563.4766" y2="563.4766"/><text fill="#000000" font-family="sans-serif" font-size="13" font-weight="bold" lengthAdjust="spacing" textLength="14" x="1636.5" y="558.6201">10</text><text fill="#000000" font-family="sans-serif" font-size="13" lengthAdjust="spacing" textLength="180" x="1654.5" y="558.6201">getWorkingVaccinationCenter()</text><polygon fill="#181818" points="1947.5,619.8281,1957.5,623.8281,1947.5,627.8281,1951.5,623.8281" style="stroke:#181818;stroke-width:1.0;"/><line style="stroke:#181818;stroke-width:1.0;" x1="972.5" x2="1953.5" y1="623.8281" y2="623.8281"/><text fill="#000000" font-family="sans-serif" font-size="13" font-weight="bold" lengthAdjust="spacing" textLength="14" x="979.5" y="618.9717">11</text><text fill="#000000" font-family="sans-serif" font-size="13" lengthAdjust="spacing" textLength="165" x="997.5" y="618.9717">getWaitingRoomSNSUsers()</text><polygon fill="#181818" points="57.5,680.1797,47.5,684.1797,57.5,688.1797,53.5,684.1797" style="stroke:#181818;stroke-width:1.0;"/><line style="stroke:#181818;stroke-width:1.0;stroke-dasharray:2.0,2.0;" x1="51.5" x2="560.5" y1="684.1797" y2="684.1797"/><text fill="#000000" font-family="sans-serif" font-size="13" font-weight="bold" lengthAdjust="spacing" textLength="14" x="63.5" y="679.3232">12</text><text fill="#000000" font-family="sans-serif" font-size="13" lengthAdjust="spacing" textLength="428" x="81.5" y="679.3232">Shows a list of users in the waiting room and asks the nurse to select one</text><polygon fill="#181818" points="544.5,710.5313,554.5,714.5313,544.5,718.5313,548.5,714.5313" style="stroke:#181818;stroke-width:1.0;"/><line style="stroke:#181818;stroke-width:1.0;stroke-dasharray:2.0,2.0;" x1="46.5" x2="550.5" y1="714.5313" y2="714.5313"/><text fill="#000000" font-family="sans-serif" font-size="13" font-weight="bold" lengthAdjust="spacing" textLength="14" x="53.5" y="709.6748">13</text><text fill="#000000" font-family="sans-serif" font-size="13" lengthAdjust="spacing" textLength="84" x="71.5" y="709.6748">Selects a user</text><polygon fill="#181818" points="950.5,740.8828,960.5,744.8828,950.5,748.8828,954.5,744.8828" style="stroke:#181818;stroke-width:1.0;"/><line style="stroke:#181818;stroke-width:1.0;" x1="566.5" x2="956.5" y1="744.8828" y2="744.8828"/><text fill="#000000" font-family="sans-serif" font-size="13" font-weight="bold" lengthAdjust="spacing" textLength="14" x="573.5" y="740.0264">14</text><text fill="#000000" font-family="sans-serif" font-size="13" lengthAdjust="spacing" textLength="131" x="591.5" y="740.0264">getAvailableVaccines()</text><polygon fill="#181818" points="1947.5,771.2344,1957.5,775.2344,1947.5,779.2344,1951.5,775.2344" style="stroke:#181818;stroke-width:1.0;"/><line style="stroke:#181818;stroke-width:1.0;" x1="972.5" x2="1953.5" y1="775.2344" y2="775.2344"/><text fill="#000000" font-family="sans-serif" font-size="13" font-weight="bold" lengthAdjust="spacing" textLength="14" x="979.5" y="770.3779">15</text><text fill="#000000" font-family="sans-serif" font-size="13" lengthAdjust="spacing" textLength="232" x="997.5" y="770.3779">getVaccineScheduleFromUser(snsUser)</text><polygon fill="#181818" points="2084,831.5859,2094,835.5859,2084,839.5859,2088,835.5859" style="stroke:#181818;stroke-width:1.0;"/><line style="stroke:#181818;stroke-width:1.0;" x1="972.5" x2="2090" y1="835.5859" y2="835.5859"/><text fill="#000000" font-family="sans-serif" font-size="13" font-weight="bold" lengthAdjust="spacing" textLength="14" x="979.5" y="830.7295">16</text><text fill="#000000" font-family="sans-serif" font-size="13" lengthAdjust="spacing" textLength="101" x="997.5" y="830.7295">getVaccineType()</text><polygon fill="#181818" points="1947.5,891.9375,1957.5,895.9375,1947.5,899.9375,1951.5,895.9375" style="stroke:#181818;stroke-width:1.0;"/><line style="stroke:#181818;stroke-width:1.0;" x1="972.5" x2="1953.5" y1="895.9375" y2="895.9375"/><text fill="#000000" font-family="sans-serif" font-size="13" font-weight="bold" lengthAdjust="spacing" textLength="14" x="979.5" y="891.0811">17</text><text fill="#000000" font-family="sans-serif" font-size="13" lengthAdjust="spacing" textLength="202" x="997.5" y="891.0811">getAvailableVaccines(vaccineType)</text><polygon fill="#181818" points="57.5,952.2891,47.5,956.2891,57.5,960.2891,53.5,956.2891" style="stroke:#181818;stroke-width:1.0;"/><line style="stroke:#181818;stroke-width:1.0;stroke-dasharray:2.0,2.0;" x1="51.5" x2="560.5" y1="956.2891" y2="956.2891"/><text fill="#000000" font-family="sans-serif" font-size="13" font-weight="bold" lengthAdjust="spacing" textLength="14" x="63.5" y="951.4326">18</text><text fill="#000000" font-family="sans-serif" font-size="13" lengthAdjust="spacing" textLength="377" x="81.5" y="951.4326">Displays available vaccines and asks the nurse for the lot number</text><polygon fill="#181818" points="544.5,982.6406,554.5,986.6406,544.5,990.6406,548.5,986.6406" style="stroke:#181818;stroke-width:1.0;"/><line style="stroke:#181818;stroke-width:1.0;" x1="46.5" x2="550.5" y1="986.6406" y2="986.6406"/><text fill="#000000" font-family="sans-serif" font-size="13" font-weight="bold" lengthAdjust="spacing" textLength="14" x="53.5" y="981.7842">19</text><text fill="#000000" font-family="sans-serif" font-size="13" lengthAdjust="spacing" textLength="203" x="71.5" y="981.7842">Registers brand and the lot number</text><polygon fill="#181818" points="950.5,1012.9922,960.5,1016.9922,950.5,1020.9922,954.5,1016.9922" style="stroke:#181818;stroke-width:1.0;"/><line style="stroke:#181818;stroke-width:1.0;" x1="566.5" x2="956.5" y1="1016.9922" y2="1016.9922"/><text fill="#000000" font-family="sans-serif" font-size="13" font-weight="bold" lengthAdjust="spacing" textLength="14" x="573.5" y="1012.1357">20</text><text fill="#000000" font-family="sans-serif" font-size="13" lengthAdjust="spacing" textLength="247" x="591.5" y="1012.1357">getVaccineAdministrationProcess(vaccine)</text><polygon fill="#181818" points="2187.5,1043.3438,2197.5,1047.3438,2187.5,1051.3438,2191.5,1047.3438" style="stroke:#181818;stroke-width:1.0;"/><line style="stroke:#181818;stroke-width:1.0;" x1="972.5" x2="2193.5" y1="1047.3438" y2="1047.3438"/><text fill="#000000" font-family="sans-serif" font-size="13" font-weight="bold" lengthAdjust="spacing" textLength="14" x="979.5" y="1042.4873">21</text><text fill="#000000" font-family="sans-serif" font-size="13" lengthAdjust="spacing" textLength="204" x="997.5" y="1042.4873">getVaccineAdministrationProcess()</text><polygon fill="#181818" points="950.5,1103.6953,960.5,1107.6953,950.5,1111.6953,954.5,1107.6953" style="stroke:#181818;stroke-width:1.0;"/><line style="stroke:#181818;stroke-width:1.0;" x1="566.5" x2="956.5" y1="1107.6953" y2="1107.6953"/><text fill="#000000" font-family="sans-serif" font-size="13" font-weight="bold" lengthAdjust="spacing" textLength="14" x="573.5" y="1102.8389">22</text><text fill="#000000" font-family="sans-serif" font-size="13" lengthAdjust="spacing" textLength="130" x="591.5" y="1102.8389">getAdverseReactions()</text><polygon fill="#181818" points="2264.5,1134.0469,2274.5,1138.0469,2264.5,1142.0469,2268.5,1138.0469" style="stroke:#181818;stroke-width:1.0;"/><line style="stroke:#181818;stroke-width:1.0;" x1="972.5" x2="2270.5" y1="1138.0469" y2="1138.0469"/><text fill="#000000" font-family="sans-serif" font-size="13" font-weight="bold" lengthAdjust="spacing" textLength="14" x="979.5" y="1133.1904">23</text><text fill="#000000" font-family="sans-serif" font-size="13" lengthAdjust="spacing" textLength="130" x="997.5" y="1133.1904">getAdverseReactions()</text><polygon fill="#181818" points="57.5,1194.3984,47.5,1198.3984,57.5,1202.3984,53.5,1198.3984" style="stroke:#181818;stroke-width:1.0;"/><line style="stroke:#181818;stroke-width:1.0;stroke-dasharray:2.0,2.0;" x1="51.5" x2="560.5" y1="1198.3984" y2="1198.3984"/><text fill="#000000" font-family="sans-serif" font-size="13" font-weight="bold" lengthAdjust="spacing" textLength="14" x="63.5" y="1193.542">24</text><text fill="#000000" font-family="sans-serif" font-size="13" lengthAdjust="spacing" textLength="468" x="81.5" y="1193.542">Displays user health data, vaccine dosage and previous vaccination (if applicable)</text><polygon fill="#181818" points="544.5,1224.75,554.5,1228.75,544.5,1232.75,548.5,1228.75" style="stroke:#181818;stroke-width:1.0;"/><line style="stroke:#181818;stroke-width:1.0;stroke-dasharray:2.0,2.0;" x1="46.5" x2="550.5" y1="1228.75" y2="1228.75"/><text fill="#000000" font-family="sans-serif" font-size="13" font-weight="bold" lengthAdjust="spacing" textLength="14" x="53.5" y="1223.8936">25</text><text fill="#000000" font-family="sans-serif" font-size="13" lengthAdjust="spacing" textLength="51" x="71.5" y="1223.8936">Continue</text><polygon fill="#181818" points="950.5,1255.1016,960.5,1259.1016,950.5,1263.1016,954.5,1259.1016" style="stroke:#181818;stroke-width:1.0;"/><line style="stroke:#181818;stroke-width:1.0;" x1="566.5" x2="956.5" y1="1259.1016" y2="1259.1016"/><text fill="#000000" font-family="sans-serif" font-size="13" font-weight="bold" lengthAdjust="spacing" textLength="14" x="573.5" y="1254.2451">26</text><text fill="#000000" font-family="sans-serif" font-size="13" lengthAdjust="spacing" textLength="332" x="591.5" y="1254.2451">createVaccineAdministration(snsUser,vaccine,lotNumber)</text><polygon fill="#181818" points="1947.5,1285.4531,1957.5,1289.4531,1947.5,1293.4531,1951.5,1289.4531" style="stroke:#181818;stroke-width:1.0;"/><line style="stroke:#181818;stroke-width:1.0;" x1="972.5" x2="1953.5" y1="1289.4531" y2="1289.4531"/><text fill="#000000" font-family="sans-serif" font-size="13" font-weight="bold" lengthAdjust="spacing" textLength="14" x="979.5" y="1284.5967">27</text><text fill="#000000" font-family="sans-serif" font-size="13" lengthAdjust="spacing" textLength="407" x="997.5" y="1284.5967">createVaccineAdministration(snsUser,vaccineType,vaccine,lotNumber)</text><polygon fill="#181818" points="2314.5,1315.8047,2324.5,1319.8047,2314.5,1323.8047,2318.5,1319.8047" style="stroke:#181818;stroke-width:1.0;"/><line style="stroke:#181818;stroke-width:1.0;" x1="1964.5" x2="2320.5" y1="1319.8047" y2="1319.8047"/><text fill="#000000" font-family="sans-serif" font-size="13" font-weight="bold" lengthAdjust="spacing" textLength="14" x="1971.5" y="1314.9482">28</text><text fill="#000000" font-family="sans-serif" font-size="13" lengthAdjust="spacing" textLength="280" x="1989.5" y="1314.9482">createVaccinaAdministration(vaccine,lotNumber)</text><rect fill="#E2E2F0" height="31.6094" rx="2.5" ry="2.5" style="stroke:#181818;stroke-width:0.5;" width="153" x="2326.5" y="1297.4531"/><text fill="#000000" font-family="sans-serif" font-size="14" lengthAdjust="spacing" textLength="139" x="2333.5" y="1318.9863">VaccineAdministration</text><polygon fill="#181818" points="57.5,1358.4141,47.5,1362.4141,57.5,1366.4141,53.5,1362.4141" style="stroke:#181818;stroke-width:1.0;"/><line style="stroke:#181818;stroke-width:1.0;stroke-dasharray:2.0,2.0;" x1="51.5" x2="560.5" y1="1362.4141" y2="1362.4141"/><text fill="#000000" font-family="sans-serif" font-size="13" font-weight="bold" lengthAdjust="spacing" textLength="14" x="63.5" y="1357.5576">29</text><text fill="#000000" font-family="sans-serif" font-size="13" lengthAdjust="spacing" textLength="254" x="81.5" y="1357.5576">Shows the data and requests a confirmation</text><polygon fill="#181818" points="544.5,1388.7656,554.5,1392.7656,544.5,1396.7656,548.5,1392.7656" style="stroke:#181818;stroke-width:1.0;"/><line style="stroke:#181818;stroke-width:1.0;" x1="46.5" x2="550.5" y1="1392.7656" y2="1392.7656"/><text fill="#000000" font-family="sans-serif" font-size="13" font-weight="bold" lengthAdjust="spacing" textLength="14" x="53.5" y="1387.9092">30</text><text fill="#000000" font-family="sans-serif" font-size="13" lengthAdjust="spacing" textLength="80" x="71.5" y="1387.9092">Confirms data</text><polygon fill="#181818" points="950.5,1419.1172,960.5,1423.1172,950.5,1427.1172,954.5,1423.1172" style="stroke:#181818;stroke-width:1.0;"/><line style="stroke:#181818;stroke-width:1.0;" x1="566.5" x2="956.5" y1="1423.1172" y2="1423.1172"/><text fill="#000000" font-family="sans-serif" font-size="13" font-weight="bold" lengthAdjust="spacing" textLength="14" x="573.5" y="1418.2607">31</text><text fill="#000000" font-family="sans-serif" font-size="13" lengthAdjust="spacing" textLength="359" x="591.5" y="1418.2607">registerVaccineAdministration(snsUser,vaccineAdministration)</text><polygon fill="#181818" points="2264.5,1449.4688,2274.5,1453.4688,2264.5,1457.4688,2268.5,1453.4688" style="stroke:#181818;stroke-width:1.0;"/><line style="stroke:#181818;stroke-width:1.0;" x1="972.5" x2="2270.5" y1="1453.4688" y2="1453.4688"/><text fill="#000000" font-family="sans-serif" font-size="13" font-weight="bold" lengthAdjust="spacing" textLength="14" x="979.5" y="1448.6123">32</text><text fill="#000000" font-family="sans-serif" font-size="13" lengthAdjust="spacing" textLength="307" x="997.5" y="1448.6123">registerVaccineAdministration(vaccineAdministration)</text><polygon fill="#181818" points="52.5,1509.8203,42.5,1513.8203,52.5,1517.8203,48.5,1513.8203" style="stroke:#181818;stroke-width:1.0;"/><line style="stroke:#181818;stroke-width:1.0;stroke-dasharray:2.0,2.0;" x1="46.5" x2="560.5" y1="1513.8203" y2="1513.8203"/><text fill="#000000" font-family="sans-serif" font-size="13" font-weight="bold" lengthAdjust="spacing" textLength="14" x="58.5" y="1508.9639">33</text><text fill="#000000" font-family="sans-serif" font-size="13" lengthAdjust="spacing" textLength="152" x="76.5" y="1508.9639">Informs operation success</text><!--MD5=[1140e524629d098e8ad96a92663e6811]
@startuml

autonumber
actor "Nurse" as NUR
actor AdministerVaccineUI as UI


activate NUR
NUR -> UI : Administer a vaccine
activate UI
UI -> Controller : validateUserSession()
activate Controller
Controller -> App: app=getInstance()
activate App
deactivate App
Controller -> "app : App": session = getCurrentUserSession()
activate "app : App"
deactivate "app : App"
Controller -> "session : UserSession": answer = isLoggedInWithRole(ROLE_NURSE)
activate "session : UserSession"
deactivate "session : UserSession"
deactivate Controller
alt answer = true
UI -> Controller : getListOfWaitingRoomUsers()
activate Controller
Controller -> "app : App" : getPlatform()
activate "app : App"
deactivate "app : App"
Controller -> "platform : Platform" : getRegisterEmployee()
activate "platform : Platform"
deactivate "platform : Platform"
Controller -> RegisterEmployee: getWorkingVaccinationCenter(email)
activate RegisterEmployee
RegisterEmployee -> Employee: getWorkingVaccinationCenter()
activate Employee
deactivate Employee
deactivate RegisterEmployee
Controller -> VaccinationCenter : getWaitingRoomSNSUsers()
activate VaccinationCenter
deactivate VaccinationCenter
deactivate Controller
UI - -> NUR : Shows a list of users in the waiting room and asks the nurse to select one

deactivate UI
NUR - -> UI: Selects a user
activate UI
UI-> Controller: getAvailableVaccines()
activate Controller
Controller-> VaccinationCenter : getVaccineScheduleFromUser(snsUser)
activate VaccinationCenter
deactivate VaccinationCenter
Controller -> VaccineSchedule : getVaccineType()
activate VaccineSchedule
deactivate VaccineSchedule
Controller -> VaccinationCenter: getAvailableVaccines(vaccineType)
activate VaccinationCenter
deactivate VaccinationCenter
deactivate Controller
UI - -> NUR :  Displays available vaccines and asks the nurse for the lot number
deactivate UI

NUR -> UI : Registers brand and the lot number
activate UI
UI-> Controller: getVaccineAdministrationProcess(vaccine)
activate Controller
Controller -> Vaccine : getVaccineAdministrationProcess()
activate Vaccine
deactivate Vaccine
deactivate Controller
UI -> Controller: getAdverseReactions()
activate Controller
Controller -> SNSUser : getAdverseReactions()
activate SNSUser
deactivate SNSUser
deactivate Controller
UI - -> NUR : Displays user health data, vaccine dosage and previous vaccination (if applicable)
deactivate UI


NUR - -> UI: Continue

activate UI
UI->Controller: createVaccineAdministration(snsUser,vaccine,lotNumber)
activate Controller
Controller -> VaccinationCenter: createVaccineAdministration(snsUser,vaccineType,vaccine,lotNumber)
activate VaccinationCenter
VaccinationCenter -> VaccineAdministration** : createVaccinaAdministration(vaccine,lotNumber)
deactivate VaccinationCenter
deactivate Controller
UI - -> NUR : Shows the data and requests a confirmation
deactivate UI

NUR -> UI : Confirms data
activate UI
UI->Controller: registerVaccineAdministration(snsUser,vaccineAdministration)
activate Controller
Controller-> SNSUser: registerVaccineAdministration(vaccineAdministration)
activate SNSUser
deactivate SNSUser
deactivate Controller
UI - -> NUR : Informs operation success
deactivate UI
deactivate NUR
end
@enduml

PlantUML version 1.2022.4(Sat Apr 09 14:29:17 BST 2022)
(GPL source distribution)
Java Runtime: OpenJDK Runtime Environment
JVM: OpenJDK 64-Bit Server VM
Default Encoding: Cp1252
Language: pt
Country: PT
--></g></svg>