<?xml version="1.0" encoding="UTF-8" standalone="no"?><svg xmlns="http://www.w3.org/2000/svg" xmlns:xlink="http://www.w3.org/1999/xlink" contentStyleType="text/css" height="669px" preserveAspectRatio="none" style="width:1064px;height:669px;background:#FFFFFF;" version="1.1" viewBox="0 0 1064 669" width="1064px" zoomAndPan="magnify"><defs/><g><!--MD5=[da547346deef918ea16944ba046651ef]
class Administrator--><g id="elem_Administrator"><rect codeLine="10" fill="#F1F1F1" height="44.6406" id="Administrator" rx="2.5" ry="2.5" style="stroke:#181818;stroke-width:0.5;" width="140" x="645" y="7"/><ellipse cx="660" cy="25.3203" fill="#ADD1B2" rx="11" ry="11" style="stroke:#181818;stroke-width:1.0;"/><path d="M662,21.8203 Q662.2031,21.3203 662.4375,21.0703 Q662.6719,20.8203 662.9375,20.8203 Q663.4063,20.8203 663.7031,21.1016 Q664,21.3828 664,22.0391 L664,23.6016 Q664,24.2578 663.7188,24.5391 Q663.4375,24.8203 663,24.8203 Q662.6094,24.8203 662.3594,24.6484 Q662.1094,24.4766 662,24.0234 Q661.9531,23.7109 661.7813,23.5391 Q661.4688,23.2109 660.9063,23.0234 Q660.3438,22.8203 659.7813,22.8203 Q659.0781,22.8203 658.4844,23.1016 Q657.9063,23.3828 657.4531,24.0078 Q657,24.6328 657,25.4922 L657,26.4141 Q657,27.4453 657.8438,28.1328 Q658.6875,28.8203 660.1875,28.8203 Q661.0781,28.8203 661.7031,28.6172 Q662.0625,28.5078 662.4688,28.1484 Q662.7344,27.9453 662.875,27.8828 Q663.0156,27.8203 663.1875,27.8203 Q663.5156,27.8203 663.75,28.0859 Q664,28.3359 664,28.6953 Q664,29.0391 663.6563,29.4453 Q663.1563,30.0391 662.3594,30.3672 Q661.3125,30.8203 660.0313,30.8203 Q658.5313,30.8203 657.3281,30.2266 Q656.3594,29.7578 655.6719,28.7422 Q655,27.7266 655,26.5234 L655,25.4297 Q655,24.1797 655.5938,23.0859 Q656.2031,21.9922 657.25,21.4141 Q658.3125,20.8203 659.5,20.8203 Q660.2188,20.8203 660.8438,21.0703 Q661.4688,21.3203 662,21.8203 Z " fill="#000000"/><text fill="#000000" font-family="sans-serif" font-size="18" lengthAdjust="spacing" textLength="104" x="676" y="32.6855">Administrator</text><line style="stroke:#181818;stroke-width:0.5;" x1="646" x2="784" y1="43.6406" y2="43.6406"/></g><!--MD5=[02e4b9b7573f1156f41e60aa5b4e25a4]
class Company--><g id="elem_Company"><rect codeLine="14" fill="#F1F1F1" height="71.2813" id="Company" rx="2.5" ry="2.5" style="stroke:#181818;stroke-width:0.5;" width="114" x="7" y="205"/><ellipse cx="22.9" cy="223.3203" fill="#ADD1B2" rx="11" ry="11" style="stroke:#181818;stroke-width:1.0;"/><path d="M24.9,219.8203 Q25.1031,219.3203 25.3375,219.0703 Q25.5719,218.8203 25.8375,218.8203 Q26.3063,218.8203 26.6031,219.1016 Q26.9,219.3828 26.9,220.0391 L26.9,221.6016 Q26.9,222.2578 26.6188,222.5391 Q26.3375,222.8203 25.9,222.8203 Q25.5094,222.8203 25.2594,222.6484 Q25.0094,222.4766 24.9,222.0234 Q24.8531,221.7109 24.6813,221.5391 Q24.3688,221.2109 23.8063,221.0234 Q23.2438,220.8203 22.6813,220.8203 Q21.9781,220.8203 21.3844,221.1016 Q20.8063,221.3828 20.3531,222.0078 Q19.9,222.6328 19.9,223.4922 L19.9,224.4141 Q19.9,225.4453 20.7438,226.1328 Q21.5875,226.8203 23.0875,226.8203 Q23.9781,226.8203 24.6031,226.6172 Q24.9625,226.5078 25.3688,226.1484 Q25.6344,225.9453 25.775,225.8828 Q25.9156,225.8203 26.0875,225.8203 Q26.4156,225.8203 26.65,226.0859 Q26.9,226.3359 26.9,226.6953 Q26.9,227.0391 26.5563,227.4453 Q26.0563,228.0391 25.2594,228.3672 Q24.2125,228.8203 22.9313,228.8203 Q21.4313,228.8203 20.2281,228.2266 Q19.2594,227.7578 18.5719,226.7422 Q17.9,225.7266 17.9,224.5234 L17.9,223.4297 Q17.9,222.1797 18.4938,221.0859 Q19.1031,219.9922 20.15,219.4141 Q21.2125,218.8203 22.4,218.8203 Q23.1188,218.8203 23.7438,219.0703 Q24.3688,219.3203 24.9,219.8203 Z " fill="#000000"/><text fill="#000000" font-family="sans-serif" font-size="18" lengthAdjust="spacing" textLength="76" x="39.1" y="230.6855">Company</text><line style="stroke:#181818;stroke-width:0.5;" x1="8" x2="120" y1="241.6406" y2="241.6406"/><text fill="#000000" font-family="sans-serif" font-size="18" lengthAdjust="spacing" textLength="98" x="15" y="266.3262">-designation</text></g><!--MD5=[99b8db98afdc2c8404e39242ef4c1e65]
class Platform--><g id="elem_Platform"><rect codeLine="18" fill="#F1F1F1" height="71.2813" id="Platform" rx="2.5" ry="2.5" style="stroke:#181818;stroke-width:0.5;" width="109" x="318" y="400"/><ellipse cx="336.15" cy="418.3203" fill="#ADD1B2" rx="11" ry="11" style="stroke:#181818;stroke-width:1.0;"/><path d="M338.15,414.8203 Q338.3531,414.3203 338.5875,414.0703 Q338.8219,413.8203 339.0875,413.8203 Q339.5563,413.8203 339.8531,414.1016 Q340.15,414.3828 340.15,415.0391 L340.15,416.6016 Q340.15,417.2578 339.8688,417.5391 Q339.5875,417.8203 339.15,417.8203 Q338.7594,417.8203 338.5094,417.6484 Q338.2594,417.4766 338.15,417.0234 Q338.1031,416.7109 337.9313,416.5391 Q337.6188,416.2109 337.0563,416.0234 Q336.4938,415.8203 335.9313,415.8203 Q335.2281,415.8203 334.6344,416.1016 Q334.0563,416.3828 333.6031,417.0078 Q333.15,417.6328 333.15,418.4922 L333.15,419.4141 Q333.15,420.4453 333.9938,421.1328 Q334.8375,421.8203 336.3375,421.8203 Q337.2281,421.8203 337.8531,421.6172 Q338.2125,421.5078 338.6188,421.1484 Q338.8844,420.9453 339.025,420.8828 Q339.1656,420.8203 339.3375,420.8203 Q339.6656,420.8203 339.9,421.0859 Q340.15,421.3359 340.15,421.6953 Q340.15,422.0391 339.8063,422.4453 Q339.3063,423.0391 338.5094,423.3672 Q337.4625,423.8203 336.1813,423.8203 Q334.6813,423.8203 333.4781,423.2266 Q332.5094,422.7578 331.8219,421.7422 Q331.15,420.7266 331.15,419.5234 L331.15,418.4297 Q331.15,417.1797 331.7438,416.0859 Q332.3531,414.9922 333.4,414.4141 Q334.4625,413.8203 335.65,413.8203 Q336.3688,413.8203 336.9938,414.0703 Q337.6188,414.3203 338.15,414.8203 Z " fill="#000000"/><text fill="#000000" font-family="sans-serif" font-size="18" lengthAdjust="spacing" textLength="66" x="352.85" y="425.6855">Platform</text><line style="stroke:#181818;stroke-width:0.5;" x1="319" x2="426" y1="436.6406" y2="436.6406"/><text fill="#000000" font-family="sans-serif" font-size="18" lengthAdjust="spacing" textLength="93" x="326" y="461.3262">-description</text></g><!--MD5=[78bec0fde86ad92ec1dc3fb343b83709]
class Email--><g id="elem_Email"><rect codeLine="22" fill="#F1F1F1" height="71.2813" id="Email" rx="2.5" ry="2.5" style="stroke:#181818;stroke-width:0.5;" width="80" x="675" y="325"/><ellipse cx="690" cy="343.3203" fill="#ADD1B2" rx="11" ry="11" style="stroke:#181818;stroke-width:1.0;"/><path d="M692,339.8203 Q692.2031,339.3203 692.4375,339.0703 Q692.6719,338.8203 692.9375,338.8203 Q693.4063,338.8203 693.7031,339.1016 Q694,339.3828 694,340.0391 L694,341.6016 Q694,342.2578 693.7188,342.5391 Q693.4375,342.8203 693,342.8203 Q692.6094,342.8203 692.3594,342.6484 Q692.1094,342.4766 692,342.0234 Q691.9531,341.7109 691.7813,341.5391 Q691.4688,341.2109 690.9063,341.0234 Q690.3438,340.8203 689.7813,340.8203 Q689.0781,340.8203 688.4844,341.1016 Q687.9063,341.3828 687.4531,342.0078 Q687,342.6328 687,343.4922 L687,344.4141 Q687,345.4453 687.8438,346.1328 Q688.6875,346.8203 690.1875,346.8203 Q691.0781,346.8203 691.7031,346.6172 Q692.0625,346.5078 692.4688,346.1484 Q692.7344,345.9453 692.875,345.8828 Q693.0156,345.8203 693.1875,345.8203 Q693.5156,345.8203 693.75,346.0859 Q694,346.3359 694,346.6953 Q694,347.0391 693.6563,347.4453 Q693.1563,348.0391 692.3594,348.3672 Q691.3125,348.8203 690.0313,348.8203 Q688.5313,348.8203 687.3281,348.2266 Q686.3594,347.7578 685.6719,346.7422 Q685,345.7266 685,344.5234 L685,343.4297 Q685,342.1797 685.5938,341.0859 Q686.2031,339.9922 687.25,339.4141 Q688.3125,338.8203 689.5,338.8203 Q690.2188,338.8203 690.8438,339.0703 Q691.4688,339.3203 692,339.8203 Z " fill="#000000"/><text fill="#000000" font-family="sans-serif" font-size="18" lengthAdjust="spacing" textLength="44" x="706" y="350.6855">Email</text><line style="stroke:#181818;stroke-width:0.5;" x1="676" x2="754" y1="361.6406" y2="361.6406"/><text fill="#000000" font-family="sans-serif" font-size="18" lengthAdjust="spacing" textLength="48" x="683" y="386.3262">-email</text></g><!--MD5=[2f01b1126ff33a0669651ec2488a5ef9]
class Password--><g id="elem_Password"><rect codeLine="27" fill="#F1F1F1" height="71.2813" id="Password" rx="2.5" ry="2.5" style="stroke:#181818;stroke-width:0.5;" width="115" x="942" y="299"/><ellipse cx="957" cy="317.3203" fill="#ADD1B2" rx="11" ry="11" style="stroke:#181818;stroke-width:1.0;"/><path d="M959,313.8203 Q959.2031,313.3203 959.4375,313.0703 Q959.6719,312.8203 959.9375,312.8203 Q960.4063,312.8203 960.7031,313.1016 Q961,313.3828 961,314.0391 L961,315.6016 Q961,316.2578 960.7188,316.5391 Q960.4375,316.8203 960,316.8203 Q959.6094,316.8203 959.3594,316.6484 Q959.1094,316.4766 959,316.0234 Q958.9531,315.7109 958.7813,315.5391 Q958.4688,315.2109 957.9063,315.0234 Q957.3438,314.8203 956.7813,314.8203 Q956.0781,314.8203 955.4844,315.1016 Q954.9063,315.3828 954.4531,316.0078 Q954,316.6328 954,317.4922 L954,318.4141 Q954,319.4453 954.8438,320.1328 Q955.6875,320.8203 957.1875,320.8203 Q958.0781,320.8203 958.7031,320.6172 Q959.0625,320.5078 959.4688,320.1484 Q959.7344,319.9453 959.875,319.8828 Q960.0156,319.8203 960.1875,319.8203 Q960.5156,319.8203 960.75,320.0859 Q961,320.3359 961,320.6953 Q961,321.0391 960.6563,321.4453 Q960.1563,322.0391 959.3594,322.3672 Q958.3125,322.8203 957.0313,322.8203 Q955.5313,322.8203 954.3281,322.2266 Q953.3594,321.7578 952.6719,320.7422 Q952,319.7266 952,318.5234 L952,317.4297 Q952,316.1797 952.5938,315.0859 Q953.2031,313.9922 954.25,313.4141 Q955.3125,312.8203 956.5,312.8203 Q957.2188,312.8203 957.8438,313.0703 Q958.4688,313.3203 959,313.8203 Z " fill="#000000"/><text fill="#000000" font-family="sans-serif" font-size="18" lengthAdjust="spacing" textLength="79" x="973" y="324.6855">Password</text><line style="stroke:#181818;stroke-width:0.5;" x1="943" x2="1056" y1="335.6406" y2="335.6406"/><text fill="#000000" font-family="sans-serif" font-size="18" lengthAdjust="spacing" textLength="83" x="950" y="360.3262">-password</text></g><!--MD5=[3fd616f346a44cd59a91eb10b19e157c]
class User--><g id="elem_User"><rect codeLine="31" fill="#F1F1F1" height="151.2031" id="User" rx="2.5" ry="2.5" style="stroke:#181818;stroke-width:0.5;" width="99" x="323" y="165"/><ellipse cx="349.25" cy="183.3203" fill="#ADD1B2" rx="11" ry="11" style="stroke:#181818;stroke-width:1.0;"/><path d="M351.25,179.8203 Q351.4531,179.3203 351.6875,179.0703 Q351.9219,178.8203 352.1875,178.8203 Q352.6563,178.8203 352.9531,179.1016 Q353.25,179.3828 353.25,180.0391 L353.25,181.6016 Q353.25,182.2578 352.9688,182.5391 Q352.6875,182.8203 352.25,182.8203 Q351.8594,182.8203 351.6094,182.6484 Q351.3594,182.4766 351.25,182.0234 Q351.2031,181.7109 351.0313,181.5391 Q350.7188,181.2109 350.1563,181.0234 Q349.5938,180.8203 349.0313,180.8203 Q348.3281,180.8203 347.7344,181.1016 Q347.1563,181.3828 346.7031,182.0078 Q346.25,182.6328 346.25,183.4922 L346.25,184.4141 Q346.25,185.4453 347.0938,186.1328 Q347.9375,186.8203 349.4375,186.8203 Q350.3281,186.8203 350.9531,186.6172 Q351.3125,186.5078 351.7188,186.1484 Q351.9844,185.9453 352.125,185.8828 Q352.2656,185.8203 352.4375,185.8203 Q352.7656,185.8203 353,186.0859 Q353.25,186.3359 353.25,186.6953 Q353.25,187.0391 352.9063,187.4453 Q352.4063,188.0391 351.6094,188.3672 Q350.5625,188.8203 349.2813,188.8203 Q347.7813,188.8203 346.5781,188.2266 Q345.6094,187.7578 344.9219,186.7422 Q344.25,185.7266 344.25,184.5234 L344.25,183.4297 Q344.25,182.1797 344.8438,181.0859 Q345.4531,179.9922 346.5,179.4141 Q347.5625,178.8203 348.75,178.8203 Q349.4688,178.8203 350.0938,179.0703 Q350.7188,179.3203 351.25,179.8203 Z " fill="#000000"/><text fill="#000000" font-family="sans-serif" font-size="18" lengthAdjust="spacing" textLength="38" x="367.75" y="190.6855">User</text><line style="stroke:#181818;stroke-width:0.5;" x1="324" x2="421" y1="201.6406" y2="201.6406"/><text fill="#000000" font-family="sans-serif" font-size="18" lengthAdjust="spacing" textLength="20" x="331" y="226.3262">-id</text><text fill="#000000" font-family="sans-serif" font-size="18" lengthAdjust="spacing" textLength="83" x="331" y="252.9668">-password</text><text fill="#000000" font-family="sans-serif" font-size="18" lengthAdjust="spacing" textLength="50" x="331" y="279.6074">-name</text><text fill="#000000" font-family="sans-serif" font-size="18" lengthAdjust="spacing" textLength="45" x="331" y="306.248">-roles</text></g><!--MD5=[45d42ff7800d812d5f83c7d3273eb427]
class UserRole--><g id="elem_UserRole"><rect codeLine="38" fill="#F1F1F1" height="97.9219" id="UserRole" rx="2.5" ry="2.5" style="stroke:#181818;stroke-width:0.5;" width="111" x="659.5" y="191.5"/><ellipse cx="674.5" cy="209.8203" fill="#ADD1B2" rx="11" ry="11" style="stroke:#181818;stroke-width:1.0;"/><path d="M676.5,206.3203 Q676.7031,205.8203 676.9375,205.5703 Q677.1719,205.3203 677.4375,205.3203 Q677.9063,205.3203 678.2031,205.6016 Q678.5,205.8828 678.5,206.5391 L678.5,208.1016 Q678.5,208.7578 678.2188,209.0391 Q677.9375,209.3203 677.5,209.3203 Q677.1094,209.3203 676.8594,209.1484 Q676.6094,208.9766 676.5,208.5234 Q676.4531,208.2109 676.2813,208.0391 Q675.9688,207.7109 675.4063,207.5234 Q674.8438,207.3203 674.2813,207.3203 Q673.5781,207.3203 672.9844,207.6016 Q672.4063,207.8828 671.9531,208.5078 Q671.5,209.1328 671.5,209.9922 L671.5,210.9141 Q671.5,211.9453 672.3438,212.6328 Q673.1875,213.3203 674.6875,213.3203 Q675.5781,213.3203 676.2031,213.1172 Q676.5625,213.0078 676.9688,212.6484 Q677.2344,212.4453 677.375,212.3828 Q677.5156,212.3203 677.6875,212.3203 Q678.0156,212.3203 678.25,212.5859 Q678.5,212.8359 678.5,213.1953 Q678.5,213.5391 678.1563,213.9453 Q677.6563,214.5391 676.8594,214.8672 Q675.8125,215.3203 674.5313,215.3203 Q673.0313,215.3203 671.8281,214.7266 Q670.8594,214.2578 670.1719,213.2422 Q669.5,212.2266 669.5,211.0234 L669.5,209.9297 Q669.5,208.6797 670.0938,207.5859 Q670.7031,206.4922 671.75,205.9141 Q672.8125,205.3203 674,205.3203 Q674.7188,205.3203 675.3438,205.5703 Q675.9688,205.8203 676.5,206.3203 Z " fill="#000000"/><text fill="#000000" font-family="sans-serif" font-size="18" lengthAdjust="spacing" textLength="75" x="690.5" y="217.1855">UserRole</text><line style="stroke:#181818;stroke-width:0.5;" x1="660.5" x2="769.5" y1="228.1406" y2="228.1406"/><text fill="#000000" font-family="sans-serif" font-size="18" lengthAdjust="spacing" textLength="20" x="667.5" y="252.8262">-id</text><text fill="#000000" font-family="sans-serif" font-size="18" lengthAdjust="spacing" textLength="93" x="667.5" y="279.4668">-description</text></g><!--MD5=[72be06cc7ae02ccc98efe28a50e62246]
class SNSUser--><g id="elem_SNSUser"><rect codeLine="43" fill="#F1F1F1" height="231.125" id="SNSUser" rx="2.5" ry="2.5" style="stroke:#181818;stroke-width:0.5;" width="174" x="628" y="431"/><ellipse cx="671.35" cy="449.3203" fill="#ADD1B2" rx="11" ry="11" style="stroke:#181818;stroke-width:1.0;"/><path d="M673.35,445.8203 Q673.5531,445.3203 673.7875,445.0703 Q674.0219,444.8203 674.2875,444.8203 Q674.7563,444.8203 675.0531,445.1016 Q675.35,445.3828 675.35,446.0391 L675.35,447.6016 Q675.35,448.2578 675.0688,448.5391 Q674.7875,448.8203 674.35,448.8203 Q673.9594,448.8203 673.7094,448.6484 Q673.4594,448.4766 673.35,448.0234 Q673.3031,447.7109 673.1313,447.5391 Q672.8188,447.2109 672.2563,447.0234 Q671.6938,446.8203 671.1313,446.8203 Q670.4281,446.8203 669.8344,447.1016 Q669.2563,447.3828 668.8031,448.0078 Q668.35,448.6328 668.35,449.4922 L668.35,450.4141 Q668.35,451.4453 669.1938,452.1328 Q670.0375,452.8203 671.5375,452.8203 Q672.4281,452.8203 673.0531,452.6172 Q673.4125,452.5078 673.8188,452.1484 Q674.0844,451.9453 674.225,451.8828 Q674.3656,451.8203 674.5375,451.8203 Q674.8656,451.8203 675.1,452.0859 Q675.35,452.3359 675.35,452.6953 Q675.35,453.0391 675.0063,453.4453 Q674.5063,454.0391 673.7094,454.3672 Q672.6625,454.8203 671.3813,454.8203 Q669.8813,454.8203 668.6781,454.2266 Q667.7094,453.7578 667.0219,452.7422 Q666.35,451.7266 666.35,450.5234 L666.35,449.4297 Q666.35,448.1797 666.9438,447.0859 Q667.5531,445.9922 668.6,445.4141 Q669.6625,444.8203 670.85,444.8203 Q671.5688,444.8203 672.1938,445.0703 Q672.8188,445.3203 673.35,445.8203 Z " fill="#000000"/><text fill="#000000" font-family="sans-serif" font-size="18" lengthAdjust="spacing" textLength="75" x="693.65" y="456.6855">SNSUser</text><line style="stroke:#181818;stroke-width:0.5;" x1="629" x2="801" y1="467.6406" y2="467.6406"/><text fill="#000000" font-family="sans-serif" font-size="18" lengthAdjust="spacing" textLength="50" x="636" y="492.3262">-name</text><text fill="#000000" font-family="sans-serif" font-size="18" lengthAdjust="spacing" textLength="70" x="636" y="518.9668">-address</text><text fill="#000000" font-family="sans-serif" font-size="18" lengthAdjust="spacing" textLength="62" x="636" y="545.6074">-gender</text><text fill="#000000" font-family="sans-serif" font-size="18" lengthAdjust="spacing" textLength="48" x="636" y="572.248">-email</text><text fill="#000000" font-family="sans-serif" font-size="18" lengthAdjust="spacing" textLength="79" x="636" y="598.8887">-birthDate</text><text fill="#000000" font-family="sans-serif" font-size="18" lengthAdjust="spacing" textLength="135" x="636" y="625.5293">-snsUserNumber</text><text fill="#000000" font-family="sans-serif" font-size="18" lengthAdjust="spacing" textLength="158" x="636" y="652.1699">-citizenCardNumber</text></g><!--MD5=[e6529539d61e4fceb49a82d3c9677c38]
link Company to User--><g id="link_Company_User"><path codeLine="55" d="M121.22,240.5 C178.94,240.5 267.86,240.5 322.71,240.5 " fill="none" id="Company-User" style="stroke:#181818;stroke-width:1.0;"/><polygon fill="#000000" points="181,229.6758,171.9549,226.7369,171.9549,232.6147,181,229.6758" style="stroke:#000000;stroke-width:1.0;"/><text fill="#000000" font-family="sans-serif" font-size="13" lengthAdjust="spacing" textLength="78" x="187" y="234.9951">comprehends</text><text fill="#000000" font-family="sans-serif" font-size="13" lengthAdjust="spacing" textLength="7" x="130.864" y="257.2182">1</text><text fill="#000000" font-family="sans-serif" font-size="13" lengthAdjust="spacing" textLength="5" x="308.0755" y="257.4118">*</text></g><!--MD5=[71da4be24892bfec694db06bf9e3c284]
link Company to Platform--><g id="link_Company_Platform"><path codeLine="57" d="M120.86,276.04 C176.89,311.69 262.58,366.2 317.82,401.35 " fill="none" id="Company-Platform" style="stroke:#181818;stroke-width:1.0;"/><polygon fill="#000000" points="208.7186,300.3597,202.6647,293.0248,199.5095,297.984,208.7186,300.3597" style="stroke:#000000;stroke-width:1.0;"/><text fill="#000000" font-family="sans-serif" font-size="13" lengthAdjust="spacing" textLength="21" x="215.5" y="302.9951">has</text><text fill="#000000" font-family="sans-serif" font-size="13" lengthAdjust="spacing" textLength="7" x="121.0085" y="299.6532">1</text><text fill="#000000" font-family="sans-serif" font-size="13" lengthAdjust="spacing" textLength="7" x="301.1094" y="413.7554">1</text></g><!--MD5=[1f12d177c84922ed4f166f09ee62ceaa]
link User to UserRole--><g id="link_User_UserRole"><path codeLine="58" d="M422.29,240.5 C485.08,240.5 593.89,240.5 659.39,240.5 " fill="none" id="User-UserRole" style="stroke:#181818;stroke-width:1.0;"/><polygon fill="#000000" points="512.5,229.6758,503.4549,226.7369,503.4549,232.6147,512.5,229.6758" style="stroke:#000000;stroke-width:1.0;"/><text fill="#000000" font-family="sans-serif" font-size="13" lengthAdjust="spacing" textLength="31" x="518.5" y="234.9951">plays</text><text fill="#000000" font-family="sans-serif" font-size="13" lengthAdjust="spacing" textLength="7" x="432.0652" y="257.4118">1</text><text fill="#000000" font-family="sans-serif" font-size="13" lengthAdjust="spacing" textLength="20" x="629.5726" y="257.1762">1..*</text></g><!--MD5=[eaea43e34e45c5b9d20b595fc78f1f20]
link Company to Administrator--><g id="link_Company_Administrator"><path codeLine="59" d="M119.85,204.83 C196.28,157.29 340.81,75.15 477,40.5 C532.29,26.43 597.12,24.37 644.99,25.43 " fill="none" id="Company-Administrator" style="stroke:#181818;stroke-width:1.0;"/><polygon fill="#000000" points="362.2315,44.0594,352.722,44.2024,354.6222,49.7646,362.2315,44.0594" style="stroke:#000000;stroke-width:1.0;"/><text fill="#000000" font-family="sans-serif" font-size="13" lengthAdjust="spacing" textLength="21" x="368.5" y="50.9951">has</text><text fill="#000000" font-family="sans-serif" font-size="13" lengthAdjust="spacing" textLength="7" x="119.8186" y="192.1964">1</text><text fill="#000000" font-family="sans-serif" font-size="13" lengthAdjust="spacing" textLength="5" x="629.8405" y="41.6126">*</text></g><!--MD5=[dbc364445409b51c9b407d19a07b4adf]
link User to Email--><g id="link_User_Email"><path codeLine="60" d="M422.29,257.69 C490.32,281.67 612.37,324.68 674.83,346.7 " fill="none" id="User-Email" style="stroke:#181818;stroke-width:1.0;"/><polygon fill="#000000" points="517.2157,270.3379,509.6619,264.5593,507.708,270.1029,517.2157,270.3379" style="stroke:#000000;stroke-width:1.0;"/><text fill="#000000" font-family="sans-serif" font-size="13" lengthAdjust="spacing" textLength="21" x="523.5" y="273.9951">has</text><text fill="#000000" font-family="sans-serif" font-size="13" lengthAdjust="spacing" textLength="7" x="432.0652" y="277.0191">1</text><text fill="#000000" font-family="sans-serif" font-size="13" lengthAdjust="spacing" textLength="7" x="657.9805" y="361.548">1</text></g><!--MD5=[5ab1f46e477a8163e64d30b24bef4255]
link User to Password--><g id="link_User_Password"><path codeLine="61" d="M422.18,217.78 C503.23,183.25 669.94,126.31 802,173.5 C871.56,198.36 934.22,259.61 969.23,298.99 " fill="none" id="User-Password" style="stroke:#181818;stroke-width:1.0;"/><polygon fill="#000000" points="704.9458,146.41,696.4303,142.1747,695.5672,147.9889,704.9458,146.41" style="stroke:#000000;stroke-width:1.0;"/><text fill="#000000" font-family="sans-serif" font-size="13" lengthAdjust="spacing" textLength="21" x="711" y="150.9951">has</text><text fill="#000000" font-family="sans-serif" font-size="13" lengthAdjust="spacing" textLength="7" x="431.9397" y="231.4968">1</text><text fill="#000000" font-family="sans-serif" font-size="13" lengthAdjust="spacing" textLength="7" x="953.6349" y="286.1007">1</text></g><!--MD5=[2956575db37dbf52d5c42183f55a6b9e]
link SNSUser to Password--><g id="link_SNSUser_Password"><path codeLine="62" d="M802.29,481.74 C851.14,445.09 910.36,400.64 950.88,370.23 " fill="none" id="SNSUser-Password" style="stroke:#181818;stroke-width:1.0;"/><polygon fill="#000000" points="860.9991,400.6746,852.0006,403.7531,855.5287,408.4544,860.9991,400.6746" style="stroke:#000000;stroke-width:1.0;"/><text fill="#000000" font-family="sans-serif" font-size="13" lengthAdjust="spacing" textLength="21" x="868" y="408.9951">has</text><text fill="#000000" font-family="sans-serif" font-size="13" lengthAdjust="spacing" textLength="7" x="811.9742" y="492.7097">1</text><text fill="#000000" font-family="sans-serif" font-size="13" lengthAdjust="spacing" textLength="7" x="932.2399" y="393.877">1</text></g><!--MD5=[bea9cf5bb8fe1fc2341769cad6b24660]
link Platform to SNSUser--><g id="link_Platform_SNSUser"><path codeLine="63" d="M420.06,471.17 C437.17,482.74 457.21,494.62 477,502.5 C525.02,521.62 581.86,532.54 627.84,538.71 " fill="none" id="Platform-SNSUser" style="stroke:#181818;stroke-width:1.0;"/><polygon fill="#000000" points="482.7449,490.1301,490.4384,495.7212,492.2555,490.1313,482.7449,490.1301" style="stroke:#000000;stroke-width:1.0;"/><text fill="#000000" font-family="sans-serif" font-size="13" lengthAdjust="spacing" textLength="71" x="498.5" y="496.9951">registered in</text><text fill="#000000" font-family="sans-serif" font-size="13" lengthAdjust="spacing" textLength="7" x="418.5519" y="494.8063">1</text><text fill="#000000" font-family="sans-serif" font-size="13" lengthAdjust="spacing" textLength="5" x="612.963" y="554.4048">*</text></g><!--MD5=[144c07b26b739417c0853cc786ab8ffb]
link User to Administrator--><g id="link_User_Administrator"><path codeLine="64" d="M417.21,164.83 C433.48,142.09 453.73,118.87 477,102.5 C491.09,92.59 580.14,66.55 644.95,48.42 " fill="none" id="User-Administrator" style="stroke:#181818;stroke-width:1.0;"/><polygon fill="#000000" points="486.4521,55.4001,477.0606,56.9,479.7358,62.1337,486.4521,55.4001" style="stroke:#000000;stroke-width:1.0;"/><text fill="#000000" font-family="sans-serif" font-size="13" lengthAdjust="spacing" textLength="82" x="493" y="62.9951">can be of type</text><text fill="#000000" font-family="sans-serif" font-size="13" lengthAdjust="spacing" textLength="7" x="411.9472" y="152.1668">1</text><text fill="#000000" font-family="sans-serif" font-size="13" lengthAdjust="spacing" textLength="7" x="628.1589" y="66.9341">1</text></g><!--MD5=[05dfe93199f32218e2a8e80246c79db0]
link User to SNSUser--><g id="link_User_SNSUser"><path codeLine="65" d="M422.22,288.6 C439.35,305.23 458.86,323.87 477,340.5 C526.13,385.53 582.39,434.53 627.75,473.44 " fill="none" id="User-SNSUser" style="stroke:#181818;stroke-width:1.0;"/><polygon fill="#000000" points="499.7823,326.3323,504.5425,334.5659,508.4729,330.1955,499.7823,326.3323" style="stroke:#000000;stroke-width:1.0;"/><text fill="#000000" font-family="sans-serif" font-size="13" lengthAdjust="spacing" textLength="39" x="514.5" y="334.9951">can be</text><text fill="#000000" font-family="sans-serif" font-size="13" lengthAdjust="spacing" textLength="7" x="431.9853" y="312.2759">1</text><text fill="#000000" font-family="sans-serif" font-size="13" lengthAdjust="spacing" textLength="20" x="598.1512" y="484.1158">1..*</text></g><!--MD5=[e561a6b9746bd3010a4072b3dc9cf4a7]
@startuml


skinparam classAttributeIconSize 0
hide methods

skinparam padding 2
skinparam ranksep 100
skinparam classFontSize 18
left to right direction
class Administrator



class Company {
-designation
}

class Platform{
-description
}

class Email{
-email

}

class Password{
-password
}

class User{
-id
-password
-name
-roles
}

class UserRole{
-id
-description
}

class SNSUser {
-name
-address
-gender
-email
-birthDate
-snsUserNumber
-citizenCardNumber
}



Company "1" - - "*" User :comprehends >

Company "1" - - "1" Platform : has >
User "1" - - "1..*" UserRole : plays >
Company "1" - - "*" Administrator : has >
User "1" - - "1" Email : has >
User "1" - - "1" Password : has >
SNSUser "1" - - "1" Password : has >
Platform "1" - -"*" SNSUser :registered in <
User "1" - - "1" Administrator: can be of type >
User "1" - - "1..*" SNSUser : < can be
@enduml

PlantUML version 1.2022.4(Sat Apr 09 14:29:17 BST 2022)
(GPL source distribution)
Java Runtime: OpenJDK Runtime Environment
JVM: OpenJDK 64-Bit Server VM
Default Encoding: Cp1252
Language: en
Country: US
--></g></svg>