<?xml version="1.0" encoding="UTF-8" standalone="no"?><svg xmlns="http://www.w3.org/2000/svg" xmlns:xlink="http://www.w3.org/1999/xlink" contentScriptType="application/ecmascript" contentStyleType="text/css" height="1396px" preserveAspectRatio="none" style="width:674px;height:1396px;background:#FFFFFF;" version="1.1" viewBox="0 0 674 1396" width="674px" zoomAndPan="magnify"><defs><filter height="300%" id="fv3eaoyhospes" width="300%" x="-1" y="-1"><feGaussianBlur result="blurOut" stdDeviation="2.0"/><feColorMatrix in="blurOut" result="blurOut2" type="matrix" values="0 0 0 0 0 0 0 0 0 0 0 0 0 0 0 0 0 0 .4 0"/><feOffset dx="4.0" dy="4.0" in="blurOut2" result="blurOut3"/><feBlend in="SourceGraphic" in2="blurOut3" mode="normal"/></filter></defs><g><!--MD5=[7421f545a0d8420c5bec41e74b387d9c]
class Employee--><rect codeLine="6" fill="#FEFECE" filter="url(#fv3eaoyhospes)" height="177.4922" id="Employee" style="stroke:#A80036;stroke-width:1.5;" width="115" x="239.5" y="1052"/><ellipse cx="254.5" cy="1070.3203" fill="#ADD1B2" rx="11" ry="11" style="stroke:#A80036;stroke-width:1.0;"/><path d="M256.5,1066.8203 Q256.7031,1066.3203 256.9375,1066.0703 Q257.1719,1065.8203 257.4375,1065.8203 Q257.9063,1065.8203 258.2031,1066.1016 Q258.5,1066.3828 258.5,1067.0391 L258.5,1068.6016 Q258.5,1069.2578 258.2188,1069.5391 Q257.9375,1069.8203 257.5,1069.8203 Q257.1094,1069.8203 256.8594,1069.6484 Q256.6094,1069.4766 256.5,1069.0234 Q256.4531,1068.7109 256.2813,1068.5391 Q255.9688,1068.2109 255.4063,1068.0234 Q254.8438,1067.8203 254.2813,1067.8203 Q253.5781,1067.8203 252.9844,1068.1016 Q252.4063,1068.3828 251.9531,1069.0078 Q251.5,1069.6328 251.5,1070.4922 L251.5,1071.4141 Q251.5,1072.4453 252.3438,1073.1328 Q253.1875,1073.8203 254.6875,1073.8203 Q255.5781,1073.8203 256.2031,1073.6172 Q256.5625,1073.5078 256.9688,1073.1484 Q257.2344,1072.9453 257.375,1072.8828 Q257.5156,1072.8203 257.6875,1072.8203 Q258.0156,1072.8203 258.25,1073.0859 Q258.5,1073.3359 258.5,1073.6953 Q258.5,1074.0391 258.1563,1074.4453 Q257.6563,1075.0391 256.8594,1075.3672 Q255.8125,1075.8203 254.5313,1075.8203 Q253.0313,1075.8203 251.8281,1075.2266 Q250.8594,1074.7578 250.1719,1073.7422 Q249.5,1072.7266 249.5,1071.5234 L249.5,1070.4297 Q249.5,1069.1797 250.0938,1068.0859 Q250.7031,1066.9922 251.75,1066.4141 Q252.8125,1065.8203 254,1065.8203 Q254.7188,1065.8203 255.3438,1066.0703 Q255.9688,1066.3203 256.5,1066.8203 Z " fill="#000000"/><text fill="#000000" font-family="sans-serif" font-size="18" lengthAdjust="spacing" textLength="79" x="270.5" y="1077.6855">Employee</text><line style="stroke:#A80036;stroke-width:1.5;" x1="240.5" x2="353.5" y1="1088.6406" y2="1088.6406"/><text fill="#000000" font-family="sans-serif" font-size="11" lengthAdjust="spacing" textLength="30" x="247.5" y="1106.0596">-name</text><text fill="#000000" font-family="sans-serif" font-size="11" lengthAdjust="spacing" textLength="38" x="247.5" y="1123.8955">-adress</text><text fill="#000000" font-family="sans-serif" font-size="11" lengthAdjust="spacing" textLength="71" x="247.5" y="1141.7314">-phoneNumber</text><text fill="#000000" font-family="sans-serif" font-size="11" lengthAdjust="spacing" textLength="64" x="247.5" y="1159.5674">-emailAdress</text><text fill="#000000" font-family="sans-serif" font-size="11" lengthAdjust="spacing" textLength="46" x="247.5" y="1177.4033">-socialSN</text><text fill="#000000" font-family="sans-serif" font-size="11" lengthAdjust="spacing" textLength="50" x="247.5" y="1195.2393">-postCode</text><text fill="#000000" font-family="sans-serif" font-size="11" lengthAdjust="spacing" textLength="21" x="247.5" y="1213.0752">-city</text><line style="stroke:#A80036;stroke-width:1.5;" x1="240.5" x2="353.5" y1="1221.4922" y2="1221.4922"/><!--MD5=[da547346deef918ea16944ba046651ef]
class Administrator--><rect codeLine="17" fill="#FEFECE" filter="url(#fv3eaoyhospes)" height="52.6406" id="Administrator" style="stroke:#A80036;stroke-width:1.5;" width="140" x="7" y="1330"/><ellipse cx="22" cy="1348.3203" fill="#ADD1B2" rx="11" ry="11" style="stroke:#A80036;stroke-width:1.0;"/><path d="M24,1344.8203 Q24.2031,1344.3203 24.4375,1344.0703 Q24.6719,1343.8203 24.9375,1343.8203 Q25.4063,1343.8203 25.7031,1344.1016 Q26,1344.3828 26,1345.0391 L26,1346.6016 Q26,1347.2578 25.7188,1347.5391 Q25.4375,1347.8203 25,1347.8203 Q24.6094,1347.8203 24.3594,1347.6484 Q24.1094,1347.4766 24,1347.0234 Q23.9531,1346.7109 23.7813,1346.5391 Q23.4688,1346.2109 22.9063,1346.0234 Q22.3438,1345.8203 21.7813,1345.8203 Q21.0781,1345.8203 20.4844,1346.1016 Q19.9063,1346.3828 19.4531,1347.0078 Q19,1347.6328 19,1348.4922 L19,1349.4141 Q19,1350.4453 19.8438,1351.1328 Q20.6875,1351.8203 22.1875,1351.8203 Q23.0781,1351.8203 23.7031,1351.6172 Q24.0625,1351.5078 24.4688,1351.1484 Q24.7344,1350.9453 24.875,1350.8828 Q25.0156,1350.8203 25.1875,1350.8203 Q25.5156,1350.8203 25.75,1351.0859 Q26,1351.3359 26,1351.6953 Q26,1352.0391 25.6563,1352.4453 Q25.1563,1353.0391 24.3594,1353.3672 Q23.3125,1353.8203 22.0313,1353.8203 Q20.5313,1353.8203 19.3281,1353.2266 Q18.3594,1352.7578 17.6719,1351.7422 Q17,1350.7266 17,1349.5234 L17,1348.4297 Q17,1347.1797 17.5938,1346.0859 Q18.2031,1344.9922 19.25,1344.4141 Q20.3125,1343.8203 21.5,1343.8203 Q22.2188,1343.8203 22.8438,1344.0703 Q23.4688,1344.3203 24,1344.8203 Z " fill="#000000"/><text fill="#000000" font-family="sans-serif" font-size="18" lengthAdjust="spacing" textLength="104" x="38" y="1355.6855">Administrator</text><line style="stroke:#A80036;stroke-width:1.5;" x1="8" x2="146" y1="1366.6406" y2="1366.6406"/><line style="stroke:#A80036;stroke-width:1.5;" x1="8" x2="146" y1="1374.6406" y2="1374.6406"/><!--MD5=[a059576e163b46f56762f12600c49258]
class Nurse--><rect codeLine="19" fill="#FEFECE" filter="url(#fv3eaoyhospes)" height="52.6406" id="Nurse" style="stroke:#A80036;stroke-width:1.5;" width="84" x="182" y="1330"/><ellipse cx="197" cy="1348.3203" fill="#ADD1B2" rx="11" ry="11" style="stroke:#A80036;stroke-width:1.0;"/><path d="M199,1344.8203 Q199.2031,1344.3203 199.4375,1344.0703 Q199.6719,1343.8203 199.9375,1343.8203 Q200.4063,1343.8203 200.7031,1344.1016 Q201,1344.3828 201,1345.0391 L201,1346.6016 Q201,1347.2578 200.7188,1347.5391 Q200.4375,1347.8203 200,1347.8203 Q199.6094,1347.8203 199.3594,1347.6484 Q199.1094,1347.4766 199,1347.0234 Q198.9531,1346.7109 198.7813,1346.5391 Q198.4688,1346.2109 197.9063,1346.0234 Q197.3438,1345.8203 196.7813,1345.8203 Q196.0781,1345.8203 195.4844,1346.1016 Q194.9063,1346.3828 194.4531,1347.0078 Q194,1347.6328 194,1348.4922 L194,1349.4141 Q194,1350.4453 194.8438,1351.1328 Q195.6875,1351.8203 197.1875,1351.8203 Q198.0781,1351.8203 198.7031,1351.6172 Q199.0625,1351.5078 199.4688,1351.1484 Q199.7344,1350.9453 199.875,1350.8828 Q200.0156,1350.8203 200.1875,1350.8203 Q200.5156,1350.8203 200.75,1351.0859 Q201,1351.3359 201,1351.6953 Q201,1352.0391 200.6563,1352.4453 Q200.1563,1353.0391 199.3594,1353.3672 Q198.3125,1353.8203 197.0313,1353.8203 Q195.5313,1353.8203 194.3281,1353.2266 Q193.3594,1352.7578 192.6719,1351.7422 Q192,1350.7266 192,1349.5234 L192,1348.4297 Q192,1347.1797 192.5938,1346.0859 Q193.2031,1344.9922 194.25,1344.4141 Q195.3125,1343.8203 196.5,1343.8203 Q197.2188,1343.8203 197.8438,1344.0703 Q198.4688,1344.3203 199,1344.8203 Z " fill="#000000"/><text fill="#000000" font-family="sans-serif" font-size="18" lengthAdjust="spacing" textLength="48" x="213" y="1355.6855">Nurse</text><line style="stroke:#A80036;stroke-width:1.5;" x1="183" x2="265" y1="1366.6406" y2="1366.6406"/><line style="stroke:#A80036;stroke-width:1.5;" x1="183" x2="265" y1="1374.6406" y2="1374.6406"/><!--MD5=[8e0ff4fb9ad8e90335f8f7ad6808b682]
class Recepcionist--><rect codeLine="21" fill="#FEFECE" filter="url(#fv3eaoyhospes)" height="52.6406" id="Recepcionist" style="stroke:#A80036;stroke-width:1.5;" width="139" x="301.5" y="1330"/><ellipse cx="316.5" cy="1348.3203" fill="#ADD1B2" rx="11" ry="11" style="stroke:#A80036;stroke-width:1.0;"/><path d="M318.5,1344.8203 Q318.7031,1344.3203 318.9375,1344.0703 Q319.1719,1343.8203 319.4375,1343.8203 Q319.9063,1343.8203 320.2031,1344.1016 Q320.5,1344.3828 320.5,1345.0391 L320.5,1346.6016 Q320.5,1347.2578 320.2188,1347.5391 Q319.9375,1347.8203 319.5,1347.8203 Q319.1094,1347.8203 318.8594,1347.6484 Q318.6094,1347.4766 318.5,1347.0234 Q318.4531,1346.7109 318.2813,1346.5391 Q317.9688,1346.2109 317.4063,1346.0234 Q316.8438,1345.8203 316.2813,1345.8203 Q315.5781,1345.8203 314.9844,1346.1016 Q314.4063,1346.3828 313.9531,1347.0078 Q313.5,1347.6328 313.5,1348.4922 L313.5,1349.4141 Q313.5,1350.4453 314.3438,1351.1328 Q315.1875,1351.8203 316.6875,1351.8203 Q317.5781,1351.8203 318.2031,1351.6172 Q318.5625,1351.5078 318.9688,1351.1484 Q319.2344,1350.9453 319.375,1350.8828 Q319.5156,1350.8203 319.6875,1350.8203 Q320.0156,1350.8203 320.25,1351.0859 Q320.5,1351.3359 320.5,1351.6953 Q320.5,1352.0391 320.1563,1352.4453 Q319.6563,1353.0391 318.8594,1353.3672 Q317.8125,1353.8203 316.5313,1353.8203 Q315.0313,1353.8203 313.8281,1353.2266 Q312.8594,1352.7578 312.1719,1351.7422 Q311.5,1350.7266 311.5,1349.5234 L311.5,1348.4297 Q311.5,1347.1797 312.0938,1346.0859 Q312.7031,1344.9922 313.75,1344.4141 Q314.8125,1343.8203 316,1343.8203 Q316.7188,1343.8203 317.3438,1344.0703 Q317.9688,1344.3203 318.5,1344.8203 Z " fill="#000000"/><text fill="#000000" font-family="sans-serif" font-size="18" lengthAdjust="spacing" textLength="103" x="332.5" y="1355.6855">Recepcionist</text><line style="stroke:#A80036;stroke-width:1.5;" x1="302.5" x2="439.5" y1="1366.6406" y2="1366.6406"/><line style="stroke:#A80036;stroke-width:1.5;" x1="302.5" x2="439.5" y1="1374.6406" y2="1374.6406"/><!--MD5=[2d935fd2dd068a13da1ae531f9857c4f]
class CenterCoordinator--><rect codeLine="24" fill="#FEFECE" filter="url(#fv3eaoyhospes)" height="52.6406" id="CenterCoordinator" style="stroke:#A80036;stroke-width:1.5;" width="184" x="476" y="1330"/><ellipse cx="491" cy="1348.3203" fill="#ADD1B2" rx="11" ry="11" style="stroke:#A80036;stroke-width:1.0;"/><path d="M493,1344.8203 Q493.2031,1344.3203 493.4375,1344.0703 Q493.6719,1343.8203 493.9375,1343.8203 Q494.4063,1343.8203 494.7031,1344.1016 Q495,1344.3828 495,1345.0391 L495,1346.6016 Q495,1347.2578 494.7188,1347.5391 Q494.4375,1347.8203 494,1347.8203 Q493.6094,1347.8203 493.3594,1347.6484 Q493.1094,1347.4766 493,1347.0234 Q492.9531,1346.7109 492.7813,1346.5391 Q492.4688,1346.2109 491.9063,1346.0234 Q491.3438,1345.8203 490.7813,1345.8203 Q490.0781,1345.8203 489.4844,1346.1016 Q488.9063,1346.3828 488.4531,1347.0078 Q488,1347.6328 488,1348.4922 L488,1349.4141 Q488,1350.4453 488.8438,1351.1328 Q489.6875,1351.8203 491.1875,1351.8203 Q492.0781,1351.8203 492.7031,1351.6172 Q493.0625,1351.5078 493.4688,1351.1484 Q493.7344,1350.9453 493.875,1350.8828 Q494.0156,1350.8203 494.1875,1350.8203 Q494.5156,1350.8203 494.75,1351.0859 Q495,1351.3359 495,1351.6953 Q495,1352.0391 494.6563,1352.4453 Q494.1563,1353.0391 493.3594,1353.3672 Q492.3125,1353.8203 491.0313,1353.8203 Q489.5313,1353.8203 488.3281,1353.2266 Q487.3594,1352.7578 486.6719,1351.7422 Q486,1350.7266 486,1349.5234 L486,1348.4297 Q486,1347.1797 486.5938,1346.0859 Q487.2031,1344.9922 488.25,1344.4141 Q489.3125,1343.8203 490.5,1343.8203 Q491.2188,1343.8203 491.8438,1344.0703 Q492.4688,1344.3203 493,1344.8203 Z " fill="#000000"/><text fill="#000000" font-family="sans-serif" font-size="18" lengthAdjust="spacing" textLength="148" x="507" y="1355.6855">CenterCoordinator</text><line style="stroke:#A80036;stroke-width:1.5;" x1="477" x2="659" y1="1366.6406" y2="1366.6406"/><line style="stroke:#A80036;stroke-width:1.5;" x1="477" x2="659" y1="1374.6406" y2="1374.6406"/><!--MD5=[99b8db98afdc2c8404e39242ef4c1e65]
class Platform--><rect codeLine="27" fill="#FEFECE" filter="url(#fv3eaoyhospes)" height="88.3125" id="Platform" style="stroke:#A80036;stroke-width:1.5;" width="131" x="150.5" y="632"/><ellipse cx="178.55" cy="650.3203" fill="#ADD1B2" rx="11" ry="11" style="stroke:#A80036;stroke-width:1.0;"/><path d="M180.55,646.8203 Q180.7531,646.3203 180.9875,646.0703 Q181.2219,645.8203 181.4875,645.8203 Q181.9563,645.8203 182.2531,646.1016 Q182.55,646.3828 182.55,647.0391 L182.55,648.6016 Q182.55,649.2578 182.2688,649.5391 Q181.9875,649.8203 181.55,649.8203 Q181.1594,649.8203 180.9094,649.6484 Q180.6594,649.4766 180.55,649.0234 Q180.5031,648.7109 180.3313,648.5391 Q180.0188,648.2109 179.4563,648.0234 Q178.8938,647.8203 178.3313,647.8203 Q177.6281,647.8203 177.0344,648.1016 Q176.4563,648.3828 176.0031,649.0078 Q175.55,649.6328 175.55,650.4922 L175.55,651.4141 Q175.55,652.4453 176.3938,653.1328 Q177.2375,653.8203 178.7375,653.8203 Q179.6281,653.8203 180.2531,653.6172 Q180.6125,653.5078 181.0188,653.1484 Q181.2844,652.9453 181.425,652.8828 Q181.5656,652.8203 181.7375,652.8203 Q182.0656,652.8203 182.3,653.0859 Q182.55,653.3359 182.55,653.6953 Q182.55,654.0391 182.2063,654.4453 Q181.7063,655.0391 180.9094,655.3672 Q179.8625,655.8203 178.5813,655.8203 Q177.0813,655.8203 175.8781,655.2266 Q174.9094,654.7578 174.2219,653.7422 Q173.55,652.7266 173.55,651.5234 L173.55,650.4297 Q173.55,649.1797 174.1438,648.0859 Q174.7531,646.9922 175.8,646.4141 Q176.8625,645.8203 178.05,645.8203 Q178.7688,645.8203 179.3938,646.0703 Q180.0188,646.3203 180.55,646.8203 Z " fill="#000000"/><text fill="#000000" font-family="sans-serif" font-size="18" lengthAdjust="spacing" textLength="66" x="197.45" y="657.6855">Platform</text><line style="stroke:#A80036;stroke-width:1.5;" x1="151.5" x2="280.5" y1="668.6406" y2="668.6406"/><text fill="#000000" font-family="sans-serif" font-size="11" lengthAdjust="spacing" textLength="59" x="158.5" y="686.0596">-designation</text><line style="stroke:#A80036;stroke-width:1.5;" x1="151.5" x2="280.5" y1="694.4766" y2="694.4766"/><text fill="#000000" font-family="sans-serif" font-size="11" lengthAdjust="spacing" textLength="115" x="158.5" y="711.8955">+getRegisterEmployee()</text><!--MD5=[6192d611e64672e4279d93515d411117]
class ListEmployeeByRoleController--><rect codeLine="35" fill="#FEFECE" filter="url(#fv3eaoyhospes)" height="141.8203" id="ListEmployeeByRoleController" style="stroke:#A80036;stroke-width:1.5;" width="279" x="198.5" y="161"/><ellipse cx="213.5" cy="179.3203" fill="#ADD1B2" rx="11" ry="11" style="stroke:#A80036;stroke-width:1.0;"/><path d="M215.5,175.8203 Q215.7031,175.3203 215.9375,175.0703 Q216.1719,174.8203 216.4375,174.8203 Q216.9063,174.8203 217.2031,175.1016 Q217.5,175.3828 217.5,176.0391 L217.5,177.6016 Q217.5,178.2578 217.2188,178.5391 Q216.9375,178.8203 216.5,178.8203 Q216.1094,178.8203 215.8594,178.6484 Q215.6094,178.4766 215.5,178.0234 Q215.4531,177.7109 215.2813,177.5391 Q214.9688,177.2109 214.4063,177.0234 Q213.8438,176.8203 213.2813,176.8203 Q212.5781,176.8203 211.9844,177.1016 Q211.4063,177.3828 210.9531,178.0078 Q210.5,178.6328 210.5,179.4922 L210.5,180.4141 Q210.5,181.4453 211.3438,182.1328 Q212.1875,182.8203 213.6875,182.8203 Q214.5781,182.8203 215.2031,182.6172 Q215.5625,182.5078 215.9688,182.1484 Q216.2344,181.9453 216.375,181.8828 Q216.5156,181.8203 216.6875,181.8203 Q217.0156,181.8203 217.25,182.0859 Q217.5,182.3359 217.5,182.6953 Q217.5,183.0391 217.1563,183.4453 Q216.6563,184.0391 215.8594,184.3672 Q214.8125,184.8203 213.5313,184.8203 Q212.0313,184.8203 210.8281,184.2266 Q209.8594,183.7578 209.1719,182.7422 Q208.5,181.7266 208.5,180.5234 L208.5,179.4297 Q208.5,178.1797 209.0938,177.0859 Q209.7031,175.9922 210.75,175.4141 Q211.8125,174.8203 213,174.8203 Q213.7188,174.8203 214.3438,175.0703 Q214.9688,175.3203 215.5,175.8203 Z " fill="#000000"/><text fill="#000000" font-family="sans-serif" font-size="18" lengthAdjust="spacing" textLength="243" x="229.5" y="186.6855">ListEmployeeByRoleController</text><line style="stroke:#A80036;stroke-width:1.5;" x1="199.5" x2="476.5" y1="197.6406" y2="197.6406"/><text fill="#000000" font-family="sans-serif" font-size="11" lengthAdjust="spacing" textLength="44" x="206.5" y="215.0596">-m_oApp</text><text fill="#000000" font-family="sans-serif" font-size="11" lengthAdjust="spacing" textLength="63" x="206.5" y="232.8955">-m_oPlatform</text><text fill="#000000" font-family="sans-serif" font-size="11" lengthAdjust="spacing" textLength="69" x="206.5" y="250.7314">-m_oCompany</text><line style="stroke:#A80036;stroke-width:1.5;" x1="199.5" x2="476.5" y1="259.1484" y2="259.1484"/><text fill="#000000" font-family="sans-serif" font-size="11" lengthAdjust="spacing" textLength="83" x="206.5" y="276.5674">+getListofRoles()</text><text fill="#000000" font-family="sans-serif" font-size="11" lengthAdjust="spacing" textLength="177" x="206.5" y="294.4033">+getListEmployeeByRole(roleChoice)</text><!--MD5=[02e4b9b7573f1156f41e60aa5b4e25a4]
class Company--><rect codeLine="43" fill="#FEFECE" filter="url(#fv3eaoyhospes)" height="106.1484" id="Company" style="stroke:#A80036;stroke-width:1.5;" width="112" x="160" y="404"/><ellipse cx="175" cy="422.3203" fill="#ADD1B2" rx="11" ry="11" style="stroke:#A80036;stroke-width:1.0;"/><path d="M177,418.8203 Q177.2031,418.3203 177.4375,418.0703 Q177.6719,417.8203 177.9375,417.8203 Q178.4063,417.8203 178.7031,418.1016 Q179,418.3828 179,419.0391 L179,420.6016 Q179,421.2578 178.7188,421.5391 Q178.4375,421.8203 178,421.8203 Q177.6094,421.8203 177.3594,421.6484 Q177.1094,421.4766 177,421.0234 Q176.9531,420.7109 176.7813,420.5391 Q176.4688,420.2109 175.9063,420.0234 Q175.3438,419.8203 174.7813,419.8203 Q174.0781,419.8203 173.4844,420.1016 Q172.9063,420.3828 172.4531,421.0078 Q172,421.6328 172,422.4922 L172,423.4141 Q172,424.4453 172.8438,425.1328 Q173.6875,425.8203 175.1875,425.8203 Q176.0781,425.8203 176.7031,425.6172 Q177.0625,425.5078 177.4688,425.1484 Q177.7344,424.9453 177.875,424.8828 Q178.0156,424.8203 178.1875,424.8203 Q178.5156,424.8203 178.75,425.0859 Q179,425.3359 179,425.6953 Q179,426.0391 178.6563,426.4453 Q178.1563,427.0391 177.3594,427.3672 Q176.3125,427.8203 175.0313,427.8203 Q173.5313,427.8203 172.3281,427.2266 Q171.3594,426.7578 170.6719,425.7422 Q170,424.7266 170,423.5234 L170,422.4297 Q170,421.1797 170.5938,420.0859 Q171.2031,418.9922 172.25,418.4141 Q173.3125,417.8203 174.5,417.8203 Q175.2188,417.8203 175.8438,418.0703 Q176.4688,418.3203 177,418.8203 Z " fill="#000000"/><text fill="#000000" font-family="sans-serif" font-size="18" lengthAdjust="spacing" textLength="76" x="191" y="429.6855">Company</text><line style="stroke:#A80036;stroke-width:1.5;" x1="161" x2="271" y1="440.6406" y2="440.6406"/><text fill="#000000" font-family="sans-serif" font-size="11" lengthAdjust="spacing" textLength="59" x="168" y="458.0596">-designation</text><line style="stroke:#A80036;stroke-width:1.5;" x1="161" x2="271" y1="466.4766" y2="466.4766"/><text fill="#000000" font-family="sans-serif" font-size="11" lengthAdjust="spacing" textLength="68" x="168" y="483.8955">+getPlatform()</text><text fill="#000000" font-family="sans-serif" font-size="11" lengthAdjust="spacing" textLength="88" x="168" y="501.7314">+getAuthFacade()</text><!--MD5=[1607d1a70f046fb6f069cf8c3b040e6d]
class RegisterEmployee--><rect codeLine="49" fill="#FEFECE" filter="url(#fv3eaoyhospes)" height="88.3125" id="RegisterEmployee" style="stroke:#A80036;stroke-width:1.5;" width="197" x="198.5" y="842"/><ellipse cx="220.25" cy="860.3203" fill="#ADD1B2" rx="11" ry="11" style="stroke:#A80036;stroke-width:1.0;"/><path d="M222.25,856.8203 Q222.4531,856.3203 222.6875,856.0703 Q222.9219,855.8203 223.1875,855.8203 Q223.6563,855.8203 223.9531,856.1016 Q224.25,856.3828 224.25,857.0391 L224.25,858.6016 Q224.25,859.2578 223.9688,859.5391 Q223.6875,859.8203 223.25,859.8203 Q222.8594,859.8203 222.6094,859.6484 Q222.3594,859.4766 222.25,859.0234 Q222.2031,858.7109 222.0313,858.5391 Q221.7188,858.2109 221.1563,858.0234 Q220.5938,857.8203 220.0313,857.8203 Q219.3281,857.8203 218.7344,858.1016 Q218.1563,858.3828 217.7031,859.0078 Q217.25,859.6328 217.25,860.4922 L217.25,861.4141 Q217.25,862.4453 218.0938,863.1328 Q218.9375,863.8203 220.4375,863.8203 Q221.3281,863.8203 221.9531,863.6172 Q222.3125,863.5078 222.7188,863.1484 Q222.9844,862.9453 223.125,862.8828 Q223.2656,862.8203 223.4375,862.8203 Q223.7656,862.8203 224,863.0859 Q224.25,863.3359 224.25,863.6953 Q224.25,864.0391 223.9063,864.4453 Q223.4063,865.0391 222.6094,865.3672 Q221.5625,865.8203 220.2813,865.8203 Q218.7813,865.8203 217.5781,865.2266 Q216.6094,864.7578 215.9219,863.7422 Q215.25,862.7266 215.25,861.5234 L215.25,860.4297 Q215.25,859.1797 215.8438,858.0859 Q216.4531,856.9922 217.5,856.4141 Q218.5625,855.8203 219.75,855.8203 Q220.4688,855.8203 221.0938,856.0703 Q221.7188,856.3203 222.25,856.8203 Z " fill="#000000"/><text fill="#000000" font-family="sans-serif" font-size="18" lengthAdjust="spacing" textLength="146" x="237.75" y="867.6855">RegisterEmployee</text><line style="stroke:#A80036;stroke-width:1.5;" x1="199.5" x2="394.5" y1="878.6406" y2="878.6406"/><text fill="#000000" font-family="sans-serif" font-size="11" lengthAdjust="spacing" textLength="141" x="206.5" y="896.0596">-List&lt;Employee&gt; listEmployee</text><line style="stroke:#A80036;stroke-width:1.5;" x1="199.5" x2="394.5" y1="904.4766" y2="904.4766"/><text fill="#000000" font-family="sans-serif" font-size="11" lengthAdjust="spacing" textLength="181" x="206.5" y="921.8955">+getListEmployeeByRole(roleChoice))</text><!--MD5=[335f4d9be48430461c68bf6d6fdba145]
class App--><rect codeLine="55" fill="#FEFECE" filter="url(#fv3eaoyhospes)" height="106.1484" id="App" style="stroke:#A80036;stroke-width:1.5;" width="143" x="307.5" y="404"/><ellipse cx="357.25" cy="422.3203" fill="#ADD1B2" rx="11" ry="11" style="stroke:#A80036;stroke-width:1.0;"/><path d="M359.25,418.8203 Q359.4531,418.3203 359.6875,418.0703 Q359.9219,417.8203 360.1875,417.8203 Q360.6563,417.8203 360.9531,418.1016 Q361.25,418.3828 361.25,419.0391 L361.25,420.6016 Q361.25,421.2578 360.9688,421.5391 Q360.6875,421.8203 360.25,421.8203 Q359.8594,421.8203 359.6094,421.6484 Q359.3594,421.4766 359.25,421.0234 Q359.2031,420.7109 359.0313,420.5391 Q358.7188,420.2109 358.1563,420.0234 Q357.5938,419.8203 357.0313,419.8203 Q356.3281,419.8203 355.7344,420.1016 Q355.1563,420.3828 354.7031,421.0078 Q354.25,421.6328 354.25,422.4922 L354.25,423.4141 Q354.25,424.4453 355.0938,425.1328 Q355.9375,425.8203 357.4375,425.8203 Q358.3281,425.8203 358.9531,425.6172 Q359.3125,425.5078 359.7188,425.1484 Q359.9844,424.9453 360.125,424.8828 Q360.2656,424.8203 360.4375,424.8203 Q360.7656,424.8203 361,425.0859 Q361.25,425.3359 361.25,425.6953 Q361.25,426.0391 360.9063,426.4453 Q360.4063,427.0391 359.6094,427.3672 Q358.5625,427.8203 357.2813,427.8203 Q355.7813,427.8203 354.5781,427.2266 Q353.6094,426.7578 352.9219,425.7422 Q352.25,424.7266 352.25,423.5234 L352.25,422.4297 Q352.25,421.1797 352.8438,420.0859 Q353.4531,418.9922 354.5,418.4141 Q355.5625,417.8203 356.75,417.8203 Q357.4688,417.8203 358.0938,418.0703 Q358.7188,418.3203 359.25,418.8203 Z " fill="#000000"/><text fill="#000000" font-family="sans-serif" font-size="18" lengthAdjust="spacing" textLength="31" x="379.75" y="429.6855">App</text><line style="stroke:#A80036;stroke-width:1.5;" x1="308.5" x2="449.5" y1="440.6406" y2="440.6406"/><line style="stroke:#A80036;stroke-width:1.5;" x1="308.5" x2="449.5" y1="448.6406" y2="448.6406"/><text fill="#000000" font-family="sans-serif" font-size="11" lengthAdjust="spacing" textLength="74" x="315.5" y="466.0596">+getCompany()</text><text fill="#000000" font-family="sans-serif" font-size="11" lengthAdjust="spacing" textLength="127" x="315.5" y="483.8955">+getCurrentUserSession()</text><text fill="#000000" font-family="sans-serif" font-size="11" lengthAdjust="spacing" text-decoration="underline" textLength="99" x="315.5" y="501.7314">+static getInstance()</text><!--MD5=[8ae808d068a8995f06b9b3ec51357f0b]
class AuthFacade--><rect codeLine="64" fill="#FEFECE" filter="url(#fv3eaoyhospes)" height="70.4766" id="AuthFacade" style="stroke:#A80036;stroke-width:1.5;" width="132" x="422" y="1105.5"/><ellipse cx="437" cy="1123.8203" fill="#ADD1B2" rx="11" ry="11" style="stroke:#A80036;stroke-width:1.0;"/><path d="M439,1120.3203 Q439.2031,1119.8203 439.4375,1119.5703 Q439.6719,1119.3203 439.9375,1119.3203 Q440.4063,1119.3203 440.7031,1119.6016 Q441,1119.8828 441,1120.5391 L441,1122.1016 Q441,1122.7578 440.7188,1123.0391 Q440.4375,1123.3203 440,1123.3203 Q439.6094,1123.3203 439.3594,1123.1484 Q439.1094,1122.9766 439,1122.5234 Q438.9531,1122.2109 438.7813,1122.0391 Q438.4688,1121.7109 437.9063,1121.5234 Q437.3438,1121.3203 436.7813,1121.3203 Q436.0781,1121.3203 435.4844,1121.6016 Q434.9063,1121.8828 434.4531,1122.5078 Q434,1123.1328 434,1123.9922 L434,1124.9141 Q434,1125.9453 434.8438,1126.6328 Q435.6875,1127.3203 437.1875,1127.3203 Q438.0781,1127.3203 438.7031,1127.1172 Q439.0625,1127.0078 439.4688,1126.6484 Q439.7344,1126.4453 439.875,1126.3828 Q440.0156,1126.3203 440.1875,1126.3203 Q440.5156,1126.3203 440.75,1126.5859 Q441,1126.8359 441,1127.1953 Q441,1127.5391 440.6563,1127.9453 Q440.1563,1128.5391 439.3594,1128.8672 Q438.3125,1129.3203 437.0313,1129.3203 Q435.5313,1129.3203 434.3281,1128.7266 Q433.3594,1128.2578 432.6719,1127.2422 Q432,1126.2266 432,1125.0234 L432,1123.9297 Q432,1122.6797 432.5938,1121.5859 Q433.2031,1120.4922 434.25,1119.9141 Q435.3125,1119.3203 436.5,1119.3203 Q437.2188,1119.3203 437.8438,1119.5703 Q438.4688,1119.8203 439,1120.3203 Z " fill="#000000"/><text fill="#000000" font-family="sans-serif" font-size="18" lengthAdjust="spacing" textLength="96" x="453" y="1131.1855">AuthFacade</text><line style="stroke:#A80036;stroke-width:1.5;" x1="423" x2="553" y1="1142.1406" y2="1142.1406"/><line style="stroke:#A80036;stroke-width:1.5;" x1="423" x2="553" y1="1150.1406" y2="1150.1406"/><text fill="#000000" font-family="sans-serif" font-size="11" lengthAdjust="spacing" textLength="79" x="430" y="1167.5596">+getUserRoles()</text><!--MD5=[da2b83d5d9b2078698e36fccabe39e7c]
class ListEmployeeByRoleUI--><rect fill="#FEFECE" filter="url(#fv3eaoyhospes)" height="52.6406" id="ListEmployeeByRoleUI" style="stroke:#A80036;stroke-width:1.5;" width="218" x="229" y="7"/><ellipse cx="244" cy="25.3203" fill="#ADD1B2" rx="11" ry="11" style="stroke:#A80036;stroke-width:1.0;"/><path d="M246,21.8203 Q246.2031,21.3203 246.4375,21.0703 Q246.6719,20.8203 246.9375,20.8203 Q247.4063,20.8203 247.7031,21.1016 Q248,21.3828 248,22.0391 L248,23.6016 Q248,24.2578 247.7188,24.5391 Q247.4375,24.8203 247,24.8203 Q246.6094,24.8203 246.3594,24.6484 Q246.1094,24.4766 246,24.0234 Q245.9531,23.7109 245.7813,23.5391 Q245.4688,23.2109 244.9063,23.0234 Q244.3438,22.8203 243.7813,22.8203 Q243.0781,22.8203 242.4844,23.1016 Q241.9063,23.3828 241.4531,24.0078 Q241,24.6328 241,25.4922 L241,26.4141 Q241,27.4453 241.8438,28.1328 Q242.6875,28.8203 244.1875,28.8203 Q245.0781,28.8203 245.7031,28.6172 Q246.0625,28.5078 246.4688,28.1484 Q246.7344,27.9453 246.875,27.8828 Q247.0156,27.8203 247.1875,27.8203 Q247.5156,27.8203 247.75,28.0859 Q248,28.3359 248,28.6953 Q248,29.0391 247.6563,29.4453 Q247.1563,30.0391 246.3594,30.3672 Q245.3125,30.8203 244.0313,30.8203 Q242.5313,30.8203 241.3281,30.2266 Q240.3594,29.7578 239.6719,28.7422 Q239,27.7266 239,26.5234 L239,25.4297 Q239,24.1797 239.5938,23.0859 Q240.2031,21.9922 241.25,21.4141 Q242.3125,20.8203 243.5,20.8203 Q244.2188,20.8203 244.8438,21.0703 Q245.4688,21.3203 246,21.8203 Z " fill="#000000"/><text fill="#000000" font-family="sans-serif" font-size="18" lengthAdjust="spacing" textLength="182" x="260" y="32.6855">ListEmployeeByRoleUI</text><line style="stroke:#A80036;stroke-width:1.5;" x1="230" x2="446" y1="43.6406" y2="43.6406"/><line style="stroke:#A80036;stroke-width:1.5;" x1="230" x2="446" y1="51.6406" y2="51.6406"/><!--MD5=[6716344a46572fc99c27bf4e50ddbd3d]
reverse link Employee to Nurse--><path codeLine="70" d="M260.51,1248.46 C250.17,1278.78 239.83,1309.1 232.8,1329.69 " fill="none" id="Employee-backto-Nurse" style="stroke:#A80036;stroke-width:1.0;"/><polygon fill="none" points="254.02,1245.83,267.1,1229.16,267.27,1250.35,254.02,1245.83" style="stroke:#A80036;stroke-width:1.0;"/><!--MD5=[98f7f3dc8d9719d04ad14614c4ea123f]
reverse link Employee to CenterCoordinator--><path codeLine="71" d="M370.19,1201.81 C381.47,1210.97 393.02,1220.28 404,1229 C448.63,1264.45 500.86,1304.49 534.17,1329.85 " fill="none" id="Employee-backto-CenterCoordinator" style="stroke:#A80036;stroke-width:1.0;"/><polygon fill="none" points="365.59,1207.09,354.51,1189.03,374.43,1196.24,365.59,1207.09" style="stroke:#A80036;stroke-width:1.0;"/><!--MD5=[a49f0acba1e4281a32127cc4dae52eaa]
reverse link Employee to Recepcionist--><path codeLine="72" d="M333.99,1248.46 C344.47,1278.78 354.96,1309.1 362.08,1329.69 " fill="none" id="Employee-backto-Recepcionist" style="stroke:#A80036;stroke-width:1.0;"/><polygon fill="none" points="327.23,1250.35,327.31,1229.16,340.46,1245.77,327.23,1250.35" style="stroke:#A80036;stroke-width:1.0;"/><!--MD5=[f7fb1bbd8b4f4021e9754ae6fe2871a0]
reverse link Employee to Administrator--><path codeLine="73" d="M225.1,1211.43 C183.33,1252.07 133.19,1300.84 103.27,1329.94 " fill="none" id="Employee-backto-Administrator" style="stroke:#A80036;stroke-width:1.0;"/><polygon fill="none" points="220.27,1206.37,239.48,1197.45,230.03,1216.41,220.27,1206.37" style="stroke:#A80036;stroke-width:1.0;"/><!--MD5=[52d29e2eed9803147261cf155853f536]
link ListEmployeeByRoleController to Company--><path codeLine="74" d="M299.57,303.25 C282.66,334.15 263.06,369.98 247.1,399.16 " fill="none" id="ListEmployeeByRoleController-to-Company" style="stroke:#A80036;stroke-width:1.0;stroke-dasharray:7.0,7.0;"/><polygon fill="#A80036" points="244.57,403.79,252.3994,397.8151,246.9703,399.4038,245.3815,393.9746,244.57,403.79" style="stroke:#A80036;stroke-width:1.0;"/><!--MD5=[bf31b3911faa005f9fc45e6a7b498f6e]
link ListEmployeeByRoleController to App--><path codeLine="75" d="M350.92,303.25 C356.57,334.03 363.13,369.68 368.48,398.8 " fill="none" id="ListEmployeeByRoleController-to-App" style="stroke:#A80036;stroke-width:1.0;stroke-dasharray:7.0,7.0;"/><polygon fill="#A80036" points="369.4,403.79,371.6913,394.2114,368.488,398.8739,363.8255,395.6706,369.4,403.79" style="stroke:#A80036;stroke-width:1.0;"/><!--MD5=[d4d932bbd6d57e4c727aa693129e88ba]
link ListEmployeeByRoleUI to ListEmployeeByRoleController--><path codeLine="76" d="M338,60.19 C338,84.38 338,121.84 338,155.52 " fill="none" id="ListEmployeeByRoleUI-to-ListEmployeeByRoleController" style="stroke:#A80036;stroke-width:1.0;stroke-dasharray:7.0,7.0;"/><polygon fill="#A80036" points="338,160.89,342,151.89,338,155.89,334,151.89,338,160.89" style="stroke:#A80036;stroke-width:1.0;"/><!--MD5=[3a89770c913ac3c1d72d6b38084b257c]
link ListEmployeeByRoleController to Platform--><path codeLine="77" d="M225.82,303.02 C192.49,330.09 160.08,364.23 142,404 C108.13,478.49 150.45,571.75 183.63,627.17 " fill="none" id="ListEmployeeByRoleController-to-Platform" style="stroke:#A80036;stroke-width:1.0;stroke-dasharray:7.0,7.0;"/><polygon fill="#A80036" points="186.4,631.76,185.1373,621.9924,183.8003,627.489,178.3037,626.152,186.4,631.76" style="stroke:#A80036;stroke-width:1.0;"/><!--MD5=[65ab78669025caa71c1834d87cf7bf8d]
link ListEmployeeByRoleController to AuthFacade--><path codeLine="78" d="M426.35,303.45 C465.99,343.27 504,396.88 504,456 C504,456 504,456 504,887 C504,962.44 496.8,1050.3 492.06,1099.96 " fill="none" id="ListEmployeeByRoleController-to-AuthFacade" style="stroke:#A80036;stroke-width:1.0;stroke-dasharray:7.0,7.0;"/><polygon fill="#A80036" points="491.55,1105.24,496.4062,1096.6716,492.0362,1100.2637,488.4441,1095.8937,491.55,1105.24" style="stroke:#A80036;stroke-width:1.0;"/><!--MD5=[9a80ca622aa33540c5ebfb66ac08c660]
link Platform to RegisterEmployee--><path codeLine="79" d="M232.78,720.1 C246.68,755.8 266.34,806.27 280.24,841.96 " fill="none" id="Platform-RegisterEmployee" style="stroke:#A80036;stroke-width:1.0;"/><polygon fill="#000000" points="265.8146,785.8349,265.2706,776.3399,259.7934,778.473,265.8146,785.8349" style="stroke:#000000;stroke-width:1.0;"/><text fill="#000000" font-family="sans-serif" font-size="13" lengthAdjust="spacing" textLength="21" x="275" y="786.4951">has</text><text fill="#000000" font-family="sans-serif" font-size="13" lengthAdjust="spacing" textLength="7" x="225.5073" y="743.8822">1</text><text fill="#000000" font-family="sans-serif" font-size="13" lengthAdjust="spacing" textLength="7" x="267.8314" y="829.1832">1</text><!--MD5=[eab00be0507a9170c24b1176aa61d4c9]
link RegisterEmployee to Employee--><path codeLine="80" d="M297,930.12 C297,962 297,1006.61 297,1046.47 " fill="none" id="RegisterEmployee-to-Employee" style="stroke:#A80036;stroke-width:1.0;"/><polygon fill="#A80036" points="297,1051.81,301,1042.81,297,1046.81,293,1042.81,297,1051.81" style="stroke:#A80036;stroke-width:1.0;"/><polygon fill="#000000" points="302,996.1758,304.9389,987.1307,299.0611,987.1307,302,996.1758" style="stroke:#000000;stroke-width:1.0;"/><text fill="#000000" font-family="sans-serif" font-size="13" lengthAdjust="spacing" textLength="37" x="313" y="996.4951">knows</text><text fill="#000000" font-family="sans-serif" font-size="13" lengthAdjust="spacing" textLength="7" x="287.1578" y="953.9052">1</text><text fill="#000000" font-family="sans-serif" font-size="13" lengthAdjust="spacing" textLength="5" x="289.6273" y="1039.1265">*</text><!--MD5=[e31dfec65b41b6cdbd73dd9a2a6f4eb3]
link RegisterEmployee to AuthFacade--><path codeLine="81" d="M329.62,930.12 C366.02,978.25 424.38,1055.39 459.17,1101.39 " fill="none" id="RegisterEmployee-to-AuthFacade" style="stroke:#A80036;stroke-width:1.0;stroke-dasharray:7.0,7.0;"/><polygon fill="#A80036" points="462.25,1105.46,460.0116,1095.8689,459.234,1101.472,453.6309,1100.6945,462.25,1105.46" style="stroke:#A80036;stroke-width:1.0;"/><!--MD5=[71da4be24892bfec694db06bf9e3c284]
link Company to Platform--><path codeLine="82" d="M216,510.25 C216,545.75 216,592.36 216,626.94 " fill="none" id="Company-to-Platform" style="stroke:#A80036;stroke-width:1.0;"/><polygon fill="#A80036" points="216,631.95,220,622.95,216,626.95,212,622.95,216,631.95" style="stroke:#A80036;stroke-width:1.0;"/><polygon fill="#000000" points="221,576.1758,223.9389,567.1307,218.0611,567.1307,221,576.1758" style="stroke:#000000;stroke-width:1.0;"/><text fill="#000000" font-family="sans-serif" font-size="13" lengthAdjust="spacing" textLength="21" x="232" y="576.4951">has</text><text fill="#000000" font-family="sans-serif" font-size="13" lengthAdjust="spacing" textLength="7" x="206.3297" y="533.4661">1</text><text fill="#000000" font-family="sans-serif" font-size="13" lengthAdjust="spacing" textLength="7" x="206.1578" y="619.1717">1</text><!--MD5=[319caaff3f0552bae9c2164003ab5497]
@startuml
skinparam classAttributeIconSize 0
skinparam padding 2
skinparam ranksep 100
skinparam classFontSize 18

class Employee
{
-name
-adress
-phoneNumber
-emailAdress
-socialSN
-postCode
-city

}
class Administrator

class Nurse

class Recepcionist


class CenterCoordinator


class Platform
{
-designation
+getRegisterEmployee()

}


class ListEmployeeByRoleController
{
-m_oApp
-m_oPlatform
-m_oCompany
+getListofRoles()
+getListEmployeeByRole(roleChoice)
}
class Company
{
-designation
+getPlatform()
+getAuthFacade()
}
class RegisterEmployee
{
-List<Employee> listEmployee
+getListEmployeeByRole(roleChoice))

}
class App
{
    +getCompany()
    +getCurrentUserSession()
    +{static} static getInstance()


}

class AuthFacade
{
+getUserRoles()

}

Employee <|- - Nurse
Employee <|- - CenterCoordinator
Employee <|- - Recepcionist
Employee <|- - Administrator
ListEmployeeByRoleController ..> Company
ListEmployeeByRoleController ..> App
ListEmployeeByRoleUI ..> ListEmployeeByRoleController
ListEmployeeByRoleController ..> Platform
ListEmployeeByRoleController ..> AuthFacade
Platform "1" - - "1" RegisterEmployee : has >
RegisterEmployee "1"- -> "*" Employee : knows >
RegisterEmployee ..> AuthFacade
Company "1" - -> "1" Platform : has >


@enduml

PlantUML version 1.2022.1(Tue Feb 01 18:19:58 GMT 2022)
(GPL source distribution)
Java Runtime: OpenJDK Runtime Environment
JVM: OpenJDK 64-Bit Server VM
Default Encoding: Cp1252
Language: en
Country: US
--></g></svg>