<?xml version="1.0" encoding="UTF-8" standalone="no"?><svg xmlns="http://www.w3.org/2000/svg" xmlns:xlink="http://www.w3.org/1999/xlink" contentScriptType="application/ecmascript" contentStyleType="text/css" height="410px" preserveAspectRatio="none" style="width:526px;height:410px;background:#FFFFFF;" version="1.1" viewBox="0 0 526 410" width="526px" zoomAndPan="magnify"><defs><filter height="300%" id="f1pgjuwi5su8we" width="300%" x="-1" y="-1"><feGaussianBlur result="blurOut" stdDeviation="2.0"/><feColorMatrix in="blurOut" result="blurOut2" type="matrix" values="0 0 0 0 0 0 0 0 0 0 0 0 0 0 0 0 0 0 .4 0"/><feOffset dx="4.0" dy="4.0" in="blurOut2" result="blurOut3"/><feBlend in="SourceGraphic" in2="blurOut3" mode="normal"/></filter></defs><g><!--MD5=[99b8db98afdc2c8404e39242ef4c1e65]
class Platform--><rect codeLine="8" fill="#FEFECE" filter="url(#f1pgjuwi5su8we)" height="43.1992" id="Platform" style="stroke:#A80036;stroke-width:1.5;" width="110" x="359" y="7"/><ellipse cx="374" cy="24.5996" fill="#ADD1B2" rx="11" ry="11" style="stroke:#A80036;stroke-width:1.0;"/><path d="M376.4731,30.7427 Q375.8921,31.0415 375.2529,31.1909 Q374.6138,31.3403 373.9082,31.3403 Q371.4014,31.3403 370.0815,29.6885 Q368.7617,28.0366 368.7617,24.9155 Q368.7617,21.7861 370.0815,20.1343 Q371.4014,18.4824 373.9082,18.4824 Q374.6138,18.4824 375.2612,18.6318 Q375.9087,18.7813 376.4731,19.0801 L376.4731,21.8027 Q375.8423,21.2217 375.2488,20.9519 Q374.6553,20.6821 374.0244,20.6821 Q372.6797,20.6821 371.9949,21.7488 Q371.3101,22.8154 371.3101,24.9155 Q371.3101,27.0073 371.9949,28.074 Q372.6797,29.1406 374.0244,29.1406 Q374.6553,29.1406 375.2488,28.8708 Q375.8423,28.6011 376.4731,28.02 Z " fill="#000000"/><text fill="#000000" font-family="sans-serif" font-size="18" lengthAdjust="spacing" textLength="74" x="390" y="31.4023">Platform</text><line style="stroke:#A80036;stroke-width:1.5;" x1="360" x2="468" y1="42.1992" y2="42.1992"/><!--MD5=[02e4b9b7573f1156f41e60aa5b4e25a4]
class Company--><rect codeLine="12" fill="#FEFECE" filter="url(#f1pgjuwi5su8we)" height="43.1992" id="Company" style="stroke:#A80036;stroke-width:1.5;" width="117" x="8" y="26"/><ellipse cx="23" cy="43.5996" fill="#ADD1B2" rx="11" ry="11" style="stroke:#A80036;stroke-width:1.0;"/><path d="M25.4731,49.7427 Q24.8921,50.0415 24.2529,50.1909 Q23.6138,50.3403 22.9082,50.3403 Q20.4014,50.3403 19.0815,48.6885 Q17.7617,47.0366 17.7617,43.9155 Q17.7617,40.7861 19.0815,39.1343 Q20.4014,37.4824 22.9082,37.4824 Q23.6138,37.4824 24.2612,37.6318 Q24.9087,37.7813 25.4731,38.0801 L25.4731,40.8027 Q24.8423,40.2217 24.2488,39.9519 Q23.6553,39.6821 23.0244,39.6821 Q21.6797,39.6821 20.9949,40.7488 Q20.3101,41.8154 20.3101,43.9155 Q20.3101,46.0073 20.9949,47.074 Q21.6797,48.1406 23.0244,48.1406 Q23.6553,48.1406 24.2488,47.8708 Q24.8423,47.6011 25.4731,47.02 Z " fill="#000000"/><text fill="#000000" font-family="sans-serif" font-size="18" lengthAdjust="spacing" textLength="81" x="39" y="50.4023">Company</text><line style="stroke:#A80036;stroke-width:1.5;" x1="9" x2="124" y1="61.1992" y2="61.1992"/><!--MD5=[7421f545a0d8420c5bec41e74b387d9c]
class Employee--><rect codeLine="14" fill="#FEFECE" filter="url(#f1pgjuwi5su8we)" height="43.1992" id="Employee" style="stroke:#A80036;stroke-width:1.5;" width="119" x="7" y="216"/><ellipse cx="22" cy="233.5996" fill="#ADD1B2" rx="11" ry="11" style="stroke:#A80036;stroke-width:1.0;"/><path d="M24.4731,239.7427 Q23.8921,240.0415 23.2529,240.1909 Q22.6138,240.3403 21.9082,240.3403 Q19.4014,240.3403 18.0815,238.6885 Q16.7617,237.0366 16.7617,233.9155 Q16.7617,230.7861 18.0815,229.1343 Q19.4014,227.4824 21.9082,227.4824 Q22.6138,227.4824 23.2612,227.6318 Q23.9087,227.7813 24.4731,228.0801 L24.4731,230.8027 Q23.8423,230.2217 23.2488,229.9519 Q22.6553,229.6821 22.0244,229.6821 Q20.6797,229.6821 19.9949,230.7488 Q19.3101,231.8154 19.3101,233.9155 Q19.3101,236.0073 19.9949,237.074 Q20.6797,238.1406 22.0244,238.1406 Q22.6553,238.1406 23.2488,237.8708 Q23.8423,237.6011 24.4731,237.02 Z " fill="#000000"/><text fill="#000000" font-family="sans-serif" font-size="18" lengthAdjust="spacing" textLength="83" x="38" y="240.4023">Employee</text><line style="stroke:#A80036;stroke-width:1.5;" x1="8" x2="125" y1="251.1992" y2="251.1992"/><!--MD5=[da547346deef918ea16944ba046651ef]
class Administrator--><rect codeLine="15" fill="#FEFECE" filter="url(#f1pgjuwi5su8we)" height="43.1992" id="Administrator" style="stroke:#A80036;stroke-width:1.5;" width="155" x="336.5" y="96"/><ellipse cx="351.5" cy="113.5996" fill="#ADD1B2" rx="11" ry="11" style="stroke:#A80036;stroke-width:1.0;"/><path d="M353.9731,119.7427 Q353.3921,120.0415 352.7529,120.1909 Q352.1138,120.3403 351.4082,120.3403 Q348.9014,120.3403 347.5815,118.6885 Q346.2617,117.0366 346.2617,113.9155 Q346.2617,110.7861 347.5815,109.1343 Q348.9014,107.4824 351.4082,107.4824 Q352.1138,107.4824 352.7612,107.6318 Q353.4087,107.7813 353.9731,108.0801 L353.9731,110.8027 Q353.3423,110.2217 352.7488,109.9519 Q352.1553,109.6821 351.5244,109.6821 Q350.1797,109.6821 349.4949,110.7488 Q348.8101,111.8154 348.8101,113.9155 Q348.8101,116.0073 349.4949,117.074 Q350.1797,118.1406 351.5244,118.1406 Q352.1553,118.1406 352.7488,117.8708 Q353.3423,117.6011 353.9731,117.02 Z " fill="#000000"/><text fill="#000000" font-family="sans-serif" font-size="18" lengthAdjust="spacing" textLength="119" x="367.5" y="120.4023">Administrator</text><line style="stroke:#A80036;stroke-width:1.5;" x1="337.5" x2="490.5" y1="131.1992" y2="131.1992"/><!--MD5=[03960189e81aa2c066c762ffabbee709]
class Receptionist--><rect codeLine="16" fill="#FEFECE" filter="url(#f1pgjuwi5su8we)" height="43.1992" id="Receptionist" style="stroke:#A80036;stroke-width:1.5;" width="142" x="343" y="197"/><ellipse cx="358" cy="214.5996" fill="#ADD1B2" rx="11" ry="11" style="stroke:#A80036;stroke-width:1.0;"/><path d="M360.4731,220.7427 Q359.8921,221.0415 359.2529,221.1909 Q358.6138,221.3403 357.9082,221.3403 Q355.4014,221.3403 354.0815,219.6885 Q352.7617,218.0366 352.7617,214.9155 Q352.7617,211.7861 354.0815,210.1343 Q355.4014,208.4824 357.9082,208.4824 Q358.6138,208.4824 359.2612,208.6318 Q359.9087,208.7813 360.4731,209.0801 L360.4731,211.8027 Q359.8423,211.2217 359.2488,210.9519 Q358.6553,210.6821 358.0244,210.6821 Q356.6797,210.6821 355.9949,211.7488 Q355.3101,212.8154 355.3101,214.9155 Q355.3101,217.0073 355.9949,218.074 Q356.6797,219.1406 358.0244,219.1406 Q358.6553,219.1406 359.2488,218.8708 Q359.8423,218.6011 360.4731,218.02 Z " fill="#000000"/><text fill="#000000" font-family="sans-serif" font-size="18" lengthAdjust="spacing" textLength="106" x="374" y="221.4023">Receptionist</text><line style="stroke:#A80036;stroke-width:1.5;" x1="344" x2="484" y1="232.1992" y2="232.1992"/><!--MD5=[a059576e163b46f56762f12600c49258]
class Nurse--><rect codeLine="17" fill="#FEFECE" filter="url(#f1pgjuwi5su8we)" height="43.1992" id="Nurse" style="stroke:#A80036;stroke-width:1.5;" width="86" x="371" y="275"/><ellipse cx="386" cy="292.5996" fill="#ADD1B2" rx="11" ry="11" style="stroke:#A80036;stroke-width:1.0;"/><path d="M388.4731,298.7427 Q387.8921,299.0415 387.2529,299.1909 Q386.6138,299.3403 385.9082,299.3403 Q383.4014,299.3403 382.0815,297.6885 Q380.7617,296.0366 380.7617,292.9155 Q380.7617,289.7861 382.0815,288.1343 Q383.4014,286.4824 385.9082,286.4824 Q386.6138,286.4824 387.2612,286.6318 Q387.9087,286.7813 388.4731,287.0801 L388.4731,289.8027 Q387.8423,289.2217 387.2488,288.9519 Q386.6553,288.6821 386.0244,288.6821 Q384.6797,288.6821 383.9949,289.7488 Q383.3101,290.8154 383.3101,292.9155 Q383.3101,295.0073 383.9949,296.074 Q384.6797,297.1406 386.0244,297.1406 Q386.6553,297.1406 387.2488,296.8708 Q387.8423,296.6011 388.4731,296.02 Z " fill="#000000"/><text fill="#000000" font-family="sans-serif" font-size="18" lengthAdjust="spacing" textLength="50" x="402" y="299.4023">Nurse</text><line style="stroke:#A80036;stroke-width:1.5;" x1="372" x2="456" y1="310.1992" y2="310.1992"/><!--MD5=[2d935fd2dd068a13da1ae531f9857c4f]
class CenterCoordinator--><rect codeLine="18" fill="#FEFECE" filter="url(#f1pgjuwi5su8we)" height="43.1992" id="CenterCoordinator" style="stroke:#A80036;stroke-width:1.5;" width="196" x="316" y="353"/><ellipse cx="331" cy="370.5996" fill="#ADD1B2" rx="11" ry="11" style="stroke:#A80036;stroke-width:1.0;"/><path d="M333.4731,376.7427 Q332.8921,377.0415 332.2529,377.1909 Q331.6138,377.3403 330.9082,377.3403 Q328.4014,377.3403 327.0815,375.6885 Q325.7617,374.0366 325.7617,370.9155 Q325.7617,367.7861 327.0815,366.1343 Q328.4014,364.4824 330.9082,364.4824 Q331.6138,364.4824 332.2612,364.6318 Q332.9087,364.7813 333.4731,365.0801 L333.4731,367.8027 Q332.8423,367.2217 332.2488,366.9519 Q331.6553,366.6821 331.0244,366.6821 Q329.6797,366.6821 328.9949,367.7488 Q328.3101,368.8154 328.3101,370.9155 Q328.3101,373.0073 328.9949,374.074 Q329.6797,375.1406 331.0244,375.1406 Q331.6553,375.1406 332.2488,374.8708 Q332.8423,374.6011 333.4731,374.02 Z " fill="#000000"/><text fill="#000000" font-family="sans-serif" font-size="18" lengthAdjust="spacing" textLength="160" x="347" y="377.4023">CenterCoordinator</text><line style="stroke:#A80036;stroke-width:1.5;" x1="317" x2="511" y1="388.1992" y2="388.1992"/><!--MD5=[98f7f3dc8d9719d04ad14614c4ea123f]
reverse link Employee to CenterCoordinator--><path codeLine="20" d="M140.7,266.52 C205.93,292.39 299.91,329.66 358.67,352.96 " fill="none" id="Employee-backto-CenterCoordinator" style="stroke:#A80036;stroke-width:1.0;"/><polygon fill="none" points="137.88,272.94,121.86,259.06,143.04,259.92,137.88,272.94" style="stroke:#A80036;stroke-width:1.0;"/><!--MD5=[f7fb1bbd8b4f4021e9754ae6fe2871a0]
reverse link Employee to Administrator--><path codeLine="21" d="M145.3,214.04 C182.08,202.64 226.49,188.42 266,174.5 C297.37,163.45 332.07,150.05 359.88,139.02 " fill="none" id="Employee-backto-Administrator" style="stroke:#A80036;stroke-width:1.0;"/><polygon fill="none" points="147.19,220.79,126.01,219.98,143.07,207.41,147.19,220.79" style="stroke:#A80036;stroke-width:1.0;"/><!--MD5=[6716344a46572fc99c27bf4e50ddbd3d]
reverse link Employee to Nurse--><path codeLine="22" d="M145.85,250.88 C215.69,262.81 315.23,279.8 370.99,289.33 " fill="none" id="Employee-backto-Nurse" style="stroke:#A80036;stroke-width:1.0;"/><polygon fill="none" points="144.65,257.78,126.11,247.51,147,243.98,144.65,257.78" style="stroke:#A80036;stroke-width:1.0;"/><!--MD5=[bfff716514ca687b645fe473c6e098a4]
reverse link Employee to Receptionist--><path codeLine="23" d="M146.09,233.18 C205.27,229.92 285.7,225.5 342.75,222.36 " fill="none" id="Employee-backto-Receptionist" style="stroke:#A80036;stroke-width:1.0;"/><polygon fill="none" points="146.46,240.17,126.11,234.28,145.69,226.19,146.46,240.17" style="stroke:#A80036;stroke-width:1.0;"/><!--MD5=[b482d663aae385f5ae82dde2f71259c6]
link Employee to Platform--><path codeLine="24" d="M106.4,215.81 C147.05,192.73 212.27,154.5 266,117.5 C289.21,101.52 292.26,93.69 316,78.5 C331.96,68.29 350.25,58.43 366.62,50.2 " fill="none" id="Employee-Platform" style="stroke:#A80036;stroke-width:1.0;"/><polygon fill="#000000" points="185.2182,104.4707,176.0095,106.8477,179.1654,111.8065,185.2182,104.4707" style="stroke:#000000;stroke-width:1.0;"/><text fill="#000000" font-family="sans-serif" font-size="13" lengthAdjust="spacing" textLength="71" x="192" y="112.0684">registers in</text><text fill="#000000" font-family="sans-serif" font-size="13" lengthAdjust="spacing" textLength="6" x="107.3431" y="203.4002">*</text><text fill="#000000" font-family="sans-serif" font-size="13" lengthAdjust="spacing" textLength="8" x="342.9414" y="72.7776">1</text><!--MD5=[71da4be24892bfec694db06bf9e3c284]
link Company to Platform--><path codeLine="25" d="M125.33,44.32 C190.45,40.74 295.45,34.96 358.97,31.47 " fill="none" id="Company-Platform" style="stroke:#A80036;stroke-width:1.0;"/><polygon fill="#000000" points="210.4925,26.8807,201.2996,24.4429,201.6224,30.3119,210.4925,26.8807" style="stroke:#000000;stroke-width:1.0;"/><text fill="#000000" font-family="sans-serif" font-size="13" lengthAdjust="spacing" textLength="22" x="216.5" y="32.0684">has</text><text fill="#000000" font-family="sans-serif" font-size="13" lengthAdjust="spacing" textLength="8" x="134.826" y="59.6255">1</text><text fill="#000000" font-family="sans-serif" font-size="13" lengthAdjust="spacing" textLength="8" x="341.1505" y="47.6432">1</text><!--MD5=[eaea43e34e45c5b9d20b595fc78f1f20]
link Company to Administrator--><path codeLine="26" d="M125.19,59.88 C141.6,63.36 159.5,67.11 176,70.5 C229.52,81.48 289.93,93.45 336.37,102.57 " fill="none" id="Company-Administrator" style="stroke:#A80036;stroke-width:1.0;"/><polygon fill="#000000" points="210.4009,61.146,202.1174,56.4731,200.9528,62.2344,210.4009,61.146" style="stroke:#000000;stroke-width:1.0;"/><text fill="#000000" font-family="sans-serif" font-size="13" lengthAdjust="spacing" textLength="22" x="216.5" y="65.0684">has</text><text fill="#000000" font-family="sans-serif" font-size="13" lengthAdjust="spacing" textLength="8" x="135.0741" y="77.1218">1</text><text fill="#000000" font-family="sans-serif" font-size="13" lengthAdjust="spacing" textLength="6" x="320.4943" y="116.6261">*</text><!--MD5=[9b10f50520a6d0a19c3794fa48fc6758]
@startuml
skinparam classAttributeIconSize 0
hide methods
left to right direction
skinparam padding 2
skinparam ranksep 100
skinparam classFontSize 18

class Platform



class Company

class Employee
class Administrator
class Receptionist
class Nurse
class CenterCoordinator

Employee <|- - CenterCoordinator
Employee <|- - Administrator
Employee <|- - Nurse
Employee <|- - Receptionist
Employee "*" - - "1" Platform : registers in >
Company "1" - - "1" Platform : has >
Company "1" - - "*" Administrator : has >


@enduml

PlantUML version 1.2022.1(Tue Feb 01 18:19:58 WET 2022)
(GPL source distribution)
Java Runtime: OpenJDK Runtime Environment
JVM: OpenJDK 64-Bit Server VM
Default Encoding: UTF-8
Language: en
Country: PT
--></g></svg>