<?xml version="1.0" encoding="UTF-8"?><svg xmlns="http://www.w3.org/2000/svg" xmlns:xlink="http://www.w3.org/1999/xlink" contentScriptType="application/ecmascript" contentStyleType="text/css" height="230px" preserveAspectRatio="none" style="width:1525px;height:230px;" version="1.1" viewBox="0 0 1525 230" width="1525px" zoomAndPan="magnify">
    <defs>
        <filter height="300%" id="feu4bsgpr4zga" width="300%" x="-1" y="-1">
            <feGaussianBlur result="blurOut" stdDeviation="2.0"/>
            <feColorMatrix in="blurOut" result="blurOut2" type="matrix" values="0 0 0 0 0 0 0 0 0 0 0 0 0 0 0 0 0 0 .4 0"/>
            <feOffset dx="4.0" dy="4.0" in="blurOut2" result="blurOut3"/>
            <feBlend in="SourceGraphic" in2="blurOut3" mode="normal"/>
        </filter>
    </defs>
    <g>
        <!--class Receptionist-->
        <rect fill="#FEFECE" filter="url(#feu4bsgpr4zga)" height="44.6406" style="stroke: #A80036; stroke-width: 1.5;" width="135" x="327.5" y="7.956"/>
        <ellipse cx="342.5" cy="26.2763" fill="#ADD1B2" rx="11" ry="11" style="stroke: #A80036; stroke-width: 1.0;"/>
        <path d="M345.2656,22.1513 Q345.4219,21.9326 345.6094,21.8232 Q345.7969,21.7138 346.0156,21.7138 Q346.3906,21.7138 346.625,21.9716 Q346.8594,22.2294 346.8594,22.8388 L346.8594,24.2919 Q346.8594,24.9013 346.625,25.1669 Q346.3906,25.4326 346.0156,25.4326 Q345.6719,25.4326 345.4688,25.2294 Q345.2656,25.0419 345.1563,24.5263 Q345.1094,24.1669 344.9219,23.9794 Q344.5938,23.6044 343.9844,23.3857 Q343.375,23.1669 342.75,23.1669 Q341.9844,23.1669 341.3516,23.4951 Q340.7188,23.8232 340.2266,24.5732 Q339.7344,25.3232 339.7344,26.3544 L339.7344,27.4482 Q339.7344,28.6826 340.625,29.5029 Q341.5156,30.3232 343.1094,30.3232 Q344.0469,30.3232 344.7031,30.0732 Q345.0938,29.9169 345.5156,29.4794 Q345.7813,29.2138 345.9297,29.1357 Q346.0781,29.0576 346.2813,29.0576 Q346.6094,29.0576 346.8672,29.3154 Q347.125,29.5732 347.125,29.9169 Q347.125,30.2607 346.7813,30.6669 Q346.2813,31.2451 345.4844,31.5732 Q344.4063,32.0263 343.1094,32.0263 Q341.5938,32.0263 340.3906,31.4013 Q339.4063,30.9013 338.7188,29.831 Q338.0313,28.7607 338.0313,27.4794 L338.0313,26.3232 Q338.0313,24.9951 338.6484,23.8466 Q339.2656,22.6982 340.3594,22.081 Q341.4531,21.4638 342.6875,21.4638 Q343.4219,21.4638 344.0703,21.6279 Q344.7188,21.7919 345.2656,22.1513 Z "/>
        <text fill="#000000" font-family="sans-serif" font-size="18" lengthAdjust="spacingAndGlyphs" textLength="99" x="358.5" y="33.6415">Receptionist</text>
        <line style="stroke: #A80036; stroke-width: 1.5;" x1="328.5" x2="461.5" y1="44.5966" y2="44.5966"/>
        <!--class SNSUser-->
        <rect fill="#FEFECE" filter="url(#feu4bsgpr4zga)" height="80.3125" style="stroke: #A80036; stroke-width: 1.5;" width="111" x="669" y="74.456"/>
        <ellipse cx="684" cy="92.7763" fill="#ADD1B2" rx="11" ry="11" style="stroke: #A80036; stroke-width: 1.0;"/>
        <path d="M686.7656,88.6513 Q686.9219,88.4326 687.1094,88.3232 Q687.2969,88.2138 687.5156,88.2138 Q687.8906,88.2138 688.125,88.4716 Q688.3594,88.7294 688.3594,89.3388 L688.3594,90.7919 Q688.3594,91.4013 688.125,91.6669 Q687.8906,91.9326 687.5156,91.9326 Q687.1719,91.9326 686.9688,91.7294 Q686.7656,91.5419 686.6563,91.0263 Q686.6094,90.6669 686.4219,90.4794 Q686.0938,90.1044 685.4844,89.8857 Q684.875,89.6669 684.25,89.6669 Q683.4844,89.6669 682.8516,89.9951 Q682.2188,90.3232 681.7266,91.0732 Q681.2344,91.8232 681.2344,92.8544 L681.2344,93.9482 Q681.2344,95.1826 682.125,96.0029 Q683.0156,96.8232 684.6094,96.8232 Q685.5469,96.8232 686.2031,96.5732 Q686.5938,96.4169 687.0156,95.9794 Q687.2813,95.7138 687.4297,95.6357 Q687.5781,95.5576 687.7813,95.5576 Q688.1094,95.5576 688.3672,95.8154 Q688.625,96.0732 688.625,96.4169 Q688.625,96.7607 688.2813,97.1669 Q687.7813,97.7451 686.9844,98.0732 Q685.9063,98.5263 684.6094,98.5263 Q683.0938,98.5263 681.8906,97.9013 Q680.9063,97.4013 680.2188,96.331 Q679.5313,95.2607 679.5313,93.9794 L679.5313,92.8232 Q679.5313,91.4951 680.1484,90.3466 Q680.7656,89.1982 681.8594,88.581 Q682.9531,87.9638 684.1875,87.9638 Q684.9219,87.9638 685.5703,88.1279 Q686.2188,88.2919 686.7656,88.6513 Z "/>
        <text fill="#000000" font-family="sans-serif" font-size="18" lengthAdjust="spacingAndGlyphs" textLength="75" x="700" y="100.1415">SNSUser</text>
        <line style="stroke: #A80036; stroke-width: 1.5;" x1="670" x2="779" y1="111.0966" y2="111.0966"/>
        <text fill="#000000" font-family="sans-serif" font-size="11" lengthAdjust="spacingAndGlyphs" textLength="26" x="677" y="128.5156">name</text>
        <text fill="#000000" font-family="sans-serif" font-size="11" lengthAdjust="spacingAndGlyphs" textLength="43" x="677" y="146.3515">birthDate</text>
        <!--class Company-->
        <rect fill="#FEFECE" filter="url(#feu4bsgpr4zga)" height="62.4766" style="stroke: #A80036; stroke-width: 1.5;" width="112" x="7.5" y="128.456"/>
        <ellipse cx="22.5" cy="146.7763" fill="#ADD1B2" rx="11" ry="11" style="stroke: #A80036; stroke-width: 1.0;"/>
        <path d="M25.2656,142.6513 Q25.4219,142.4326 25.6094,142.3232 Q25.7969,142.2138 26.0156,142.2138 Q26.3906,142.2138 26.625,142.4716 Q26.8594,142.7294 26.8594,143.3388 L26.8594,144.7919 Q26.8594,145.4013 26.625,145.6669 Q26.3906,145.9326 26.0156,145.9326 Q25.6719,145.9326 25.4688,145.7294 Q25.2656,145.5419 25.1563,145.0263 Q25.1094,144.6669 24.9219,144.4794 Q24.5938,144.1044 23.9844,143.8857 Q23.375,143.6669 22.75,143.6669 Q21.9844,143.6669 21.3516,143.9951 Q20.7188,144.3232 20.2266,145.0732 Q19.7344,145.8232 19.7344,146.8544 L19.7344,147.9482 Q19.7344,149.1826 20.625,150.0029 Q21.5156,150.8232 23.1094,150.8232 Q24.0469,150.8232 24.7031,150.5732 Q25.0938,150.4169 25.5156,149.9794 Q25.7813,149.7138 25.9297,149.6357 Q26.0781,149.5576 26.2813,149.5576 Q26.6094,149.5576 26.8672,149.8154 Q27.125,150.0732 27.125,150.4169 Q27.125,150.7607 26.7813,151.1669 Q26.2813,151.7451 25.4844,152.0732 Q24.4063,152.5263 23.1094,152.5263 Q21.5938,152.5263 20.3906,151.9013 Q19.4063,151.4013 18.7188,150.331 Q18.0313,149.2607 18.0313,147.9794 L18.0313,146.8232 Q18.0313,145.4951 18.6484,144.3466 Q19.2656,143.1982 20.3594,142.581 Q21.4531,141.9638 22.6875,141.9638 Q23.4219,141.9638 24.0703,142.1279 Q24.7188,142.2919 25.2656,142.6513 Z "/>
        <text fill="#000000" font-family="sans-serif" font-size="18" lengthAdjust="spacingAndGlyphs" textLength="76" x="38.5" y="154.1415">Company</text>
        <line style="stroke: #A80036; stroke-width: 1.5;" x1="8.5" x2="118.5" y1="165.0966" y2="165.0966"/>
        <text fill="#000000" font-family="sans-serif" font-size="11" lengthAdjust="spacingAndGlyphs" textLength="55" x="15.5" y="182.5156">designation</text>
        <!--class AdverseReaction-->
        <rect fill="#FEFECE" filter="url(#feu4bsgpr4zga)" height="62.4766" style="stroke: #A80036; stroke-width: 1.5;" width="172" x="1344" y="83.456"/>
        <ellipse cx="1359" cy="101.7763" fill="#ADD1B2" rx="11" ry="11" style="stroke: #A80036; stroke-width: 1.0;"/>
        <path d="M1361.7656,97.6513 Q1361.9219,97.4326 1362.1094,97.3232 Q1362.2969,97.2138 1362.5156,97.2138 Q1362.8906,97.2138 1363.125,97.4716 Q1363.3594,97.7294 1363.3594,98.3388 L1363.3594,99.7919 Q1363.3594,100.4013 1363.125,100.6669 Q1362.8906,100.9326 1362.5156,100.9326 Q1362.1719,100.9326 1361.9688,100.7294 Q1361.7656,100.5419 1361.6563,100.0263 Q1361.6094,99.6669 1361.4219,99.4794 Q1361.0938,99.1044 1360.4844,98.8857 Q1359.875,98.6669 1359.25,98.6669 Q1358.4844,98.6669 1357.8516,98.9951 Q1357.2188,99.3232 1356.7266,100.0732 Q1356.2344,100.8232 1356.2344,101.8544 L1356.2344,102.9482 Q1356.2344,104.1826 1357.125,105.0029 Q1358.0156,105.8232 1359.6094,105.8232 Q1360.5469,105.8232 1361.2031,105.5732 Q1361.5938,105.4169 1362.0156,104.9794 Q1362.2813,104.7138 1362.4297,104.6357 Q1362.5781,104.5576 1362.7813,104.5576 Q1363.1094,104.5576 1363.3672,104.8154 Q1363.625,105.0732 1363.625,105.4169 Q1363.625,105.7607 1363.2813,106.1669 Q1362.7813,106.7451 1361.9844,107.0732 Q1360.9063,107.5263 1359.6094,107.5263 Q1358.0938,107.5263 1356.8906,106.9013 Q1355.9063,106.4013 1355.2188,105.331 Q1354.5313,104.2607 1354.5313,102.9794 L1354.5313,101.8232 Q1354.5313,100.4951 1355.1484,99.3466 Q1355.7656,98.1982 1356.8594,97.581 Q1357.9531,96.9638 1359.1875,96.9638 Q1359.9219,96.9638 1360.5703,97.1279 Q1361.2188,97.2919 1361.7656,97.6513 Z "/>
        <text fill="#000000" font-family="sans-serif" font-size="18" lengthAdjust="spacingAndGlyphs" textLength="136" x="1375" y="109.1415">AdverseReaction</text>
        <line style="stroke: #A80036; stroke-width: 1.5;" x1="1345" x2="1515" y1="120.0966" y2="120.0966"/>
        <text fill="#000000" font-family="sans-serif" font-size="11" lengthAdjust="spacingAndGlyphs" textLength="22" x="1352" y="137.5156">Date</text>
        <!--class UserHealthHistory-->
        <rect fill="#FEFECE" filter="url(#feu4bsgpr4zga)" height="44.6406" style="stroke: #A80036; stroke-width: 1.5;" width="182" x="920" y="91.956"/>
        <ellipse cx="935" cy="110.2763" fill="#ADD1B2" rx="11" ry="11" style="stroke: #A80036; stroke-width: 1.0;"/>
        <path d="M937.7656,106.1513 Q937.9219,105.9326 938.1094,105.8232 Q938.2969,105.7138 938.5156,105.7138 Q938.8906,105.7138 939.125,105.9716 Q939.3594,106.2294 939.3594,106.8388 L939.3594,108.2919 Q939.3594,108.9013 939.125,109.1669 Q938.8906,109.4326 938.5156,109.4326 Q938.1719,109.4326 937.9688,109.2294 Q937.7656,109.0419 937.6563,108.5263 Q937.6094,108.1669 937.4219,107.9794 Q937.0938,107.6044 936.4844,107.3857 Q935.875,107.1669 935.25,107.1669 Q934.4844,107.1669 933.8516,107.4951 Q933.2188,107.8232 932.7266,108.5732 Q932.2344,109.3232 932.2344,110.3544 L932.2344,111.4482 Q932.2344,112.6826 933.125,113.5029 Q934.0156,114.3232 935.6094,114.3232 Q936.5469,114.3232 937.2031,114.0732 Q937.5938,113.9169 938.0156,113.4794 Q938.2813,113.2138 938.4297,113.1357 Q938.5781,113.0576 938.7813,113.0576 Q939.1094,113.0576 939.3672,113.3154 Q939.625,113.5732 939.625,113.9169 Q939.625,114.2607 939.2813,114.6669 Q938.7813,115.2451 937.9844,115.5732 Q936.9063,116.0263 935.6094,116.0263 Q934.0938,116.0263 932.8906,115.4013 Q931.9063,114.9013 931.2188,113.831 Q930.5313,112.7607 930.5313,111.4794 L930.5313,110.3232 Q930.5313,108.9951 931.1484,107.8466 Q931.7656,106.6982 932.8594,106.081 Q933.9531,105.4638 935.1875,105.4638 Q935.9219,105.4638 936.5703,105.6279 Q937.2188,105.7919 937.7656,106.1513 Z "/>
        <text fill="#000000" font-family="sans-serif" font-size="18" lengthAdjust="spacingAndGlyphs" textLength="146" x="951" y="117.6415">UserHealthHistory</text>
        <line style="stroke: #A80036; stroke-width: 1.5;" x1="921" x2="1101" y1="128.5966" y2="128.5966"/>
        <!--class Platform-->
        <rect fill="#FEFECE" filter="url(#feu4bsgpr4zga)" height="44.6406" style="stroke: #A80036; stroke-width: 1.5;" width="102" x="344" y="91.956"/>
        <ellipse cx="359" cy="110.2763" fill="#ADD1B2" rx="11" ry="11" style="stroke: #A80036; stroke-width: 1.0;"/>
        <path d="M361.7656,106.1513 Q361.9219,105.9326 362.1094,105.8232 Q362.2969,105.7138 362.5156,105.7138 Q362.8906,105.7138 363.125,105.9716 Q363.3594,106.2294 363.3594,106.8388 L363.3594,108.2919 Q363.3594,108.9013 363.125,109.1669 Q362.8906,109.4326 362.5156,109.4326 Q362.1719,109.4326 361.9688,109.2294 Q361.7656,109.0419 361.6563,108.5263 Q361.6094,108.1669 361.4219,107.9794 Q361.0938,107.6044 360.4844,107.3857 Q359.875,107.1669 359.25,107.1669 Q358.4844,107.1669 357.8516,107.4951 Q357.2188,107.8232 356.7266,108.5732 Q356.2344,109.3232 356.2344,110.3544 L356.2344,111.4482 Q356.2344,112.6826 357.125,113.5029 Q358.0156,114.3232 359.6094,114.3232 Q360.5469,114.3232 361.2031,114.0732 Q361.5938,113.9169 362.0156,113.4794 Q362.2813,113.2138 362.4297,113.1357 Q362.5781,113.0576 362.7813,113.0576 Q363.1094,113.0576 363.3672,113.3154 Q363.625,113.5732 363.625,113.9169 Q363.625,114.2607 363.2813,114.6669 Q362.7813,115.2451 361.9844,115.5732 Q360.9063,116.0263 359.6094,116.0263 Q358.0938,116.0263 356.8906,115.4013 Q355.9063,114.9013 355.2188,113.831 Q354.5313,112.7607 354.5313,111.4794 L354.5313,110.3232 Q354.5313,108.9951 355.1484,107.8466 Q355.7656,106.6982 356.8594,106.081 Q357.9531,105.4638 359.1875,105.4638 Q359.9219,105.4638 360.5703,105.6279 Q361.2188,105.7919 361.7656,106.1513 Z "/>
        <text fill="#000000" font-family="sans-serif" font-size="18" lengthAdjust="spacingAndGlyphs" textLength="66" x="375" y="117.6415">Platform</text>
        <line style="stroke: #A80036; stroke-width: 1.5;" x1="345" x2="445" y1="128.5966" y2="128.5966"/>
        <!--class Employee-->
        <rect fill="#FEFECE" filter="url(#feu4bsgpr4zga)" height="44.6406" style="stroke: #A80036; stroke-width: 1.5;" width="115" x="6" y="30.956"/>
        <ellipse cx="21" cy="49.2763" fill="#ADD1B2" rx="11" ry="11" style="stroke: #A80036; stroke-width: 1.0;"/>
        <path d="M23.7656,45.1513 Q23.9219,44.9326 24.1094,44.8232 Q24.2969,44.7138 24.5156,44.7138 Q24.8906,44.7138 25.125,44.9716 Q25.3594,45.2294 25.3594,45.8388 L25.3594,47.2919 Q25.3594,47.9013 25.125,48.1669 Q24.8906,48.4326 24.5156,48.4326 Q24.1719,48.4326 23.9688,48.2294 Q23.7656,48.0419 23.6563,47.5263 Q23.6094,47.1669 23.4219,46.9794 Q23.0938,46.6044 22.4844,46.3857 Q21.875,46.1669 21.25,46.1669 Q20.4844,46.1669 19.8516,46.4951 Q19.2188,46.8232 18.7266,47.5732 Q18.2344,48.3232 18.2344,49.3544 L18.2344,50.4482 Q18.2344,51.6826 19.125,52.5029 Q20.0156,53.3232 21.6094,53.3232 Q22.5469,53.3232 23.2031,53.0732 Q23.5938,52.9169 24.0156,52.4794 Q24.2813,52.2138 24.4297,52.1357 Q24.5781,52.0576 24.7813,52.0576 Q25.1094,52.0576 25.3672,52.3154 Q25.625,52.5732 25.625,52.9169 Q25.625,53.2607 25.2813,53.6669 Q24.7813,54.2451 23.9844,54.5732 Q22.9063,55.0263 21.6094,55.0263 Q20.0938,55.0263 18.8906,54.4013 Q17.9063,53.9013 17.2188,52.831 Q16.5313,51.7607 16.5313,50.4794 L16.5313,49.3232 Q16.5313,47.9951 17.1484,46.8466 Q17.7656,45.6982 18.8594,45.081 Q19.9531,44.4638 21.1875,44.4638 Q21.9219,44.4638 22.5703,44.6279 Q23.2188,44.7919 23.7656,45.1513 Z "/>
        <text fill="#000000" font-family="sans-serif" font-size="18" lengthAdjust="spacingAndGlyphs" textLength="79" x="37" y="56.6415">Employee</text>
        <line style="stroke: #A80036; stroke-width: 1.5;" x1="7" x2="120" y1="67.5966" y2="67.5966"/>
        <!--class VaccinationCenter-->
        <rect fill="#FEFECE" filter="url(#feu4bsgpr4zga)" height="44.6406" style="stroke: #A80036; stroke-width: 1.5;" width="182" x="304" y="176.9564"/>
        <ellipse cx="319" cy="195.2767" fill="#ADD1B2" rx="11" ry="11" style="stroke: #A80036; stroke-width: 1.0;"/>
        <path d="M321.7656,191.1517 Q321.9219,190.933 322.1094,190.8236 Q322.2969,190.7142 322.5156,190.7142 Q322.8906,190.7142 323.125,190.972 Q323.3594,191.2298 323.3594,191.8392 L323.3594,193.2923 Q323.3594,193.9017 323.125,194.1673 Q322.8906,194.433 322.5156,194.433 Q322.1719,194.433 321.9688,194.2298 Q321.7656,194.0423 321.6563,193.5267 Q321.6094,193.1673 321.4219,192.9798 Q321.0938,192.6048 320.4844,192.3861 Q319.875,192.1673 319.25,192.1673 Q318.4844,192.1673 317.8516,192.4955 Q317.2188,192.8236 316.7266,193.5736 Q316.2344,194.3236 316.2344,195.3548 L316.2344,196.4486 Q316.2344,197.683 317.125,198.5033 Q318.0156,199.3236 319.6094,199.3236 Q320.5469,199.3236 321.2031,199.0736 Q321.5938,198.9173 322.0156,198.4798 Q322.2813,198.2142 322.4297,198.1361 Q322.5781,198.058 322.7813,198.058 Q323.1094,198.058 323.3672,198.3158 Q323.625,198.5736 323.625,198.9173 Q323.625,199.2611 323.2813,199.6673 Q322.7813,200.2455 321.9844,200.5736 Q320.9063,201.0267 319.6094,201.0267 Q318.0938,201.0267 316.8906,200.4017 Q315.9063,199.9017 315.2188,198.8314 Q314.5313,197.7611 314.5313,196.4798 L314.5313,195.3236 Q314.5313,193.9955 315.1484,192.847 Q315.7656,191.6986 316.8594,191.0814 Q317.9531,190.4642 319.1875,190.4642 Q319.9219,190.4642 320.5703,190.6283 Q321.2188,190.7923 321.7656,191.1517 Z "/>
        <text fill="#000000" font-family="sans-serif" font-size="18" lengthAdjust="spacingAndGlyphs" textLength="146" x="335" y="202.6419">VaccinationCenter</text>
        <line style="stroke: #A80036; stroke-width: 1.5;" x1="305" x2="485" y1="213.597" y2="213.597"/>
        <path d="M446.097,114.456 C506.213,114.456 606.657,114.456 668.763,114.456 " fill="none" style="stroke: #A80036; stroke-width: 1.0;"/>
        <polygon fill="#000000" points="544,102.1318,538,105.1318,544,108.1318,544,102.1318" style="stroke: #000000; stroke-width: 1.0;"/>
        <text fill="#000000" font-family="sans-serif" font-size="13" lengthAdjust="spacingAndGlyphs" textLength="64" x="552" y="108.9511">registers in</text>
        <text fill="#000000" font-family="sans-serif" font-size="13" lengthAdjust="spacingAndGlyphs" textLength="7" x="456.056" y="131.4074">1</text>
        <text fill="#000000" font-family="sans-serif" font-size="13" lengthAdjust="spacingAndGlyphs" textLength="5" x="654.0451" y="131.2349">*</text>
        <path d="M141.332,48.093 C197.701,44.159 273.49,38.868 327.319,35.111 " fill="none" style="stroke: #A80036; stroke-width: 1.0;"/>
        <polygon fill="none" points="141.582,55.093,121.143,49.503,140.607,41.127,141.582,55.093" style="stroke: #A80036; stroke-width: 1.0;"/>
        <path d="M121.089,65.481 C137.196,68.813 154.772,72.362 171,75.456 C230.262,86.757 298.632,98.527 343.88,106.141 " fill="none" style="stroke: #A80036; stroke-width: 1.0;"/>
        <text fill="#000000" font-family="sans-serif" font-size="13" lengthAdjust="spacingAndGlyphs" textLength="64" x="174" y="69.9511">registers in</text>
        <polygon fill="#000000" points="243,63.1318,249,66.1318,243,69.1318,243,63.1318" style="stroke: #000000; stroke-width: 1.0;"/>
        <text fill="#000000" font-family="sans-serif" font-size="13" lengthAdjust="spacingAndGlyphs" textLength="5" x="131.0442" y="83.8436">*</text>
        <text fill="#000000" font-family="sans-serif" font-size="13" lengthAdjust="spacingAndGlyphs" textLength="7" x="326.9178" y="99.1106">1</text>
        <path d="M119.79,155.1415 C157.665,151.8849 208.993,146.8804 254,140.4564 C283.98,136.1773 317.325,130.04 343.95,124.803 " fill="none" style="stroke: #A80036; stroke-width: 1.0;"/>
        <text fill="#000000" font-family="sans-serif" font-size="13" lengthAdjust="spacingAndGlyphs" textLength="21" x="195.5" y="134.9511">has</text>
        <polygon fill="#000000" points="221.5,128.1318,227.5,131.1318,221.5,134.1318,221.5,128.1318" style="stroke: #000000; stroke-width: 1.0;"/>
        <text fill="#000000" font-family="sans-serif" font-size="13" lengthAdjust="spacingAndGlyphs" textLength="7" x="129.3207" y="171.3219">1</text>
        <text fill="#000000" font-family="sans-serif" font-size="13" lengthAdjust="spacingAndGlyphs" textLength="7" x="326.9977" y="143.2094">1</text>
        <path d="M119.644,186.3833 C135.808,192.9835 153.775,199.1103 171,202.4564 C214.139,210.8366 262.861,211.1962 303.735,209 " fill="none" style="stroke: #A80036; stroke-width: 1.0;"/>
        <text fill="#000000" font-family="sans-serif" font-size="13" lengthAdjust="spacingAndGlyphs" textLength="53" x="179.5" y="196.9515">manages</text>
        <polygon fill="#000000" points="237.5,190.1322,243.5,193.1322,237.5,196.1322,237.5,190.1322" style="stroke: #000000; stroke-width: 1.0;"/>
        <text fill="#000000" font-family="sans-serif" font-size="13" lengthAdjust="spacingAndGlyphs" textLength="7" x="129.5421" y="206.6017">1</text>
        <text fill="#000000" font-family="sans-serif" font-size="13" lengthAdjust="spacingAndGlyphs" textLength="5" x="289.1037" y="226.0808">*</text>
        <path d="M780.018,114.456 C819.548,114.456 873.907,114.456 919.852,114.456 " fill="none" style="stroke: #A80036; stroke-width: 1.0;"/>
        <text fill="#000000" font-family="sans-serif" font-size="13" lengthAdjust="spacingAndGlyphs" textLength="21" x="833" y="108.9511">has</text>
        <polygon fill="#000000" points="859,102.1318,865,105.1318,859,108.1318,859,102.1318" style="stroke: #000000; stroke-width: 1.0;"/>
        <text fill="#000000" font-family="sans-serif" font-size="13" lengthAdjust="spacingAndGlyphs" textLength="5" x="790.0829" y="131.2975">*</text>
        <text fill="#000000" font-family="sans-serif" font-size="13" lengthAdjust="spacingAndGlyphs" textLength="7" x="903.1504" y="130.7763">1</text>
        <path d="M1102.23,114.456 C1173.95,114.456 1273.58,114.456 1343.92,114.456 " fill="none" style="stroke: #A80036; stroke-width: 1.0;"/>
        <text fill="#000000" font-family="sans-serif" font-size="13" lengthAdjust="spacingAndGlyphs" textLength="21" x="1206" y="108.9511">has</text>
        <polygon fill="#000000" points="1232,102.1318,1238,105.1318,1232,108.1318,1232,102.1318" style="stroke: #000000; stroke-width: 1.0;"/>
        <text fill="#000000" font-family="sans-serif" font-size="13" lengthAdjust="spacingAndGlyphs" textLength="7" x="1111.9382" y="130.7763">1</text>
        <text fill="#000000" font-family="sans-serif" font-size="13" lengthAdjust="spacingAndGlyphs" textLength="5" x="1329.1358" y="130.8051">*</text>
        <!--
@startuml Domain Model
skinparam classAttributeIconSize 0
hide methods
left to right direction
skinparam padding 2
skinparam ranksep 100
skinparam classFontSize 18

class Receptionist

class SNSUser {
name
birthDate
}


class Company {
designation
}


class AdverseReaction{
Date
}

class UserHealthHistory


class Platform



class Employee

Platform "1" - - "*" SNSUser : registers in <
Employee <|- - Receptionist
Employee "*" - - "1" Platform : registers in >
Company "1" - - "1" Platform : has >
Company "1" - - "*" VaccinationCenter : manages >
SNSUser "*"- - "1" UserHealthHistory : has >
UserHealthHistory "1" - - - "*" AdverseReaction : has >



@enduml

PlantUML version 2017.11(Wed Apr 19 17:18:59 BST 2017)
(GPL source distribution)
Java Runtime: Java(TM) SE Runtime Environment
JVM: Java HotSpot(TM) 64-Bit Server VM
Java Version: 1.8.0_111-b14
Operating System: Windows 10
OS Version: 10.0
Default Encoding: UTF-8
Language: en
Country: US
-->
    </g>
</svg>
