<?xml version="1.0" encoding="UTF-8" standalone="no"?><svg xmlns="http://www.w3.org/2000/svg" xmlns:xlink="http://www.w3.org/1999/xlink" contentStyleType="text/css" height="1966px" preserveAspectRatio="none" style="width:566px;height:1966px;background:#FFFFFF;" version="1.1" viewBox="0 0 566 1966" width="566px" zoomAndPan="magnify"><defs/><g><!--MD5=[72be06cc7ae02ccc98efe28a50e62246]
class SNSUser--><g id="elem_SNSUser"><rect codeLine="6" fill="#F1F1F1" height="239.125" id="SNSUser" rx="2.5" ry="2.5" style="stroke:#181818;stroke-width:0.5;" width="174" x="330" y="1720"/><ellipse cx="373.35" cy="1738.3203" fill="#ADD1B2" rx="11" ry="11" style="stroke:#181818;stroke-width:1.0;"/><path d="M375.35,1734.8203 Q375.5531,1734.3203 375.7875,1734.0703 Q376.0219,1733.8203 376.2875,1733.8203 Q376.7563,1733.8203 377.0531,1734.1016 Q377.35,1734.3828 377.35,1735.0391 L377.35,1736.6016 Q377.35,1737.2578 377.0688,1737.5391 Q376.7875,1737.8203 376.35,1737.8203 Q375.9594,1737.8203 375.7094,1737.6484 Q375.4594,1737.4766 375.35,1737.0234 Q375.3031,1736.7109 375.1313,1736.5391 Q374.8188,1736.2109 374.2563,1736.0234 Q373.6938,1735.8203 373.1313,1735.8203 Q372.4281,1735.8203 371.8344,1736.1016 Q371.2563,1736.3828 370.8031,1737.0078 Q370.35,1737.6328 370.35,1738.4922 L370.35,1739.4141 Q370.35,1740.4453 371.1938,1741.1328 Q372.0375,1741.8203 373.5375,1741.8203 Q374.4281,1741.8203 375.0531,1741.6172 Q375.4125,1741.5078 375.8188,1741.1484 Q376.0844,1740.9453 376.225,1740.8828 Q376.3656,1740.8203 376.5375,1740.8203 Q376.8656,1740.8203 377.1,1741.0859 Q377.35,1741.3359 377.35,1741.6953 Q377.35,1742.0391 377.0063,1742.4453 Q376.5063,1743.0391 375.7094,1743.3672 Q374.6625,1743.8203 373.3813,1743.8203 Q371.8813,1743.8203 370.6781,1743.2266 Q369.7094,1742.7578 369.0219,1741.7422 Q368.35,1740.7266 368.35,1739.5234 L368.35,1738.4297 Q368.35,1737.1797 368.9438,1736.0859 Q369.5531,1734.9922 370.6,1734.4141 Q371.6625,1733.8203 372.85,1733.8203 Q373.5688,1733.8203 374.1938,1734.0703 Q374.8188,1734.3203 375.35,1734.8203 Z " fill="#000000"/><text fill="#000000" font-family="sans-serif" font-size="18" lengthAdjust="spacing" textLength="75" x="395.65" y="1745.6855">SNSUser</text><line style="stroke:#181818;stroke-width:0.5;" x1="331" x2="503" y1="1756.6406" y2="1756.6406"/><text fill="#000000" font-family="sans-serif" font-size="18" lengthAdjust="spacing" textLength="50" x="338" y="1781.3262">-name</text><text fill="#000000" font-family="sans-serif" font-size="18" lengthAdjust="spacing" textLength="70" x="338" y="1807.9668">-address</text><text fill="#000000" font-family="sans-serif" font-size="18" lengthAdjust="spacing" textLength="62" x="338" y="1834.6074">-gender</text><text fill="#000000" font-family="sans-serif" font-size="18" lengthAdjust="spacing" textLength="48" x="338" y="1861.248">-email</text><text fill="#000000" font-family="sans-serif" font-size="18" lengthAdjust="spacing" textLength="79" x="338" y="1887.8887">-birthDate</text><text fill="#000000" font-family="sans-serif" font-size="18" lengthAdjust="spacing" textLength="135" x="338" y="1914.5293">-snsUserNumber</text><text fill="#000000" font-family="sans-serif" font-size="18" lengthAdjust="spacing" textLength="158" x="338" y="1941.1699">-citizenCardNumber</text><line style="stroke:#181818;stroke-width:0.5;" x1="331" x2="503" y1="1951.125" y2="1951.125"/></g><!--MD5=[03960189e81aa2c066c762ffabbee709]
class Receptionist--><g id="elem_Receptionist"><rect codeLine="15" fill="#F1F1F1" height="52.6406" id="Receptionist" rx="2.5" ry="2.5" style="stroke:#181818;stroke-width:0.5;" width="135" x="91.5" y="1277"/><ellipse cx="106.5" cy="1295.3203" fill="#ADD1B2" rx="11" ry="11" style="stroke:#181818;stroke-width:1.0;"/><path d="M108.5,1291.8203 Q108.7031,1291.3203 108.9375,1291.0703 Q109.1719,1290.8203 109.4375,1290.8203 Q109.9063,1290.8203 110.2031,1291.1016 Q110.5,1291.3828 110.5,1292.0391 L110.5,1293.6016 Q110.5,1294.2578 110.2188,1294.5391 Q109.9375,1294.8203 109.5,1294.8203 Q109.1094,1294.8203 108.8594,1294.6484 Q108.6094,1294.4766 108.5,1294.0234 Q108.4531,1293.7109 108.2813,1293.5391 Q107.9688,1293.2109 107.4063,1293.0234 Q106.8438,1292.8203 106.2813,1292.8203 Q105.5781,1292.8203 104.9844,1293.1016 Q104.4063,1293.3828 103.9531,1294.0078 Q103.5,1294.6328 103.5,1295.4922 L103.5,1296.4141 Q103.5,1297.4453 104.3438,1298.1328 Q105.1875,1298.8203 106.6875,1298.8203 Q107.5781,1298.8203 108.2031,1298.6172 Q108.5625,1298.5078 108.9688,1298.1484 Q109.2344,1297.9453 109.375,1297.8828 Q109.5156,1297.8203 109.6875,1297.8203 Q110.0156,1297.8203 110.25,1298.0859 Q110.5,1298.3359 110.5,1298.6953 Q110.5,1299.0391 110.1563,1299.4453 Q109.6563,1300.0391 108.8594,1300.3672 Q107.8125,1300.8203 106.5313,1300.8203 Q105.0313,1300.8203 103.8281,1300.2266 Q102.8594,1299.7578 102.1719,1298.7422 Q101.5,1297.7266 101.5,1296.5234 L101.5,1295.4297 Q101.5,1294.1797 102.0938,1293.0859 Q102.7031,1291.9922 103.75,1291.4141 Q104.8125,1290.8203 106,1290.8203 Q106.7188,1290.8203 107.3438,1291.0703 Q107.9688,1291.3203 108.5,1291.8203 Z " fill="#000000"/><text fill="#000000" font-family="sans-serif" font-size="18" lengthAdjust="spacing" textLength="99" x="122.5" y="1302.6855">Receptionist</text><line style="stroke:#181818;stroke-width:0.5;" x1="92.5" x2="225.5" y1="1313.6406" y2="1313.6406"/><line style="stroke:#181818;stroke-width:0.5;" x1="92.5" x2="225.5" y1="1321.6406" y2="1321.6406"/></g><!--MD5=[cd4ce1c0d44638ff9f42448de30e6b92]
class VaccineSchedule--><g id="elem_VaccineSchedule"><rect codeLine="17" fill="#F1F1F1" height="132.5625" id="VaccineSchedule" rx="2.5" ry="2.5" style="stroke:#181818;stroke-width:0.5;" width="174" x="256" y="1465"/><ellipse cx="271" cy="1483.3203" fill="#ADD1B2" rx="11" ry="11" style="stroke:#181818;stroke-width:1.0;"/><path d="M273,1479.8203 Q273.2031,1479.3203 273.4375,1479.0703 Q273.6719,1478.8203 273.9375,1478.8203 Q274.4063,1478.8203 274.7031,1479.1016 Q275,1479.3828 275,1480.0391 L275,1481.6016 Q275,1482.2578 274.7188,1482.5391 Q274.4375,1482.8203 274,1482.8203 Q273.6094,1482.8203 273.3594,1482.6484 Q273.1094,1482.4766 273,1482.0234 Q272.9531,1481.7109 272.7813,1481.5391 Q272.4688,1481.2109 271.9063,1481.0234 Q271.3438,1480.8203 270.7813,1480.8203 Q270.0781,1480.8203 269.4844,1481.1016 Q268.9063,1481.3828 268.4531,1482.0078 Q268,1482.6328 268,1483.4922 L268,1484.4141 Q268,1485.4453 268.8438,1486.1328 Q269.6875,1486.8203 271.1875,1486.8203 Q272.0781,1486.8203 272.7031,1486.6172 Q273.0625,1486.5078 273.4688,1486.1484 Q273.7344,1485.9453 273.875,1485.8828 Q274.0156,1485.8203 274.1875,1485.8203 Q274.5156,1485.8203 274.75,1486.0859 Q275,1486.3359 275,1486.6953 Q275,1487.0391 274.6563,1487.4453 Q274.1563,1488.0391 273.3594,1488.3672 Q272.3125,1488.8203 271.0313,1488.8203 Q269.5313,1488.8203 268.3281,1488.2266 Q267.3594,1487.7578 266.6719,1486.7422 Q266,1485.7266 266,1484.5234 L266,1483.4297 Q266,1482.1797 266.5938,1481.0859 Q267.2031,1479.9922 268.25,1479.4141 Q269.3125,1478.8203 270.5,1478.8203 Q271.2188,1478.8203 271.8438,1479.0703 Q272.4688,1479.3203 273,1479.8203 Z " fill="#000000"/><text fill="#000000" font-family="sans-serif" font-size="18" lengthAdjust="spacing" textLength="138" x="287" y="1490.6855">VaccineSchedule</text><line style="stroke:#181818;stroke-width:0.5;" x1="257" x2="429" y1="1501.6406" y2="1501.6406"/><text fill="#000000" font-family="sans-serif" font-size="18" lengthAdjust="spacing" textLength="128" x="264" y="1526.3262">vaccinationDate</text><text fill="#000000" font-family="sans-serif" font-size="18" lengthAdjust="spacing" textLength="69" x="264" y="1552.9668">SnsUser</text><text fill="#000000" font-family="sans-serif" font-size="18" lengthAdjust="spacing" textLength="104" x="264" y="1579.6074">VaccineType</text><line style="stroke:#181818;stroke-width:0.5;" x1="257" x2="429" y1="1589.5625" y2="1589.5625"/></g><!--MD5=[aaa7e27c4ec43917c82a021675d2c87a]
class WaitingRoom--><g id="elem_WaitingRoom"><rect codeLine="24" fill="#F1F1F1" height="52.6406" id="WaitingRoom" rx="2.5" ry="2.5" style="stroke:#181818;stroke-width:0.5;" width="143" x="403.5" y="221"/><ellipse cx="418.5" cy="239.3203" fill="#ADD1B2" rx="11" ry="11" style="stroke:#181818;stroke-width:1.0;"/><path d="M420.5,235.8203 Q420.7031,235.3203 420.9375,235.0703 Q421.1719,234.8203 421.4375,234.8203 Q421.9063,234.8203 422.2031,235.1016 Q422.5,235.3828 422.5,236.0391 L422.5,237.6016 Q422.5,238.2578 422.2188,238.5391 Q421.9375,238.8203 421.5,238.8203 Q421.1094,238.8203 420.8594,238.6484 Q420.6094,238.4766 420.5,238.0234 Q420.4531,237.7109 420.2813,237.5391 Q419.9688,237.2109 419.4063,237.0234 Q418.8438,236.8203 418.2813,236.8203 Q417.5781,236.8203 416.9844,237.1016 Q416.4063,237.3828 415.9531,238.0078 Q415.5,238.6328 415.5,239.4922 L415.5,240.4141 Q415.5,241.4453 416.3438,242.1328 Q417.1875,242.8203 418.6875,242.8203 Q419.5781,242.8203 420.2031,242.6172 Q420.5625,242.5078 420.9688,242.1484 Q421.2344,241.9453 421.375,241.8828 Q421.5156,241.8203 421.6875,241.8203 Q422.0156,241.8203 422.25,242.0859 Q422.5,242.3359 422.5,242.6953 Q422.5,243.0391 422.1563,243.4453 Q421.6563,244.0391 420.8594,244.3672 Q419.8125,244.8203 418.5313,244.8203 Q417.0313,244.8203 415.8281,244.2266 Q414.8594,243.7578 414.1719,242.7422 Q413.5,241.7266 413.5,240.5234 L413.5,239.4297 Q413.5,238.1797 414.0938,237.0859 Q414.7031,235.9922 415.75,235.4141 Q416.8125,234.8203 418,234.8203 Q418.7188,234.8203 419.3438,235.0703 Q419.9688,235.3203 420.5,235.8203 Z " fill="#000000"/><text fill="#000000" font-family="sans-serif" font-size="18" lengthAdjust="spacing" textLength="107" x="434.5" y="246.6855">WaitingRoom</text><line style="stroke:#181818;stroke-width:0.5;" x1="404.5" x2="545.5" y1="257.6406" y2="257.6406"/><line style="stroke:#181818;stroke-width:0.5;" x1="404.5" x2="545.5" y1="265.6406" y2="265.6406"/></g><!--MD5=[de60e6d4f424ae4d0522096f76a59010]
class VaccinationCenter--><g id="elem_VaccinationCenter"><rect codeLine="25" fill="#F1F1F1" height="372.3281" id="VaccinationCenter" rx="2.5" ry="2.5" style="stroke:#181818;stroke-width:0.5;" width="189" x="248.5" y="409"/><ellipse cx="266.65" cy="427.3203" fill="#ADD1B2" rx="11" ry="11" style="stroke:#181818;stroke-width:1.0;"/><path d="M268.65,423.8203 Q268.8531,423.3203 269.0875,423.0703 Q269.3219,422.8203 269.5875,422.8203 Q270.0563,422.8203 270.3531,423.1016 Q270.65,423.3828 270.65,424.0391 L270.65,425.6016 Q270.65,426.2578 270.3688,426.5391 Q270.0875,426.8203 269.65,426.8203 Q269.2594,426.8203 269.0094,426.6484 Q268.7594,426.4766 268.65,426.0234 Q268.6031,425.7109 268.4313,425.5391 Q268.1188,425.2109 267.5563,425.0234 Q266.9938,424.8203 266.4313,424.8203 Q265.7281,424.8203 265.1344,425.1016 Q264.5563,425.3828 264.1031,426.0078 Q263.65,426.6328 263.65,427.4922 L263.65,428.4141 Q263.65,429.4453 264.4938,430.1328 Q265.3375,430.8203 266.8375,430.8203 Q267.7281,430.8203 268.3531,430.6172 Q268.7125,430.5078 269.1188,430.1484 Q269.3844,429.9453 269.525,429.8828 Q269.6656,429.8203 269.8375,429.8203 Q270.1656,429.8203 270.4,430.0859 Q270.65,430.3359 270.65,430.6953 Q270.65,431.0391 270.3063,431.4453 Q269.8063,432.0391 269.0094,432.3672 Q267.9625,432.8203 266.6813,432.8203 Q265.1813,432.8203 263.9781,432.2266 Q263.0094,431.7578 262.3219,430.7422 Q261.65,429.7266 261.65,428.5234 L261.65,427.4297 Q261.65,426.1797 262.2438,425.0859 Q262.8531,423.9922 263.9,423.4141 Q264.9625,422.8203 266.15,422.8203 Q266.8688,422.8203 267.4938,423.0703 Q268.1188,423.3203 268.65,423.8203 Z " fill="#000000"/><text fill="#000000" font-family="sans-serif" font-size="18" lengthAdjust="spacing" textLength="146" x="283.35" y="434.6855">VaccinationCenter</text><line style="stroke:#181818;stroke-width:0.5;" x1="249.5" x2="436.5" y1="445.6406" y2="445.6406"/><text fill="#000000" font-family="sans-serif" font-size="18" lengthAdjust="spacing" textLength="50" x="256.5" y="470.3262">-name</text><text fill="#000000" font-family="sans-serif" font-size="18" lengthAdjust="spacing" textLength="70" x="256.5" y="496.9668">-address</text><text fill="#000000" font-family="sans-serif" font-size="18" lengthAdjust="spacing" textLength="119" x="256.5" y="523.6074">-phoneNumber</text><text fill="#000000" font-family="sans-serif" font-size="18" lengthAdjust="spacing" textLength="113" x="256.5" y="550.248">-emailAddress</text><text fill="#000000" font-family="sans-serif" font-size="18" lengthAdjust="spacing" textLength="92" x="256.5" y="576.8887">-faxNumber</text><text fill="#000000" font-family="sans-serif" font-size="18" lengthAdjust="spacing" textLength="132" x="256.5" y="603.5293">-websiteAddress</text><text fill="#000000" font-family="sans-serif" font-size="18" lengthAdjust="spacing" textLength="118" x="256.5" y="630.1699">-openingHours</text><text fill="#000000" font-family="sans-serif" font-size="18" lengthAdjust="spacing" textLength="133" x="256.5" y="656.8105">-openingMinutes</text><text fill="#000000" font-family="sans-serif" font-size="18" lengthAdjust="spacing" textLength="110" x="256.5" y="683.4512">-closingHours</text><text fill="#000000" font-family="sans-serif" font-size="18" lengthAdjust="spacing" textLength="125" x="256.5" y="710.0918">-closingMinutes</text><text fill="#000000" font-family="sans-serif" font-size="18" lengthAdjust="spacing" textLength="102" x="256.5" y="736.7324">-slotDuration</text><text fill="#000000" font-family="sans-serif" font-size="18" lengthAdjust="spacing" textLength="173" x="256.5" y="763.373">-maxNumberVaccines</text><line style="stroke:#181818;stroke-width:0.5;" x1="249.5" x2="436.5" y1="773.3281" y2="773.3281"/></g><!--MD5=[02e4b9b7573f1156f41e60aa5b4e25a4]
class Company--><g id="elem_Company"><rect codeLine="41" fill="#F1F1F1" height="79.2813" id="Company" rx="2.5" ry="2.5" style="stroke:#181818;stroke-width:0.5;" width="114" x="241" y="7"/><ellipse cx="256.9" cy="25.3203" fill="#ADD1B2" rx="11" ry="11" style="stroke:#181818;stroke-width:1.0;"/><path d="M258.9,21.8203 Q259.1031,21.3203 259.3375,21.0703 Q259.5719,20.8203 259.8375,20.8203 Q260.3063,20.8203 260.6031,21.1016 Q260.9,21.3828 260.9,22.0391 L260.9,23.6016 Q260.9,24.2578 260.6188,24.5391 Q260.3375,24.8203 259.9,24.8203 Q259.5094,24.8203 259.2594,24.6484 Q259.0094,24.4766 258.9,24.0234 Q258.8531,23.7109 258.6813,23.5391 Q258.3688,23.2109 257.8063,23.0234 Q257.2438,22.8203 256.6813,22.8203 Q255.9781,22.8203 255.3844,23.1016 Q254.8062,23.3828 254.3531,24.0078 Q253.9,24.6328 253.9,25.4922 L253.9,26.4141 Q253.9,27.4453 254.7437,28.1328 Q255.5875,28.8203 257.0875,28.8203 Q257.9781,28.8203 258.6031,28.6172 Q258.9625,28.5078 259.3688,28.1484 Q259.6344,27.9453 259.775,27.8828 Q259.9156,27.8203 260.0875,27.8203 Q260.4156,27.8203 260.65,28.0859 Q260.9,28.3359 260.9,28.6953 Q260.9,29.0391 260.5563,29.4453 Q260.0563,30.0391 259.2594,30.3672 Q258.2125,30.8203 256.9313,30.8203 Q255.4312,30.8203 254.2281,30.2266 Q253.2594,29.7578 252.5719,28.7422 Q251.9,27.7266 251.9,26.5234 L251.9,25.4297 Q251.9,24.1797 252.4937,23.0859 Q253.1031,21.9922 254.15,21.4141 Q255.2125,20.8203 256.4,20.8203 Q257.1188,20.8203 257.7438,21.0703 Q258.3688,21.3203 258.9,21.8203 Z " fill="#000000"/><text fill="#000000" font-family="sans-serif" font-size="18" lengthAdjust="spacing" textLength="76" x="273.1" y="32.6855">Company</text><line style="stroke:#181818;stroke-width:0.5;" x1="242" x2="354" y1="43.6406" y2="43.6406"/><text fill="#000000" font-family="sans-serif" font-size="18" lengthAdjust="spacing" textLength="98" x="249" y="68.3262">-designation</text><line style="stroke:#181818;stroke-width:0.5;" x1="242" x2="354" y1="78.2813" y2="78.2813"/></g><!--MD5=[99b8db98afdc2c8404e39242ef4c1e65]
class Platform--><g id="elem_Platform"><rect codeLine="45" fill="#F1F1F1" height="79.2813" id="Platform" rx="2.5" ry="2.5" style="stroke:#181818;stroke-width:0.5;" width="109" x="243.5" y="208"/><ellipse cx="261.65" cy="226.3203" fill="#ADD1B2" rx="11" ry="11" style="stroke:#181818;stroke-width:1.0;"/><path d="M263.65,222.8203 Q263.8531,222.3203 264.0875,222.0703 Q264.3219,221.8203 264.5875,221.8203 Q265.0563,221.8203 265.3531,222.1016 Q265.65,222.3828 265.65,223.0391 L265.65,224.6016 Q265.65,225.2578 265.3688,225.5391 Q265.0875,225.8203 264.65,225.8203 Q264.2594,225.8203 264.0094,225.6484 Q263.7594,225.4766 263.65,225.0234 Q263.6031,224.7109 263.4313,224.5391 Q263.1188,224.2109 262.5563,224.0234 Q261.9938,223.8203 261.4313,223.8203 Q260.7281,223.8203 260.1344,224.1016 Q259.5563,224.3828 259.1031,225.0078 Q258.65,225.6328 258.65,226.4922 L258.65,227.4141 Q258.65,228.4453 259.4938,229.1328 Q260.3375,229.8203 261.8375,229.8203 Q262.7281,229.8203 263.3531,229.6172 Q263.7125,229.5078 264.1188,229.1484 Q264.3844,228.9453 264.525,228.8828 Q264.6656,228.8203 264.8375,228.8203 Q265.1656,228.8203 265.4,229.0859 Q265.65,229.3359 265.65,229.6953 Q265.65,230.0391 265.3063,230.4453 Q264.8063,231.0391 264.0094,231.3672 Q262.9625,231.8203 261.6813,231.8203 Q260.1813,231.8203 258.9781,231.2266 Q258.0094,230.7578 257.3219,229.7422 Q256.65,228.7266 256.65,227.5234 L256.65,226.4297 Q256.65,225.1797 257.2438,224.0859 Q257.8531,222.9922 258.9,222.4141 Q259.9625,221.8203 261.15,221.8203 Q261.8688,221.8203 262.4938,222.0703 Q263.1188,222.3203 263.65,222.8203 Z " fill="#000000"/><text fill="#000000" font-family="sans-serif" font-size="18" lengthAdjust="spacing" textLength="66" x="278.35" y="233.6855">Platform</text><line style="stroke:#181818;stroke-width:0.5;" x1="244.5" x2="351.5" y1="244.6406" y2="244.6406"/><text fill="#000000" font-family="sans-serif" font-size="18" lengthAdjust="spacing" textLength="93" x="251.5" y="269.3262">-description</text><line style="stroke:#181818;stroke-width:0.5;" x1="244.5" x2="351.5" y1="279.2813" y2="279.2813"/></g><!--MD5=[cff4d1dfabf1e80e04b31c5c669534b5]
class Day--><g id="elem_Day"><rect codeLine="49" fill="#F1F1F1" height="239.125" id="Day" rx="2.5" ry="2.5" style="stroke:#181818;stroke-width:0.5;" width="189" x="248.5" y="903"/><ellipse cx="320.75" cy="921.3203" fill="#ADD1B2" rx="11" ry="11" style="stroke:#181818;stroke-width:1.0;"/><path d="M322.75,917.8203 Q322.9531,917.3203 323.1875,917.0703 Q323.4219,916.8203 323.6875,916.8203 Q324.1563,916.8203 324.4531,917.1016 Q324.75,917.3828 324.75,918.0391 L324.75,919.6016 Q324.75,920.2578 324.4688,920.5391 Q324.1875,920.8203 323.75,920.8203 Q323.3594,920.8203 323.1094,920.6484 Q322.8594,920.4766 322.75,920.0234 Q322.7031,919.7109 322.5313,919.5391 Q322.2188,919.2109 321.6563,919.0234 Q321.0938,918.8203 320.5313,918.8203 Q319.8281,918.8203 319.2344,919.1016 Q318.6563,919.3828 318.2031,920.0078 Q317.75,920.6328 317.75,921.4922 L317.75,922.4141 Q317.75,923.4453 318.5938,924.1328 Q319.4375,924.8203 320.9375,924.8203 Q321.8281,924.8203 322.4531,924.6172 Q322.8125,924.5078 323.2188,924.1484 Q323.4844,923.9453 323.625,923.8828 Q323.7656,923.8203 323.9375,923.8203 Q324.2656,923.8203 324.5,924.0859 Q324.75,924.3359 324.75,924.6953 Q324.75,925.0391 324.4063,925.4453 Q323.9063,926.0391 323.1094,926.3672 Q322.0625,926.8203 320.7813,926.8203 Q319.2813,926.8203 318.0781,926.2266 Q317.1094,925.7578 316.4219,924.7422 Q315.75,923.7266 315.75,922.5234 L315.75,921.4297 Q315.75,920.1797 316.3438,919.0859 Q316.9531,917.9922 318,917.4141 Q319.0625,916.8203 320.25,916.8203 Q320.9688,916.8203 321.5938,917.0703 Q322.2188,917.3203 322.75,917.8203 Z " fill="#000000"/><text fill="#000000" font-family="sans-serif" font-size="18" lengthAdjust="spacing" textLength="32" x="343.25" y="928.6855">Day</text><line style="stroke:#181818;stroke-width:0.5;" x1="249.5" x2="436.5" y1="939.6406" y2="939.6406"/><text fill="#000000" font-family="sans-serif" font-size="18" lengthAdjust="spacing" textLength="41" x="256.5" y="964.3262">-date</text><text fill="#000000" font-family="sans-serif" font-size="18" lengthAdjust="spacing" textLength="118" x="256.5" y="990.9668">-openingHours</text><text fill="#000000" font-family="sans-serif" font-size="18" lengthAdjust="spacing" textLength="133" x="256.5" y="1017.6074">-openingMinutes</text><text fill="#000000" font-family="sans-serif" font-size="18" lengthAdjust="spacing" textLength="110" x="256.5" y="1044.248">-closingHours</text><text fill="#000000" font-family="sans-serif" font-size="18" lengthAdjust="spacing" textLength="125" x="256.5" y="1070.8887">-closingMinutes</text><text fill="#000000" font-family="sans-serif" font-size="18" lengthAdjust="spacing" textLength="102" x="256.5" y="1097.5293">-slotDuration</text><text fill="#000000" font-family="sans-serif" font-size="18" lengthAdjust="spacing" textLength="173" x="256.5" y="1124.1699">-maxNumberVaccines</text><line style="stroke:#181818;stroke-width:0.5;" x1="249.5" x2="436.5" y1="1134.125" y2="1134.125"/></g><!--MD5=[45c6380d22fb72521f5065026b277fb9]
class Slot--><g id="elem_Slot"><rect codeLine="60" fill="#F1F1F1" height="79.2813" id="Slot" rx="2.5" ry="2.5" style="stroke:#181818;stroke-width:0.5;" width="67" x="309.5" y="1264"/><ellipse cx="324.5" cy="1282.3203" fill="#ADD1B2" rx="11" ry="11" style="stroke:#181818;stroke-width:1.0;"/><path d="M326.5,1278.8203 Q326.7031,1278.3203 326.9375,1278.0703 Q327.1719,1277.8203 327.4375,1277.8203 Q327.9063,1277.8203 328.2031,1278.1016 Q328.5,1278.3828 328.5,1279.0391 L328.5,1280.6016 Q328.5,1281.2578 328.2188,1281.5391 Q327.9375,1281.8203 327.5,1281.8203 Q327.1094,1281.8203 326.8594,1281.6484 Q326.6094,1281.4766 326.5,1281.0234 Q326.4531,1280.7109 326.2813,1280.5391 Q325.9688,1280.2109 325.4063,1280.0234 Q324.8438,1279.8203 324.2813,1279.8203 Q323.5781,1279.8203 322.9844,1280.1016 Q322.4063,1280.3828 321.9531,1281.0078 Q321.5,1281.6328 321.5,1282.4922 L321.5,1283.4141 Q321.5,1284.4453 322.3438,1285.1328 Q323.1875,1285.8203 324.6875,1285.8203 Q325.5781,1285.8203 326.2031,1285.6172 Q326.5625,1285.5078 326.9688,1285.1484 Q327.2344,1284.9453 327.375,1284.8828 Q327.5156,1284.8203 327.6875,1284.8203 Q328.0156,1284.8203 328.25,1285.0859 Q328.5,1285.3359 328.5,1285.6953 Q328.5,1286.0391 328.1563,1286.4453 Q327.6563,1287.0391 326.8594,1287.3672 Q325.8125,1287.8203 324.5313,1287.8203 Q323.0313,1287.8203 321.8281,1287.2266 Q320.8594,1286.7578 320.1719,1285.7422 Q319.5,1284.7266 319.5,1283.5234 L319.5,1282.4297 Q319.5,1281.1797 320.0938,1280.0859 Q320.7031,1278.9922 321.75,1278.4141 Q322.8125,1277.8203 324,1277.8203 Q324.7188,1277.8203 325.3438,1278.0703 Q325.9688,1278.3203 326.5,1278.8203 Z " fill="#000000"/><text fill="#000000" font-family="sans-serif" font-size="18" lengthAdjust="spacing" textLength="31" x="340.5" y="1289.6855">Slot</text><line style="stroke:#181818;stroke-width:0.5;" x1="310.5" x2="375.5" y1="1300.6406" y2="1300.6406"/><text fill="#000000" font-family="sans-serif" font-size="18" lengthAdjust="spacing" textLength="42" x="317.5" y="1325.3262">-hour</text><line style="stroke:#181818;stroke-width:0.5;" x1="310.5" x2="375.5" y1="1335.2813" y2="1335.2813"/></g><!--MD5=[7421f545a0d8420c5bec41e74b387d9c]
class Employee--><g id="elem_Employee"><rect codeLine="65" fill="#F1F1F1" height="239.125" id="Employee" rx="2.5" ry="2.5" style="stroke:#181818;stroke-width:0.5;" width="206" x="7" y="903"/><ellipse cx="64.25" cy="921.3203" fill="#ADD1B2" rx="11" ry="11" style="stroke:#181818;stroke-width:1.0;"/><path d="M66.25,917.8203 Q66.4531,917.3203 66.6875,917.0703 Q66.9219,916.8203 67.1875,916.8203 Q67.6563,916.8203 67.9531,917.1016 Q68.25,917.3828 68.25,918.0391 L68.25,919.6016 Q68.25,920.2578 67.9688,920.5391 Q67.6875,920.8203 67.25,920.8203 Q66.8594,920.8203 66.6094,920.6484 Q66.3594,920.4766 66.25,920.0234 Q66.2031,919.7109 66.0313,919.5391 Q65.7188,919.2109 65.1563,919.0234 Q64.5938,918.8203 64.0313,918.8203 Q63.3281,918.8203 62.7344,919.1016 Q62.1563,919.3828 61.7031,920.0078 Q61.25,920.6328 61.25,921.4922 L61.25,922.4141 Q61.25,923.4453 62.0938,924.1328 Q62.9375,924.8203 64.4375,924.8203 Q65.3281,924.8203 65.9531,924.6172 Q66.3125,924.5078 66.7188,924.1484 Q66.9844,923.9453 67.125,923.8828 Q67.2656,923.8203 67.4375,923.8203 Q67.7656,923.8203 68,924.0859 Q68.25,924.3359 68.25,924.6953 Q68.25,925.0391 67.9063,925.4453 Q67.4063,926.0391 66.6094,926.3672 Q65.5625,926.8203 64.2813,926.8203 Q62.7813,926.8203 61.5781,926.2266 Q60.6094,925.7578 59.9219,924.7422 Q59.25,923.7266 59.25,922.5234 L59.25,921.4297 Q59.25,920.1797 59.8438,919.0859 Q60.4531,917.9922 61.5,917.4141 Q62.5625,916.8203 63.75,916.8203 Q64.4688,916.8203 65.0938,917.0703 Q65.7188,917.3203 66.25,917.8203 Z " fill="#000000"/><text fill="#000000" font-family="sans-serif" font-size="18" lengthAdjust="spacing" textLength="79" x="86.75" y="928.6855">Employee</text><line style="stroke:#181818;stroke-width:0.5;" x1="8" x2="212" y1="939.6406" y2="939.6406"/><text fill="#000000" font-family="sans-serif" font-size="18" lengthAdjust="spacing" textLength="20" x="15" y="964.3262">-id</text><text fill="#000000" font-family="sans-serif" font-size="18" lengthAdjust="spacing" textLength="55" x="15" y="990.9668">-name;</text><text fill="#000000" font-family="sans-serif" font-size="18" lengthAdjust="spacing" textLength="75" x="15" y="1017.6074">-address;</text><text fill="#000000" font-family="sans-serif" font-size="18" lengthAdjust="spacing" textLength="124" x="15" y="1044.248">-phoneNumber;</text><text fill="#000000" font-family="sans-serif" font-size="18" lengthAdjust="spacing" textLength="118" x="15" y="1070.8887">-emailAddress;</text><text fill="#000000" font-family="sans-serif" font-size="18" lengthAdjust="spacing" textLength="163" x="15" y="1097.5293">-citizenCardNumber;</text><text fill="#000000" font-family="sans-serif" font-size="18" lengthAdjust="spacing" text-decoration="underline" textLength="190" x="15" y="1124.1699">-count_num_employees</text><line style="stroke:#181818;stroke-width:0.5;" x1="8" x2="212" y1="1134.125" y2="1134.125"/></g><!--MD5=[71da4be24892bfec694db06bf9e3c284]
link Company to Platform--><g id="link_Company_Platform"><path codeLine="77" d="M298,86.34 C298,121.41 298,172.72 298,207.76 " fill="none" id="Company-Platform" style="stroke:#181818;stroke-width:1.0;"/><polygon fill="#000000" points="303,152.1758,305.9389,143.1307,300.0611,143.1307,303,152.1758" style="stroke:#000000;stroke-width:1.0;"/><text fill="#000000" font-family="sans-serif" font-size="13" lengthAdjust="spacing" textLength="21" x="314" y="152.4951">has</text><text fill="#000000" font-family="sans-serif" font-size="13" lengthAdjust="spacing" textLength="7" x="288.1234" y="109.784">1</text><text fill="#000000" font-family="sans-serif" font-size="13" lengthAdjust="spacing" textLength="7" x="288.0891" y="195.0228">1</text></g><!--MD5=[9084761d50b3ae63772cbd16d81d5f7b]
link Platform to VaccinationCenter--><g id="link_Platform_VaccinationCenter"><path codeLine="78" d="M296.4,287.26 C295.84,302.73 295.28,320.71 295,337 C294.83,346.78 294.02,349.27 295,359 C296.64,375.26 298.91,392.06 301.57,408.85 " fill="none" id="Platform-VaccinationCenter" style="stroke:#181818;stroke-width:1.0;"/><polygon fill="#000000" points="299.7876,343.1803,297.2356,352.3421,303.1081,352.0924,299.7876,343.1803" style="stroke:#000000;stroke-width:1.0;"/><text fill="#000000" font-family="sans-serif" font-size="13" lengthAdjust="spacing" textLength="71" x="311" y="353.4951">registered in</text><text fill="#000000" font-family="sans-serif" font-size="13" lengthAdjust="spacing" textLength="7" x="286.2684" y="310.6912">1</text><text fill="#000000" font-family="sans-serif" font-size="13" lengthAdjust="spacing" textLength="5" x="292.6323" y="396.0705">*</text></g><!--MD5=[4b1cbd5f2b82fe473c8138e32680fa60]
link Receptionist to VaccineSchedule--><g id="link_Receptionist_VaccineSchedule"><path codeLine="79" d="M180.11,1330.43 C206.63,1363.01 253.11,1420.09 289.64,1464.97 " fill="none" id="Receptionist-VaccineSchedule" style="stroke:#181818;stroke-width:1.0;"/><polygon fill="#000000" points="253.1567,1408.0533,249.7253,1399.1833,245.167,1402.8943,253.1567,1408.0533" style="stroke:#000000;stroke-width:1.0;"/><text fill="#000000" font-family="sans-serif" font-size="13" lengthAdjust="spacing" textLength="49" x="261" y="1409.4951">confirms</text><text fill="#000000" font-family="sans-serif" font-size="13" lengthAdjust="spacing" textLength="7" x="174.0857" y="1353.0327">1</text><text fill="#000000" font-family="sans-serif" font-size="13" lengthAdjust="spacing" textLength="5" x="276.3116" y="1452.1378">*</text></g><!--MD5=[8e51fd2526d7ed1449c2aa4f1c32bf49]
link VaccineSchedule to SNSUser--><g id="link_VaccineSchedule_SNSUser"><path codeLine="80" d="M358.87,1598.14 C367.45,1633.62 378.31,1678.51 388.31,1719.87 " fill="none" id="VaccineSchedule-SNSUser" style="stroke:#181818;stroke-width:1.0;"/><polygon fill="#000000" points="381.1753,1664.0357,381.9057,1654.5532,376.1925,1655.9349,381.1753,1664.0357" style="stroke:#000000;stroke-width:1.0;"/><text fill="#000000" font-family="sans-serif" font-size="13" lengthAdjust="spacing" textLength="61" x="391" y="1664.4951">created for</text><text fill="#000000" font-family="sans-serif" font-size="13" lengthAdjust="spacing" textLength="20" x="337.2389" y="1620.9775">1..*</text><text fill="#000000" font-family="sans-serif" font-size="13" lengthAdjust="spacing" textLength="7" x="377.1197" y="1707.068">1</text></g><!--MD5=[1dfd2b8cef5257ed6efd914f274c3279]
link WaitingRoom to SNSUser--><g id="link_WaitingRoom_SNSUser"><path codeLine="81" d="M476.99,274.05 C481.28,331.3 491,474.21 491,594 C491,594 491,594 491,1532.5 C491,1595.49 476,1663.78 459.51,1719.84 " fill="none" id="WaitingRoom-SNSUser" style="stroke:#181818;stroke-width:1.0;"/><polygon fill="#000000" points="495.9396,1208.1754,498.9876,1199.1665,493.1102,1199.0955,495.9396,1208.1754" style="stroke:#000000;stroke-width:1.0;"/><text fill="#000000" font-family="sans-serif" font-size="13" lengthAdjust="spacing" textLength="49" x="507" y="1208.4951">contains</text><text fill="#000000" font-family="sans-serif" font-size="13" lengthAdjust="spacing" textLength="7" x="467.2661" y="297.1569">1</text><text fill="#000000" font-family="sans-serif" font-size="13" lengthAdjust="spacing" textLength="5" x="454.945" y="1707.036">*</text></g><!--MD5=[e4f582b8b48f7f61a15a78f6c5e9900d]
link VaccinationCenter to Day--><g id="link_VaccinationCenter_Day"><path codeLine="82" d="M343,781.08 C343,822.43 343,865.2 343,902.99 " fill="none" id="VaccinationCenter-Day" style="stroke:#181818;stroke-width:1.0;"/><polygon fill="#000000" points="348,847.1758,350.9389,838.1307,345.0611,838.1307,348,847.1758" style="stroke:#000000;stroke-width:1.0;"/><text fill="#000000" font-family="sans-serif" font-size="13" lengthAdjust="spacing" textLength="49" x="359" y="847.4951">contains</text><text fill="#000000" font-family="sans-serif" font-size="13" lengthAdjust="spacing" textLength="7" x="333.768" y="804.8477">1</text><text fill="#000000" font-family="sans-serif" font-size="13" lengthAdjust="spacing" textLength="5" x="335.7117" y="890.1956">*</text></g><!--MD5=[466451d383b1ad542b42b3bed4f43384]
link Day to Slot--><g id="link_Day_Slot"><path codeLine="83" d="M343,1142.23 C343,1185.83 343,1232.2 343,1263.79 " fill="none" id="Day-Slot" style="stroke:#181818;stroke-width:1.0;"/><polygon fill="#000000" points="348,1208.1758,350.9389,1199.1307,345.0611,1199.1307,348,1208.1758" style="stroke:#000000;stroke-width:1.0;"/><text fill="#000000" font-family="sans-serif" font-size="13" lengthAdjust="spacing" textLength="49" x="359" y="1208.4951">contains</text><text fill="#000000" font-family="sans-serif" font-size="13" lengthAdjust="spacing" textLength="7" x="333.6648" y="1165.6374">1</text><text fill="#000000" font-family="sans-serif" font-size="13" lengthAdjust="spacing" textLength="5" x="335.2547" y="1251.0577">*</text></g><!--MD5=[b10ccaee82a2a14db586e48fe75e4fa7]
link Slot to VaccineSchedule--><g id="link_Slot_VaccineSchedule"><path codeLine="84" d="M343,1343.09 C343,1376.38 343,1425.16 343,1464.61 " fill="none" id="Slot-VaccineSchedule" style="stroke:#181818;stroke-width:1.0;"/><polygon fill="#000000" points="348,1409.1758,350.9389,1400.1307,345.0611,1400.1307,348,1409.1758" style="stroke:#000000;stroke-width:1.0;"/><text fill="#000000" font-family="sans-serif" font-size="13" lengthAdjust="spacing" textLength="49" x="359" y="1409.4951">contains</text><text fill="#000000" font-family="sans-serif" font-size="13" lengthAdjust="spacing" textLength="7" x="333.0891" y="1366.8043">1</text><text fill="#000000" font-family="sans-serif" font-size="13" lengthAdjust="spacing" textLength="5" x="335.5359" y="1452.2165">*</text></g><!--MD5=[bfff716514ca687b645fe473c6e098a4]
reverse link Employee to Receptionist--><g id="link_Employee_Receptionist"><path codeLine="85" d="M134.33,1162.03 C142.06,1206.04 149.81,1250.17 154.51,1276.92 " fill="none" id="Employee-backto-Receptionist" style="stroke:#181818;stroke-width:1.0;"/><polygon fill="none" points="127.42,1163.14,130.85,1142.23,141.21,1160.71,127.42,1163.14" style="stroke:#181818;stroke-width:1.0;"/></g><!--MD5=[acb5d1129714769191577de0c65a7622]
link WaitingRoom to VaccinationCenter--><g id="link_WaitingRoom_VaccinationCenter"><path codeLine="86" d="M458.67,274.11 C448.11,291.4 434.6,315 425,337 C415.02,359.86 405.65,384.32 397.06,408.74 " fill="none" id="WaitingRoom-VaccinationCenter" style="stroke:#181818;stroke-width:1.0;"/><polygon fill="#000000" points="432.0806,343.6292,425.6444,350.6311,430.9891,353.077,432.0806,343.6292" style="stroke:#000000;stroke-width:1.0;"/><text fill="#000000" font-family="sans-serif" font-size="13" lengthAdjust="spacing" textLength="21" x="441" y="353.4951">has</text><text fill="#000000" font-family="sans-serif" font-size="13" lengthAdjust="spacing" textLength="7" x="445.1676" y="297.2292">1</text><text fill="#000000" font-family="sans-serif" font-size="13" lengthAdjust="spacing" textLength="7" x="390.1086" y="395.9559">1</text></g><!--MD5=[691a35ea76724a37ebbe246cff081ce5]
@startuml
skinparam classAttributeIconSize 0
skinparam padding 2
skinparam ranksep 100
skinparam classFontSize 18

class SNSUser{
-name
-address
-gender
-email
-birthDate
-snsUserNumber
-citizenCardNumber
}
class Receptionist

class VaccineSchedule
{
vaccinationDate
SnsUser
VaccineType
}

class WaitingRoom
class VaccinationCenter
{
-name
-address
-phoneNumber
-emailAddress
-faxNumber
-websiteAddress
-openingHours
-openingMinutes
-closingHours
-closingMinutes
-slotDuration
-maxNumberVaccines

}
class Company {
-designation
}

class Platform{
-description
}

class Day
{
-date
-openingHours
-openingMinutes
-closingHours
-closingMinutes
-slotDuration
-maxNumberVaccines
}

class Slot
{
-hour
}

class Employee
{
  -id
  -name;
  -address;
  -phoneNumber;
  -emailAddress;
  -citizenCardNumber;
  -{static}count_num_employees
}


Company "1" - - "1" Platform : has >
Platform "1" - - "*" VaccinationCenter : registered in <
Receptionist "1" - - "*" VaccineSchedule : confirms >
VaccineSchedule "1..*" - - "1" SNSUser : created for >
WaitingRoom "1" - - "*" SNSUser : contains >
VaccinationCenter "1" - - "*" Day : contains >
Day "1" - - "*" Slot : contains >
Slot "1" - - "*" VaccineSchedule : contains >
Employee <|- - Receptionist
WaitingRoom "1" - - "1" VaccinationCenter : has <

@enduml

PlantUML version 1.2022.4(Sat Apr 09 14:29:17 BST 2022)
(GPL source distribution)
Java Runtime: OpenJDK Runtime Environment
JVM: OpenJDK 64-Bit Server VM
Default Encoding: Cp1252
Language: en
Country: US
--></g></svg>