<?xml version="1.0" encoding="UTF-8" standalone="no"?><svg xmlns="http://www.w3.org/2000/svg" xmlns:xlink="http://www.w3.org/1999/xlink" contentStyleType="text/css" height="398px" preserveAspectRatio="none" style="width:405px;height:398px;background:#FFFFFF;" version="1.1" viewBox="0 0 405 398" width="405px" zoomAndPan="magnify"><defs/><g><rect fill="#FFFFFF" height="207.1094" style="stroke:#181818;stroke-width:1.0;" width="10" x="46.5" y="96.6094"/><rect fill="#FFFFFF" height="34.3516" style="stroke:#181818;stroke-width:1.0;" width="10" x="362.5" y="122.9609"/><rect fill="#FFFFFF" height="34.3516" style="stroke:#181818;stroke-width:1.0;" width="10" x="362.5" y="191.6641"/><rect fill="#FFFFFF" height="34.3516" style="stroke:#181818;stroke-width:1.0;" width="10" x="362.5" y="260.3672"/><line style="stroke:#181818;stroke-width:0.5;stroke-dasharray:5.0,5.0;" x1="51" x2="51" y1="86.6094" y2="312.7188"/><line style="stroke:#181818;stroke-width:0.5;stroke-dasharray:5.0,5.0;" x1="367.5" x2="367.5" y1="86.6094" y2="312.7188"/><text fill="#000000" font-family="sans-serif" font-size="14" lengthAdjust="spacing" textLength="83" x="7" y="81.5332">Administrator</text><ellipse cx="51.5" cy="13.5" fill="#E2E2F0" rx="8" ry="8" style="stroke:#181818;stroke-width:0.5;"/><path d="M51.5,21.5 L51.5,48.5 M38.5,29.5 L64.5,29.5 M51.5,48.5 L38.5,63.5 M51.5,48.5 L64.5,63.5 " fill="none" style="stroke:#181818;stroke-width:0.5;"/><text fill="#000000" font-family="sans-serif" font-size="14" lengthAdjust="spacing" textLength="83" x="7" y="328.252">Administrator</text><ellipse cx="51.5" cy="341.8281" fill="#E2E2F0" rx="8" ry="8" style="stroke:#181818;stroke-width:0.5;"/><path d="M51.5,349.8281 L51.5,376.8281 M38.5,357.8281 L64.5,357.8281 M51.5,376.8281 L38.5,391.8281 M51.5,376.8281 L64.5,391.8281 " fill="none" style="stroke:#181818;stroke-width:0.5;"/><rect fill="#E2E2F0" height="35.6094" rx="2.5" ry="2.5" style="stroke:#181818;stroke-width:0.5;" width="64" x="335.5" y="50"/><text fill="#000000" font-family="sans-serif" font-size="14" lengthAdjust="spacing" textLength="46" x="344.5" y="73.5332">System</text><rect fill="#E2E2F0" height="35.6094" rx="2.5" ry="2.5" style="stroke:#181818;stroke-width:0.5;" width="64" x="335.5" y="311.7188"/><text fill="#000000" font-family="sans-serif" font-size="14" lengthAdjust="spacing" textLength="46" x="344.5" y="335.252">System</text><rect fill="#FFFFFF" height="207.1094" style="stroke:#181818;stroke-width:1.0;" width="10" x="46.5" y="96.6094"/><rect fill="#FFFFFF" height="34.3516" style="stroke:#181818;stroke-width:1.0;" width="10" x="362.5" y="122.9609"/><rect fill="#FFFFFF" height="34.3516" style="stroke:#181818;stroke-width:1.0;" width="10" x="362.5" y="191.6641"/><rect fill="#FFFFFF" height="34.3516" style="stroke:#181818;stroke-width:1.0;" width="10" x="362.5" y="260.3672"/><polygon fill="#181818" points="350.5,118.9609,360.5,122.9609,350.5,126.9609,354.5,122.9609" style="stroke:#181818;stroke-width:1.0;"/><line style="stroke:#181818;stroke-width:1.0;" x1="56.5" x2="356.5" y1="122.9609" y2="122.9609"/><text fill="#000000" font-family="sans-serif" font-size="13" font-weight="bold" lengthAdjust="spacing" textLength="7" x="65.5" y="116.1045">1</text><text fill="#000000" font-family="sans-serif" font-size="13" lengthAdjust="spacing" textLength="209" x="80.5" y="116.1045">starts specifying a new vaccine type</text><polygon fill="#181818" points="67.5,153.3125,57.5,157.3125,67.5,161.3125,63.5,157.3125" style="stroke:#181818;stroke-width:1.0;"/><line style="stroke:#181818;stroke-width:1.0;stroke-dasharray:2.0,2.0;" x1="61.5" x2="366.5" y1="157.3125" y2="157.3125"/><text fill="#000000" font-family="sans-serif" font-size="13" font-weight="bold" lengthAdjust="spacing" textLength="7" x="75.5" y="150.4561">2</text><text fill="#000000" font-family="sans-serif" font-size="13" lengthAdjust="spacing" textLength="234" x="90.5" y="150.4561">requests data (code, designation, whold)</text><polygon fill="#181818" points="350.5,187.6641,360.5,191.6641,350.5,195.6641,354.5,191.6641" style="stroke:#181818;stroke-width:1.0;"/><line style="stroke:#181818;stroke-width:1.0;" x1="56.5" x2="356.5" y1="191.6641" y2="191.6641"/><text fill="#000000" font-family="sans-serif" font-size="13" font-weight="bold" lengthAdjust="spacing" textLength="7" x="65.5" y="184.8076">3</text><text fill="#000000" font-family="sans-serif" font-size="13" lengthAdjust="spacing" textLength="122" x="80.5" y="184.8076">types requested data</text><polygon fill="#181818" points="67.5,222.0156,57.5,226.0156,67.5,230.0156,63.5,226.0156" style="stroke:#181818;stroke-width:1.0;"/><line style="stroke:#181818;stroke-width:1.0;stroke-dasharray:2.0,2.0;" x1="61.5" x2="366.5" y1="226.0156" y2="226.0156"/><text fill="#000000" font-family="sans-serif" font-size="13" font-weight="bold" lengthAdjust="spacing" textLength="7" x="75.5" y="219.1592">4</text><text fill="#000000" font-family="sans-serif" font-size="13" lengthAdjust="spacing" textLength="263" x="90.5" y="219.1592">shows the data and requests the confirmation</text><polygon fill="#181818" points="350.5,256.3672,360.5,260.3672,350.5,264.3672,354.5,260.3672" style="stroke:#181818;stroke-width:1.0;"/><line style="stroke:#181818;stroke-width:1.0;" x1="56.5" x2="356.5" y1="260.3672" y2="260.3672"/><text fill="#000000" font-family="sans-serif" font-size="13" font-weight="bold" lengthAdjust="spacing" textLength="7" x="65.5" y="253.5107">5</text><text fill="#000000" font-family="sans-serif" font-size="13" lengthAdjust="spacing" textLength="100" x="80.5" y="253.5107">confirms the data</text><polygon fill="#181818" points="67.5,290.7188,57.5,294.7188,67.5,298.7188,63.5,294.7188" style="stroke:#181818;stroke-width:1.0;"/><line style="stroke:#181818;stroke-width:1.0;stroke-dasharray:2.0,2.0;" x1="61.5" x2="366.5" y1="294.7188" y2="294.7188"/><text fill="#000000" font-family="sans-serif" font-size="13" font-weight="bold" lengthAdjust="spacing" textLength="7" x="75.5" y="287.8623">6</text><text fill="#000000" font-family="sans-serif" font-size="13" lengthAdjust="spacing" textLength="159" x="90.5" y="287.8623">informs opperation success</text><!--MD5=[42118b7761a16059c2d695b925e5e778]
@startuml
'https://plantuml.com/sequence-diagram
skinparam classAttributeIconSize 0
skinparam padding 2
skinparam ranksep 100
skinparam classFontSize 18


autonumber
actor Administrator
activate Administrator
Administrator -> System: starts specifying a new vaccine type
activate System
System - -> Administrator: requests data (code, designation, whold)
deactivate System

Administrator -> System: types requested data
activate System
Administrator <- - System: shows the data and requests the confirmation
deactivate System

Administrator -> System : confirms the data
activate System
Administrator <- - System : informs opperation success
deactivate System
@enduml

@startuml
skinparam classAttributeIconSize 0
skinparam padding 2
skinparam ranksep 100
skinparam classFontSize 18


autonumber
actor Administrator
activate Administrator
Administrator -> System: starts specifying a new vaccine type
activate System
System - -> Administrator: requests data (code, designation, whold)
deactivate System

Administrator -> System: types requested data
activate System
Administrator <- - System: shows the data and requests the confirmation
deactivate System

Administrator -> System : confirms the data
activate System
Administrator <- - System : informs opperation success
deactivate System
@enduml

PlantUML version 1.2022.4(Sat Apr 09 14:29:17 BST 2022)
(GPL source distribution)
Java Runtime: OpenJDK Runtime Environment
JVM: OpenJDK 64-Bit Server VM
Default Encoding: Cp1252
Language: pt
Country: PT
--></g></svg>