<?xml version="1.0" encoding="UTF-8" standalone="no"?><svg xmlns="http://www.w3.org/2000/svg" xmlns:xlink="http://www.w3.org/1999/xlink" contentStyleType="text/css" height="1665px" preserveAspectRatio="none" style="width:2694px;height:1665px;background:#FFFFFF;" version="1.1" viewBox="0 0 2694 1665" width="2694px" zoomAndPan="magnify"><defs/><g><rect fill="#FFFFFF" height="1472.3047" style="stroke:#181818;stroke-width:1.0;" width="10" x="59.5" y="92.6094"/><rect fill="#FFFFFF" height="362.4609" style="stroke:#181818;stroke-width:1.0;" width="10" x="676.5" y="114.9609"/><rect fill="#FFFFFF" height="90.7031" style="stroke:#181818;stroke-width:1.0;" width="10" x="676.5" y="507.7734"/><rect fill="#FFFFFF" height="280.4609" style="stroke:#181818;stroke-width:1.0;" width="10" x="676.5" y="628.8281"/><rect fill="#FFFFFF" height="369.8125" style="stroke:#181818;stroke-width:1.0;" width="10" x="676.5" y="939.6406"/><rect fill="#FFFFFF" height="225.1094" style="stroke:#181818;stroke-width:1.0;" width="10" x="676.5" y="1339.8047"/><rect fill="#FFFFFF" height="301.7578" style="stroke:#181818;stroke-width:1.0;" width="10" x="1228.5" y="145.3125"/><rect fill="#FFFFFF" height="30" style="stroke:#181818;stroke-width:1.0;" width="10" x="1228.5" y="538.125"/><rect fill="#FFFFFF" height="250.1094" style="stroke:#181818;stroke-width:1.0;" width="10" x="1228.5" y="659.1797"/><rect fill="#FFFFFF" height="309.1094" style="stroke:#181818;stroke-width:1.0;" width="10" x="1228.5" y="969.9922"/><rect fill="#FFFFFF" height="164.4063" style="stroke:#181818;stroke-width:1.0;" width="10" x="1228.5" y="1370.1563"/><rect fill="#FFFFFF" height="30" style="stroke:#181818;stroke-width:1.0;" width="10" x="1380.5" y="175.6641"/><rect fill="#FFFFFF" height="30" style="stroke:#181818;stroke-width:1.0;" width="10" x="1445.5" y="236.0156"/><rect fill="#FFFFFF" height="30" style="stroke:#181818;stroke-width:1.0;" width="10" x="1516" y="296.3672"/><rect fill="#FFFFFF" height="30" style="stroke:#181818;stroke-width:1.0;" width="10" x="1721.5" y="356.7188"/><rect fill="#FFFFFF" height="30" style="stroke:#181818;stroke-width:1.0;" width="10" x="1721.5" y="417.0703"/><rect fill="#FFFFFF" height="60.3516" style="stroke:#181818;stroke-width:1.0;" width="10" x="1858" y="689.5313"/><rect fill="#FFFFFF" height="66.3516" style="stroke:#181818;stroke-width:1.0;" width="10" x="1858" y="780.2344"/><rect fill="#FFFFFF" height="28" style="stroke:#181818;stroke-width:1.0;" width="10" x="1863" y="818.5859"/><rect fill="#FFFFFF" height="96.7031" style="stroke:#181818;stroke-width:1.0;" width="10" x="1858" y="1400.5078"/><rect fill="#FFFFFF" height="28" style="stroke:#181818;stroke-width:1.0;" width="10" x="1863" y="1469.2109"/><rect fill="#FFFFFF" height="30" style="stroke:#181818;stroke-width:1.0;" width="10" x="2032" y="719.8828"/><rect fill="#FFFFFF" height="60.3516" style="stroke:#181818;stroke-width:1.0;" width="10" x="2032" y="1000.3438"/><rect fill="#FFFFFF" height="30" style="stroke:#181818;stroke-width:1.0;" width="10" x="2032" y="1091.0469"/><rect fill="#FFFFFF" height="30" style="stroke:#181818;stroke-width:1.0;" width="10" x="2032" y="1151.3984"/><rect fill="#FFFFFF" height="30" style="stroke:#181818;stroke-width:1.0;" width="10" x="2032" y="1218.75"/><rect fill="#FFFFFF" height="30" style="stroke:#181818;stroke-width:1.0;" width="10" x="2594" y="1030.6953"/><rect height="320.8125" style="stroke:#000000;stroke-width:1.5;fill:none;" width="2678" x="10" y="868.5859"/><line style="stroke:#181818;stroke-width:0.5;fill:none;stroke-dasharray:5.0,5.0;" x1="64" x2="64" y1="82.6094" y2="1582.9141"/><line style="stroke:#181818;stroke-width:0.5;fill:none;stroke-dasharray:5.0,5.0;" x1="681.5" x2="681.5" y1="82.6094" y2="1582.9141"/><line style="stroke:#181818;stroke-width:0.5;fill:none;stroke-dasharray:5.0,5.0;" x1="1233.5" x2="1233.5" y1="82.6094" y2="1582.9141"/><line style="stroke:#181818;stroke-width:0.5;fill:none;stroke-dasharray:5.0,5.0;" x1="1385" x2="1385" y1="82.6094" y2="1582.9141"/><line style="stroke:#181818;stroke-width:0.5;fill:none;stroke-dasharray:5.0,5.0;" x1="1450" x2="1450" y1="82.6094" y2="1582.9141"/><line style="stroke:#181818;stroke-width:0.5;fill:none;stroke-dasharray:5.0,5.0;" x1="1521" x2="1521" y1="82.6094" y2="1582.9141"/><line style="stroke:#181818;stroke-width:0.5;fill:none;stroke-dasharray:5.0,5.0;" x1="1605" x2="1605" y1="82.6094" y2="1582.9141"/><line style="stroke:#181818;stroke-width:0.5;fill:none;stroke-dasharray:5.0,5.0;" x1="1726" x2="1726" y1="82.6094" y2="1582.9141"/><line style="stroke:#181818;stroke-width:0.5;fill:none;stroke-dasharray:5.0,5.0;" x1="1863" x2="1863" y1="82.6094" y2="1582.9141"/><line style="stroke:#181818;stroke-width:0.5;fill:none;stroke-dasharray:5.0,5.0;" x1="2037" x2="2037" y1="82.6094" y2="1582.9141"/><line style="stroke:#181818;stroke-width:0.5;fill:none;stroke-dasharray:5.0,5.0;" x1="2599" x2="2599" y1="82.6094" y2="1582.9141"/><text fill="#000000" font-family="sans-serif" font-size="14" lengthAdjust="spacing" textLength="83" x="20" y="79.5332">Administrator</text><ellipse cx="64.5" cy="13.5" fill="#E2E2F0" rx="8" ry="8" style="stroke:#181818;stroke-width:0.5;"/><path d="M64.5,21.5 L64.5,48.5 M51.5,29.5 L77.5,29.5 M64.5,48.5 L51.5,63.5 M64.5,48.5 L77.5,63.5 " fill="none" style="stroke:#181818;stroke-width:0.5;"/><text fill="#000000" font-family="sans-serif" font-size="14" lengthAdjust="spacing" textLength="83" x="20" y="1596.4473">Administrator</text><ellipse cx="64.5" cy="1608.0234" fill="#E2E2F0" rx="8" ry="8" style="stroke:#181818;stroke-width:0.5;"/><path d="M64.5,1616.0234 L64.5,1643.0234 M51.5,1624.0234 L77.5,1624.0234 M64.5,1643.0234 L51.5,1658.0234 M64.5,1643.0234 L77.5,1658.0234 " fill="none" style="stroke:#181818;stroke-width:0.5;"/><rect fill="#E2E2F0" height="31.6094" rx="2.5" ry="2.5" style="stroke:#181818;stroke-width:0.5;" width="150" x="606.5" y="50"/><text fill="#000000" font-family="sans-serif" font-size="14" lengthAdjust="spacing" textLength="136" x="613.5" y="71.5332">:specifyNewVaccineUI</text><rect fill="#E2E2F0" height="31.6094" rx="2.5" ry="2.5" style="stroke:#181818;stroke-width:0.5;" width="150" x="606.5" y="1581.9141"/><text fill="#000000" font-family="sans-serif" font-size="14" lengthAdjust="spacing" textLength="136" x="613.5" y="1603.4473">:specifyNewVaccineUI</text><rect fill="#E2E2F0" height="31.6094" rx="2.5" ry="2.5" style="stroke:#181818;stroke-width:0.5;" width="200" x="1133.5" y="50"/><text fill="#000000" font-family="sans-serif" font-size="14" lengthAdjust="spacing" textLength="186" x="1140.5" y="71.5332">:specifyNewVaccineController</text><rect fill="#E2E2F0" height="31.6094" rx="2.5" ry="2.5" style="stroke:#181818;stroke-width:0.5;" width="200" x="1133.5" y="1581.9141"/><text fill="#000000" font-family="sans-serif" font-size="14" lengthAdjust="spacing" textLength="186" x="1140.5" y="1603.4473">:specifyNewVaccineController</text><rect fill="#E2E2F0" height="31.6094" rx="2.5" ry="2.5" style="stroke:#181818;stroke-width:0.5;" width="67" x="1352" y="50"/><text fill="#000000" font-family="sans-serif" font-size="14" lengthAdjust="spacing" textLength="53" x="1359" y="71.5332">app:App</text><rect fill="#E2E2F0" height="31.6094" rx="2.5" ry="2.5" style="stroke:#181818;stroke-width:0.5;" width="67" x="1352" y="1581.9141"/><text fill="#000000" font-family="sans-serif" font-size="14" lengthAdjust="spacing" textLength="53" x="1359" y="1603.4473">app:App</text><rect fill="#E2E2F0" height="31.6094" rx="2.5" ry="2.5" style="stroke:#181818;stroke-width:0.5;" width="43" x="1429" y="50"/><text fill="#000000" font-family="sans-serif" font-size="14" lengthAdjust="spacing" textLength="29" x="1436" y="71.5332">:App</text><rect fill="#E2E2F0" height="31.6094" rx="2.5" ry="2.5" style="stroke:#181818;stroke-width:0.5;" width="43" x="1429" y="1581.9141"/><text fill="#000000" font-family="sans-serif" font-size="14" lengthAdjust="spacing" textLength="29" x="1436" y="1603.4473">:App</text><rect fill="#E2E2F0" height="31.6094" rx="2.5" ry="2.5" style="stroke:#181818;stroke-width:0.5;" width="78" x="1482" y="50"/><text fill="#000000" font-family="sans-serif" font-size="14" lengthAdjust="spacing" textLength="64" x="1489" y="71.5332">:Company</text><rect fill="#E2E2F0" height="31.6094" rx="2.5" ry="2.5" style="stroke:#181818;stroke-width:0.5;" width="78" x="1482" y="1581.9141"/><text fill="#000000" font-family="sans-serif" font-size="14" lengthAdjust="spacing" textLength="64" x="1489" y="1603.4473">:Company</text><rect fill="#E2E2F0" height="31.6094" rx="2.5" ry="2.5" style="stroke:#181818;stroke-width:0.5;" width="70" x="1570" y="50"/><text fill="#000000" font-family="sans-serif" font-size="14" lengthAdjust="spacing" textLength="56" x="1577" y="71.5332">:Platform</text><rect fill="#E2E2F0" height="31.6094" rx="2.5" ry="2.5" style="stroke:#181818;stroke-width:0.5;" width="70" x="1570" y="1581.9141"/><text fill="#000000" font-family="sans-serif" font-size="14" lengthAdjust="spacing" textLength="56" x="1577" y="1603.4473">:Platform</text><rect fill="#E2E2F0" height="31.6094" rx="2.5" ry="2.5" style="stroke:#181818;stroke-width:0.5;" width="153" x="1650" y="50"/><text fill="#000000" font-family="sans-serif" font-size="14" lengthAdjust="spacing" textLength="139" x="1657" y="71.5332">:RegisterVaccineType</text><rect fill="#E2E2F0" height="31.6094" rx="2.5" ry="2.5" style="stroke:#181818;stroke-width:0.5;" width="153" x="1650" y="1581.9141"/><text fill="#000000" font-family="sans-serif" font-size="14" lengthAdjust="spacing" textLength="139" x="1657" y="1603.4473">:RegisterVaccineType</text><rect fill="#E2E2F0" height="31.6094" rx="2.5" ry="2.5" style="stroke:#181818;stroke-width:0.5;" width="100" x="1813" y="50"/><text fill="#000000" font-family="sans-serif" font-size="14" lengthAdjust="spacing" textLength="86" x="1820" y="71.5332">:VaccineType</text><rect fill="#E2E2F0" height="31.6094" rx="2.5" ry="2.5" style="stroke:#181818;stroke-width:0.5;" width="100" x="1813" y="1581.9141"/><text fill="#000000" font-family="sans-serif" font-size="14" lengthAdjust="spacing" textLength="86" x="1820" y="1603.4473">:VaccineType</text><rect fill="#E2E2F0" height="31.6094" rx="2.5" ry="2.5" style="stroke:#181818;stroke-width:0.5;" width="68" x="2003" y="50"/><text fill="#000000" font-family="sans-serif" font-size="14" lengthAdjust="spacing" textLength="54" x="2010" y="71.5332">:Vaccine</text><rect fill="#E2E2F0" height="31.6094" rx="2.5" ry="2.5" style="stroke:#181818;stroke-width:0.5;" width="68" x="2003" y="1581.9141"/><text fill="#000000" font-family="sans-serif" font-size="14" lengthAdjust="spacing" textLength="54" x="2010" y="1603.4473">:Vaccine</text><rect fill="#E2E2F0" height="31.6094" rx="2.5" ry="2.5" style="stroke:#181818;stroke-width:0.5;" width="158" x="2520" y="50"/><text fill="#000000" font-family="sans-serif" font-size="14" lengthAdjust="spacing" textLength="144" x="2527" y="71.5332">:AdministrationProcess</text><rect fill="#E2E2F0" height="31.6094" rx="2.5" ry="2.5" style="stroke:#181818;stroke-width:0.5;" width="158" x="2520" y="1581.9141"/><text fill="#000000" font-family="sans-serif" font-size="14" lengthAdjust="spacing" textLength="144" x="2527" y="1603.4473">:AdministrationProcess</text><rect fill="#FFFFFF" height="1472.3047" style="stroke:#181818;stroke-width:1.0;" width="10" x="59.5" y="92.6094"/><rect fill="#FFFFFF" height="362.4609" style="stroke:#181818;stroke-width:1.0;" width="10" x="676.5" y="114.9609"/><rect fill="#FFFFFF" height="90.7031" style="stroke:#181818;stroke-width:1.0;" width="10" x="676.5" y="507.7734"/><rect fill="#FFFFFF" height="280.4609" style="stroke:#181818;stroke-width:1.0;" width="10" x="676.5" y="628.8281"/><rect fill="#FFFFFF" height="369.8125" style="stroke:#181818;stroke-width:1.0;" width="10" x="676.5" y="939.6406"/><rect fill="#FFFFFF" height="225.1094" style="stroke:#181818;stroke-width:1.0;" width="10" x="676.5" y="1339.8047"/><rect fill="#FFFFFF" height="301.7578" style="stroke:#181818;stroke-width:1.0;" width="10" x="1228.5" y="145.3125"/><rect fill="#FFFFFF" height="30" style="stroke:#181818;stroke-width:1.0;" width="10" x="1228.5" y="538.125"/><rect fill="#FFFFFF" height="250.1094" style="stroke:#181818;stroke-width:1.0;" width="10" x="1228.5" y="659.1797"/><rect fill="#FFFFFF" height="309.1094" style="stroke:#181818;stroke-width:1.0;" width="10" x="1228.5" y="969.9922"/><rect fill="#FFFFFF" height="164.4063" style="stroke:#181818;stroke-width:1.0;" width="10" x="1228.5" y="1370.1563"/><rect fill="#FFFFFF" height="30" style="stroke:#181818;stroke-width:1.0;" width="10" x="1380.5" y="175.6641"/><rect fill="#FFFFFF" height="30" style="stroke:#181818;stroke-width:1.0;" width="10" x="1445.5" y="236.0156"/><rect fill="#FFFFFF" height="30" style="stroke:#181818;stroke-width:1.0;" width="10" x="1516" y="296.3672"/><rect fill="#FFFFFF" height="30" style="stroke:#181818;stroke-width:1.0;" width="10" x="1721.5" y="356.7188"/><rect fill="#FFFFFF" height="30" style="stroke:#181818;stroke-width:1.0;" width="10" x="1721.5" y="417.0703"/><rect fill="#FFFFFF" height="60.3516" style="stroke:#181818;stroke-width:1.0;" width="10" x="1858" y="689.5313"/><rect fill="#FFFFFF" height="66.3516" style="stroke:#181818;stroke-width:1.0;" width="10" x="1858" y="780.2344"/><rect fill="#FFFFFF" height="28" style="stroke:#181818;stroke-width:1.0;" width="10" x="1863" y="818.5859"/><rect fill="#FFFFFF" height="96.7031" style="stroke:#181818;stroke-width:1.0;" width="10" x="1858" y="1400.5078"/><rect fill="#FFFFFF" height="28" style="stroke:#181818;stroke-width:1.0;" width="10" x="1863" y="1469.2109"/><rect fill="#FFFFFF" height="30" style="stroke:#181818;stroke-width:1.0;" width="10" x="2032" y="719.8828"/><rect fill="#FFFFFF" height="60.3516" style="stroke:#181818;stroke-width:1.0;" width="10" x="2032" y="1000.3438"/><rect fill="#FFFFFF" height="30" style="stroke:#181818;stroke-width:1.0;" width="10" x="2032" y="1091.0469"/><rect fill="#FFFFFF" height="30" style="stroke:#181818;stroke-width:1.0;" width="10" x="2032" y="1151.3984"/><rect fill="#FFFFFF" height="30" style="stroke:#181818;stroke-width:1.0;" width="10" x="2032" y="1218.75"/><rect fill="#FFFFFF" height="30" style="stroke:#181818;stroke-width:1.0;" width="10" x="2594" y="1030.6953"/><polygon fill="#181818" points="664.5,110.9609,674.5,114.9609,664.5,118.9609,668.5,114.9609" style="stroke:#181818;stroke-width:1.0;"/><line style="stroke:#181818;stroke-width:1.0;" x1="69.5" x2="670.5" y1="114.9609" y2="114.9609"/><text fill="#000000" font-family="sans-serif" font-size="13" font-weight="bold" lengthAdjust="spacing" textLength="7" x="76.5" y="110.1045">1</text><text fill="#000000" font-family="sans-serif" font-size="13" lengthAdjust="spacing" textLength="333" x="87.5" y="110.1045">asks to specify a new vaccine and administration process</text><polygon fill="#181818" points="1216.5,141.3125,1226.5,145.3125,1216.5,149.3125,1220.5,145.3125" style="stroke:#181818;stroke-width:1.0;"/><line style="stroke:#181818;stroke-width:1.0;" x1="686.5" x2="1222.5" y1="145.3125" y2="145.3125"/><text fill="#000000" font-family="sans-serif" font-size="13" font-weight="bold" lengthAdjust="spacing" textLength="7" x="693.5" y="140.4561">2</text><text fill="#000000" font-family="sans-serif" font-size="13" lengthAdjust="spacing" textLength="101" x="704.5" y="140.4561">getVaccineType()</text><polygon fill="#181818" points="1368.5,171.6641,1378.5,175.6641,1368.5,179.6641,1372.5,175.6641" style="stroke:#181818;stroke-width:1.0;"/><line style="stroke:#181818;stroke-width:1.0;" x1="1238.5" x2="1374.5" y1="175.6641" y2="175.6641"/><text fill="#000000" font-family="sans-serif" font-size="13" font-weight="bold" lengthAdjust="spacing" textLength="7" x="1245.5" y="170.8076">3</text><text fill="#000000" font-family="sans-serif" font-size="13" lengthAdjust="spacing" textLength="112" x="1256.5" y="170.8076">app = getInstance()</text><polygon fill="#181818" points="1433.5,232.0156,1443.5,236.0156,1433.5,240.0156,1437.5,236.0156" style="stroke:#181818;stroke-width:1.0;"/><line style="stroke:#181818;stroke-width:1.0;" x1="1238.5" x2="1439.5" y1="236.0156" y2="236.0156"/><text fill="#000000" font-family="sans-serif" font-size="13" font-weight="bold" lengthAdjust="spacing" textLength="7" x="1245.5" y="231.1592">4</text><text fill="#000000" font-family="sans-serif" font-size="13" lengthAdjust="spacing" textLength="129" x="1256.5" y="231.1592">comp = getCompany()</text><polygon fill="#181818" points="1504,292.3672,1514,296.3672,1504,300.3672,1508,296.3672" style="stroke:#181818;stroke-width:1.0;"/><line style="stroke:#181818;stroke-width:1.0;" x1="1238.5" x2="1510" y1="296.3672" y2="296.3672"/><text fill="#000000" font-family="sans-serif" font-size="13" font-weight="bold" lengthAdjust="spacing" textLength="7" x="1245.5" y="291.5107">5</text><text fill="#000000" font-family="sans-serif" font-size="13" lengthAdjust="spacing" textLength="111" x="1256.5" y="291.5107">plat = getPlatform()</text><polygon fill="#181818" points="1709.5,352.7188,1719.5,356.7188,1709.5,360.7188,1713.5,356.7188" style="stroke:#181818;stroke-width:1.0;"/><line style="stroke:#181818;stroke-width:1.0;" x1="1238.5" x2="1715.5" y1="356.7188" y2="356.7188"/><text fill="#000000" font-family="sans-serif" font-size="13" font-weight="bold" lengthAdjust="spacing" textLength="7" x="1245.5" y="351.8623">6</text><text fill="#000000" font-family="sans-serif" font-size="13" lengthAdjust="spacing" textLength="208" x="1256.5" y="351.8623">register = getRegisterVaccineType()</text><polygon fill="#181818" points="1709.5,413.0703,1719.5,417.0703,1709.5,421.0703,1713.5,417.0703" style="stroke:#181818;stroke-width:1.0;"/><line style="stroke:#181818;stroke-width:1.0;" x1="1238.5" x2="1715.5" y1="417.0703" y2="417.0703"/><text fill="#000000" font-family="sans-serif" font-size="13" font-weight="bold" lengthAdjust="spacing" textLength="7" x="1245.5" y="412.2139">7</text><text fill="#000000" font-family="sans-serif" font-size="13" lengthAdjust="spacing" textLength="122" x="1256.5" y="412.2139">getListVaccineType()</text><polygon fill="#181818" points="80.5,473.4219,70.5,477.4219,80.5,481.4219,76.5,477.4219" style="stroke:#181818;stroke-width:1.0;"/><line style="stroke:#181818;stroke-width:1.0;stroke-dasharray:2.0,2.0;" x1="74.5" x2="680.5" y1="477.4219" y2="477.4219"/><text fill="#000000" font-family="sans-serif" font-size="13" font-weight="bold" lengthAdjust="spacing" textLength="7" x="86.5" y="472.5654">8</text><text fill="#000000" font-family="sans-serif" font-size="13" lengthAdjust="spacing" textLength="549" x="97.5" y="472.5654">shows list of vaccine types and asks to choose the one where the vaccine is going to be stored</text><polygon fill="#181818" points="664.5,503.7734,674.5,507.7734,664.5,511.7734,668.5,507.7734" style="stroke:#181818;stroke-width:1.0;"/><line style="stroke:#181818;stroke-width:1.0;" x1="69.5" x2="670.5" y1="507.7734" y2="507.7734"/><text fill="#000000" font-family="sans-serif" font-size="13" font-weight="bold" lengthAdjust="spacing" textLength="7" x="76.5" y="502.917">9</text><text fill="#000000" font-family="sans-serif" font-size="13" lengthAdjust="spacing" textLength="147" x="87.5" y="502.917">chooses the vaccine type</text><polygon fill="#181818" points="1216.5,534.125,1226.5,538.125,1216.5,542.125,1220.5,538.125" style="stroke:#181818;stroke-width:1.0;"/><line style="stroke:#181818;stroke-width:1.0;" x1="686.5" x2="1222.5" y1="538.125" y2="538.125"/><text fill="#000000" font-family="sans-serif" font-size="13" font-weight="bold" lengthAdjust="spacing" textLength="14" x="693.5" y="533.2686">10</text><text fill="#000000" font-family="sans-serif" font-size="13" lengthAdjust="spacing" textLength="126" x="711.5" y="533.2686">setVaccineType(type)</text><polygon fill="#181818" points="80.5,594.4766,70.5,598.4766,80.5,602.4766,76.5,598.4766" style="stroke:#181818;stroke-width:1.0;"/><line style="stroke:#181818;stroke-width:1.0;stroke-dasharray:2.0,2.0;" x1="74.5" x2="680.5" y1="598.4766" y2="598.4766"/><text fill="#000000" font-family="sans-serif" font-size="13" font-weight="bold" lengthAdjust="spacing" textLength="14" x="86.5" y="593.6201">11</text><text fill="#000000" font-family="sans-serif" font-size="13" lengthAdjust="spacing" textLength="188" x="104.5" y="593.6201">requests Vaccine data(id, name)</text><polygon fill="#181818" points="664.5,624.8281,674.5,628.8281,664.5,632.8281,668.5,628.8281" style="stroke:#181818;stroke-width:1.0;"/><line style="stroke:#181818;stroke-width:1.0;" x1="69.5" x2="670.5" y1="628.8281" y2="628.8281"/><text fill="#000000" font-family="sans-serif" font-size="13" font-weight="bold" lengthAdjust="spacing" textLength="14" x="76.5" y="623.9717">12</text><text fill="#000000" font-family="sans-serif" font-size="13" lengthAdjust="spacing" textLength="109" x="94.5" y="623.9717">gives Vaccine data</text><polygon fill="#181818" points="1216.5,655.1797,1226.5,659.1797,1216.5,663.1797,1220.5,659.1797" style="stroke:#181818;stroke-width:1.0;"/><line style="stroke:#181818;stroke-width:1.0;" x1="686.5" x2="1222.5" y1="659.1797" y2="659.1797"/><text fill="#000000" font-family="sans-serif" font-size="13" font-weight="bold" lengthAdjust="spacing" textLength="14" x="693.5" y="654.3232">13</text><text fill="#000000" font-family="sans-serif" font-size="13" lengthAdjust="spacing" textLength="128" x="711.5" y="654.3232">newVaccine(id, name)</text><polygon fill="#181818" points="1846,685.5313,1856,689.5313,1846,693.5313,1850,689.5313" style="stroke:#181818;stroke-width:1.0;"/><line style="stroke:#181818;stroke-width:1.0;" x1="1238.5" x2="1852" y1="689.5313" y2="689.5313"/><text fill="#000000" font-family="sans-serif" font-size="13" font-weight="bold" lengthAdjust="spacing" textLength="14" x="1245.5" y="684.6748">14</text><text fill="#000000" font-family="sans-serif" font-size="13" lengthAdjust="spacing" textLength="163" x="1263.5" y="684.6748">vac = newVaccine(id, name)</text><polygon fill="#181818" points="2020,715.8828,2030,719.8828,2020,723.8828,2024,719.8828" style="stroke:#181818;stroke-width:1.0;"/><line style="stroke:#181818;stroke-width:1.0;" x1="1868" x2="2026" y1="719.8828" y2="719.8828"/><text fill="#000000" font-family="sans-serif" font-size="13" font-weight="bold" lengthAdjust="spacing" textLength="14" x="1875" y="715.0264">15</text><text fill="#000000" font-family="sans-serif" font-size="13" lengthAdjust="spacing" textLength="105" x="1893" y="715.0264">Vaccine(id, name)</text><polygon fill="#181818" points="1846,776.2344,1856,780.2344,1846,784.2344,1850,780.2344" style="stroke:#181818;stroke-width:1.0;"/><line style="stroke:#181818;stroke-width:1.0;" x1="1238.5" x2="1852" y1="780.2344" y2="780.2344"/><text fill="#000000" font-family="sans-serif" font-size="13" font-weight="bold" lengthAdjust="spacing" textLength="14" x="1245.5" y="775.3779">16</text><text fill="#000000" font-family="sans-serif" font-size="13" lengthAdjust="spacing" textLength="117" x="1263.5" y="775.3779">validateVaccine(vac)</text><line style="stroke:#181818;stroke-width:1.0;" x1="1873" x2="1915" y1="810.5859" y2="810.5859"/><line style="stroke:#181818;stroke-width:1.0;" x1="1915" x2="1915" y1="810.5859" y2="823.5859"/><line style="stroke:#181818;stroke-width:1.0;" x1="1874" x2="1915" y1="823.5859" y2="823.5859"/><polygon fill="#181818" points="1884,819.5859,1874,823.5859,1884,827.5859,1880,823.5859" style="stroke:#181818;stroke-width:1.0;"/><text fill="#000000" font-family="sans-serif" font-size="13" font-weight="bold" lengthAdjust="spacing" textLength="14" x="1880" y="805.7295">17</text><text fill="#000000" font-family="sans-serif" font-size="13" lengthAdjust="spacing" textLength="132" x="1898" y="805.7295">getVaccine(vac.getId())</text><path d="M10,868.5859 L83,868.5859 L83,876.9375 L73,886.9375 L10,886.9375 L10,868.5859 " fill="#EEEEEE" style="stroke:#000000;stroke-width:1.5;"/><rect fill="none" height="320.8125" style="stroke:#000000;stroke-width:1.5;" width="2678" x="10" y="868.5859"/><text fill="#000000" font-family="sans-serif" font-size="13" font-weight="bold" lengthAdjust="spacing" textLength="28" x="25" y="883.0811">loop</text><polygon fill="#181818" points="80.5,905.2891,70.5,909.2891,80.5,913.2891,76.5,909.2891" style="stroke:#181818;stroke-width:1.0;"/><line style="stroke:#181818;stroke-width:1.0;stroke-dasharray:2.0,2.0;" x1="74.5" x2="680.5" y1="909.2891" y2="909.2891"/><text fill="#000000" font-family="sans-serif" font-size="13" font-weight="bold" lengthAdjust="spacing" textLength="14" x="86.5" y="904.4326">18</text><text fill="#000000" font-family="sans-serif" font-size="13" lengthAdjust="spacing" textLength="565" x="104.5" y="904.4326">requests AdministrationProcess data(ageGroups,dosage,dosesToBeAdministered,listTimeInterval)</text><polygon fill="#181818" points="664.5,935.6406,674.5,939.6406,664.5,943.6406,668.5,939.6406" style="stroke:#181818;stroke-width:1.0;"/><line style="stroke:#181818;stroke-width:1.0;" x1="69.5" x2="670.5" y1="939.6406" y2="939.6406"/><text fill="#000000" font-family="sans-serif" font-size="13" font-weight="bold" lengthAdjust="spacing" textLength="14" x="76.5" y="934.7842">19</text><text fill="#000000" font-family="sans-serif" font-size="13" lengthAdjust="spacing" textLength="193" x="94.5" y="934.7842">gives AdministrationProcess data</text><polygon fill="#181818" points="1216.5,965.9922,1226.5,969.9922,1216.5,973.9922,1220.5,969.9922" style="stroke:#181818;stroke-width:1.0;"/><line style="stroke:#181818;stroke-width:1.0;" x1="686.5" x2="1222.5" y1="969.9922" y2="969.9922"/><text fill="#000000" font-family="sans-serif" font-size="13" font-weight="bold" lengthAdjust="spacing" textLength="14" x="693.5" y="965.1357">20</text><text fill="#000000" font-family="sans-serif" font-size="13" lengthAdjust="spacing" textLength="505" x="711.5" y="965.1357">newAdministrationProcess(ageGroups,dosage,dosesToBeAdministered,listTimeInterval)</text><polygon fill="#181818" points="2020,996.3438,2030,1000.3438,2020,1004.3438,2024,1000.3438" style="stroke:#181818;stroke-width:1.0;"/><line style="stroke:#181818;stroke-width:1.0;" x1="1238.5" x2="2026" y1="1000.3438" y2="1000.3438"/><text fill="#000000" font-family="sans-serif" font-size="13" font-weight="bold" lengthAdjust="spacing" textLength="14" x="1245.5" y="995.4873">21</text><text fill="#000000" font-family="sans-serif" font-size="13" lengthAdjust="spacing" textLength="557" x="1263.5" y="995.4873">admpr = newAdministrationProcess(ageGroups,dosage,dosesToBeAdministered,listTimeInterval)</text><polygon fill="#181818" points="2582,1026.6953,2592,1030.6953,2582,1034.6953,2586,1030.6953" style="stroke:#181818;stroke-width:1.0;"/><line style="stroke:#181818;stroke-width:1.0;" x1="2042" x2="2588" y1="1030.6953" y2="1030.6953"/><text fill="#000000" font-family="sans-serif" font-size="13" font-weight="bold" lengthAdjust="spacing" textLength="14" x="2049" y="1025.8389">22</text><text fill="#000000" font-family="sans-serif" font-size="13" lengthAdjust="spacing" textLength="515" x="2067" y="1025.8389">AdministrationProcess(ageGroups, referenceDose, dosesToBeAdministered, timeInterval)</text><polygon fill="#181818" points="2020,1087.0469,2030,1091.0469,2020,1095.0469,2024,1091.0469" style="stroke:#181818;stroke-width:1.0;"/><line style="stroke:#181818;stroke-width:1.0;" x1="1238.5" x2="2026" y1="1091.0469" y2="1091.0469"/><text fill="#000000" font-family="sans-serif" font-size="13" font-weight="bold" lengthAdjust="spacing" textLength="14" x="1245.5" y="1086.1904">23</text><text fill="#000000" font-family="sans-serif" font-size="13" lengthAdjust="spacing" textLength="218" x="1263.5" y="1086.1904">validateAdministrationProcess(admpr)</text><polygon fill="#181818" points="2020,1147.3984,2030,1151.3984,2020,1155.3984,2024,1151.3984" style="stroke:#181818;stroke-width:1.0;"/><line style="stroke:#181818;stroke-width:1.0;" x1="1238.5" x2="2026" y1="1151.3984" y2="1151.3984"/><text fill="#000000" font-family="sans-serif" font-size="13" font-weight="bold" lengthAdjust="spacing" textLength="14" x="1245.5" y="1146.542">24</text><text fill="#000000" font-family="sans-serif" font-size="13" lengthAdjust="spacing" textLength="196" x="1263.5" y="1146.542">addAdministrationProcess(admpr)</text><polygon fill="#181818" points="2020,1214.75,2030,1218.75,2020,1222.75,2024,1218.75" style="stroke:#181818;stroke-width:1.0;"/><line style="stroke:#181818;stroke-width:1.0;" x1="1238.5" x2="2026" y1="1218.75" y2="1218.75"/><text fill="#000000" font-family="sans-serif" font-size="13" font-weight="bold" lengthAdjust="spacing" textLength="14" x="1245.5" y="1213.8936">25</text><text fill="#000000" font-family="sans-serif" font-size="13" lengthAdjust="spacing" textLength="93" x="1263.5" y="1213.8936">getVaccineInfo()</text><polygon fill="#181818" points="697.5,1275.1016,687.5,1279.1016,697.5,1283.1016,693.5,1279.1016" style="stroke:#181818;stroke-width:1.0;"/><line style="stroke:#181818;stroke-width:1.0;stroke-dasharray:2.0,2.0;" x1="691.5" x2="1232.5" y1="1279.1016" y2="1279.1016"/><text fill="#000000" font-family="sans-serif" font-size="13" font-weight="bold" lengthAdjust="spacing" textLength="14" x="703.5" y="1274.2451">26</text><text fill="#000000" font-family="sans-serif" font-size="13" lengthAdjust="spacing" textLength="32" x="721.5" y="1274.2451">result</text><polygon fill="#181818" points="80.5,1305.4531,70.5,1309.4531,80.5,1313.4531,76.5,1309.4531" style="stroke:#181818;stroke-width:1.0;"/><line style="stroke:#181818;stroke-width:1.0;stroke-dasharray:2.0,2.0;" x1="74.5" x2="680.5" y1="1309.4531" y2="1309.4531"/><text fill="#000000" font-family="sans-serif" font-size="13" font-weight="bold" lengthAdjust="spacing" textLength="14" x="86.5" y="1304.5967">27</text><text fill="#000000" font-family="sans-serif" font-size="13" lengthAdjust="spacing" textLength="258" x="104.5" y="1304.5967">shows all the data and requests confirmation</text><polygon fill="#181818" points="664.5,1335.8047,674.5,1339.8047,664.5,1343.8047,668.5,1339.8047" style="stroke:#181818;stroke-width:1.0;"/><line style="stroke:#181818;stroke-width:1.0;" x1="69.5" x2="670.5" y1="1339.8047" y2="1339.8047"/><text fill="#000000" font-family="sans-serif" font-size="13" font-weight="bold" lengthAdjust="spacing" textLength="14" x="76.5" y="1334.9482">28</text><text fill="#000000" font-family="sans-serif" font-size="13" lengthAdjust="spacing" textLength="100" x="94.5" y="1334.9482">confirms the data</text><polygon fill="#181818" points="1216.5,1366.1563,1226.5,1370.1563,1216.5,1374.1563,1220.5,1370.1563" style="stroke:#181818;stroke-width:1.0;"/><line style="stroke:#181818;stroke-width:1.0;" x1="686.5" x2="1222.5" y1="1370.1563" y2="1370.1563"/><text fill="#000000" font-family="sans-serif" font-size="13" font-weight="bold" lengthAdjust="spacing" textLength="14" x="693.5" y="1365.2998">29</text><text fill="#000000" font-family="sans-serif" font-size="13" lengthAdjust="spacing" textLength="76" x="711.5" y="1365.2998">addVaccine()</text><polygon fill="#181818" points="1846,1396.5078,1856,1400.5078,1846,1404.5078,1850,1400.5078" style="stroke:#181818;stroke-width:1.0;"/><line style="stroke:#181818;stroke-width:1.0;" x1="1238.5" x2="1852" y1="1400.5078" y2="1400.5078"/><text fill="#000000" font-family="sans-serif" font-size="13" font-weight="bold" lengthAdjust="spacing" textLength="14" x="1245.5" y="1395.6514">30</text><text fill="#000000" font-family="sans-serif" font-size="13" lengthAdjust="spacing" textLength="117" x="1263.5" y="1395.6514">validateVaccine(vac)</text><polygon fill="#181818" points="1846,1426.8594,1856,1430.8594,1846,1434.8594,1850,1430.8594" style="stroke:#181818;stroke-width:1.0;"/><line style="stroke:#181818;stroke-width:1.0;" x1="1238.5" x2="1852" y1="1430.8594" y2="1430.8594"/><text fill="#000000" font-family="sans-serif" font-size="13" font-weight="bold" lengthAdjust="spacing" textLength="14" x="1245.5" y="1426.0029">31</text><text fill="#000000" font-family="sans-serif" font-size="13" lengthAdjust="spacing" textLength="95" x="1263.5" y="1426.0029">addVaccine(vac)</text><line style="stroke:#181818;stroke-width:1.0;" x1="1873" x2="1915" y1="1461.2109" y2="1461.2109"/><line style="stroke:#181818;stroke-width:1.0;" x1="1915" x2="1915" y1="1461.2109" y2="1474.2109"/><line style="stroke:#181818;stroke-width:1.0;" x1="1874" x2="1915" y1="1474.2109" y2="1474.2109"/><polygon fill="#181818" points="1884,1470.2109,1874,1474.2109,1884,1478.2109,1880,1474.2109" style="stroke:#181818;stroke-width:1.0;"/><text fill="#000000" font-family="sans-serif" font-size="13" font-weight="bold" lengthAdjust="spacing" textLength="14" x="1880" y="1456.3545">32</text><text fill="#000000" font-family="sans-serif" font-size="13" lengthAdjust="spacing" textLength="132" x="1898" y="1456.3545">getVaccine(vac.getId())</text><polygon fill="#181818" points="697.5,1530.5625,687.5,1534.5625,697.5,1538.5625,693.5,1534.5625" style="stroke:#181818;stroke-width:1.0;"/><line style="stroke:#181818;stroke-width:1.0;stroke-dasharray:2.0,2.0;" x1="691.5" x2="1232.5" y1="1534.5625" y2="1534.5625"/><text fill="#000000" font-family="sans-serif" font-size="13" font-weight="bold" lengthAdjust="spacing" textLength="14" x="703.5" y="1529.7061">33</text><text fill="#000000" font-family="sans-serif" font-size="13" lengthAdjust="spacing" textLength="32" x="721.5" y="1529.7061">result</text><polygon fill="#181818" points="75.5,1560.9141,65.5,1564.9141,75.5,1568.9141,71.5,1564.9141" style="stroke:#181818;stroke-width:1.0;"/><line style="stroke:#181818;stroke-width:1.0;stroke-dasharray:2.0,2.0;" x1="69.5" x2="680.5" y1="1564.9141" y2="1564.9141"/><text fill="#000000" font-family="sans-serif" font-size="13" font-weight="bold" lengthAdjust="spacing" textLength="14" x="81.5" y="1560.0576">34</text><text fill="#000000" font-family="sans-serif" font-size="13" lengthAdjust="spacing" textLength="152" x="99.5" y="1560.0576">informs opertaion success</text><!--MD5=[72377e4bf5393eac0c9d960a00eb2eef]
@startuml
'https://plantuml.com/sequence-diagram

autonumber

actor "Administrator" as ADM
participant ":specifyNewVaccineUI" as NVAPUI
participant ":specifyNewVaccineController" as NVAPC
participant "app:App" as APP
participant ":App" as App
participant ":Company" as Comp
participant ":Platform" as Platform
participant ":RegisterVaccineType" as Register
participant ":VaccineType" as VATP
participant ":Vaccine" as VAC
participant ":AdministrationProcess" as ADP

activate ADM
ADM -> NVAPUI : asks to specify a new vaccine and administration process
activate NVAPUI

NVAPUI -> NVAPC : getVaccineType()
activate NVAPC

NVAPC -> APP : app = getInstance()
activate APP
deactivate APP

NVAPC -> App : comp = getCompany()
activate App
deactivate App

NVAPC -> Comp : plat = getPlatform()
activate Comp
deactivate Comp

NVAPC -> Register : register = getRegisterVaccineType()
activate Register
deactivate Register

NVAPC -> Register : getListVaccineType()
activate Register
deactivate Register

deactivate NVAPC
NVAPUI - -> ADM : shows list of vaccine types and asks to choose the one where the vaccine is going to be stored
deactivate NVAPUI

ADM -> NVAPUI : chooses the vaccine type
activate NVAPUI
NVAPUI -> NVAPC : setVaccineType(type)
activate NVAPC
deactivate NVAPC

NVAPUI - -> ADM : requests Vaccine data(id, name)
deactivate NVAPUI

ADM -> NVAPUI : gives Vaccine data
activate NVAPUI
NVAPUI -> NVAPC : newVaccine(id, name)
activate NVAPC

NVAPC -> VATP : vac = newVaccine(id, name)
activate VATP
VATP -> VAC : Vaccine(id, name)
activate VAC
deactivate VAC
deactivate VATP

NVAPC -> VATP : validateVaccine(vac)
activate VATP
VATP -> VATP : getVaccine(vac.getId())
activate VATP
deactivate VATP
deactivate VATP

loop
NVAPUI - -> ADM :requests AdministrationProcess data(ageGroups,dosage,dosesToBeAdministered,listTimeInterval)
deactivate NVAPC
deactivate NVAPUI
ADM -> NVAPUI : gives AdministrationProcess data

activate NVAPUI
NVAPUI -> NVAPC : newAdministrationProcess(ageGroups,dosage,dosesToBeAdministered,listTimeInterval)
activate NVAPC
NVAPC -> VAC : admpr = newAdministrationProcess(ageGroups,dosage,dosesToBeAdministered,listTimeInterval)
activate VAC
VAC -> ADP : AdministrationProcess(ageGroups, referenceDose, dosesToBeAdministered, timeInterval)
activate ADP
deactivate ADP
deactivate VAC

NVAPC -> VAC : validateAdministrationProcess(admpr)
activate VAC
deactivate VAC

NVAPC -> VAC : addAdministrationProcess(admpr)
activate VAC
deactivate VAC
end

NVAPC -> VAC : getVaccineInfo()
activate VAC
deactivate VAC
NVAPC - -> NVAPUI : result
deactivate NVAPC

NVAPUI - -> ADM : shows all the data and requests confirmation
deactivate NVAPC
deactivate NVAPUI
ADM -> NVAPUI : confirms the data

activate NVAPUI
NVAPUI -> NVAPC : addVaccine()
activate NVAPC
NVAPC -> VATP : validateVaccine(vac)
activate VATP
NVAPC -> VATP : addVaccine(vac)
VATP -> VATP : getVaccine(vac.getId())
activate VATP
deactivate VATP
deactivate VATP

NVAPC - -> NVAPUI : result
deactivate NVAPC
NVAPUI - -> ADM : informs opertaion success
deactivate NVAPUI
deactivate NVAPC
deactivate ADM

@enduml

@startuml

autonumber

actor "Administrator" as ADM
participant ":specifyNewVaccineUI" as NVAPUI
participant ":specifyNewVaccineController" as NVAPC
participant "app:App" as APP
participant ":App" as App
participant ":Company" as Comp
participant ":Platform" as Platform
participant ":RegisterVaccineType" as Register
participant ":VaccineType" as VATP
participant ":Vaccine" as VAC
participant ":AdministrationProcess" as ADP

activate ADM
ADM -> NVAPUI : asks to specify a new vaccine and administration process
activate NVAPUI

NVAPUI -> NVAPC : getVaccineType()
activate NVAPC

NVAPC -> APP : app = getInstance()
activate APP
deactivate APP

NVAPC -> App : comp = getCompany()
activate App
deactivate App

NVAPC -> Comp : plat = getPlatform()
activate Comp
deactivate Comp

NVAPC -> Register : register = getRegisterVaccineType()
activate Register
deactivate Register

NVAPC -> Register : getListVaccineType()
activate Register
deactivate Register

deactivate NVAPC
NVAPUI - -> ADM : shows list of vaccine types and asks to choose the one where the vaccine is going to be stored
deactivate NVAPUI

ADM -> NVAPUI : chooses the vaccine type
activate NVAPUI
NVAPUI -> NVAPC : setVaccineType(type)
activate NVAPC
deactivate NVAPC

NVAPUI - -> ADM : requests Vaccine data(id, name)
deactivate NVAPUI

ADM -> NVAPUI : gives Vaccine data
activate NVAPUI
NVAPUI -> NVAPC : newVaccine(id, name)
activate NVAPC

NVAPC -> VATP : vac = newVaccine(id, name)
activate VATP
VATP -> VAC : Vaccine(id, name)
activate VAC
deactivate VAC
deactivate VATP

NVAPC -> VATP : validateVaccine(vac)
activate VATP
VATP -> VATP : getVaccine(vac.getId())
activate VATP
deactivate VATP
deactivate VATP

loop
NVAPUI - -> ADM :requests AdministrationProcess data(ageGroups,dosage,dosesToBeAdministered,listTimeInterval)
deactivate NVAPC
deactivate NVAPUI
ADM -> NVAPUI : gives AdministrationProcess data

activate NVAPUI
NVAPUI -> NVAPC : newAdministrationProcess(ageGroups,dosage,dosesToBeAdministered,listTimeInterval)
activate NVAPC
NVAPC -> VAC : admpr = newAdministrationProcess(ageGroups,dosage,dosesToBeAdministered,listTimeInterval)
activate VAC
VAC -> ADP : AdministrationProcess(ageGroups, referenceDose, dosesToBeAdministered, timeInterval)
activate ADP
deactivate ADP
deactivate VAC

NVAPC -> VAC : validateAdministrationProcess(admpr)
activate VAC
deactivate VAC

NVAPC -> VAC : addAdministrationProcess(admpr)
activate VAC
deactivate VAC
end

NVAPC -> VAC : getVaccineInfo()
activate VAC
deactivate VAC
NVAPC - -> NVAPUI : result
deactivate NVAPC

NVAPUI - -> ADM : shows all the data and requests confirmation
deactivate NVAPC
deactivate NVAPUI
ADM -> NVAPUI : confirms the data

activate NVAPUI
NVAPUI -> NVAPC : addVaccine()
activate NVAPC
NVAPC -> VATP : validateVaccine(vac)
activate VATP
NVAPC -> VATP : addVaccine(vac)
VATP -> VATP : getVaccine(vac.getId())
activate VATP
deactivate VATP
deactivate VATP

NVAPC - -> NVAPUI : result
deactivate NVAPC
NVAPUI - -> ADM : informs opertaion success
deactivate NVAPUI
deactivate NVAPC
deactivate ADM

@enduml

PlantUML version 1.2022.4(Sat Apr 09 14:29:17 BST 2022)
(GPL source distribution)
Java Runtime: OpenJDK Runtime Environment
JVM: OpenJDK 64-Bit Server VM
Default Encoding: Cp1252
Language: pt
Country: PT
--></g></svg>