<?xml version="1.0" encoding="UTF-8" standalone="no"?><svg xmlns="http://www.w3.org/2000/svg" xmlns:xlink="http://www.w3.org/1999/xlink" contentStyleType="text/css" height="520px" preserveAspectRatio="none" style="width:706px;height:520px;background:#FFFFFF;" version="1.1" viewBox="0 0 706 520" width="706px" zoomAndPan="magnify"><defs/><g><rect fill="#FFFFFF" height="327.8672" style="stroke:#181818;stroke-width:1.0;" width="10" x="59.5" y="92.6094"/><rect fill="#FFFFFF" height="30.3516" style="stroke:#181818;stroke-width:1.0;" width="10" x="653.5" y="114.9609"/><rect fill="#FFFFFF" height="30.3516" style="stroke:#181818;stroke-width:1.0;" width="10" x="653.5" y="175.6641"/><rect fill="#FFFFFF" height="55.7031" style="stroke:#181818;stroke-width:1.0;" width="10" x="653.5" y="236.3672"/><rect fill="#FFFFFF" height="37.3516" style="stroke:#181818;stroke-width:1.0;" width="10" x="653.5" y="322.4219"/><rect fill="#FFFFFF" height="30.3516" style="stroke:#181818;stroke-width:1.0;" width="10" x="653.5" y="390.125"/><rect height="79.0547" style="stroke:#000000;stroke-width:1.5;fill:none;" width="690.5" x="10" y="251.3672"/><line style="stroke:#181818;stroke-width:0.5;fill:none;stroke-dasharray:5.0,5.0;" x1="64" x2="64" y1="82.6094" y2="438.4766"/><line style="stroke:#181818;stroke-width:0.5;fill:none;stroke-dasharray:5.0,5.0;" x1="658.5" x2="658.5" y1="82.6094" y2="438.4766"/><text fill="#000000" font-family="sans-serif" font-size="14" lengthAdjust="spacing" textLength="83" x="20" y="79.5332">Administrator</text><ellipse cx="64.5" cy="13.5" fill="#E2E2F0" rx="8" ry="8" style="stroke:#181818;stroke-width:0.5;"/><path d="M64.5,21.5 L64.5,48.5 M51.5,29.5 L77.5,29.5 M64.5,48.5 L51.5,63.5 M64.5,48.5 L77.5,63.5 " fill="none" style="stroke:#181818;stroke-width:0.5;"/><text fill="#000000" font-family="sans-serif" font-size="14" lengthAdjust="spacing" textLength="83" x="20" y="452.0098">Administrator</text><ellipse cx="64.5" cy="463.5859" fill="#E2E2F0" rx="8" ry="8" style="stroke:#181818;stroke-width:0.5;"/><path d="M64.5,471.5859 L64.5,498.5859 M51.5,479.5859 L77.5,479.5859 M64.5,498.5859 L51.5,513.5859 M64.5,498.5859 L77.5,513.5859 " fill="none" style="stroke:#181818;stroke-width:0.5;"/><rect fill="#E2E2F0" height="31.6094" rx="2.5" ry="2.5" style="stroke:#181818;stroke-width:0.5;" width="64" x="626.5" y="50"/><text fill="#000000" font-family="sans-serif" font-size="14" lengthAdjust="spacing" textLength="50" x="633.5" y="71.5332">:System</text><rect fill="#E2E2F0" height="31.6094" rx="2.5" ry="2.5" style="stroke:#181818;stroke-width:0.5;" width="64" x="626.5" y="437.4766"/><text fill="#000000" font-family="sans-serif" font-size="14" lengthAdjust="spacing" textLength="50" x="633.5" y="459.0098">:System</text><rect fill="#FFFFFF" height="327.8672" style="stroke:#181818;stroke-width:1.0;" width="10" x="59.5" y="92.6094"/><rect fill="#FFFFFF" height="30.3516" style="stroke:#181818;stroke-width:1.0;" width="10" x="653.5" y="114.9609"/><rect fill="#FFFFFF" height="30.3516" style="stroke:#181818;stroke-width:1.0;" width="10" x="653.5" y="175.6641"/><rect fill="#FFFFFF" height="55.7031" style="stroke:#181818;stroke-width:1.0;" width="10" x="653.5" y="236.3672"/><rect fill="#FFFFFF" height="37.3516" style="stroke:#181818;stroke-width:1.0;" width="10" x="653.5" y="322.4219"/><rect fill="#FFFFFF" height="30.3516" style="stroke:#181818;stroke-width:1.0;" width="10" x="653.5" y="390.125"/><polygon fill="#181818" points="641.5,110.9609,651.5,114.9609,641.5,118.9609,645.5,114.9609" style="stroke:#181818;stroke-width:1.0;"/><line style="stroke:#181818;stroke-width:1.0;" x1="69.5" x2="647.5" y1="114.9609" y2="114.9609"/><text fill="#000000" font-family="sans-serif" font-size="13" font-weight="bold" lengthAdjust="spacing" textLength="7" x="76.5" y="110.1045">1</text><text fill="#000000" font-family="sans-serif" font-size="13" lengthAdjust="spacing" textLength="333" x="87.5" y="110.1045">asks to specify a new vaccine and administration process</text><polygon fill="#181818" points="80.5,141.3125,70.5,145.3125,80.5,149.3125,76.5,145.3125" style="stroke:#181818;stroke-width:1.0;"/><line style="stroke:#181818;stroke-width:1.0;stroke-dasharray:2.0,2.0;" x1="74.5" x2="657.5" y1="145.3125" y2="145.3125"/><text fill="#000000" font-family="sans-serif" font-size="13" font-weight="bold" lengthAdjust="spacing" textLength="7" x="86.5" y="140.4561">2</text><text fill="#000000" font-family="sans-serif" font-size="13" lengthAdjust="spacing" textLength="549" x="97.5" y="140.4561">shows list of vaccine types and asks to choose the one where the vaccine is going to be stored</text><polygon fill="#181818" points="641.5,171.6641,651.5,175.6641,641.5,179.6641,645.5,175.6641" style="stroke:#181818;stroke-width:1.0;"/><line style="stroke:#181818;stroke-width:1.0;" x1="69.5" x2="647.5" y1="175.6641" y2="175.6641"/><text fill="#000000" font-family="sans-serif" font-size="13" font-weight="bold" lengthAdjust="spacing" textLength="7" x="76.5" y="170.8076">3</text><text fill="#000000" font-family="sans-serif" font-size="13" lengthAdjust="spacing" textLength="147" x="87.5" y="170.8076">chooses the vaccine type</text><polygon fill="#181818" points="80.5,202.0156,70.5,206.0156,80.5,210.0156,76.5,206.0156" style="stroke:#181818;stroke-width:1.0;"/><line style="stroke:#181818;stroke-width:1.0;stroke-dasharray:2.0,2.0;" x1="74.5" x2="657.5" y1="206.0156" y2="206.0156"/><text fill="#000000" font-family="sans-serif" font-size="13" font-weight="bold" lengthAdjust="spacing" textLength="7" x="86.5" y="201.1592">4</text><text fill="#000000" font-family="sans-serif" font-size="13" lengthAdjust="spacing" textLength="192" x="97.5" y="201.1592">requests Vaccine data (id, name)</text><polygon fill="#181818" points="641.5,232.3672,651.5,236.3672,641.5,240.3672,645.5,236.3672" style="stroke:#181818;stroke-width:1.0;"/><line style="stroke:#181818;stroke-width:1.0;" x1="69.5" x2="647.5" y1="236.3672" y2="236.3672"/><text fill="#000000" font-family="sans-serif" font-size="13" font-weight="bold" lengthAdjust="spacing" textLength="7" x="76.5" y="231.5107">5</text><text fill="#000000" font-family="sans-serif" font-size="13" lengthAdjust="spacing" textLength="109" x="87.5" y="231.5107">gives Vaccine data</text><path d="M10,251.3672 L83,251.3672 L83,259.7188 L73,269.7188 L10,269.7188 L10,251.3672 " fill="#EEEEEE" style="stroke:#000000;stroke-width:1.5;"/><rect fill="none" height="79.0547" style="stroke:#000000;stroke-width:1.5;" width="690.5" x="10" y="251.3672"/><text fill="#000000" font-family="sans-serif" font-size="13" font-weight="bold" lengthAdjust="spacing" textLength="28" x="25" y="265.8623">loop</text><polygon fill="#181818" points="80.5,288.0703,70.5,292.0703,80.5,296.0703,76.5,292.0703" style="stroke:#181818;stroke-width:1.0;"/><line style="stroke:#181818;stroke-width:1.0;stroke-dasharray:2.0,2.0;" x1="74.5" x2="657.5" y1="292.0703" y2="292.0703"/><text fill="#000000" font-family="sans-serif" font-size="13" font-weight="bold" lengthAdjust="spacing" textLength="7" x="86.5" y="287.2139">6</text><text fill="#000000" font-family="sans-serif" font-size="13" lengthAdjust="spacing" textLength="520" x="97.5" y="287.2139">requests AdministrationProcess data (designation, ageGroup, referenceDose, timeInterval)</text><polygon fill="#181818" points="641.5,318.4219,651.5,322.4219,641.5,326.4219,645.5,322.4219" style="stroke:#181818;stroke-width:1.0;"/><line style="stroke:#181818;stroke-width:1.0;" x1="69.5" x2="647.5" y1="322.4219" y2="322.4219"/><text fill="#000000" font-family="sans-serif" font-size="13" font-weight="bold" lengthAdjust="spacing" textLength="7" x="76.5" y="317.5654">7</text><text fill="#000000" font-family="sans-serif" font-size="13" lengthAdjust="spacing" textLength="193" x="87.5" y="317.5654">gives AdministrationProcess data</text><polygon fill="#181818" points="80.5,355.7734,70.5,359.7734,80.5,363.7734,76.5,359.7734" style="stroke:#181818;stroke-width:1.0;"/><line style="stroke:#181818;stroke-width:1.0;stroke-dasharray:2.0,2.0;" x1="74.5" x2="657.5" y1="359.7734" y2="359.7734"/><text fill="#000000" font-family="sans-serif" font-size="13" font-weight="bold" lengthAdjust="spacing" textLength="7" x="86.5" y="354.917">8</text><text fill="#000000" font-family="sans-serif" font-size="13" lengthAdjust="spacing" textLength="258" x="97.5" y="354.917">shows all the data and requests confirmation</text><polygon fill="#181818" points="641.5,386.125,651.5,390.125,641.5,394.125,645.5,390.125" style="stroke:#181818;stroke-width:1.0;"/><line style="stroke:#181818;stroke-width:1.0;" x1="69.5" x2="647.5" y1="390.125" y2="390.125"/><text fill="#000000" font-family="sans-serif" font-size="13" font-weight="bold" lengthAdjust="spacing" textLength="7" x="76.5" y="385.2686">9</text><text fill="#000000" font-family="sans-serif" font-size="13" lengthAdjust="spacing" textLength="100" x="87.5" y="385.2686">confirms the data</text><polygon fill="#181818" points="75.5,416.4766,65.5,420.4766,75.5,424.4766,71.5,420.4766" style="stroke:#181818;stroke-width:1.0;"/><line style="stroke:#181818;stroke-width:1.0;stroke-dasharray:2.0,2.0;" x1="69.5" x2="657.5" y1="420.4766" y2="420.4766"/><text fill="#000000" font-family="sans-serif" font-size="13" font-weight="bold" lengthAdjust="spacing" textLength="14" x="81.5" y="415.6201">10</text><text fill="#000000" font-family="sans-serif" font-size="13" lengthAdjust="spacing" textLength="152" x="99.5" y="415.6201">informs opertaion success</text><!--MD5=[048839b3ba101aafb095cbe506b566fa]
@startuml
'https://plantuml.com/sequence-diagram
autonumber

actor "Administrator" as ADM
participant ":System" as SYS

activate ADM
ADM -> SYS : asks to specify a new vaccine and administration process
activate SYS
SYS - -> ADM : shows list of vaccine types and asks to choose the one where the vaccine is going to be stored
deactivate SYS
ADM -> SYS : chooses the vaccine type
activate SYS
SYS - -> ADM : requests Vaccine data (id, name)
deactivate SYS
ADM -> SYS : gives Vaccine data
activate SYS
loop
SYS - -> ADM : requests AdministrationProcess data (designation, ageGroup, referenceDose, timeInterval)
deactivate SYS
ADM -> SYS : gives AdministrationProcess data
activate SYS
end
SYS - -> ADM : shows all the data and requests confirmation
deactivate SYS
ADM -> SYS : confirms the data
activate SYS
SYS - -> ADM : informs opertaion success
deactivate SYS
deactivate ADM
@enduml

@startuml
autonumber

actor "Administrator" as ADM
participant ":System" as SYS

activate ADM
ADM -> SYS : asks to specify a new vaccine and administration process
activate SYS
SYS - -> ADM : shows list of vaccine types and asks to choose the one where the vaccine is going to be stored
deactivate SYS
ADM -> SYS : chooses the vaccine type
activate SYS
SYS - -> ADM : requests Vaccine data (id, name)
deactivate SYS
ADM -> SYS : gives Vaccine data
activate SYS
loop
SYS - -> ADM : requests AdministrationProcess data (designation, ageGroup, referenceDose, timeInterval)
deactivate SYS
ADM -> SYS : gives AdministrationProcess data
activate SYS
end
SYS - -> ADM : shows all the data and requests confirmation
deactivate SYS
ADM -> SYS : confirms the data
activate SYS
SYS - -> ADM : informs opertaion success
deactivate SYS
deactivate ADM
@enduml

PlantUML version 1.2022.4(Sat Apr 09 14:29:17 BST 2022)
(GPL source distribution)
Java Runtime: OpenJDK Runtime Environment
JVM: OpenJDK 64-Bit Server VM
Default Encoding: Cp1252
Language: pt
Country: PT
--></g></svg>