<?xml version="1.0" encoding="UTF-8" standalone="no"?><svg xmlns="http://www.w3.org/2000/svg" xmlns:xlink="http://www.w3.org/1999/xlink" contentStyleType="text/css" height="534px" preserveAspectRatio="none" style="width:1204px;height:534px;background:#FFFFFF;" version="1.1" viewBox="0 0 1204 534" width="1204px" zoomAndPan="magnify"><defs/><g><rect fill="#FFFFFF" height="352.7266" style="stroke:#181818;stroke-width:1.0;" width="10" x="70" y="91.4883"/><rect fill="#FFFFFF" height="331.416" style="stroke:#181818;stroke-width:1.0;" width="10" x="1160" y="112.7988"/><line style="stroke:#181818;stroke-width:0.5;stroke-dasharray:5.0,5.0;" x1="75" x2="75" y1="81.4883" y2="453.2148"/><line style="stroke:#181818;stroke-width:0.5;stroke-dasharray:5.0,5.0;" x1="1165" x2="1165" y1="81.4883" y2="453.2148"/><text fill="#000000" font-family="sans-serif" font-size="14" lengthAdjust="spacing" textLength="134" x="5" y="78.5352">Center Coordinator</text><ellipse cx="75" cy="13.5" fill="#E2E2F0" rx="8" ry="8" style="stroke:#181818;stroke-width:0.5;"/><path d="M75,21.5 L75,48.5 M62,29.5 L88,29.5 M75,48.5 L62,63.5 M75,48.5 L88,63.5 " fill="none" style="stroke:#181818;stroke-width:0.5;"/><text fill="#000000" font-family="sans-serif" font-size="14" lengthAdjust="spacing" textLength="134" x="5" y="465.75">Center Coordinator</text><ellipse cx="75" cy="477.2031" fill="#E2E2F0" rx="8" ry="8" style="stroke:#181818;stroke-width:0.5;"/><path d="M75,485.2031 L75,512.2031 M62,493.2031 L88,493.2031 M75,512.2031 L62,527.2031 M75,512.2031 L88,527.2031 " fill="none" style="stroke:#181818;stroke-width:0.5;"/><rect fill="#E2E2F0" height="30.4883" rx="2.5" ry="2.5" style="stroke:#181818;stroke-width:0.5;" width="66" x="1132" y="50"/><text fill="#000000" font-family="sans-serif" font-size="14" lengthAdjust="spacing" textLength="52" x="1139" y="70.5352">:System</text><rect fill="#E2E2F0" height="30.4883" rx="2.5" ry="2.5" style="stroke:#181818;stroke-width:0.5;" width="66" x="1132" y="452.2148"/><text fill="#000000" font-family="sans-serif" font-size="14" lengthAdjust="spacing" textLength="52" x="1139" y="472.75">:System</text><rect fill="#FFFFFF" height="352.7266" style="stroke:#181818;stroke-width:1.0;" width="10" x="70" y="91.4883"/><rect fill="#FFFFFF" height="331.416" style="stroke:#181818;stroke-width:1.0;" width="10" x="1160" y="112.7988"/><polygon fill="#181818" points="1148,108.7988,1158,112.7988,1148,116.7988,1152,112.7988" style="stroke:#181818;stroke-width:1.0;"/><line style="stroke:#181818;stroke-width:1.0;" x1="80" x2="1154" y1="112.7988" y2="112.7988"/><text fill="#000000" font-family="sans-serif" font-size="13" font-weight="bold" lengthAdjust="spacing" textLength="9" x="87" y="108.0566">1</text><text fill="#000000" font-family="sans-serif" font-size="13" lengthAdjust="spacing" textLength="280" x="100" y="108.0566">starts analysing the performance of a Center</text><polygon fill="#181818" points="91,138.1094,81,142.1094,91,146.1094,87,142.1094" style="stroke:#181818;stroke-width:1.0;"/><line style="stroke:#181818;stroke-width:1.0;stroke-dasharray:2.0,2.0;" x1="85" x2="1159" y1="142.1094" y2="142.1094"/><text fill="#000000" font-family="sans-serif" font-size="13" font-weight="bold" lengthAdjust="spacing" textLength="9" x="97" y="137.3672">2</text><text fill="#000000" font-family="sans-serif" font-size="13" lengthAdjust="spacing" textLength="240" x="110" y="137.3672">Shows and asks to insert time interval</text><polygon fill="#181818" points="1148,167.4199,1158,171.4199,1148,175.4199,1152,171.4199" style="stroke:#181818;stroke-width:1.0;"/><line style="stroke:#181818;stroke-width:1.0;" x1="80" x2="1154" y1="171.4199" y2="171.4199"/><text fill="#000000" font-family="sans-serif" font-size="13" font-weight="bold" lengthAdjust="spacing" textLength="9" x="87" y="166.6777">3</text><text fill="#000000" font-family="sans-serif" font-size="13" lengthAdjust="spacing" textLength="126" x="100" y="166.6777">Inserts time interval</text><polygon fill="#181818" points="91,196.7305,81,200.7305,91,204.7305,87,200.7305" style="stroke:#181818;stroke-width:1.0;"/><line style="stroke:#181818;stroke-width:1.0;stroke-dasharray:2.0,2.0;" x1="85" x2="1159" y1="200.7305" y2="200.7305"/><text fill="#000000" font-family="sans-serif" font-size="13" font-weight="bold" lengthAdjust="spacing" textLength="9" x="97" y="195.9883">4</text><text fill="#000000" font-family="sans-serif" font-size="13" lengthAdjust="spacing" textLength="292" x="110" y="195.9883">Shows and asks if wants to add more intervals</text><polygon fill="#181818" points="1148,226.041,1158,230.041,1148,234.041,1152,230.041" style="stroke:#181818;stroke-width:1.0;"/><line style="stroke:#181818;stroke-width:1.0;" x1="80" x2="1154" y1="230.041" y2="230.041"/><text fill="#000000" font-family="sans-serif" font-size="13" font-weight="bold" lengthAdjust="spacing" textLength="9" x="87" y="225.2988">5</text><text fill="#000000" font-family="sans-serif" font-size="13" lengthAdjust="spacing" textLength="99" x="100" y="225.2988">YES/NO Answer</text><polygon fill="#181818" points="91,255.3516,81,259.3516,91,263.3516,87,259.3516" style="stroke:#181818;stroke-width:1.0;"/><line style="stroke:#181818;stroke-width:1.0;stroke-dasharray:2.0,2.0;" x1="85" x2="1159" y1="259.3516" y2="259.3516"/><text fill="#000000" font-family="sans-serif" font-size="13" font-weight="bold" lengthAdjust="spacing" textLength="9" x="97" y="254.6094">6</text><text fill="#000000" font-family="sans-serif" font-size="13" lengthAdjust="spacing" textLength="119" x="110" y="254.6094">Asks to insert date</text><polygon fill="#181818" points="1148,284.6621,1158,288.6621,1148,292.6621,1152,288.6621" style="stroke:#181818;stroke-width:1.0;"/><line style="stroke:#181818;stroke-width:1.0;" x1="80" x2="1154" y1="288.6621" y2="288.6621"/><text fill="#000000" font-family="sans-serif" font-size="13" font-weight="bold" lengthAdjust="spacing" textLength="9" x="87" y="283.9199">7</text><text fill="#000000" font-family="sans-serif" font-size="13" lengthAdjust="spacing" textLength="74" x="100" y="283.9199">inserts date</text><polygon fill="#181818" points="91,313.9727,81,317.9727,91,321.9727,87,317.9727" style="stroke:#181818;stroke-width:1.0;"/><line style="stroke:#181818;stroke-width:1.0;stroke-dasharray:2.0,2.0;" x1="85" x2="1159" y1="317.9727" y2="317.9727"/><text fill="#000000" font-family="sans-serif" font-size="13" font-weight="bold" lengthAdjust="spacing" textLength="9" x="97" y="313.2305">8</text><text fill="#000000" font-family="sans-serif" font-size="13" lengthAdjust="spacing" textLength="1043" x="110" y="313.2305">Shows Maximum sum contiguous sublist, Sum of maximum contiguous sublist, effectiveness of Vaccination Center and asks if wants different date and time interval</text><polygon fill="#181818" points="1148,343.2832,1158,347.2832,1148,351.2832,1152,347.2832" style="stroke:#181818;stroke-width:1.0;"/><line style="stroke:#181818;stroke-width:1.0;" x1="80" x2="1154" y1="347.2832" y2="347.2832"/><text fill="#000000" font-family="sans-serif" font-size="13" font-weight="bold" lengthAdjust="spacing" textLength="9" x="87" y="342.541">9</text><text fill="#000000" font-family="sans-serif" font-size="13" lengthAdjust="spacing" textLength="99" x="100" y="342.541">YES/NO Answer</text><polygon fill="#181818" points="91,372.5938,81,376.5938,91,380.5938,87,376.5938" style="stroke:#181818;stroke-width:1.0;"/><line style="stroke:#181818;stroke-width:1.0;stroke-dasharray:2.0,2.0;" x1="85" x2="1159" y1="376.5938" y2="376.5938"/><text fill="#000000" font-family="sans-serif" font-size="13" font-weight="bold" lengthAdjust="spacing" textLength="18" x="97" y="371.8516">10</text><text fill="#000000" font-family="sans-serif" font-size="13" lengthAdjust="spacing" textLength="570" x="119" y="371.8516">Shows the complexity analysis for predefine list of time intervals and asks to confirm data</text><polygon fill="#181818" points="1148,401.9043,1158,405.9043,1148,409.9043,1152,405.9043" style="stroke:#181818;stroke-width:1.0;"/><line style="stroke:#181818;stroke-width:1.0;" x1="80" x2="1154" y1="405.9043" y2="405.9043"/><text fill="#000000" font-family="sans-serif" font-size="13" font-weight="bold" lengthAdjust="spacing" textLength="18" x="87" y="401.1621">11</text><text fill="#000000" font-family="sans-serif" font-size="13" lengthAdjust="spacing" textLength="89" x="109" y="401.1621">Confirms data</text><polygon fill="#181818" points="91,431.2148,81,435.2148,91,439.2148,87,435.2148" style="stroke:#181818;stroke-width:1.0;"/><line style="stroke:#181818;stroke-width:1.0;stroke-dasharray:2.0,2.0;" x1="85" x2="1159" y1="435.2148" y2="435.2148"/><text fill="#000000" font-family="sans-serif" font-size="13" font-weight="bold" lengthAdjust="spacing" textLength="18" x="97" y="430.4727">12</text><text fill="#000000" font-family="sans-serif" font-size="13" lengthAdjust="spacing" textLength="184" x="119" y="430.4727">Informs operation successful</text><!--MD5=[96902614ad2ba9751ec1d07631493127]
@startuml
'https://plantuml.com/sequence-diagram

autonumber

actor "Center Coordinator" as CC
participant ":System" as SYS

activate CC
CC -> SYS: starts analysing the performance of a Center
activate SYS
SYS - -> CC: Shows and asks to insert time interval
CC -> SYS: Inserts time interval
SYS - -> CC: Shows and asks if wants to add more intervals
CC -> SYS: YES/NO Answer
SYS - -> CC: Asks to insert date
CC -> SYS: inserts date
SYS - -> CC: Shows Maximum sum contiguous sublist, Sum of maximum contiguous sublist, effectiveness of Vaccination Center and asks if wants different date and time interval
CC -> SYS: YES/NO Answer
SYS - -> CC: Shows the complexity analysis for predefine list of time intervals and asks to confirm data
CC -> SYS: Confirms data
SYS - -> CC: Informs operation successful


@enduml

@startuml

autonumber

actor "Center Coordinator" as CC
participant ":System" as SYS

activate CC
CC -> SYS: starts analysing the performance of a Center
activate SYS
SYS - -> CC: Shows and asks to insert time interval
CC -> SYS: Inserts time interval
SYS - -> CC: Shows and asks if wants to add more intervals
CC -> SYS: YES/NO Answer
SYS - -> CC: Asks to insert date
CC -> SYS: inserts date
SYS - -> CC: Shows Maximum sum contiguous sublist, Sum of maximum contiguous sublist, effectiveness of Vaccination Center and asks if wants different date and time interval
CC -> SYS: YES/NO Answer
SYS - -> CC: Shows the complexity analysis for predefine list of time intervals and asks to confirm data
CC -> SYS: Confirms data
SYS - -> CC: Informs operation successful


@enduml

PlantUML version 1.2022.5(Sat Apr 30 11:55:52 WEST 2022)
(GPL source distribution)
Java Runtime: OpenJDK Runtime Environment
JVM: OpenJDK 64-Bit Server VM
Default Encoding: UTF-8
Language: en
Country: PT
--></g></svg>