<?xml version="1.0" encoding="UTF-8" standalone="no"?><svg xmlns="http://www.w3.org/2000/svg" xmlns:xlink="http://www.w3.org/1999/xlink" contentStyleType="text/css" height="338px" preserveAspectRatio="none" style="width:693px;height:338px;background:#FFFFFF;" version="1.1" viewBox="0 0 693 338" width="693px" zoomAndPan="magnify"><defs/><g><rect fill="#FFFFFF" height="245.1406" style="stroke:#181818;stroke-width:1.0;" width="10" x="19.5" y="47.6094"/><rect fill="#FFFFFF" height="86.9609" style="stroke:#181818;stroke-width:1.0;" width="10" x="24.5" y="205.7891"/><rect fill="#FFFFFF" height="75.2188" style="stroke:#181818;stroke-width:1.0;" width="10" x="197.5" y="79.9609"/><rect fill="#FFFFFF" height="51.6094" style="stroke:#181818;stroke-width:1.0;" width="10" x="371.5" y="241.1406"/><line style="stroke:#181818;stroke-width:0.5;stroke-dasharray:5.0,5.0;" x1="24" x2="24" y1="37.6094" y2="301.75"/><line style="stroke:#181818;stroke-width:0.5;stroke-dasharray:5.0,5.0;" x1="202.5" x2="202.5" y1="78.9141" y2="301.75"/><line style="stroke:#181818;stroke-width:0.5;stroke-dasharray:5.0,5.0;" x1="376.5" x2="376.5" y1="164.1328" y2="301.75"/><line style="stroke:#181818;stroke-width:0.5;stroke-dasharray:5.0,5.0;" x1="482.5" x2="482.5" y1="121.5234" y2="301.75"/><line style="stroke:#181818;stroke-width:0.5;stroke-dasharray:5.0,5.0;" x1="620.5" x2="620.5" y1="280.4453" y2="301.75"/><rect fill="#E2E2F0" height="31.6094" rx="2.5" ry="2.5" style="stroke:#181818;stroke-width:0.5;" width="39" x="5" y="5"/><text fill="#000000" font-family="sans-serif" font-size="14" lengthAdjust="spacing" textLength="25" x="12" y="26.5332">App</text><rect fill="#E2E2F0" height="31.6094" rx="2.5" ry="2.5" style="stroke:#181818;stroke-width:0.5;" width="39" x="5" y="300.75"/><text fill="#000000" font-family="sans-serif" font-size="14" lengthAdjust="spacing" textLength="25" x="12" y="322.2832">App</text><rect fill="#E2E2F0" height="31.6094" rx="2.5" ry="2.5" style="stroke:#181818;stroke-width:0.5;" width="78" x="163.5" y="300.75"/><text fill="#000000" font-family="sans-serif" font-size="14" lengthAdjust="spacing" textLength="64" x="170.5" y="322.2832">:Company</text><rect fill="#E2E2F0" height="31.6094" rx="2.5" ry="2.5" style="stroke:#181818;stroke-width:0.5;" width="70" x="341.5" y="300.75"/><text fill="#000000" font-family="sans-serif" font-size="14" lengthAdjust="spacing" textLength="56" x="348.5" y="322.2832">:Platform</text><rect fill="#E2E2F0" height="31.6094" rx="2.5" ry="2.5" style="stroke:#181818;stroke-width:0.5;" width="123" x="421.5" y="300.75"/><text fill="#000000" font-family="sans-serif" font-size="14" lengthAdjust="spacing" textLength="109" x="428.5" y="322.2832">auth:AuthFacade</text><rect fill="#E2E2F0" height="31.6094" rx="2.5" ry="2.5" style="stroke:#181818;stroke-width:0.5;" width="133" x="554.5" y="300.75"/><text fill="#000000" font-family="sans-serif" font-size="14" lengthAdjust="spacing" textLength="119" x="561.5" y="322.2832">:RegisterEmployee</text><rect fill="#FFFFFF" height="245.1406" style="stroke:#181818;stroke-width:1.0;" width="10" x="19.5" y="47.6094"/><rect fill="#FFFFFF" height="86.9609" style="stroke:#181818;stroke-width:1.0;" width="10" x="24.5" y="205.7891"/><rect fill="#FFFFFF" height="75.2188" style="stroke:#181818;stroke-width:1.0;" width="10" x="197.5" y="79.9609"/><rect fill="#FFFFFF" height="51.6094" style="stroke:#181818;stroke-width:1.0;" width="10" x="371.5" y="241.1406"/><polygon fill="#181818" points="151.5,65.9609,161.5,69.9609,151.5,73.9609,155.5,69.9609" style="stroke:#181818;stroke-width:1.0;"/><line style="stroke:#181818;stroke-width:1.0;stroke-dasharray:2.0,2.0;" x1="29.5" x2="157.5" y1="69.9609" y2="69.9609"/><text fill="#000000" font-family="sans-serif" font-size="13" lengthAdjust="spacing" textLength="110" x="36.5" y="65.1045">create(designation)</text><rect fill="#E2E2F0" height="31.6094" rx="2.5" ry="2.5" style="stroke:#181818;stroke-width:0.5;" width="78" x="163.5" y="47.6094"/><text fill="#000000" font-family="sans-serif" font-size="14" lengthAdjust="spacing" textLength="64" x="170.5" y="69.1426">:Company</text><polygon fill="#181818" points="409.5,108.5703,419.5,112.5703,409.5,116.5703,413.5,112.5703" style="stroke:#181818;stroke-width:1.0;"/><line style="stroke:#181818;stroke-width:1.0;stroke-dasharray:2.0,2.0;" x1="207.5" x2="415.5" y1="112.5703" y2="112.5703"/><text fill="#000000" font-family="sans-serif" font-size="13" lengthAdjust="spacing" textLength="44" x="214.5" y="107.7139">create()</text><rect fill="#E2E2F0" height="31.6094" rx="2.5" ry="2.5" style="stroke:#181818;stroke-width:0.5;" width="123" x="421.5" y="90.2188"/><text fill="#000000" font-family="sans-serif" font-size="14" lengthAdjust="spacing" textLength="109" x="428.5" y="111.752">auth:AuthFacade</text><polygon fill="#181818" points="329.5,151.1797,339.5,155.1797,329.5,159.1797,333.5,155.1797" style="stroke:#181818;stroke-width:1.0;"/><line style="stroke:#181818;stroke-width:1.0;stroke-dasharray:2.0,2.0;" x1="202.5" x2="335.5" y1="155.1797" y2="155.1797"/><text fill="#000000" font-family="sans-serif" font-size="13" lengthAdjust="spacing" textLength="110" x="209.5" y="150.3232">create(designation)</text><rect fill="#E2E2F0" height="31.6094" rx="2.5" ry="2.5" style="stroke:#181818;stroke-width:0.5;" width="70" x="341.5" y="132.8281"/><text fill="#000000" font-family="sans-serif" font-size="14" lengthAdjust="spacing" textLength="56" x="348.5" y="154.3613">:Platform</text><line style="stroke:#181818;stroke-width:1.0;" x1="29.5" x2="76.5" y1="192.7891" y2="192.7891"/><line style="stroke:#181818;stroke-width:1.0;" x1="76.5" x2="76.5" y1="192.7891" y2="205.7891"/><line style="stroke:#181818;stroke-width:1.0;" x1="35.5" x2="76.5" y1="205.7891" y2="205.7891"/><polygon fill="#181818" points="45.5,201.7891,35.5,205.7891,45.5,209.7891,41.5,205.7891" style="stroke:#181818;stroke-width:1.0;"/><text fill="#000000" font-family="sans-serif" font-size="13" lengthAdjust="spacing" textLength="62" x="41.5" y="187.9326">bootstrap()</text><polygon fill="#181818" points="359.5,237.1406,369.5,241.1406,359.5,245.1406,363.5,241.1406" style="stroke:#181818;stroke-width:1.0;"/><line style="stroke:#181818;stroke-width:1.0;" x1="34.5" x2="365.5" y1="241.1406" y2="241.1406"/><text fill="#000000" font-family="sans-serif" font-size="13" lengthAdjust="spacing" textLength="135" x="41.5" y="236.2842">initializeRegisters(auth)</text><polygon fill="#181818" points="542.5,267.4922,552.5,271.4922,542.5,275.4922,546.5,271.4922" style="stroke:#181818;stroke-width:1.0;"/><line style="stroke:#181818;stroke-width:1.0;stroke-dasharray:2.0,2.0;" x1="381.5" x2="548.5" y1="271.4922" y2="271.4922"/><text fill="#000000" font-family="sans-serif" font-size="13" lengthAdjust="spacing" textLength="69" x="388.5" y="266.6357">create(auth)</text><rect fill="#E2E2F0" height="31.6094" rx="2.5" ry="2.5" style="stroke:#181818;stroke-width:0.5;" width="133" x="554.5" y="249.1406"/><text fill="#000000" font-family="sans-serif" font-size="14" lengthAdjust="spacing" textLength="119" x="561.5" y="270.6738">:RegisterEmployee</text><!--MD5=[6b9b909c059f810df1612344c3a52264]
@startuml
'https://plantuml.com/sequence-diagram



participant "App" as APP
participant ":Company" as COMP
participant ":Platform" as PLAT
participant "auth:AuthFacade" as AF
participant ":RegisterEmployee" as RE

activate APP
APP - -> COMP** : create(designation)
activate COMP
COMP - -> AF ** : create()
COMP - -> PLAT **: create(designation)
deactivate COMP
APP -> APP ++: bootstrap()
APP -> PLAT: initializeRegisters(auth)

activate PLAT
PLAT - -> RE **: create(auth)
@enduml

@startuml



participant "App" as APP
participant ":Company" as COMP
participant ":Platform" as PLAT
participant "auth:AuthFacade" as AF
participant ":RegisterEmployee" as RE

activate APP
APP - -> COMP** : create(designation)
activate COMP
COMP - -> AF ** : create()
COMP - -> PLAT **: create(designation)
deactivate COMP
APP -> APP ++: bootstrap()
APP -> PLAT: initializeRegisters(auth)

activate PLAT
PLAT - -> RE **: create(auth)
@enduml

PlantUML version 1.2022.5(Sat Apr 30 11:55:52 BST 2022)
(GPL source distribution)
Java Runtime: OpenJDK Runtime Environment
JVM: OpenJDK 64-Bit Server VM
Default Encoding: Cp1252
Language: pt
Country: PT
--></g></svg>