<?xml version="1.0" encoding="UTF-8" standalone="no"?><svg xmlns="http://www.w3.org/2000/svg" xmlns:xlink="http://www.w3.org/1999/xlink" contentStyleType="text/css" height="1350px" preserveAspectRatio="none" style="width:1846px;height:1350px;background:#FFFFFF;" version="1.1" viewBox="0 0 1846 1350" width="1846px" zoomAndPan="magnify"><defs/><g><!--MD5=[0bec0c236d578137c2c521e98c844db7]
class CenterPerformanceAnalysisUI--><g id="elem_CenterPerformanceAnalysisUI"><rect codeLine="9" fill="#F1F1F1" height="51.1992" id="CenterPerformanceAnalysisUI" rx="2.5" ry="2.5" style="stroke:#181818;stroke-width:0.5;" width="289" x="891" y="7"/><ellipse cx="906" cy="24.5996" fill="#ADD1B2" rx="11" ry="11" style="stroke:#181818;stroke-width:1.0;"/><path d="M908.4731,30.7427 Q907.8921,31.0415 907.2529,31.1909 Q906.6138,31.3403 905.9082,31.3403 Q903.4014,31.3403 902.0815,29.6885 Q900.7617,28.0366 900.7617,24.9155 Q900.7617,21.7861 902.0815,20.1343 Q903.4014,18.4824 905.9082,18.4824 Q906.6138,18.4824 907.2612,18.6318 Q907.9087,18.7813 908.4731,19.0801 L908.4731,21.8027 Q907.8423,21.2217 907.2488,20.9519 Q906.6553,20.6821 906.0244,20.6821 Q904.6797,20.6821 903.9949,21.7488 Q903.3101,22.8154 903.3101,24.9155 Q903.3101,27.0073 903.9949,28.074 Q904.6797,29.1406 906.0244,29.1406 Q906.6553,29.1406 907.2488,28.8708 Q907.8423,28.6011 908.4731,28.02 Z " fill="#000000"/><text fill="#000000" font-family="sans-serif" font-size="18" lengthAdjust="spacing" textLength="253" x="922" y="31.4023">CenterPerformanceAnalysisUI</text><line style="stroke:#181818;stroke-width:0.5;" x1="892" x2="1179" y1="42.1992" y2="42.1992"/><line style="stroke:#181818;stroke-width:0.5;" x1="892" x2="1179" y1="50.1992" y2="50.1992"/></g><!--MD5=[8222184a662563bf1f2261053f6271ab]
class CenterPerformanceAnalysisController--><g id="elem_CenterPerformanceAnalysisController"><rect codeLine="13" fill="#F1F1F1" height="252.793" id="CenterPerformanceAnalysisController" rx="2.5" ry="2.5" style="stroke:#181818;stroke-width:0.5;" width="622" x="724.5" y="158"/><ellipse cx="868.25" cy="175.5996" fill="#ADD1B2" rx="11" ry="11" style="stroke:#181818;stroke-width:1.0;"/><path d="M870.7231,181.7427 Q870.1421,182.0415 869.5029,182.1909 Q868.8638,182.3403 868.1582,182.3403 Q865.6514,182.3403 864.3315,180.6885 Q863.0117,179.0366 863.0117,175.9155 Q863.0117,172.7861 864.3315,171.1343 Q865.6514,169.4824 868.1582,169.4824 Q868.8638,169.4824 869.5112,169.6318 Q870.1587,169.7813 870.7231,170.0801 L870.7231,172.8027 Q870.0923,172.2217 869.4988,171.9519 Q868.9053,171.6821 868.2744,171.6821 Q866.9297,171.6821 866.2449,172.7488 Q865.5601,173.8154 865.5601,175.9155 Q865.5601,178.0073 866.2449,179.074 Q866.9297,180.1406 868.2744,180.1406 Q868.9053,180.1406 869.4988,179.8708 Q870.0923,179.6011 870.7231,179.02 Z " fill="#000000"/><text fill="#000000" font-family="sans-serif" font-size="18" lengthAdjust="spacing" textLength="322" x="890.75" y="182.4023">CenterPerformanceAnalysisController</text><line style="stroke:#181818;stroke-width:0.5;" x1="725.5" x2="1345.5" y1="193.1992" y2="193.1992"/><text fill="#000000" font-family="sans-serif" font-size="18" lengthAdjust="spacing" textLength="121" x="732.5" y="216.6016">-App m_oApp</text><text fill="#000000" font-family="sans-serif" font-size="18" lengthAdjust="spacing" textLength="201" x="732.5" y="241.8008">-Platform m_oPlatform</text><text fill="#000000" font-family="sans-serif" font-size="18" lengthAdjust="spacing" textLength="327" x="732.5" y="267">-VaccinationCenter vaccinationCenter</text><line style="stroke:#181818;stroke-width:0.5;" x1="725.5" x2="1345.5" y1="276.7969" y2="276.7969"/><text fill="#000000" font-family="sans-serif" font-size="18" lengthAdjust="spacing" textLength="124" x="732.5" y="300.1992">+checkLogin()</text><text fill="#000000" font-family="sans-serif" font-size="18" lengthAdjust="spacing" textLength="211" x="732.5" y="325.3984">+getVaccinationCenter()</text><text fill="#000000" font-family="sans-serif" font-size="18" lengthAdjust="spacing" textLength="333" x="732.5" y="350.5977">+getListPerformance(day,timeInterval)</text><text fill="#000000" font-family="sans-serif" font-size="18" lengthAdjust="spacing" textLength="606" x="732.5" y="375.7969">+processAllDataBeforeShowing(seq,bruteForceAlgorithm,timeInterval)</text><text fill="#000000" font-family="sans-serif" font-size="18" lengthAdjust="spacing" textLength="221" x="732.5" y="400.9961">+complexityAnalysis(day)</text></g><!--MD5=[65fa8017dd6f4661198315bf59ab594c]
class CenterPerformanceAnalysis--><g id="elem_CenterPerformanceAnalysis"><rect codeLine="25" fill="#F1F1F1" height="177.1953" id="CenterPerformanceAnalysis" rx="2.5" ry="2.5" style="stroke:#181818;stroke-width:0.5;" width="622" x="1217.5" y="763"/><ellipse cx="1404.25" cy="780.5996" fill="#ADD1B2" rx="11" ry="11" style="stroke:#181818;stroke-width:1.0;"/><path d="M1406.7231,786.7427 Q1406.1421,787.0415 1405.5029,787.1909 Q1404.8638,787.3403 1404.1582,787.3403 Q1401.6514,787.3403 1400.3315,785.6885 Q1399.0117,784.0366 1399.0117,780.9155 Q1399.0117,777.7861 1400.3315,776.1343 Q1401.6514,774.4824 1404.1582,774.4824 Q1404.8638,774.4824 1405.5112,774.6318 Q1406.1587,774.7813 1406.7231,775.0801 L1406.7231,777.8027 Q1406.0923,777.2217 1405.4988,776.9519 Q1404.9053,776.6821 1404.2744,776.6821 Q1402.9297,776.6821 1402.2449,777.7488 Q1401.5601,778.8154 1401.5601,780.9155 Q1401.5601,783.0073 1402.2449,784.074 Q1402.9297,785.1406 1404.2744,785.1406 Q1404.9053,785.1406 1405.4988,784.8708 Q1406.0923,784.6011 1406.7231,784.02 Z " fill="#000000"/><text fill="#000000" font-family="sans-serif" font-size="18" lengthAdjust="spacing" textLength="236" x="1426.75" y="787.4023">CenterPerformanceAnalysis</text><line style="stroke:#181818;stroke-width:0.5;" x1="1218.5" x2="1838.5" y1="798.1992" y2="798.1992"/><text fill="#000000" font-family="sans-serif" font-size="18" lengthAdjust="spacing" textLength="226" x="1225.5" y="821.6016">-List&lt;Date&gt; listOfArrivals</text><text fill="#000000" font-family="sans-serif" font-size="18" lengthAdjust="spacing" textLength="257" x="1225.5" y="846.8008">-List&lt;Date&gt; listOfDepartures</text><line style="stroke:#181818;stroke-width:0.5;" x1="1218.5" x2="1838.5" y1="856.5977" y2="856.5977"/><text fill="#000000" font-family="sans-serif" font-size="18" lengthAdjust="spacing" textLength="538" x="1225.5" y="880">+setListsOfArrivalsAndDepartures(performanceDataListString)</text><text fill="#000000" font-family="sans-serif" font-size="18" lengthAdjust="spacing" textLength="517" x="1225.5" y="905.1992">+differenceBetweenArrivalsAndDepartures(day,timeInterval)</text><text fill="#000000" font-family="sans-serif" font-size="18" lengthAdjust="spacing" textLength="606" x="1225.5" y="930.3984">+processAllDataBeforeShowing(seq,bruteForceAlgorithm,timeInterval)</text></g><!--MD5=[02e4b9b7573f1156f41e60aa5b4e25a4]
class Company--><g id="elem_Company"><rect codeLine="34" fill="#F1F1F1" height="151.9961" id="Company" rx="2.5" ry="2.5" style="stroke:#181818;stroke-width:0.5;" width="217" x="765" y="511"/><ellipse cx="826.75" cy="528.5996" fill="#ADD1B2" rx="11" ry="11" style="stroke:#181818;stroke-width:1.0;"/><path d="M829.2231,534.7427 Q828.6421,535.0415 828.0029,535.1909 Q827.3638,535.3403 826.6582,535.3403 Q824.1514,535.3403 822.8315,533.6885 Q821.5117,532.0366 821.5117,528.9155 Q821.5117,525.7861 822.8315,524.1343 Q824.1514,522.4824 826.6582,522.4824 Q827.3638,522.4824 828.0112,522.6318 Q828.6587,522.7813 829.2231,523.0801 L829.2231,525.8027 Q828.5923,525.2217 827.9988,524.9519 Q827.4053,524.6821 826.7744,524.6821 Q825.4297,524.6821 824.7449,525.7488 Q824.0601,526.8154 824.0601,528.9155 Q824.0601,531.0073 824.7449,532.074 Q825.4297,533.1406 826.7744,533.1406 Q827.4053,533.1406 827.9988,532.8708 Q828.5923,532.6011 829.2231,532.02 Z " fill="#000000"/><text fill="#000000" font-family="sans-serif" font-size="18" lengthAdjust="spacing" textLength="81" x="849.25" y="535.4023">Company</text><line style="stroke:#181818;stroke-width:0.5;" x1="766" x2="981" y1="546.1992" y2="546.1992"/><text fill="#000000" font-family="sans-serif" font-size="18" lengthAdjust="spacing" textLength="111" x="773" y="569.6016">-designation</text><text fill="#000000" font-family="sans-serif" font-size="18" lengthAdjust="spacing" textLength="201" x="773" y="594.8008">-Platform m_oPlatform</text><line style="stroke:#181818;stroke-width:0.5;" x1="766" x2="981" y1="604.5977" y2="604.5977"/><text fill="#000000" font-family="sans-serif" font-size="18" lengthAdjust="spacing" textLength="128" x="773" y="628">+getPlatform()</text><text fill="#000000" font-family="sans-serif" font-size="18" lengthAdjust="spacing" textLength="155" x="773" y="653.1992">+getAuthFacade()</text></g><!--MD5=[99b8db98afdc2c8404e39242ef4c1e65]
class Platform--><g id="elem_Platform"><rect codeLine="41" fill="#F1F1F1" height="151.9961" id="Platform" rx="2.5" ry="2.5" style="stroke:#181818;stroke-width:0.5;" width="561" x="268" y="775.5"/><ellipse cx="505.25" cy="793.0996" fill="#ADD1B2" rx="11" ry="11" style="stroke:#181818;stroke-width:1.0;"/><path d="M507.7231,799.2427 Q507.1421,799.5415 506.5029,799.6909 Q505.8638,799.8403 505.1582,799.8403 Q502.6514,799.8403 501.3315,798.1885 Q500.0117,796.5366 500.0117,793.4155 Q500.0117,790.2861 501.3315,788.6343 Q502.6514,786.9824 505.1582,786.9824 Q505.8638,786.9824 506.5112,787.1318 Q507.1587,787.2813 507.7231,787.5801 L507.7231,790.3027 Q507.0923,789.7217 506.4988,789.4519 Q505.9053,789.1821 505.2744,789.1821 Q503.9297,789.1821 503.2449,790.2488 Q502.5601,791.3154 502.5601,793.4155 Q502.5601,795.5073 503.2449,796.574 Q503.9297,797.6406 505.2744,797.6406 Q505.9053,797.6406 506.4988,797.3708 Q507.0923,797.1011 507.7231,796.52 Z " fill="#000000"/><text fill="#000000" font-family="sans-serif" font-size="18" lengthAdjust="spacing" textLength="74" x="527.75" y="799.9023">Platform</text><line style="stroke:#181818;stroke-width:0.5;" x1="269" x2="828" y1="810.6992" y2="810.6992"/><text fill="#000000" font-family="sans-serif" font-size="18" lengthAdjust="spacing" textLength="359" x="276" y="834.1016">-RegisterEmployee m_oRegisterEmployee</text><text fill="#000000" font-family="sans-serif" font-size="18" lengthAdjust="spacing" textLength="545" x="276" y="859.3008">-ImportPerformanceFromCSV m_oImportPerformanceFromCSV</text><line style="stroke:#181818;stroke-width:0.5;" x1="269" x2="828" y1="869.0977" y2="869.0977"/><text fill="#000000" font-family="sans-serif" font-size="18" lengthAdjust="spacing" textLength="207" x="276" y="892.5">+getRegisterEmployee()</text><text fill="#000000" font-family="sans-serif" font-size="18" lengthAdjust="spacing" textLength="300" x="276" y="917.6992">+getImportPerformanceFromCSV()</text></g><!--MD5=[1607d1a70f046fb6f069cf8c3b040e6d]
class RegisterEmployee--><g id="elem_RegisterEmployee"><rect codeLine="49" fill="#F1F1F1" height="101.5977" id="RegisterEmployee" rx="2.5" ry="2.5" style="stroke:#181818;stroke-width:0.5;" width="283" x="37" y="1040"/><ellipse cx="95.75" cy="1057.5996" fill="#ADD1B2" rx="11" ry="11" style="stroke:#181818;stroke-width:1.0;"/><path d="M98.2231,1063.7427 Q97.6421,1064.0415 97.0029,1064.1909 Q96.3638,1064.3403 95.6582,1064.3403 Q93.1514,1064.3403 91.8315,1062.6885 Q90.5117,1061.0366 90.5117,1057.9155 Q90.5117,1054.7861 91.8315,1053.1343 Q93.1514,1051.4824 95.6582,1051.4824 Q96.3638,1051.4824 97.0112,1051.6318 Q97.6587,1051.7813 98.2231,1052.0801 L98.2231,1054.8027 Q97.5923,1054.2217 96.9988,1053.9519 Q96.4053,1053.6821 95.7744,1053.6821 Q94.4297,1053.6821 93.7449,1054.7488 Q93.0601,1055.8154 93.0601,1057.9155 Q93.0601,1060.0073 93.7449,1061.074 Q94.4297,1062.1406 95.7744,1062.1406 Q96.4053,1062.1406 96.9988,1061.8708 Q97.5923,1061.6011 98.2231,1061.02 Z " fill="#000000"/><text fill="#000000" font-family="sans-serif" font-size="18" lengthAdjust="spacing" textLength="153" x="118.25" y="1064.4023">RegisterEmployee</text><line style="stroke:#181818;stroke-width:0.5;" x1="38" x2="319" y1="1075.1992" y2="1075.1992"/><text fill="#000000" font-family="sans-serif" font-size="18" lengthAdjust="spacing" textLength="267" x="45" y="1098.6016">-List&lt;Employee&gt; listEmployee</text><line style="stroke:#181818;stroke-width:0.5;" x1="38" x2="319" y1="1108.3984" y2="1108.3984"/><text fill="#000000" font-family="sans-serif" font-size="18" lengthAdjust="spacing" textLength="250" x="45" y="1131.8008">+getEmployeeByEmail(email)</text></g><!--MD5=[7421f545a0d8420c5bec41e74b387d9c]
class Employee--><g id="elem_Employee"><rect codeLine="55" fill="#F1F1F1" height="101.5977" id="Employee" rx="2.5" ry="2.5" style="stroke:#181818;stroke-width:0.5;" width="343" x="7" y="1242"/><ellipse cx="130.75" cy="1259.5996" fill="#ADD1B2" rx="11" ry="11" style="stroke:#181818;stroke-width:1.0;"/><path d="M133.2231,1265.7427 Q132.6421,1266.0415 132.0029,1266.1909 Q131.3638,1266.3403 130.6582,1266.3403 Q128.1514,1266.3403 126.8315,1264.6885 Q125.5117,1263.0366 125.5117,1259.9155 Q125.5117,1256.7861 126.8315,1255.1343 Q128.1514,1253.4824 130.6582,1253.4824 Q131.3638,1253.4824 132.0112,1253.6318 Q132.6587,1253.7813 133.2231,1254.0801 L133.2231,1256.8027 Q132.5923,1256.2217 131.9988,1255.9519 Q131.4053,1255.6821 130.7744,1255.6821 Q129.4297,1255.6821 128.7449,1256.7488 Q128.0601,1257.8154 128.0601,1259.9155 Q128.0601,1262.0073 128.7449,1263.074 Q129.4297,1264.1406 130.7744,1264.1406 Q131.4053,1264.1406 131.9988,1263.8708 Q132.5923,1263.6011 133.2231,1263.02 Z " fill="#000000"/><text fill="#000000" font-family="sans-serif" font-size="18" lengthAdjust="spacing" textLength="83" x="153.25" y="1266.4023">Employee</text><line style="stroke:#181818;stroke-width:0.5;" x1="8" x2="349" y1="1277.1992" y2="1277.1992"/><text fill="#000000" font-family="sans-serif" font-size="18" lengthAdjust="spacing" textLength="327" x="15" y="1300.6016">-VaccinationCenter vaccinationCenter</text><line style="stroke:#181818;stroke-width:0.5;" x1="8" x2="349" y1="1310.3984" y2="1310.3984"/><text fill="#000000" font-family="sans-serif" font-size="18" lengthAdjust="spacing" textLength="282" x="15" y="1333.8008">+getWorkingVaccinationCenter()</text></g><!--MD5=[335f4d9be48430461c68bf6d6fdba145]
class App--><g id="elem_App"><rect codeLine="61" fill="#F1F1F1" height="126.7969" id="App" rx="2.5" ry="2.5" style="stroke:#181818;stroke-width:0.5;" width="238" x="935.5" y="788"/><ellipse cx="1031.25" cy="805.5996" fill="#ADD1B2" rx="11" ry="11" style="stroke:#181818;stroke-width:1.0;"/><path d="M1033.7231,811.7427 Q1033.1421,812.0415 1032.5029,812.1909 Q1031.8638,812.3403 1031.1582,812.3403 Q1028.6514,812.3403 1027.3315,810.6885 Q1026.0117,809.0366 1026.0117,805.9155 Q1026.0117,802.7861 1027.3315,801.1343 Q1028.6514,799.4824 1031.1582,799.4824 Q1031.8638,799.4824 1032.5112,799.6318 Q1033.1587,799.7813 1033.7231,800.0801 L1033.7231,802.8027 Q1033.0923,802.2217 1032.4988,801.9519 Q1031.9053,801.6821 1031.2744,801.6821 Q1029.9297,801.6821 1029.2449,802.7488 Q1028.5601,803.8154 1028.5601,805.9155 Q1028.5601,808.0073 1029.2449,809.074 Q1029.9297,810.1406 1031.2744,810.1406 Q1031.9053,810.1406 1032.4988,809.8708 Q1033.0923,809.6011 1033.7231,809.02 Z " fill="#000000"/><text fill="#000000" font-family="sans-serif" font-size="18" lengthAdjust="spacing" textLength="34" x="1053.75" y="812.4023">App</text><line style="stroke:#181818;stroke-width:0.5;" x1="936.5" x2="1172.5" y1="823.1992" y2="823.1992"/><line style="stroke:#181818;stroke-width:0.5;" x1="936.5" x2="1172.5" y1="831.1992" y2="831.1992"/><text fill="#000000" font-family="sans-serif" font-size="18" lengthAdjust="spacing" textLength="135" x="943.5" y="854.6016">+getCompany()</text><text fill="#000000" font-family="sans-serif" font-size="18" lengthAdjust="spacing" textLength="222" x="943.5" y="879.8008">+getCurrentUserSession()</text><text fill="#000000" font-family="sans-serif" font-size="18" lengthAdjust="spacing" text-decoration="underline" textLength="179" x="943.5" y="905">+static getInstance()</text></g><!--MD5=[8ae808d068a8995f06b9b3ec51357f0b]
class AuthFacade--><g id="elem_AuthFacade"><rect codeLine="69" fill="#F1F1F1" height="76.3984" id="AuthFacade" rx="2.5" ry="2.5" style="stroke:#181818;stroke-width:0.5;" width="238" x="776.5" y="1053"/><ellipse cx="838.75" cy="1070.5996" fill="#ADD1B2" rx="11" ry="11" style="stroke:#181818;stroke-width:1.0;"/><path d="M841.2231,1076.7427 Q840.6421,1077.0415 840.0029,1077.1909 Q839.3638,1077.3403 838.6582,1077.3403 Q836.1514,1077.3403 834.8315,1075.6885 Q833.5117,1074.0366 833.5117,1070.9155 Q833.5117,1067.7861 834.8315,1066.1343 Q836.1514,1064.4824 838.6582,1064.4824 Q839.3638,1064.4824 840.0112,1064.6318 Q840.6587,1064.7813 841.2231,1065.0801 L841.2231,1067.8027 Q840.5923,1067.2217 839.9988,1066.9519 Q839.4053,1066.6821 838.7744,1066.6821 Q837.4297,1066.6821 836.7449,1067.7488 Q836.0601,1068.8154 836.0601,1070.9155 Q836.0601,1073.0073 836.7449,1074.074 Q837.4297,1075.1406 838.7744,1075.1406 Q839.4053,1075.1406 839.9988,1074.8708 Q840.5923,1074.6011 841.2231,1074.02 Z " fill="#000000"/><text fill="#000000" font-family="sans-serif" font-size="18" lengthAdjust="spacing" textLength="101" x="861.25" y="1077.4023">AuthFacade</text><line style="stroke:#181818;stroke-width:0.5;" x1="777.5" x2="1013.5" y1="1088.1992" y2="1088.1992"/><line style="stroke:#181818;stroke-width:0.5;" x1="777.5" x2="1013.5" y1="1096.1992" y2="1096.1992"/><text fill="#000000" font-family="sans-serif" font-size="18" lengthAdjust="spacing" textLength="222" x="784.5" y="1119.6016">+getCurrentUserSession()</text></g><!--MD5=[8900b8126f988052b90f9f1b0582e804]
class Algorithm--><g id="elem_Algorithm"><rect codeLine="74" fill="#F1F1F1" height="76.3984" id="Algorithm" rx="2.5" ry="2.5" style="stroke:#181818;stroke-width:0.5;" width="251" x="1089" y="549"/><ellipse cx="1165.25" cy="566.5996" fill="#ADD1B2" rx="11" ry="11" style="stroke:#181818;stroke-width:1.0;"/><path d="M1167.7231,572.7427 Q1167.1421,573.0415 1166.5029,573.1909 Q1165.8638,573.3403 1165.1582,573.3403 Q1162.6514,573.3403 1161.3315,571.6885 Q1160.0117,570.0366 1160.0117,566.9155 Q1160.0117,563.7861 1161.3315,562.1343 Q1162.6514,560.4824 1165.1582,560.4824 Q1165.8638,560.4824 1166.5112,560.6318 Q1167.1587,560.7813 1167.7231,561.0801 L1167.7231,563.8027 Q1167.0923,563.2217 1166.4988,562.9519 Q1165.9053,562.6821 1165.2744,562.6821 Q1163.9297,562.6821 1163.2449,563.7488 Q1162.5601,564.8154 1162.5601,566.9155 Q1162.5601,569.0073 1163.2449,570.074 Q1163.9297,571.1406 1165.2744,571.1406 Q1165.9053,571.1406 1166.4988,570.8708 Q1167.0923,570.6011 1167.7231,570.02 Z " fill="#000000"/><text fill="#000000" font-family="sans-serif" font-size="18" lengthAdjust="spacing" textLength="86" x="1187.75" y="573.4023">Algorithm</text><line style="stroke:#181818;stroke-width:0.5;" x1="1090" x2="1339" y1="584.1992" y2="584.1992"/><line style="stroke:#181818;stroke-width:0.5;" x1="1090" x2="1339" y1="592.1992" y2="592.1992"/><text fill="#000000" font-family="sans-serif" font-size="18" lengthAdjust="spacing" textLength="235" x="1097" y="615.6016">+bruteForceAlgorithm(seq)</text></g><!--MD5=[463b214a536a3828236133cb3751670f]
class ImportPerformanceFromCSV--><g id="elem_ImportPerformanceFromCSV"><rect codeLine="79" fill="#F1F1F1" height="101.5977" id="ImportPerformanceFromCSV" rx="2.5" ry="2.5" style="stroke:#181818;stroke-width:0.5;" width="386" x="355.5" y="1040"/><ellipse cx="419.25" cy="1057.5996" fill="#ADD1B2" rx="11" ry="11" style="stroke:#181818;stroke-width:1.0;"/><path d="M421.7231,1063.7427 Q421.1421,1064.0415 420.5029,1064.1909 Q419.8638,1064.3403 419.1582,1064.3403 Q416.6514,1064.3403 415.3315,1062.6885 Q414.0117,1061.0366 414.0117,1057.9155 Q414.0117,1054.7861 415.3315,1053.1343 Q416.6514,1051.4824 419.1582,1051.4824 Q419.8638,1051.4824 420.5112,1051.6318 Q421.1587,1051.7813 421.7231,1052.0801 L421.7231,1054.8027 Q421.0923,1054.2217 420.4988,1053.9519 Q419.9053,1053.6821 419.2744,1053.6821 Q417.9297,1053.6821 417.2449,1054.7488 Q416.5601,1055.8154 416.5601,1057.9155 Q416.5601,1060.0073 417.2449,1061.074 Q417.9297,1062.1406 419.2744,1062.1406 Q419.9053,1062.1406 420.4988,1061.8708 Q421.0923,1061.6011 421.7231,1061.02 Z " fill="#000000"/><text fill="#000000" font-family="sans-serif" font-size="18" lengthAdjust="spacing" textLength="246" x="441.75" y="1064.4023">ImportPerformanceFromCSV</text><line style="stroke:#181818;stroke-width:0.5;" x1="356.5" x2="740.5" y1="1075.1992" y2="1075.1992"/><text fill="#000000" font-family="sans-serif" font-size="18" lengthAdjust="spacing" textLength="370" x="363.5" y="1098.6016">-List&lt;String[]&gt; performanceDataListString</text><line style="stroke:#181818;stroke-width:0.5;" x1="356.5" x2="740.5" y1="1108.3984" y2="1108.3984"/><text fill="#000000" font-family="sans-serif" font-size="18" lengthAdjust="spacing" textLength="285" x="363.5" y="1131.8008">+getPerformanceDataListString()</text></g><!--MD5=[de60e6d4f424ae4d0522096f76a59010]
class VaccinationCenter--><g id="elem_VaccinationCenter"><rect codeLine="85" fill="#F1F1F1" height="76.3984" id="VaccinationCenter" rx="2.5" ry="2.5" style="stroke:#181818;stroke-width:0.5;" width="306" x="1375.5" y="549"/><ellipse cx="1443.75" cy="566.5996" fill="#ADD1B2" rx="11" ry="11" style="stroke:#181818;stroke-width:1.0;"/><path d="M1446.2231,572.7427 Q1445.6421,573.0415 1445.0029,573.1909 Q1444.3638,573.3403 1443.6582,573.3403 Q1441.1514,573.3403 1439.8315,571.6885 Q1438.5117,570.0366 1438.5117,566.9155 Q1438.5117,563.7861 1439.8315,562.1343 Q1441.1514,560.4824 1443.6582,560.4824 Q1444.3638,560.4824 1445.0112,560.6318 Q1445.6587,560.7813 1446.2231,561.0801 L1446.2231,563.8027 Q1445.5923,563.2217 1444.9988,562.9519 Q1444.4053,562.6821 1443.7744,562.6821 Q1442.4297,562.6821 1441.7449,563.7488 Q1441.0601,564.8154 1441.0601,566.9155 Q1441.0601,569.0073 1441.7449,570.074 Q1442.4297,571.1406 1443.7744,571.1406 Q1444.4053,571.1406 1444.9988,570.8708 Q1445.5923,570.6011 1446.2231,570.02 Z " fill="#000000"/><text fill="#000000" font-family="sans-serif" font-size="18" lengthAdjust="spacing" textLength="157" x="1466.25" y="573.4023">VaccinationCenter</text><line style="stroke:#181818;stroke-width:0.5;" x1="1376.5" x2="1680.5" y1="584.1992" y2="584.1992"/><line style="stroke:#181818;stroke-width:0.5;" x1="1376.5" x2="1680.5" y1="592.1992" y2="592.1992"/><text fill="#000000" font-family="sans-serif" font-size="18" lengthAdjust="spacing" textLength="290" x="1383.5" y="615.6016">+getCenterPerformanceAnalysis()</text></g><!--MD5=[d947a802fb92e9ea44fa84d328130d24]
link CenterPerformanceAnalysisUI to CenterPerformanceAnalysisController--><g id="link_CenterPerformanceAnalysisUI_CenterPerformanceAnalysisController"><path codeLine="91" d="M1035.5,58.38 C1035.5,81.1 1035.5,116.56 1035.5,152.66 " fill="none" id="CenterPerformanceAnalysisUI-to-CenterPerformanceAnalysisController" style="stroke:#181818;stroke-width:1.0;stroke-dasharray:7.0,7.0;"/><polygon fill="#181818" points="1035.5,157.99,1039.5,148.99,1035.5,152.99,1031.5,148.99,1035.5,157.99" style="stroke:#181818;stroke-width:1.0;"/></g><!--MD5=[0f7dd0e2f3ab71be3e709ada19522456]
link CenterPerformanceAnalysisController to Company--><g id="link_CenterPerformanceAnalysisController_Company"><path codeLine="92" d="M967.74,411.2 C950.37,443.41 932.17,477.17 916.45,506.34 " fill="none" id="CenterPerformanceAnalysisController-to-Company" style="stroke:#181818;stroke-width:1.0;stroke-dasharray:7.0,7.0;"/><polygon fill="#181818" points="913.95,510.98,921.7562,504.9748,916.3333,506.5845,914.7235,501.1616,913.95,510.98" style="stroke:#181818;stroke-width:1.0;"/></g><!--MD5=[09daae9924275dfc6495bc9c3d1da1f6]
link CenterPerformanceAnalysisController to Platform--><g id="link_CenterPerformanceAnalysisController_Platform"><path codeLine="93" d="M853.43,411.11 C816.04,441.4 778.64,475.38 747.5,511 C677.87,590.65 619.67,698.16 584.54,770.68 " fill="none" id="CenterPerformanceAnalysisController-to-Platform" style="stroke:#181818;stroke-width:1.0;stroke-dasharray:7.0,7.0;"/><polygon fill="#181818" points="582.26,775.41,589.7738,769.0427,584.4329,770.9069,582.5688,765.566,582.26,775.41" style="stroke:#181818;stroke-width:1.0;"/></g><!--MD5=[74b6141d4a8e16bfaed519a20c0f0bea]
link CenterPerformanceAnalysisController to App--><g id="link_CenterPerformanceAnalysisController_App"><path codeLine="94" d="M1039.73,411.24 C1043.59,525.97 1049.14,691.17 1052.22,782.8 " fill="none" id="CenterPerformanceAnalysisController-to-App" style="stroke:#181818;stroke-width:1.0;stroke-dasharray:7.0,7.0;"/><polygon fill="#181818" points="1052.4,787.92,1056.0893,778.7882,1052.2287,782.9229,1048.094,779.0623,1052.4,787.92" style="stroke:#181818;stroke-width:1.0;"/></g><!--MD5=[407f5cddcdb18dfe0f3a2e42bd3fef57]
link App to AuthFacade--><g id="link_App_AuthFacade"><path codeLine="95" d="M1012.52,915.21 C984.31,957.34 947.94,1011.68 923.28,1048.5 " fill="none" id="App-to-AuthFacade" style="stroke:#181818;stroke-width:1.0;stroke-dasharray:7.0,7.0;"/><polygon fill="#181818" points="920.34,1052.9,928.673,1047.6501,923.1234,1048.7463,922.0272,1043.1967,920.34,1052.9" style="stroke:#181818;stroke-width:1.0;"/></g><!--MD5=[717d4b03d3c4372f4eafe5e342a0a7dd]
link Company to AuthFacade--><g id="link_Company_AuthFacade"><path codeLine="96" d="M876.79,663.15 C881.48,770.05 889.91,962.46 893.64,1047.55 " fill="none" id="Company-to-AuthFacade" style="stroke:#181818;stroke-width:1.0;stroke-dasharray:7.0,7.0;"/><polygon fill="#181818" points="893.87,1052.75,897.481,1043.587,893.6559,1047.7546,889.4883,1043.9295,893.87,1052.75" style="stroke:#181818;stroke-width:1.0;"/></g><!--MD5=[45628f1328460b055b9a5c61b7bfe2b6]
link Platform to AuthFacade--><g id="link_Platform_AuthFacade"><path codeLine="97" d="M658.29,927.65 C717.46,968.15 788.11,1016.5 836.84,1049.85 " fill="none" id="Platform-to-AuthFacade" style="stroke:#181818;stroke-width:1.0;stroke-dasharray:7.0,7.0;"/><polygon fill="#181818" points="841.19,1052.83,836.0262,1044.4434,837.0652,1050.004,831.5046,1051.0431,841.19,1052.83" style="stroke:#181818;stroke-width:1.0;"/></g><!--MD5=[9a80ca622aa33540c5ebfb66ac08c660]
link Platform to RegisterEmployee--><g id="link_Platform_RegisterEmployee"><path codeLine="98" d="M431.43,927.65 C376.04,963.2 311.23,1004.8 261.07,1037 " fill="none" id="Platform-to-RegisterEmployee" style="stroke:#181818;stroke-width:1.0;stroke-dasharray:7.0,7.0;"/><polygon fill="#181818" points="256.57,1039.89,266.3059,1038.4029,260.7801,1037.1927,261.9903,1031.6668,256.57,1039.89" style="stroke:#181818;stroke-width:1.0;"/></g><!--MD5=[eab00be0507a9170c24b1176aa61d4c9]
link RegisterEmployee to Employee--><g id="link_RegisterEmployee_Employee"><path codeLine="99" d="M178.5,1142.21 C178.5,1170.98 178.5,1207.13 178.5,1236.7 " fill="none" id="RegisterEmployee-to-Employee" style="stroke:#181818;stroke-width:1.0;stroke-dasharray:7.0,7.0;"/><polygon fill="#181818" points="178.5,1241.77,182.5,1232.77,178.5,1236.77,174.5,1232.77,178.5,1241.77" style="stroke:#181818;stroke-width:1.0;"/></g><!--MD5=[5ad0d0869689d36c696a919876436686]
link CenterPerformanceAnalysisController to Algorithm--><g id="link_CenterPerformanceAnalysisController_Algorithm"><path codeLine="100" d="M1110.37,411.2 C1138.71,458.76 1169.05,509.69 1189.62,544.24 " fill="none" id="CenterPerformanceAnalysisController-to-Algorithm" style="stroke:#181818;stroke-width:1.0;stroke-dasharray:7.0,7.0;"/><polygon fill="#181818" points="1192.34,548.79,1191.1778,539.01,1189.7843,544.4925,1184.3018,543.099,1192.34,548.79" style="stroke:#181818;stroke-width:1.0;"/></g><!--MD5=[21523cae6ee57d09aeb58469e08438cc]
link CenterPerformanceAnalysisController to VaccinationCenter--><g id="link_CenterPerformanceAnalysisController_VaccinationCenter"><path codeLine="101" d="M1241.72,411.2 C1321.31,459.71 1406.66,511.73 1463.36,546.29 " fill="none" id="CenterPerformanceAnalysisController-to-VaccinationCenter" style="stroke:#181818;stroke-width:1.0;stroke-dasharray:7.0,7.0;"/><polygon fill="#181818" points="1467.73,548.96,1462.122,540.8637,1463.459,546.3603,1457.9624,547.6973,1467.73,548.96" style="stroke:#181818;stroke-width:1.0;"/></g><!--MD5=[2b4c4c651d6994ae1c0547631cf284d3]
link VaccinationCenter to CenterPerformanceAnalysis--><g id="link_VaccinationCenter_CenterPerformanceAnalysis"><path codeLine="102" d="M1528.5,625.05 C1528.5,659.41 1528.5,711.98 1528.5,757.71 " fill="none" id="VaccinationCenter-to-CenterPerformanceAnalysis" style="stroke:#181818;stroke-width:1.0;stroke-dasharray:7.0,7.0;"/><polygon fill="#181818" points="1528.5,762.97,1532.5,753.97,1528.5,757.97,1524.5,753.97,1528.5,762.97" style="stroke:#181818;stroke-width:1.0;"/></g><!--MD5=[2ac5e0a2ace4da90a6cfd488482d2930]
link Platform to ImportPerformanceFromCSV--><g id="link_Platform_ImportPerformanceFromCSV"><path codeLine="104" d="M548.5,927.65 C548.5,962.35 548.5,1002.82 548.5,1034.67 " fill="none" id="Platform-to-ImportPerformanceFromCSV" style="stroke:#181818;stroke-width:1.0;stroke-dasharray:7.0,7.0;"/><polygon fill="#181818" points="548.5,1039.7,552.5,1030.7,548.5,1034.7,544.5,1030.7,548.5,1039.7" style="stroke:#181818;stroke-width:1.0;"/></g><!--MD5=[71da4be24892bfec694db06bf9e3c284]
link Company to Platform--><g id="link_Company_Platform"><path codeLine="105" d="M780.37,663.22 C738.12,697.35 688.17,737.69 645.47,772.18 " fill="none" id="Company-to-Platform" style="stroke:#181818;stroke-width:1.0;stroke-dasharray:7.0,7.0;"/><polygon fill="#181818" points="641.36,775.49,650.8731,772.9402,645.2476,772.3457,645.8421,766.7201,641.36,775.49" style="stroke:#181818;stroke-width:1.0;"/></g><!--MD5=[b66655fec4e08638734f7a452c26e535]
@startuml

skinparam classAttributeIconSize 0


skinparam padding 2
skinparam ranksep 100
skinparam classFontSize 18

class CenterPerformanceAnalysisUI
{

}
class CenterPerformanceAnalysisController
{
-App m_oApp
-Platform m_oPlatform
-VaccinationCenter vaccinationCenter
+checkLogin()
+getVaccinationCenter()
+getListPerformance(day,timeInterval)
+processAllDataBeforeShowing(seq,bruteForceAlgorithm,timeInterval)
+complexityAnalysis(day)
}

class CenterPerformanceAnalysis
{
-List<Date> listOfArrivals
-List<Date> listOfDepartures
+setListsOfArrivalsAndDepartures(performanceDataListString)
+differenceBetweenArrivalsAndDepartures(day,timeInterval)
+processAllDataBeforeShowing(seq,bruteForceAlgorithm,timeInterval)
}

class Company {
-designation
-Platform m_oPlatform
+getPlatform()
+getAuthFacade()
}

class Platform
{
-RegisterEmployee m_oRegisterEmployee
-ImportPerformanceFromCSV m_oImportPerformanceFromCSV
+getRegisterEmployee()
+getImportPerformanceFromCSV()
}

class RegisterEmployee
{
-List<Employee> listEmployee
+getEmployeeByEmail(email)
}

class Employee
{
-VaccinationCenter vaccinationCenter
+getWorkingVaccinationCenter()
}

class App
{
+getCompany()
+getCurrentUserSession()
+{static} static getInstance()

}

class AuthFacade
{
+getCurrentUserSession()
}

class Algorithm
{
+bruteForceAlgorithm(seq)
}

class ImportPerformanceFromCSV
{
-List<String[]> performanceDataListString
+getPerformanceDataListString()
}

class VaccinationCenter
{
+getCenterPerformanceAnalysis()
}


CenterPerformanceAnalysisUI ..> CenterPerformanceAnalysisController
CenterPerformanceAnalysisController ..> Company
CenterPerformanceAnalysisController ..> Platform
CenterPerformanceAnalysisController ..> App
App ..> AuthFacade
Company ..> AuthFacade
Platform ..> AuthFacade
Platform ..> RegisterEmployee
RegisterEmployee ..> Employee
CenterPerformanceAnalysisController ..> Algorithm
CenterPerformanceAnalysisController ..> VaccinationCenter
VaccinationCenter ..> CenterPerformanceAnalysis

Platform ..> ImportPerformanceFromCSV
Company ..> Platform

@enduml

PlantUML version 1.2022.5(Sat Apr 30 11:55:52 WEST 2022)
(GPL source distribution)
Java Runtime: OpenJDK Runtime Environment
JVM: OpenJDK 64-Bit Server VM
Default Encoding: UTF-8
Language: en
Country: PT
--></g></svg>