<?xml version="1.0" encoding="UTF-8" standalone="no"?><svg xmlns="http://www.w3.org/2000/svg" xmlns:xlink="http://www.w3.org/1999/xlink" contentStyleType="text/css" height="433px" preserveAspectRatio="none" style="width:866px;height:433px;background:#FFFFFF;" version="1.1" viewBox="0 0 866 433" width="866px" zoomAndPan="magnify"><defs/><g><rect fill="#FFFFFF" height="305.3594" style="stroke:#181818;stroke-width:1.0;" width="10" x="19.5" y="65.2188"/><rect fill="#FFFFFF" height="125.9219" style="stroke:#181818;stroke-width:1.0;" width="10" x="24.5" y="223.3984"/><rect fill="#FFFFFF" height="75.2188" style="stroke:#181818;stroke-width:1.0;" width="10" x="208.5" y="97.5703"/><rect fill="#FFFFFF" height="90.5703" style="stroke:#181818;stroke-width:1.0;" width="10" x="393.5" y="258.75"/><line style="stroke:#181818;stroke-width:0.5;stroke-dasharray:5.0,5.0;" x1="24" x2="24" y1="55.2188" y2="379.5781"/><line style="stroke:#181818;stroke-width:0.5;stroke-dasharray:5.0,5.0;" x1="213.5" x2="213.5" y1="96.5234" y2="379.5781"/><line style="stroke:#181818;stroke-width:0.5;stroke-dasharray:5.0,5.0;" x1="398.5" x2="398.5" y1="181.7422" y2="379.5781"/><line style="stroke:#181818;stroke-width:0.5;stroke-dasharray:5.0,5.0;" x1="504.5" x2="504.5" y1="139.1328" y2="379.5781"/><line style="stroke:#181818;stroke-width:0.5;stroke-dasharray:5.0,5.0;" x1="639.5" x2="639.5" y1="306.8594" y2="379.5781"/><line style="stroke:#181818;stroke-width:0.5;stroke-dasharray:5.0,5.0;" x1="786.5" x2="786.5" y1="358.2734" y2="379.5781"/><rect fill="#E2E2F0" height="31.6094" rx="2.5" ry="2.5" style="stroke:#181818;stroke-width:0.5;" width="39" x="5" y="22.6094"/><text fill="#000000" font-family="sans-serif" font-size="14" lengthAdjust="spacing" textLength="25" x="12" y="44.1426">App</text><rect fill="#E2E2F0" height="31.6094" rx="2.5" ry="2.5" style="stroke:#181818;stroke-width:0.5;" width="39" x="5" y="378.5781"/><text fill="#000000" font-family="sans-serif" font-size="14" lengthAdjust="spacing" textLength="25" x="12" y="400.1113">App</text><rect fill="#E2E2F0" height="31.6094" rx="2.5" ry="2.5" style="stroke:#181818;stroke-width:0.5;" width="78" x="174.5" y="378.5781"/><text fill="#000000" font-family="sans-serif" font-size="14" lengthAdjust="spacing" textLength="64" x="181.5" y="400.1113">:Company</text><rect fill="#E2E2F0" height="31.6094" rx="2.5" ry="2.5" style="stroke:#181818;stroke-width:0.5;" width="70" x="363.5" y="378.5781"/><text fill="#000000" font-family="sans-serif" font-size="14" lengthAdjust="spacing" textLength="56" x="370.5" y="400.1113">:Platform</text><rect fill="#E2E2F0" height="31.6094" rx="2.5" ry="2.5" style="stroke:#181818;stroke-width:0.5;" width="123" x="443.5" y="378.5781"/><text fill="#000000" font-family="sans-serif" font-size="14" lengthAdjust="spacing" textLength="109" x="450.5" y="400.1113">auth:AuthFacade</text><rect fill="#E2E2F0" height="49.2188" rx="2.5" ry="2.5" style="stroke:#181818;stroke-width:0.5;" width="127" x="576.5" y="378.5781"/><text fill="#000000" font-family="sans-serif" font-size="14" lengthAdjust="spacing" textLength="104" x="588" y="400.1113">registerSNSUser</text><text fill="#000000" font-family="sans-serif" font-size="14" lengthAdjust="spacing" textLength="113" x="583.5" y="417.7207">:RegisterSNSUser</text><rect fill="#E2E2F0" height="31.6094" rx="2.5" ry="2.5" style="stroke:#181818;stroke-width:0.5;" width="147" x="713.5" y="378.5781"/><text fill="#000000" font-family="sans-serif" font-size="14" lengthAdjust="spacing" textLength="133" x="720.5" y="400.1113">:LoadUsersFromCSV</text><rect fill="#FFFFFF" height="305.3594" style="stroke:#181818;stroke-width:1.0;" width="10" x="19.5" y="65.2188"/><rect fill="#FFFFFF" height="125.9219" style="stroke:#181818;stroke-width:1.0;" width="10" x="24.5" y="223.3984"/><rect fill="#FFFFFF" height="75.2188" style="stroke:#181818;stroke-width:1.0;" width="10" x="208.5" y="97.5703"/><rect fill="#FFFFFF" height="90.5703" style="stroke:#181818;stroke-width:1.0;" width="10" x="393.5" y="258.75"/><polygon fill="#181818" points="162.5,83.5703,172.5,87.5703,162.5,91.5703,166.5,87.5703" style="stroke:#181818;stroke-width:1.0;"/><line style="stroke:#181818;stroke-width:1.0;stroke-dasharray:2.0,2.0;" x1="29.5" x2="168.5" y1="87.5703" y2="87.5703"/><text fill="#000000" font-family="sans-serif" font-size="13" font-weight="bold" lengthAdjust="spacing" textLength="7" x="36.5" y="82.7139">1</text><text fill="#000000" font-family="sans-serif" font-size="13" lengthAdjust="spacing" textLength="110" x="47.5" y="82.7139">create(designation)</text><rect fill="#E2E2F0" height="31.6094" rx="2.5" ry="2.5" style="stroke:#181818;stroke-width:0.5;" width="78" x="174.5" y="65.2188"/><text fill="#000000" font-family="sans-serif" font-size="14" lengthAdjust="spacing" textLength="64" x="181.5" y="86.752">:Company</text><polygon fill="#181818" points="431.5,126.1797,441.5,130.1797,431.5,134.1797,435.5,130.1797" style="stroke:#181818;stroke-width:1.0;"/><line style="stroke:#181818;stroke-width:1.0;stroke-dasharray:2.0,2.0;" x1="218.5" x2="437.5" y1="130.1797" y2="130.1797"/><text fill="#000000" font-family="sans-serif" font-size="13" font-weight="bold" lengthAdjust="spacing" textLength="7" x="225.5" y="125.3232">2</text><text fill="#000000" font-family="sans-serif" font-size="13" lengthAdjust="spacing" textLength="44" x="236.5" y="125.3232">create()</text><rect fill="#E2E2F0" height="31.6094" rx="2.5" ry="2.5" style="stroke:#181818;stroke-width:0.5;" width="123" x="443.5" y="107.8281"/><text fill="#000000" font-family="sans-serif" font-size="14" lengthAdjust="spacing" textLength="109" x="450.5" y="129.3613">auth:AuthFacade</text><polygon fill="#181818" points="351.5,168.7891,361.5,172.7891,351.5,176.7891,355.5,172.7891" style="stroke:#181818;stroke-width:1.0;"/><line style="stroke:#181818;stroke-width:1.0;stroke-dasharray:2.0,2.0;" x1="213.5" x2="357.5" y1="172.7891" y2="172.7891"/><text fill="#000000" font-family="sans-serif" font-size="13" font-weight="bold" lengthAdjust="spacing" textLength="7" x="220.5" y="167.9326">3</text><text fill="#000000" font-family="sans-serif" font-size="13" lengthAdjust="spacing" textLength="110" x="231.5" y="167.9326">create(designation)</text><rect fill="#E2E2F0" height="31.6094" rx="2.5" ry="2.5" style="stroke:#181818;stroke-width:0.5;" width="70" x="363.5" y="150.4375"/><text fill="#000000" font-family="sans-serif" font-size="14" lengthAdjust="spacing" textLength="56" x="370.5" y="171.9707">:Platform</text><line style="stroke:#181818;stroke-width:1.0;" x1="29.5" x2="76.5" y1="210.3984" y2="210.3984"/><line style="stroke:#181818;stroke-width:1.0;" x1="76.5" x2="76.5" y1="210.3984" y2="223.3984"/><line style="stroke:#181818;stroke-width:1.0;" x1="35.5" x2="76.5" y1="223.3984" y2="223.3984"/><polygon fill="#181818" points="45.5,219.3984,35.5,223.3984,45.5,227.3984,41.5,223.3984" style="stroke:#181818;stroke-width:1.0;"/><text fill="#000000" font-family="sans-serif" font-size="13" font-weight="bold" lengthAdjust="spacing" textLength="7" x="41.5" y="205.542">4</text><text fill="#000000" font-family="sans-serif" font-size="13" lengthAdjust="spacing" textLength="62" x="52.5" y="205.542">bootstrap()</text><polygon fill="#181818" points="381.5,254.75,391.5,258.75,381.5,262.75,385.5,258.75" style="stroke:#181818;stroke-width:1.0;"/><line style="stroke:#181818;stroke-width:1.0;" x1="34.5" x2="387.5" y1="258.75" y2="258.75"/><text fill="#000000" font-family="sans-serif" font-size="13" font-weight="bold" lengthAdjust="spacing" textLength="7" x="41.5" y="253.8936">5</text><text fill="#000000" font-family="sans-serif" font-size="13" lengthAdjust="spacing" textLength="135" x="52.5" y="253.8936">initializeRegisters(auth)</text><polygon fill="#181818" points="564.5,285.1016,574.5,289.1016,564.5,293.1016,568.5,289.1016" style="stroke:#181818;stroke-width:1.0;"/><line style="stroke:#181818;stroke-width:1.0;stroke-dasharray:2.0,2.0;" x1="403.5" x2="570.5" y1="289.1016" y2="289.1016"/><text fill="#000000" font-family="sans-serif" font-size="13" font-weight="bold" lengthAdjust="spacing" textLength="7" x="410.5" y="284.2451">6</text><text fill="#000000" font-family="sans-serif" font-size="13" lengthAdjust="spacing" textLength="69" x="421.5" y="284.2451">create(auth)</text><rect fill="#E2E2F0" height="49.2188" rx="2.5" ry="2.5" style="stroke:#181818;stroke-width:0.5;" width="127" x="576.5" y="266.75"/><text fill="#000000" font-family="sans-serif" font-size="14" lengthAdjust="spacing" textLength="104" x="588" y="288.2832">registerSNSUser</text><text fill="#000000" font-family="sans-serif" font-size="14" lengthAdjust="spacing" textLength="113" x="583.5" y="305.8926">:RegisterSNSUser</text><polygon fill="#181818" points="701.5,345.3203,711.5,349.3203,701.5,353.3203,705.5,349.3203" style="stroke:#181818;stroke-width:1.0;"/><line style="stroke:#181818;stroke-width:1.0;stroke-dasharray:2.0,2.0;" x1="398.5" x2="707.5" y1="349.3203" y2="349.3203"/><text fill="#000000" font-family="sans-serif" font-size="13" font-weight="bold" lengthAdjust="spacing" textLength="7" x="405.5" y="344.4639">7</text><text fill="#000000" font-family="sans-serif" font-size="13" lengthAdjust="spacing" textLength="170" x="416.5" y="344.4639">create(auth,registerSNSUser)</text><rect fill="#E2E2F0" height="31.6094" rx="2.5" ry="2.5" style="stroke:#181818;stroke-width:0.5;" width="147" x="713.5" y="326.9688"/><text fill="#000000" font-family="sans-serif" font-size="14" lengthAdjust="spacing" textLength="133" x="720.5" y="348.502">:LoadUsersFromCSV</text><!--MD5=[e01148aa2577678be4f9b8ee37fc2602]
@startuml
'https://plantuml.com/sequence-diagram

autonumber

participant "App" as APP
participant ":Company" as COMP
participant ":Platform" as PLAT
participant "auth:AuthFacade" as AF
participant "registerSNSUser\n:RegisterSNSUser" as RE
participant ":LoadUsersFromCSV" as LFC


activate APP
APP - -> COMP** : create(designation)
activate COMP
COMP - -> AF ** : create()
COMP - -> PLAT **: create(designation)
deactivate COMP
APP -> APP ++: bootstrap()
APP -> PLAT: initializeRegisters(auth)

activate PLAT
PLAT - -> RE **: create(auth)
PLAT - -> LFC **: create(auth,registerSNSUser)
deactivate PLAT
deactivate APP
@enduml

@startuml

autonumber

participant "App" as APP
participant ":Company" as COMP
participant ":Platform" as PLAT
participant "auth:AuthFacade" as AF
participant "registerSNSUser\n:RegisterSNSUser" as RE
participant ":LoadUsersFromCSV" as LFC


activate APP
APP - -> COMP** : create(designation)
activate COMP
COMP - -> AF ** : create()
COMP - -> PLAT **: create(designation)
deactivate COMP
APP -> APP ++: bootstrap()
APP -> PLAT: initializeRegisters(auth)

activate PLAT
PLAT - -> RE **: create(auth)
PLAT - -> LFC **: create(auth,registerSNSUser)
deactivate PLAT
deactivate APP
@enduml

PlantUML version 1.2022.4(Sat Apr 09 14:29:17 BST 2022)
(GPL source distribution)
Java Runtime: OpenJDK Runtime Environment
JVM: OpenJDK 64-Bit Server VM
Default Encoding: Cp1252
Language: en
Country: US
--></g></svg>