<?xml version="1.0" encoding="UTF-8" standalone="no"?><svg xmlns="http://www.w3.org/2000/svg" xmlns:xlink="http://www.w3.org/1999/xlink" contentStyleType="text/css" height="3376px" preserveAspectRatio="none" style="width:1973px;height:3376px;background:#FFFFFF;" version="1.1" viewBox="0 0 1973 3376" width="1973px" zoomAndPan="magnify"><defs/><g><!--MD5=[0803a81967fc709067960f605326529b]
class LoadUsersFileUI--><g id="elem_LoadUsersFileUI"><rect codeLine="12" fill="#F1F1F1" height="52.6406" id="LoadUsersFileUI" rx="2.5" ry="2.5" style="stroke:#181818;stroke-width:0.5;" width="169" x="1781.5" y="7"/><ellipse cx="1796.5" cy="25.3203" fill="#ADD1B2" rx="11" ry="11" style="stroke:#181818;stroke-width:1.0;"/><path d="M1798.5,21.8203 Q1798.7031,21.3203 1798.9375,21.0703 Q1799.1719,20.8203 1799.4375,20.8203 Q1799.9063,20.8203 1800.2031,21.1016 Q1800.5,21.3828 1800.5,22.0391 L1800.5,23.6016 Q1800.5,24.2578 1800.2188,24.5391 Q1799.9375,24.8203 1799.5,24.8203 Q1799.1094,24.8203 1798.8594,24.6484 Q1798.6094,24.4766 1798.5,24.0234 Q1798.4531,23.7109 1798.2813,23.5391 Q1797.9688,23.2109 1797.4063,23.0234 Q1796.8438,22.8203 1796.2813,22.8203 Q1795.5781,22.8203 1794.9844,23.1016 Q1794.4063,23.3828 1793.9531,24.0078 Q1793.5,24.6328 1793.5,25.4922 L1793.5,26.4141 Q1793.5,27.4453 1794.3438,28.1328 Q1795.1875,28.8203 1796.6875,28.8203 Q1797.5781,28.8203 1798.2031,28.6172 Q1798.5625,28.5078 1798.9688,28.1484 Q1799.2344,27.9453 1799.375,27.8828 Q1799.5156,27.8203 1799.6875,27.8203 Q1800.0156,27.8203 1800.25,28.0859 Q1800.5,28.3359 1800.5,28.6953 Q1800.5,29.0391 1800.1563,29.4453 Q1799.6563,30.0391 1798.8594,30.3672 Q1797.8125,30.8203 1796.5313,30.8203 Q1795.0313,30.8203 1793.8281,30.2266 Q1792.8594,29.7578 1792.1719,28.7422 Q1791.5,27.7266 1791.5,26.5234 L1791.5,25.4297 Q1791.5,24.1797 1792.0938,23.0859 Q1792.7031,21.9922 1793.75,21.4141 Q1794.8125,20.8203 1796,20.8203 Q1796.7188,20.8203 1797.3438,21.0703 Q1797.9688,21.3203 1798.5,21.8203 Z " fill="#000000"/><text fill="#000000" font-family="sans-serif" font-size="18" lengthAdjust="spacing" textLength="133" x="1812.5" y="32.6855">LoadUsersFileUI</text><line style="stroke:#181818;stroke-width:0.5;" x1="1782.5" x2="1949.5" y1="43.6406" y2="43.6406"/><line style="stroke:#181818;stroke-width:0.5;" x1="1782.5" x2="1949.5" y1="51.6406" y2="51.6406"/></g><!--MD5=[60c7b644eaa0eebe21c4c304b45c5434]
class LoadUsersFileController--><g id="elem_LoadUsersFileController"><rect codeLine="14" fill="#F1F1F1" height="265.7656" id="LoadUsersFileController" rx="2.5" ry="2.5" style="stroke:#181818;stroke-width:0.5;" width="294" x="1613" y="161"/><ellipse cx="1656.8" cy="179.3203" fill="#ADD1B2" rx="11" ry="11" style="stroke:#181818;stroke-width:1.0;"/><path d="M1658.8,175.8203 Q1659.0031,175.3203 1659.2375,175.0703 Q1659.4719,174.8203 1659.7375,174.8203 Q1660.2063,174.8203 1660.5031,175.1016 Q1660.8,175.3828 1660.8,176.0391 L1660.8,177.6016 Q1660.8,178.2578 1660.5188,178.5391 Q1660.2375,178.8203 1659.8,178.8203 Q1659.4094,178.8203 1659.1594,178.6484 Q1658.9094,178.4766 1658.8,178.0234 Q1658.7531,177.7109 1658.5813,177.5391 Q1658.2688,177.2109 1657.7063,177.0234 Q1657.1438,176.8203 1656.5813,176.8203 Q1655.8781,176.8203 1655.2844,177.1016 Q1654.7063,177.3828 1654.2531,178.0078 Q1653.8,178.6328 1653.8,179.4922 L1653.8,180.4141 Q1653.8,181.4453 1654.6438,182.1328 Q1655.4875,182.8203 1656.9875,182.8203 Q1657.8781,182.8203 1658.5031,182.6172 Q1658.8625,182.5078 1659.2688,182.1484 Q1659.5344,181.9453 1659.675,181.8828 Q1659.8156,181.8203 1659.9875,181.8203 Q1660.3156,181.8203 1660.55,182.0859 Q1660.8,182.3359 1660.8,182.6953 Q1660.8,183.0391 1660.4563,183.4453 Q1659.9563,184.0391 1659.1594,184.3672 Q1658.1125,184.8203 1656.8313,184.8203 Q1655.3313,184.8203 1654.1281,184.2266 Q1653.1594,183.7578 1652.4719,182.7422 Q1651.8,181.7266 1651.8,180.5234 L1651.8,179.4297 Q1651.8,178.1797 1652.3938,177.0859 Q1653.0031,175.9922 1654.05,175.4141 Q1655.1125,174.8203 1656.3,174.8203 Q1657.0188,174.8203 1657.6438,175.0703 Q1658.2688,175.3203 1658.8,175.8203 Z " fill="#000000"/><text fill="#000000" font-family="sans-serif" font-size="18" lengthAdjust="spacing" textLength="194" x="1679.2" y="186.6855">LoadUsersFileController</text><line style="stroke:#181818;stroke-width:0.5;" x1="1614" x2="1906" y1="197.6406" y2="197.6406"/><text fill="#000000" font-family="sans-serif" font-size="18" lengthAdjust="spacing" textLength="107" x="1621" y="222.3262">-App m_oApp</text><text fill="#000000" font-family="sans-serif" font-size="18" lengthAdjust="spacing" textLength="177" x="1621" y="248.9668">-Platform m_oPlatform</text><line style="stroke:#181818;stroke-width:0.5;" x1="1614" x2="1906" y1="258.9219" y2="258.9219"/><text fill="#000000" font-family="sans-serif" font-size="18" lengthAdjust="spacing" textLength="114" x="1621" y="283.6074">+checkLogin()</text><text fill="#000000" font-family="sans-serif" font-size="18" lengthAdjust="spacing" textLength="168" x="1621" y="310.248">+getListOfFiles(path)</text><text fill="#000000" font-family="sans-serif" font-size="18" lengthAdjust="spacing" textLength="251" x="1621" y="336.8887">+loadUsersFromCSV(fileName)</text><text fill="#000000" font-family="sans-serif" font-size="18" lengthAdjust="spacing" textLength="278" x="1621" y="363.5293">+registerListStringUsersInSystem()</text><text fill="#000000" font-family="sans-serif" font-size="18" lengthAdjust="spacing" textLength="103" x="1621" y="390.1699">+showData()</text><text fill="#000000" font-family="sans-serif" font-size="18" lengthAdjust="spacing" textLength="164" x="1621" y="416.8105">+printSystemUsers()</text></g><!--MD5=[335f4d9be48430461c68bf6d6fdba145]
class App--><g id="elem_App"><rect codeLine="25" fill="#F1F1F1" height="159.2031" id="App" rx="2.5" ry="2.5" style="stroke:#181818;stroke-width:0.5;" width="226" x="7" y="711"/><ellipse cx="98.25" cy="729.3203" fill="#ADD1B2" rx="11" ry="11" style="stroke:#181818;stroke-width:1.0;"/><path d="M100.25,725.8203 Q100.4531,725.3203 100.6875,725.0703 Q100.9219,724.8203 101.1875,724.8203 Q101.6563,724.8203 101.9531,725.1016 Q102.25,725.3828 102.25,726.0391 L102.25,727.6016 Q102.25,728.2578 101.9688,728.5391 Q101.6875,728.8203 101.25,728.8203 Q100.8594,728.8203 100.6094,728.6484 Q100.3594,728.4766 100.25,728.0234 Q100.2031,727.7109 100.0313,727.5391 Q99.7188,727.2109 99.1563,727.0234 Q98.5938,726.8203 98.0313,726.8203 Q97.3281,726.8203 96.7344,727.1016 Q96.1563,727.3828 95.7031,728.0078 Q95.25,728.6328 95.25,729.4922 L95.25,730.4141 Q95.25,731.4453 96.0938,732.1328 Q96.9375,732.8203 98.4375,732.8203 Q99.3281,732.8203 99.9531,732.6172 Q100.3125,732.5078 100.7188,732.1484 Q100.9844,731.9453 101.125,731.8828 Q101.2656,731.8203 101.4375,731.8203 Q101.7656,731.8203 102,732.0859 Q102.25,732.3359 102.25,732.6953 Q102.25,733.0391 101.9063,733.4453 Q101.4063,734.0391 100.6094,734.3672 Q99.5625,734.8203 98.2813,734.8203 Q96.7813,734.8203 95.5781,734.2266 Q94.6094,733.7578 93.9219,732.7422 Q93.25,731.7266 93.25,730.5234 L93.25,729.4297 Q93.25,728.1797 93.8438,727.0859 Q94.4531,725.9922 95.5,725.4141 Q96.5625,724.8203 97.75,724.8203 Q98.4688,724.8203 99.0938,725.0703 Q99.7188,725.3203 100.25,725.8203 Z " fill="#000000"/><text fill="#000000" font-family="sans-serif" font-size="18" lengthAdjust="spacing" textLength="31" x="120.75" y="736.6855">App</text><line style="stroke:#181818;stroke-width:0.5;" x1="8" x2="232" y1="747.6406" y2="747.6406"/><line style="stroke:#181818;stroke-width:0.5;" x1="8" x2="232" y1="755.6406" y2="755.6406"/><text fill="#000000" font-family="sans-serif" font-size="18" lengthAdjust="spacing" textLength="124" x="15" y="780.3262">+getCompany()</text><text fill="#000000" font-family="sans-serif" font-size="18" lengthAdjust="spacing" textLength="210" x="15" y="806.9668">+getCurrentUserSession()</text><text fill="#000000" font-family="sans-serif" font-size="18" lengthAdjust="spacing" text-decoration="underline" textLength="162" x="15" y="833.6074">+static getInstance()</text><text fill="#000000" font-family="sans-serif" font-size="18" lengthAdjust="spacing" textLength="93" x="15" y="860.248">-bootstrap()</text></g><!--MD5=[02e4b9b7573f1156f41e60aa5b4e25a4]
class Company--><g id="elem_Company"><rect codeLine="33" fill="#F1F1F1" height="132.5625" id="Company" rx="2.5" ry="2.5" style="stroke:#181818;stroke-width:0.5;" width="160" x="920" y="528"/><ellipse cx="956.6" cy="546.3203" fill="#ADD1B2" rx="11" ry="11" style="stroke:#181818;stroke-width:1.0;"/><path d="M958.6,542.8203 Q958.8031,542.3203 959.0375,542.0703 Q959.2719,541.8203 959.5375,541.8203 Q960.0063,541.8203 960.3031,542.1016 Q960.6,542.3828 960.6,543.0391 L960.6,544.6016 Q960.6,545.2578 960.3188,545.5391 Q960.0375,545.8203 959.6,545.8203 Q959.2094,545.8203 958.9594,545.6484 Q958.7094,545.4766 958.6,545.0234 Q958.5531,544.7109 958.3813,544.5391 Q958.0688,544.2109 957.5063,544.0234 Q956.9438,543.8203 956.3813,543.8203 Q955.6781,543.8203 955.0844,544.1016 Q954.5063,544.3828 954.0531,545.0078 Q953.6,545.6328 953.6,546.4922 L953.6,547.4141 Q953.6,548.4453 954.4438,549.1328 Q955.2875,549.8203 956.7875,549.8203 Q957.6781,549.8203 958.3031,549.6172 Q958.6625,549.5078 959.0688,549.1484 Q959.3344,548.9453 959.475,548.8828 Q959.6156,548.8203 959.7875,548.8203 Q960.1156,548.8203 960.35,549.0859 Q960.6,549.3359 960.6,549.6953 Q960.6,550.0391 960.2563,550.4453 Q959.7563,551.0391 958.9594,551.3672 Q957.9125,551.8203 956.6313,551.8203 Q955.1313,551.8203 953.9281,551.2266 Q952.9594,550.7578 952.2719,549.7422 Q951.6,548.7266 951.6,547.5234 L951.6,546.4297 Q951.6,545.1797 952.1938,544.0859 Q952.8031,542.9922 953.85,542.4141 Q954.9125,541.8203 956.1,541.8203 Q956.8188,541.8203 957.4438,542.0703 Q958.0688,542.3203 958.6,542.8203 Z " fill="#000000"/><text fill="#000000" font-family="sans-serif" font-size="18" lengthAdjust="spacing" textLength="76" x="977.4" y="553.6855">Company</text><line style="stroke:#181818;stroke-width:0.5;" x1="921" x2="1079" y1="564.6406" y2="564.6406"/><text fill="#000000" font-family="sans-serif" font-size="18" lengthAdjust="spacing" textLength="98" x="928" y="589.3262">-designation</text><line style="stroke:#181818;stroke-width:0.5;" x1="921" x2="1079" y1="599.2813" y2="599.2813"/><text fill="#000000" font-family="sans-serif" font-size="18" lengthAdjust="spacing" textLength="114" x="928" y="623.9668">+getPlatform()</text><text fill="#000000" font-family="sans-serif" font-size="18" lengthAdjust="spacing" textLength="144" x="928" y="650.6074">+getAuthFacade()</text></g><!--MD5=[99b8db98afdc2c8404e39242ef4c1e65]
class Platform--><g id="elem_Platform"><rect codeLine="40" fill="#F1F1F1" height="185.8438" id="Platform" rx="2.5" ry="2.5" style="stroke:#181818;stroke-width:0.5;" width="374" x="813" y="920"/><ellipse cx="960.75" cy="938.3203" fill="#ADD1B2" rx="11" ry="11" style="stroke:#181818;stroke-width:1.0;"/><path d="M962.75,934.8203 Q962.9531,934.3203 963.1875,934.0703 Q963.4219,933.8203 963.6875,933.8203 Q964.1563,933.8203 964.4531,934.1016 Q964.75,934.3828 964.75,935.0391 L964.75,936.6016 Q964.75,937.2578 964.4688,937.5391 Q964.1875,937.8203 963.75,937.8203 Q963.3594,937.8203 963.1094,937.6484 Q962.8594,937.4766 962.75,937.0234 Q962.7031,936.7109 962.5313,936.5391 Q962.2188,936.2109 961.6563,936.0234 Q961.0938,935.8203 960.5313,935.8203 Q959.8281,935.8203 959.2344,936.1016 Q958.6563,936.3828 958.2031,937.0078 Q957.75,937.6328 957.75,938.4922 L957.75,939.4141 Q957.75,940.4453 958.5938,941.1328 Q959.4375,941.8203 960.9375,941.8203 Q961.8281,941.8203 962.4531,941.6172 Q962.8125,941.5078 963.2188,941.1484 Q963.4844,940.9453 963.625,940.8828 Q963.7656,940.8203 963.9375,940.8203 Q964.2656,940.8203 964.5,941.0859 Q964.75,941.3359 964.75,941.6953 Q964.75,942.0391 964.4063,942.4453 Q963.9063,943.0391 963.1094,943.3672 Q962.0625,943.8203 960.7813,943.8203 Q959.2813,943.8203 958.0781,943.2266 Q957.1094,942.7578 956.4219,941.7422 Q955.75,940.7266 955.75,939.5234 L955.75,938.4297 Q955.75,937.1797 956.3438,936.0859 Q956.9531,934.9922 958,934.4141 Q959.0625,933.8203 960.25,933.8203 Q960.9688,933.8203 961.5938,934.0703 Q962.2188,934.3203 962.75,934.8203 Z " fill="#000000"/><text fill="#000000" font-family="sans-serif" font-size="18" lengthAdjust="spacing" textLength="66" x="983.25" y="945.6855">Platform</text><line style="stroke:#181818;stroke-width:0.5;" x1="814" x2="1186" y1="956.6406" y2="956.6406"/><text fill="#000000" font-family="sans-serif" font-size="18" lengthAdjust="spacing" textLength="93" x="821" y="981.3262">-description</text><text fill="#000000" font-family="sans-serif" font-size="18" lengthAdjust="spacing" textLength="329" x="821" y="1007.9668">-RegisterSNSUser m_oRegisterSNSUser</text><text fill="#000000" font-family="sans-serif" font-size="18" lengthAdjust="spacing" textLength="339" x="821" y="1034.6074">-LoadUsersFromCSV LoadUsersFromCSV</text><line style="stroke:#181818;stroke-width:0.5;" x1="814" x2="1186" y1="1044.5625" y2="1044.5625"/><text fill="#000000" font-family="sans-serif" font-size="18" lengthAdjust="spacing" textLength="212" x="821" y="1069.248">+getLoadUsersFromCSV()</text><text fill="#000000" font-family="sans-serif" font-size="18" lengthAdjust="spacing" textLength="358" x="821" y="1095.8887">+initializeRegisters(AuthFacade authFacade)</text></g><!--MD5=[8199dd4119814b9f46baac1491c76b2c]
class LoadUsersFromCSV--><g id="elem_LoadUsersFromCSV"><rect codeLine="51" fill="#F1F1F1" height="372.3281" id="LoadUsersFromCSV" rx="2.5" ry="2.5" style="stroke:#181818;stroke-width:0.5;" width="529" x="1183.5" y="1228"/><ellipse cx="1359.75" cy="1246.3203" fill="#ADD1B2" rx="11" ry="11" style="stroke:#181818;stroke-width:1.0;"/><path d="M1361.75,1242.8203 Q1361.9531,1242.3203 1362.1875,1242.0703 Q1362.4219,1241.8203 1362.6875,1241.8203 Q1363.1563,1241.8203 1363.4531,1242.1016 Q1363.75,1242.3828 1363.75,1243.0391 L1363.75,1244.6016 Q1363.75,1245.2578 1363.4688,1245.5391 Q1363.1875,1245.8203 1362.75,1245.8203 Q1362.3594,1245.8203 1362.1094,1245.6484 Q1361.8594,1245.4766 1361.75,1245.0234 Q1361.7031,1244.7109 1361.5313,1244.5391 Q1361.2188,1244.2109 1360.6563,1244.0234 Q1360.0938,1243.8203 1359.5313,1243.8203 Q1358.8281,1243.8203 1358.2344,1244.1016 Q1357.6563,1244.3828 1357.2031,1245.0078 Q1356.75,1245.6328 1356.75,1246.4922 L1356.75,1247.4141 Q1356.75,1248.4453 1357.5938,1249.1328 Q1358.4375,1249.8203 1359.9375,1249.8203 Q1360.8281,1249.8203 1361.4531,1249.6172 Q1361.8125,1249.5078 1362.2188,1249.1484 Q1362.4844,1248.9453 1362.625,1248.8828 Q1362.7656,1248.8203 1362.9375,1248.8203 Q1363.2656,1248.8203 1363.5,1249.0859 Q1363.75,1249.3359 1363.75,1249.6953 Q1363.75,1250.0391 1363.4063,1250.4453 Q1362.9063,1251.0391 1362.1094,1251.3672 Q1361.0625,1251.8203 1359.7813,1251.8203 Q1358.2813,1251.8203 1357.0781,1251.2266 Q1356.1094,1250.7578 1355.4219,1249.7422 Q1354.75,1248.7266 1354.75,1247.5234 L1354.75,1246.4297 Q1354.75,1245.1797 1355.3438,1244.0859 Q1355.9531,1242.9922 1357,1242.4141 Q1358.0625,1241.8203 1359.25,1241.8203 Q1359.9688,1241.8203 1360.5938,1242.0703 Q1361.2188,1242.3203 1361.75,1242.8203 Z " fill="#000000"/><text fill="#000000" font-family="sans-serif" font-size="18" lengthAdjust="spacing" textLength="164" x="1382.25" y="1253.6855">LoadUsersFromCSV</text><line style="stroke:#181818;stroke-width:0.5;" x1="1184.5" x2="1711.5" y1="1264.6406" y2="1264.6406"/><text fill="#000000" font-family="sans-serif" font-size="18" lengthAdjust="spacing" textLength="237" x="1191.5" y="1289.3262">-List&lt;String[]&gt; usersListString</text><text fill="#000000" font-family="sans-serif" font-size="18" lengthAdjust="spacing" textLength="207" x="1191.5" y="1315.9668">-AuthFacade authFacade;</text><text fill="#000000" font-family="sans-serif" font-size="18" lengthAdjust="spacing" textLength="329" x="1191.5" y="1342.6074">-RegisterSNSUser m_oRegisterSNSUser</text><line style="stroke:#181818;stroke-width:0.5;" x1="1184.5" x2="1711.5" y1="1352.5625" y2="1352.5625"/><text fill="#000000" font-family="sans-serif" font-size="18" lengthAdjust="spacing" textLength="463" x="1191.5" y="1377.248">+LoadUsersFromCSV(authFacade,m_oRegisterSNSUser)</text><text fill="#000000" font-family="sans-serif" font-size="18" lengthAdjust="spacing" textLength="168" x="1191.5" y="1403.8887">+getListOfFiles(path)</text><text fill="#000000" font-family="sans-serif" font-size="18" lengthAdjust="spacing" textLength="251" x="1191.5" y="1430.5293">+loadUsersFromCSV(fileName)</text><text fill="#000000" font-family="sans-serif" font-size="18" lengthAdjust="spacing" textLength="209" x="1191.5" y="1457.1699">-convertCSV(inputStream)</text><text fill="#000000" font-family="sans-serif" font-size="18" lengthAdjust="spacing" textLength="513" x="1191.5" y="1483.8105">-convertFromBufferedReaderToStringSNSUser(reader,delimiter)</text><text fill="#000000" font-family="sans-serif" font-size="18" lengthAdjust="spacing" textLength="278" x="1191.5" y="1510.4512">+registerListStringUsersInSystem()</text><text fill="#000000" font-family="sans-serif" font-size="18" lengthAdjust="spacing" textLength="382" x="1191.5" y="1537.0918">-convertFromUserStringToSNSUser(userString)</text><text fill="#000000" font-family="sans-serif" font-size="18" lengthAdjust="spacing" textLength="103" x="1191.5" y="1563.7324">+showData()</text><text fill="#000000" font-family="sans-serif" font-size="18" lengthAdjust="spacing" textLength="164" x="1191.5" y="1590.373">+printSystemUsers()</text></g><!--MD5=[1155c950036316d3e595853e21159178]
class RegisterSNSUser--><g id="elem_RegisterSNSUser"><rect codeLine="67" fill="#F1F1F1" height="265.7656" id="RegisterSNSUser" rx="2.5" ry="2.5" style="stroke:#181818;stroke-width:0.5;" width="852" x="451" y="1722"/><ellipse cx="799.75" cy="1740.3203" fill="#ADD1B2" rx="11" ry="11" style="stroke:#181818;stroke-width:1.0;"/><path d="M801.75,1736.8203 Q801.9531,1736.3203 802.1875,1736.0703 Q802.4219,1735.8203 802.6875,1735.8203 Q803.1563,1735.8203 803.4531,1736.1016 Q803.75,1736.3828 803.75,1737.0391 L803.75,1738.6016 Q803.75,1739.2578 803.4688,1739.5391 Q803.1875,1739.8203 802.75,1739.8203 Q802.3594,1739.8203 802.1094,1739.6484 Q801.8594,1739.4766 801.75,1739.0234 Q801.7031,1738.7109 801.5313,1738.5391 Q801.2188,1738.2109 800.6563,1738.0234 Q800.0938,1737.8203 799.5313,1737.8203 Q798.8281,1737.8203 798.2344,1738.1016 Q797.6563,1738.3828 797.2031,1739.0078 Q796.75,1739.6328 796.75,1740.4922 L796.75,1741.4141 Q796.75,1742.4453 797.5938,1743.1328 Q798.4375,1743.8203 799.9375,1743.8203 Q800.8281,1743.8203 801.4531,1743.6172 Q801.8125,1743.5078 802.2188,1743.1484 Q802.4844,1742.9453 802.625,1742.8828 Q802.7656,1742.8203 802.9375,1742.8203 Q803.2656,1742.8203 803.5,1743.0859 Q803.75,1743.3359 803.75,1743.6953 Q803.75,1744.0391 803.4063,1744.4453 Q802.9063,1745.0391 802.1094,1745.3672 Q801.0625,1745.8203 799.7813,1745.8203 Q798.2813,1745.8203 797.0781,1745.2266 Q796.1094,1744.7578 795.4219,1743.7422 Q794.75,1742.7266 794.75,1741.5234 L794.75,1740.4297 Q794.75,1739.1797 795.3438,1738.0859 Q795.9531,1736.9922 797,1736.4141 Q798.0625,1735.8203 799.25,1735.8203 Q799.9688,1735.8203 800.5938,1736.0703 Q801.2188,1736.3203 801.75,1736.8203 Z " fill="#000000"/><text fill="#000000" font-family="sans-serif" font-size="18" lengthAdjust="spacing" textLength="142" x="822.25" y="1747.6855">RegisterSNSUser</text><line style="stroke:#181818;stroke-width:0.5;" x1="452" x2="1302" y1="1758.6406" y2="1758.6406"/><text fill="#000000" font-family="sans-serif" font-size="18" lengthAdjust="spacing" textLength="233" x="459" y="1783.3262">-List&lt;SNSUser&gt; listSNSUser</text><text fill="#000000" font-family="sans-serif" font-size="18" lengthAdjust="spacing" textLength="202" x="459" y="1809.9668">-AuthFacade authFacade</text><line style="stroke:#181818;stroke-width:0.5;" x1="452" x2="1302" y1="1819.9219" y2="1819.9219"/><text fill="#000000" font-family="sans-serif" font-size="18" lengthAdjust="spacing" textLength="265" x="459" y="1844.6074">+RegisterSNSUser( authFacade)</text><text fill="#000000" font-family="sans-serif" font-size="18" lengthAdjust="spacing" textLength="836" x="459" y="1871.248">+newSNSUser(name, address, gender, phoneNumber, email, date, snsUserNumber, citizenCardNumber)</text><text fill="#000000" font-family="sans-serif" font-size="18" lengthAdjust="spacing" textLength="621" x="459" y="1897.8887">-validateSNSUser(email, phoneNumber, snsUserNumber, citizenCardNumber)</text><text fill="#000000" font-family="sans-serif" font-size="18" lengthAdjust="spacing" textLength="173" x="459" y="1924.5293">-existsSNSUser(user)</text><text fill="#000000" font-family="sans-serif" font-size="18" lengthAdjust="spacing" textLength="243" x="459" y="1951.1699">+addSNSUser(SNSUser user)</text><text fill="#000000" font-family="sans-serif" font-size="18" lengthAdjust="spacing" textLength="181" x="459" y="1977.8105">+passwordGenerator()</text></g><!--MD5=[8ae808d068a8995f06b9b3ec51357f0b]
class AuthFacade--><g id="elem_AuthFacade"><rect codeLine="80" fill="#F1F1F1" height="185.8438" id="AuthFacade" rx="2.5" ry="2.5" style="stroke:#181818;stroke-width:0.5;" width="344" x="226" y="2610"/><ellipse cx="343.75" cy="2628.3203" fill="#ADD1B2" rx="11" ry="11" style="stroke:#181818;stroke-width:1.0;"/><path d="M345.75,2624.8203 Q345.9531,2624.3203 346.1875,2624.0703 Q346.4219,2623.8203 346.6875,2623.8203 Q347.1563,2623.8203 347.4531,2624.1016 Q347.75,2624.3828 347.75,2625.0391 L347.75,2626.6016 Q347.75,2627.2578 347.4688,2627.5391 Q347.1875,2627.8203 346.75,2627.8203 Q346.3594,2627.8203 346.1094,2627.6484 Q345.8594,2627.4766 345.75,2627.0234 Q345.7031,2626.7109 345.5313,2626.5391 Q345.2188,2626.2109 344.6563,2626.0234 Q344.0938,2625.8203 343.5313,2625.8203 Q342.8281,2625.8203 342.2344,2626.1016 Q341.6563,2626.3828 341.2031,2627.0078 Q340.75,2627.6328 340.75,2628.4922 L340.75,2629.4141 Q340.75,2630.4453 341.5938,2631.1328 Q342.4375,2631.8203 343.9375,2631.8203 Q344.8281,2631.8203 345.4531,2631.6172 Q345.8125,2631.5078 346.2188,2631.1484 Q346.4844,2630.9453 346.625,2630.8828 Q346.7656,2630.8203 346.9375,2630.8203 Q347.2656,2630.8203 347.5,2631.0859 Q347.75,2631.3359 347.75,2631.6953 Q347.75,2632.0391 347.4063,2632.4453 Q346.9063,2633.0391 346.1094,2633.3672 Q345.0625,2633.8203 343.7813,2633.8203 Q342.2813,2633.8203 341.0781,2633.2266 Q340.1094,2632.7578 339.4219,2631.7422 Q338.75,2630.7266 338.75,2629.5234 L338.75,2628.4297 Q338.75,2627.1797 339.3438,2626.0859 Q339.9531,2624.9922 341,2624.4141 Q342.0625,2623.8203 343.25,2623.8203 Q343.9688,2623.8203 344.5938,2624.0703 Q345.2188,2624.3203 345.75,2624.8203 Z " fill="#000000"/><text fill="#000000" font-family="sans-serif" font-size="18" lengthAdjust="spacing" textLength="96" x="366.25" y="2635.6855">AuthFacade</text><line style="stroke:#181818;stroke-width:0.5;" x1="227" x2="569" y1="2646.6406" y2="2646.6406"/><line style="stroke:#181818;stroke-width:0.5;" x1="227" x2="569" y1="2654.6406" y2="2654.6406"/><text fill="#000000" font-family="sans-serif" font-size="18" lengthAdjust="spacing" textLength="132" x="234" y="2679.3262">+getUserRoles()</text><text fill="#000000" font-family="sans-serif" font-size="18" lengthAdjust="spacing" textLength="328" x="234" y="2705.9668">+addUserWithRole(name,email,pwd,role)</text><text fill="#000000" font-family="sans-serif" font-size="18" lengthAdjust="spacing" textLength="148" x="234" y="2732.6074">+existsUser(email)</text><text fill="#000000" font-family="sans-serif" font-size="18" lengthAdjust="spacing" textLength="210" x="234" y="2759.248">+getCurrentUserSession()</text><text fill="#000000" font-family="sans-serif" font-size="18" lengthAdjust="spacing" textLength="95" x="234" y="2785.8887">+getUsers()</text></g><!--MD5=[8d5fbb9917b0108410e61cf59607fdbc]
class LoadFromCSV--><g id="elem_LoadFromCSV"><rect codeLine="90" fill="#F1F1F1" height="105.9219" id="LoadFromCSV" rx="2.5" ry="2.5" style="stroke:#181818;stroke-width:0.5;" width="220" x="1338" y="1802"/><ellipse cx="1382.25" cy="1820.3203" fill="#B4A7E5" rx="11" ry="11" style="stroke:#181818;stroke-width:1.0;"/><path d="M1383.25,1817.3203 L1383.25,1823.3203 L1385.25,1823.3203 L1385.7344,1823.3203 L1386.25,1823.9453 L1386.25,1824.3203 L1386.25,1824.6953 L1385.7344,1825.3203 L1385.25,1825.3203 L1379.25,1825.3203 L1378.7656,1825.3203 L1378.25,1824.6953 L1378.25,1824.3203 L1378.25,1823.9453 L1378.7656,1823.3203 L1379.25,1823.3203 L1381.25,1823.3203 L1381.25,1817.3203 L1379.25,1817.3203 L1378.7656,1817.3203 L1378.25,1816.6953 L1378.25,1816.3203 L1378.25,1815.9453 L1378.7656,1815.3203 L1379.25,1815.3203 L1385.25,1815.3203 L1385.7344,1815.3203 L1386.25,1815.9453 L1386.25,1816.3203 L1386.25,1816.6953 L1385.7344,1817.3203 L1385.25,1817.3203 L1383.25,1817.3203 Z " fill="#000000"/><text fill="#000000" font-family="sans-serif" font-size="18" font-style="italic" lengthAdjust="spacing" textLength="119" x="1404.75" y="1827.6855">LoadFromCSV</text><line style="stroke:#181818;stroke-width:0.5;" x1="1339" x2="1557" y1="1838.6406" y2="1838.6406"/><line style="stroke:#181818;stroke-width:0.5;" x1="1339" x2="1557" y1="1846.6406" y2="1846.6406"/><text fill="#000000" font-family="sans-serif" font-size="18" lengthAdjust="spacing" text-decoration="underline" textLength="168" x="1346" y="1871.3262">+getListOfFiles(path)</text><text fill="#000000" font-family="sans-serif" font-size="18" lengthAdjust="spacing" text-decoration="underline" textLength="204" x="1346" y="1897.9668">+loadFromCSV(fileName)</text></g><!--MD5=[72be06cc7ae02ccc98efe28a50e62246]
class SNSUser--><g id="elem_SNSUser"><rect codeLine="95" fill="#F1F1F1" height="398.9688" id="SNSUser" rx="2.5" ry="2.5" style="stroke:#181818;stroke-width:0.5;" width="220" x="451" y="2110"/><ellipse cx="517.25" cy="2128.3203" fill="#ADD1B2" rx="11" ry="11" style="stroke:#181818;stroke-width:1.0;"/><path d="M519.25,2124.8203 Q519.4531,2124.3203 519.6875,2124.0703 Q519.9219,2123.8203 520.1875,2123.8203 Q520.6563,2123.8203 520.9531,2124.1016 Q521.25,2124.3828 521.25,2125.0391 L521.25,2126.6016 Q521.25,2127.2578 520.9688,2127.5391 Q520.6875,2127.8203 520.25,2127.8203 Q519.8594,2127.8203 519.6094,2127.6484 Q519.3594,2127.4766 519.25,2127.0234 Q519.2031,2126.7109 519.0313,2126.5391 Q518.7188,2126.2109 518.1563,2126.0234 Q517.5938,2125.8203 517.0313,2125.8203 Q516.3281,2125.8203 515.7344,2126.1016 Q515.1563,2126.3828 514.7031,2127.0078 Q514.25,2127.6328 514.25,2128.4922 L514.25,2129.4141 Q514.25,2130.4453 515.0938,2131.1328 Q515.9375,2131.8203 517.4375,2131.8203 Q518.3281,2131.8203 518.9531,2131.6172 Q519.3125,2131.5078 519.7188,2131.1484 Q519.9844,2130.9453 520.125,2130.8828 Q520.2656,2130.8203 520.4375,2130.8203 Q520.7656,2130.8203 521,2131.0859 Q521.25,2131.3359 521.25,2131.6953 Q521.25,2132.0391 520.9063,2132.4453 Q520.4063,2133.0391 519.6094,2133.3672 Q518.5625,2133.8203 517.2813,2133.8203 Q515.7813,2133.8203 514.5781,2133.2266 Q513.6094,2132.7578 512.9219,2131.7422 Q512.25,2130.7266 512.25,2129.5234 L512.25,2128.4297 Q512.25,2127.1797 512.8438,2126.0859 Q513.4531,2124.9922 514.5,2124.4141 Q515.5625,2123.8203 516.75,2123.8203 Q517.4688,2123.8203 518.0938,2124.0703 Q518.7188,2124.3203 519.25,2124.8203 Z " fill="#000000"/><text fill="#000000" font-family="sans-serif" font-size="18" lengthAdjust="spacing" textLength="75" x="539.75" y="2135.6855">SNSUser</text><line style="stroke:#181818;stroke-width:0.5;" x1="452" x2="670" y1="2146.6406" y2="2146.6406"/><text fill="#000000" font-family="sans-serif" font-size="18" lengthAdjust="spacing" textLength="50" x="459" y="2171.3262">-name</text><text fill="#000000" font-family="sans-serif" font-size="18" lengthAdjust="spacing" textLength="70" x="459" y="2197.9668">-address</text><text fill="#000000" font-family="sans-serif" font-size="18" lengthAdjust="spacing" textLength="62" x="459" y="2224.6074">-gender</text><text fill="#000000" font-family="sans-serif" font-size="18" lengthAdjust="spacing" textLength="48" x="459" y="2251.248">-email</text><text fill="#000000" font-family="sans-serif" font-size="18" lengthAdjust="spacing" textLength="79" x="459" y="2277.8887">-birthDate</text><text fill="#000000" font-family="sans-serif" font-size="18" lengthAdjust="spacing" textLength="135" x="459" y="2304.5293">-snsUserNumber</text><text fill="#000000" font-family="sans-serif" font-size="18" lengthAdjust="spacing" textLength="158" x="459" y="2331.1699">-citizenCardNumber</text><line style="stroke:#181818;stroke-width:0.5;" x1="452" x2="670" y1="2341.125" y2="2341.125"/><text fill="#000000" font-family="sans-serif" font-size="18" lengthAdjust="spacing" textLength="76" x="459" y="2365.8105">+equals()</text><text fill="#000000" font-family="sans-serif" font-size="18" lengthAdjust="spacing" textLength="92" x="459" y="2392.4512">+getEmail()</text><text fill="#000000" font-family="sans-serif" font-size="18" lengthAdjust="spacing" textLength="95" x="459" y="2419.0918">+getName()</text><text fill="#000000" font-family="sans-serif" font-size="18" lengthAdjust="spacing" textLength="163" x="459" y="2445.7324">+getPhoneNumber()</text><text fill="#000000" font-family="sans-serif" font-size="18" lengthAdjust="spacing" textLength="180" x="459" y="2472.373">+getSnsUserNumber()</text><text fill="#000000" font-family="sans-serif" font-size="18" lengthAdjust="spacing" textLength="204" x="459" y="2499.0137">+getCitizenCardNumber()</text></g><!--MD5=[9a2889027d1a5f59ee05c53124f224f8]
class PasswordGenerator--><g id="elem_PasswordGenerator"><rect codeLine="111" fill="#F1F1F1" height="79.2813" id="PasswordGenerator" rx="2.5" ry="2.5" style="stroke:#181818;stroke-width:0.5;" width="239" x="706.5" y="2270"/><ellipse cx="740.85" cy="2288.3203" fill="#B4A7E5" rx="11" ry="11" style="stroke:#181818;stroke-width:1.0;"/><path d="M741.85,2285.3203 L741.85,2291.3203 L743.85,2291.3203 L744.3344,2291.3203 L744.85,2291.9453 L744.85,2292.3203 L744.85,2292.6953 L744.3344,2293.3203 L743.85,2293.3203 L737.85,2293.3203 L737.3656,2293.3203 L736.85,2292.6953 L736.85,2292.3203 L736.85,2291.9453 L737.3656,2291.3203 L737.85,2291.3203 L739.85,2291.3203 L739.85,2285.3203 L737.85,2285.3203 L737.3656,2285.3203 L736.85,2284.6953 L736.85,2284.3203 L736.85,2283.9453 L737.3656,2283.3203 L737.85,2283.3203 L743.85,2283.3203 L744.3344,2283.3203 L744.85,2283.9453 L744.85,2284.3203 L744.85,2284.6953 L744.3344,2285.3203 L743.85,2285.3203 L741.85,2285.3203 Z " fill="#000000"/><text fill="#000000" font-family="sans-serif" font-size="18" font-style="italic" lengthAdjust="spacing" textLength="160" x="761.15" y="2295.6855">PasswordGenerator</text><line style="stroke:#181818;stroke-width:0.5;" x1="707.5" x2="944.5" y1="2306.6406" y2="2306.6406"/><line style="stroke:#181818;stroke-width:0.5;" x1="707.5" x2="944.5" y1="2314.6406" y2="2314.6406"/><text fill="#000000" font-family="sans-serif" font-size="18" lengthAdjust="spacing" text-decoration="underline" textLength="223" x="714.5" y="2339.3262">+passwordGenerator(email)</text></g><!--MD5=[e4bb558c92260c47cedb3f39feb63908]
class UserMapper--><g id="elem_UserMapper"><rect codeLine="116" fill="#F1F1F1" height="159.2031" id="UserMapper" rx="2.5" ry="2.5" style="stroke:#181818;stroke-width:0.5;" width="223" x="1476.5" y="2897"/><ellipse cx="1532.25" cy="2915.3203" fill="#ADD1B2" rx="11" ry="11" style="stroke:#181818;stroke-width:1.0;"/><path d="M1534.25,2911.8203 Q1534.4531,2911.3203 1534.6875,2911.0703 Q1534.9219,2910.8203 1535.1875,2910.8203 Q1535.6563,2910.8203 1535.9531,2911.1016 Q1536.25,2911.3828 1536.25,2912.0391 L1536.25,2913.6016 Q1536.25,2914.2578 1535.9688,2914.5391 Q1535.6875,2914.8203 1535.25,2914.8203 Q1534.8594,2914.8203 1534.6094,2914.6484 Q1534.3594,2914.4766 1534.25,2914.0234 Q1534.2031,2913.7109 1534.0313,2913.5391 Q1533.7188,2913.2109 1533.1563,2913.0234 Q1532.5938,2912.8203 1532.0313,2912.8203 Q1531.3281,2912.8203 1530.7344,2913.1016 Q1530.1563,2913.3828 1529.7031,2914.0078 Q1529.25,2914.6328 1529.25,2915.4922 L1529.25,2916.4141 Q1529.25,2917.4453 1530.0938,2918.1328 Q1530.9375,2918.8203 1532.4375,2918.8203 Q1533.3281,2918.8203 1533.9531,2918.6172 Q1534.3125,2918.5078 1534.7188,2918.1484 Q1534.9844,2917.9453 1535.125,2917.8828 Q1535.2656,2917.8203 1535.4375,2917.8203 Q1535.7656,2917.8203 1536,2918.0859 Q1536.25,2918.3359 1536.25,2918.6953 Q1536.25,2919.0391 1535.9063,2919.4453 Q1535.4063,2920.0391 1534.6094,2920.3672 Q1533.5625,2920.8203 1532.2813,2920.8203 Q1530.7813,2920.8203 1529.5781,2920.2266 Q1528.6094,2919.7578 1527.9219,2918.7422 Q1527.25,2917.7266 1527.25,2916.5234 L1527.25,2915.4297 Q1527.25,2914.1797 1527.8438,2913.0859 Q1528.4531,2911.9922 1529.5,2911.4141 Q1530.5625,2910.8203 1531.75,2910.8203 Q1532.4688,2910.8203 1533.0938,2911.0703 Q1533.7188,2911.3203 1534.25,2911.8203 Z " fill="#000000"/><text fill="#000000" font-family="sans-serif" font-size="18" lengthAdjust="spacing" textLength="99" x="1554.75" y="2922.6855">UserMapper</text><line style="stroke:#181818;stroke-width:0.5;" x1="1477.5" x2="1698.5" y1="2933.6406" y2="2933.6406"/><text fill="#000000" font-family="sans-serif" font-size="18" lengthAdjust="spacing" textLength="207" x="1484.5" y="2958.3262">-UserRoleMapper mapper</text><line style="stroke:#181818;stroke-width:0.5;" x1="1477.5" x2="1698.5" y1="2968.2813" y2="2968.2813"/><text fill="#000000" font-family="sans-serif" font-size="18" lengthAdjust="spacing" textLength="101" x="1484.5" y="2992.9668">+toDto(user)</text><text fill="#000000" font-family="sans-serif" font-size="18" lengthAdjust="spacing" textLength="203" x="1484.5" y="3019.6074">+toDto(List&lt;User&gt; users)</text><text fill="#000000" font-family="sans-serif" font-size="18" lengthAdjust="spacing" textLength="202" x="1484.5" y="3046.248">+toDto(Set&lt;User&gt; users)</text></g><!--MD5=[a5b40ab6867253cbae57d257f30bbbb8]
class UserDTO--><g id="elem_UserDTO"><rect codeLine="123" fill="#F1F1F1" height="212.4844" id="UserDTO" rx="2.5" ry="2.5" style="stroke:#181818;stroke-width:0.5;" width="230" x="1709" y="3157"/><ellipse cx="1779.25" cy="3175.3203" fill="#ADD1B2" rx="11" ry="11" style="stroke:#181818;stroke-width:1.0;"/><path d="M1781.25,3171.8203 Q1781.4531,3171.3203 1781.6875,3171.0703 Q1781.9219,3170.8203 1782.1875,3170.8203 Q1782.6563,3170.8203 1782.9531,3171.1016 Q1783.25,3171.3828 1783.25,3172.0391 L1783.25,3173.6016 Q1783.25,3174.2578 1782.9688,3174.5391 Q1782.6875,3174.8203 1782.25,3174.8203 Q1781.8594,3174.8203 1781.6094,3174.6484 Q1781.3594,3174.4766 1781.25,3174.0234 Q1781.2031,3173.7109 1781.0313,3173.5391 Q1780.7188,3173.2109 1780.1563,3173.0234 Q1779.5938,3172.8203 1779.0313,3172.8203 Q1778.3281,3172.8203 1777.7344,3173.1016 Q1777.1563,3173.3828 1776.7031,3174.0078 Q1776.25,3174.6328 1776.25,3175.4922 L1776.25,3176.4141 Q1776.25,3177.4453 1777.0938,3178.1328 Q1777.9375,3178.8203 1779.4375,3178.8203 Q1780.3281,3178.8203 1780.9531,3178.6172 Q1781.3125,3178.5078 1781.7188,3178.1484 Q1781.9844,3177.9453 1782.125,3177.8828 Q1782.2656,3177.8203 1782.4375,3177.8203 Q1782.7656,3177.8203 1783,3178.0859 Q1783.25,3178.3359 1783.25,3178.6953 Q1783.25,3179.0391 1782.9063,3179.4453 Q1782.4063,3180.0391 1781.6094,3180.3672 Q1780.5625,3180.8203 1779.2813,3180.8203 Q1777.7813,3180.8203 1776.5781,3180.2266 Q1775.6094,3179.7578 1774.9219,3178.7422 Q1774.25,3177.7266 1774.25,3176.5234 L1774.25,3175.4297 Q1774.25,3174.1797 1774.8438,3173.0859 Q1775.4531,3171.9922 1776.5,3171.4141 Q1777.5625,3170.8203 1778.75,3170.8203 Q1779.4688,3170.8203 1780.0938,3171.0703 Q1780.7188,3171.3203 1781.25,3171.8203 Z " fill="#000000"/><text fill="#000000" font-family="sans-serif" font-size="18" lengthAdjust="spacing" textLength="77" x="1801.75" y="3182.6855">UserDTO</text><line style="stroke:#181818;stroke-width:0.5;" x1="1710" x2="1938" y1="3193.6406" y2="3193.6406"/><text fill="#000000" font-family="sans-serif" font-size="18" lengthAdjust="spacing" textLength="20" x="1717" y="3218.3262">-id</text><text fill="#000000" font-family="sans-serif" font-size="18" lengthAdjust="spacing" textLength="50" x="1717" y="3244.9668">-name</text><text fill="#000000" font-family="sans-serif" font-size="18" lengthAdjust="spacing" textLength="214" x="1717" y="3271.6074">-List&lt;UserRoleDTO&gt; roles</text><line style="stroke:#181818;stroke-width:0.5;" x1="1710" x2="1938" y1="3281.5625" y2="3281.5625"/><text fill="#000000" font-family="sans-serif" font-size="18" lengthAdjust="spacing" textLength="65" x="1717" y="3306.248">+getID()</text><text fill="#000000" font-family="sans-serif" font-size="18" lengthAdjust="spacing" textLength="95" x="1717" y="3332.8887">+getName()</text><text fill="#000000" font-family="sans-serif" font-size="18" lengthAdjust="spacing" textLength="94" x="1717" y="3359.5293">+getRoles()</text></g><!--MD5=[5d909b6c20725e19f5c6863827561ff4]
class Constants--><g id="elem_Constants"><rect codeLine="132" fill="#F1F1F1" height="132.5625" id="Constants" rx="2.5" ry="2.5" style="stroke:#181818;stroke-width:0.5;" width="239" x="1389.5" y="2243"/><ellipse cx="1462.25" cy="2261.3203" fill="#ADD1B2" rx="11" ry="11" style="stroke:#181818;stroke-width:1.0;"/><path d="M1464.25,2257.8203 Q1464.4531,2257.3203 1464.6875,2257.0703 Q1464.9219,2256.8203 1465.1875,2256.8203 Q1465.6563,2256.8203 1465.9531,2257.1016 Q1466.25,2257.3828 1466.25,2258.0391 L1466.25,2259.6016 Q1466.25,2260.2578 1465.9688,2260.5391 Q1465.6875,2260.8203 1465.25,2260.8203 Q1464.8594,2260.8203 1464.6094,2260.6484 Q1464.3594,2260.4766 1464.25,2260.0234 Q1464.2031,2259.7109 1464.0313,2259.5391 Q1463.7188,2259.2109 1463.1563,2259.0234 Q1462.5938,2258.8203 1462.0313,2258.8203 Q1461.3281,2258.8203 1460.7344,2259.1016 Q1460.1563,2259.3828 1459.7031,2260.0078 Q1459.25,2260.6328 1459.25,2261.4922 L1459.25,2262.4141 Q1459.25,2263.4453 1460.0938,2264.1328 Q1460.9375,2264.8203 1462.4375,2264.8203 Q1463.3281,2264.8203 1463.9531,2264.6172 Q1464.3125,2264.5078 1464.7188,2264.1484 Q1464.9844,2263.9453 1465.125,2263.8828 Q1465.2656,2263.8203 1465.4375,2263.8203 Q1465.7656,2263.8203 1466,2264.0859 Q1466.25,2264.3359 1466.25,2264.6953 Q1466.25,2265.0391 1465.9063,2265.4453 Q1465.4063,2266.0391 1464.6094,2266.3672 Q1463.5625,2266.8203 1462.2813,2266.8203 Q1460.7813,2266.8203 1459.5781,2266.2266 Q1458.6094,2265.7578 1457.9219,2264.7422 Q1457.25,2263.7266 1457.25,2262.5234 L1457.25,2261.4297 Q1457.25,2260.1797 1457.8438,2259.0859 Q1458.4531,2257.9922 1459.5,2257.4141 Q1460.5625,2256.8203 1461.75,2256.8203 Q1462.4688,2256.8203 1463.0938,2257.0703 Q1463.7188,2257.3203 1464.25,2257.8203 Z " fill="#000000"/><text fill="#000000" font-family="sans-serif" font-size="18" lengthAdjust="spacing" textLength="81" x="1484.75" y="2268.6855">Constants</text><line style="stroke:#181818;stroke-width:0.5;" x1="1390.5" x2="1627.5" y1="2279.6406" y2="2279.6406"/><text fill="#000000" font-family="sans-serif" font-size="18" lengthAdjust="spacing" textLength="167" x="1397.5" y="2304.3262">+ROLE_SNS_USER</text><text fill="#000000" font-family="sans-serif" font-size="18" lengthAdjust="spacing" textLength="184" x="1397.5" y="2330.9668">+DELIMITER_COMMA</text><text fill="#000000" font-family="sans-serif" font-size="18" lengthAdjust="spacing" textLength="223" x="1397.5" y="2357.6074">+DELIMITER_SEMICOLON</text><line style="stroke:#181818;stroke-width:0.5;" x1="1390.5" x2="1627.5" y1="2367.5625" y2="2367.5625"/></g><!--MD5=[77b1d0b1695abacb2e05f25ac46bd7e4]
class SentEmail--><g id="elem_SentEmail"><rect codeLine="139" fill="#F1F1F1" height="79.2813" id="SentEmail" rx="2.5" ry="2.5" style="stroke:#181818;stroke-width:0.5;" width="426" x="613" y="2663.5"/><ellipse cx="777.75" cy="2681.8203" fill="#B4A7E5" rx="11" ry="11" style="stroke:#181818;stroke-width:1.0;"/><path d="M778.75,2678.8203 L778.75,2684.8203 L780.75,2684.8203 L781.2344,2684.8203 L781.75,2685.4453 L781.75,2685.8203 L781.75,2686.1953 L781.2344,2686.8203 L780.75,2686.8203 L774.75,2686.8203 L774.2656,2686.8203 L773.75,2686.1953 L773.75,2685.8203 L773.75,2685.4453 L774.2656,2684.8203 L774.75,2684.8203 L776.75,2684.8203 L776.75,2678.8203 L774.75,2678.8203 L774.2656,2678.8203 L773.75,2678.1953 L773.75,2677.8203 L773.75,2677.4453 L774.2656,2676.8203 L774.75,2676.8203 L780.75,2676.8203 L781.2344,2676.8203 L781.75,2677.4453 L781.75,2677.8203 L781.75,2678.1953 L781.2344,2678.8203 L780.75,2678.8203 L778.75,2678.8203 Z " fill="#000000"/><text fill="#000000" font-family="sans-serif" font-size="18" font-style="italic" lengthAdjust="spacing" textLength="84" x="800.25" y="2689.1855">SentEmail</text><line style="stroke:#181818;stroke-width:0.5;" x1="614" x2="1038" y1="2700.1406" y2="2700.1406"/><line style="stroke:#181818;stroke-width:0.5;" x1="614" x2="1038" y1="2708.1406" y2="2708.1406"/><text fill="#000000" font-family="sans-serif" font-size="18" lengthAdjust="spacing" text-decoration="underline" textLength="410" x="621" y="2732.8262">+SentEmail(userEmail,emailMessage,emailSubject)</text></g><!--MD5=[add536a2d5a266ead41d4d0c4c5943e8]
link LoadUsersFileUI to LoadUsersFileController--><g id="link_LoadUsersFileUI_LoadUsersFileController"><path codeLine="143" d="M1855.45,60.23 C1845.98,83.33 1831.28,119.16 1816.24,155.84 " fill="none" id="LoadUsersFileUI-to-LoadUsersFileController" style="stroke:#181818;stroke-width:1.0;stroke-dasharray:7.0,7.0;"/><polygon fill="#181818" points="1814.22,160.79,1821.32,153.9644,1816.1065,156.1595,1813.9113,150.946,1814.22,160.79" style="stroke:#181818;stroke-width:1.0;"/></g><!--MD5=[8ca4e0f0acc2dcd15359139f2466965c]
link LoadUsersFileController to Company--><g id="link_LoadUsersFileController_Company"><path codeLine="144" d="M1612.56,352.91 C1455.62,414.55 1212.68,509.97 1085.02,560.11 " fill="none" id="LoadUsersFileController-to-Company" style="stroke:#181818;stroke-width:1.0;stroke-dasharray:7.0,7.0;"/><polygon fill="#181818" points="1080.15,562.02,1089.9893,562.454,1084.8041,560.1926,1087.0655,555.0074,1080.15,562.02" style="stroke:#181818;stroke-width:1.0;"/></g><!--MD5=[b28ca1c137c6d1274cd19ef96cfef1e5]
link LoadUsersFileController to Platform--><g id="link_LoadUsersFileController_Platform"><path codeLine="145" d="M1619.72,427.34 C1469.48,569.09 1234.73,790.55 1101.44,916.3 " fill="none" id="LoadUsersFileController-to-Platform" style="stroke:#181818;stroke-width:1.0;stroke-dasharray:7.0,7.0;"/><polygon fill="#181818" points="1097.53,919.99,1106.812,916.697,1101.1571,916.5485,1101.3056,910.8936,1097.53,919.99" style="stroke:#181818;stroke-width:1.0;"/></g><!--MD5=[de8ba32527d750f1ec647f4f57024bf3]
link LoadUsersFileController to App--><g id="link_LoadUsersFileController_App"><path codeLine="146" d="M1612.82,318.7 C1335.38,366.89 719.96,490.66 237.93,710.61 " fill="none" id="LoadUsersFileController-to-App" style="stroke:#181818;stroke-width:1.0;stroke-dasharray:7.0,7.0;"/><polygon fill="#181818" points="233.33,712.72,243.1784,712.6256,237.8794,710.6456,239.8594,705.3466,233.33,712.72" style="stroke:#181818;stroke-width:1.0;"/></g><!--MD5=[6ddee62888d4972fee296ab52ed43c07]
link LoadUsersFileController to Constants--><g id="link_LoadUsersFileController_Constants"><path codeLine="147" d="M1800.8,427.07 C1813.39,478.49 1824,538.25 1824,593.5 C1824,593.5 1824,593.5 1824,1856 C1824,2015.32 1690.84,2158.75 1597.68,2239.61 " fill="none" id="LoadUsersFileController-to-Constants" style="stroke:#181818;stroke-width:1.0;stroke-dasharray:7.0,7.0;"/><polygon fill="#181818" points="1593.83,2242.93,1603.255,2240.0719,1597.6132,2239.6608,1598.0243,2234.0189,1593.83,2242.93" style="stroke:#181818;stroke-width:1.0;"/></g><!--MD5=[717d4b03d3c4372f4eafe5e342a0a7dd]
link Company to AuthFacade--><g id="link_Company_AuthFacade"><path codeLine="148" d="M919.67,602.78 C727.29,625.05 256,710.39 256,1012 C256,1012 256,1012 256,2310.5 C256,2415.77 301.93,2527.94 341.55,2605.1 " fill="none" id="Company-to-AuthFacade" style="stroke:#181818;stroke-width:1.0;stroke-dasharray:7.0,7.0;"/><polygon fill="#181818" points="343.91,2609.67,343.3496,2599.8371,341.6226,2605.2239,336.2358,2603.4969,343.91,2609.67" style="stroke:#181818;stroke-width:1.0;"/></g><!--MD5=[71da4be24892bfec694db06bf9e3c284]
link Company to Platform--><g id="link_Company_Platform"><path codeLine="149" d="M1000,661.04 C1000,729.18 1000,836.61 1000,914.68 " fill="none" id="Company-to-Platform" style="stroke:#181818;stroke-width:1.0;"/><polygon fill="#181818" points="1000,919.78,1004,910.78,1000,914.78,996,910.78,1000,919.78" style="stroke:#181818;stroke-width:1.0;"/><polygon fill="#000000" points="1005,795.6758,1007.9389,786.6307,1002.0611,786.6307,1005,795.6758" style="stroke:#000000;stroke-width:1.0;"/><text fill="#000000" font-family="sans-serif" font-size="13" lengthAdjust="spacing" textLength="21" x="1016" y="795.9951">has</text><text fill="#000000" font-family="sans-serif" font-size="13" lengthAdjust="spacing" textLength="7" x="990.4586" y="684.1084">1</text><text fill="#000000" font-family="sans-serif" font-size="13" lengthAdjust="spacing" textLength="7" x="990.5617" y="907.07">1</text></g><!--MD5=[987a286489f7a3c14439dbccb20135d7]
link Platform to LoadUsersFromCSV--><g id="link_Platform_LoadUsersFromCSV"><path codeLine="150" d="M1103.34,1106.04 C1143.05,1141.41 1189.98,1183.2 1236.21,1224.37 " fill="none" id="Platform-to-LoadUsersFromCSV" style="stroke:#181818;stroke-width:1.0;"/><polygon fill="#181818" points="1240.1,1227.84,1236.0308,1218.8711,1236.363,1224.5182,1230.7159,1224.8504,1240.1,1227.84" style="stroke:#181818;stroke-width:1.0;"/><polygon fill="#000000" points="1192.7339,1170.5011,1187.9338,1162.2908,1184.0246,1166.6803,1192.7339,1170.5011" style="stroke:#000000;stroke-width:1.0;"/><text fill="#000000" font-family="sans-serif" font-size="13" lengthAdjust="spacing" textLength="21" x="1200" y="1172.4951">has</text><text fill="#000000" font-family="sans-serif" font-size="13" lengthAdjust="spacing" textLength="7" x="1101.8309" y="1129.4436">1</text><text fill="#000000" font-family="sans-serif" font-size="13" lengthAdjust="spacing" textLength="7" x="1222.0972" y="1215.0601">1</text></g><!--MD5=[c31a0f58aa219c210db7551591a4a17b]
link LoadUsersFromCSV to RegisterSNSUser--><g id="link_LoadUsersFromCSV_RegisterSNSUser"><path codeLine="151" d="M1207.09,1600.22 C1155.39,1639.97 1101.69,1681.25 1053.01,1718.68 " fill="none" id="LoadUsersFromCSV-to-RegisterSNSUser" style="stroke:#181818;stroke-width:1.0;"/><polygon fill="#181818" points="1048.91,1721.83,1058.4869,1719.5314,1052.879,1718.789,1053.6213,1713.1811,1048.91,1721.83" style="stroke:#181818;stroke-width:1.0;"/><polygon fill="#000000" points="1130.0361,1664.2233,1138.9982,1661.0402,1135.4156,1656.3803,1130.0361,1664.2233" style="stroke:#000000;stroke-width:1.0;"/><text fill="#000000" font-family="sans-serif" font-size="13" lengthAdjust="spacing" textLength="92" x="1145" y="1666.4951">loads users into</text><text fill="#000000" font-family="sans-serif" font-size="13" lengthAdjust="spacing" textLength="7" x="1187.6946" y="1623.9936">1</text><text fill="#000000" font-family="sans-serif" font-size="13" lengthAdjust="spacing" textLength="7" x="1049.5306" y="1709.065">1</text></g><!--MD5=[7b05f0893b9fa9aee4431bd8e3458e59]
link LoadUsersFromCSV to AuthFacade--><g id="link_LoadUsersFromCSV_AuthFacade"><path codeLine="152" d="M1183.42,1459.35 C914.58,1510.33 524.99,1602.59 433,1722 C328.56,1857.57 366.57,2384.6 387.71,2604.64 " fill="none" id="LoadUsersFromCSV-to-AuthFacade" style="stroke:#181818;stroke-width:1.0;stroke-dasharray:7.0,7.0;"/><polygon fill="#181818" points="388.2,2609.78,391.3325,2600.4426,387.728,2604.8023,383.3682,2601.1978,388.2,2609.78" style="stroke:#181818;stroke-width:1.0;"/></g><!--MD5=[41100781ddb6d1941ea460236f2e4f13]
link RegisterSNSUser to AuthFacade--><g id="link_RegisterSNSUser_AuthFacade"><path codeLine="153" d="M945.24,1988 C1008.61,2131.07 1077.4,2358.97 963,2509 C860.16,2643.87 754.18,2551.46 595,2610 C588.38,2612.43 581.68,2615 574.94,2617.68 " fill="none" id="RegisterSNSUser-to-AuthFacade" style="stroke:#181818;stroke-width:1.0;stroke-dasharray:7.0,7.0;"/><polygon fill="#181818" points="570.27,2619.54,580.1119,2619.9114,574.9124,2617.683,577.1407,2612.4836,570.27,2619.54" style="stroke:#181818;stroke-width:1.0;"/></g><!--MD5=[407f5cddcdb18dfe0f3a2e42bd3fef57]
link App to AuthFacade--><g id="link_App_AuthFacade"><path codeLine="154" d="M130.99,870.23 C140.59,945.89 153,1063.53 153,1166 C153,1166 153,1166 153,2310.5 C153,2426.55 165.99,2463.2 230,2560 C240.78,2576.3 253.96,2591.75 268.15,2606.05 " fill="none" id="App-to-AuthFacade" style="stroke:#181818;stroke-width:1.0;stroke-dasharray:7.0,7.0;"/><polygon fill="#181818" points="271.78,2609.66,268.2259,2600.4748,268.2373,2606.1316,262.5805,2606.143,271.78,2609.66" style="stroke:#181818;stroke-width:1.0;"/></g><!--MD5=[45628f1328460b055b9a5c61b7bfe2b6]
link Platform to AuthFacade--><g id="link_Platform_AuthFacade"><path codeLine="155" d="M812.98,1042.8 C613.83,1085.33 327,1185.99 327,1413 C327,1413 327,1413 327,2310.5 C327,2412.06 350.42,2526.09 370.36,2604.78 " fill="none" id="Platform-to-AuthFacade" style="stroke:#181818;stroke-width:1.0;stroke-dasharray:7.0,7.0;"/><polygon fill="#181818" points="371.66,2609.91,373.3241,2600.2027,370.4305,2605.0635,365.5697,2602.1699,371.66,2609.91" style="stroke:#181818;stroke-width:1.0;"/></g><!--MD5=[607fe6ec3e5e67e5d841bc7a790c84da]
link LoadUsersFromCSV to LoadFromCSV--><g id="link_LoadUsersFromCSV_LoadFromCSV"><path codeLine="156" d="M1448,1600.22 C1448,1670.86 1448,1746.35 1448,1796.45 " fill="none" id="LoadUsersFromCSV-to-LoadFromCSV" style="stroke:#181818;stroke-width:1.0;"/><polygon fill="#181818" points="1448,1801.53,1452,1792.53,1448,1796.53,1444,1792.53,1448,1801.53" style="stroke:#181818;stroke-width:1.0;"/></g><!--MD5=[44ddd124081204635aa1bcb7eb50042f]
link Platform to RegisterSNSUser--><g id="link_Platform_RegisterSNSUser"><path codeLine="157" d="M986.49,1106.3 C964.84,1254.11 922.28,1544.77 897.07,1716.91 " fill="none" id="Platform-to-RegisterSNSUser" style="stroke:#181818;stroke-width:1.0;stroke-dasharray:7.0,7.0;"/><polygon fill="#181818" points="896.33,1721.97,901.5997,1713.6495,897.0591,1717.0234,893.6852,1712.4829,896.33,1721.97" style="stroke:#181818;stroke-width:1.0;"/></g><!--MD5=[302781c94dffe0e8b3032a5077f059b2]
link RegisterSNSUser to SNSUser--><g id="link_RegisterSNSUser_SNSUser"><path codeLine="158" d="M776.58,1988.3 C747.78,2027.14 716.69,2069.95 689,2110 C684.03,2117.19 679,2124.55 673.96,2132.01 " fill="none" id="RegisterSNSUser-to-SNSUser" style="stroke:#181818;stroke-width:1.0;"/><polygon fill="#181818" points="671.16,2136.17,679.5013,2130.9334,673.95,2132.0208,672.8626,2126.4694,671.16,2136.17" style="stroke:#181818;stroke-width:1.0;"/><polygon fill="#000000" points="742.0944,2053.2449,749.7424,2047.5917,744.959,2044.1759,742.0944,2053.2449" style="stroke:#000000;stroke-width:1.0;"/><text fill="#000000" font-family="sans-serif" font-size="13" lengthAdjust="spacing" textLength="21" x="756" y="2054.4951">has</text><text fill="#000000" font-family="sans-serif" font-size="13" lengthAdjust="spacing" textLength="7" x="762.1185" y="2011.1991">1</text><text fill="#000000" font-family="sans-serif" font-size="13" lengthAdjust="spacing" textLength="5" x="680.8637" y="2119.3605">*</text></g><!--MD5=[fa308c3efb6fd0a9eb05db7e7ad3f8d1]
link RegisterSNSUser to PasswordGenerator--><g id="link_RegisterSNSUser_PasswordGenerator"><path codeLine="159" d="M862.11,1988.1 C851.57,2081.6 838.09,2201.21 830.95,2264.55 " fill="none" id="RegisterSNSUser-to-PasswordGenerator" style="stroke:#181818;stroke-width:1.0;"/><polygon fill="#181818" points="830.37,2269.76,835.3475,2261.2615,830.9269,2264.7911,827.3972,2260.3705,830.37,2269.76" style="stroke:#181818;stroke-width:1.0;"/></g><!--MD5=[a915428dbf5e419f01d986428582421b]
link AuthFacade to UserMapper--><g id="link_AuthFacade_UserMapper"><path codeLine="160" d="M570.23,2787.47 C578.53,2790.53 586.82,2793.4 595,2796 C903.06,2893.96 1282.93,2943.96 1471.04,2964.24 " fill="none" id="AuthFacade-to-UserMapper" style="stroke:#181818;stroke-width:1.0;stroke-dasharray:7.0,7.0;"/><polygon fill="#181818" points="1476.27,2964.81,1467.7574,2959.8567,1471.2995,2964.2672,1466.889,2967.8094,1476.27,2964.81" style="stroke:#181818;stroke-width:1.0;"/></g><!--MD5=[2ff689d11ef02fee5bf515471f73835b]
link UserMapper to UserDTO--><g id="link_UserMapper_UserDTO"><path codeLine="161" d="M1653.43,3056.37 C1678.2,3086.24 1706.86,3120.79 1733.54,3152.94 " fill="none" id="UserMapper-to-UserDTO" style="stroke:#181818;stroke-width:1.0;stroke-dasharray:7.0,7.0;"/><polygon fill="#181818" points="1736.78,3156.85,1734.1155,3147.3684,1733.5889,3153.0007,1727.9567,3152.4741,1736.78,3156.85" style="stroke:#181818;stroke-width:1.0;"/></g><!--MD5=[e39f99918ce595275effad30730c1c7c]
link LoadUsersFileUI to UserDTO--><g id="link_LoadUsersFileUI_UserDTO"><path codeLine="162" d="M1883.19,60.02 C1911.78,105.01 1966,202.29 1966,293 C1966,293 1966,293 1966,2977.5 C1966,3039.53 1938.65,3101.91 1907.95,3152.39 " fill="none" id="LoadUsersFileUI-to-UserDTO" style="stroke:#181818;stroke-width:1.0;stroke-dasharray:7.0,7.0;"/><polygon fill="#181818" points="1905.16,3156.93,1913.2783,3151.3539,1907.7765,3152.6693,1906.4611,3147.1675,1905.16,3156.93" style="stroke:#181818;stroke-width:1.0;"/></g><!--MD5=[92ed163aaf10118d833f9159c2af85fb]
link LoadUsersFileController to UserDTO--><g id="link_LoadUsersFileController_UserDTO"><path codeLine="163" d="M1848.35,427.23 C1873.88,477.18 1895,535.91 1895,593.5 C1895,593.5 1895,593.5 1895,2977.5 C1895,3036.19 1880.6,3099.71 1864.77,3151.81 " fill="none" id="LoadUsersFileController-to-UserDTO" style="stroke:#181818;stroke-width:1.0;stroke-dasharray:7.0,7.0;"/><polygon fill="#181818" points="1863.24,3156.82,1869.688,3149.3753,1864.6964,3152.0368,1862.0349,3147.0451,1863.24,3156.82" style="stroke:#181818;stroke-width:1.0;"/></g><!--MD5=[570b8be7f88575421ee70c2bdf3bf287]
link LoadUsersFromCSV to UserDTO--><g id="link_LoadUsersFromCSV_UserDTO"><path codeLine="164" d="M1648.25,1600.11 C1705.64,1672.38 1753,1760.38 1753,1854 C1753,1854 1753,1854 1753,2977.5 C1753,3036.19 1767.4,3099.71 1783.23,3151.81 " fill="none" id="LoadUsersFromCSV-to-UserDTO" style="stroke:#181818;stroke-width:1.0;stroke-dasharray:7.0,7.0;"/><polygon fill="#181818" points="1784.76,3156.82,1785.9651,3147.0451,1783.3036,3152.0368,1778.312,3149.3753,1784.76,3156.82" style="stroke:#181818;stroke-width:1.0;"/></g><!--MD5=[1906c5515e6865e3d7e5094643451213]
link LoadUsersFromCSV to UserMapper--><g id="link_LoadUsersFromCSV_UserMapper"><path codeLine="165" d="M1597.36,1600.25 C1643.29,1674.67 1682,1764.07 1682,1854 C1682,1854 1682,1854 1682,2704 C1682,2769.73 1657.09,2839.73 1632.92,2892.18 " fill="none" id="LoadUsersFromCSV-to-UserMapper" style="stroke:#181818;stroke-width:1.0;stroke-dasharray:7.0,7.0;"/><polygon fill="#181818" points="1630.74,2896.88,1638.1718,2890.4172,1632.8552,2892.3494,1630.9229,2887.0328,1630.74,2896.88" style="stroke:#181818;stroke-width:1.0;"/></g><!--MD5=[d1ef42535374627e02204ac120a2d17e]
link LoadUsersFromCSV to Constants--><g id="link_LoadUsersFromCSV_Constants"><path codeLine="166" d="M1538.13,1600.09 C1553.42,1639.45 1566.94,1681.41 1575,1722 C1611.59,1906.19 1561.96,2127.26 1530.81,2237.99 " fill="none" id="LoadUsersFromCSV-to-Constants" style="stroke:#181818;stroke-width:1.0;stroke-dasharray:7.0,7.0;"/><polygon fill="#181818" points="1529.44,2242.86,1535.7319,2235.2829,1530.7966,2238.0476,1528.032,2233.1123,1529.44,2242.86" style="stroke:#181818;stroke-width:1.0;"/></g><!--MD5=[d3e5f1c134fb426b74f37b076b634ba4]
link PasswordGenerator to AuthFacade--><g id="link_PasswordGenerator_AuthFacade"><path codeLine="167" d="M805.06,2349.15 C780.75,2391.66 737.61,2460.38 688,2509 C651.25,2545.01 606.9,2578.4 564.05,2606.94 " fill="none" id="PasswordGenerator-to-AuthFacade" style="stroke:#181818;stroke-width:1.0;stroke-dasharray:7.0,7.0;"/><polygon fill="#181818" points="559.64,2609.86,569.3499,2608.2113,563.8046,2607.0931,564.9228,2601.5478,559.64,2609.86" style="stroke:#181818;stroke-width:1.0;"/></g><!--MD5=[3c764b93e377827e244e838d28152f79]
link RegisterSNSUser to Constants--><g id="link_RegisterSNSUser_Constants"><path codeLine="168" d="M1061.5,1988.1 C1176.74,2070.61 1320.38,2173.45 1413.35,2240.02 " fill="none" id="RegisterSNSUser-to-Constants" style="stroke:#181818;stroke-width:1.0;stroke-dasharray:7.0,7.0;"/><polygon fill="#181818" points="1417.46,2242.96,1412.4839,2234.4607,1413.3991,2240.043,1407.8167,2240.9581,1417.46,2242.96" style="stroke:#181818;stroke-width:1.0;"/></g><!--MD5=[f220c453a4dab3fc3816cb6dff8ba669]
link PasswordGenerator to SentEmail--><g id="link_PasswordGenerator_SentEmail"><path codeLine="169" d="M826,2349.11 C826,2422.3 826,2580.79 826,2657.98 " fill="none" id="PasswordGenerator-to-SentEmail" style="stroke:#181818;stroke-width:1.0;"/><polygon fill="#181818" points="826,2663.39,830,2654.39,826,2658.39,822,2654.39,826,2663.39" style="stroke:#181818;stroke-width:1.0;"/></g><!--MD5=[f553cdb4aca62c593665af7e5d242490]
@startuml


skinparam classAttributeIconSize 0


skinparam padding 2
skinparam ranksep 100
skinparam classFontSize 18



class LoadUsersFileUI{}

class LoadUsersFileController{
    -App m_oApp
   -Platform m_oPlatform
   + checkLogin()
   +getListOfFiles(path)
   +loadUsersFromCSV(fileName)
   +registerListStringUsersInSystem()
   +showData()
   +printSystemUsers()
}

class App
{
    +getCompany()
    +getCurrentUserSession()
    +{static} static getInstance()
    -bootstrap()
}

class Company {
-designation
+getPlatform()
+getAuthFacade()
}


class Platform
{
-description
-RegisterSNSUser m_oRegisterSNSUser
-LoadUsersFromCSV LoadUsersFromCSV
+getLoadUsersFromCSV()
+initializeRegisters(AuthFacade authFacade)

}


class LoadUsersFromCSV{
-List<String[]> usersListString
-AuthFacade authFacade;
-RegisterSNSUser m_oRegisterSNSUser
+LoadUsersFromCSV(authFacade,m_oRegisterSNSUser)
+getListOfFiles(path)
+loadUsersFromCSV(fileName)
-convertCSV(inputStream)
-convertFromBufferedReaderToStringSNSUser(reader,delimiter)
+registerListStringUsersInSystem()
-convertFromUserStringToSNSUser(userString)
+showData()
+printSystemUsers()

}

class RegisterSNSUser{
-List<SNSUser> listSNSUser
-AuthFacade authFacade
+RegisterSNSUser( authFacade)
+newSNSUser(name, address, gender, phoneNumber, email, date, snsUserNumber, citizenCardNumber)
-validateSNSUser(email, phoneNumber, snsUserNumber, citizenCardNumber)
-existsSNSUser(user)
+addSNSUser(SNSUser user)
+passwordGenerator()

}


class AuthFacade
{
+getUserRoles()
+addUserWithRole(name,email,pwd,role)
+existsUser(email)
+getCurrentUserSession()
+getUsers()

}

interface LoadFromCSV{
+{static}getListOfFiles(path)
+{static}loadFromCSV(fileName)
}

class SNSUser {
-name
-address
-gender
-email
-birthDate
-snsUserNumber
-citizenCardNumber
+equals()
+getEmail()
+getName()
+getPhoneNumber()
+getSnsUserNumber()
+getCitizenCardNumber()
}

interface PasswordGenerator{
+{static}passwordGenerator(email)
}


class UserMapper{
-UserRoleMapper mapper
+toDto(user)
+toDto(List<User> users)
+toDto(Set<User> users)
}

class UserDTO{
-id
-name
-List<UserRoleDTO> roles
+getID()
+getName()
+getRoles()
}

class Constants
{
+ROLE_SNS_USER
+DELIMITER_COMMA
+DELIMITER_SEMICOLON
}

Interface SentEmail{
+{static}SentEmail(userEmail,emailMessage,emailSubject)
}

LoadUsersFileUI ..> LoadUsersFileController
LoadUsersFileController ..> Company
LoadUsersFileController ..> Platform
LoadUsersFileController ..> App
LoadUsersFileController ..> Constants
Company ..> AuthFacade
Company "1" - -> "1" Platform : has >
Platform "1"- -> "1" LoadUsersFromCSV : has >
LoadUsersFromCSV "1" - -> "1" RegisterSNSUser : loads users into >
LoadUsersFromCSV..> AuthFacade
RegisterSNSUser ..> AuthFacade
App ..> AuthFacade
Platform ..> AuthFacade
LoadUsersFromCSV - -> LoadFromCSV
Platform ..> RegisterSNSUser
RegisterSNSUser "1"- -> "*" SNSUser : has >
RegisterSNSUser - -> PasswordGenerator
AuthFacade ..> UserMapper
UserMapper..> UserDTO
LoadUsersFileUI ..> UserDTO
LoadUsersFileController ..> UserDTO
LoadUsersFromCSV ..> UserDTO
LoadUsersFromCSV ..> UserMapper
LoadUsersFromCSV ..> Constants
PasswordGenerator ..> AuthFacade
RegisterSNSUser ..> Constants
PasswordGenerator - -> SentEmail

@enduml

PlantUML version 1.2022.4(Sat Apr 09 14:29:17 BST 2022)
(GPL source distribution)
Java Runtime: OpenJDK Runtime Environment
JVM: OpenJDK 64-Bit Server VM
Default Encoding: Cp1252
Language: en
Country: US
--></g></svg>