<?xml version="1.0" encoding="UTF-8" standalone="no"?><svg xmlns="http://www.w3.org/2000/svg" xmlns:xlink="http://www.w3.org/1999/xlink" contentStyleType="text/css" height="338px" preserveAspectRatio="none" style="width:709px;height:338px;background:#FFFFFF;" version="1.1" viewBox="0 0 709 338" width="709px" zoomAndPan="magnify"><defs/><g><rect fill="#FFFFFF" height="245.1406" style="stroke:#181818;stroke-width:1.0;" width="10" x="19.5" y="47.6094"/><rect fill="#FFFFFF" height="86.9609" style="stroke:#181818;stroke-width:1.0;" width="10" x="24.5" y="205.7891"/><rect fill="#FFFFFF" height="75.2188" style="stroke:#181818;stroke-width:1.0;" width="10" x="208.5" y="79.9609"/><rect fill="#FFFFFF" height="51.6094" style="stroke:#181818;stroke-width:1.0;" width="10" x="393.5" y="241.1406"/><line style="stroke:#181818;stroke-width:0.5;stroke-dasharray:5.0,5.0;" x1="24" x2="24" y1="37.6094" y2="301.75"/><line style="stroke:#181818;stroke-width:0.5;stroke-dasharray:5.0,5.0;" x1="213.5" x2="213.5" y1="78.9141" y2="301.75"/><line style="stroke:#181818;stroke-width:0.5;stroke-dasharray:5.0,5.0;" x1="398.5" x2="398.5" y1="164.1328" y2="301.75"/><line style="stroke:#181818;stroke-width:0.5;stroke-dasharray:5.0,5.0;" x1="504.5" x2="504.5" y1="121.5234" y2="301.75"/><line style="stroke:#181818;stroke-width:0.5;stroke-dasharray:5.0,5.0;" x1="639.5" x2="639.5" y1="280.4453" y2="301.75"/><rect fill="#E2E2F0" height="31.6094" rx="2.5" ry="2.5" style="stroke:#181818;stroke-width:0.5;" width="39" x="5" y="5"/><text fill="#000000" font-family="sans-serif" font-size="14" lengthAdjust="spacing" textLength="25" x="12" y="26.5332">App</text><rect fill="#E2E2F0" height="31.6094" rx="2.5" ry="2.5" style="stroke:#181818;stroke-width:0.5;" width="39" x="5" y="300.75"/><text fill="#000000" font-family="sans-serif" font-size="14" lengthAdjust="spacing" textLength="25" x="12" y="322.2832">App</text><rect fill="#E2E2F0" height="31.6094" rx="2.5" ry="2.5" style="stroke:#181818;stroke-width:0.5;" width="78" x="174.5" y="300.75"/><text fill="#000000" font-family="sans-serif" font-size="14" lengthAdjust="spacing" textLength="64" x="181.5" y="322.2832">:Company</text><rect fill="#E2E2F0" height="31.6094" rx="2.5" ry="2.5" style="stroke:#181818;stroke-width:0.5;" width="70" x="363.5" y="300.75"/><text fill="#000000" font-family="sans-serif" font-size="14" lengthAdjust="spacing" textLength="56" x="370.5" y="322.2832">:Platform</text><rect fill="#E2E2F0" height="31.6094" rx="2.5" ry="2.5" style="stroke:#181818;stroke-width:0.5;" width="123" x="443.5" y="300.75"/><text fill="#000000" font-family="sans-serif" font-size="14" lengthAdjust="spacing" textLength="109" x="450.5" y="322.2832">auth:AuthFacade</text><rect fill="#E2E2F0" height="31.6094" rx="2.5" ry="2.5" style="stroke:#181818;stroke-width:0.5;" width="127" x="576.5" y="300.75"/><text fill="#000000" font-family="sans-serif" font-size="14" lengthAdjust="spacing" textLength="113" x="583.5" y="322.2832">:RegisterSNSUser</text><rect fill="#FFFFFF" height="245.1406" style="stroke:#181818;stroke-width:1.0;" width="10" x="19.5" y="47.6094"/><rect fill="#FFFFFF" height="86.9609" style="stroke:#181818;stroke-width:1.0;" width="10" x="24.5" y="205.7891"/><rect fill="#FFFFFF" height="75.2188" style="stroke:#181818;stroke-width:1.0;" width="10" x="208.5" y="79.9609"/><rect fill="#FFFFFF" height="51.6094" style="stroke:#181818;stroke-width:1.0;" width="10" x="393.5" y="241.1406"/><polygon fill="#181818" points="162.5,65.9609,172.5,69.9609,162.5,73.9609,166.5,69.9609" style="stroke:#181818;stroke-width:1.0;"/><line style="stroke:#181818;stroke-width:1.0;stroke-dasharray:2.0,2.0;" x1="29.5" x2="168.5" y1="69.9609" y2="69.9609"/><text fill="#000000" font-family="sans-serif" font-size="13" font-weight="bold" lengthAdjust="spacing" textLength="7" x="36.5" y="65.1045">1</text><text fill="#000000" font-family="sans-serif" font-size="13" lengthAdjust="spacing" textLength="110" x="47.5" y="65.1045">create(designation)</text><rect fill="#E2E2F0" height="31.6094" rx="2.5" ry="2.5" style="stroke:#181818;stroke-width:0.5;" width="78" x="174.5" y="47.6094"/><text fill="#000000" font-family="sans-serif" font-size="14" lengthAdjust="spacing" textLength="64" x="181.5" y="69.1426">:Company</text><polygon fill="#181818" points="431.5,108.5703,441.5,112.5703,431.5,116.5703,435.5,112.5703" style="stroke:#181818;stroke-width:1.0;"/><line style="stroke:#181818;stroke-width:1.0;stroke-dasharray:2.0,2.0;" x1="218.5" x2="437.5" y1="112.5703" y2="112.5703"/><text fill="#000000" font-family="sans-serif" font-size="13" font-weight="bold" lengthAdjust="spacing" textLength="7" x="225.5" y="107.7139">2</text><text fill="#000000" font-family="sans-serif" font-size="13" lengthAdjust="spacing" textLength="44" x="236.5" y="107.7139">create()</text><rect fill="#E2E2F0" height="31.6094" rx="2.5" ry="2.5" style="stroke:#181818;stroke-width:0.5;" width="123" x="443.5" y="90.2188"/><text fill="#000000" font-family="sans-serif" font-size="14" lengthAdjust="spacing" textLength="109" x="450.5" y="111.752">auth:AuthFacade</text><polygon fill="#181818" points="351.5,151.1797,361.5,155.1797,351.5,159.1797,355.5,155.1797" style="stroke:#181818;stroke-width:1.0;"/><line style="stroke:#181818;stroke-width:1.0;stroke-dasharray:2.0,2.0;" x1="213.5" x2="357.5" y1="155.1797" y2="155.1797"/><text fill="#000000" font-family="sans-serif" font-size="13" font-weight="bold" lengthAdjust="spacing" textLength="7" x="220.5" y="150.3232">3</text><text fill="#000000" font-family="sans-serif" font-size="13" lengthAdjust="spacing" textLength="110" x="231.5" y="150.3232">create(designation)</text><rect fill="#E2E2F0" height="31.6094" rx="2.5" ry="2.5" style="stroke:#181818;stroke-width:0.5;" width="70" x="363.5" y="132.8281"/><text fill="#000000" font-family="sans-serif" font-size="14" lengthAdjust="spacing" textLength="56" x="370.5" y="154.3613">:Platform</text><line style="stroke:#181818;stroke-width:1.0;" x1="29.5" x2="76.5" y1="192.7891" y2="192.7891"/><line style="stroke:#181818;stroke-width:1.0;" x1="76.5" x2="76.5" y1="192.7891" y2="205.7891"/><line style="stroke:#181818;stroke-width:1.0;" x1="35.5" x2="76.5" y1="205.7891" y2="205.7891"/><polygon fill="#181818" points="45.5,201.7891,35.5,205.7891,45.5,209.7891,41.5,205.7891" style="stroke:#181818;stroke-width:1.0;"/><text fill="#000000" font-family="sans-serif" font-size="13" font-weight="bold" lengthAdjust="spacing" textLength="7" x="41.5" y="187.9326">4</text><text fill="#000000" font-family="sans-serif" font-size="13" lengthAdjust="spacing" textLength="62" x="52.5" y="187.9326">bootstrap()</text><polygon fill="#181818" points="381.5,237.1406,391.5,241.1406,381.5,245.1406,385.5,241.1406" style="stroke:#181818;stroke-width:1.0;"/><line style="stroke:#181818;stroke-width:1.0;" x1="34.5" x2="387.5" y1="241.1406" y2="241.1406"/><text fill="#000000" font-family="sans-serif" font-size="13" font-weight="bold" lengthAdjust="spacing" textLength="7" x="41.5" y="236.2842">5</text><text fill="#000000" font-family="sans-serif" font-size="13" lengthAdjust="spacing" textLength="135" x="52.5" y="236.2842">initializeRegisters(auth)</text><polygon fill="#181818" points="564.5,267.4922,574.5,271.4922,564.5,275.4922,568.5,271.4922" style="stroke:#181818;stroke-width:1.0;"/><line style="stroke:#181818;stroke-width:1.0;stroke-dasharray:2.0,2.0;" x1="403.5" x2="570.5" y1="271.4922" y2="271.4922"/><text fill="#000000" font-family="sans-serif" font-size="13" font-weight="bold" lengthAdjust="spacing" textLength="7" x="410.5" y="266.6357">6</text><text fill="#000000" font-family="sans-serif" font-size="13" lengthAdjust="spacing" textLength="69" x="421.5" y="266.6357">create(auth)</text><rect fill="#E2E2F0" height="31.6094" rx="2.5" ry="2.5" style="stroke:#181818;stroke-width:0.5;" width="127" x="576.5" y="249.1406"/><text fill="#000000" font-family="sans-serif" font-size="14" lengthAdjust="spacing" textLength="113" x="583.5" y="270.6738">:RegisterSNSUser</text><!--MD5=[8f547211aa2c3de5aca35f740b5c1038]
@startuml
'https://plantuml.com/sequence-diagram

autonumber

participant "App" as APP
participant ":Company" as COMP
participant ":Platform" as PLAT
participant "auth:AuthFacade" as AF
participant ":RegisterSNSUser" as RE

activate APP
APP - -> COMP** : create(designation)
activate COMP
COMP - -> AF ** : create()
COMP - -> PLAT **: create(designation)
deactivate COMP
APP -> APP ++: bootstrap()
APP -> PLAT: initializeRegisters(auth)

activate PLAT
PLAT - -> RE **: create(auth)
@enduml

@startuml

autonumber

participant "App" as APP
participant ":Company" as COMP
participant ":Platform" as PLAT
participant "auth:AuthFacade" as AF
participant ":RegisterSNSUser" as RE

activate APP
APP - -> COMP** : create(designation)
activate COMP
COMP - -> AF ** : create()
COMP - -> PLAT **: create(designation)
deactivate COMP
APP -> APP ++: bootstrap()
APP -> PLAT: initializeRegisters(auth)

activate PLAT
PLAT - -> RE **: create(auth)
@enduml

PlantUML version 1.2022.4(Sat Apr 09 14:29:17 BST 2022)
(GPL source distribution)
Java Runtime: OpenJDK Runtime Environment
JVM: OpenJDK 64-Bit Server VM
Default Encoding: Cp1252
Language: pt
Country: PT
--></g></svg>