<?xml version="1.0" encoding="UTF-8" standalone="no"?><svg xmlns="http://www.w3.org/2000/svg" xmlns:xlink="http://www.w3.org/1999/xlink" contentStyleType="text/css" height="982px" preserveAspectRatio="none" style="width:2520px;height:982px;background:#FFFFFF;" version="1.1" viewBox="0 0 2520 982" width="2520px" zoomAndPan="magnify"><defs/><g><rect fill="#FFFFFF" height="790.2344" style="stroke:#181818;stroke-width:1.0;" width="10" x="42" y="92.6094"/><rect fill="#FFFFFF" height="405.0703" style="stroke:#181818;stroke-width:1.0;" width="10" x="396" y="114.9609"/><rect fill="#FFFFFF" height="341.4609" style="stroke:#181818;stroke-width:1.0;" width="10" x="396" y="550.3828"/><rect fill="#FFFFFF" height="183.3125" style="stroke:#181818;stroke-width:1.0;" width="10" x="826.5" y="155.3125"/><rect fill="#FFFFFF" height="120.7031" style="stroke:#181818;stroke-width:1.0;" width="10" x="826.5" y="368.9766"/><rect fill="#FFFFFF" height="311.1094" style="stroke:#181818;stroke-width:1.0;" width="10" x="826.5" y="580.7344"/><rect fill="#FFFFFF" height="30" style="stroke:#181818;stroke-width:1.0;" width="10" x="978.5" y="187.9219"/><rect fill="#FFFFFF" height="30" style="stroke:#181818;stroke-width:1.0;" width="10" x="1078.5" y="399.3281"/><rect fill="#FFFFFF" height="30" style="stroke:#181818;stroke-width:1.0;" width="10" x="1078.5" y="611.0859"/><rect fill="#FFFFFF" height="30" style="stroke:#181818;stroke-width:1.0;" width="10" x="1161" y="248.2734"/><rect fill="#FFFFFF" height="90.7031" style="stroke:#181818;stroke-width:1.0;" width="10" x="1161" y="671.4375"/><rect fill="#FFFFFF" height="30" style="stroke:#181818;stroke-width:1.0;" width="10" x="1243.5" y="308.625"/><rect fill="#FFFFFF" height="30" style="stroke:#181818;stroke-width:1.0;" width="10" x="1386" y="459.6797"/><rect fill="#FFFFFF" height="30" style="stroke:#181818;stroke-width:1.0;" width="10" x="1556" y="792.4922"/><rect fill="#FFFFFF" height="60.3516" style="stroke:#181818;stroke-width:1.0;" width="10" x="1681" y="701.7891"/><rect fill="#FFFFFF" height="30" style="stroke:#181818;stroke-width:1.0;" width="10" x="1787" y="732.1406"/><rect fill="#FFFFFF" height="30" style="stroke:#181818;stroke-width:1.0;" width="10" x="1867" y="852.8438"/><line style="stroke:#181818;stroke-width:0.5;stroke-dasharray:5.0,5.0;" x1="47" x2="47" y1="82.6094" y2="900.8438"/><line style="stroke:#181818;stroke-width:0.5;stroke-dasharray:5.0,5.0;" x1="400.5" x2="400.5" y1="82.6094" y2="900.8438"/><line style="stroke:#181818;stroke-width:0.5;stroke-dasharray:5.0,5.0;" x1="831" x2="831" y1="154.2656" y2="900.8438"/><line style="stroke:#181818;stroke-width:0.5;stroke-dasharray:5.0,5.0;" x1="983" x2="983" y1="82.6094" y2="900.8438"/><line style="stroke:#181818;stroke-width:0.5;stroke-dasharray:5.0,5.0;" x1="1083.5" x2="1083.5" y1="82.6094" y2="900.8438"/><line style="stroke:#181818;stroke-width:0.5;stroke-dasharray:5.0,5.0;" x1="1165.5" x2="1165.5" y1="82.6094" y2="900.8438"/><line style="stroke:#181818;stroke-width:0.5;stroke-dasharray:5.0,5.0;" x1="1248.5" x2="1248.5" y1="82.6094" y2="900.8438"/><line style="stroke:#181818;stroke-width:0.5;stroke-dasharray:5.0,5.0;" x1="1390.5" x2="1390.5" y1="82.6094" y2="900.8438"/><line style="stroke:#181818;stroke-width:0.5;stroke-dasharray:5.0,5.0;" x1="1560.5" x2="1560.5" y1="82.6094" y2="900.8438"/><line style="stroke:#181818;stroke-width:0.5;stroke-dasharray:5.0,5.0;" x1="1685.5" x2="1685.5" y1="82.6094" y2="900.8438"/><line style="stroke:#181818;stroke-width:0.5;stroke-dasharray:5.0,5.0;" x1="1792" x2="1792" y1="82.6094" y2="900.8438"/><line style="stroke:#181818;stroke-width:0.5;stroke-dasharray:5.0,5.0;" x1="1872" x2="1872" y1="82.6094" y2="900.8438"/><line style="stroke:#181818;stroke-width:0.5;stroke-dasharray:5.0,5.0;" x1="2012" x2="2012" y1="82.6094" y2="900.8438"/><line style="stroke:#181818;stroke-width:0.5;stroke-dasharray:5.0,5.0;" x1="2177" x2="2177" y1="82.6094" y2="900.8438"/><line style="stroke:#181818;stroke-width:0.5;stroke-dasharray:5.0,5.0;" x1="2318" x2="2318" y1="82.6094" y2="900.8438"/><line style="stroke:#181818;stroke-width:0.5;stroke-dasharray:5.0,5.0;" x1="2453" x2="2453" y1="82.6094" y2="900.8438"/><text fill="#000000" font-family="sans-serif" font-size="14" lengthAdjust="spacing" textLength="78" x="5" y="79.5332">Receptionist</text><ellipse cx="47" cy="13.5" fill="#E2E2F0" rx="8" ry="8" style="stroke:#181818;stroke-width:0.5;"/><path d="M47,21.5 L47,48.5 M34,29.5 L60,29.5 M47,48.5 L34,63.5 M47,48.5 L60,63.5 " fill="none" style="stroke:#181818;stroke-width:0.5;"/><text fill="#000000" font-family="sans-serif" font-size="14" lengthAdjust="spacing" textLength="78" x="5" y="914.377">Receptionist</text><ellipse cx="47" cy="925.9531" fill="#E2E2F0" rx="8" ry="8" style="stroke:#181818;stroke-width:0.5;"/><path d="M47,933.9531 L47,960.9531 M34,941.9531 L60,941.9531 M47,960.9531 L34,975.9531 M47,960.9531 L60,975.9531 " fill="none" style="stroke:#181818;stroke-width:0.5;"/><rect fill="#E2E2F0" height="31.6094" rx="2.5" ry="2.5" style="stroke:#181818;stroke-width:0.5;" width="181" x="310.5" y="50"/><text fill="#000000" font-family="sans-serif" font-size="14" lengthAdjust="spacing" textLength="167" x="317.5" y="71.5332">SelectVaccinationCenterUI</text><rect fill="#E2E2F0" height="31.6094" rx="2.5" ry="2.5" style="stroke:#181818;stroke-width:0.5;" width="181" x="310.5" y="899.8438"/><text fill="#000000" font-family="sans-serif" font-size="14" lengthAdjust="spacing" textLength="167" x="317.5" y="921.377">SelectVaccinationCenterUI</text><rect fill="#E2E2F0" height="31.6094" rx="2.5" ry="2.5" style="stroke:#181818;stroke-width:0.5;" width="231" x="716" y="899.8438"/><text fill="#000000" font-family="sans-serif" font-size="14" lengthAdjust="spacing" textLength="217" x="723" y="921.377">SelectVaccinationCenterController</text><rect fill="#E2E2F0" height="31.6094" rx="2.5" ry="2.5" style="stroke:#181818;stroke-width:0.5;" width="43" x="962" y="50"/><text fill="#000000" font-family="sans-serif" font-size="14" lengthAdjust="spacing" textLength="29" x="969" y="71.5332">:App</text><rect fill="#E2E2F0" height="31.6094" rx="2.5" ry="2.5" style="stroke:#181818;stroke-width:0.5;" width="43" x="962" y="899.8438"/><text fill="#000000" font-family="sans-serif" font-size="14" lengthAdjust="spacing" textLength="29" x="969" y="921.377">:App</text><rect fill="#E2E2F0" height="49.2188" rx="2.5" ry="2.5" style="stroke:#181818;stroke-width:0.5;" width="78" x="1044.5" y="32.3906"/><text fill="#000000" font-family="sans-serif" font-size="14" lengthAdjust="spacing" textLength="23" x="1072" y="53.9238">plat</text><text fill="#000000" font-family="sans-serif" font-size="14" lengthAdjust="spacing" textLength="60" x="1055.5" y="71.5332">: Platform</text><rect fill="#E2E2F0" height="49.2188" rx="2.5" ry="2.5" style="stroke:#181818;stroke-width:0.5;" width="78" x="1044.5" y="899.8438"/><text fill="#000000" font-family="sans-serif" font-size="14" lengthAdjust="spacing" textLength="23" x="1072" y="921.377">plat</text><text fill="#000000" font-family="sans-serif" font-size="14" lengthAdjust="spacing" textLength="60" x="1055.5" y="938.9863">: Platform</text><rect fill="#E2E2F0" height="31.6094" rx="2.5" ry="2.5" style="stroke:#181818;stroke-width:0.5;" width="67" x="1132.5" y="50"/><text fill="#000000" font-family="sans-serif" font-size="14" lengthAdjust="spacing" textLength="53" x="1139.5" y="71.5332">app:App</text><rect fill="#E2E2F0" height="31.6094" rx="2.5" ry="2.5" style="stroke:#181818;stroke-width:0.5;" width="67" x="1132.5" y="899.8438"/><text fill="#000000" font-family="sans-serif" font-size="14" lengthAdjust="spacing" textLength="53" x="1139.5" y="921.377">app:App</text><rect fill="#E2E2F0" height="49.2188" rx="2.5" ry="2.5" style="stroke:#181818;stroke-width:0.5;" width="78" x="1209.5" y="32.3906"/><text fill="#000000" font-family="sans-serif" font-size="14" lengthAdjust="spacing" textLength="34" x="1231.5" y="53.9238">comp</text><text fill="#000000" font-family="sans-serif" font-size="14" lengthAdjust="spacing" textLength="64" x="1216.5" y="71.5332">:Company</text><rect fill="#E2E2F0" height="49.2188" rx="2.5" ry="2.5" style="stroke:#181818;stroke-width:0.5;" width="78" x="1209.5" y="899.8438"/><text fill="#000000" font-family="sans-serif" font-size="14" lengthAdjust="spacing" textLength="34" x="1231.5" y="921.377">comp</text><text fill="#000000" font-family="sans-serif" font-size="14" lengthAdjust="spacing" textLength="64" x="1216.5" y="938.9863">:Company</text><rect fill="#E2E2F0" height="49.2188" rx="2.5" ry="2.5" style="stroke:#181818;stroke-width:0.5;" width="187" x="1297.5" y="32.3906"/><text fill="#000000" font-family="sans-serif" font-size="14" lengthAdjust="spacing" textLength="19" x="1381.5" y="53.9238">rvc</text><text fill="#000000" font-family="sans-serif" font-size="14" lengthAdjust="spacing" textLength="173" x="1304.5" y="71.5332">:RegisterVaccinationCenter</text><rect fill="#E2E2F0" height="49.2188" rx="2.5" ry="2.5" style="stroke:#181818;stroke-width:0.5;" width="187" x="1297.5" y="899.8438"/><text fill="#000000" font-family="sans-serif" font-size="14" lengthAdjust="spacing" textLength="19" x="1381.5" y="921.377">rvc</text><text fill="#000000" font-family="sans-serif" font-size="14" lengthAdjust="spacing" textLength="173" x="1304.5" y="938.9863">:RegisterVaccinationCenter</text><rect fill="#E2E2F0" height="49.2188" rx="2.5" ry="2.5" style="stroke:#181818;stroke-width:0.5;" width="133" x="1494.5" y="32.3906"/><text fill="#000000" font-family="sans-serif" font-size="14" lengthAdjust="spacing" textLength="21" x="1550.5" y="53.9238">reg</text><text fill="#000000" font-family="sans-serif" font-size="14" lengthAdjust="spacing" textLength="119" x="1501.5" y="71.5332">:RegisterEmployee</text><rect fill="#E2E2F0" height="49.2188" rx="2.5" ry="2.5" style="stroke:#181818;stroke-width:0.5;" width="133" x="1494.5" y="899.8438"/><text fill="#000000" font-family="sans-serif" font-size="14" lengthAdjust="spacing" textLength="21" x="1550.5" y="921.377">reg</text><text fill="#000000" font-family="sans-serif" font-size="14" lengthAdjust="spacing" textLength="119" x="1501.5" y="938.9863">:RegisterEmployee</text><rect fill="#E2E2F0" height="49.2188" rx="2.5" ry="2.5" style="stroke:#181818;stroke-width:0.5;" width="97" x="1637.5" y="32.3906"/><text fill="#000000" font-family="sans-serif" font-size="14" lengthAdjust="spacing" textLength="48" x="1660" y="53.9238">session</text><text fill="#000000" font-family="sans-serif" font-size="14" lengthAdjust="spacing" textLength="83" x="1644.5" y="71.5332">:UserSession</text><rect fill="#E2E2F0" height="49.2188" rx="2.5" ry="2.5" style="stroke:#181818;stroke-width:0.5;" width="97" x="1637.5" y="899.8438"/><text fill="#000000" font-family="sans-serif" font-size="14" lengthAdjust="spacing" textLength="48" x="1660" y="921.377">session</text><text fill="#000000" font-family="sans-serif" font-size="14" lengthAdjust="spacing" textLength="83" x="1644.5" y="938.9863">:UserSession</text><rect fill="#E2E2F0" height="49.2188" rx="2.5" ry="2.5" style="stroke:#181818;stroke-width:0.5;" width="56" x="1764" y="32.3906"/><text fill="#000000" font-family="sans-serif" font-size="14" lengthAdjust="spacing" textLength="33" x="1775.5" y="53.9238">email</text><text fill="#000000" font-family="sans-serif" font-size="14" lengthAdjust="spacing" textLength="38" x="1775" y="71.5332">:Email</text><rect fill="#E2E2F0" height="49.2188" rx="2.5" ry="2.5" style="stroke:#181818;stroke-width:0.5;" width="56" x="1764" y="899.8438"/><text fill="#000000" font-family="sans-serif" font-size="14" lengthAdjust="spacing" textLength="33" x="1775.5" y="921.377">email</text><text fill="#000000" font-family="sans-serif" font-size="14" lengthAdjust="spacing" textLength="38" x="1775" y="938.9863">:Email</text><rect fill="#E2E2F0" height="49.2188" rx="2.5" ry="2.5" style="stroke:#181818;stroke-width:0.5;" width="84" x="1830" y="32.3906"/><text fill="#000000" font-family="sans-serif" font-size="14" lengthAdjust="spacing" textLength="27" x="1858.5" y="53.9238">emp</text><text fill="#000000" font-family="sans-serif" font-size="14" lengthAdjust="spacing" textLength="66" x="1841" y="71.5332">:Employee</text><rect fill="#E2E2F0" height="49.2188" rx="2.5" ry="2.5" style="stroke:#181818;stroke-width:0.5;" width="84" x="1830" y="899.8438"/><text fill="#000000" font-family="sans-serif" font-size="14" lengthAdjust="spacing" textLength="27" x="1858.5" y="921.377">emp</text><text fill="#000000" font-family="sans-serif" font-size="14" lengthAdjust="spacing" textLength="66" x="1841" y="938.9863">:Employee</text><rect fill="#E2E2F0" height="49.2188" rx="2.5" ry="2.5" style="stroke:#181818;stroke-width:0.5;" width="176" x="1924" y="32.3906"/><text fill="#000000" font-family="sans-serif" font-size="14" lengthAdjust="spacing" textLength="17" x="2003.5" y="53.9238">list</text><text fill="#000000" font-family="sans-serif" font-size="14" lengthAdjust="spacing" textLength="162" x="1931" y="71.5332">: List&lt;VaccinationCenter&gt;</text><rect fill="#E2E2F0" height="49.2188" rx="2.5" ry="2.5" style="stroke:#181818;stroke-width:0.5;" width="176" x="1924" y="899.8438"/><text fill="#000000" font-family="sans-serif" font-size="14" lengthAdjust="spacing" textLength="17" x="2003.5" y="921.377">list</text><text fill="#000000" font-family="sans-serif" font-size="14" lengthAdjust="spacing" textLength="162" x="1931" y="938.9863">: List&lt;VaccinationCenter&gt;</text><rect fill="#E2E2F0" height="49.2188" rx="2.5" ry="2.5" style="stroke:#181818;stroke-width:0.5;" width="134" x="2110" y="32.3906"/><text fill="#000000" font-family="sans-serif" font-size="14" lengthAdjust="spacing" textLength="22" x="2166" y="53.9238">vac</text><text fill="#000000" font-family="sans-serif" font-size="14" lengthAdjust="spacing" textLength="120" x="2117" y="71.5332">:VaccinationCenter</text><rect fill="#E2E2F0" height="49.2188" rx="2.5" ry="2.5" style="stroke:#181818;stroke-width:0.5;" width="134" x="2110" y="899.8438"/><text fill="#000000" font-family="sans-serif" font-size="14" lengthAdjust="spacing" textLength="22" x="2166" y="921.377">vac</text><text fill="#000000" font-family="sans-serif" font-size="14" lengthAdjust="spacing" textLength="120" x="2117" y="938.9863">:VaccinationCenter</text><rect fill="#E2E2F0" height="49.2188" rx="2.5" ry="2.5" style="stroke:#181818;stroke-width:0.5;" width="128" x="2254" y="32.3906"/><text fill="#000000" font-family="sans-serif" font-size="14" lengthAdjust="spacing" textLength="114" x="2261" y="53.9238">vaccinationCenter</text><text fill="#000000" font-family="sans-serif" font-size="14" lengthAdjust="spacing" textLength="45" x="2295.5" y="71.5332">:Object</text><rect fill="#E2E2F0" height="49.2188" rx="2.5" ry="2.5" style="stroke:#181818;stroke-width:0.5;" width="128" x="2254" y="899.8438"/><text fill="#000000" font-family="sans-serif" font-size="14" lengthAdjust="spacing" textLength="114" x="2261" y="921.377">vaccinationCenter</text><text fill="#000000" font-family="sans-serif" font-size="14" lengthAdjust="spacing" textLength="45" x="2295.5" y="938.9863">:Object</text><rect fill="#E2E2F0" height="49.2188" rx="2.5" ry="2.5" style="stroke:#181818;stroke-width:0.5;" width="122" x="2392" y="32.3906"/><text fill="#000000" font-family="sans-serif" font-size="14" lengthAdjust="spacing" textLength="11" x="2447.5" y="53.9238">le</text><text fill="#000000" font-family="sans-serif" font-size="14" lengthAdjust="spacing" textLength="104" x="2403" y="71.5332">:List&lt;Employee&gt;</text><rect fill="#E2E2F0" height="49.2188" rx="2.5" ry="2.5" style="stroke:#181818;stroke-width:0.5;" width="122" x="2392" y="899.8438"/><text fill="#000000" font-family="sans-serif" font-size="14" lengthAdjust="spacing" textLength="11" x="2447.5" y="921.377">le</text><text fill="#000000" font-family="sans-serif" font-size="14" lengthAdjust="spacing" textLength="104" x="2403" y="938.9863">:List&lt;Employee&gt;</text><rect fill="#FFFFFF" height="790.2344" style="stroke:#181818;stroke-width:1.0;" width="10" x="42" y="92.6094"/><rect fill="#FFFFFF" height="405.0703" style="stroke:#181818;stroke-width:1.0;" width="10" x="396" y="114.9609"/><rect fill="#FFFFFF" height="341.4609" style="stroke:#181818;stroke-width:1.0;" width="10" x="396" y="550.3828"/><rect fill="#FFFFFF" height="183.3125" style="stroke:#181818;stroke-width:1.0;" width="10" x="826.5" y="155.3125"/><rect fill="#FFFFFF" height="120.7031" style="stroke:#181818;stroke-width:1.0;" width="10" x="826.5" y="368.9766"/><rect fill="#FFFFFF" height="311.1094" style="stroke:#181818;stroke-width:1.0;" width="10" x="826.5" y="580.7344"/><rect fill="#FFFFFF" height="30" style="stroke:#181818;stroke-width:1.0;" width="10" x="978.5" y="187.9219"/><rect fill="#FFFFFF" height="30" style="stroke:#181818;stroke-width:1.0;" width="10" x="1078.5" y="399.3281"/><rect fill="#FFFFFF" height="30" style="stroke:#181818;stroke-width:1.0;" width="10" x="1078.5" y="611.0859"/><rect fill="#FFFFFF" height="30" style="stroke:#181818;stroke-width:1.0;" width="10" x="1161" y="248.2734"/><rect fill="#FFFFFF" height="90.7031" style="stroke:#181818;stroke-width:1.0;" width="10" x="1161" y="671.4375"/><rect fill="#FFFFFF" height="30" style="stroke:#181818;stroke-width:1.0;" width="10" x="1243.5" y="308.625"/><rect fill="#FFFFFF" height="30" style="stroke:#181818;stroke-width:1.0;" width="10" x="1386" y="459.6797"/><rect fill="#FFFFFF" height="30" style="stroke:#181818;stroke-width:1.0;" width="10" x="1556" y="792.4922"/><rect fill="#FFFFFF" height="60.3516" style="stroke:#181818;stroke-width:1.0;" width="10" x="1681" y="701.7891"/><rect fill="#FFFFFF" height="30" style="stroke:#181818;stroke-width:1.0;" width="10" x="1787" y="732.1406"/><rect fill="#FFFFFF" height="30" style="stroke:#181818;stroke-width:1.0;" width="10" x="1867" y="852.8438"/><polygon fill="#181818" points="384,110.9609,394,114.9609,384,118.9609,388,114.9609" style="stroke:#181818;stroke-width:1.0;"/><line style="stroke:#181818;stroke-width:1.0;" x1="52" x2="390" y1="114.9609" y2="114.9609"/><text fill="#000000" font-family="sans-serif" font-size="13" font-weight="bold" lengthAdjust="spacing" textLength="7" x="59" y="110.1045">1</text><text fill="#000000" font-family="sans-serif" font-size="13" lengthAdjust="spacing" textLength="293" x="70" y="110.1045">Selecting the vaccination center where s(he) works</text><polygon fill="#181818" points="704,141.3125,714,145.3125,704,149.3125,708,145.3125" style="stroke:#181818;stroke-width:1.0;"/><line style="stroke:#181818;stroke-width:1.0;stroke-dasharray:2.0,2.0;" x1="406" x2="710" y1="145.3125" y2="145.3125"/><text fill="#000000" font-family="sans-serif" font-size="13" font-weight="bold" lengthAdjust="spacing" textLength="7" x="413" y="140.4561">2</text><text fill="#000000" font-family="sans-serif" font-size="13" lengthAdjust="spacing" textLength="275" x="424" y="140.4561">controller = SelectVaccinationCenterController()</text><rect fill="#E2E2F0" height="31.6094" rx="2.5" ry="2.5" style="stroke:#181818;stroke-width:0.5;" width="231" x="716" y="122.9609"/><text fill="#000000" font-family="sans-serif" font-size="14" lengthAdjust="spacing" textLength="217" x="723" y="144.4941">SelectVaccinationCenterController</text><polygon fill="#181818" points="966.5,183.9219,976.5,187.9219,966.5,191.9219,970.5,187.9219" style="stroke:#181818;stroke-width:1.0;"/><line style="stroke:#181818;stroke-width:1.0;" x1="836.5" x2="972.5" y1="187.9219" y2="187.9219"/><text fill="#000000" font-family="sans-serif" font-size="13" font-weight="bold" lengthAdjust="spacing" textLength="7" x="843.5" y="183.0654">3</text><text fill="#000000" font-family="sans-serif" font-size="13" lengthAdjust="spacing" textLength="112" x="854.5" y="183.0654">app = getInstance()</text><polygon fill="#181818" points="1149,244.2734,1159,248.2734,1149,252.2734,1153,248.2734" style="stroke:#181818;stroke-width:1.0;"/><line style="stroke:#181818;stroke-width:1.0;" x1="836.5" x2="1155" y1="248.2734" y2="248.2734"/><text fill="#000000" font-family="sans-serif" font-size="13" font-weight="bold" lengthAdjust="spacing" textLength="7" x="843.5" y="243.417">4</text><text fill="#000000" font-family="sans-serif" font-size="13" lengthAdjust="spacing" textLength="129" x="854.5" y="243.417">comp = getCompany()</text><polygon fill="#181818" points="1231.5,304.625,1241.5,308.625,1231.5,312.625,1235.5,308.625" style="stroke:#181818;stroke-width:1.0;"/><line style="stroke:#181818;stroke-width:1.0;" x1="836.5" x2="1237.5" y1="308.625" y2="308.625"/><text fill="#000000" font-family="sans-serif" font-size="13" font-weight="bold" lengthAdjust="spacing" textLength="7" x="843.5" y="303.7686">5</text><text fill="#000000" font-family="sans-serif" font-size="13" lengthAdjust="spacing" textLength="111" x="854.5" y="303.7686">plat = getPlatform()</text><polygon fill="#181818" points="814.5,364.9766,824.5,368.9766,814.5,372.9766,818.5,368.9766" style="stroke:#181818;stroke-width:1.0;"/><line style="stroke:#181818;stroke-width:1.0;" x1="406" x2="820.5" y1="368.9766" y2="368.9766"/><text fill="#000000" font-family="sans-serif" font-size="13" font-weight="bold" lengthAdjust="spacing" textLength="7" x="413" y="364.1201">6</text><text fill="#000000" font-family="sans-serif" font-size="13" lengthAdjust="spacing" textLength="186" x="424" y="364.1201">list = getListVaccinationCenter()</text><polygon fill="#181818" points="1066.5,395.3281,1076.5,399.3281,1066.5,403.3281,1070.5,399.3281" style="stroke:#181818;stroke-width:1.0;"/><line style="stroke:#181818;stroke-width:1.0;" x1="836.5" x2="1072.5" y1="399.3281" y2="399.3281"/><text fill="#000000" font-family="sans-serif" font-size="13" font-weight="bold" lengthAdjust="spacing" textLength="7" x="843.5" y="394.4717">7</text><text fill="#000000" font-family="sans-serif" font-size="13" lengthAdjust="spacing" textLength="212" x="854.5" y="394.4717">rvc = getRegisterVaccinationCenter()</text><polygon fill="#181818" points="1374,455.6797,1384,459.6797,1374,463.6797,1378,459.6797" style="stroke:#181818;stroke-width:1.0;"/><line style="stroke:#181818;stroke-width:1.0;" x1="836.5" x2="1380" y1="459.6797" y2="459.6797"/><text fill="#000000" font-family="sans-serif" font-size="13" font-weight="bold" lengthAdjust="spacing" textLength="7" x="843.5" y="454.8232">8</text><text fill="#000000" font-family="sans-serif" font-size="13" lengthAdjust="spacing" textLength="160" x="854.5" y="454.8232">getListVaccinationCenters()</text><polygon fill="#181818" points="63,516.0313,53,520.0313,63,524.0313,59,520.0313" style="stroke:#181818;stroke-width:1.0;"/><line style="stroke:#181818;stroke-width:1.0;stroke-dasharray:2.0,2.0;" x1="57" x2="400" y1="520.0313" y2="520.0313"/><text fill="#000000" font-family="sans-serif" font-size="13" font-weight="bold" lengthAdjust="spacing" textLength="7" x="69" y="515.1748">9</text><text fill="#000000" font-family="sans-serif" font-size="13" lengthAdjust="spacing" textLength="309" x="80" y="515.1748">show list of vaccination centers and ask to select one</text><polygon fill="#181818" points="384,546.3828,394,550.3828,384,554.3828,388,550.3828" style="stroke:#181818;stroke-width:1.0;"/><line style="stroke:#181818;stroke-width:1.0;" x1="52" x2="390" y1="550.3828" y2="550.3828"/><text fill="#000000" font-family="sans-serif" font-size="13" font-weight="bold" lengthAdjust="spacing" textLength="14" x="59" y="545.5264">10</text><text fill="#000000" font-family="sans-serif" font-size="13" lengthAdjust="spacing" textLength="225" x="77" y="545.5264">selects the intended vaccination center</text><polygon fill="#181818" points="814.5,576.7344,824.5,580.7344,814.5,584.7344,818.5,580.7344" style="stroke:#181818;stroke-width:1.0;"/><line style="stroke:#181818;stroke-width:1.0;" x1="406" x2="820.5" y1="580.7344" y2="580.7344"/><text fill="#000000" font-family="sans-serif" font-size="13" font-weight="bold" lengthAdjust="spacing" textLength="14" x="413" y="575.8779">11</text><text fill="#000000" font-family="sans-serif" font-size="13" lengthAdjust="spacing" textLength="199" x="431" y="575.8779">setWorkingVaccinationCenter(vac)</text><polygon fill="#181818" points="1066.5,607.0859,1076.5,611.0859,1066.5,615.0859,1070.5,611.0859" style="stroke:#181818;stroke-width:1.0;"/><line style="stroke:#181818;stroke-width:1.0;" x1="836.5" x2="1072.5" y1="611.0859" y2="611.0859"/><text fill="#000000" font-family="sans-serif" font-size="13" font-weight="bold" lengthAdjust="spacing" textLength="14" x="843.5" y="606.2295">12</text><text fill="#000000" font-family="sans-serif" font-size="13" lengthAdjust="spacing" textLength="166" x="861.5" y="606.2295">reg = getRegisterEmployee()</text><polygon fill="#181818" points="1149,667.4375,1159,671.4375,1149,675.4375,1153,671.4375" style="stroke:#181818;stroke-width:1.0;"/><line style="stroke:#181818;stroke-width:1.0;" x1="836.5" x2="1155" y1="671.4375" y2="671.4375"/><text fill="#000000" font-family="sans-serif" font-size="13" font-weight="bold" lengthAdjust="spacing" textLength="14" x="843.5" y="666.5811">13</text><text fill="#000000" font-family="sans-serif" font-size="13" lengthAdjust="spacing" textLength="189" x="861.5" y="666.5811">email = getCurrentUserSession()</text><polygon fill="#181818" points="1669,697.7891,1679,701.7891,1669,705.7891,1673,701.7891" style="stroke:#181818;stroke-width:1.0;"/><line style="stroke:#181818;stroke-width:1.0;" x1="1171" x2="1675" y1="701.7891" y2="701.7891"/><text fill="#000000" font-family="sans-serif" font-size="13" font-weight="bold" lengthAdjust="spacing" textLength="14" x="1178" y="696.9326">14</text><text fill="#000000" font-family="sans-serif" font-size="13" lengthAdjust="spacing" textLength="63" x="1196" y="696.9326">getUserId()</text><polygon fill="#181818" points="1775,728.1406,1785,732.1406,1775,736.1406,1779,732.1406" style="stroke:#181818;stroke-width:1.0;"/><line style="stroke:#181818;stroke-width:1.0;" x1="1691" x2="1781" y1="732.1406" y2="732.1406"/><text fill="#000000" font-family="sans-serif" font-size="13" font-weight="bold" lengthAdjust="spacing" textLength="14" x="1698" y="727.2842">15</text><text fill="#000000" font-family="sans-serif" font-size="13" lengthAdjust="spacing" textLength="59" x="1716" y="727.2842">getEmail()</text><polygon fill="#181818" points="1544,788.4922,1554,792.4922,1544,796.4922,1548,792.4922" style="stroke:#181818;stroke-width:1.0;"/><line style="stroke:#181818;stroke-width:1.0;" x1="836.5" x2="1550" y1="792.4922" y2="792.4922"/><text fill="#000000" font-family="sans-serif" font-size="13" font-weight="bold" lengthAdjust="spacing" textLength="14" x="843.5" y="787.6357">16</text><text fill="#000000" font-family="sans-serif" font-size="13" lengthAdjust="spacing" textLength="205" x="861.5" y="787.6357">emp = getEmployeeByEmail(email)</text><polygon fill="#181818" points="1855,848.8438,1865,852.8438,1855,856.8438,1859,852.8438" style="stroke:#181818;stroke-width:1.0;"/><line style="stroke:#181818;stroke-width:1.0;" x1="836.5" x2="1861" y1="852.8438" y2="852.8438"/><text fill="#000000" font-family="sans-serif" font-size="13" font-weight="bold" lengthAdjust="spacing" textLength="14" x="843.5" y="847.9873">17</text><text fill="#000000" font-family="sans-serif" font-size="13" lengthAdjust="spacing" textLength="199" x="861.5" y="847.9873">setWorkingVaccinationCenter(vac)</text><!--MD5=[7c8a9fbb2ae93c5e47b7b35fad9a1660]
@startuml
'https://plantuml.com/sequence-diagram

autonumber

actor "Receptionist" as NRS
participant "SelectVaccinationCenterUI" as UI
participant "SelectVaccinationCenterController" as CTRL
participant ":App" as APP
participant "plat\n : Platform" as PLAT
participant "app:App" as App
participant "comp\n:Company" as Comp
participant "rvc\n:RegisterVaccinationCenter" as RVC
participant "reg\n:RegisterEmployee" as RE
participant "emp\n :Employee" as EMP
participant "session \n:UserSession" as SESSION
participant "email\n :Email" as EMAIL
participant "emp\n :Employee" as EMP
participant "list\n: List<VaccinationCenter>" as LVC
participant "vac\n:VaccinationCenter" as VC
participant "vaccinationCenter\n:Object"
participant "le\n :List<Employee>"

activate NRS

NRS -> UI : Selecting the vaccination center where s(he) works
activate UI

UI - -> CTRL** : controller = SelectVaccinationCenterController()

activate CTRL
CTRL -> APP : app = getInstance()
activate APP
deactivate APP
'4
CTRL -> App : comp = getCompany()
activate App
deactivate App
'5
CTRL -> Comp : plat = getPlatform()
activate Comp
deactivate Comp
deactivate CTRL



UI -> CTRL : list = getListVaccinationCenter()
activate CTRL
CTRL -> PLAT : rvc = getRegisterVaccinationCenter()
activate PLAT
deactivate PLAT
CTRL -> RVC :  getListVaccinationCenters()
activate RVC
deactivate CTRL
deactivate RVC

UI - -> NRS : show list of vaccination centers and ask to select one
deactivate UI
NRS -> UI : selects the intended vaccination center
activate UI

'9
UI -> CTRL :setWorkingVaccinationCenter(vac)
activate CTRL
'10
CTRL -> PLAT : reg = getRegisterEmployee()
activate PLAT
deactivate PLAT
'11
CTRL -> App : email = getCurrentUserSession()
activate App
'12
App -> SESSION : getUserId()
activate SESSION
'13
SESSION -> EMAIL : getEmail()
activate EMAIL
deactivate EMAIL
deactivate SESSION
deactivate App

CTRL -> RE : emp = getEmployeeByEmail(email)
activate RE
deactivate RE

CTRL -> EMP : setWorkingVaccinationCenter(vac)
activate EMP
deactivate EMP


deactivate NRS


@enduml

@startuml

autonumber

actor "Receptionist" as NRS
participant "SelectVaccinationCenterUI" as UI
participant "SelectVaccinationCenterController" as CTRL
participant ":App" as APP
participant "plat\n : Platform" as PLAT
participant "app:App" as App
participant "comp\n:Company" as Comp
participant "rvc\n:RegisterVaccinationCenter" as RVC
participant "reg\n:RegisterEmployee" as RE
participant "emp\n :Employee" as EMP
participant "session \n:UserSession" as SESSION
participant "email\n :Email" as EMAIL
participant "emp\n :Employee" as EMP
participant "list\n: List<VaccinationCenter>" as LVC
participant "vac\n:VaccinationCenter" as VC
participant "vaccinationCenter\n:Object"
participant "le\n :List<Employee>"

activate NRS

NRS -> UI : Selecting the vaccination center where s(he) works
activate UI

UI - -> CTRL** : controller = SelectVaccinationCenterController()

activate CTRL
CTRL -> APP : app = getInstance()
activate APP
deactivate APP
CTRL -> App : comp = getCompany()
activate App
deactivate App
CTRL -> Comp : plat = getPlatform()
activate Comp
deactivate Comp
deactivate CTRL



UI -> CTRL : list = getListVaccinationCenter()
activate CTRL
CTRL -> PLAT : rvc = getRegisterVaccinationCenter()
activate PLAT
deactivate PLAT
CTRL -> RVC :  getListVaccinationCenters()
activate RVC
deactivate CTRL
deactivate RVC

UI - -> NRS : show list of vaccination centers and ask to select one
deactivate UI
NRS -> UI : selects the intended vaccination center
activate UI

UI -> CTRL :setWorkingVaccinationCenter(vac)
activate CTRL
CTRL -> PLAT : reg = getRegisterEmployee()
activate PLAT
deactivate PLAT
CTRL -> App : email = getCurrentUserSession()
activate App
App -> SESSION : getUserId()
activate SESSION
SESSION -> EMAIL : getEmail()
activate EMAIL
deactivate EMAIL
deactivate SESSION
deactivate App

CTRL -> RE : emp = getEmployeeByEmail(email)
activate RE
deactivate RE

CTRL -> EMP : setWorkingVaccinationCenter(vac)
activate EMP
deactivate EMP


deactivate NRS


@enduml

PlantUML version 1.2022.4(Sat Apr 09 14:29:17 BST 2022)
(GPL source distribution)
Java Runtime: OpenJDK Runtime Environment
JVM: OpenJDK 64-Bit Server VM
Default Encoding: Cp1252
Language: pt
Country: PT
--></g></svg>