<?xml version="1.0" encoding="UTF-8" standalone="no"?><svg xmlns="http://www.w3.org/2000/svg" xmlns:xlink="http://www.w3.org/1999/xlink" contentStyleType="text/css" height="447px" preserveAspectRatio="none" style="width:396px;height:447px;background:#FFFFFF;" version="1.1" viewBox="0 0 396 447" width="396px" zoomAndPan="magnify"><defs/><g><rect fill="#FFFFFF" height="256.1641" style="stroke:#181818;stroke-width:1.0;" width="10" x="44" y="96.6094"/><rect fill="#FFFFFF" height="256.1641" style="stroke:#181818;stroke-width:1.0;" width="10" x="353" y="96.6094"/><line style="stroke:#181818;stroke-width:0.5;stroke-dasharray:5.0,5.0;" x1="49" x2="49" y1="86.6094" y2="361.7734"/><line style="stroke:#181818;stroke-width:0.5;stroke-dasharray:5.0,5.0;" x1="358" x2="358" y1="86.6094" y2="361.7734"/><text fill="#000000" font-family="sans-serif" font-size="14" lengthAdjust="spacing" textLength="78" x="7" y="81.5332">Receptionist</text><ellipse cx="49" cy="13.5" fill="#E2E2F0" rx="8" ry="8" style="stroke:#181818;stroke-width:0.5;"/><path d="M49,21.5 L49,48.5 M36,29.5 L62,29.5 M49,48.5 L36,63.5 M49,48.5 L62,63.5 " fill="none" style="stroke:#181818;stroke-width:0.5;"/><text fill="#000000" font-family="sans-serif" font-size="14" lengthAdjust="spacing" textLength="78" x="7" y="377.3066">Receptionist</text><ellipse cx="49" cy="390.8828" fill="#E2E2F0" rx="8" ry="8" style="stroke:#181818;stroke-width:0.5;"/><path d="M49,398.8828 L49,425.8828 M36,406.8828 L62,406.8828 M49,425.8828 L36,440.8828 M49,425.8828 L62,440.8828 " fill="none" style="stroke:#181818;stroke-width:0.5;"/><rect fill="#E2E2F0" height="35.6094" rx="2.5" ry="2.5" style="stroke:#181818;stroke-width:0.5;" width="64" x="326" y="50"/><text fill="#000000" font-family="sans-serif" font-size="14" lengthAdjust="spacing" textLength="46" x="335" y="73.5332">System</text><rect fill="#E2E2F0" height="35.6094" rx="2.5" ry="2.5" style="stroke:#181818;stroke-width:0.5;" width="64" x="326" y="360.7734"/><text fill="#000000" font-family="sans-serif" font-size="14" lengthAdjust="spacing" textLength="46" x="335" y="384.3066">System</text><rect fill="#FFFFFF" height="256.1641" style="stroke:#181818;stroke-width:1.0;" width="10" x="44" y="96.6094"/><rect fill="#FFFFFF" height="256.1641" style="stroke:#181818;stroke-width:1.0;" width="10" x="353" y="96.6094"/><polygon fill="#181818" points="341,118.9609,351,122.9609,341,126.9609,345,122.9609" style="stroke:#181818;stroke-width:1.0;"/><line style="stroke:#181818;stroke-width:1.0;" x1="54" x2="347" y1="122.9609" y2="122.9609"/><text fill="#000000" font-family="sans-serif" font-size="13" font-weight="bold" lengthAdjust="spacing" textLength="7" x="63" y="116.1045">1</text><text fill="#000000" font-family="sans-serif" font-size="13" lengthAdjust="spacing" textLength="239" x="78" y="116.1045">starts registering the arrival of a SNSUser</text><polygon fill="#181818" points="65,153.3125,55,157.3125,65,161.3125,61,157.3125" style="stroke:#181818;stroke-width:1.0;"/><line style="stroke:#181818;stroke-width:1.0;stroke-dasharray:2.0,2.0;" x1="59" x2="352" y1="157.3125" y2="157.3125"/><text fill="#000000" font-family="sans-serif" font-size="13" font-weight="bold" lengthAdjust="spacing" textLength="7" x="73" y="150.4561">2</text><text fill="#000000" font-family="sans-serif" font-size="13" lengthAdjust="spacing" textLength="184" x="88" y="150.4561">requests data (snsUserNumber)</text><polygon fill="#181818" points="341,187.6641,351,191.6641,341,195.6641,345,191.6641" style="stroke:#181818;stroke-width:1.0;"/><line style="stroke:#181818;stroke-width:1.0;" x1="54" x2="347" y1="191.6641" y2="191.6641"/><text fill="#000000" font-family="sans-serif" font-size="13" font-weight="bold" lengthAdjust="spacing" textLength="7" x="63" y="184.8076">3</text><text fill="#000000" font-family="sans-serif" font-size="13" lengthAdjust="spacing" textLength="64" x="78" y="184.8076">inputs data</text><polygon fill="#181818" points="65,271.0703,55,275.0703,65,279.0703,61,275.0703" style="stroke:#181818;stroke-width:1.0;"/><line style="stroke:#181818;stroke-width:1.0;stroke-dasharray:2.0,2.0;" x1="59" x2="352" y1="275.0703" y2="275.0703"/><text fill="#000000" font-family="sans-serif" font-size="13" font-weight="bold" lengthAdjust="spacing" textLength="7" x="73" y="243.6865">4</text><text fill="#000000" font-family="sans-serif" font-size="13" lengthAdjust="spacing" textLength="228" x="88" y="219.1592">tells the receptionist that a schedule for</text><text fill="#000000" font-family="sans-serif" font-size="13" lengthAdjust="spacing" textLength="217" x="88" y="235.5107">this sns user exits and was validated,</text><text fill="#000000" font-family="sans-serif" font-size="13" lengthAdjust="spacing" textLength="207" x="92" y="251.8623">asks if he wants to send the user to</text><text fill="#000000" font-family="sans-serif" font-size="13" lengthAdjust="spacing" textLength="95" x="92" y="268.2139">the waiting room</text><polygon fill="#181818" points="341,305.4219,351,309.4219,341,313.4219,345,309.4219" style="stroke:#181818;stroke-width:1.0;"/><line style="stroke:#181818;stroke-width:1.0;" x1="54" x2="347" y1="309.4219" y2="309.4219"/><text fill="#000000" font-family="sans-serif" font-size="13" font-weight="bold" lengthAdjust="spacing" textLength="7" x="63" y="302.5654">5</text><text fill="#000000" font-family="sans-serif" font-size="13" lengthAdjust="spacing" textLength="256" x="78" y="302.5654">confirms and sends user to the waiting room</text><polygon fill="#181818" points="65,339.7734,55,343.7734,65,347.7734,61,343.7734" style="stroke:#181818;stroke-width:1.0;"/><line style="stroke:#181818;stroke-width:1.0;stroke-dasharray:2.0,2.0;" x1="59" x2="352" y1="343.7734" y2="343.7734"/><text fill="#000000" font-family="sans-serif" font-size="13" font-weight="bold" lengthAdjust="spacing" textLength="7" x="73" y="336.917">6</text><text fill="#000000" font-family="sans-serif" font-size="13" lengthAdjust="spacing" textLength="152" x="88" y="336.917">informs operation success</text><!--MD5=[efdcc7ac1d71b28330779161d24ddbab]
@startuml
skinparam classAttributeIconSize 0
skinparam padding 2
skinparam ranksep 100
skinparam classFontSize 18
autonumber

actor Receptionist

activate System
activate Receptionist
Receptionist -> System: starts registering the arrival of a SNSUser
System - -> Receptionist: requests data (snsUserNumber)
Receptionist -> System : inputs data
Receptionist <- - System: tells the receptionist that a schedule for \nthis sns user exits and was validated,\n asks if he wants to send the user to \n the waiting room
Receptionist -> System : confirms and sends user to the waiting room
Receptionist <- - System: informs operation success
@enduml

PlantUML version 1.2022.4(Sat Apr 09 14:29:17 BST 2022)
(GPL source distribution)
Java Runtime: OpenJDK Runtime Environment
JVM: OpenJDK 64-Bit Server VM
Default Encoding: Cp1252
Language: pt
Country: PT
--></g></svg>