<?xml version="1.0" encoding="UTF-8" standalone="no"?><svg xmlns="http://www.w3.org/2000/svg" xmlns:xlink="http://www.w3.org/1999/xlink" contentScriptType="application/ecmascript" contentStyleType="text/css" height="567px" preserveAspectRatio="none" style="width:794px;height:567px;background:#FFFFFF;" version="1.1" viewBox="0 0 794 567" width="794px" zoomAndPan="magnify"><defs><filter height="300%" id="fxie8v725tpri" width="300%" x="-1" y="-1"><feGaussianBlur result="blurOut" stdDeviation="2.0"/><feColorMatrix in="blurOut" result="blurOut2" type="matrix" values="0 0 0 0 0 0 0 0 0 0 0 0 0 0 0 0 0 0 .4 0"/><feOffset dx="4.0" dy="4.0" in="blurOut2" result="blurOut3"/><feBlend in="SourceGraphic" in2="blurOut3" mode="normal"/></filter></defs><g><!--MD5=[da547346deef918ea16944ba046651ef]
class Administrator--><rect codeLine="10" fill="#FEFECE" filter="url(#fxie8v725tpri)" height="44.6406" id="Administrator" style="stroke:#A80036;stroke-width:1.5;" width="140" x="357" y="7"/><ellipse cx="372" cy="25.3203" fill="#ADD1B2" rx="11" ry="11" style="stroke:#A80036;stroke-width:1.0;"/><path d="M374,21.8203 Q374.2031,21.3203 374.4375,21.0703 Q374.6719,20.8203 374.9375,20.8203 Q375.4063,20.8203 375.7031,21.1016 Q376,21.3828 376,22.0391 L376,23.6016 Q376,24.2578 375.7188,24.5391 Q375.4375,24.8203 375,24.8203 Q374.6094,24.8203 374.3594,24.6484 Q374.1094,24.4766 374,24.0234 Q373.9531,23.7109 373.7813,23.5391 Q373.4688,23.2109 372.9063,23.0234 Q372.3438,22.8203 371.7813,22.8203 Q371.0781,22.8203 370.4844,23.1016 Q369.9063,23.3828 369.4531,24.0078 Q369,24.6328 369,25.4922 L369,26.4141 Q369,27.4453 369.8438,28.1328 Q370.6875,28.8203 372.1875,28.8203 Q373.0781,28.8203 373.7031,28.6172 Q374.0625,28.5078 374.4688,28.1484 Q374.7344,27.9453 374.875,27.8828 Q375.0156,27.8203 375.1875,27.8203 Q375.5156,27.8203 375.75,28.0859 Q376,28.3359 376,28.6953 Q376,29.0391 375.6563,29.4453 Q375.1563,30.0391 374.3594,30.3672 Q373.3125,30.8203 372.0313,30.8203 Q370.5313,30.8203 369.3281,30.2266 Q368.3594,29.7578 367.6719,28.7422 Q367,27.7266 367,26.5234 L367,25.4297 Q367,24.1797 367.5938,23.0859 Q368.2031,21.9922 369.25,21.4141 Q370.3125,20.8203 371.5,20.8203 Q372.2188,20.8203 372.8438,21.0703 Q373.4688,21.3203 374,21.8203 Z " fill="#000000"/><text fill="#000000" font-family="sans-serif" font-size="18" lengthAdjust="spacing" textLength="104" x="388" y="32.6855">Administrator</text><line style="stroke:#A80036;stroke-width:1.5;" x1="358" x2="496" y1="43.6406" y2="43.6406"/><!--MD5=[2d935fd2dd068a13da1ae531f9857c4f]
class CenterCoordinator--><rect codeLine="13" fill="#FEFECE" filter="url(#fxie8v725tpri)" height="44.6406" id="CenterCoordinator" style="stroke:#A80036;stroke-width:1.5;" width="184" x="335" y="429"/><ellipse cx="350" cy="447.3203" fill="#ADD1B2" rx="11" ry="11" style="stroke:#A80036;stroke-width:1.0;"/><path d="M352,443.8203 Q352.2031,443.3203 352.4375,443.0703 Q352.6719,442.8203 352.9375,442.8203 Q353.4063,442.8203 353.7031,443.1016 Q354,443.3828 354,444.0391 L354,445.6016 Q354,446.2578 353.7188,446.5391 Q353.4375,446.8203 353,446.8203 Q352.6094,446.8203 352.3594,446.6484 Q352.1094,446.4766 352,446.0234 Q351.9531,445.7109 351.7813,445.5391 Q351.4688,445.2109 350.9063,445.0234 Q350.3438,444.8203 349.7813,444.8203 Q349.0781,444.8203 348.4844,445.1016 Q347.9063,445.3828 347.4531,446.0078 Q347,446.6328 347,447.4922 L347,448.4141 Q347,449.4453 347.8438,450.1328 Q348.6875,450.8203 350.1875,450.8203 Q351.0781,450.8203 351.7031,450.6172 Q352.0625,450.5078 352.4688,450.1484 Q352.7344,449.9453 352.875,449.8828 Q353.0156,449.8203 353.1875,449.8203 Q353.5156,449.8203 353.75,450.0859 Q354,450.3359 354,450.6953 Q354,451.0391 353.6563,451.4453 Q353.1563,452.0391 352.3594,452.3672 Q351.3125,452.8203 350.0313,452.8203 Q348.5313,452.8203 347.3281,452.2266 Q346.3594,451.7578 345.6719,450.7422 Q345,449.7266 345,448.5234 L345,447.4297 Q345,446.1797 345.5938,445.0859 Q346.2031,443.9922 347.25,443.4141 Q348.3125,442.8203 349.5,442.8203 Q350.2188,442.8203 350.8438,443.0703 Q351.4688,443.3203 352,443.8203 Z " fill="#000000"/><text fill="#000000" font-family="sans-serif" font-size="18" lengthAdjust="spacing" textLength="148" x="366" y="454.6855">CenterCoordinator</text><line style="stroke:#A80036;stroke-width:1.5;" x1="336" x2="518" y1="465.6406" y2="465.6406"/><!--MD5=[03960189e81aa2c066c762ffabbee709]
class Receptionist--><rect codeLine="15" fill="#FEFECE" filter="url(#fxie8v725tpri)" height="44.6406" id="Receptionist" style="stroke:#A80036;stroke-width:1.5;" width="135" x="359.5" y="509"/><ellipse cx="374.5" cy="527.3203" fill="#ADD1B2" rx="11" ry="11" style="stroke:#A80036;stroke-width:1.0;"/><path d="M376.5,523.8203 Q376.7031,523.3203 376.9375,523.0703 Q377.1719,522.8203 377.4375,522.8203 Q377.9063,522.8203 378.2031,523.1016 Q378.5,523.3828 378.5,524.0391 L378.5,525.6016 Q378.5,526.2578 378.2188,526.5391 Q377.9375,526.8203 377.5,526.8203 Q377.1094,526.8203 376.8594,526.6484 Q376.6094,526.4766 376.5,526.0234 Q376.4531,525.7109 376.2813,525.5391 Q375.9688,525.2109 375.4063,525.0234 Q374.8438,524.8203 374.2813,524.8203 Q373.5781,524.8203 372.9844,525.1016 Q372.4063,525.3828 371.9531,526.0078 Q371.5,526.6328 371.5,527.4922 L371.5,528.4141 Q371.5,529.4453 372.3438,530.1328 Q373.1875,530.8203 374.6875,530.8203 Q375.5781,530.8203 376.2031,530.6172 Q376.5625,530.5078 376.9688,530.1484 Q377.2344,529.9453 377.375,529.8828 Q377.5156,529.8203 377.6875,529.8203 Q378.0156,529.8203 378.25,530.0859 Q378.5,530.3359 378.5,530.6953 Q378.5,531.0391 378.1563,531.4453 Q377.6563,532.0391 376.8594,532.3672 Q375.8125,532.8203 374.5313,532.8203 Q373.0313,532.8203 371.8281,532.2266 Q370.8594,531.7578 370.1719,530.7422 Q369.5,529.7266 369.5,528.5234 L369.5,527.4297 Q369.5,526.1797 370.0938,525.0859 Q370.7031,523.9922 371.75,523.4141 Q372.8125,522.8203 374,522.8203 Q374.7188,522.8203 375.3438,523.0703 Q375.9688,523.3203 376.5,523.8203 Z " fill="#000000"/><text fill="#000000" font-family="sans-serif" font-size="18" lengthAdjust="spacing" textLength="99" x="390.5" y="534.6855">Receptionist</text><line style="stroke:#A80036;stroke-width:1.5;" x1="360.5" x2="493.5" y1="545.6406" y2="545.6406"/><!--MD5=[a059576e163b46f56762f12600c49258]
class Nurse--><rect codeLine="17" fill="#FEFECE" filter="url(#fxie8v725tpri)" height="44.6406" id="Nurse" style="stroke:#A80036;stroke-width:1.5;" width="84" x="385" y="349"/><ellipse cx="400" cy="367.3203" fill="#ADD1B2" rx="11" ry="11" style="stroke:#A80036;stroke-width:1.0;"/><path d="M402,363.8203 Q402.2031,363.3203 402.4375,363.0703 Q402.6719,362.8203 402.9375,362.8203 Q403.4063,362.8203 403.7031,363.1016 Q404,363.3828 404,364.0391 L404,365.6016 Q404,366.2578 403.7188,366.5391 Q403.4375,366.8203 403,366.8203 Q402.6094,366.8203 402.3594,366.6484 Q402.1094,366.4766 402,366.0234 Q401.9531,365.7109 401.7813,365.5391 Q401.4688,365.2109 400.9063,365.0234 Q400.3438,364.8203 399.7813,364.8203 Q399.0781,364.8203 398.4844,365.1016 Q397.9063,365.3828 397.4531,366.0078 Q397,366.6328 397,367.4922 L397,368.4141 Q397,369.4453 397.8438,370.1328 Q398.6875,370.8203 400.1875,370.8203 Q401.0781,370.8203 401.7031,370.6172 Q402.0625,370.5078 402.4688,370.1484 Q402.7344,369.9453 402.875,369.8828 Q403.0156,369.8203 403.1875,369.8203 Q403.5156,369.8203 403.75,370.0859 Q404,370.3359 404,370.6953 Q404,371.0391 403.6563,371.4453 Q403.1563,372.0391 402.3594,372.3672 Q401.3125,372.8203 400.0313,372.8203 Q398.5313,372.8203 397.3281,372.2266 Q396.3594,371.7578 395.6719,370.7422 Q395,369.7266 395,368.5234 L395,367.4297 Q395,366.1797 395.5938,365.0859 Q396.2031,363.9922 397.25,363.4141 Q398.3125,362.8203 399.5,362.8203 Q400.2188,362.8203 400.8438,363.0703 Q401.4688,363.3203 402,363.8203 Z " fill="#000000"/><text fill="#000000" font-family="sans-serif" font-size="18" lengthAdjust="spacing" textLength="48" x="416" y="374.6855">Nurse</text><line style="stroke:#A80036;stroke-width:1.5;" x1="386" x2="468" y1="385.6406" y2="385.6406"/><!--MD5=[02e4b9b7573f1156f41e60aa5b4e25a4]
class Company--><rect codeLine="19" fill="#FEFECE" filter="url(#fxie8v725tpri)" height="62.4766" id="Company" style="stroke:#A80036;stroke-width:1.5;" width="112" x="16.5" y="58.5"/><ellipse cx="31.5" cy="76.8203" fill="#ADD1B2" rx="11" ry="11" style="stroke:#A80036;stroke-width:1.0;"/><path d="M33.5,73.3203 Q33.7031,72.8203 33.9375,72.5703 Q34.1719,72.3203 34.4375,72.3203 Q34.9063,72.3203 35.2031,72.6016 Q35.5,72.8828 35.5,73.5391 L35.5,75.1016 Q35.5,75.7578 35.2188,76.0391 Q34.9375,76.3203 34.5,76.3203 Q34.1094,76.3203 33.8594,76.1484 Q33.6094,75.9766 33.5,75.5234 Q33.4531,75.2109 33.2813,75.0391 Q32.9688,74.7109 32.4063,74.5234 Q31.8438,74.3203 31.2813,74.3203 Q30.5781,74.3203 29.9844,74.6016 Q29.4063,74.8828 28.9531,75.5078 Q28.5,76.1328 28.5,76.9922 L28.5,77.9141 Q28.5,78.9453 29.3438,79.6328 Q30.1875,80.3203 31.6875,80.3203 Q32.5781,80.3203 33.2031,80.1172 Q33.5625,80.0078 33.9688,79.6484 Q34.2344,79.4453 34.375,79.3828 Q34.5156,79.3203 34.6875,79.3203 Q35.0156,79.3203 35.25,79.5859 Q35.5,79.8359 35.5,80.1953 Q35.5,80.5391 35.1563,80.9453 Q34.6563,81.5391 33.8594,81.8672 Q32.8125,82.3203 31.5313,82.3203 Q30.0313,82.3203 28.8281,81.7266 Q27.8594,81.2578 27.1719,80.2422 Q26.5,79.2266 26.5,78.0234 L26.5,76.9297 Q26.5,75.6797 27.0938,74.5859 Q27.7031,73.4922 28.75,72.9141 Q29.8125,72.3203 31,72.3203 Q31.7188,72.3203 32.3438,72.5703 Q32.9688,72.8203 33.5,73.3203 Z " fill="#000000"/><text fill="#000000" font-family="sans-serif" font-size="18" lengthAdjust="spacing" textLength="76" x="47.5" y="84.1855">Company</text><line style="stroke:#A80036;stroke-width:1.5;" x1="17.5" x2="127.5" y1="95.1406" y2="95.1406"/><text fill="#000000" font-family="sans-serif" font-size="11" lengthAdjust="spacing" textLength="59" x="24.5" y="112.5596">-designation</text><!--MD5=[99b8db98afdc2c8404e39242ef4c1e65]
class Platform--><rect codeLine="23" fill="#FEFECE" filter="url(#fxie8v725tpri)" height="62.4766" id="Platform" style="stroke:#A80036;stroke-width:1.5;" width="102" x="376" y="233.5"/><ellipse cx="391" cy="251.8203" fill="#ADD1B2" rx="11" ry="11" style="stroke:#A80036;stroke-width:1.0;"/><path d="M393,248.3203 Q393.2031,247.8203 393.4375,247.5703 Q393.6719,247.3203 393.9375,247.3203 Q394.4063,247.3203 394.7031,247.6016 Q395,247.8828 395,248.5391 L395,250.1016 Q395,250.7578 394.7188,251.0391 Q394.4375,251.3203 394,251.3203 Q393.6094,251.3203 393.3594,251.1484 Q393.1094,250.9766 393,250.5234 Q392.9531,250.2109 392.7813,250.0391 Q392.4688,249.7109 391.9063,249.5234 Q391.3438,249.3203 390.7813,249.3203 Q390.0781,249.3203 389.4844,249.6016 Q388.9063,249.8828 388.4531,250.5078 Q388,251.1328 388,251.9922 L388,252.9141 Q388,253.9453 388.8438,254.6328 Q389.6875,255.3203 391.1875,255.3203 Q392.0781,255.3203 392.7031,255.1172 Q393.0625,255.0078 393.4688,254.6484 Q393.7344,254.4453 393.875,254.3828 Q394.0156,254.3203 394.1875,254.3203 Q394.5156,254.3203 394.75,254.5859 Q395,254.8359 395,255.1953 Q395,255.5391 394.6563,255.9453 Q394.1563,256.5391 393.3594,256.8672 Q392.3125,257.3203 391.0313,257.3203 Q389.5313,257.3203 388.3281,256.7266 Q387.3594,256.2578 386.6719,255.2422 Q386,254.2266 386,253.0234 L386,251.9297 Q386,250.6797 386.5938,249.5859 Q387.2031,248.4922 388.25,247.9141 Q389.3125,247.3203 390.5,247.3203 Q391.2188,247.3203 391.8438,247.5703 Q392.4688,247.8203 393,248.3203 Z " fill="#000000"/><text fill="#000000" font-family="sans-serif" font-size="18" lengthAdjust="spacing" textLength="66" x="407" y="259.1855">Platform</text><line style="stroke:#A80036;stroke-width:1.5;" x1="377" x2="477" y1="270.1406" y2="270.1406"/><text fill="#000000" font-family="sans-serif" font-size="11" lengthAdjust="spacing" textLength="57" x="384" y="287.5596">-description</text><!--MD5=[7421f545a0d8420c5bec41e74b387d9c]
class Employee--><rect codeLine="28" fill="#FEFECE" filter="url(#fxie8v725tpri)" height="169.4922" id="Employee" style="stroke:#A80036;stroke-width:1.5;" width="131" x="7" y="261"/><ellipse cx="29.2" cy="279.3203" fill="#ADD1B2" rx="11" ry="11" style="stroke:#A80036;stroke-width:1.0;"/><path d="M31.2,275.8203 Q31.4031,275.3203 31.6375,275.0703 Q31.8719,274.8203 32.1375,274.8203 Q32.6063,274.8203 32.9031,275.1016 Q33.2,275.3828 33.2,276.0391 L33.2,277.6016 Q33.2,278.2578 32.9188,278.5391 Q32.6375,278.8203 32.2,278.8203 Q31.8094,278.8203 31.5594,278.6484 Q31.3094,278.4766 31.2,278.0234 Q31.1531,277.7109 30.9813,277.5391 Q30.6688,277.2109 30.1063,277.0234 Q29.5438,276.8203 28.9813,276.8203 Q28.2781,276.8203 27.6844,277.1016 Q27.1063,277.3828 26.6531,278.0078 Q26.2,278.6328 26.2,279.4922 L26.2,280.4141 Q26.2,281.4453 27.0438,282.1328 Q27.8875,282.8203 29.3875,282.8203 Q30.2781,282.8203 30.9031,282.6172 Q31.2625,282.5078 31.6688,282.1484 Q31.9344,281.9453 32.075,281.8828 Q32.2156,281.8203 32.3875,281.8203 Q32.7156,281.8203 32.95,282.0859 Q33.2,282.3359 33.2,282.6953 Q33.2,283.0391 32.8563,283.4453 Q32.3563,284.0391 31.5594,284.3672 Q30.5125,284.8203 29.2313,284.8203 Q27.7313,284.8203 26.5281,284.2266 Q25.5594,283.7578 24.8719,282.7422 Q24.2,281.7266 24.2,280.5234 L24.2,279.4297 Q24.2,278.1797 24.7938,277.0859 Q25.4031,275.9922 26.45,275.4141 Q27.5125,274.8203 28.7,274.8203 Q29.4188,274.8203 30.0438,275.0703 Q30.6688,275.3203 31.2,275.8203 Z " fill="#000000"/><text fill="#000000" font-family="sans-serif" font-size="18" lengthAdjust="spacing" textLength="79" x="46.8" y="286.6855">Employee</text><line style="stroke:#A80036;stroke-width:1.5;" x1="8" x2="137" y1="297.6406" y2="297.6406"/><text fill="#000000" font-family="sans-serif" font-size="11" lengthAdjust="spacing" textLength="12" x="15" y="315.0596">-id</text><text fill="#000000" font-family="sans-serif" font-size="11" lengthAdjust="spacing" textLength="33" x="15" y="332.8955">-name;</text><text fill="#000000" font-family="sans-serif" font-size="11" lengthAdjust="spacing" textLength="47" x="15" y="350.7314">-address;</text><text fill="#000000" font-family="sans-serif" font-size="11" lengthAdjust="spacing" textLength="74" x="15" y="368.5674">-phoneNumber;</text><text fill="#000000" font-family="sans-serif" font-size="11" lengthAdjust="spacing" textLength="73" x="15" y="386.4033">-emailAddress;</text><text fill="#000000" font-family="sans-serif" font-size="11" lengthAdjust="spacing" textLength="98" x="15" y="404.2393">-citizenCardNumber;</text><text fill="#000000" font-family="sans-serif" font-size="11" lengthAdjust="spacing" text-decoration="underline" textLength="115" x="15" y="422.0752">-count_num_employees</text><!--MD5=[3fd616f346a44cd59a91eb10b19e157c]
class User--><rect codeLine="39" fill="#FEFECE" filter="url(#fxie8v725tpri)" height="98.1484" id="User" style="stroke:#A80036;stroke-width:1.5;" width="74" x="390" y="91.5"/><ellipse cx="405" cy="109.8203" fill="#ADD1B2" rx="11" ry="11" style="stroke:#A80036;stroke-width:1.0;"/><path d="M407,106.3203 Q407.2031,105.8203 407.4375,105.5703 Q407.6719,105.3203 407.9375,105.3203 Q408.4063,105.3203 408.7031,105.6016 Q409,105.8828 409,106.5391 L409,108.1016 Q409,108.7578 408.7188,109.0391 Q408.4375,109.3203 408,109.3203 Q407.6094,109.3203 407.3594,109.1484 Q407.1094,108.9766 407,108.5234 Q406.9531,108.2109 406.7813,108.0391 Q406.4688,107.7109 405.9063,107.5234 Q405.3438,107.3203 404.7813,107.3203 Q404.0781,107.3203 403.4844,107.6016 Q402.9063,107.8828 402.4531,108.5078 Q402,109.1328 402,109.9922 L402,110.9141 Q402,111.9453 402.8438,112.6328 Q403.6875,113.3203 405.1875,113.3203 Q406.0781,113.3203 406.7031,113.1172 Q407.0625,113.0078 407.4688,112.6484 Q407.7344,112.4453 407.875,112.3828 Q408.0156,112.3203 408.1875,112.3203 Q408.5156,112.3203 408.75,112.5859 Q409,112.8359 409,113.1953 Q409,113.5391 408.6563,113.9453 Q408.1563,114.5391 407.3594,114.8672 Q406.3125,115.3203 405.0313,115.3203 Q403.5313,115.3203 402.3281,114.7266 Q401.3594,114.2578 400.6719,113.2422 Q400,112.2266 400,111.0234 L400,109.9297 Q400,108.6797 400.5938,107.5859 Q401.2031,106.4922 402.25,105.9141 Q403.3125,105.3203 404.5,105.3203 Q405.2188,105.3203 405.8438,105.5703 Q406.4688,105.8203 407,106.3203 Z " fill="#000000"/><text fill="#000000" font-family="sans-serif" font-size="18" lengthAdjust="spacing" textLength="38" x="421" y="117.1855">User</text><line style="stroke:#A80036;stroke-width:1.5;" x1="391" x2="463" y1="128.1406" y2="128.1406"/><text fill="#000000" font-family="sans-serif" font-size="11" lengthAdjust="spacing" textLength="12" x="398" y="145.5596">-id</text><text fill="#000000" font-family="sans-serif" font-size="11" lengthAdjust="spacing" textLength="54" x="398" y="163.3955">-password</text><text fill="#000000" font-family="sans-serif" font-size="11" lengthAdjust="spacing" textLength="30" x="398" y="181.2314">-name</text><!--MD5=[45d42ff7800d812d5f83c7d3273eb427]
class UserRole--><rect codeLine="45" fill="#FEFECE" filter="url(#fxie8v725tpri)" height="80.3125" id="UserRole" style="stroke:#A80036;stroke-width:1.5;" width="111" x="669" y="100.5"/><ellipse cx="684" cy="118.8203" fill="#ADD1B2" rx="11" ry="11" style="stroke:#A80036;stroke-width:1.0;"/><path d="M686,115.3203 Q686.2031,114.8203 686.4375,114.5703 Q686.6719,114.3203 686.9375,114.3203 Q687.4063,114.3203 687.7031,114.6016 Q688,114.8828 688,115.5391 L688,117.1016 Q688,117.7578 687.7188,118.0391 Q687.4375,118.3203 687,118.3203 Q686.6094,118.3203 686.3594,118.1484 Q686.1094,117.9766 686,117.5234 Q685.9531,117.2109 685.7813,117.0391 Q685.4688,116.7109 684.9063,116.5234 Q684.3438,116.3203 683.7813,116.3203 Q683.0781,116.3203 682.4844,116.6016 Q681.9063,116.8828 681.4531,117.5078 Q681,118.1328 681,118.9922 L681,119.9141 Q681,120.9453 681.8438,121.6328 Q682.6875,122.3203 684.1875,122.3203 Q685.0781,122.3203 685.7031,122.1172 Q686.0625,122.0078 686.4688,121.6484 Q686.7344,121.4453 686.875,121.3828 Q687.0156,121.3203 687.1875,121.3203 Q687.5156,121.3203 687.75,121.5859 Q688,121.8359 688,122.1953 Q688,122.5391 687.6563,122.9453 Q687.1563,123.5391 686.3594,123.8672 Q685.3125,124.3203 684.0313,124.3203 Q682.5313,124.3203 681.3281,123.7266 Q680.3594,123.2578 679.6719,122.2422 Q679,121.2266 679,120.0234 L679,118.9297 Q679,117.6797 679.5938,116.5859 Q680.2031,115.4922 681.25,114.9141 Q682.3125,114.3203 683.5,114.3203 Q684.2188,114.3203 684.8438,114.5703 Q685.4688,114.8203 686,115.3203 Z " fill="#000000"/><text fill="#000000" font-family="sans-serif" font-size="18" lengthAdjust="spacing" textLength="75" x="700" y="126.1855">UserRole</text><line style="stroke:#A80036;stroke-width:1.5;" x1="670" x2="779" y1="137.1406" y2="137.1406"/><text fill="#000000" font-family="sans-serif" font-size="11" lengthAdjust="spacing" textLength="12" x="677" y="154.5596">-id</text><text fill="#000000" font-family="sans-serif" font-size="11" lengthAdjust="spacing" textLength="57" x="677" y="172.3955">-description</text><!--MD5=[98f7f3dc8d9719d04ad14614c4ea123f]
reverse link Employee to CenterCoordinator--><path codeLine="51" d="M157.33,370.71 C216.2,388.41 294.26,411.88 351.06,428.96 " fill="none" id="Employee-backto-CenterCoordinator" style="stroke:#A80036;stroke-width:1.0;"/><polygon fill="none" points="155.29,377.4,138.15,364.94,159.32,364,155.29,377.4" style="stroke:#A80036;stroke-width:1.0;"/><!--MD5=[f7fb1bbd8b4f4021e9754ae6fe2871a0]
reverse link Employee to Administrator--><path codeLine="52" d="M125.9,243.65 C143.04,217.09 163.96,190.16 188,169.5 C223.9,138.65 246.35,152.83 285,125.5 C311.18,106.99 309.05,92.33 335,73.5 C346.08,65.46 358.85,58.24 371.26,52.08 " fill="none" id="Employee-backto-Administrator" style="stroke:#A80036;stroke-width:1.0;"/><polygon fill="none" points="131.65,247.65,115.18,260.98,119.75,240.28,131.65,247.65" style="stroke:#A80036;stroke-width:1.0;"/><!--MD5=[6716344a46572fc99c27bf4e50ddbd3d]
reverse link Employee to Nurse--><path codeLine="53" d="M158.5,351.77 C230.18,357.06 329.66,364.39 384.88,368.47 " fill="none" id="Employee-backto-Nurse" style="stroke:#A80036;stroke-width:1.0;"/><polygon fill="none" points="157.58,358.72,138.15,350.27,158.61,344.76,157.58,358.72" style="stroke:#A80036;stroke-width:1.0;"/><!--MD5=[bfff716514ca687b645fe473c6e098a4]
reverse link Employee to Receptionist--><path codeLine="54" d="M155.51,396.61 C166.37,403.09 177.4,409.53 188,415.5 C252.08,451.59 268.63,459.8 335,491.5 C347.15,497.3 360.34,503.28 372.81,508.79 " fill="none" id="Employee-backto-Receptionist" style="stroke:#A80036;stroke-width:1.0;"/><polygon fill="none" points="151.62,402.44,138.11,386.11,158.85,390.45,151.62,402.44" style="stroke:#A80036;stroke-width:1.0;"/><!--MD5=[b482d663aae385f5ae82dde2f71259c6]
link Employee to Platform--><path codeLine="55" d="M138.13,341.75 C180.41,338.28 236.57,331.72 285,319.5 C315.95,311.69 349.29,298.91 375.77,287.63 " fill="none" id="Employee-Platform" style="stroke:#A80036;stroke-width:1.0;"/><polygon fill="#000000" points="204.8752,307.5655,195.4033,306.7085,196.7085,312.4396,204.8752,307.5655" style="stroke:#000000;stroke-width:1.0;"/><text fill="#000000" font-family="sans-serif" font-size="13" lengthAdjust="spacing" textLength="64" x="211" y="313.9951">registers in</text><text fill="#000000" font-family="sans-serif" font-size="13" lengthAdjust="spacing" textLength="5" x="147.8005" y="357.921">*</text><text fill="#000000" font-family="sans-serif" font-size="13" lengthAdjust="spacing" textLength="7" x="359.1469" y="307.5686">1</text><!--MD5=[22fb9506fac029fc1d2ae00f0eb8d606]
link Employee to User--><path codeLine="56" d="M138.47,308.72 C180.39,284.89 236.05,253.08 285,224.5 C320.8,203.6 361.46,179.32 389.88,162.26 " fill="none" id="Employee-User" style="stroke:#A80036;stroke-width:1.0;"/><polygon fill="#000000" points="209.3204,211.1589,200.0254,213.1725,202.9841,218.2514,209.3204,211.1589" style="stroke:#000000;stroke-width:1.0;"/><text fill="#000000" font-family="sans-serif" font-size="13" lengthAdjust="spacing" textLength="54" x="216" y="218.9951">relates to</text><text fill="#000000" font-family="sans-serif" font-size="13" lengthAdjust="spacing" textLength="22" x="147.9968" y="321.6559">0..1</text><text fill="#000000" font-family="sans-serif" font-size="13" lengthAdjust="spacing" textLength="7" x="373.0219" y="183.6296">1</text><!--MD5=[e6529539d61e4fceb49a82d3c9677c38]
link Company to User--><path codeLine="58" d="M128.58,97.47 C201.38,108 327.66,126.27 389.6,135.23 " fill="none" id="Company-User" style="stroke:#A80036;stroke-width:1.0;"/><polygon fill="#000000" points="197.9485,97.3916,189.4174,93.188,188.5758,99.0053,197.9485,97.3916" style="stroke:#000000;stroke-width:1.0;"/><text fill="#000000" font-family="sans-serif" font-size="13" lengthAdjust="spacing" textLength="78" x="204" y="101.9951">comprehends</text><text fill="#000000" font-family="sans-serif" font-size="13" lengthAdjust="spacing" textLength="7" x="138.4699" y="115.2595">1</text><text fill="#000000" font-family="sans-serif" font-size="13" lengthAdjust="spacing" textLength="5" x="374.8747" y="151.6159">*</text><!--MD5=[71da4be24892bfec694db06bf9e3c284]
link Company to Platform--><path codeLine="60" d="M128.58,119.46 C147.34,129.5 168.5,140.64 188,150.5 C252.19,182.95 327.16,218.48 375.55,241.1 " fill="none" id="Company-Platform" style="stroke:#A80036;stroke-width:1.0;"/><polygon fill="#000000" points="225.9855,141.885,219.1697,135.252,216.5726,140.525,225.9855,141.885" style="stroke:#000000;stroke-width:1.0;"/><text fill="#000000" font-family="sans-serif" font-size="13" lengthAdjust="spacing" textLength="21" x="232.5" y="144.9951">has</text><text fill="#000000" font-family="sans-serif" font-size="13" lengthAdjust="spacing" textLength="7" x="138.4699" y="140.067">1</text><text fill="#000000" font-family="sans-serif" font-size="13" lengthAdjust="spacing" textLength="7" x="358.8973" y="254.7861">1</text><!--MD5=[1f12d177c84922ed4f166f09ee62ceaa]
link User to UserRole--><path codeLine="61" d="M464.23,140.5 C515.4,140.5 609.22,140.5 668.87,140.5 " fill="none" id="User-UserRole" style="stroke:#A80036;stroke-width:1.0;"/><polygon fill="#000000" points="579,129.6758,569.9549,126.7369,569.9549,132.6147,579,129.6758" style="stroke:#000000;stroke-width:1.0;"/><text fill="#000000" font-family="sans-serif" font-size="13" lengthAdjust="spacing" textLength="31" x="585" y="134.9951">plays</text><text fill="#000000" font-family="sans-serif" font-size="13" lengthAdjust="spacing" textLength="7" x="474.1083" y="157.8576">1</text><text fill="#000000" font-family="sans-serif" font-size="13" lengthAdjust="spacing" textLength="20" x="639.0503" y="157.1536">1..*</text><!--MD5=[eaea43e34e45c5b9d20b595fc78f1f20]
link Company to Administrator--><path codeLine="62" d="M128.58,80.12 C190.15,69.64 289.97,52.65 356.78,41.28 " fill="none" id="Company-Administrator" style="stroke:#A80036;stroke-width:1.0;"/><polygon fill="#000000" points="226.4291,42.8368,217.0191,41.4572,218.0054,47.2518,226.4291,42.8368" style="stroke:#000000;stroke-width:1.0;"/><text fill="#000000" font-family="sans-serif" font-size="13" lengthAdjust="spacing" textLength="21" x="232.5" y="48.9951">has</text><text fill="#000000" font-family="sans-serif" font-size="13" lengthAdjust="spacing" textLength="7" x="138.4699" y="95.6865">1</text><text fill="#000000" font-family="sans-serif" font-size="13" lengthAdjust="spacing" textLength="5" x="342.0745" y="59.0578">*</text><!--MD5=[496f3b2d621cb7c33c2281f718f862c9]
@startuml


skinparam classAttributeIconSize 0
hide methods

skinparam padding 2
skinparam ranksep 100
skinparam classFontSize 18
left to right direction
class Administrator


class CenterCoordinator

class Receptionist

class Nurse

class Company {
-designation
}

class Platform{
-description
}


class Employee
{
  -id
  -name;
  -address;
  -phoneNumber;
  -emailAddress;
  -citizenCardNumber;
  -{static}count_num_employees
}

class User{
-id
-password
-name
}

class UserRole{
-id
-description
}


Employee <|- - CenterCoordinator
Employee <|- - Administrator
Employee <|- - Nurse
Employee <|- - Receptionist
Employee "*" - - "1" Platform : registers in >
Employee "0..1" - - "1" User : relates to >

Company "1" - - "*" User :comprehends >

Company "1" - - "1" Platform : has >
User "1" - - "1..*" UserRole : plays >
Company "1" - - "*" Administrator : has >
@enduml

PlantUML version 1.2022.1(Tue Feb 01 18:19:58 GMT 2022)
(GPL source distribution)
Java Runtime: OpenJDK Runtime Environment
JVM: OpenJDK 64-Bit Server VM
Default Encoding: Cp1252
Language: en
Country: US
--></g></svg>