<?xml version="1.0" encoding="UTF-8" standalone="no"?><svg xmlns="http://www.w3.org/2000/svg" xmlns:xlink="http://www.w3.org/1999/xlink" contentScriptType="application/ecmascript" contentStyleType="text/css" height="1610px" preserveAspectRatio="none" style="width:942px;height:1610px;background:#FFFFFF;" version="1.1" viewBox="0 0 942 1610" width="942px" zoomAndPan="magnify"><defs><filter height="300%" id="fp3pcyn533wei" width="300%" x="-1" y="-1"><feGaussianBlur result="blurOut" stdDeviation="2.0"/><feColorMatrix in="blurOut" result="blurOut2" type="matrix" values="0 0 0 0 0 0 0 0 0 0 0 0 0 0 0 0 0 0 .4 0"/><feOffset dx="4.0" dy="4.0" in="blurOut2" result="blurOut3"/><feBlend in="SourceGraphic" in2="blurOut3" mode="normal"/></filter></defs><g><!--MD5=[da547346deef918ea16944ba046651ef]
class Administrator--><rect codeLine="8" fill="#FEFECE" filter="url(#fp3pcyn533wei)" height="52.6406" id="Administrator" style="stroke:#A80036;stroke-width:1.5;" width="140" x="243" y="1544"/><ellipse cx="258" cy="1562.3203" fill="#ADD1B2" rx="11" ry="11" style="stroke:#A80036;stroke-width:1.0;"/><path d="M260,1558.8203 Q260.2031,1558.3203 260.4375,1558.0703 Q260.6719,1557.8203 260.9375,1557.8203 Q261.4063,1557.8203 261.7031,1558.1016 Q262,1558.3828 262,1559.0391 L262,1560.6016 Q262,1561.2578 261.7188,1561.5391 Q261.4375,1561.8203 261,1561.8203 Q260.6094,1561.8203 260.3594,1561.6484 Q260.1094,1561.4766 260,1561.0234 Q259.9531,1560.7109 259.7813,1560.5391 Q259.4688,1560.2109 258.9063,1560.0234 Q258.3438,1559.8203 257.7813,1559.8203 Q257.0781,1559.8203 256.4844,1560.1016 Q255.9063,1560.3828 255.4531,1561.0078 Q255,1561.6328 255,1562.4922 L255,1563.4141 Q255,1564.4453 255.8438,1565.1328 Q256.6875,1565.8203 258.1875,1565.8203 Q259.0781,1565.8203 259.7031,1565.6172 Q260.0625,1565.5078 260.4688,1565.1484 Q260.7344,1564.9453 260.875,1564.8828 Q261.0156,1564.8203 261.1875,1564.8203 Q261.5156,1564.8203 261.75,1565.0859 Q262,1565.3359 262,1565.6953 Q262,1566.0391 261.6563,1566.4453 Q261.1563,1567.0391 260.3594,1567.3672 Q259.3125,1567.8203 258.0313,1567.8203 Q256.5313,1567.8203 255.3281,1567.2266 Q254.3594,1566.7578 253.6719,1565.7422 Q253,1564.7266 253,1563.5234 L253,1562.4297 Q253,1561.1797 253.5938,1560.0859 Q254.2031,1558.9922 255.25,1558.4141 Q256.3125,1557.8203 257.5,1557.8203 Q258.2188,1557.8203 258.8438,1558.0703 Q259.4688,1558.3203 260,1558.8203 Z " fill="#000000"/><text fill="#000000" font-family="sans-serif" font-size="18" lengthAdjust="spacing" textLength="104" x="274" y="1569.6855">Administrator</text><line style="stroke:#A80036;stroke-width:1.5;" x1="244" x2="382" y1="1580.6406" y2="1580.6406"/><line style="stroke:#A80036;stroke-width:1.5;" x1="244" x2="382" y1="1588.6406" y2="1588.6406"/><!--MD5=[2d935fd2dd068a13da1ae531f9857c4f]
class CenterCoordinator--><rect codeLine="10" fill="#FEFECE" filter="url(#fp3pcyn533wei)" height="52.6406" id="CenterCoordinator" style="stroke:#A80036;stroke-width:1.5;" width="184" x="418" y="1544"/><ellipse cx="433" cy="1562.3203" fill="#ADD1B2" rx="11" ry="11" style="stroke:#A80036;stroke-width:1.0;"/><path d="M435,1558.8203 Q435.2031,1558.3203 435.4375,1558.0703 Q435.6719,1557.8203 435.9375,1557.8203 Q436.4063,1557.8203 436.7031,1558.1016 Q437,1558.3828 437,1559.0391 L437,1560.6016 Q437,1561.2578 436.7188,1561.5391 Q436.4375,1561.8203 436,1561.8203 Q435.6094,1561.8203 435.3594,1561.6484 Q435.1094,1561.4766 435,1561.0234 Q434.9531,1560.7109 434.7813,1560.5391 Q434.4688,1560.2109 433.9063,1560.0234 Q433.3438,1559.8203 432.7813,1559.8203 Q432.0781,1559.8203 431.4844,1560.1016 Q430.9063,1560.3828 430.4531,1561.0078 Q430,1561.6328 430,1562.4922 L430,1563.4141 Q430,1564.4453 430.8438,1565.1328 Q431.6875,1565.8203 433.1875,1565.8203 Q434.0781,1565.8203 434.7031,1565.6172 Q435.0625,1565.5078 435.4688,1565.1484 Q435.7344,1564.9453 435.875,1564.8828 Q436.0156,1564.8203 436.1875,1564.8203 Q436.5156,1564.8203 436.75,1565.0859 Q437,1565.3359 437,1565.6953 Q437,1566.0391 436.6563,1566.4453 Q436.1563,1567.0391 435.3594,1567.3672 Q434.3125,1567.8203 433.0313,1567.8203 Q431.5313,1567.8203 430.3281,1567.2266 Q429.3594,1566.7578 428.6719,1565.7422 Q428,1564.7266 428,1563.5234 L428,1562.4297 Q428,1561.1797 428.5938,1560.0859 Q429.2031,1558.9922 430.25,1558.4141 Q431.3125,1557.8203 432.5,1557.8203 Q433.2188,1557.8203 433.8438,1558.0703 Q434.4688,1558.3203 435,1558.8203 Z " fill="#000000"/><text fill="#000000" font-family="sans-serif" font-size="18" lengthAdjust="spacing" textLength="148" x="449" y="1569.6855">CenterCoordinator</text><line style="stroke:#A80036;stroke-width:1.5;" x1="419" x2="601" y1="1580.6406" y2="1580.6406"/><line style="stroke:#A80036;stroke-width:1.5;" x1="419" x2="601" y1="1588.6406" y2="1588.6406"/><!--MD5=[03960189e81aa2c066c762ffabbee709]
class Receptionist--><rect codeLine="12" fill="#FEFECE" filter="url(#fp3pcyn533wei)" height="52.6406" id="Receptionist" style="stroke:#A80036;stroke-width:1.5;" width="135" x="637.5" y="1544"/><ellipse cx="652.5" cy="1562.3203" fill="#ADD1B2" rx="11" ry="11" style="stroke:#A80036;stroke-width:1.0;"/><path d="M654.5,1558.8203 Q654.7031,1558.3203 654.9375,1558.0703 Q655.1719,1557.8203 655.4375,1557.8203 Q655.9063,1557.8203 656.2031,1558.1016 Q656.5,1558.3828 656.5,1559.0391 L656.5,1560.6016 Q656.5,1561.2578 656.2188,1561.5391 Q655.9375,1561.8203 655.5,1561.8203 Q655.1094,1561.8203 654.8594,1561.6484 Q654.6094,1561.4766 654.5,1561.0234 Q654.4531,1560.7109 654.2813,1560.5391 Q653.9688,1560.2109 653.4063,1560.0234 Q652.8438,1559.8203 652.2813,1559.8203 Q651.5781,1559.8203 650.9844,1560.1016 Q650.4063,1560.3828 649.9531,1561.0078 Q649.5,1561.6328 649.5,1562.4922 L649.5,1563.4141 Q649.5,1564.4453 650.3438,1565.1328 Q651.1875,1565.8203 652.6875,1565.8203 Q653.5781,1565.8203 654.2031,1565.6172 Q654.5625,1565.5078 654.9688,1565.1484 Q655.2344,1564.9453 655.375,1564.8828 Q655.5156,1564.8203 655.6875,1564.8203 Q656.0156,1564.8203 656.25,1565.0859 Q656.5,1565.3359 656.5,1565.6953 Q656.5,1566.0391 656.1563,1566.4453 Q655.6563,1567.0391 654.8594,1567.3672 Q653.8125,1567.8203 652.5313,1567.8203 Q651.0313,1567.8203 649.8281,1567.2266 Q648.8594,1566.7578 648.1719,1565.7422 Q647.5,1564.7266 647.5,1563.5234 L647.5,1562.4297 Q647.5,1561.1797 648.0938,1560.0859 Q648.7031,1558.9922 649.75,1558.4141 Q650.8125,1557.8203 652,1557.8203 Q652.7188,1557.8203 653.3438,1558.0703 Q653.9688,1558.3203 654.5,1558.8203 Z " fill="#000000"/><text fill="#000000" font-family="sans-serif" font-size="18" lengthAdjust="spacing" textLength="99" x="668.5" y="1569.6855">Receptionist</text><line style="stroke:#A80036;stroke-width:1.5;" x1="638.5" x2="771.5" y1="1580.6406" y2="1580.6406"/><line style="stroke:#A80036;stroke-width:1.5;" x1="638.5" x2="771.5" y1="1588.6406" y2="1588.6406"/><!--MD5=[a059576e163b46f56762f12600c49258]
class Nurse--><rect codeLine="14" fill="#FEFECE" filter="url(#fp3pcyn533wei)" height="52.6406" id="Nurse" style="stroke:#A80036;stroke-width:1.5;" width="84" x="808" y="1544"/><ellipse cx="823" cy="1562.3203" fill="#ADD1B2" rx="11" ry="11" style="stroke:#A80036;stroke-width:1.0;"/><path d="M825,1558.8203 Q825.2031,1558.3203 825.4375,1558.0703 Q825.6719,1557.8203 825.9375,1557.8203 Q826.4063,1557.8203 826.7031,1558.1016 Q827,1558.3828 827,1559.0391 L827,1560.6016 Q827,1561.2578 826.7188,1561.5391 Q826.4375,1561.8203 826,1561.8203 Q825.6094,1561.8203 825.3594,1561.6484 Q825.1094,1561.4766 825,1561.0234 Q824.9531,1560.7109 824.7813,1560.5391 Q824.4688,1560.2109 823.9063,1560.0234 Q823.3438,1559.8203 822.7813,1559.8203 Q822.0781,1559.8203 821.4844,1560.1016 Q820.9063,1560.3828 820.4531,1561.0078 Q820,1561.6328 820,1562.4922 L820,1563.4141 Q820,1564.4453 820.8438,1565.1328 Q821.6875,1565.8203 823.1875,1565.8203 Q824.0781,1565.8203 824.7031,1565.6172 Q825.0625,1565.5078 825.4688,1565.1484 Q825.7344,1564.9453 825.875,1564.8828 Q826.0156,1564.8203 826.1875,1564.8203 Q826.5156,1564.8203 826.75,1565.0859 Q827,1565.3359 827,1565.6953 Q827,1566.0391 826.6563,1566.4453 Q826.1563,1567.0391 825.3594,1567.3672 Q824.3125,1567.8203 823.0313,1567.8203 Q821.5313,1567.8203 820.3281,1567.2266 Q819.3594,1566.7578 818.6719,1565.7422 Q818,1564.7266 818,1563.5234 L818,1562.4297 Q818,1561.1797 818.5938,1560.0859 Q819.2031,1558.9922 820.25,1558.4141 Q821.3125,1557.8203 822.5,1557.8203 Q823.2188,1557.8203 823.8438,1558.0703 Q824.4688,1558.3203 825,1558.8203 Z " fill="#000000"/><text fill="#000000" font-family="sans-serif" font-size="18" lengthAdjust="spacing" textLength="48" x="839" y="1569.6855">Nurse</text><line style="stroke:#A80036;stroke-width:1.5;" x1="809" x2="891" y1="1580.6406" y2="1580.6406"/><line style="stroke:#A80036;stroke-width:1.5;" x1="809" x2="891" y1="1588.6406" y2="1588.6406"/><!--MD5=[02e4b9b7573f1156f41e60aa5b4e25a4]
class Company--><rect codeLine="16" fill="#FEFECE" filter="url(#fp3pcyn533wei)" height="106.1484" id="Company" style="stroke:#A80036;stroke-width:1.5;" width="112" x="40" y="439"/><ellipse cx="55" cy="457.3203" fill="#ADD1B2" rx="11" ry="11" style="stroke:#A80036;stroke-width:1.0;"/><path d="M57,453.8203 Q57.2031,453.3203 57.4375,453.0703 Q57.6719,452.8203 57.9375,452.8203 Q58.4063,452.8203 58.7031,453.1016 Q59,453.3828 59,454.0391 L59,455.6016 Q59,456.2578 58.7188,456.5391 Q58.4375,456.8203 58,456.8203 Q57.6094,456.8203 57.3594,456.6484 Q57.1094,456.4766 57,456.0234 Q56.9531,455.7109 56.7813,455.5391 Q56.4688,455.2109 55.9063,455.0234 Q55.3438,454.8203 54.7813,454.8203 Q54.0781,454.8203 53.4844,455.1016 Q52.9063,455.3828 52.4531,456.0078 Q52,456.6328 52,457.4922 L52,458.4141 Q52,459.4453 52.8438,460.1328 Q53.6875,460.8203 55.1875,460.8203 Q56.0781,460.8203 56.7031,460.6172 Q57.0625,460.5078 57.4688,460.1484 Q57.7344,459.9453 57.875,459.8828 Q58.0156,459.8203 58.1875,459.8203 Q58.5156,459.8203 58.75,460.0859 Q59,460.3359 59,460.6953 Q59,461.0391 58.6563,461.4453 Q58.1563,462.0391 57.3594,462.3672 Q56.3125,462.8203 55.0313,462.8203 Q53.5313,462.8203 52.3281,462.2266 Q51.3594,461.7578 50.6719,460.7422 Q50,459.7266 50,458.5234 L50,457.4297 Q50,456.1797 50.5938,455.0859 Q51.2031,453.9922 52.25,453.4141 Q53.3125,452.8203 54.5,452.8203 Q55.2188,452.8203 55.8438,453.0703 Q56.4688,453.3203 57,453.8203 Z " fill="#000000"/><text fill="#000000" font-family="sans-serif" font-size="18" lengthAdjust="spacing" textLength="76" x="71" y="464.6855">Company</text><line style="stroke:#A80036;stroke-width:1.5;" x1="41" x2="151" y1="475.6406" y2="475.6406"/><text fill="#000000" font-family="sans-serif" font-size="11" lengthAdjust="spacing" textLength="59" x="48" y="493.0596">-designation</text><line style="stroke:#A80036;stroke-width:1.5;" x1="41" x2="151" y1="501.4766" y2="501.4766"/><text fill="#000000" font-family="sans-serif" font-size="11" lengthAdjust="spacing" textLength="68" x="48" y="518.8955">+getPlatform()</text><text fill="#000000" font-family="sans-serif" font-size="11" lengthAdjust="spacing" textLength="88" x="48" y="536.7314">+getAuthFacade()</text><!--MD5=[99b8db98afdc2c8404e39242ef4c1e65]
class Platform--><rect codeLine="23" fill="#FEFECE" filter="url(#fp3pcyn533wei)" height="123.9844" id="Platform" style="stroke:#A80036;stroke-width:1.5;" width="232" x="143" y="667"/><ellipse cx="219.75" cy="685.3203" fill="#ADD1B2" rx="11" ry="11" style="stroke:#A80036;stroke-width:1.0;"/><path d="M221.75,681.8203 Q221.9531,681.3203 222.1875,681.0703 Q222.4219,680.8203 222.6875,680.8203 Q223.1563,680.8203 223.4531,681.1016 Q223.75,681.3828 223.75,682.0391 L223.75,683.6016 Q223.75,684.2578 223.4688,684.5391 Q223.1875,684.8203 222.75,684.8203 Q222.3594,684.8203 222.1094,684.6484 Q221.8594,684.4766 221.75,684.0234 Q221.7031,683.7109 221.5313,683.5391 Q221.2188,683.2109 220.6563,683.0234 Q220.0938,682.8203 219.5313,682.8203 Q218.8281,682.8203 218.2344,683.1016 Q217.6563,683.3828 217.2031,684.0078 Q216.75,684.6328 216.75,685.4922 L216.75,686.4141 Q216.75,687.4453 217.5938,688.1328 Q218.4375,688.8203 219.9375,688.8203 Q220.8281,688.8203 221.4531,688.6172 Q221.8125,688.5078 222.2188,688.1484 Q222.4844,687.9453 222.625,687.8828 Q222.7656,687.8203 222.9375,687.8203 Q223.2656,687.8203 223.5,688.0859 Q223.75,688.3359 223.75,688.6953 Q223.75,689.0391 223.4063,689.4453 Q222.9063,690.0391 222.1094,690.3672 Q221.0625,690.8203 219.7813,690.8203 Q218.2813,690.8203 217.0781,690.2266 Q216.1094,689.7578 215.4219,688.7422 Q214.75,687.7266 214.75,686.5234 L214.75,685.4297 Q214.75,684.1797 215.3438,683.0859 Q215.9531,681.9922 217,681.4141 Q218.0625,680.8203 219.25,680.8203 Q219.9688,680.8203 220.5938,681.0703 Q221.2188,681.3203 221.75,681.8203 Z " fill="#000000"/><text fill="#000000" font-family="sans-serif" font-size="18" lengthAdjust="spacing" textLength="66" x="242.25" y="692.6855">Platform</text><line style="stroke:#A80036;stroke-width:1.5;" x1="144" x2="374" y1="703.6406" y2="703.6406"/><text fill="#000000" font-family="sans-serif" font-size="11" lengthAdjust="spacing" textLength="57" x="151" y="721.0596">-description</text><text fill="#000000" font-family="sans-serif" font-size="11" lengthAdjust="spacing" textLength="202" x="151" y="738.8955">-RegisterEmployee m_oRegisterEmployee;</text><line style="stroke:#A80036;stroke-width:1.5;" x1="144" x2="374" y1="747.3125" y2="747.3125"/><text fill="#000000" font-family="sans-serif" font-size="11" lengthAdjust="spacing" textLength="115" x="151" y="764.7314">+getRegisterEmployee()</text><text fill="#000000" font-family="sans-serif" font-size="11" lengthAdjust="spacing" textLength="216" x="151" y="782.5674">+initializeRegisters(AuthFacade authFacade)</text><!--MD5=[7421f545a0d8420c5bec41e74b387d9c]
class Employee--><rect codeLine="33" fill="#FEFECE" filter="url(#fp3pcyn533wei)" height="213.1641" id="Employee" style="stroke:#A80036;stroke-width:1.5;" width="131" x="542.5" y="1230"/><ellipse cx="564.7" cy="1248.3203" fill="#ADD1B2" rx="11" ry="11" style="stroke:#A80036;stroke-width:1.0;"/><path d="M566.7,1244.8203 Q566.9031,1244.3203 567.1375,1244.0703 Q567.3719,1243.8203 567.6375,1243.8203 Q568.1063,1243.8203 568.4031,1244.1016 Q568.7,1244.3828 568.7,1245.0391 L568.7,1246.6016 Q568.7,1247.2578 568.4188,1247.5391 Q568.1375,1247.8203 567.7,1247.8203 Q567.3094,1247.8203 567.0594,1247.6484 Q566.8094,1247.4766 566.7,1247.0234 Q566.6531,1246.7109 566.4813,1246.5391 Q566.1688,1246.2109 565.6063,1246.0234 Q565.0438,1245.8203 564.4813,1245.8203 Q563.7781,1245.8203 563.1844,1246.1016 Q562.6063,1246.3828 562.1531,1247.0078 Q561.7,1247.6328 561.7,1248.4922 L561.7,1249.4141 Q561.7,1250.4453 562.5438,1251.1328 Q563.3875,1251.8203 564.8875,1251.8203 Q565.7781,1251.8203 566.4031,1251.6172 Q566.7625,1251.5078 567.1688,1251.1484 Q567.4344,1250.9453 567.575,1250.8828 Q567.7156,1250.8203 567.8875,1250.8203 Q568.2156,1250.8203 568.45,1251.0859 Q568.7,1251.3359 568.7,1251.6953 Q568.7,1252.0391 568.3563,1252.4453 Q567.8563,1253.0391 567.0594,1253.3672 Q566.0125,1253.8203 564.7313,1253.8203 Q563.2313,1253.8203 562.0281,1253.2266 Q561.0594,1252.7578 560.3719,1251.7422 Q559.7,1250.7266 559.7,1249.5234 L559.7,1248.4297 Q559.7,1247.1797 560.2938,1246.0859 Q560.9031,1244.9922 561.95,1244.4141 Q563.0125,1243.8203 564.2,1243.8203 Q564.9188,1243.8203 565.5438,1244.0703 Q566.1688,1244.3203 566.7,1244.8203 Z " fill="#000000"/><text fill="#000000" font-family="sans-serif" font-size="18" lengthAdjust="spacing" textLength="79" x="582.3" y="1255.6855">Employee</text><line style="stroke:#A80036;stroke-width:1.5;" x1="543.5" x2="672.5" y1="1266.6406" y2="1266.6406"/><text fill="#000000" font-family="sans-serif" font-size="11" lengthAdjust="spacing" textLength="12" x="550.5" y="1284.0596">-id</text><text fill="#000000" font-family="sans-serif" font-size="11" lengthAdjust="spacing" textLength="33" x="550.5" y="1301.8955">-name;</text><text fill="#000000" font-family="sans-serif" font-size="11" lengthAdjust="spacing" textLength="47" x="550.5" y="1319.7314">-address;</text><text fill="#000000" font-family="sans-serif" font-size="11" lengthAdjust="spacing" textLength="74" x="550.5" y="1337.5674">-phoneNumber;</text><text fill="#000000" font-family="sans-serif" font-size="11" lengthAdjust="spacing" textLength="73" x="550.5" y="1355.4033">-emailAddress;</text><text fill="#000000" font-family="sans-serif" font-size="11" lengthAdjust="spacing" textLength="98" x="550.5" y="1373.2393">-citizenCardNumber;</text><text fill="#000000" font-family="sans-serif" font-size="11" lengthAdjust="spacing" text-decoration="underline" textLength="115" x="550.5" y="1391.0752">-count_num_employees</text><line style="stroke:#A80036;stroke-width:1.5;" x1="543.5" x2="672.5" y1="1399.4922" y2="1399.4922"/><text fill="#000000" font-family="sans-serif" font-size="11" lengthAdjust="spacing" textLength="53" x="550.5" y="1416.9111">+getEmail()</text><text fill="#000000" font-family="sans-serif" font-size="11" lengthAdjust="spacing" textLength="56" x="550.5" y="1434.7471">+getName()</text><!--MD5=[a126dd63c8621c017159ae62771fbe54]
class RegisterEmployeeUI--><rect codeLine="47" fill="#FEFECE" filter="url(#fp3pcyn533wei)" height="52.6406" id="RegisterEmployeeUI" style="stroke:#A80036;stroke-width:1.5;" width="199" x="252.5" y="7"/><ellipse cx="267.5" cy="25.3203" fill="#ADD1B2" rx="11" ry="11" style="stroke:#A80036;stroke-width:1.0;"/><path d="M269.5,21.8203 Q269.7031,21.3203 269.9375,21.0703 Q270.1719,20.8203 270.4375,20.8203 Q270.9063,20.8203 271.2031,21.1016 Q271.5,21.3828 271.5,22.0391 L271.5,23.6016 Q271.5,24.2578 271.2188,24.5391 Q270.9375,24.8203 270.5,24.8203 Q270.1094,24.8203 269.8594,24.6484 Q269.6094,24.4766 269.5,24.0234 Q269.4531,23.7109 269.2813,23.5391 Q268.9688,23.2109 268.4063,23.0234 Q267.8438,22.8203 267.2813,22.8203 Q266.5781,22.8203 265.9844,23.1016 Q265.4063,23.3828 264.9531,24.0078 Q264.5,24.6328 264.5,25.4922 L264.5,26.4141 Q264.5,27.4453 265.3438,28.1328 Q266.1875,28.8203 267.6875,28.8203 Q268.5781,28.8203 269.2031,28.6172 Q269.5625,28.5078 269.9688,28.1484 Q270.2344,27.9453 270.375,27.8828 Q270.5156,27.8203 270.6875,27.8203 Q271.0156,27.8203 271.25,28.0859 Q271.5,28.3359 271.5,28.6953 Q271.5,29.0391 271.1563,29.4453 Q270.6563,30.0391 269.8594,30.3672 Q268.8125,30.8203 267.5313,30.8203 Q266.0313,30.8203 264.8281,30.2266 Q263.8594,29.7578 263.1719,28.7422 Q262.5,27.7266 262.5,26.5234 L262.5,25.4297 Q262.5,24.1797 263.0938,23.0859 Q263.7031,21.9922 264.75,21.4141 Q265.8125,20.8203 267,20.8203 Q267.7188,20.8203 268.3438,21.0703 Q268.9688,21.3203 269.5,21.8203 Z " fill="#000000"/><text fill="#000000" font-family="sans-serif" font-size="18" lengthAdjust="spacing" textLength="163" x="283.5" y="32.6855">RegisterEmployeeUI</text><line style="stroke:#A80036;stroke-width:1.5;" x1="253.5" x2="450.5" y1="43.6406" y2="43.6406"/><line style="stroke:#A80036;stroke-width:1.5;" x1="253.5" x2="450.5" y1="51.6406" y2="51.6406"/><!--MD5=[6a4e699b59c2ecf8286aba2faa72e4bd]
class RegisterEmployeeController--><rect codeLine="48" fill="#FEFECE" filter="url(#fp3pcyn533wei)" height="177.4922" id="RegisterEmployeeController" style="stroke:#A80036;stroke-width:1.5;" width="460" x="122" y="161"/><ellipse cx="233.75" cy="179.3203" fill="#ADD1B2" rx="11" ry="11" style="stroke:#A80036;stroke-width:1.0;"/><path d="M235.75,175.8203 Q235.9531,175.3203 236.1875,175.0703 Q236.4219,174.8203 236.6875,174.8203 Q237.1563,174.8203 237.4531,175.1016 Q237.75,175.3828 237.75,176.0391 L237.75,177.6016 Q237.75,178.2578 237.4688,178.5391 Q237.1875,178.8203 236.75,178.8203 Q236.3594,178.8203 236.1094,178.6484 Q235.8594,178.4766 235.75,178.0234 Q235.7031,177.7109 235.5313,177.5391 Q235.2188,177.2109 234.6563,177.0234 Q234.0938,176.8203 233.5313,176.8203 Q232.8281,176.8203 232.2344,177.1016 Q231.6563,177.3828 231.2031,178.0078 Q230.75,178.6328 230.75,179.4922 L230.75,180.4141 Q230.75,181.4453 231.5938,182.1328 Q232.4375,182.8203 233.9375,182.8203 Q234.8281,182.8203 235.4531,182.6172 Q235.8125,182.5078 236.2188,182.1484 Q236.4844,181.9453 236.625,181.8828 Q236.7656,181.8203 236.9375,181.8203 Q237.2656,181.8203 237.5,182.0859 Q237.75,182.3359 237.75,182.6953 Q237.75,183.0391 237.4063,183.4453 Q236.9063,184.0391 236.1094,184.3672 Q235.0625,184.8203 233.7813,184.8203 Q232.2813,184.8203 231.0781,184.2266 Q230.1094,183.7578 229.4219,182.7422 Q228.75,181.7266 228.75,180.5234 L228.75,179.4297 Q228.75,178.1797 229.3438,177.0859 Q229.9531,175.9922 231,175.4141 Q232.0625,174.8203 233.25,174.8203 Q233.9688,174.8203 234.5938,175.0703 Q235.2188,175.3203 235.75,175.8203 Z " fill="#000000"/><text fill="#000000" font-family="sans-serif" font-size="18" lengthAdjust="spacing" textLength="224" x="256.25" y="186.6855">RegisterEmployeeController</text><line style="stroke:#A80036;stroke-width:1.5;" x1="123" x2="581" y1="197.6406" y2="197.6406"/><text fill="#000000" font-family="sans-serif" font-size="11" lengthAdjust="spacing" textLength="67" x="130" y="215.0596">-App m_oApp</text><text fill="#000000" font-family="sans-serif" font-size="11" lengthAdjust="spacing" textLength="105" x="130" y="232.8955">-Platform m_oPlatform</text><text fill="#000000" font-family="sans-serif" font-size="11" lengthAdjust="spacing" textLength="122" x="130" y="250.7314">-Employee m_oEmployee;</text><line style="stroke:#A80036;stroke-width:1.5;" x1="123" x2="581" y1="259.1484" y2="259.1484"/><text fill="#000000" font-family="sans-serif" font-size="11" lengthAdjust="spacing" textLength="56" x="130" y="276.5674">+getRoles()</text><text fill="#000000" font-family="sans-serif" font-size="11" lengthAdjust="spacing" textLength="444" x="130" y="294.4033">+newEmployee(name, address,phoneNumber, emailAddress,citizenCardNumber,roleChoice)</text><text fill="#000000" font-family="sans-serif" font-size="11" lengthAdjust="spacing" textLength="97" x="130" y="312.2393">+registerEmployee()</text><text fill="#000000" font-family="sans-serif" font-size="11" lengthAdjust="spacing" textLength="103" x="130" y="330.0752">+getEmployeeString()</text><!--MD5=[335f4d9be48430461c68bf6d6fdba145]
class App--><rect codeLine="60" fill="#FEFECE" filter="url(#fp3pcyn533wei)" height="106.1484" id="App" style="stroke:#A80036;stroke-width:1.5;" width="143" x="187.5" y="439"/><ellipse cx="237.25" cy="457.3203" fill="#ADD1B2" rx="11" ry="11" style="stroke:#A80036;stroke-width:1.0;"/><path d="M239.25,453.8203 Q239.4531,453.3203 239.6875,453.0703 Q239.9219,452.8203 240.1875,452.8203 Q240.6563,452.8203 240.9531,453.1016 Q241.25,453.3828 241.25,454.0391 L241.25,455.6016 Q241.25,456.2578 240.9688,456.5391 Q240.6875,456.8203 240.25,456.8203 Q239.8594,456.8203 239.6094,456.6484 Q239.3594,456.4766 239.25,456.0234 Q239.2031,455.7109 239.0313,455.5391 Q238.7188,455.2109 238.1563,455.0234 Q237.5938,454.8203 237.0313,454.8203 Q236.3281,454.8203 235.7344,455.1016 Q235.1563,455.3828 234.7031,456.0078 Q234.25,456.6328 234.25,457.4922 L234.25,458.4141 Q234.25,459.4453 235.0938,460.1328 Q235.9375,460.8203 237.4375,460.8203 Q238.3281,460.8203 238.9531,460.6172 Q239.3125,460.5078 239.7188,460.1484 Q239.9844,459.9453 240.125,459.8828 Q240.2656,459.8203 240.4375,459.8203 Q240.7656,459.8203 241,460.0859 Q241.25,460.3359 241.25,460.6953 Q241.25,461.0391 240.9063,461.4453 Q240.4063,462.0391 239.6094,462.3672 Q238.5625,462.8203 237.2813,462.8203 Q235.7813,462.8203 234.5781,462.2266 Q233.6094,461.7578 232.9219,460.7422 Q232.25,459.7266 232.25,458.5234 L232.25,457.4297 Q232.25,456.1797 232.8438,455.0859 Q233.4531,453.9922 234.5,453.4141 Q235.5625,452.8203 236.75,452.8203 Q237.4688,452.8203 238.0938,453.0703 Q238.7188,453.3203 239.25,453.8203 Z " fill="#000000"/><text fill="#000000" font-family="sans-serif" font-size="18" lengthAdjust="spacing" textLength="31" x="259.75" y="464.6855">App</text><line style="stroke:#A80036;stroke-width:1.5;" x1="188.5" x2="329.5" y1="475.6406" y2="475.6406"/><line style="stroke:#A80036;stroke-width:1.5;" x1="188.5" x2="329.5" y1="483.6406" y2="483.6406"/><text fill="#000000" font-family="sans-serif" font-size="11" lengthAdjust="spacing" textLength="74" x="195.5" y="501.0596">+getCompany()</text><text fill="#000000" font-family="sans-serif" font-size="11" lengthAdjust="spacing" textLength="127" x="195.5" y="518.8955">+getCurrentUserSession()</text><text fill="#000000" font-family="sans-serif" font-size="11" lengthAdjust="spacing" text-decoration="underline" textLength="99" x="195.5" y="536.7314">+static getInstance()</text><!--MD5=[8ae808d068a8995f06b9b3ec51357f0b]
class AuthFacade--><rect codeLine="68" fill="#FEFECE" filter="url(#fp3pcyn533wei)" height="106.1484" id="AuthFacade" style="stroke:#A80036;stroke-width:1.5;" width="212" x="7" y="1283.5"/><ellipse cx="58.75" cy="1301.8203" fill="#ADD1B2" rx="11" ry="11" style="stroke:#A80036;stroke-width:1.0;"/><path d="M60.75,1298.3203 Q60.9531,1297.8203 61.1875,1297.5703 Q61.4219,1297.3203 61.6875,1297.3203 Q62.1563,1297.3203 62.4531,1297.6016 Q62.75,1297.8828 62.75,1298.5391 L62.75,1300.1016 Q62.75,1300.7578 62.4688,1301.0391 Q62.1875,1301.3203 61.75,1301.3203 Q61.3594,1301.3203 61.1094,1301.1484 Q60.8594,1300.9766 60.75,1300.5234 Q60.7031,1300.2109 60.5313,1300.0391 Q60.2188,1299.7109 59.6563,1299.5234 Q59.0938,1299.3203 58.5313,1299.3203 Q57.8281,1299.3203 57.2344,1299.6016 Q56.6563,1299.8828 56.2031,1300.5078 Q55.75,1301.1328 55.75,1301.9922 L55.75,1302.9141 Q55.75,1303.9453 56.5938,1304.6328 Q57.4375,1305.3203 58.9375,1305.3203 Q59.8281,1305.3203 60.4531,1305.1172 Q60.8125,1305.0078 61.2188,1304.6484 Q61.4844,1304.4453 61.625,1304.3828 Q61.7656,1304.3203 61.9375,1304.3203 Q62.2656,1304.3203 62.5,1304.5859 Q62.75,1304.8359 62.75,1305.1953 Q62.75,1305.5391 62.4063,1305.9453 Q61.9063,1306.5391 61.1094,1306.8672 Q60.0625,1307.3203 58.7813,1307.3203 Q57.2813,1307.3203 56.0781,1306.7266 Q55.1094,1306.2578 54.4219,1305.2422 Q53.75,1304.2266 53.75,1303.0234 L53.75,1301.9297 Q53.75,1300.6797 54.3438,1299.5859 Q54.9531,1298.4922 56,1297.9141 Q57.0625,1297.3203 58.25,1297.3203 Q58.9688,1297.3203 59.5938,1297.5703 Q60.2188,1297.8203 60.75,1298.3203 Z " fill="#000000"/><text fill="#000000" font-family="sans-serif" font-size="18" lengthAdjust="spacing" textLength="96" x="81.25" y="1309.1855">AuthFacade</text><line style="stroke:#A80036;stroke-width:1.5;" x1="8" x2="218" y1="1320.1406" y2="1320.1406"/><line style="stroke:#A80036;stroke-width:1.5;" x1="8" x2="218" y1="1328.1406" y2="1328.1406"/><text fill="#000000" font-family="sans-serif" font-size="11" lengthAdjust="spacing" textLength="79" x="15" y="1345.5596">+getUserRoles()</text><text fill="#000000" font-family="sans-serif" font-size="11" lengthAdjust="spacing" textLength="196" x="15" y="1363.3955">+addUserWithRole(name,email,pwd,role)</text><text fill="#000000" font-family="sans-serif" font-size="11" lengthAdjust="spacing" textLength="90" x="15" y="1381.2314">+existsUser(email)</text><!--MD5=[9a2889027d1a5f59ee05c53124f224f8]
class PasswordGenerator--><rect codeLine="76" fill="#FEFECE" filter="url(#fp3pcyn533wei)" height="70.4766" id="PasswordGenerator" style="stroke:#A80036;stroke-width:1.5;" width="196" x="732" y="975.5"/><ellipse cx="747" cy="993.8203" fill="#B4A7E5" rx="11" ry="11" style="stroke:#A80036;stroke-width:1.0;"/><path d="M748,990.8203 L748,996.8203 L750,996.8203 L750.4844,996.8203 L751,997.4453 L751,997.8203 L751,998.1953 L750.4844,998.8203 L750,998.8203 L744,998.8203 L743.5156,998.8203 L743,998.1953 L743,997.8203 L743,997.4453 L743.5156,996.8203 L744,996.8203 L746,996.8203 L746,990.8203 L744,990.8203 L743.5156,990.8203 L743,990.1953 L743,989.8203 L743,989.4453 L743.5156,988.8203 L744,988.8203 L750,988.8203 L750.4844,988.8203 L751,989.4453 L751,989.8203 L751,990.1953 L750.4844,990.8203 L750,990.8203 L748,990.8203 Z " fill="#000000"/><text fill="#000000" font-family="sans-serif" font-size="18" font-style="italic" lengthAdjust="spacing" textLength="160" x="763" y="1001.1855">PasswordGenerator</text><line style="stroke:#A80036;stroke-width:1.5;" x1="733" x2="927" y1="1012.1406" y2="1012.1406"/><line style="stroke:#A80036;stroke-width:1.5;" x1="733" x2="927" y1="1020.1406" y2="1020.1406"/><text fill="#000000" font-family="sans-serif" font-size="11" lengthAdjust="spacing" textLength="164" x="740" y="1037.5596">-passwordGenerator(name,email)</text><!--MD5=[1607d1a70f046fb6f069cf8c3b040e6d]
class RegisterEmployee--><rect codeLine="80" fill="#FEFECE" filter="url(#fp3pcyn533wei)" height="195.3281" id="RegisterEmployee" style="stroke:#A80036;stroke-width:1.5;" width="460" x="166" y="913"/><ellipse cx="316.75" cy="931.3203" fill="#ADD1B2" rx="11" ry="11" style="stroke:#A80036;stroke-width:1.0;"/><path d="M318.75,927.8203 Q318.9531,927.3203 319.1875,927.0703 Q319.4219,926.8203 319.6875,926.8203 Q320.1563,926.8203 320.4531,927.1016 Q320.75,927.3828 320.75,928.0391 L320.75,929.6016 Q320.75,930.2578 320.4688,930.5391 Q320.1875,930.8203 319.75,930.8203 Q319.3594,930.8203 319.1094,930.6484 Q318.8594,930.4766 318.75,930.0234 Q318.7031,929.7109 318.5313,929.5391 Q318.2188,929.2109 317.6563,929.0234 Q317.0938,928.8203 316.5313,928.8203 Q315.8281,928.8203 315.2344,929.1016 Q314.6563,929.3828 314.2031,930.0078 Q313.75,930.6328 313.75,931.4922 L313.75,932.4141 Q313.75,933.4453 314.5938,934.1328 Q315.4375,934.8203 316.9375,934.8203 Q317.8281,934.8203 318.4531,934.6172 Q318.8125,934.5078 319.2188,934.1484 Q319.4844,933.9453 319.625,933.8828 Q319.7656,933.8203 319.9375,933.8203 Q320.2656,933.8203 320.5,934.0859 Q320.75,934.3359 320.75,934.6953 Q320.75,935.0391 320.4063,935.4453 Q319.9063,936.0391 319.1094,936.3672 Q318.0625,936.8203 316.7813,936.8203 Q315.2813,936.8203 314.0781,936.2266 Q313.1094,935.7578 312.4219,934.7422 Q311.75,933.7266 311.75,932.5234 L311.75,931.4297 Q311.75,930.1797 312.3438,929.0859 Q312.9531,927.9922 314,927.4141 Q315.0625,926.8203 316.25,926.8203 Q316.9688,926.8203 317.5938,927.0703 Q318.2188,927.3203 318.75,927.8203 Z " fill="#000000"/><text fill="#000000" font-family="sans-serif" font-size="18" lengthAdjust="spacing" textLength="146" x="339.25" y="938.6855">RegisterEmployee</text><line style="stroke:#A80036;stroke-width:1.5;" x1="167" x2="625" y1="949.6406" y2="949.6406"/><text fill="#000000" font-family="sans-serif" font-size="11" lengthAdjust="spacing" textLength="141" x="174" y="967.0596">-List&lt;Employee&gt; listEmployee</text><text fill="#000000" font-family="sans-serif" font-size="11" lengthAdjust="spacing" textLength="123" x="174" y="984.8955">-AuthFacade authFacade</text><line style="stroke:#A80036;stroke-width:1.5;" x1="167" x2="625" y1="993.3125" y2="993.3125"/><text fill="#000000" font-family="sans-serif" font-size="11" lengthAdjust="spacing" textLength="444" x="174" y="1010.7314">+newEmployee(name, address,phoneNumber, emailAddress,citizenCardNumber,roleChoice)</text><text fill="#000000" font-family="sans-serif" font-size="11" lengthAdjust="spacing" textLength="143" x="174" y="1028.5674">+registerEmployee(employee)</text><text fill="#000000" font-family="sans-serif" font-size="11" lengthAdjust="spacing" textLength="122" x="174" y="1046.4033">-addEmployee(employee)</text><text fill="#000000" font-family="sans-serif" font-size="11" lengthAdjust="spacing" textLength="143" x="174" y="1064.2393">+validateEmployee(employee)</text><text fill="#000000" font-family="sans-serif" font-size="11" lengthAdjust="spacing" textLength="113" x="174" y="1082.0752">+passwordGenerator()</text><text fill="#000000" font-family="sans-serif" font-size="11" lengthAdjust="spacing" textLength="56" x="174" y="1099.9111">+getRoles()</text><!--MD5=[3fd241ca11f270f6bde54c00b8a8581a]
link RegisterEmployeeUI to RegisterEmployeeController--><path codeLine="96" d="M352,60.31 C352,84.15 352,121.04 352,155.86 " fill="none" id="RegisterEmployeeUI-to-RegisterEmployeeController" style="stroke:#A80036;stroke-width:1.0;stroke-dasharray:7.0,7.0;"/><polygon fill="#A80036" points="352,160.98,356,151.98,352,155.98,348,151.98,352,160.98" style="stroke:#A80036;stroke-width:1.0;"/><!--MD5=[969ee03aa52aee79b0e607297418cbd4]
link RegisterEmployeeController to Company--><path codeLine="97" d="M258.85,338.01 C224.23,370.53 185.93,406.51 155.18,435.41 " fill="none" id="RegisterEmployeeController-to-Company" style="stroke:#A80036;stroke-width:1.0;stroke-dasharray:7.0,7.0;"/><polygon fill="#A80036" points="151.46,438.89,160.7616,435.6527,155.1077,435.4703,155.2901,429.8164,151.46,438.89" style="stroke:#A80036;stroke-width:1.0;"/><!--MD5=[97395f67feccdedc941f19c91367cdec]
link RegisterEmployeeController to Platform--><path codeLine="98" d="M360.7,338.06 C364.19,397.29 364.18,476.84 348,545 C338.28,585.96 318.32,628.43 299.77,662.14 " fill="none" id="RegisterEmployeeController-to-Platform" style="stroke:#A80036;stroke-width:1.0;stroke-dasharray:7.0,7.0;"/><polygon fill="#A80036" points="297.28,666.62,305.1474,660.6952,299.7082,662.2492,298.1542,656.81,297.28,666.62" style="stroke:#A80036;stroke-width:1.0;"/><!--MD5=[6a744cf3b6afae20336255b80b7b1c31]
link RegisterEmployeeController to App--><path codeLine="99" d="M318.16,338.01 C305.79,370 292.12,405.34 281.05,433.99 " fill="none" id="RegisterEmployeeController-to-App" style="stroke:#A80036;stroke-width:1.0;stroke-dasharray:7.0,7.0;"/><polygon fill="#A80036" points="279.15,438.89,286.1256,431.9373,280.9526,434.2262,278.6636,429.0532,279.15,438.89" style="stroke:#A80036;stroke-width:1.0;"/><!--MD5=[7c63a46d16d075ca7ac66937a2a499f7]
link RegisterEmployeeController to Employee--><path codeLine="100" d="M579.56,338.25 C635.15,375 679,424.93 679,491 C679,491 679,491 679,1011.5 C679,1083.76 661.94,1163.02 644.55,1225.07 " fill="none" id="RegisterEmployeeController-to-Employee" style="stroke:#A80036;stroke-width:1.0;stroke-dasharray:7.0,7.0;"/><polygon fill="#A80036" points="643.19,1229.88,649.4819,1222.3029,644.5466,1225.0676,641.782,1220.1323,643.19,1229.88" style="stroke:#A80036;stroke-width:1.0;"/><!--MD5=[846ef78f8eee1a2979415b282d87ba96]
link App to Platform--><path codeLine="101" d="M259,545.15 C259,579.44 259,624.6 259,661.46 " fill="none" id="App-to-Platform" style="stroke:#A80036;stroke-width:1.0;stroke-dasharray:7.0,7.0;"/><polygon fill="#A80036" points="259,666.84,263,657.84,259,661.84,255,657.84,259,666.84" style="stroke:#A80036;stroke-width:1.0;"/><!--MD5=[45628f1328460b055b9a5c61b7bfe2b6]
link Platform to AuthFacade--><path codeLine="102" d="M211.96,791.25 C188.5,825.23 162.17,869.35 148,913 C107.3,1038.36 106.41,1195.06 109.56,1277.93 " fill="none" id="Platform-to-AuthFacade" style="stroke:#A80036;stroke-width:1.0;stroke-dasharray:7.0,7.0;"/><polygon fill="#A80036" points="109.77,1283.28,113.4071,1274.1273,109.5702,1278.284,105.4135,1274.4471,109.77,1283.28" style="stroke:#A80036;stroke-width:1.0;"/><!--MD5=[e31dfec65b41b6cdbd73dd9a2a6f4eb3]
link RegisterEmployee to AuthFacade--><path codeLine="103" d="M311.47,1108.27 C262.68,1164.13 203.04,1232.42 161.95,1279.46 " fill="none" id="RegisterEmployee-to-AuthFacade" style="stroke:#A80036;stroke-width:1.0;stroke-dasharray:7.0,7.0;"/><polygon fill="#A80036" points="158.53,1283.38,167.4657,1279.2384,161.8215,1279.6162,161.4437,1273.972,158.53,1283.38" style="stroke:#A80036;stroke-width:1.0;"/><!--MD5=[717d4b03d3c4372f4eafe5e342a0a7dd]
link Company to AuthFacade--><path codeLine="104" d="M95.36,545.17 C94.18,659.97 92.6,943.13 102,1180 C103.29,1212.59 105.81,1248.97 108.11,1278.33 " fill="none" id="Company-to-AuthFacade" style="stroke:#A80036;stroke-width:1.0;stroke-dasharray:7.0,7.0;"/><polygon fill="#A80036" points="108.5,1283.36,111.7674,1274.0689,108.1001,1278.376,103.7931,1274.7087,108.5,1283.36" style="stroke:#A80036;stroke-width:1.0;"/><!--MD5=[82a4b7bcab5e9a924dbddbe7fe0c2fdc]
link RegisterEmployee to PasswordGenerator--><path codeLine="105" d="M626.14,1010.5 C659.52,1010.5 692.91,1010.5 726.29,1010.5 " fill="none" id="RegisterEmployee-to-PasswordGenerator" style="stroke:#A80036;stroke-width:1.0;"/><polygon fill="#A80036" points="731.65,1010.5,722.65,1006.5,726.65,1010.5,722.65,1014.5,731.65,1010.5" style="stroke:#A80036;stroke-width:1.0;"/><!--MD5=[9a80ca622aa33540c5ebfb66ac08c660]
link Platform to RegisterEmployee--><path codeLine="106" d="M289.07,791.34 C305.83,825.54 327.14,869.01 346.31,908.13 " fill="none" id="Platform-to-RegisterEmployee" style="stroke:#A80036;stroke-width:1.0;"/><polygon fill="#A80036" points="348.64,912.88,348.2683,903.0382,346.4383,908.3908,341.0856,906.5609,348.64,912.88" style="stroke:#A80036;stroke-width:1.0;"/><polygon fill="#000000" points="331.2005,856.6655,329.8588,847.2501,324.5808,849.8369,331.2005,856.6655" style="stroke:#000000;stroke-width:1.0;"/><text fill="#000000" font-family="sans-serif" font-size="13" lengthAdjust="spacing" textLength="21" x="340" y="857.4951">has</text><text fill="#000000" font-family="sans-serif" font-size="13" lengthAdjust="spacing" textLength="7" x="282.6038" y="814.3141">1</text><text fill="#000000" font-family="sans-serif" font-size="13" lengthAdjust="spacing" textLength="7" x="335.5929" y="900.1364">1</text><!--MD5=[eab00be0507a9170c24b1176aa61d4c9]
link RegisterEmployee to Employee--><path codeLine="107" d="M459.32,1108.27 C484.63,1146.95 513.84,1191.59 539.63,1231.01 " fill="none" id="RegisterEmployee-to-Employee" style="stroke:#A80036;stroke-width:1.0;"/><polygon fill="#A80036" points="542.43,1235.3,540.8428,1225.5799,539.6895,1231.1179,534.1515,1229.9646,542.43,1235.3" style="stroke:#A80036;stroke-width:1.0;"/><polygon fill="#000000" points="509.7376,1173.3597,507.2445,1164.1818,502.326,1167.4,509.7376,1173.3597" style="stroke:#000000;stroke-width:1.0;"/><text fill="#000000" font-family="sans-serif" font-size="13" lengthAdjust="spacing" textLength="37" x="518" y="1174.4951">knows</text><text fill="#000000" font-family="sans-serif" font-size="13" lengthAdjust="spacing" textLength="7" x="454.5662" y="1131.6803">1</text><text fill="#000000" font-family="sans-serif" font-size="13" lengthAdjust="spacing" textLength="5" x="527.3282" y="1217.9485">*</text><!--MD5=[98f7f3dc8d9719d04ad14614c4ea123f]
reverse link Employee to CenterCoordinator--><path codeLine="108" d="M555.35,1462.15 C542.23,1493.2 529.46,1523.43 520.84,1543.85 " fill="none" id="Employee-backto-CenterCoordinator" style="stroke:#A80036;stroke-width:1.0;"/><polygon fill="none" points="549.07,1459.02,563.3,1443.32,561.97,1464.46,549.07,1459.02" style="stroke:#A80036;stroke-width:1.0;"/><!--MD5=[f7fb1bbd8b4f4021e9754ae6fe2871a0]
reverse link Employee to Administrator--><path codeLine="109" d="M526.22,1401.81 C466.46,1448.81 388.61,1510.04 345.44,1543.99 " fill="none" id="Employee-backto-Administrator" style="stroke:#A80036;stroke-width:1.0;"/><polygon fill="none" points="522.12,1396.14,542.16,1389.28,530.77,1407.14,522.12,1396.14" style="stroke:#A80036;stroke-width:1.0;"/><!--MD5=[6716344a46572fc99c27bf4e50ddbd3d]
reverse link Employee to Nurse--><path codeLine="110" d="M688.3,1414.48 C735.03,1459.28 790.93,1512.87 823.26,1543.87 " fill="none" id="Employee-backto-Nurse" style="stroke:#A80036;stroke-width:1.0;"/><polygon fill="none" points="683.4,1419.48,673.81,1400.59,693.09,1409.38,683.4,1419.48" style="stroke:#A80036;stroke-width:1.0;"/><!--MD5=[bfff716514ca687b645fe473c6e098a4]
reverse link Employee to Receptionist--><path codeLine="111" d="M660.12,1462.15 C673.1,1493.2 685.74,1523.43 694.27,1543.85 " fill="none" id="Employee-backto-Receptionist" style="stroke:#A80036;stroke-width:1.0;"/><polygon fill="none" points="653.5,1464.47,652.24,1443.32,666.42,1459.07,653.5,1464.47" style="stroke:#A80036;stroke-width:1.0;"/><!--MD5=[71da4be24892bfec694db06bf9e3c284]
link Company to Platform--><path codeLine="112" d="M132.17,545.15 C156.15,579.72 187.8,625.34 213.48,662.37 " fill="none" id="Company-to-Platform" style="stroke:#A80036;stroke-width:1.0;"/><polygon fill="#A80036" points="216.58,666.84,214.7546,657.1618,213.7377,662.7265,208.173,661.7095,216.58,666.84" style="stroke:#A80036;stroke-width:1.0;"/><polygon fill="#000000" points="185.8498,610.2842,183.1093,601.177,178.2796,604.5271,185.8498,610.2842" style="stroke:#000000;stroke-width:1.0;"/><text fill="#000000" font-family="sans-serif" font-size="13" lengthAdjust="spacing" textLength="21" x="194" y="611.4951">has</text><text fill="#000000" font-family="sans-serif" font-size="13" lengthAdjust="spacing" textLength="7" x="127.0996" y="568.7492">1</text><text fill="#000000" font-family="sans-serif" font-size="13" lengthAdjust="spacing" textLength="7" x="202.0393" y="654.0128">1</text><!--MD5=[731eaebe8659fc9d0417b7c57f570854]
@startuml
'https://plantuml.com/class-diagram

skinparam classAttributeIconSize 0
skinparam padding 2
skinparam ranksep 100
skinparam classFontSize 18

class Administrator

class CenterCoordinator

class Receptionist

class Nurse

class Company {
-designation
+getPlatform()
+getAuthFacade()
}


class Platform
{

-description
-RegisterEmployee m_oRegisterEmployee;
+getRegisterEmployee()
+initializeRegisters(AuthFacade authFacade)
}


class Employee
{
  -id
  -name;
  -address;
  -phoneNumber;
  -emailAddress;
  -citizenCardNumber;
  -{static}count_num_employees
  +getEmail()
  +getName()

}

class RegisterEmployeeUI
class RegisterEmployeeController
{
   -App m_oApp
   -Platform m_oPlatform
   -Employee m_oEmployee;
   +getRoles()
   +newEmployee(name, address,phoneNumber, emailAddress,citizenCardNumber,roleChoice)
   +registerEmployee()
   +getEmployeeString()

}

class App
{
    +getCompany()
    +getCurrentUserSession()
    +{static} static getInstance()

}

class AuthFacade
{
+getUserRoles()
+addUserWithRole(name,email,pwd,role)
+existsUser(email)

}

interface PasswordGenerator{
-passwordGenerator(name,email)
}

class RegisterEmployee
{
-List<Employee> listEmployee
-AuthFacade authFacade
+newEmployee(name, address,phoneNumber, emailAddress,citizenCardNumber,roleChoice)
+registerEmployee(employee)
-addEmployee(employee)
+validateEmployee(employee)
+passwordGenerator()
+getRoles()

}




RegisterEmployeeUI ..> RegisterEmployeeController
RegisterEmployeeController ..> Company
RegisterEmployeeController ..> Platform
RegisterEmployeeController ..> App
RegisterEmployeeController ..> Employee
App ..> Platform
Platform ..> AuthFacade
RegisterEmployee ..> AuthFacade
Company ..> AuthFacade
RegisterEmployee -> PasswordGenerator
Platform "1" - -> "1" RegisterEmployee : has >
RegisterEmployee "1" - -> "*" Employee : knows >
Employee <|- - CenterCoordinator
Employee <|- - Administrator
Employee <|- - Nurse
Employee <|- - Receptionist
Company "1" - -> "1" Platform : has >



@enduml

@startuml

skinparam classAttributeIconSize 0
skinparam padding 2
skinparam ranksep 100
skinparam classFontSize 18

class Administrator

class CenterCoordinator

class Receptionist

class Nurse

class Company {
-designation
+getPlatform()
+getAuthFacade()
}


class Platform
{

-description
-RegisterEmployee m_oRegisterEmployee;
+getRegisterEmployee()
+initializeRegisters(AuthFacade authFacade)
}


class Employee
{
  -id
  -name;
  -address;
  -phoneNumber;
  -emailAddress;
  -citizenCardNumber;
  -{static}count_num_employees
  +getEmail()
  +getName()

}

class RegisterEmployeeUI
class RegisterEmployeeController
{
   -App m_oApp
   -Platform m_oPlatform
   -Employee m_oEmployee;
   +getRoles()
   +newEmployee(name, address,phoneNumber, emailAddress,citizenCardNumber,roleChoice)
   +registerEmployee()
   +getEmployeeString()

}

class App
{
    +getCompany()
    +getCurrentUserSession()
    +{static} static getInstance()

}

class AuthFacade
{
+getUserRoles()
+addUserWithRole(name,email,pwd,role)
+existsUser(email)

}

interface PasswordGenerator{
-passwordGenerator(name,email)
}

class RegisterEmployee
{
-List<Employee> listEmployee
-AuthFacade authFacade
+newEmployee(name, address,phoneNumber, emailAddress,citizenCardNumber,roleChoice)
+registerEmployee(employee)
-addEmployee(employee)
+validateEmployee(employee)
+passwordGenerator()
+getRoles()

}




RegisterEmployeeUI ..> RegisterEmployeeController
RegisterEmployeeController ..> Company
RegisterEmployeeController ..> Platform
RegisterEmployeeController ..> App
RegisterEmployeeController ..> Employee
App ..> Platform
Platform ..> AuthFacade
RegisterEmployee ..> AuthFacade
Company ..> AuthFacade
RegisterEmployee -> PasswordGenerator
Platform "1" - -> "1" RegisterEmployee : has >
RegisterEmployee "1" - -> "*" Employee : knows >
Employee <|- - CenterCoordinator
Employee <|- - Administrator
Employee <|- - Nurse
Employee <|- - Receptionist
Company "1" - -> "1" Platform : has >



@enduml

PlantUML version 1.2022.1(Tue Feb 01 18:19:58 GMT 2022)
(GPL source distribution)
Java Runtime: OpenJDK Runtime Environment
JVM: OpenJDK 64-Bit Server VM
Default Encoding: Cp1252
Language: en
Country: US
--></g></svg>