<?xml version="1.0" encoding="UTF-8" standalone="no"?><svg xmlns="http://www.w3.org/2000/svg" xmlns:xlink="http://www.w3.org/1999/xlink" contentStyleType="text/css" height="427px" preserveAspectRatio="none" style="width:426px;height:427px;background:#FFFFFF;" version="1.1" viewBox="0 0 426 427" width="426px" zoomAndPan="magnify"><defs/><g><rect fill="#FFFFFF" height="243.8125" style="stroke:#181818;stroke-width:1.0;" width="10" x="64" y="92.6094"/><rect fill="#FFFFFF" height="30.3516" style="stroke:#181818;stroke-width:1.0;" width="10" x="385" y="114.9609"/><rect fill="#FFFFFF" height="30.3516" style="stroke:#181818;stroke-width:1.0;" width="10" x="385" y="175.6641"/><rect fill="#FFFFFF" height="30.3516" style="stroke:#181818;stroke-width:1.0;" width="10" x="385" y="236.3672"/><rect fill="#FFFFFF" height="30.3516" style="stroke:#181818;stroke-width:1.0;" width="10" x="385" y="297.0703"/><line style="stroke:#181818;stroke-width:0.5;stroke-dasharray:5.0,5.0;" x1="69" x2="69" y1="82.6094" y2="345.4219"/><line style="stroke:#181818;stroke-width:0.5;stroke-dasharray:5.0,5.0;" x1="390" x2="390" y1="82.6094" y2="345.4219"/><text fill="#000000" font-family="sans-serif" font-size="14" lengthAdjust="spacing" textLength="122" x="5" y="79.5332">Center Coordinator</text><ellipse cx="69" cy="13.5" fill="#E2E2F0" rx="8" ry="8" style="stroke:#181818;stroke-width:0.5;"/><path d="M69,21.5 L69,48.5 M56,29.5 L82,29.5 M69,48.5 L56,63.5 M69,48.5 L82,63.5 " fill="none" style="stroke:#181818;stroke-width:0.5;"/><text fill="#000000" font-family="sans-serif" font-size="14" lengthAdjust="spacing" textLength="122" x="5" y="358.9551">Center Coordinator</text><ellipse cx="69" cy="370.5313" fill="#E2E2F0" rx="8" ry="8" style="stroke:#181818;stroke-width:0.5;"/><path d="M69,378.5313 L69,405.5313 M56,386.5313 L82,386.5313 M69,405.5313 L56,420.5313 M69,405.5313 L82,420.5313 " fill="none" style="stroke:#181818;stroke-width:0.5;"/><rect fill="#E2E2F0" height="31.6094" rx="2.5" ry="2.5" style="stroke:#181818;stroke-width:0.5;" width="60" x="360" y="50"/><text fill="#000000" font-family="sans-serif" font-size="14" lengthAdjust="spacing" textLength="46" x="367" y="71.5332">System</text><rect fill="#E2E2F0" height="31.6094" rx="2.5" ry="2.5" style="stroke:#181818;stroke-width:0.5;" width="60" x="360" y="344.4219"/><text fill="#000000" font-family="sans-serif" font-size="14" lengthAdjust="spacing" textLength="46" x="367" y="365.9551">System</text><rect fill="#FFFFFF" height="243.8125" style="stroke:#181818;stroke-width:1.0;" width="10" x="64" y="92.6094"/><rect fill="#FFFFFF" height="30.3516" style="stroke:#181818;stroke-width:1.0;" width="10" x="385" y="114.9609"/><rect fill="#FFFFFF" height="30.3516" style="stroke:#181818;stroke-width:1.0;" width="10" x="385" y="175.6641"/><rect fill="#FFFFFF" height="30.3516" style="stroke:#181818;stroke-width:1.0;" width="10" x="385" y="236.3672"/><rect fill="#FFFFFF" height="30.3516" style="stroke:#181818;stroke-width:1.0;" width="10" x="385" y="297.0703"/><polygon fill="#181818" points="373,110.9609,383,114.9609,373,118.9609,377,114.9609" style="stroke:#181818;stroke-width:1.0;"/><line style="stroke:#181818;stroke-width:1.0;" x1="74" x2="379" y1="114.9609" y2="114.9609"/><text fill="#000000" font-family="sans-serif" font-size="13" font-weight="bold" lengthAdjust="spacing" textLength="7" x="81" y="110.1045">1</text><text fill="#000000" font-family="sans-serif" font-size="13" lengthAdjust="spacing" textLength="281" x="92" y="110.1045">starts importing the data from the legacy system</text><polygon fill="#181818" points="85,141.3125,75,145.3125,85,149.3125,81,145.3125" style="stroke:#181818;stroke-width:1.0;"/><line style="stroke:#181818;stroke-width:1.0;stroke-dasharray:2.0,2.0;" x1="79" x2="389" y1="145.3125" y2="145.3125"/><text fill="#000000" font-family="sans-serif" font-size="13" font-weight="bold" lengthAdjust="spacing" textLength="7" x="91" y="140.4561">2</text><text fill="#000000" font-family="sans-serif" font-size="13" lengthAdjust="spacing" textLength="170" x="102" y="140.4561">asks for the absolute file path</text><polygon fill="#181818" points="373,171.6641,383,175.6641,373,179.6641,377,175.6641" style="stroke:#181818;stroke-width:1.0;"/><line style="stroke:#181818;stroke-width:1.0;" x1="74" x2="379" y1="175.6641" y2="175.6641"/><text fill="#000000" font-family="sans-serif" font-size="13" font-weight="bold" lengthAdjust="spacing" textLength="7" x="81" y="170.8076">3</text><text fill="#000000" font-family="sans-serif" font-size="13" lengthAdjust="spacing" textLength="159" x="92" y="170.8076">inputs the absolute file path</text><polygon fill="#181818" points="85,202.0156,75,206.0156,85,210.0156,81,206.0156" style="stroke:#181818;stroke-width:1.0;"/><line style="stroke:#181818;stroke-width:1.0;stroke-dasharray:2.0,2.0;" x1="79" x2="389" y1="206.0156" y2="206.0156"/><text fill="#000000" font-family="sans-serif" font-size="13" font-weight="bold" lengthAdjust="spacing" textLength="7" x="91" y="201.1592">4</text><text fill="#000000" font-family="sans-serif" font-size="13" lengthAdjust="spacing" textLength="221" x="102" y="201.1592">show list of files and ask to select one</text><polygon fill="#181818" points="373,232.3672,383,236.3672,373,240.3672,377,236.3672" style="stroke:#181818;stroke-width:1.0;"/><line style="stroke:#181818;stroke-width:1.0;" x1="74" x2="379" y1="236.3672" y2="236.3672"/><text fill="#000000" font-family="sans-serif" font-size="13" font-weight="bold" lengthAdjust="spacing" textLength="7" x="81" y="231.5107">5</text><text fill="#000000" font-family="sans-serif" font-size="13" lengthAdjust="spacing" textLength="137" x="92" y="231.5107">selects the intended file</text><polygon fill="#181818" points="85,262.7188,75,266.7188,85,270.7188,81,266.7188" style="stroke:#181818;stroke-width:1.0;"/><line style="stroke:#181818;stroke-width:1.0;stroke-dasharray:2.0,2.0;" x1="79" x2="389" y1="266.7188" y2="266.7188"/><text fill="#000000" font-family="sans-serif" font-size="13" font-weight="bold" lengthAdjust="spacing" textLength="7" x="91" y="261.8623">6</text><text fill="#000000" font-family="sans-serif" font-size="13" lengthAdjust="spacing" textLength="200" x="102" y="261.8623">requests confirmation of the import</text><polygon fill="#181818" points="373,293.0703,383,297.0703,373,301.0703,377,297.0703" style="stroke:#181818;stroke-width:1.0;"/><line style="stroke:#181818;stroke-width:1.0;" x1="74" x2="379" y1="297.0703" y2="297.0703"/><text fill="#000000" font-family="sans-serif" font-size="13" font-weight="bold" lengthAdjust="spacing" textLength="7" x="81" y="292.2139">7</text><text fill="#000000" font-family="sans-serif" font-size="13" lengthAdjust="spacing" textLength="111" x="92" y="292.2139">confirms the import</text><polygon fill="#181818" points="85,323.4219,75,327.4219,85,331.4219,81,327.4219" style="stroke:#181818;stroke-width:1.0;"/><line style="stroke:#181818;stroke-width:1.0;stroke-dasharray:2.0,2.0;" x1="79" x2="389" y1="327.4219" y2="327.4219"/><text fill="#000000" font-family="sans-serif" font-size="13" font-weight="bold" lengthAdjust="spacing" textLength="7" x="91" y="322.5654">8</text><text fill="#000000" font-family="sans-serif" font-size="13" lengthAdjust="spacing" textLength="152" x="102" y="322.5654">informs operation success</text><!--MD5=[eb67fc73b7ec1f7631cd183e1d96aea6]
@startuml

autonumber

actor "Center Coordinator" as CC
participant "System" as SYS

'1
activate CC
CC -> SYS: starts importing the data from the legacy system
activate SYS

'9
SYS - -> CC: asks for the absolute file path
deactivate SYS

'10
CC -> SYS: inputs the absolute file path
activate SYS

'15
SYS - -> CC : show list of files and ask to select one
deactivate SYS

'16
CC -> SYS : selects the intended file
activate SYS

'17
SYS - -> CC: requests confirmation of the import
deactivate SYS

'18
CC -> SYS: confirms the import
activate SYS

'26
SYS - -> CC: informs operation success
deactivate SYS
@enduml

@startuml

autonumber

actor "Center Coordinator" as CC
participant "System" as SYS

activate CC
CC -> SYS: starts importing the data from the legacy system
activate SYS

SYS - -> CC: asks for the absolute file path
deactivate SYS

CC -> SYS: inputs the absolute file path
activate SYS

SYS - -> CC : show list of files and ask to select one
deactivate SYS

CC -> SYS : selects the intended file
activate SYS

SYS - -> CC: requests confirmation of the import
deactivate SYS

CC -> SYS: confirms the import
activate SYS

SYS - -> CC: informs operation success
deactivate SYS
@enduml

PlantUML version 1.2022.5(Sat Apr 30 11:55:52 BST 2022)
(GPL source distribution)
Java Runtime: OpenJDK Runtime Environment
JVM: OpenJDK 64-Bit Server VM
Default Encoding: Cp1252
Language: pt
Country: PT
--></g></svg>