<?xml version="1.0" encoding="UTF-8" standalone="no"?><svg xmlns="http://www.w3.org/2000/svg" xmlns:xlink="http://www.w3.org/1999/xlink" contentStyleType="text/css" height="538px" preserveAspectRatio="none" style="width:862px;height:538px;background:#FFFFFF;" version="1.1" viewBox="0 0 862 538" width="862px" zoomAndPan="magnify"><defs/><g><!--MD5=[2d935fd2dd068a13da1ae531f9857c4f]
class CenterCoordinator--><g id="elem_CenterCoordinator"><rect codeLine="10" fill="#F1F1F1" height="44.6406" id="CenterCoordinator" rx="2.5" ry="2.5" style="stroke:#181818;stroke-width:0.5;" width="184" x="305" y="246.5"/><ellipse cx="320" cy="264.8203" fill="#ADD1B2" rx="11" ry="11" style="stroke:#181818;stroke-width:1.0;"/><path d="M322,261.3203 Q322.2031,260.8203 322.4375,260.5703 Q322.6719,260.3203 322.9375,260.3203 Q323.4063,260.3203 323.7031,260.6016 Q324,260.8828 324,261.5391 L324,263.1016 Q324,263.7578 323.7188,264.0391 Q323.4375,264.3203 323,264.3203 Q322.6094,264.3203 322.3594,264.1484 Q322.1094,263.9766 322,263.5234 Q321.9531,263.2109 321.7813,263.0391 Q321.4688,262.7109 320.9063,262.5234 Q320.3438,262.3203 319.7813,262.3203 Q319.0781,262.3203 318.4844,262.6016 Q317.9063,262.8828 317.4531,263.5078 Q317,264.1328 317,264.9922 L317,265.9141 Q317,266.9453 317.8438,267.6328 Q318.6875,268.3203 320.1875,268.3203 Q321.0781,268.3203 321.7031,268.1172 Q322.0625,268.0078 322.4688,267.6484 Q322.7344,267.4453 322.875,267.3828 Q323.0156,267.3203 323.1875,267.3203 Q323.5156,267.3203 323.75,267.5859 Q324,267.8359 324,268.1953 Q324,268.5391 323.6563,268.9453 Q323.1563,269.5391 322.3594,269.8672 Q321.3125,270.3203 320.0313,270.3203 Q318.5313,270.3203 317.3281,269.7266 Q316.3594,269.2578 315.6719,268.2422 Q315,267.2266 315,266.0234 L315,264.9297 Q315,263.6797 315.5938,262.5859 Q316.2031,261.4922 317.25,260.9141 Q318.3125,260.3203 319.5,260.3203 Q320.2188,260.3203 320.8438,260.5703 Q321.4688,260.8203 322,261.3203 Z " fill="#000000"/><text fill="#000000" font-family="sans-serif" font-size="18" lengthAdjust="spacing" textLength="148" x="336" y="272.1855">CenterCoordinator</text><line style="stroke:#181818;stroke-width:0.5;" x1="306" x2="488" y1="283.1406" y2="283.1406"/></g><!--MD5=[de60e6d4f424ae4d0522096f76a59010]
class VaccinationCenter--><g id="elem_VaccinationCenter"><rect codeLine="12" fill="#F1F1F1" height="364.3281" id="VaccinationCenter" rx="2.5" ry="2.5" style="stroke:#181818;stroke-width:0.5;" width="183" x="672" y="7"/><ellipse cx="687.45" cy="25.3203" fill="#ADD1B2" rx="11" ry="11" style="stroke:#181818;stroke-width:1.0;"/><path d="M689.45,21.8203 Q689.6531,21.3203 689.8875,21.0703 Q690.1219,20.8203 690.3875,20.8203 Q690.8563,20.8203 691.1531,21.1016 Q691.45,21.3828 691.45,22.0391 L691.45,23.6016 Q691.45,24.2578 691.1688,24.5391 Q690.8875,24.8203 690.45,24.8203 Q690.0594,24.8203 689.8094,24.6484 Q689.5594,24.4766 689.45,24.0234 Q689.4031,23.7109 689.2313,23.5391 Q688.9188,23.2109 688.3563,23.0234 Q687.7938,22.8203 687.2313,22.8203 Q686.5281,22.8203 685.9344,23.1016 Q685.3563,23.3828 684.9031,24.0078 Q684.45,24.6328 684.45,25.4922 L684.45,26.4141 Q684.45,27.4453 685.2938,28.1328 Q686.1375,28.8203 687.6375,28.8203 Q688.5281,28.8203 689.1531,28.6172 Q689.5125,28.5078 689.9188,28.1484 Q690.1844,27.9453 690.325,27.8828 Q690.4656,27.8203 690.6375,27.8203 Q690.9656,27.8203 691.2,28.0859 Q691.45,28.3359 691.45,28.6953 Q691.45,29.0391 691.1063,29.4453 Q690.6063,30.0391 689.8094,30.3672 Q688.7625,30.8203 687.4813,30.8203 Q685.9813,30.8203 684.7781,30.2266 Q683.8094,29.7578 683.1219,28.7422 Q682.45,27.7266 682.45,26.5234 L682.45,25.4297 Q682.45,24.1797 683.0438,23.0859 Q683.6531,21.9922 684.7,21.4141 Q685.7625,20.8203 686.95,20.8203 Q687.6688,20.8203 688.2938,21.0703 Q688.9188,21.3203 689.45,21.8203 Z " fill="#000000"/><text fill="#000000" font-family="sans-serif" font-size="18" lengthAdjust="spacing" textLength="146" x="703.55" y="32.6855">VaccinationCenter</text><line style="stroke:#181818;stroke-width:0.5;" x1="673" x2="854" y1="43.6406" y2="43.6406"/><text fill="#000000" font-family="sans-serif" font-size="18" lengthAdjust="spacing" textLength="44" x="680" y="68.3262">name</text><text fill="#000000" font-family="sans-serif" font-size="18" lengthAdjust="spacing" textLength="64" x="680" y="94.9668">address</text><text fill="#000000" font-family="sans-serif" font-size="18" lengthAdjust="spacing" textLength="113" x="680" y="121.6074">phoneNumber</text><text fill="#000000" font-family="sans-serif" font-size="18" lengthAdjust="spacing" textLength="107" x="680" y="148.248">emailAddress</text><text fill="#000000" font-family="sans-serif" font-size="18" lengthAdjust="spacing" textLength="86" x="680" y="174.8887">faxNumber</text><text fill="#000000" font-family="sans-serif" font-size="18" lengthAdjust="spacing" textLength="126" x="680" y="201.5293">websiteAddress</text><text fill="#000000" font-family="sans-serif" font-size="18" lengthAdjust="spacing" textLength="112" x="680" y="228.1699">openingHours</text><text fill="#000000" font-family="sans-serif" font-size="18" lengthAdjust="spacing" textLength="127" x="680" y="254.8105">openingMinutes</text><text fill="#000000" font-family="sans-serif" font-size="18" lengthAdjust="spacing" textLength="104" x="680" y="281.4512">closingHours</text><text fill="#000000" font-family="sans-serif" font-size="18" lengthAdjust="spacing" textLength="119" x="680" y="308.0918">closingMinutes</text><text fill="#000000" font-family="sans-serif" font-size="18" lengthAdjust="spacing" textLength="96" x="680" y="334.7324">slotDuration</text><text fill="#000000" font-family="sans-serif" font-size="18" lengthAdjust="spacing" textLength="167" x="680" y="361.373">maxNumberVaccines</text></g><!--MD5=[7421f545a0d8420c5bec41e74b387d9c]
class Employee--><g id="elem_Employee"><rect fill="#F1F1F1" height="44.6406" id="Employee" rx="2.5" ry="2.5" style="stroke:#181818;stroke-width:0.5;" width="115" x="7" y="367.5"/><ellipse cx="22" cy="385.8203" fill="#ADD1B2" rx="11" ry="11" style="stroke:#181818;stroke-width:1.0;"/><path d="M24,382.3203 Q24.2031,381.8203 24.4375,381.5703 Q24.6719,381.3203 24.9375,381.3203 Q25.4063,381.3203 25.7031,381.6016 Q26,381.8828 26,382.5391 L26,384.1016 Q26,384.7578 25.7188,385.0391 Q25.4375,385.3203 25,385.3203 Q24.6094,385.3203 24.3594,385.1484 Q24.1094,384.9766 24,384.5234 Q23.9531,384.2109 23.7813,384.0391 Q23.4688,383.7109 22.9063,383.5234 Q22.3438,383.3203 21.7813,383.3203 Q21.0781,383.3203 20.4844,383.6016 Q19.9063,383.8828 19.4531,384.5078 Q19,385.1328 19,385.9922 L19,386.9141 Q19,387.9453 19.8438,388.6328 Q20.6875,389.3203 22.1875,389.3203 Q23.0781,389.3203 23.7031,389.1172 Q24.0625,389.0078 24.4688,388.6484 Q24.7344,388.4453 24.875,388.3828 Q25.0156,388.3203 25.1875,388.3203 Q25.5156,388.3203 25.75,388.5859 Q26,388.8359 26,389.1953 Q26,389.5391 25.6563,389.9453 Q25.1563,390.5391 24.3594,390.8672 Q23.3125,391.3203 22.0313,391.3203 Q20.5313,391.3203 19.3281,390.7266 Q18.3594,390.2578 17.6719,389.2422 Q17,388.2266 17,387.0234 L17,385.9297 Q17,384.6797 17.5938,383.5859 Q18.2031,382.4922 19.25,381.9141 Q20.3125,381.3203 21.5,381.3203 Q22.2188,381.3203 22.8438,381.5703 Q23.4688,381.8203 24,382.3203 Z " fill="#000000"/><text fill="#000000" font-family="sans-serif" font-size="18" lengthAdjust="spacing" textLength="79" x="38" y="393.1855">Employee</text><line style="stroke:#181818;stroke-width:0.5;" x1="8" x2="121" y1="404.1406" y2="404.1406"/></g><!--MD5=[99b8db98afdc2c8404e39242ef4c1e65]
class Platform--><g id="elem_Platform"><rect fill="#F1F1F1" height="44.6406" id="Platform" rx="2.5" ry="2.5" style="stroke:#181818;stroke-width:0.5;" width="102" x="346" y="406.5"/><ellipse cx="361" cy="424.8203" fill="#ADD1B2" rx="11" ry="11" style="stroke:#181818;stroke-width:1.0;"/><path d="M363,421.3203 Q363.2031,420.8203 363.4375,420.5703 Q363.6719,420.3203 363.9375,420.3203 Q364.4063,420.3203 364.7031,420.6016 Q365,420.8828 365,421.5391 L365,423.1016 Q365,423.7578 364.7188,424.0391 Q364.4375,424.3203 364,424.3203 Q363.6094,424.3203 363.3594,424.1484 Q363.1094,423.9766 363,423.5234 Q362.9531,423.2109 362.7813,423.0391 Q362.4688,422.7109 361.9063,422.5234 Q361.3438,422.3203 360.7813,422.3203 Q360.0781,422.3203 359.4844,422.6016 Q358.9063,422.8828 358.4531,423.5078 Q358,424.1328 358,424.9922 L358,425.9141 Q358,426.9453 358.8438,427.6328 Q359.6875,428.3203 361.1875,428.3203 Q362.0781,428.3203 362.7031,428.1172 Q363.0625,428.0078 363.4688,427.6484 Q363.7344,427.4453 363.875,427.3828 Q364.0156,427.3203 364.1875,427.3203 Q364.5156,427.3203 364.75,427.5859 Q365,427.8359 365,428.1953 Q365,428.5391 364.6563,428.9453 Q364.1563,429.5391 363.3594,429.8672 Q362.3125,430.3203 361.0313,430.3203 Q359.5313,430.3203 358.3281,429.7266 Q357.3594,429.2578 356.6719,428.2422 Q356,427.2266 356,426.0234 L356,424.9297 Q356,423.6797 356.5938,422.5859 Q357.2031,421.4922 358.25,420.9141 Q359.3125,420.3203 360.5,420.3203 Q361.2188,420.3203 361.8438,420.5703 Q362.4688,420.8203 363,421.3203 Z " fill="#000000"/><text fill="#000000" font-family="sans-serif" font-size="18" lengthAdjust="spacing" textLength="66" x="377" y="432.1855">Platform</text><line style="stroke:#181818;stroke-width:0.5;" x1="347" x2="447" y1="443.1406" y2="443.1406"/></g><!--MD5=[0e501da62322464167c8ec4d233a6b7e]
class VaccineType--><g id="elem_VaccineType"><rect fill="#F1F1F1" height="44.6406" id="VaccineType" rx="2.5" ry="2.5" style="stroke:#181818;stroke-width:0.5;" width="140" x="693.5" y="406.5"/><ellipse cx="708.5" cy="424.8203" fill="#ADD1B2" rx="11" ry="11" style="stroke:#181818;stroke-width:1.0;"/><path d="M710.5,421.3203 Q710.7031,420.8203 710.9375,420.5703 Q711.1719,420.3203 711.4375,420.3203 Q711.9063,420.3203 712.2031,420.6016 Q712.5,420.8828 712.5,421.5391 L712.5,423.1016 Q712.5,423.7578 712.2188,424.0391 Q711.9375,424.3203 711.5,424.3203 Q711.1094,424.3203 710.8594,424.1484 Q710.6094,423.9766 710.5,423.5234 Q710.4531,423.2109 710.2813,423.0391 Q709.9688,422.7109 709.4063,422.5234 Q708.8438,422.3203 708.2813,422.3203 Q707.5781,422.3203 706.9844,422.6016 Q706.4063,422.8828 705.9531,423.5078 Q705.5,424.1328 705.5,424.9922 L705.5,425.9141 Q705.5,426.9453 706.3438,427.6328 Q707.1875,428.3203 708.6875,428.3203 Q709.5781,428.3203 710.2031,428.1172 Q710.5625,428.0078 710.9688,427.6484 Q711.2344,427.4453 711.375,427.3828 Q711.5156,427.3203 711.6875,427.3203 Q712.0156,427.3203 712.25,427.5859 Q712.5,427.8359 712.5,428.1953 Q712.5,428.5391 712.1563,428.9453 Q711.6563,429.5391 710.8594,429.8672 Q709.8125,430.3203 708.5313,430.3203 Q707.0313,430.3203 705.8281,429.7266 Q704.8594,429.2578 704.1719,428.2422 Q703.5,427.2266 703.5,426.0234 L703.5,424.9297 Q703.5,423.6797 704.0938,422.5859 Q704.7031,421.4922 705.75,420.9141 Q706.8125,420.3203 708,420.3203 Q708.7188,420.3203 709.3438,420.5703 Q709.9688,420.8203 710.5,421.3203 Z " fill="#000000"/><text fill="#000000" font-family="sans-serif" font-size="18" lengthAdjust="spacing" textLength="104" x="724.5" y="432.1855">VaccineType</text><line style="stroke:#181818;stroke-width:0.5;" x1="694.5" x2="832.5" y1="443.1406" y2="443.1406"/></g><!--MD5=[72be06cc7ae02ccc98efe28a50e62246]
class SNSUser--><g id="elem_SNSUser"><rect fill="#F1F1F1" height="44.6406" id="SNSUser" rx="2.5" ry="2.5" style="stroke:#181818;stroke-width:0.5;" width="111" x="708" y="486.5"/><ellipse cx="723" cy="504.8203" fill="#ADD1B2" rx="11" ry="11" style="stroke:#181818;stroke-width:1.0;"/><path d="M725,501.3203 Q725.2031,500.8203 725.4375,500.5703 Q725.6719,500.3203 725.9375,500.3203 Q726.4063,500.3203 726.7031,500.6016 Q727,500.8828 727,501.5391 L727,503.1016 Q727,503.7578 726.7188,504.0391 Q726.4375,504.3203 726,504.3203 Q725.6094,504.3203 725.3594,504.1484 Q725.1094,503.9766 725,503.5234 Q724.9531,503.2109 724.7813,503.0391 Q724.4688,502.7109 723.9063,502.5234 Q723.3438,502.3203 722.7813,502.3203 Q722.0781,502.3203 721.4844,502.6016 Q720.9063,502.8828 720.4531,503.5078 Q720,504.1328 720,504.9922 L720,505.9141 Q720,506.9453 720.8438,507.6328 Q721.6875,508.3203 723.1875,508.3203 Q724.0781,508.3203 724.7031,508.1172 Q725.0625,508.0078 725.4688,507.6484 Q725.7344,507.4453 725.875,507.3828 Q726.0156,507.3203 726.1875,507.3203 Q726.5156,507.3203 726.75,507.5859 Q727,507.8359 727,508.1953 Q727,508.5391 726.6563,508.9453 Q726.1563,509.5391 725.3594,509.8672 Q724.3125,510.3203 723.0313,510.3203 Q721.5313,510.3203 720.3281,509.7266 Q719.3594,509.2578 718.6719,508.2422 Q718,507.2266 718,506.0234 L718,504.9297 Q718,503.6797 718.5938,502.5859 Q719.2031,501.4922 720.25,500.9141 Q721.3125,500.3203 722.5,500.3203 Q723.2188,500.3203 723.8438,500.5703 Q724.4688,500.8203 725,501.3203 Z " fill="#000000"/><text fill="#000000" font-family="sans-serif" font-size="18" lengthAdjust="spacing" textLength="75" x="739" y="512.1855">SNSUser</text><line style="stroke:#181818;stroke-width:0.5;" x1="709" x2="818" y1="523.1406" y2="523.1406"/></g><!--MD5=[d5cf03d886352995267197dc535618ec]
link CenterCoordinator to VaccinationCenter--><g id="link_CenterCoordinator_VaccinationCenter"><path codeLine="27" d="M489.04,249.02 C544.92,236.75 616.21,221.11 671.99,208.86 " fill="none" id="CenterCoordinator-VaccinationCenter" style="stroke:#181818;stroke-width:1.0;"/><polygon fill="#000000" points="554.3837,210.1037,544.9189,209.1725,546.1791,214.9137,554.3837,210.1037" style="stroke:#000000;stroke-width:1.0;"/><text fill="#000000" font-family="sans-serif" font-size="13" lengthAdjust="spacing" textLength="53" x="560.5" y="216.4951">manages</text><text fill="#000000" font-family="sans-serif" font-size="13" lengthAdjust="spacing" textLength="7" x="499.1175" y="263.7181">1</text><text fill="#000000" font-family="sans-serif" font-size="13" lengthAdjust="spacing" textLength="7" x="654.9564" y="226.8289">1</text></g><!--MD5=[98f7f3dc8d9719d04ad14614c4ea123f]
reverse link Employee to CenterCoordinator--><g id="link_Employee_CenterCoordinator"><path codeLine="28" d="M141.27,362.26 C199.77,340.84 279.69,311.58 334.32,291.58 " fill="none" id="Employee-backto-CenterCoordinator" style="stroke:#181818;stroke-width:1.0;"/><polygon fill="none" points="143.5,368.9,122.31,369.2,138.69,355.75,143.5,368.9" style="stroke:#181818;stroke-width:1.0;"/></g><!--MD5=[b482d663aae385f5ae82dde2f71259c6]
link Employee to Platform--><g id="link_Employee_Platform"><path codeLine="29" d="M122.08,399 C138.19,401.43 155.77,403.95 172,406 C231.53,413.52 300.21,420.29 345.66,424.51 " fill="none" id="Employee-Platform" style="stroke:#181818;stroke-width:1.0;"/><polygon fill="#000000" points="181.9678,395.7426,173.3142,391.7972,172.6478,397.6372,181.9678,395.7426" style="stroke:#000000;stroke-width:1.0;"/><text fill="#000000" font-family="sans-serif" font-size="13" lengthAdjust="spacing" textLength="64" x="188" y="400.4951">registers in</text><text fill="#000000" font-family="sans-serif" font-size="13" lengthAdjust="spacing" textLength="5" x="132.034" y="416.975">*</text><text fill="#000000" font-family="sans-serif" font-size="13" lengthAdjust="spacing" textLength="7" x="329.0221" y="440.7933">1</text></g><!--MD5=[21512c86d93a99873013bf986f866ed2]
link Platform to VaccineType--><g id="link_Platform_VaccineType"><path codeLine="30" d="M448.3,429 C511.97,429 621.94,429 693.44,429 " fill="none" id="Platform-VaccineType" style="stroke:#181818;stroke-width:1.0;"/><polygon fill="#000000" points="542.5,418.1758,551.5451,421.1147,551.5451,415.2369,542.5,418.1758" style="stroke:#000000;stroke-width:1.0;"/><text fill="#000000" font-family="sans-serif" font-size="13" lengthAdjust="spacing" textLength="57" x="558.5" y="423.4951">register in</text><text fill="#000000" font-family="sans-serif" font-size="13" lengthAdjust="spacing" textLength="7" x="457.9325" y="445.8866">1</text><text fill="#000000" font-family="sans-serif" font-size="13" lengthAdjust="spacing" textLength="5" x="678.285" y="445.6277">*</text></g><!--MD5=[bea9cf5bb8fe1fc2341769cad6b24660]
link Platform to SNSUser--><g id="link_Platform_SNSUser"><path codeLine="31" d="M448.3,440.04 C516.46,455 637.69,481.61 707.97,497.03 " fill="none" id="Platform-SNSUser" style="stroke:#181818;stroke-width:1.0;"/><polygon fill="#000000" points="539.1162,449.1039,547.321,453.9135,548.5811,448.1723,539.1162,449.1039" style="stroke:#000000;stroke-width:1.0;"/><text fill="#000000" font-family="sans-serif" font-size="13" lengthAdjust="spacing" textLength="64" x="555" y="455.4951">registers in</text><text fill="#000000" font-family="sans-serif" font-size="13" lengthAdjust="spacing" textLength="7" x="457.9325" y="458.4101">1</text><text fill="#000000" font-family="sans-serif" font-size="13" lengthAdjust="spacing" textLength="5" x="692.9035" y="512.3082">*</text></g><!--MD5=[aac32c6c9731a34ffa0a4550dcddd940]
@startuml
'https://plantuml.com/sequence-diagram

skinparam classAttributeIconSize 0
hide methods

skinparam padding 2
skinparam ranksep 100
skinparam classFontSize 18
left to right direction
class CenterCoordinator

class VaccinationCenter{
name
address
phoneNumber
emailAddress
faxNumber
websiteAddress
openingHours
openingMinutes
closingHours
closingMinutes
slotDuration
maxNumberVaccines
}

CenterCoordinator "1" - - "1" VaccinationCenter : manages >
Employee <|- - CenterCoordinator
Employee "*" - - "1" Platform : registers in >
Platform "1" - - "*" VaccineType : register in <
Platform "1" - - "*" SNSUser : registers in <

@enduml

@startuml

skinparam classAttributeIconSize 0
hide methods

skinparam padding 2
skinparam ranksep 100
skinparam classFontSize 18
left to right direction
class CenterCoordinator

class VaccinationCenter{
name
address
phoneNumber
emailAddress
faxNumber
websiteAddress
openingHours
openingMinutes
closingHours
closingMinutes
slotDuration
maxNumberVaccines
}

CenterCoordinator "1" - - "1" VaccinationCenter : manages >
Employee <|- - CenterCoordinator
Employee "*" - - "1" Platform : registers in >
Platform "1" - - "*" VaccineType : register in <
Platform "1" - - "*" SNSUser : registers in <

@enduml

PlantUML version 1.2022.5(Sat Apr 30 11:55:52 BST 2022)
(GPL source distribution)
Java Runtime: OpenJDK Runtime Environment
JVM: OpenJDK 64-Bit Server VM
Default Encoding: Cp1252
Language: pt
Country: PT
--></g></svg>