<?xml version="1.0" encoding="UTF-8" standalone="no"?><svg xmlns="http://www.w3.org/2000/svg" xmlns:xlink="http://www.w3.org/1999/xlink" contentStyleType="text/css" height="974px" preserveAspectRatio="none" style="width:2148px;height:974px;background:#FFFFFF;" version="1.1" viewBox="0 0 2148 974" width="2148px" zoomAndPan="magnify"><defs/><g><rect fill="#FFFFFF" height="790.8438" style="stroke:#181818;stroke-width:1.0;" width="10" x="79" y="92.6094"/><rect fill="#FFFFFF" height="422.6797" style="stroke:#181818;stroke-width:1.0;" width="10" x="732" y="114.9609"/><rect fill="#FFFFFF" height="274.1094" style="stroke:#181818;stroke-width:1.0;" width="10" x="732" y="593.3438"/><rect fill="#FFFFFF" height="200.9219" style="stroke:#181818;stroke-width:1.0;" width="10" x="1062" y="155.3125"/><rect fill="#FFFFFF" height="120.7031" style="stroke:#181818;stroke-width:1.0;" width="10" x="1062" y="386.5859"/><rect fill="#FFFFFF" height="181.0547" style="stroke:#181818;stroke-width:1.0;" width="10" x="1062" y="649.0469"/><rect fill="#FFFFFF" height="30" style="stroke:#181818;stroke-width:1.0;" width="10" x="1214" y="205.5313"/><rect fill="#FFFFFF" height="30" style="stroke:#181818;stroke-width:1.0;" width="10" x="1305" y="265.8828"/><rect fill="#FFFFFF" height="30" style="stroke:#181818;stroke-width:1.0;" width="10" x="1305" y="416.9375"/><rect fill="#FFFFFF" height="30" style="stroke:#181818;stroke-width:1.0;" width="10" x="1375.5" y="326.2344"/><rect fill="#FFFFFF" height="30" style="stroke:#181818;stroke-width:1.0;" width="10" x="1459.5" y="679.3984"/><rect fill="#FFFFFF" height="30" style="stroke:#181818;stroke-width:1.0;" width="10" x="1553" y="477.2891"/><rect fill="#FFFFFF" height="30" style="stroke:#181818;stroke-width:1.0;" width="10" x="1711" y="739.75"/><rect fill="#FFFFFF" height="30" style="stroke:#181818;stroke-width:1.0;" width="10" x="1862.5" y="800.1016"/><rect height="322.8125" style="stroke:#000000;stroke-width:1.5;fill:none;" width="1919.5" x="10" y="552.6406"/><rect height="229.7578" style="stroke:#000000;stroke-width:1.5;fill:none;" width="1233.5" x="686" y="608.3438"/><line style="stroke:#181818;stroke-width:0.5;fill:none;stroke-dasharray:5.0,5.0;" x1="84" x2="84" y1="82.6094" y2="892.4531"/><line style="stroke:#181818;stroke-width:0.5;fill:none;stroke-dasharray:5.0,5.0;" x1="737" x2="737" y1="82.6094" y2="892.4531"/><line style="stroke:#181818;stroke-width:0.5;fill:none;stroke-dasharray:5.0,5.0;" x1="1067" x2="1067" y1="163.0703" y2="892.4531"/><line style="stroke:#181818;stroke-width:0.5;fill:none;stroke-dasharray:5.0,5.0;" x1="1218.5" x2="1218.5" y1="82.6094" y2="892.4531"/><line style="stroke:#181818;stroke-width:0.5;fill:none;stroke-dasharray:5.0,5.0;" x1="1309.5" x2="1309.5" y1="82.6094" y2="892.4531"/><line style="stroke:#181818;stroke-width:0.5;fill:none;stroke-dasharray:5.0,5.0;" x1="1380.5" x2="1380.5" y1="82.6094" y2="892.4531"/><line style="stroke:#181818;stroke-width:0.5;fill:none;stroke-dasharray:5.0,5.0;" x1="1464.5" x2="1464.5" y1="82.6094" y2="892.4531"/><line style="stroke:#181818;stroke-width:0.5;fill:none;stroke-dasharray:5.0,5.0;" x1="1557.5" x2="1557.5" y1="82.6094" y2="892.4531"/><line style="stroke:#181818;stroke-width:0.5;fill:none;stroke-dasharray:5.0,5.0;" x1="1715.5" x2="1715.5" y1="82.6094" y2="892.4531"/><line style="stroke:#181818;stroke-width:0.5;fill:none;stroke-dasharray:5.0,5.0;" x1="1867.5" x2="1867.5" y1="82.6094" y2="892.4531"/><line style="stroke:#181818;stroke-width:0.5;fill:none;stroke-dasharray:5.0,5.0;" x1="1985.5" x2="1985.5" y1="82.6094" y2="892.4531"/><line style="stroke:#181818;stroke-width:0.5;fill:none;stroke-dasharray:5.0,5.0;" x1="2102.5" x2="2102.5" y1="82.6094" y2="892.4531"/><text fill="#000000" font-family="sans-serif" font-size="14" lengthAdjust="spacing" textLength="122" x="20" y="79.5332">Center Coordinator</text><ellipse cx="84" cy="13.5" fill="#E2E2F0" rx="8" ry="8" style="stroke:#181818;stroke-width:0.5;"/><path d="M84,21.5 L84,48.5 M71,29.5 L97,29.5 M84,48.5 L71,63.5 M84,48.5 L97,63.5 " fill="none" style="stroke:#181818;stroke-width:0.5;"/><text fill="#000000" font-family="sans-serif" font-size="14" lengthAdjust="spacing" textLength="122" x="20" y="905.9863">Center Coordinator</text><ellipse cx="84" cy="917.5625" fill="#E2E2F0" rx="8" ry="8" style="stroke:#181818;stroke-width:0.5;"/><path d="M84,925.5625 L84,952.5625 M71,933.5625 L97,933.5625 M84,952.5625 L71,967.5625 M84,952.5625 L97,967.5625 " fill="none" style="stroke:#181818;stroke-width:0.5;"/><rect fill="#E2E2F0" height="31.6094" rx="2.5" ry="2.5" style="stroke:#181818;stroke-width:0.5;" width="82" x="696" y="50"/><text fill="#000000" font-family="sans-serif" font-size="14" lengthAdjust="spacing" textLength="68" x="703" y="71.5332">SortDataUI</text><rect fill="#E2E2F0" height="31.6094" rx="2.5" ry="2.5" style="stroke:#181818;stroke-width:0.5;" width="82" x="696" y="891.4531"/><text fill="#000000" font-family="sans-serif" font-size="14" lengthAdjust="spacing" textLength="68" x="703" y="912.9863">SortDataUI</text><rect fill="#E2E2F0" height="49.2188" rx="2.5" ry="2.5" style="stroke:#181818;stroke-width:0.5;" width="136" x="999" y="891.4531"/><text fill="#000000" font-family="sans-serif" font-size="14" lengthAdjust="spacing" textLength="59" x="1037.5" y="912.9863">controller</text><text fill="#000000" font-family="sans-serif" font-size="14" lengthAdjust="spacing" textLength="122" x="1006" y="930.5957">:SortDataController</text><rect fill="#E2E2F0" height="31.6094" rx="2.5" ry="2.5" style="stroke:#181818;stroke-width:0.5;" width="43" x="1197.5" y="50"/><text fill="#000000" font-family="sans-serif" font-size="14" lengthAdjust="spacing" textLength="29" x="1204.5" y="71.5332">:App</text><rect fill="#E2E2F0" height="31.6094" rx="2.5" ry="2.5" style="stroke:#181818;stroke-width:0.5;" width="43" x="1197.5" y="891.4531"/><text fill="#000000" font-family="sans-serif" font-size="14" lengthAdjust="spacing" textLength="29" x="1204.5" y="912.9863">:App</text><rect fill="#E2E2F0" height="49.2188" rx="2.5" ry="2.5" style="stroke:#181818;stroke-width:0.5;" width="43" x="1288.5" y="32.3906"/><text fill="#000000" font-family="sans-serif" font-size="14" lengthAdjust="spacing" textLength="24" x="1296" y="53.9238">app</text><text fill="#000000" font-family="sans-serif" font-size="14" lengthAdjust="spacing" textLength="29" x="1295.5" y="71.5332">:App</text><rect fill="#E2E2F0" height="49.2188" rx="2.5" ry="2.5" style="stroke:#181818;stroke-width:0.5;" width="43" x="1288.5" y="891.4531"/><text fill="#000000" font-family="sans-serif" font-size="14" lengthAdjust="spacing" textLength="24" x="1296" y="912.9863">app</text><text fill="#000000" font-family="sans-serif" font-size="14" lengthAdjust="spacing" textLength="29" x="1295.5" y="930.5957">:App</text><rect fill="#E2E2F0" height="49.2188" rx="2.5" ry="2.5" style="stroke:#181818;stroke-width:0.5;" width="78" x="1341.5" y="32.3906"/><text fill="#000000" font-family="sans-serif" font-size="14" lengthAdjust="spacing" textLength="34" x="1361.5" y="53.9238">comp</text><text fill="#000000" font-family="sans-serif" font-size="14" lengthAdjust="spacing" textLength="64" x="1348.5" y="71.5332">:Company</text><rect fill="#E2E2F0" height="49.2188" rx="2.5" ry="2.5" style="stroke:#181818;stroke-width:0.5;" width="78" x="1341.5" y="891.4531"/><text fill="#000000" font-family="sans-serif" font-size="14" lengthAdjust="spacing" textLength="34" x="1361.5" y="912.9863">comp</text><text fill="#000000" font-family="sans-serif" font-size="14" lengthAdjust="spacing" textLength="64" x="1348.5" y="930.5957">:Company</text><rect fill="#E2E2F0" height="49.2188" rx="2.5" ry="2.5" style="stroke:#181818;stroke-width:0.5;" width="70" x="1429.5" y="32.3906"/><text fill="#000000" font-family="sans-serif" font-size="14" lengthAdjust="spacing" textLength="23" x="1451" y="53.9238">plat</text><text fill="#000000" font-family="sans-serif" font-size="14" lengthAdjust="spacing" textLength="56" x="1436.5" y="71.5332">:Platform</text><rect fill="#E2E2F0" height="49.2188" rx="2.5" ry="2.5" style="stroke:#181818;stroke-width:0.5;" width="70" x="1429.5" y="891.4531"/><text fill="#000000" font-family="sans-serif" font-size="14" lengthAdjust="spacing" textLength="23" x="1451" y="912.9863">plat</text><text fill="#000000" font-family="sans-serif" font-size="14" lengthAdjust="spacing" textLength="56" x="1436.5" y="930.5957">:Platform</text><rect fill="#E2E2F0" height="49.2188" rx="2.5" ry="2.5" style="stroke:#181818;stroke-width:0.5;" width="97" x="1509.5" y="32.3906"/><text fill="#000000" font-family="sans-serif" font-size="14" lengthAdjust="spacing" textLength="48" x="1532" y="53.9238">session</text><text fill="#000000" font-family="sans-serif" font-size="14" lengthAdjust="spacing" textLength="83" x="1516.5" y="71.5332">:UserSession</text><rect fill="#E2E2F0" height="49.2188" rx="2.5" ry="2.5" style="stroke:#181818;stroke-width:0.5;" width="97" x="1509.5" y="891.4531"/><text fill="#000000" font-family="sans-serif" font-size="14" lengthAdjust="spacing" textLength="48" x="1532" y="912.9863">session</text><text fill="#000000" font-family="sans-serif" font-size="14" lengthAdjust="spacing" textLength="83" x="1516.5" y="930.5957">:UserSession</text><rect fill="#E2E2F0" height="31.6094" rx="2.5" ry="2.5" style="stroke:#181818;stroke-width:0.5;" width="199" x="1616.5" y="50"/><text fill="#000000" font-family="sans-serif" font-size="14" lengthAdjust="spacing" textLength="185" x="1623.5" y="71.5332">:ImportPerformanceFromCSV</text><rect fill="#E2E2F0" height="31.6094" rx="2.5" ry="2.5" style="stroke:#181818;stroke-width:0.5;" width="199" x="1616.5" y="891.4531"/><text fill="#000000" font-family="sans-serif" font-size="14" lengthAdjust="spacing" textLength="185" x="1623.5" y="912.9863">:ImportPerformanceFromCSV</text><rect fill="#E2E2F0" height="31.6094" rx="2.5" ry="2.5" style="stroke:#181818;stroke-width:0.5;" width="84" x="1825.5" y="50"/><text fill="#000000" font-family="sans-serif" font-size="14" lengthAdjust="spacing" textLength="70" x="1832.5" y="71.5332">:Algorithms</text><rect fill="#E2E2F0" height="31.6094" rx="2.5" ry="2.5" style="stroke:#181818;stroke-width:0.5;" width="84" x="1825.5" y="891.4531"/><text fill="#000000" font-family="sans-serif" font-size="14" lengthAdjust="spacing" textLength="70" x="1832.5" y="912.9863">:Algorithms</text><rect fill="#E2E2F0" height="49.2188" rx="2.5" ry="2.5" style="stroke:#181818;stroke-width:0.5;" width="133" x="1919.5" y="32.3906"/><text fill="#000000" font-family="sans-serif" font-size="14" lengthAdjust="spacing" textLength="21" x="1973.5" y="53.9238">reg</text><text fill="#000000" font-family="sans-serif" font-size="14" lengthAdjust="spacing" textLength="119" x="1926.5" y="71.5332">:RegisterEmployee</text><rect fill="#E2E2F0" height="49.2188" rx="2.5" ry="2.5" style="stroke:#181818;stroke-width:0.5;" width="133" x="1919.5" y="891.4531"/><text fill="#000000" font-family="sans-serif" font-size="14" lengthAdjust="spacing" textLength="21" x="1973.5" y="912.9863">reg</text><text fill="#000000" font-family="sans-serif" font-size="14" lengthAdjust="spacing" textLength="119" x="1926.5" y="930.5957">:RegisterEmployee</text><rect fill="#E2E2F0" height="31.6094" rx="2.5" ry="2.5" style="stroke:#181818;stroke-width:0.5;" width="80" x="2062.5" y="50"/><text fill="#000000" font-family="sans-serif" font-size="14" lengthAdjust="spacing" textLength="66" x="2069.5" y="71.5332">:Employee</text><rect fill="#E2E2F0" height="31.6094" rx="2.5" ry="2.5" style="stroke:#181818;stroke-width:0.5;" width="80" x="2062.5" y="891.4531"/><text fill="#000000" font-family="sans-serif" font-size="14" lengthAdjust="spacing" textLength="66" x="2069.5" y="912.9863">:Employee</text><rect fill="#FFFFFF" height="790.8438" style="stroke:#181818;stroke-width:1.0;" width="10" x="79" y="92.6094"/><rect fill="#FFFFFF" height="422.6797" style="stroke:#181818;stroke-width:1.0;" width="10" x="732" y="114.9609"/><rect fill="#FFFFFF" height="274.1094" style="stroke:#181818;stroke-width:1.0;" width="10" x="732" y="593.3438"/><rect fill="#FFFFFF" height="200.9219" style="stroke:#181818;stroke-width:1.0;" width="10" x="1062" y="155.3125"/><rect fill="#FFFFFF" height="120.7031" style="stroke:#181818;stroke-width:1.0;" width="10" x="1062" y="386.5859"/><rect fill="#FFFFFF" height="181.0547" style="stroke:#181818;stroke-width:1.0;" width="10" x="1062" y="649.0469"/><rect fill="#FFFFFF" height="30" style="stroke:#181818;stroke-width:1.0;" width="10" x="1214" y="205.5313"/><rect fill="#FFFFFF" height="30" style="stroke:#181818;stroke-width:1.0;" width="10" x="1305" y="265.8828"/><rect fill="#FFFFFF" height="30" style="stroke:#181818;stroke-width:1.0;" width="10" x="1305" y="416.9375"/><rect fill="#FFFFFF" height="30" style="stroke:#181818;stroke-width:1.0;" width="10" x="1375.5" y="326.2344"/><rect fill="#FFFFFF" height="30" style="stroke:#181818;stroke-width:1.0;" width="10" x="1459.5" y="679.3984"/><rect fill="#FFFFFF" height="30" style="stroke:#181818;stroke-width:1.0;" width="10" x="1553" y="477.2891"/><rect fill="#FFFFFF" height="30" style="stroke:#181818;stroke-width:1.0;" width="10" x="1711" y="739.75"/><rect fill="#FFFFFF" height="30" style="stroke:#181818;stroke-width:1.0;" width="10" x="1862.5" y="800.1016"/><polygon fill="#181818" points="720,110.9609,730,114.9609,720,118.9609,724,114.9609" style="stroke:#181818;stroke-width:1.0;"/><line style="stroke:#181818;stroke-width:1.0;" x1="89" x2="726" y1="114.9609" y2="114.9609"/><text fill="#000000" font-family="sans-serif" font-size="13" font-weight="bold" lengthAdjust="spacing" textLength="7" x="96" y="110.1045">1</text><text fill="#000000" font-family="sans-serif" font-size="13" lengthAdjust="spacing" textLength="267" x="107" y="110.1045">starts sorting the data from the legacy system</text><polygon fill="#181818" points="987,141.3125,997,145.3125,987,149.3125,991,145.3125" style="stroke:#181818;stroke-width:1.0;"/><line style="stroke:#181818;stroke-width:1.0;" x1="742" x2="993" y1="145.3125" y2="145.3125"/><text fill="#000000" font-family="sans-serif" font-size="13" font-weight="bold" lengthAdjust="spacing" textLength="7" x="749" y="140.4561">2</text><text fill="#000000" font-family="sans-serif" font-size="13" lengthAdjust="spacing" textLength="222" x="760" y="140.4561">controller = new ImportDataController()</text><rect fill="#E2E2F0" height="49.2188" rx="2.5" ry="2.5" style="stroke:#181818;stroke-width:0.5;" width="136" x="999" y="122.9609"/><text fill="#000000" font-family="sans-serif" font-size="14" lengthAdjust="spacing" textLength="59" x="1037.5" y="144.4941">controller</text><text fill="#000000" font-family="sans-serif" font-size="14" lengthAdjust="spacing" textLength="122" x="1006" y="162.1035">:SortDataController</text><polygon fill="#181818" points="1202,201.5313,1212,205.5313,1202,209.5313,1206,205.5313" style="stroke:#181818;stroke-width:1.0;"/><line style="stroke:#181818;stroke-width:1.0;" x1="1072" x2="1208" y1="205.5313" y2="205.5313"/><text fill="#000000" font-family="sans-serif" font-size="13" font-weight="bold" lengthAdjust="spacing" textLength="7" x="1079" y="200.6748">3</text><text fill="#000000" font-family="sans-serif" font-size="13" lengthAdjust="spacing" textLength="112" x="1090" y="200.6748">app = getInstance()</text><polygon fill="#181818" points="1293,261.8828,1303,265.8828,1293,269.8828,1297,265.8828" style="stroke:#181818;stroke-width:1.0;"/><line style="stroke:#181818;stroke-width:1.0;" x1="1072" x2="1299" y1="265.8828" y2="265.8828"/><text fill="#000000" font-family="sans-serif" font-size="13" font-weight="bold" lengthAdjust="spacing" textLength="7" x="1079" y="261.0264">4</text><text fill="#000000" font-family="sans-serif" font-size="13" lengthAdjust="spacing" textLength="129" x="1090" y="261.0264">comp = getCompany()</text><polygon fill="#181818" points="1363.5,322.2344,1373.5,326.2344,1363.5,330.2344,1367.5,326.2344" style="stroke:#181818;stroke-width:1.0;"/><line style="stroke:#181818;stroke-width:1.0;" x1="1072" x2="1369.5" y1="326.2344" y2="326.2344"/><text fill="#000000" font-family="sans-serif" font-size="13" font-weight="bold" lengthAdjust="spacing" textLength="7" x="1079" y="321.3779">5</text><text fill="#000000" font-family="sans-serif" font-size="13" lengthAdjust="spacing" textLength="111" x="1090" y="321.3779">plat = getPlatform()</text><polygon fill="#181818" points="1050,382.5859,1060,386.5859,1050,390.5859,1054,386.5859" style="stroke:#181818;stroke-width:1.0;"/><line style="stroke:#181818;stroke-width:1.0;" x1="742" x2="1056" y1="386.5859" y2="386.5859"/><text fill="#000000" font-family="sans-serif" font-size="13" font-weight="bold" lengthAdjust="spacing" textLength="7" x="749" y="381.7295">6</text><text fill="#000000" font-family="sans-serif" font-size="13" lengthAdjust="spacing" textLength="74" x="760" y="381.7295">checkLogin()</text><polygon fill="#181818" points="1293,412.9375,1303,416.9375,1293,420.9375,1297,416.9375" style="stroke:#181818;stroke-width:1.0;"/><line style="stroke:#181818;stroke-width:1.0;" x1="1072" x2="1299" y1="416.9375" y2="416.9375"/><text fill="#000000" font-family="sans-serif" font-size="13" font-weight="bold" lengthAdjust="spacing" textLength="7" x="1079" y="412.0811">7</text><text fill="#000000" font-family="sans-serif" font-size="13" lengthAdjust="spacing" textLength="203" x="1090" y="412.0811">session = getCurrentUserSession()</text><polygon fill="#181818" points="1541,473.2891,1551,477.2891,1541,481.2891,1545,477.2891" style="stroke:#181818;stroke-width:1.0;"/><line style="stroke:#181818;stroke-width:1.0;" x1="1072" x2="1547" y1="477.2891" y2="477.2891"/><text fill="#000000" font-family="sans-serif" font-size="13" font-weight="bold" lengthAdjust="spacing" textLength="7" x="1079" y="472.4326">8</text><text fill="#000000" font-family="sans-serif" font-size="13" lengthAdjust="spacing" textLength="438" x="1090" y="472.4326">answer = isLoggedInWithRole(Constants ROLE_CENTER_COORDINATOR)</text><polygon fill="#181818" points="100,533.6406,90,537.6406,100,541.6406,96,537.6406" style="stroke:#181818;stroke-width:1.0;"/><line style="stroke:#181818;stroke-width:1.0;stroke-dasharray:2.0,2.0;" x1="94" x2="736" y1="537.6406" y2="537.6406"/><text fill="#000000" font-family="sans-serif" font-size="13" font-weight="bold" lengthAdjust="spacing" textLength="7" x="106" y="532.7842">9</text><text fill="#000000" font-family="sans-serif" font-size="13" lengthAdjust="spacing" textLength="608" x="117" y="532.7842">asks for preferred data to sort (arrival time or leaving time) and its sorting method (bubblesort or quicksort)</text><path d="M10,552.6406 L83,552.6406 L83,560.9922 L73,570.9922 L10,570.9922 L10,552.6406 " fill="#EEEEEE" style="stroke:#000000;stroke-width:1.5;"/><rect fill="none" height="322.8125" style="stroke:#000000;stroke-width:1.5;" width="1919.5" x="10" y="552.6406"/><text fill="#000000" font-family="sans-serif" font-size="13" font-weight="bold" lengthAdjust="spacing" textLength="28" x="25" y="567.1357">loop</text><polygon fill="#181818" points="720,589.3438,730,593.3438,720,597.3438,724,593.3438" style="stroke:#181818;stroke-width:1.0;"/><line style="stroke:#181818;stroke-width:1.0;" x1="89" x2="726" y1="593.3438" y2="593.3438"/><text fill="#000000" font-family="sans-serif" font-size="13" font-weight="bold" lengthAdjust="spacing" textLength="14" x="96" y="588.4873">10</text><text fill="#000000" font-family="sans-serif" font-size="13" lengthAdjust="spacing" textLength="374" x="114" y="588.4873">chooses the preferred date to sort and sorting method (typeData)</text><path d="M686,608.3438 L747,608.3438 L747,616.6953 L737,626.6953 L686,626.6953 L686,608.3438 " fill="#EEEEEE" style="stroke:#000000;stroke-width:1.5;"/><rect fill="none" height="229.7578" style="stroke:#000000;stroke-width:1.5;" width="1233.5" x="686" y="608.3438"/><text fill="#000000" font-family="sans-serif" font-size="13" font-weight="bold" lengthAdjust="spacing" textLength="16" x="701" y="622.8389">alt</text><text fill="#000000" font-family="sans-serif" font-size="11" font-weight="bold" lengthAdjust="spacing" textLength="233" x="762" y="621.7627">[typeData = 1 (arrival time and bubblesort)]</text><polygon fill="#181818" points="1050,645.0469,1060,649.0469,1050,653.0469,1054,649.0469" style="stroke:#181818;stroke-width:1.0;"/><line style="stroke:#181818;stroke-width:1.0;" x1="742" x2="1056" y1="649.0469" y2="649.0469"/><text fill="#000000" font-family="sans-serif" font-size="13" font-weight="bold" lengthAdjust="spacing" textLength="14" x="749" y="644.1904">11</text><text fill="#000000" font-family="sans-serif" font-size="13" lengthAdjust="spacing" textLength="109" x="767" y="644.1904">sortByArrivalTime()</text><polygon fill="#181818" points="1447.5,675.3984,1457.5,679.3984,1447.5,683.3984,1451.5,679.3984" style="stroke:#181818;stroke-width:1.0;"/><line style="stroke:#181818;stroke-width:1.0;" x1="1072" x2="1453.5" y1="679.3984" y2="679.3984"/><text fill="#000000" font-family="sans-serif" font-size="13" font-weight="bold" lengthAdjust="spacing" textLength="14" x="1079" y="674.542">12</text><text fill="#000000" font-family="sans-serif" font-size="13" lengthAdjust="spacing" textLength="192" x="1097" y="674.542">getImportPerformanceFromCSV()</text><polygon fill="#181818" points="1699,735.75,1709,739.75,1699,743.75,1703,739.75" style="stroke:#181818;stroke-width:1.0;"/><line style="stroke:#181818;stroke-width:1.0;" x1="1072" x2="1705" y1="739.75" y2="739.75"/><text fill="#000000" font-family="sans-serif" font-size="13" font-weight="bold" lengthAdjust="spacing" textLength="14" x="1079" y="734.8936">13</text><text fill="#000000" font-family="sans-serif" font-size="13" lengthAdjust="spacing" textLength="181" x="1097" y="734.8936">getPerformanceDataListString()</text><polygon fill="#181818" points="1850.5,796.1016,1860.5,800.1016,1850.5,804.1016,1854.5,800.1016" style="stroke:#181818;stroke-width:1.0;"/><line style="stroke:#181818;stroke-width:1.0;" x1="1072" x2="1856.5" y1="800.1016" y2="800.1016"/><text fill="#000000" font-family="sans-serif" font-size="13" font-weight="bold" lengthAdjust="spacing" textLength="14" x="1079" y="795.2451">14</text><text fill="#000000" font-family="sans-serif" font-size="13" lengthAdjust="spacing" textLength="375" x="1097" y="795.2451">bubbleSortDates(sortElementOfArray,performanceDataListString)</text><polygon fill="#181818" points="100,863.4531,90,867.4531,100,871.4531,96,867.4531" style="stroke:#181818;stroke-width:1.0;"/><line style="stroke:#181818;stroke-width:1.0;stroke-dasharray:2.0,2.0;" x1="94" x2="736" y1="867.4531" y2="867.4531"/><text fill="#000000" font-family="sans-serif" font-size="13" font-weight="bold" lengthAdjust="spacing" textLength="14" x="106" y="862.5967">15</text><text fill="#000000" font-family="sans-serif" font-size="13" lengthAdjust="spacing" textLength="444" x="124" y="862.5967">shows the sorted data, total number of sorted elements and the elapsed time</text><!--MD5=[d6c801ab054b000bbe05b2515676efec]
@startuml
autonumber

actor "Center Coordinator" as CC
participant "SortDataUI" as UI
participant "controller\n:SortDataController" as Controller
participant ":App" as App
participant "app \n:App" as app
participant "comp \n:Company" as Company
participant "plat \n:Platform" as Platform
participant "session \n:UserSession" as Session
participant ":ImportPerformanceFromCSV" as IMPFC
participant ":Algorithms" as ALG
participant "reg \n:RegisterEmployee" as RegisterEmployee
participant ":Employee" as Employee

'1
activate CC
CC -> UI: starts sorting the data from the legacy system
activate UI

'2
UI -> Controller**: controller = new ImportDataController()
activate Controller

'3
Controller -> App: app = getInstance()
activate App
deactivate App

'4
Controller -> app: comp = getCompany()
activate app
deactivate app

'5
Controller -> Company: plat = getPlatform()
activate Company
deactivate Company
deactivate Controller

'6
UI -> Controller: checkLogin()
activate Controller

'7
Controller -> app: session = getCurrentUserSession()
activate app
deactivate app

'8
Controller -> Session: answer = isLoggedInWithRole(Constants ROLE_CENTER_COORDINATOR)
activate Session
deactivate Session
deactivate Controller

'9
UI - -> CC: asks for preferred data to sort (arrival time or leaving time) and its sorting method (bubblesort or quicksort)
deactivate UI

loop
'10
CC -> UI: chooses the preferred date to sort and sorting method (typeData)
activate UI

alt  typeData = 1 (arrival time and bubblesort)

'11
UI -> Controller : sortByArrivalTime()
activate Controller

'12
Controller -> Platform: getImportPerformanceFromCSV()
activate Platform
deactivate Platform

'13
Controller -> IMPFC: getPerformanceDataListString()
activate IMPFC
deactivate IMPFC


'14
Controller -> ALG: bubbleSortDates(sortElementOfArray,performanceDataListString)


activate ALG
deactivate ALG
deactivate Controller
end

'15
UI - -> CC: shows the sorted data, total number of sorted elements and the elapsed time
deactivate UI
end
@enduml

@startuml
autonumber

actor "Center Coordinator" as CC
participant "SortDataUI" as UI
participant "controller\n:SortDataController" as Controller
participant ":App" as App
participant "app \n:App" as app
participant "comp \n:Company" as Company
participant "plat \n:Platform" as Platform
participant "session \n:UserSession" as Session
participant ":ImportPerformanceFromCSV" as IMPFC
participant ":Algorithms" as ALG
participant "reg \n:RegisterEmployee" as RegisterEmployee
participant ":Employee" as Employee

activate CC
CC -> UI: starts sorting the data from the legacy system
activate UI

UI -> Controller**: controller = new ImportDataController()
activate Controller

Controller -> App: app = getInstance()
activate App
deactivate App

Controller -> app: comp = getCompany()
activate app
deactivate app

Controller -> Company: plat = getPlatform()
activate Company
deactivate Company
deactivate Controller

UI -> Controller: checkLogin()
activate Controller

Controller -> app: session = getCurrentUserSession()
activate app
deactivate app

Controller -> Session: answer = isLoggedInWithRole(Constants ROLE_CENTER_COORDINATOR)
activate Session
deactivate Session
deactivate Controller

UI - -> CC: asks for preferred data to sort (arrival time or leaving time) and its sorting method (bubblesort or quicksort)
deactivate UI

loop
CC -> UI: chooses the preferred date to sort and sorting method (typeData)
activate UI

alt  typeData = 1 (arrival time and bubblesort)

UI -> Controller : sortByArrivalTime()
activate Controller

Controller -> Platform: getImportPerformanceFromCSV()
activate Platform
deactivate Platform

Controller -> IMPFC: getPerformanceDataListString()
activate IMPFC
deactivate IMPFC


Controller -> ALG: bubbleSortDates(sortElementOfArray,performanceDataListString)


activate ALG
deactivate ALG
deactivate Controller
end

UI - -> CC: shows the sorted data, total number of sorted elements and the elapsed time
deactivate UI
end
@enduml

PlantUML version 1.2022.5(Sat Apr 30 11:55:52 BST 2022)
(GPL source distribution)
Java Runtime: OpenJDK Runtime Environment
JVM: OpenJDK 64-Bit Server VM
Default Encoding: Cp1252
Language: pt
Country: PT
--></g></svg>