<?xml version="1.0" encoding="UTF-8" standalone="no"?><svg xmlns="http://www.w3.org/2000/svg" xmlns:xlink="http://www.w3.org/1999/xlink" contentStyleType="text/css" height="1346px" preserveAspectRatio="none" style="width:3279px;height:1346px;background:#FFFFFF;" version="1.1" viewBox="0 0 3279 1346" width="3279px" zoomAndPan="magnify"><defs/><g><rect fill="#FFFFFF" height="1163.0078" style="stroke:#181818;stroke-width:1.0;" width="10" x="64" y="92.6094"/><rect fill="#FFFFFF" height="422.6797" style="stroke:#181818;stroke-width:1.0;" width="10" x="385" y="114.9609"/><rect fill="#FFFFFF" height="211.7578" style="stroke:#181818;stroke-width:1.0;" width="10" x="385" y="567.9922"/><rect fill="#FFFFFF" height="30.3516" style="stroke:#181818;stroke-width:1.0;" width="10" x="385" y="810.1016"/><rect fill="#FFFFFF" height="375.8125" style="stroke:#181818;stroke-width:1.0;" width="10" x="385" y="870.8047"/><rect fill="#FFFFFF" height="200.9219" style="stroke:#181818;stroke-width:1.0;" width="10" x="721.5" y="155.3125"/><rect fill="#FFFFFF" height="120.7031" style="stroke:#181818;stroke-width:1.0;" width="10" x="721.5" y="386.5859"/><rect fill="#FFFFFF" height="151.0547" style="stroke:#181818;stroke-width:1.0;" width="10" x="721.5" y="598.3438"/><rect fill="#FFFFFF" height="315.1094" style="stroke:#181818;stroke-width:1.0;" width="10" x="721.5" y="901.1563"/><rect fill="#FFFFFF" height="30" style="stroke:#181818;stroke-width:1.0;" width="10" x="873.5" y="205.5313"/><rect fill="#FFFFFF" height="30" style="stroke:#181818;stroke-width:1.0;" width="10" x="964.5" y="265.8828"/><rect fill="#FFFFFF" height="30" style="stroke:#181818;stroke-width:1.0;" width="10" x="964.5" y="416.9375"/><rect fill="#FFFFFF" height="30" style="stroke:#181818;stroke-width:1.0;" width="10" x="1035" y="326.2344"/><rect fill="#FFFFFF" height="30" style="stroke:#181818;stroke-width:1.0;" width="10" x="1119" y="628.6953"/><rect fill="#FFFFFF" height="30" style="stroke:#181818;stroke-width:1.0;" width="10" x="1212.5" y="477.2891"/><rect fill="#FFFFFF" height="60.3516" style="stroke:#181818;stroke-width:1.0;" width="10" x="1370.5" y="689.0469"/><rect fill="#FFFFFF" height="284.7578" style="stroke:#181818;stroke-width:1.0;" width="10" x="1370.5" y="931.5078"/><rect fill="#FFFFFF" height="186.0547" style="stroke:#181818;stroke-width:1.0;" width="10" x="1375.5" y="1030.2109"/><rect fill="#FFFFFF" height="30" style="stroke:#181818;stroke-width:1.0;" width="10" x="1617.5" y="719.3984"/><rect fill="#FFFFFF" height="30" style="stroke:#181818;stroke-width:1.0;" width="10" x="1617.5" y="961.8594"/><rect fill="#FFFFFF" height="30" style="stroke:#181818;stroke-width:1.0;" width="10" x="1854.5" y="1065.5625"/><rect fill="#FFFFFF" height="30" style="stroke:#181818;stroke-width:1.0;" width="10" x="2004.5" y="1125.9141"/><rect fill="#FFFFFF" height="30" style="stroke:#181818;stroke-width:1.0;" width="10" x="3046" y="1186.2656"/><line style="stroke:#181818;stroke-width:0.5;stroke-dasharray:5.0,5.0;" x1="69" x2="69" y1="82.6094" y2="1264.6172"/><line style="stroke:#181818;stroke-width:0.5;stroke-dasharray:5.0,5.0;" x1="389.5" x2="389.5" y1="82.6094" y2="1264.6172"/><line style="stroke:#181818;stroke-width:0.5;stroke-dasharray:5.0,5.0;" x1="726" x2="726" y1="163.0703" y2="1264.6172"/><line style="stroke:#181818;stroke-width:0.5;stroke-dasharray:5.0,5.0;" x1="878" x2="878" y1="82.6094" y2="1264.6172"/><line style="stroke:#181818;stroke-width:0.5;stroke-dasharray:5.0,5.0;" x1="969" x2="969" y1="82.6094" y2="1264.6172"/><line style="stroke:#181818;stroke-width:0.5;stroke-dasharray:5.0,5.0;" x1="1040" x2="1040" y1="82.6094" y2="1264.6172"/><line style="stroke:#181818;stroke-width:0.5;stroke-dasharray:5.0,5.0;" x1="1124" x2="1124" y1="82.6094" y2="1264.6172"/><line style="stroke:#181818;stroke-width:0.5;stroke-dasharray:5.0,5.0;" x1="1217" x2="1217" y1="82.6094" y2="1264.6172"/><line style="stroke:#181818;stroke-width:0.5;stroke-dasharray:5.0,5.0;" x1="1375" x2="1375" y1="82.6094" y2="1264.6172"/><line style="stroke:#181818;stroke-width:0.5;stroke-dasharray:5.0,5.0;" x1="1622" x2="1622" y1="82.6094" y2="1264.6172"/><line style="stroke:#181818;stroke-width:0.5;stroke-dasharray:5.0,5.0;" x1="1739" x2="1739" y1="82.6094" y2="1264.6172"/><line style="stroke:#181818;stroke-width:0.5;stroke-dasharray:5.0,5.0;" x1="1859" x2="1859" y1="82.6094" y2="1264.6172"/><line style="stroke:#181818;stroke-width:0.5;stroke-dasharray:5.0,5.0;" x1="2009" x2="2009" y1="82.6094" y2="1264.6172"/><line style="stroke:#181818;stroke-width:0.5;stroke-dasharray:5.0,5.0;" x1="2197" x2="2197" y1="82.6094" y2="1264.6172"/><line style="stroke:#181818;stroke-width:0.5;stroke-dasharray:5.0,5.0;" x1="2367" x2="2367" y1="82.6094" y2="1264.6172"/><line style="stroke:#181818;stroke-width:0.5;stroke-dasharray:5.0,5.0;" x1="2478" x2="2478" y1="82.6094" y2="1264.6172"/><line style="stroke:#181818;stroke-width:0.5;stroke-dasharray:5.0,5.0;" x1="2593" x2="2593" y1="82.6094" y2="1264.6172"/><line style="stroke:#181818;stroke-width:0.5;stroke-dasharray:5.0,5.0;" x1="2694" x2="2694" y1="82.6094" y2="1264.6172"/><line style="stroke:#181818;stroke-width:0.5;stroke-dasharray:5.0,5.0;" x1="2840" x2="2840" y1="82.6094" y2="1264.6172"/><line style="stroke:#181818;stroke-width:0.5;stroke-dasharray:5.0,5.0;" x1="3051" x2="3051" y1="82.6094" y2="1264.6172"/><line style="stroke:#181818;stroke-width:0.5;stroke-dasharray:5.0,5.0;" x1="3213" x2="3213" y1="82.6094" y2="1264.6172"/><text fill="#000000" font-family="sans-serif" font-size="14" lengthAdjust="spacing" textLength="122" x="5" y="79.5332">Center Coordinator</text><ellipse cx="69" cy="13.5" fill="#E2E2F0" rx="8" ry="8" style="stroke:#181818;stroke-width:0.5;"/><path d="M69,21.5 L69,48.5 M56,29.5 L82,29.5 M69,48.5 L56,63.5 M69,48.5 L82,63.5 " fill="none" style="stroke:#181818;stroke-width:0.5;"/><text fill="#000000" font-family="sans-serif" font-size="14" lengthAdjust="spacing" textLength="122" x="5" y="1278.1504">Center Coordinator</text><ellipse cx="69" cy="1289.7266" fill="#E2E2F0" rx="8" ry="8" style="stroke:#181818;stroke-width:0.5;"/><path d="M69,1297.7266 L69,1324.7266 M56,1305.7266 L82,1305.7266 M69,1324.7266 L56,1339.7266 M69,1324.7266 L82,1339.7266 " fill="none" style="stroke:#181818;stroke-width:0.5;"/><rect fill="#E2E2F0" height="31.6094" rx="2.5" ry="2.5" style="stroke:#181818;stroke-width:0.5;" width="99" x="340.5" y="50"/><text fill="#000000" font-family="sans-serif" font-size="14" lengthAdjust="spacing" textLength="85" x="347.5" y="71.5332">:ImportDataUI</text><rect fill="#E2E2F0" height="31.6094" rx="2.5" ry="2.5" style="stroke:#181818;stroke-width:0.5;" width="99" x="340.5" y="1263.6172"/><text fill="#000000" font-family="sans-serif" font-size="14" lengthAdjust="spacing" textLength="85" x="347.5" y="1285.1504">:ImportDataUI</text><rect fill="#E2E2F0" height="49.2188" rx="2.5" ry="2.5" style="stroke:#181818;stroke-width:0.5;" width="149" x="652" y="1263.6172"/><text fill="#000000" font-family="sans-serif" font-size="14" lengthAdjust="spacing" textLength="59" x="697" y="1285.1504">controller</text><text fill="#000000" font-family="sans-serif" font-size="14" lengthAdjust="spacing" textLength="135" x="659" y="1302.7598">:ImportDataController</text><rect fill="#E2E2F0" height="31.6094" rx="2.5" ry="2.5" style="stroke:#181818;stroke-width:0.5;" width="43" x="857" y="50"/><text fill="#000000" font-family="sans-serif" font-size="14" lengthAdjust="spacing" textLength="29" x="864" y="71.5332">:App</text><rect fill="#E2E2F0" height="31.6094" rx="2.5" ry="2.5" style="stroke:#181818;stroke-width:0.5;" width="43" x="857" y="1263.6172"/><text fill="#000000" font-family="sans-serif" font-size="14" lengthAdjust="spacing" textLength="29" x="864" y="1285.1504">:App</text><rect fill="#E2E2F0" height="49.2188" rx="2.5" ry="2.5" style="stroke:#181818;stroke-width:0.5;" width="43" x="948" y="32.3906"/><text fill="#000000" font-family="sans-serif" font-size="14" lengthAdjust="spacing" textLength="24" x="955.5" y="53.9238">app</text><text fill="#000000" font-family="sans-serif" font-size="14" lengthAdjust="spacing" textLength="29" x="955" y="71.5332">:App</text><rect fill="#E2E2F0" height="49.2188" rx="2.5" ry="2.5" style="stroke:#181818;stroke-width:0.5;" width="43" x="948" y="1263.6172"/><text fill="#000000" font-family="sans-serif" font-size="14" lengthAdjust="spacing" textLength="24" x="955.5" y="1285.1504">app</text><text fill="#000000" font-family="sans-serif" font-size="14" lengthAdjust="spacing" textLength="29" x="955" y="1302.7598">:App</text><rect fill="#E2E2F0" height="49.2188" rx="2.5" ry="2.5" style="stroke:#181818;stroke-width:0.5;" width="78" x="1001" y="32.3906"/><text fill="#000000" font-family="sans-serif" font-size="14" lengthAdjust="spacing" textLength="34" x="1021" y="53.9238">comp</text><text fill="#000000" font-family="sans-serif" font-size="14" lengthAdjust="spacing" textLength="64" x="1008" y="71.5332">:Company</text><rect fill="#E2E2F0" height="49.2188" rx="2.5" ry="2.5" style="stroke:#181818;stroke-width:0.5;" width="78" x="1001" y="1263.6172"/><text fill="#000000" font-family="sans-serif" font-size="14" lengthAdjust="spacing" textLength="34" x="1021" y="1285.1504">comp</text><text fill="#000000" font-family="sans-serif" font-size="14" lengthAdjust="spacing" textLength="64" x="1008" y="1302.7598">:Company</text><rect fill="#E2E2F0" height="49.2188" rx="2.5" ry="2.5" style="stroke:#181818;stroke-width:0.5;" width="70" x="1089" y="32.3906"/><text fill="#000000" font-family="sans-serif" font-size="14" lengthAdjust="spacing" textLength="23" x="1110.5" y="53.9238">plat</text><text fill="#000000" font-family="sans-serif" font-size="14" lengthAdjust="spacing" textLength="56" x="1096" y="71.5332">:Platform</text><rect fill="#E2E2F0" height="49.2188" rx="2.5" ry="2.5" style="stroke:#181818;stroke-width:0.5;" width="70" x="1089" y="1263.6172"/><text fill="#000000" font-family="sans-serif" font-size="14" lengthAdjust="spacing" textLength="23" x="1110.5" y="1285.1504">plat</text><text fill="#000000" font-family="sans-serif" font-size="14" lengthAdjust="spacing" textLength="56" x="1096" y="1302.7598">:Platform</text><rect fill="#E2E2F0" height="49.2188" rx="2.5" ry="2.5" style="stroke:#181818;stroke-width:0.5;" width="97" x="1169" y="32.3906"/><text fill="#000000" font-family="sans-serif" font-size="14" lengthAdjust="spacing" textLength="48" x="1191.5" y="53.9238">session</text><text fill="#000000" font-family="sans-serif" font-size="14" lengthAdjust="spacing" textLength="83" x="1176" y="71.5332">:UserSession</text><rect fill="#E2E2F0" height="49.2188" rx="2.5" ry="2.5" style="stroke:#181818;stroke-width:0.5;" width="97" x="1169" y="1263.6172"/><text fill="#000000" font-family="sans-serif" font-size="14" lengthAdjust="spacing" textLength="48" x="1191.5" y="1285.1504">session</text><text fill="#000000" font-family="sans-serif" font-size="14" lengthAdjust="spacing" textLength="83" x="1176" y="1302.7598">:UserSession</text><rect fill="#E2E2F0" height="49.2188" rx="2.5" ry="2.5" style="stroke:#181818;stroke-width:0.5;" width="199" x="1276" y="32.3906"/><text fill="#000000" font-family="sans-serif" font-size="14" lengthAdjust="spacing" textLength="22" x="1362.5" y="53.9238">ipfc</text><text fill="#000000" font-family="sans-serif" font-size="14" lengthAdjust="spacing" textLength="185" x="1283" y="71.5332">:ImportPerformanceFromCSV</text><rect fill="#E2E2F0" height="49.2188" rx="2.5" ry="2.5" style="stroke:#181818;stroke-width:0.5;" width="199" x="1276" y="1263.6172"/><text fill="#000000" font-family="sans-serif" font-size="14" lengthAdjust="spacing" textLength="22" x="1362.5" y="1285.1504">ipfc</text><text fill="#000000" font-family="sans-serif" font-size="14" lengthAdjust="spacing" textLength="185" x="1283" y="1302.7598">:ImportPerformanceFromCSV</text><rect fill="#E2E2F0" height="49.2188" rx="2.5" ry="2.5" style="stroke:#181818;stroke-width:0.5;" width="119" x="1563" y="32.3906"/><text fill="#000000" font-family="sans-serif" font-size="14" lengthAdjust="spacing" textLength="87" x="1579" y="53.9238">&lt;&lt;interface&gt;&gt;</text><text fill="#000000" font-family="sans-serif" font-size="14" lengthAdjust="spacing" textLength="101" x="1570" y="71.5332">: LoadFromCSV</text><rect fill="#E2E2F0" height="49.2188" rx="2.5" ry="2.5" style="stroke:#181818;stroke-width:0.5;" width="119" x="1563" y="1263.6172"/><text fill="#000000" font-family="sans-serif" font-size="14" lengthAdjust="spacing" textLength="87" x="1579" y="1285.1504">&lt;&lt;interface&gt;&gt;</text><text fill="#000000" font-family="sans-serif" font-size="14" lengthAdjust="spacing" textLength="101" x="1570" y="1302.7598">: LoadFromCSV</text><rect fill="#E2E2F0" height="49.2188" rx="2.5" ry="2.5" style="stroke:#181818;stroke-width:0.5;" width="94" x="1692" y="32.3906"/><text fill="#000000" font-family="sans-serif" font-size="14" lengthAdjust="spacing" textLength="76" x="1699" y="53.9238">inputStream</text><text fill="#000000" font-family="sans-serif" font-size="14" lengthAdjust="spacing" textLength="80" x="1699" y="71.5332">:InputStream</text><rect fill="#E2E2F0" height="49.2188" rx="2.5" ry="2.5" style="stroke:#181818;stroke-width:0.5;" width="94" x="1692" y="1263.6172"/><text fill="#000000" font-family="sans-serif" font-size="14" lengthAdjust="spacing" textLength="76" x="1699" y="1285.1504">inputStream</text><text fill="#000000" font-family="sans-serif" font-size="14" lengthAdjust="spacing" textLength="80" x="1699" y="1302.7598">:InputStream</text><rect fill="#E2E2F0" height="31.6094" rx="2.5" ry="2.5" style="stroke:#181818;stroke-width:0.5;" width="127" x="1796" y="50"/><text fill="#000000" font-family="sans-serif" font-size="14" lengthAdjust="spacing" textLength="113" x="1803" y="71.5332">:RegisterSNSUser</text><rect fill="#E2E2F0" height="31.6094" rx="2.5" ry="2.5" style="stroke:#181818;stroke-width:0.5;" width="127" x="1796" y="1263.6172"/><text fill="#000000" font-family="sans-serif" font-size="14" lengthAdjust="spacing" textLength="113" x="1803" y="1285.1504">:RegisterSNSUser</text><rect fill="#E2E2F0" height="31.6094" rx="2.5" ry="2.5" style="stroke:#181818;stroke-width:0.5;" width="153" x="1933" y="50"/><text fill="#000000" font-family="sans-serif" font-size="14" lengthAdjust="spacing" textLength="139" x="1940" y="71.5332">:RegisterVaccineType</text><rect fill="#E2E2F0" height="31.6094" rx="2.5" ry="2.5" style="stroke:#181818;stroke-width:0.5;" width="153" x="1933" y="1263.6172"/><text fill="#000000" font-family="sans-serif" font-size="14" lengthAdjust="spacing" textLength="139" x="1940" y="1285.1504">:RegisterVaccineType</text><rect fill="#E2E2F0" height="49.2188" rx="2.5" ry="2.5" style="stroke:#181818;stroke-width:0.5;" width="202" x="2096" y="32.3906"/><text fill="#000000" font-family="sans-serif" font-size="14" lengthAdjust="spacing" textLength="36" x="2177" y="53.9238">folder</text><text fill="#000000" font-family="sans-serif" font-size="14" lengthAdjust="spacing" textLength="188" x="2103" y="71.5332">:List&lt;String&gt; listOfFilesNames</text><rect fill="#E2E2F0" height="49.2188" rx="2.5" ry="2.5" style="stroke:#181818;stroke-width:0.5;" width="202" x="2096" y="1263.6172"/><text fill="#000000" font-family="sans-serif" font-size="14" lengthAdjust="spacing" textLength="36" x="2177" y="1285.1504">folder</text><text fill="#000000" font-family="sans-serif" font-size="14" lengthAdjust="spacing" textLength="188" x="2103" y="1302.7598">:List&lt;String&gt; listOfFilesNames</text><rect fill="#E2E2F0" height="49.2188" rx="2.5" ry="2.5" style="stroke:#181818;stroke-width:0.5;" width="119" x="2308" y="32.3906"/><text fill="#000000" font-family="sans-serif" font-size="14" lengthAdjust="spacing" textLength="42" x="2344.5" y="53.9238">reader</text><text fill="#000000" font-family="sans-serif" font-size="14" lengthAdjust="spacing" textLength="105" x="2315" y="71.5332">:BufferedReader</text><rect fill="#E2E2F0" height="49.2188" rx="2.5" ry="2.5" style="stroke:#181818;stroke-width:0.5;" width="119" x="2308" y="1263.6172"/><text fill="#000000" font-family="sans-serif" font-size="14" lengthAdjust="spacing" textLength="42" x="2344.5" y="1285.1504">reader</text><text fill="#000000" font-family="sans-serif" font-size="14" lengthAdjust="spacing" textLength="105" x="2315" y="1302.7598">:BufferedReader</text><rect fill="#E2E2F0" height="49.2188" rx="2.5" ry="2.5" style="stroke:#181818;stroke-width:0.5;" width="82" x="2437" y="32.3906"/><text fill="#000000" font-family="sans-serif" font-size="14" lengthAdjust="spacing" textLength="53" x="2451.5" y="53.9238">delimiter</text><text fill="#000000" font-family="sans-serif" font-size="14" lengthAdjust="spacing" textLength="68" x="2444" y="71.5332">:Constants</text><rect fill="#E2E2F0" height="49.2188" rx="2.5" ry="2.5" style="stroke:#181818;stroke-width:0.5;" width="82" x="2437" y="1263.6172"/><text fill="#000000" font-family="sans-serif" font-size="14" lengthAdjust="spacing" textLength="53" x="2451.5" y="1285.1504">delimiter</text><text fill="#000000" font-family="sans-serif" font-size="14" lengthAdjust="spacing" textLength="68" x="2444" y="1302.7598">:Constants</text><rect fill="#E2E2F0" height="49.2188" rx="2.5" ry="2.5" style="stroke:#181818;stroke-width:0.5;" width="128" x="2529" y="32.3906"/><text fill="#000000" font-family="sans-serif" font-size="14" lengthAdjust="spacing" textLength="114" x="2536" y="53.9238">userNumberString</text><text fill="#000000" font-family="sans-serif" font-size="14" lengthAdjust="spacing" textLength="49" x="2568.5" y="71.5332">:String[]</text><rect fill="#E2E2F0" height="49.2188" rx="2.5" ry="2.5" style="stroke:#181818;stroke-width:0.5;" width="128" x="2529" y="1263.6172"/><text fill="#000000" font-family="sans-serif" font-size="14" lengthAdjust="spacing" textLength="114" x="2536" y="1285.1504">userNumberString</text><text fill="#000000" font-family="sans-serif" font-size="14" lengthAdjust="spacing" textLength="49" x="2568.5" y="1302.7598">:String[]</text><rect fill="#E2E2F0" height="49.2188" rx="2.5" ry="2.5" style="stroke:#181818;stroke-width:0.5;" width="55" x="2667" y="32.3906"/><text fill="#000000" font-family="sans-serif" font-size="14" lengthAdjust="spacing" textLength="28" x="2680.5" y="53.9238">path</text><text fill="#000000" font-family="sans-serif" font-size="14" lengthAdjust="spacing" textLength="41" x="2674" y="71.5332">:String</text><rect fill="#E2E2F0" height="49.2188" rx="2.5" ry="2.5" style="stroke:#181818;stroke-width:0.5;" width="55" x="2667" y="1263.6172"/><text fill="#000000" font-family="sans-serif" font-size="14" lengthAdjust="spacing" textLength="28" x="2680.5" y="1285.1504">path</text><text fill="#000000" font-family="sans-serif" font-size="14" lengthAdjust="spacing" textLength="41" x="2674" y="1302.7598">:String</text><rect fill="#E2E2F0" height="31.6094" rx="2.5" ry="2.5" style="stroke:#181818;stroke-width:0.5;" width="217" x="2732" y="50"/><text fill="#000000" font-family="sans-serif" font-size="14" lengthAdjust="spacing" textLength="203" x="2739" y="71.5332">vtl: List&lt;String&gt; vaccineTypeList</text><rect fill="#E2E2F0" height="31.6094" rx="2.5" ry="2.5" style="stroke:#181818;stroke-width:0.5;" width="217" x="2732" y="1263.6172"/><text fill="#000000" font-family="sans-serif" font-size="14" lengthAdjust="spacing" textLength="203" x="2739" y="1285.1504">vtl: List&lt;String&gt; vaccineTypeList</text><rect fill="#E2E2F0" height="31.6094" rx="2.5" ry="2.5" style="stroke:#181818;stroke-width:0.5;" width="184" x="2959" y="50"/><text fill="#000000" font-family="sans-serif" font-size="14" lengthAdjust="spacing" textLength="170" x="2966" y="71.5332">vaccineType: VaccineType</text><rect fill="#E2E2F0" height="31.6094" rx="2.5" ry="2.5" style="stroke:#181818;stroke-width:0.5;" width="184" x="2959" y="1263.6172"/><text fill="#000000" font-family="sans-serif" font-size="14" lengthAdjust="spacing" textLength="170" x="2966" y="1285.1504">vaccineType: VaccineType</text><rect fill="#E2E2F0" height="31.6094" rx="2.5" ry="2.5" style="stroke:#181818;stroke-width:0.5;" width="120" x="3153" y="50"/><text fill="#000000" font-family="sans-serif" font-size="14" lengthAdjust="spacing" textLength="106" x="3160" y="71.5332">vaccine: Vaccine</text><rect fill="#E2E2F0" height="31.6094" rx="2.5" ry="2.5" style="stroke:#181818;stroke-width:0.5;" width="120" x="3153" y="1263.6172"/><text fill="#000000" font-family="sans-serif" font-size="14" lengthAdjust="spacing" textLength="106" x="3160" y="1285.1504">vaccine: Vaccine</text><rect fill="#FFFFFF" height="1163.0078" style="stroke:#181818;stroke-width:1.0;" width="10" x="64" y="92.6094"/><rect fill="#FFFFFF" height="422.6797" style="stroke:#181818;stroke-width:1.0;" width="10" x="385" y="114.9609"/><rect fill="#FFFFFF" height="211.7578" style="stroke:#181818;stroke-width:1.0;" width="10" x="385" y="567.9922"/><rect fill="#FFFFFF" height="30.3516" style="stroke:#181818;stroke-width:1.0;" width="10" x="385" y="810.1016"/><rect fill="#FFFFFF" height="375.8125" style="stroke:#181818;stroke-width:1.0;" width="10" x="385" y="870.8047"/><rect fill="#FFFFFF" height="200.9219" style="stroke:#181818;stroke-width:1.0;" width="10" x="721.5" y="155.3125"/><rect fill="#FFFFFF" height="120.7031" style="stroke:#181818;stroke-width:1.0;" width="10" x="721.5" y="386.5859"/><rect fill="#FFFFFF" height="151.0547" style="stroke:#181818;stroke-width:1.0;" width="10" x="721.5" y="598.3438"/><rect fill="#FFFFFF" height="315.1094" style="stroke:#181818;stroke-width:1.0;" width="10" x="721.5" y="901.1563"/><rect fill="#FFFFFF" height="30" style="stroke:#181818;stroke-width:1.0;" width="10" x="873.5" y="205.5313"/><rect fill="#FFFFFF" height="30" style="stroke:#181818;stroke-width:1.0;" width="10" x="964.5" y="265.8828"/><rect fill="#FFFFFF" height="30" style="stroke:#181818;stroke-width:1.0;" width="10" x="964.5" y="416.9375"/><rect fill="#FFFFFF" height="30" style="stroke:#181818;stroke-width:1.0;" width="10" x="1035" y="326.2344"/><rect fill="#FFFFFF" height="30" style="stroke:#181818;stroke-width:1.0;" width="10" x="1119" y="628.6953"/><rect fill="#FFFFFF" height="30" style="stroke:#181818;stroke-width:1.0;" width="10" x="1212.5" y="477.2891"/><rect fill="#FFFFFF" height="60.3516" style="stroke:#181818;stroke-width:1.0;" width="10" x="1370.5" y="689.0469"/><rect fill="#FFFFFF" height="284.7578" style="stroke:#181818;stroke-width:1.0;" width="10" x="1370.5" y="931.5078"/><rect fill="#FFFFFF" height="186.0547" style="stroke:#181818;stroke-width:1.0;" width="10" x="1375.5" y="1030.2109"/><rect fill="#FFFFFF" height="30" style="stroke:#181818;stroke-width:1.0;" width="10" x="1617.5" y="719.3984"/><rect fill="#FFFFFF" height="30" style="stroke:#181818;stroke-width:1.0;" width="10" x="1617.5" y="961.8594"/><rect fill="#FFFFFF" height="30" style="stroke:#181818;stroke-width:1.0;" width="10" x="1854.5" y="1065.5625"/><rect fill="#FFFFFF" height="30" style="stroke:#181818;stroke-width:1.0;" width="10" x="2004.5" y="1125.9141"/><rect fill="#FFFFFF" height="30" style="stroke:#181818;stroke-width:1.0;" width="10" x="3046" y="1186.2656"/><polygon fill="#181818" points="373,110.9609,383,114.9609,373,118.9609,377,114.9609" style="stroke:#181818;stroke-width:1.0;"/><line style="stroke:#181818;stroke-width:1.0;" x1="74" x2="379" y1="114.9609" y2="114.9609"/><text fill="#000000" font-family="sans-serif" font-size="13" font-weight="bold" lengthAdjust="spacing" textLength="7" x="81" y="110.1045">1</text><text fill="#000000" font-family="sans-serif" font-size="13" lengthAdjust="spacing" textLength="281" x="92" y="110.1045">starts importing the data from the legacy system</text><polygon fill="#181818" points="640,141.3125,650,145.3125,640,149.3125,644,145.3125" style="stroke:#181818;stroke-width:1.0;"/><line style="stroke:#181818;stroke-width:1.0;" x1="395" x2="646" y1="145.3125" y2="145.3125"/><text fill="#000000" font-family="sans-serif" font-size="13" font-weight="bold" lengthAdjust="spacing" textLength="7" x="402" y="140.4561">2</text><text fill="#000000" font-family="sans-serif" font-size="13" lengthAdjust="spacing" textLength="222" x="413" y="140.4561">controller = new ImportDataController()</text><rect fill="#E2E2F0" height="49.2188" rx="2.5" ry="2.5" style="stroke:#181818;stroke-width:0.5;" width="149" x="652" y="122.9609"/><text fill="#000000" font-family="sans-serif" font-size="14" lengthAdjust="spacing" textLength="59" x="697" y="144.4941">controller</text><text fill="#000000" font-family="sans-serif" font-size="14" lengthAdjust="spacing" textLength="135" x="659" y="162.1035">:ImportDataController</text><polygon fill="#181818" points="861.5,201.5313,871.5,205.5313,861.5,209.5313,865.5,205.5313" style="stroke:#181818;stroke-width:1.0;"/><line style="stroke:#181818;stroke-width:1.0;" x1="731.5" x2="867.5" y1="205.5313" y2="205.5313"/><text fill="#000000" font-family="sans-serif" font-size="13" font-weight="bold" lengthAdjust="spacing" textLength="7" x="738.5" y="200.6748">3</text><text fill="#000000" font-family="sans-serif" font-size="13" lengthAdjust="spacing" textLength="112" x="749.5" y="200.6748">app = getInstance()</text><polygon fill="#181818" points="952.5,261.8828,962.5,265.8828,952.5,269.8828,956.5,265.8828" style="stroke:#181818;stroke-width:1.0;"/><line style="stroke:#181818;stroke-width:1.0;" x1="731.5" x2="958.5" y1="265.8828" y2="265.8828"/><text fill="#000000" font-family="sans-serif" font-size="13" font-weight="bold" lengthAdjust="spacing" textLength="7" x="738.5" y="261.0264">4</text><text fill="#000000" font-family="sans-serif" font-size="13" lengthAdjust="spacing" textLength="129" x="749.5" y="261.0264">comp = getCompany()</text><polygon fill="#181818" points="1023,322.2344,1033,326.2344,1023,330.2344,1027,326.2344" style="stroke:#181818;stroke-width:1.0;"/><line style="stroke:#181818;stroke-width:1.0;" x1="731.5" x2="1029" y1="326.2344" y2="326.2344"/><text fill="#000000" font-family="sans-serif" font-size="13" font-weight="bold" lengthAdjust="spacing" textLength="7" x="738.5" y="321.3779">5</text><text fill="#000000" font-family="sans-serif" font-size="13" lengthAdjust="spacing" textLength="111" x="749.5" y="321.3779">plat = getPlatform()</text><polygon fill="#181818" points="709.5,382.5859,719.5,386.5859,709.5,390.5859,713.5,386.5859" style="stroke:#181818;stroke-width:1.0;"/><line style="stroke:#181818;stroke-width:1.0;" x1="395" x2="715.5" y1="386.5859" y2="386.5859"/><text fill="#000000" font-family="sans-serif" font-size="13" font-weight="bold" lengthAdjust="spacing" textLength="7" x="402" y="381.7295">6</text><text fill="#000000" font-family="sans-serif" font-size="13" lengthAdjust="spacing" textLength="74" x="413" y="381.7295">checkLogin()</text><polygon fill="#181818" points="952.5,412.9375,962.5,416.9375,952.5,420.9375,956.5,416.9375" style="stroke:#181818;stroke-width:1.0;"/><line style="stroke:#181818;stroke-width:1.0;" x1="731.5" x2="958.5" y1="416.9375" y2="416.9375"/><text fill="#000000" font-family="sans-serif" font-size="13" font-weight="bold" lengthAdjust="spacing" textLength="7" x="738.5" y="412.0811">7</text><text fill="#000000" font-family="sans-serif" font-size="13" lengthAdjust="spacing" textLength="203" x="749.5" y="412.0811">session = getCurrentUserSession()</text><polygon fill="#181818" points="1200.5,473.2891,1210.5,477.2891,1200.5,481.2891,1204.5,477.2891" style="stroke:#181818;stroke-width:1.0;"/><line style="stroke:#181818;stroke-width:1.0;" x1="731.5" x2="1206.5" y1="477.2891" y2="477.2891"/><text fill="#000000" font-family="sans-serif" font-size="13" font-weight="bold" lengthAdjust="spacing" textLength="7" x="738.5" y="472.4326">8</text><text fill="#000000" font-family="sans-serif" font-size="13" lengthAdjust="spacing" textLength="438" x="749.5" y="472.4326">answer = isLoggedInWithRole(Constants ROLE_CENTER_COORDINATOR)</text><polygon fill="#181818" points="85,533.6406,75,537.6406,85,541.6406,81,537.6406" style="stroke:#181818;stroke-width:1.0;"/><line style="stroke:#181818;stroke-width:1.0;stroke-dasharray:2.0,2.0;" x1="79" x2="389" y1="537.6406" y2="537.6406"/><text fill="#000000" font-family="sans-serif" font-size="13" font-weight="bold" lengthAdjust="spacing" textLength="7" x="91" y="532.7842">9</text><text fill="#000000" font-family="sans-serif" font-size="13" lengthAdjust="spacing" textLength="170" x="102" y="532.7842">asks for the absolute file path</text><polygon fill="#181818" points="373,563.9922,383,567.9922,373,571.9922,377,567.9922" style="stroke:#181818;stroke-width:1.0;"/><line style="stroke:#181818;stroke-width:1.0;" x1="74" x2="379" y1="567.9922" y2="567.9922"/><text fill="#000000" font-family="sans-serif" font-size="13" font-weight="bold" lengthAdjust="spacing" textLength="14" x="81" y="563.1357">10</text><text fill="#000000" font-family="sans-serif" font-size="13" lengthAdjust="spacing" textLength="159" x="99" y="563.1357">inputs the absolute file path</text><polygon fill="#181818" points="709.5,594.3438,719.5,598.3438,709.5,602.3438,713.5,598.3438" style="stroke:#181818;stroke-width:1.0;"/><line style="stroke:#181818;stroke-width:1.0;" x1="395" x2="715.5" y1="598.3438" y2="598.3438"/><text fill="#000000" font-family="sans-serif" font-size="13" font-weight="bold" lengthAdjust="spacing" textLength="14" x="402" y="593.4873">11</text><text fill="#000000" font-family="sans-serif" font-size="13" lengthAdjust="spacing" textLength="113" x="420" y="593.4873">getListOfFiles(path)</text><polygon fill="#181818" points="1107,624.6953,1117,628.6953,1107,632.6953,1111,628.6953" style="stroke:#181818;stroke-width:1.0;"/><line style="stroke:#181818;stroke-width:1.0;" x1="731.5" x2="1113" y1="628.6953" y2="628.6953"/><text fill="#000000" font-family="sans-serif" font-size="13" font-weight="bold" lengthAdjust="spacing" textLength="14" x="738.5" y="623.8389">12</text><text fill="#000000" font-family="sans-serif" font-size="13" lengthAdjust="spacing" textLength="228" x="756.5" y="623.8389">ipfc = getImportPerformanceFromCSV()</text><polygon fill="#181818" points="1358.5,685.0469,1368.5,689.0469,1358.5,693.0469,1362.5,689.0469" style="stroke:#181818;stroke-width:1.0;"/><line style="stroke:#181818;stroke-width:1.0;" x1="731.5" x2="1364.5" y1="689.0469" y2="689.0469"/><text fill="#000000" font-family="sans-serif" font-size="13" font-weight="bold" lengthAdjust="spacing" textLength="14" x="738.5" y="684.1904">13</text><text fill="#000000" font-family="sans-serif" font-size="13" lengthAdjust="spacing" textLength="160" x="756.5" y="684.1904">folder = getListOfFiles(path)</text><polygon fill="#181818" points="1605.5,715.3984,1615.5,719.3984,1605.5,723.3984,1609.5,719.3984" style="stroke:#181818;stroke-width:1.0;"/><line style="stroke:#181818;stroke-width:1.0;" x1="1380.5" x2="1611.5" y1="719.3984" y2="719.3984"/><text fill="#000000" font-family="sans-serif" font-size="13" font-weight="bold" lengthAdjust="spacing" textLength="14" x="1387.5" y="714.542">14</text><text fill="#000000" font-family="sans-serif" font-size="13" lengthAdjust="spacing" textLength="113" x="1405.5" y="714.542">getListOfFiles(path)</text><polygon fill="#181818" points="85,775.75,75,779.75,85,783.75,81,779.75" style="stroke:#181818;stroke-width:1.0;"/><line style="stroke:#181818;stroke-width:1.0;stroke-dasharray:2.0,2.0;" x1="79" x2="389" y1="779.75" y2="779.75"/><text fill="#000000" font-family="sans-serif" font-size="13" font-weight="bold" lengthAdjust="spacing" textLength="14" x="91" y="774.8936">15</text><text fill="#000000" font-family="sans-serif" font-size="13" lengthAdjust="spacing" textLength="221" x="109" y="774.8936">show list of files and ask to select one</text><polygon fill="#181818" points="373,806.1016,383,810.1016,373,814.1016,377,810.1016" style="stroke:#181818;stroke-width:1.0;"/><line style="stroke:#181818;stroke-width:1.0;" x1="74" x2="379" y1="810.1016" y2="810.1016"/><text fill="#000000" font-family="sans-serif" font-size="13" font-weight="bold" lengthAdjust="spacing" textLength="14" x="81" y="805.2451">16</text><text fill="#000000" font-family="sans-serif" font-size="13" lengthAdjust="spacing" textLength="137" x="99" y="805.2451">selects the intended file</text><polygon fill="#181818" points="85,836.4531,75,840.4531,85,844.4531,81,840.4531" style="stroke:#181818;stroke-width:1.0;"/><line style="stroke:#181818;stroke-width:1.0;stroke-dasharray:2.0,2.0;" x1="79" x2="389" y1="840.4531" y2="840.4531"/><text fill="#000000" font-family="sans-serif" font-size="13" font-weight="bold" lengthAdjust="spacing" textLength="14" x="91" y="835.5967">17</text><text fill="#000000" font-family="sans-serif" font-size="13" lengthAdjust="spacing" textLength="200" x="109" y="835.5967">requests confirmation of the import</text><polygon fill="#181818" points="373,866.8047,383,870.8047,373,874.8047,377,870.8047" style="stroke:#181818;stroke-width:1.0;"/><line style="stroke:#181818;stroke-width:1.0;" x1="74" x2="379" y1="870.8047" y2="870.8047"/><text fill="#000000" font-family="sans-serif" font-size="13" font-weight="bold" lengthAdjust="spacing" textLength="14" x="81" y="865.9482">18</text><text fill="#000000" font-family="sans-serif" font-size="13" lengthAdjust="spacing" textLength="111" x="99" y="865.9482">confirms the import</text><polygon fill="#181818" points="709.5,897.1563,719.5,901.1563,709.5,905.1563,713.5,901.1563" style="stroke:#181818;stroke-width:1.0;"/><line style="stroke:#181818;stroke-width:1.0;" x1="395" x2="715.5" y1="901.1563" y2="901.1563"/><text fill="#000000" font-family="sans-serif" font-size="13" font-weight="bold" lengthAdjust="spacing" textLength="14" x="402" y="896.2998">19</text><text fill="#000000" font-family="sans-serif" font-size="13" lengthAdjust="spacing" textLength="174" x="420" y="896.2998">importPerformanceFromCSV()</text><polygon fill="#181818" points="1358.5,927.5078,1368.5,931.5078,1358.5,935.5078,1362.5,931.5078" style="stroke:#181818;stroke-width:1.0;"/><line style="stroke:#181818;stroke-width:1.0;" x1="731.5" x2="1364.5" y1="931.5078" y2="931.5078"/><text fill="#000000" font-family="sans-serif" font-size="13" font-weight="bold" lengthAdjust="spacing" textLength="14" x="738.5" y="926.6514">20</text><text fill="#000000" font-family="sans-serif" font-size="13" lengthAdjust="spacing" textLength="199" x="756.5" y="926.6514">importPerformanceFromCSV(path)</text><polygon fill="#181818" points="1605.5,957.8594,1615.5,961.8594,1605.5,965.8594,1609.5,961.8594" style="stroke:#181818;stroke-width:1.0;"/><line style="stroke:#181818;stroke-width:1.0;" x1="1380.5" x2="1611.5" y1="961.8594" y2="961.8594"/><text fill="#000000" font-family="sans-serif" font-size="13" font-weight="bold" lengthAdjust="spacing" textLength="14" x="1387.5" y="957.0029">21</text><text fill="#000000" font-family="sans-serif" font-size="13" lengthAdjust="spacing" textLength="200" x="1405.5" y="957.0029">inputStream = loadFromCSV(path)</text><line style="stroke:#181818;stroke-width:1.0;" x1="1380.5" x2="1427.5" y1="1017.2109" y2="1017.2109"/><line style="stroke:#181818;stroke-width:1.0;" x1="1427.5" x2="1427.5" y1="1017.2109" y2="1030.2109"/><line style="stroke:#181818;stroke-width:1.0;" x1="1386.5" x2="1427.5" y1="1030.2109" y2="1030.2109"/><polygon fill="#181818" points="1396.5,1026.2109,1386.5,1030.2109,1396.5,1034.2109,1392.5,1030.2109" style="stroke:#181818;stroke-width:1.0;"/><text fill="#000000" font-family="sans-serif" font-size="13" font-weight="bold" lengthAdjust="spacing" textLength="14" x="1392.5" y="1012.3545">22</text><text fill="#000000" font-family="sans-serif" font-size="13" lengthAdjust="spacing" textLength="146" x="1410.5" y="1012.3545">convertCSV(inputStream)</text><polygon fill="#181818" points="1842.5,1061.5625,1852.5,1065.5625,1842.5,1069.5625,1846.5,1065.5625" style="stroke:#181818;stroke-width:1.0;"/><line style="stroke:#181818;stroke-width:1.0;" x1="1385.5" x2="1848.5" y1="1065.5625" y2="1065.5625"/><text fill="#000000" font-family="sans-serif" font-size="13" font-weight="bold" lengthAdjust="spacing" textLength="14" x="1392.5" y="1060.7061">23</text><text fill="#000000" font-family="sans-serif" font-size="13" lengthAdjust="spacing" textLength="299" x="1410.5" y="1060.7061">getSNSUserBySNSUserNumber(userNumberString)</text><polygon fill="#181818" points="1992.5,1121.9141,2002.5,1125.9141,1992.5,1129.9141,1996.5,1125.9141" style="stroke:#181818;stroke-width:1.0;"/><line style="stroke:#181818;stroke-width:1.0;" x1="1385.5" x2="1998.5" y1="1125.9141" y2="1125.9141"/><text fill="#000000" font-family="sans-serif" font-size="13" font-weight="bold" lengthAdjust="spacing" textLength="14" x="1392.5" y="1121.0576">24</text><text fill="#000000" font-family="sans-serif" font-size="13" lengthAdjust="spacing" textLength="226" x="1410.5" y="1121.0576">getListVaccineType(userNumberString)</text><polygon fill="#181818" points="3034,1182.2656,3044,1186.2656,3034,1190.2656,3038,1186.2656" style="stroke:#181818;stroke-width:1.0;"/><line style="stroke:#181818;stroke-width:1.0;" x1="1385.5" x2="3040" y1="1186.2656" y2="1186.2656"/><text fill="#000000" font-family="sans-serif" font-size="13" font-weight="bold" lengthAdjust="spacing" textLength="14" x="1392.5" y="1181.4092">25</text><text fill="#000000" font-family="sans-serif" font-size="13" lengthAdjust="spacing" textLength="94" x="1410.5" y="1181.4092">getDesignation()</text><polygon fill="#181818" points="85,1242.6172,75,1246.6172,85,1250.6172,81,1246.6172" style="stroke:#181818;stroke-width:1.0;"/><line style="stroke:#181818;stroke-width:1.0;stroke-dasharray:2.0,2.0;" x1="79" x2="389" y1="1246.6172" y2="1246.6172"/><text fill="#000000" font-family="sans-serif" font-size="13" font-weight="bold" lengthAdjust="spacing" textLength="14" x="91" y="1241.7607">26</text><text fill="#000000" font-family="sans-serif" font-size="13" lengthAdjust="spacing" textLength="152" x="109" y="1241.7607">informs operation success</text><!--MD5=[26a755d78cde5af96cc7b63bf743411c]
@startuml
'https://plantuml.com/sequence-diagram

autonumber

actor "Center Coordinator" as CC
participant ":ImportDataUI" as UI
participant "controller\n:ImportDataController" as Controller
participant ":App" as App
participant "app \n:App" as app
participant "comp \n:Company" as Company
participant "plat \n:Platform" as Platform
participant "session \n:UserSession" as Session
participant "ipfc \n:ImportPerformanceFromCSV" as IPFC
participant " <<interface>> \n: LoadFromCSV " as ILFC
participant "inputStream \n:InputStream" as IS
participant ":RegisterSNSUser" as RSU
participant ":RegisterVaccineType" as RVT
participant "folder \n:List<String> listOfFilesNames"
participant "reader \n:BufferedReader"
participant "delimiter\n:Constants"
participant "userNumberString\n:String[]"
participant "path\n:String"
participant "vtl: List<String> vaccineTypeList"
participant "vaccineType: VaccineType" as VT
participant "vaccine: Vaccine"


'1
activate CC
CC -> UI: starts importing the data from the legacy system
activate UI

'2
UI -> Controller**: controller = new ImportDataController()
activate Controller

'3
Controller -> App: app = getInstance()
activate App
deactivate App

'4
Controller -> app: comp = getCompany()
activate app
deactivate app

'5
Controller -> Company: plat = getPlatform()
activate Company
deactivate Company
deactivate Controller

'6
UI -> Controller: checkLogin()
activate Controller

'7
Controller -> app: session = getCurrentUserSession()
activate app
deactivate app

'8
Controller -> Session: answer = isLoggedInWithRole(Constants ROLE_CENTER_COORDINATOR)
activate Session
deactivate Session
deactivate Controller

'9
UI - -> CC: asks for the absolute file path
deactivate UI

'10
CC -> UI: inputs the absolute file path
activate UI

'11
UI -> Controller: getListOfFiles(path)
activate Controller

'12
Controller -> Platform: ipfc = getImportPerformanceFromCSV()
activate Platform
deactivate Platform

'13
Controller -> IPFC: folder = getListOfFiles(path)
activate IPFC

'14
IPFC -> ILFC : getListOfFiles(path)
activate ILFC
deactivate ILFC
deactivate IPFC

deactivate Controller

'15
UI - -> CC : show list of files and ask to select one
deactivate UI

'16
CC -> UI : selects the intended file
activate UI

'17
UI - -> CC: requests confirmation of the import
deactivate UI

'18
CC -> UI: confirms the import
activate UI

'19
UI -> Controller: importPerformanceFromCSV()
activate Controller

'20
Controller -> IPFC: importPerformanceFromCSV(path)
activate IPFC

'21
IPFC -> ILFC: inputStream = loadFromCSV(path)
activate ILFC
deactivate ILFC

'22
IPFC -> IPFC : convertCSV(inputStream)
activate IPFC

'23
IPFC -> RSU: getSNSUserBySNSUserNumber(userNumberString)
activate RSU
deactivate RSU

'24
IPFC -> RVT: getListVaccineType(userNumberString)
activate RVT
deactivate RVT

'25
IPFC -> VT : getDesignation()
activate VT
deactivate VT
deactivate IPFC
deactivate IPFC
deactivate Controller
deactivate IPFC

'26
UI - -> CC: informs operation success
deactivate UI


@enduml

@startuml

autonumber

actor "Center Coordinator" as CC
participant ":ImportDataUI" as UI
participant "controller\n:ImportDataController" as Controller
participant ":App" as App
participant "app \n:App" as app
participant "comp \n:Company" as Company
participant "plat \n:Platform" as Platform
participant "session \n:UserSession" as Session
participant "ipfc \n:ImportPerformanceFromCSV" as IPFC
participant " <<interface>> \n: LoadFromCSV " as ILFC
participant "inputStream \n:InputStream" as IS
participant ":RegisterSNSUser" as RSU
participant ":RegisterVaccineType" as RVT
participant "folder \n:List<String> listOfFilesNames"
participant "reader \n:BufferedReader"
participant "delimiter\n:Constants"
participant "userNumberString\n:String[]"
participant "path\n:String"
participant "vtl: List<String> vaccineTypeList"
participant "vaccineType: VaccineType" as VT
participant "vaccine: Vaccine"


activate CC
CC -> UI: starts importing the data from the legacy system
activate UI

UI -> Controller**: controller = new ImportDataController()
activate Controller

Controller -> App: app = getInstance()
activate App
deactivate App

Controller -> app: comp = getCompany()
activate app
deactivate app

Controller -> Company: plat = getPlatform()
activate Company
deactivate Company
deactivate Controller

UI -> Controller: checkLogin()
activate Controller

Controller -> app: session = getCurrentUserSession()
activate app
deactivate app

Controller -> Session: answer = isLoggedInWithRole(Constants ROLE_CENTER_COORDINATOR)
activate Session
deactivate Session
deactivate Controller

UI - -> CC: asks for the absolute file path
deactivate UI

CC -> UI: inputs the absolute file path
activate UI

UI -> Controller: getListOfFiles(path)
activate Controller

Controller -> Platform: ipfc = getImportPerformanceFromCSV()
activate Platform
deactivate Platform

Controller -> IPFC: folder = getListOfFiles(path)
activate IPFC

IPFC -> ILFC : getListOfFiles(path)
activate ILFC
deactivate ILFC
deactivate IPFC

deactivate Controller

UI - -> CC : show list of files and ask to select one
deactivate UI

CC -> UI : selects the intended file
activate UI

UI - -> CC: requests confirmation of the import
deactivate UI

CC -> UI: confirms the import
activate UI

UI -> Controller: importPerformanceFromCSV()
activate Controller

Controller -> IPFC: importPerformanceFromCSV(path)
activate IPFC

IPFC -> ILFC: inputStream = loadFromCSV(path)
activate ILFC
deactivate ILFC

IPFC -> IPFC : convertCSV(inputStream)
activate IPFC

IPFC -> RSU: getSNSUserBySNSUserNumber(userNumberString)
activate RSU
deactivate RSU

IPFC -> RVT: getListVaccineType(userNumberString)
activate RVT
deactivate RVT

IPFC -> VT : getDesignation()
activate VT
deactivate VT
deactivate IPFC
deactivate IPFC
deactivate Controller
deactivate IPFC

UI - -> CC: informs operation success
deactivate UI


@enduml

PlantUML version 1.2022.5(Sat Apr 30 11:55:52 BST 2022)
(GPL source distribution)
Java Runtime: OpenJDK Runtime Environment
JVM: OpenJDK 64-Bit Server VM
Default Encoding: Cp1252
Language: pt
Country: PT
--></g></svg>