<?xml version="1.0" encoding="UTF-8" standalone="no"?><svg xmlns="http://www.w3.org/2000/svg" xmlns:xlink="http://www.w3.org/1999/xlink" contentStyleType="text/css" height="2709px" preserveAspectRatio="none" style="width:1477px;height:2709px;background:#FFFFFF;" version="1.1" viewBox="0 0 1477 2709" width="1477px" zoomAndPan="magnify"><defs/><g><!--MD5=[8ae808d068a8995f06b9b3ec51357f0b]
class AuthFacade--><g id="elem_AuthFacade"><rect codeLine="8" fill="#F1F1F1" height="79.2813" id="AuthFacade" rx="2.5" ry="2.5" style="stroke:#181818;stroke-width:0.5;" width="226" x="775" y="2150"/><ellipse cx="833.75" cy="2168.3203" fill="#ADD1B2" rx="11" ry="11" style="stroke:#181818;stroke-width:1.0;"/><path d="M835.75,2164.8203 Q835.9531,2164.3203 836.1875,2164.0703 Q836.4219,2163.8203 836.6875,2163.8203 Q837.1563,2163.8203 837.4531,2164.1016 Q837.75,2164.3828 837.75,2165.0391 L837.75,2166.6016 Q837.75,2167.2578 837.4688,2167.5391 Q837.1875,2167.8203 836.75,2167.8203 Q836.3594,2167.8203 836.1094,2167.6484 Q835.8594,2167.4766 835.75,2167.0234 Q835.7031,2166.7109 835.5313,2166.5391 Q835.2188,2166.2109 834.6563,2166.0234 Q834.0938,2165.8203 833.5313,2165.8203 Q832.8281,2165.8203 832.2344,2166.1016 Q831.6563,2166.3828 831.2031,2167.0078 Q830.75,2167.6328 830.75,2168.4922 L830.75,2169.4141 Q830.75,2170.4453 831.5938,2171.1328 Q832.4375,2171.8203 833.9375,2171.8203 Q834.8281,2171.8203 835.4531,2171.6172 Q835.8125,2171.5078 836.2188,2171.1484 Q836.4844,2170.9453 836.625,2170.8828 Q836.7656,2170.8203 836.9375,2170.8203 Q837.2656,2170.8203 837.5,2171.0859 Q837.75,2171.3359 837.75,2171.6953 Q837.75,2172.0391 837.4063,2172.4453 Q836.9063,2173.0391 836.1094,2173.3672 Q835.0625,2173.8203 833.7813,2173.8203 Q832.2813,2173.8203 831.0781,2173.2266 Q830.1094,2172.7578 829.4219,2171.7422 Q828.75,2170.7266 828.75,2169.5234 L828.75,2168.4297 Q828.75,2167.1797 829.3438,2166.0859 Q829.9531,2164.9922 831,2164.4141 Q832.0625,2163.8203 833.25,2163.8203 Q833.9688,2163.8203 834.5938,2164.0703 Q835.2188,2164.3203 835.75,2164.8203 Z " fill="#000000"/><text fill="#000000" font-family="sans-serif" font-size="18" lengthAdjust="spacing" textLength="96" x="856.25" y="2175.6855">AuthFacade</text><line style="stroke:#181818;stroke-width:0.5;" x1="776" x2="1000" y1="2186.6406" y2="2186.6406"/><line style="stroke:#181818;stroke-width:0.5;" x1="776" x2="1000" y1="2194.6406" y2="2194.6406"/><text fill="#000000" font-family="sans-serif" font-size="18" lengthAdjust="spacing" textLength="210" x="783" y="2219.3262">+getCurrentUserSession()</text></g><!--MD5=[a6239649e81f925441fa75fd1609c23e]
class ImportDataUI--><g id="elem_ImportDataUI"><rect codeLine="11" fill="#F1F1F1" height="52.6406" id="ImportDataUI" rx="2.5" ry="2.5" style="stroke:#181818;stroke-width:0.5;" width="140" x="842" y="748"/><ellipse cx="857" cy="766.3203" fill="#ADD1B2" rx="11" ry="11" style="stroke:#181818;stroke-width:1.0;"/><path d="M859,762.8203 Q859.2031,762.3203 859.4375,762.0703 Q859.6719,761.8203 859.9375,761.8203 Q860.4063,761.8203 860.7031,762.1016 Q861,762.3828 861,763.0391 L861,764.6016 Q861,765.2578 860.7188,765.5391 Q860.4375,765.8203 860,765.8203 Q859.6094,765.8203 859.3594,765.6484 Q859.1094,765.4766 859,765.0234 Q858.9531,764.7109 858.7813,764.5391 Q858.4688,764.2109 857.9063,764.0234 Q857.3438,763.8203 856.7813,763.8203 Q856.0781,763.8203 855.4844,764.1016 Q854.9063,764.3828 854.4531,765.0078 Q854,765.6328 854,766.4922 L854,767.4141 Q854,768.4453 854.8438,769.1328 Q855.6875,769.8203 857.1875,769.8203 Q858.0781,769.8203 858.7031,769.6172 Q859.0625,769.5078 859.4688,769.1484 Q859.7344,768.9453 859.875,768.8828 Q860.0156,768.8203 860.1875,768.8203 Q860.5156,768.8203 860.75,769.0859 Q861,769.3359 861,769.6953 Q861,770.0391 860.6563,770.4453 Q860.1563,771.0391 859.3594,771.3672 Q858.3125,771.8203 857.0313,771.8203 Q855.5313,771.8203 854.3281,771.2266 Q853.3594,770.7578 852.6719,769.7422 Q852,768.7266 852,767.5234 L852,766.4297 Q852,765.1797 852.5938,764.0859 Q853.2031,762.9922 854.25,762.4141 Q855.3125,761.8203 856.5,761.8203 Q857.2188,761.8203 857.8438,762.0703 Q858.4688,762.3203 859,762.8203 Z " fill="#000000"/><text fill="#000000" font-family="sans-serif" font-size="18" lengthAdjust="spacing" textLength="104" x="873" y="773.6855">ImportDataUI</text><line style="stroke:#181818;stroke-width:0.5;" x1="843" x2="981" y1="784.6406" y2="784.6406"/><line style="stroke:#181818;stroke-width:0.5;" x1="843" x2="981" y1="792.6406" y2="792.6406"/></g><!--MD5=[0de750faa6f786c2564c37df8aaca333]
class ImportDataController--><g id="elem_ImportDataController"><rect codeLine="12" fill="#F1F1F1" height="132.5625" id="ImportDataController" rx="2.5" ry="2.5" style="stroke:#181818;stroke-width:0.5;" width="267" x="606.5" y="1097"/><ellipse cx="651.25" cy="1115.3203" fill="#ADD1B2" rx="11" ry="11" style="stroke:#181818;stroke-width:1.0;"/><path d="M653.25,1111.8203 Q653.4531,1111.3203 653.6875,1111.0703 Q653.9219,1110.8203 654.1875,1110.8203 Q654.6563,1110.8203 654.9531,1111.1016 Q655.25,1111.3828 655.25,1112.0391 L655.25,1113.6016 Q655.25,1114.2578 654.9688,1114.5391 Q654.6875,1114.8203 654.25,1114.8203 Q653.8594,1114.8203 653.6094,1114.6484 Q653.3594,1114.4766 653.25,1114.0234 Q653.2031,1113.7109 653.0313,1113.5391 Q652.7188,1113.2109 652.1563,1113.0234 Q651.5938,1112.8203 651.0313,1112.8203 Q650.3281,1112.8203 649.7344,1113.1016 Q649.1563,1113.3828 648.7031,1114.0078 Q648.25,1114.6328 648.25,1115.4922 L648.25,1116.4141 Q648.25,1117.4453 649.0938,1118.1328 Q649.9375,1118.8203 651.4375,1118.8203 Q652.3281,1118.8203 652.9531,1118.6172 Q653.3125,1118.5078 653.7188,1118.1484 Q653.9844,1117.9453 654.125,1117.8828 Q654.2656,1117.8203 654.4375,1117.8203 Q654.7656,1117.8203 655,1118.0859 Q655.25,1118.3359 655.25,1118.6953 Q655.25,1119.0391 654.9063,1119.4453 Q654.4063,1120.0391 653.6094,1120.3672 Q652.5625,1120.8203 651.2813,1120.8203 Q649.7813,1120.8203 648.5781,1120.2266 Q647.6094,1119.7578 646.9219,1118.7422 Q646.25,1117.7266 646.25,1116.5234 L646.25,1115.4297 Q646.25,1114.1797 646.8438,1113.0859 Q647.4531,1111.9922 648.5,1111.4141 Q649.5625,1110.8203 650.75,1110.8203 Q651.4688,1110.8203 652.0938,1111.0703 Q652.7188,1111.3203 653.25,1111.8203 Z " fill="#000000"/><text fill="#000000" font-family="sans-serif" font-size="18" lengthAdjust="spacing" textLength="165" x="673.75" y="1122.6855">ImportDataController</text><line style="stroke:#181818;stroke-width:0.5;" x1="607.5" x2="872.5" y1="1133.6406" y2="1133.6406"/><line style="stroke:#181818;stroke-width:0.5;" x1="607.5" x2="872.5" y1="1141.6406" y2="1141.6406"/><text fill="#000000" font-family="sans-serif" font-size="18" lengthAdjust="spacing" textLength="251" x="614.5" y="1166.3262">+importPerformanceFromCSV()</text><text fill="#000000" font-family="sans-serif" font-size="18" lengthAdjust="spacing" textLength="220" x="614.5" y="1192.9668">+getListOfFiles(String path)</text><text fill="#000000" font-family="sans-serif" font-size="18" lengthAdjust="spacing" textLength="114" x="614.5" y="1219.6074">+checkLogin()</text></g><!--MD5=[463b214a536a3828236133cb3751670f]
class ImportPerformanceFromCSV--><g id="elem_ImportPerformanceFromCSV"><rect codeLine="18" fill="#F1F1F1" height="239.125" id="ImportPerformanceFromCSV" rx="2.5" ry="2.5" style="stroke:#181818;stroke-width:0.5;" width="403" x="403.5" y="655"/><ellipse cx="484.75" cy="673.3203" fill="#ADD1B2" rx="11" ry="11" style="stroke:#181818;stroke-width:1.0;"/><path d="M486.75,669.8203 Q486.9531,669.3203 487.1875,669.0703 Q487.4219,668.8203 487.6875,668.8203 Q488.1563,668.8203 488.4531,669.1016 Q488.75,669.3828 488.75,670.0391 L488.75,671.6016 Q488.75,672.2578 488.4688,672.5391 Q488.1875,672.8203 487.75,672.8203 Q487.3594,672.8203 487.1094,672.6484 Q486.8594,672.4766 486.75,672.0234 Q486.7031,671.7109 486.5313,671.5391 Q486.2188,671.2109 485.6563,671.0234 Q485.0938,670.8203 484.5313,670.8203 Q483.8281,670.8203 483.2344,671.1016 Q482.6563,671.3828 482.2031,672.0078 Q481.75,672.6328 481.75,673.4922 L481.75,674.4141 Q481.75,675.4453 482.5938,676.1328 Q483.4375,676.8203 484.9375,676.8203 Q485.8281,676.8203 486.4531,676.6172 Q486.8125,676.5078 487.2188,676.1484 Q487.4844,675.9453 487.625,675.8828 Q487.7656,675.8203 487.9375,675.8203 Q488.2656,675.8203 488.5,676.0859 Q488.75,676.3359 488.75,676.6953 Q488.75,677.0391 488.4063,677.4453 Q487.9063,678.0391 487.1094,678.3672 Q486.0625,678.8203 484.7813,678.8203 Q483.2813,678.8203 482.0781,678.2266 Q481.1094,677.7578 480.4219,676.7422 Q479.75,675.7266 479.75,674.5234 L479.75,673.4297 Q479.75,672.1797 480.3438,671.0859 Q480.9531,669.9922 482,669.4141 Q483.0625,668.8203 484.25,668.8203 Q484.9688,668.8203 485.5938,669.0703 Q486.2188,669.3203 486.75,669.8203 Z " fill="#000000"/><text fill="#000000" font-family="sans-serif" font-size="18" lengthAdjust="spacing" textLength="228" x="507.25" y="680.6855">ImportPerformanceFromCSV</text><line style="stroke:#181818;stroke-width:0.5;" x1="404.5" x2="805.5" y1="691.6406" y2="691.6406"/><text fill="#000000" font-family="sans-serif" font-size="18" lengthAdjust="spacing" textLength="331" x="411.5" y="716.3262">-List&lt;String[]&gt; performanceDataListString</text><text fill="#000000" font-family="sans-serif" font-size="18" lengthAdjust="spacing" textLength="232" x="411.5" y="742.9668">-RegisterUsers registerUsers</text><text fill="#000000" font-family="sans-serif" font-size="18" lengthAdjust="spacing" textLength="387" x="411.5" y="769.6074">-RegisterVaccineType m_oRegisterVaccineType</text><line style="stroke:#181818;stroke-width:0.5;" x1="404.5" x2="805.5" y1="779.5625" y2="779.5625"/><text fill="#000000" font-family="sans-serif" font-size="18" lengthAdjust="spacing" textLength="220" x="411.5" y="804.248">+getListOfFiles(String path)</text><text fill="#000000" font-family="sans-serif" font-size="18" lengthAdjust="spacing" textLength="370" x="411.5" y="830.8887">+importPerformanceFromCSV(String filename)</text><text fill="#000000" font-family="sans-serif" font-size="18" lengthAdjust="spacing" textLength="315" x="411.5" y="857.5293">+convertCSV(InputStream inputStream)</text><text fill="#000000" font-family="sans-serif" font-size="18" lengthAdjust="spacing" textLength="263" x="411.5" y="884.1699">+getPerformanceDataListString()</text></g><!--MD5=[63c16667ed477afc5950a62483471dde]
class SortDataUI--><g id="elem_SortDataUI"><rect codeLine="28" fill="#F1F1F1" height="52.6406" id="SortDataUI" rx="2.5" ry="2.5" style="stroke:#181818;stroke-width:0.5;" width="124" x="370" y="7"/><ellipse cx="385" cy="25.3203" fill="#ADD1B2" rx="11" ry="11" style="stroke:#181818;stroke-width:1.0;"/><path d="M387,21.8203 Q387.2031,21.3203 387.4375,21.0703 Q387.6719,20.8203 387.9375,20.8203 Q388.4063,20.8203 388.7031,21.1016 Q389,21.3828 389,22.0391 L389,23.6016 Q389,24.2578 388.7188,24.5391 Q388.4375,24.8203 388,24.8203 Q387.6094,24.8203 387.3594,24.6484 Q387.1094,24.4766 387,24.0234 Q386.9531,23.7109 386.7813,23.5391 Q386.4688,23.2109 385.9063,23.0234 Q385.3438,22.8203 384.7813,22.8203 Q384.0781,22.8203 383.4844,23.1016 Q382.9063,23.3828 382.4531,24.0078 Q382,24.6328 382,25.4922 L382,26.4141 Q382,27.4453 382.8438,28.1328 Q383.6875,28.8203 385.1875,28.8203 Q386.0781,28.8203 386.7031,28.6172 Q387.0625,28.5078 387.4688,28.1484 Q387.7344,27.9453 387.875,27.8828 Q388.0156,27.8203 388.1875,27.8203 Q388.5156,27.8203 388.75,28.0859 Q389,28.3359 389,28.6953 Q389,29.0391 388.6563,29.4453 Q388.1563,30.0391 387.3594,30.3672 Q386.3125,30.8203 385.0313,30.8203 Q383.5313,30.8203 382.3281,30.2266 Q381.3594,29.7578 380.6719,28.7422 Q380,27.7266 380,26.5234 L380,25.4297 Q380,24.1797 380.5938,23.0859 Q381.2031,21.9922 382.25,21.4141 Q383.3125,20.8203 384.5,20.8203 Q385.2188,20.8203 385.8438,21.0703 Q386.4688,21.3203 387,21.8203 Z " fill="#000000"/><text fill="#000000" font-family="sans-serif" font-size="18" lengthAdjust="spacing" textLength="88" x="401" y="32.6855">SortDataUI</text><line style="stroke:#181818;stroke-width:0.5;" x1="371" x2="493" y1="43.6406" y2="43.6406"/><line style="stroke:#181818;stroke-width:0.5;" x1="371" x2="493" y1="51.6406" y2="51.6406"/></g><!--MD5=[fd6f74d82213fe12da824ed1759ad32b]
class SortDataController--><g id="elem_SortDataController"><rect codeLine="30" fill="#F1F1F1" height="185.8438" id="SortDataController" rx="2.5" ry="2.5" style="stroke:#181818;stroke-width:0.5;" width="239" x="312.5" y="368"/><ellipse cx="351.8" cy="386.3203" fill="#ADD1B2" rx="11" ry="11" style="stroke:#181818;stroke-width:1.0;"/><path d="M353.8,382.8203 Q354.0031,382.3203 354.2375,382.0703 Q354.4719,381.8203 354.7375,381.8203 Q355.2063,381.8203 355.5031,382.1016 Q355.8,382.3828 355.8,383.0391 L355.8,384.6016 Q355.8,385.2578 355.5188,385.5391 Q355.2375,385.8203 354.8,385.8203 Q354.4094,385.8203 354.1594,385.6484 Q353.9094,385.4766 353.8,385.0234 Q353.7531,384.7109 353.5813,384.5391 Q353.2688,384.2109 352.7063,384.0234 Q352.1438,383.8203 351.5813,383.8203 Q350.8781,383.8203 350.2844,384.1016 Q349.7063,384.3828 349.2531,385.0078 Q348.8,385.6328 348.8,386.4922 L348.8,387.4141 Q348.8,388.4453 349.6438,389.1328 Q350.4875,389.8203 351.9875,389.8203 Q352.8781,389.8203 353.5031,389.6172 Q353.8625,389.5078 354.2688,389.1484 Q354.5344,388.9453 354.675,388.8828 Q354.8156,388.8203 354.9875,388.8203 Q355.3156,388.8203 355.55,389.0859 Q355.8,389.3359 355.8,389.6953 Q355.8,390.0391 355.4563,390.4453 Q354.9563,391.0391 354.1594,391.3672 Q353.1125,391.8203 351.8313,391.8203 Q350.3313,391.8203 349.1281,391.2266 Q348.1594,390.7578 347.4719,389.7422 Q346.8,388.7266 346.8,387.5234 L346.8,386.4297 Q346.8,385.1797 347.3938,384.0859 Q348.0031,382.9922 349.05,382.4141 Q350.1125,381.8203 351.3,381.8203 Q352.0188,381.8203 352.6438,382.0703 Q353.2688,382.3203 353.8,382.8203 Z " fill="#000000"/><text fill="#000000" font-family="sans-serif" font-size="18" lengthAdjust="spacing" textLength="149" x="373.2" y="393.6855">SortDataController</text><line style="stroke:#181818;stroke-width:0.5;" x1="313.5" x2="550.5" y1="404.6406" y2="404.6406"/><line style="stroke:#181818;stroke-width:0.5;" x1="313.5" x2="550.5" y1="412.6406" y2="412.6406"/><text fill="#000000" font-family="sans-serif" font-size="18" lengthAdjust="spacing" textLength="114" x="320.5" y="437.3262">+checkLogin()</text><text fill="#000000" font-family="sans-serif" font-size="18" lengthAdjust="spacing" textLength="223" x="320.5" y="463.9668">+selectTypeOfDataToSort()</text><text fill="#000000" font-family="sans-serif" font-size="18" lengthAdjust="spacing" textLength="164" x="320.5" y="490.6074">+sortByArrivalTime()</text><text fill="#000000" font-family="sans-serif" font-size="18" lengthAdjust="spacing" textLength="177" x="320.5" y="517.248">+sortByLeavingTime()</text><text fill="#000000" font-family="sans-serif" font-size="18" lengthAdjust="spacing" textLength="98" x="320.5" y="543.8887">-showData()</text></g><!--MD5=[02e4b9b7573f1156f41e60aa5b4e25a4]
class Company--><g id="elem_Company"><rect codeLine="38" fill="#F1F1F1" height="132.5625" id="Company" rx="2.5" ry="2.5" style="stroke:#181818;stroke-width:0.5;" width="160" x="660" y="1433"/><ellipse cx="696.6" cy="1451.3203" fill="#ADD1B2" rx="11" ry="11" style="stroke:#181818;stroke-width:1.0;"/><path d="M698.6,1447.8203 Q698.8031,1447.3203 699.0375,1447.0703 Q699.2719,1446.8203 699.5375,1446.8203 Q700.0063,1446.8203 700.3031,1447.1016 Q700.6,1447.3828 700.6,1448.0391 L700.6,1449.6016 Q700.6,1450.2578 700.3188,1450.5391 Q700.0375,1450.8203 699.6,1450.8203 Q699.2094,1450.8203 698.9594,1450.6484 Q698.7094,1450.4766 698.6,1450.0234 Q698.5531,1449.7109 698.3813,1449.5391 Q698.0688,1449.2109 697.5063,1449.0234 Q696.9438,1448.8203 696.3813,1448.8203 Q695.6781,1448.8203 695.0844,1449.1016 Q694.5063,1449.3828 694.0531,1450.0078 Q693.6,1450.6328 693.6,1451.4922 L693.6,1452.4141 Q693.6,1453.4453 694.4438,1454.1328 Q695.2875,1454.8203 696.7875,1454.8203 Q697.6781,1454.8203 698.3031,1454.6172 Q698.6625,1454.5078 699.0688,1454.1484 Q699.3344,1453.9453 699.475,1453.8828 Q699.6156,1453.8203 699.7875,1453.8203 Q700.1156,1453.8203 700.35,1454.0859 Q700.6,1454.3359 700.6,1454.6953 Q700.6,1455.0391 700.2563,1455.4453 Q699.7563,1456.0391 698.9594,1456.3672 Q697.9125,1456.8203 696.6313,1456.8203 Q695.1313,1456.8203 693.9281,1456.2266 Q692.9594,1455.7578 692.2719,1454.7422 Q691.6,1453.7266 691.6,1452.5234 L691.6,1451.4297 Q691.6,1450.1797 692.1938,1449.0859 Q692.8031,1447.9922 693.85,1447.4141 Q694.9125,1446.8203 696.1,1446.8203 Q696.8188,1446.8203 697.4438,1447.0703 Q698.0688,1447.3203 698.6,1447.8203 Z " fill="#000000"/><text fill="#000000" font-family="sans-serif" font-size="18" lengthAdjust="spacing" textLength="76" x="717.4" y="1458.6855">Company</text><line style="stroke:#181818;stroke-width:0.5;" x1="661" x2="819" y1="1469.6406" y2="1469.6406"/><text fill="#000000" font-family="sans-serif" font-size="18" lengthAdjust="spacing" textLength="98" x="668" y="1494.3262">-designation</text><line style="stroke:#181818;stroke-width:0.5;" x1="661" x2="819" y1="1504.2813" y2="1504.2813"/><text fill="#000000" font-family="sans-serif" font-size="18" lengthAdjust="spacing" textLength="114" x="668" y="1528.9668">+getPlatform()</text><text fill="#000000" font-family="sans-serif" font-size="18" lengthAdjust="spacing" textLength="144" x="668" y="1555.6074">+getAuthFacade()</text></g><!--MD5=[99b8db98afdc2c8404e39242ef4c1e65]
class Platform--><g id="elem_Platform"><rect codeLine="44" fill="#F1F1F1" height="185.8438" id="Platform" rx="2.5" ry="2.5" style="stroke:#181818;stroke-width:0.5;" width="355" x="339.5" y="1842"/><ellipse cx="477.75" cy="1860.3203" fill="#ADD1B2" rx="11" ry="11" style="stroke:#181818;stroke-width:1.0;"/><path d="M479.75,1856.8203 Q479.9531,1856.3203 480.1875,1856.0703 Q480.4219,1855.8203 480.6875,1855.8203 Q481.1563,1855.8203 481.4531,1856.1016 Q481.75,1856.3828 481.75,1857.0391 L481.75,1858.6016 Q481.75,1859.2578 481.4688,1859.5391 Q481.1875,1859.8203 480.75,1859.8203 Q480.3594,1859.8203 480.1094,1859.6484 Q479.8594,1859.4766 479.75,1859.0234 Q479.7031,1858.7109 479.5313,1858.5391 Q479.2188,1858.2109 478.6563,1858.0234 Q478.0938,1857.8203 477.5313,1857.8203 Q476.8281,1857.8203 476.2344,1858.1016 Q475.6563,1858.3828 475.2031,1859.0078 Q474.75,1859.6328 474.75,1860.4922 L474.75,1861.4141 Q474.75,1862.4453 475.5938,1863.1328 Q476.4375,1863.8203 477.9375,1863.8203 Q478.8281,1863.8203 479.4531,1863.6172 Q479.8125,1863.5078 480.2188,1863.1484 Q480.4844,1862.9453 480.625,1862.8828 Q480.7656,1862.8203 480.9375,1862.8203 Q481.2656,1862.8203 481.5,1863.0859 Q481.75,1863.3359 481.75,1863.6953 Q481.75,1864.0391 481.4063,1864.4453 Q480.9063,1865.0391 480.1094,1865.3672 Q479.0625,1865.8203 477.7813,1865.8203 Q476.2813,1865.8203 475.0781,1865.2266 Q474.1094,1864.7578 473.4219,1863.7422 Q472.75,1862.7266 472.75,1861.5234 L472.75,1860.4297 Q472.75,1859.1797 473.3438,1858.0859 Q473.9531,1856.9922 475,1856.4141 Q476.0625,1855.8203 477.25,1855.8203 Q477.9688,1855.8203 478.5938,1856.0703 Q479.2188,1856.3203 479.75,1856.8203 Z " fill="#000000"/><text fill="#000000" font-family="sans-serif" font-size="18" lengthAdjust="spacing" textLength="66" x="500.25" y="1867.6855">Platform</text><line style="stroke:#181818;stroke-width:0.5;" x1="340.5" x2="693.5" y1="1878.6406" y2="1878.6406"/><text fill="#000000" font-family="sans-serif" font-size="18" lengthAdjust="spacing" textLength="93" x="347.5" y="1903.3262">-description</text><text fill="#000000" font-family="sans-serif" font-size="18" lengthAdjust="spacing" textLength="339" x="347.5" y="1929.9668">-ImportDataFromCSV ImportDataFromCSV</text><line style="stroke:#181818;stroke-width:0.5;" x1="340.5" x2="693.5" y1="1939.9219" y2="1939.9219"/><text fill="#000000" font-family="sans-serif" font-size="18" lengthAdjust="spacing" textLength="212" x="347.5" y="1964.6074">+getLoadUsersFromCSV()</text><text fill="#000000" font-family="sans-serif" font-size="18" lengthAdjust="spacing" textLength="194" x="347.5" y="1991.248">+getRegisterEmployee()</text><text fill="#000000" font-family="sans-serif" font-size="18" lengthAdjust="spacing" textLength="276" x="347.5" y="2017.8887">+getImportPerformanceFromCSV()</text></g><!--MD5=[4533588fb66c6fa31a6e04bf29ae6161]
class Algorithms--><g id="elem_Algorithms"><rect codeLine="51" fill="#F1F1F1" height="132.5625" id="Algorithms" rx="2.5" ry="2.5" style="stroke:#181818;stroke-width:0.5;" width="688" x="729" y="394.5"/><ellipse cx="1025.25" cy="412.8203" fill="#ADD1B2" rx="11" ry="11" style="stroke:#181818;stroke-width:1.0;"/><path d="M1027.25,409.3203 Q1027.4531,408.8203 1027.6875,408.5703 Q1027.9219,408.3203 1028.1875,408.3203 Q1028.6563,408.3203 1028.9531,408.6016 Q1029.25,408.8828 1029.25,409.5391 L1029.25,411.1016 Q1029.25,411.7578 1028.9688,412.0391 Q1028.6875,412.3203 1028.25,412.3203 Q1027.8594,412.3203 1027.6094,412.1484 Q1027.3594,411.9766 1027.25,411.5234 Q1027.2031,411.2109 1027.0313,411.0391 Q1026.7188,410.7109 1026.1563,410.5234 Q1025.5938,410.3203 1025.0313,410.3203 Q1024.3281,410.3203 1023.7344,410.6016 Q1023.1563,410.8828 1022.7031,411.5078 Q1022.25,412.1328 1022.25,412.9922 L1022.25,413.9141 Q1022.25,414.9453 1023.0938,415.6328 Q1023.9375,416.3203 1025.4375,416.3203 Q1026.3281,416.3203 1026.9531,416.1172 Q1027.3125,416.0078 1027.7188,415.6484 Q1027.9844,415.4453 1028.125,415.3828 Q1028.2656,415.3203 1028.4375,415.3203 Q1028.7656,415.3203 1029,415.5859 Q1029.25,415.8359 1029.25,416.1953 Q1029.25,416.5391 1028.9063,416.9453 Q1028.4063,417.5391 1027.6094,417.8672 Q1026.5625,418.3203 1025.2813,418.3203 Q1023.7813,418.3203 1022.5781,417.7266 Q1021.6094,417.2578 1020.9219,416.2422 Q1020.25,415.2266 1020.25,414.0234 L1020.25,412.9297 Q1020.25,411.6797 1020.8438,410.5859 Q1021.4531,409.4922 1022.5,408.9141 Q1023.5625,408.3203 1024.75,408.3203 Q1025.4688,408.3203 1026.0938,408.5703 Q1026.7188,408.8203 1027.25,409.3203 Z " fill="#000000"/><text fill="#000000" font-family="sans-serif" font-size="18" lengthAdjust="spacing" textLength="83" x="1047.75" y="420.1855">Algorithms</text><line style="stroke:#181818;stroke-width:0.5;" x1="730" x2="1416" y1="431.1406" y2="431.1406"/><line style="stroke:#181818;stroke-width:0.5;" x1="730" x2="1416" y1="439.1406" y2="439.1406"/><text fill="#000000" font-family="sans-serif" font-size="18" lengthAdjust="spacing" textLength="564" x="737" y="463.8262">+quickSort(int sortElementOfArray, List&lt;String[]&gt; arr, int begin, int end)</text><text fill="#000000" font-family="sans-serif" font-size="18" lengthAdjust="spacing" textLength="553" x="737" y="490.4668">+partition(int sortElementOfArray, List&lt;String[]&gt; arr, int begin, int end)</text><text fill="#000000" font-family="sans-serif" font-size="18" lengthAdjust="spacing" textLength="672" x="737" y="517.1074">+bubbleSortDates(int sortElementOfArray, List&lt;String[]&gt; performanceDataListString)</text></g><!--MD5=[de60e6d4f424ae4d0522096f76a59010]
class VaccinationCenter--><g id="elem_VaccinationCenter"><rect codeLine="57" fill="#F1F1F1" height="372.3281" id="VaccinationCenter" rx="2.5" ry="2.5" style="stroke:#181818;stroke-width:0.5;" width="183" x="196.5" y="2330"/><ellipse cx="211.95" cy="2348.3203" fill="#ADD1B2" rx="11" ry="11" style="stroke:#181818;stroke-width:1.0;"/><path d="M213.95,2344.8203 Q214.1531,2344.3203 214.3875,2344.0703 Q214.6219,2343.8203 214.8875,2343.8203 Q215.3563,2343.8203 215.6531,2344.1016 Q215.95,2344.3828 215.95,2345.0391 L215.95,2346.6016 Q215.95,2347.2578 215.6688,2347.5391 Q215.3875,2347.8203 214.95,2347.8203 Q214.5594,2347.8203 214.3094,2347.6484 Q214.0594,2347.4766 213.95,2347.0234 Q213.9031,2346.7109 213.7313,2346.5391 Q213.4188,2346.2109 212.8563,2346.0234 Q212.2938,2345.8203 211.7313,2345.8203 Q211.0281,2345.8203 210.4344,2346.1016 Q209.8563,2346.3828 209.4031,2347.0078 Q208.95,2347.6328 208.95,2348.4922 L208.95,2349.4141 Q208.95,2350.4453 209.7938,2351.1328 Q210.6375,2351.8203 212.1375,2351.8203 Q213.0281,2351.8203 213.6531,2351.6172 Q214.0125,2351.5078 214.4188,2351.1484 Q214.6844,2350.9453 214.825,2350.8828 Q214.9656,2350.8203 215.1375,2350.8203 Q215.4656,2350.8203 215.7,2351.0859 Q215.95,2351.3359 215.95,2351.6953 Q215.95,2352.0391 215.6063,2352.4453 Q215.1063,2353.0391 214.3094,2353.3672 Q213.2625,2353.8203 211.9813,2353.8203 Q210.4813,2353.8203 209.2781,2353.2266 Q208.3094,2352.7578 207.6219,2351.7422 Q206.95,2350.7266 206.95,2349.5234 L206.95,2348.4297 Q206.95,2347.1797 207.5438,2346.0859 Q208.1531,2344.9922 209.2,2344.4141 Q210.2625,2343.8203 211.45,2343.8203 Q212.1688,2343.8203 212.7938,2344.0703 Q213.4188,2344.3203 213.95,2344.8203 Z " fill="#000000"/><text fill="#000000" font-family="sans-serif" font-size="18" lengthAdjust="spacing" textLength="146" x="228.05" y="2355.6855">VaccinationCenter</text><line style="stroke:#181818;stroke-width:0.5;" x1="197.5" x2="378.5" y1="2366.6406" y2="2366.6406"/><text fill="#000000" font-family="sans-serif" font-size="18" lengthAdjust="spacing" textLength="44" x="204.5" y="2391.3262">name</text><text fill="#000000" font-family="sans-serif" font-size="18" lengthAdjust="spacing" textLength="64" x="204.5" y="2417.9668">address</text><text fill="#000000" font-family="sans-serif" font-size="18" lengthAdjust="spacing" textLength="113" x="204.5" y="2444.6074">phoneNumber</text><text fill="#000000" font-family="sans-serif" font-size="18" lengthAdjust="spacing" textLength="107" x="204.5" y="2471.248">emailAddress</text><text fill="#000000" font-family="sans-serif" font-size="18" lengthAdjust="spacing" textLength="86" x="204.5" y="2497.8887">faxNumber</text><text fill="#000000" font-family="sans-serif" font-size="18" lengthAdjust="spacing" textLength="126" x="204.5" y="2524.5293">websiteAddress</text><text fill="#000000" font-family="sans-serif" font-size="18" lengthAdjust="spacing" textLength="112" x="204.5" y="2551.1699">openingHours</text><text fill="#000000" font-family="sans-serif" font-size="18" lengthAdjust="spacing" textLength="127" x="204.5" y="2577.8105">openingMinutes</text><text fill="#000000" font-family="sans-serif" font-size="18" lengthAdjust="spacing" textLength="104" x="204.5" y="2604.4512">closingHours</text><text fill="#000000" font-family="sans-serif" font-size="18" lengthAdjust="spacing" textLength="119" x="204.5" y="2631.0918">closingMinutes</text><text fill="#000000" font-family="sans-serif" font-size="18" lengthAdjust="spacing" textLength="96" x="204.5" y="2657.7324">slotDuration</text><text fill="#000000" font-family="sans-serif" font-size="18" lengthAdjust="spacing" textLength="167" x="204.5" y="2684.373">maxNumberVaccines</text><line style="stroke:#181818;stroke-width:0.5;" x1="197.5" x2="378.5" y1="2694.3281" y2="2694.3281"/></g><!--MD5=[335f4d9be48430461c68bf6d6fdba145]
class App--><g id="elem_App"><rect codeLine="72" fill="#F1F1F1" height="185.8438" id="App" rx="2.5" ry="2.5" style="stroke:#181818;stroke-width:0.5;" width="166" x="1017" y="681.5"/><ellipse cx="1078.25" cy="699.8203" fill="#ADD1B2" rx="11" ry="11" style="stroke:#181818;stroke-width:1.0;"/><path d="M1080.25,696.3203 Q1080.4531,695.8203 1080.6875,695.5703 Q1080.9219,695.3203 1081.1875,695.3203 Q1081.6563,695.3203 1081.9531,695.6016 Q1082.25,695.8828 1082.25,696.5391 L1082.25,698.1016 Q1082.25,698.7578 1081.9688,699.0391 Q1081.6875,699.3203 1081.25,699.3203 Q1080.8594,699.3203 1080.6094,699.1484 Q1080.3594,698.9766 1080.25,698.5234 Q1080.2031,698.2109 1080.0313,698.0391 Q1079.7188,697.7109 1079.1563,697.5234 Q1078.5938,697.3203 1078.0313,697.3203 Q1077.3281,697.3203 1076.7344,697.6016 Q1076.1563,697.8828 1075.7031,698.5078 Q1075.25,699.1328 1075.25,699.9922 L1075.25,700.9141 Q1075.25,701.9453 1076.0938,702.6328 Q1076.9375,703.3203 1078.4375,703.3203 Q1079.3281,703.3203 1079.9531,703.1172 Q1080.3125,703.0078 1080.7188,702.6484 Q1080.9844,702.4453 1081.125,702.3828 Q1081.2656,702.3203 1081.4375,702.3203 Q1081.7656,702.3203 1082,702.5859 Q1082.25,702.8359 1082.25,703.1953 Q1082.25,703.5391 1081.9063,703.9453 Q1081.4063,704.5391 1080.6094,704.8672 Q1079.5625,705.3203 1078.2813,705.3203 Q1076.7813,705.3203 1075.5781,704.7266 Q1074.6094,704.2578 1073.9219,703.2422 Q1073.25,702.2266 1073.25,701.0234 L1073.25,699.9297 Q1073.25,698.6797 1073.8438,697.5859 Q1074.4531,696.4922 1075.5,695.9141 Q1076.5625,695.3203 1077.75,695.3203 Q1078.4688,695.3203 1079.0938,695.5703 Q1079.7188,695.8203 1080.25,696.3203 Z " fill="#000000"/><text fill="#000000" font-family="sans-serif" font-size="18" lengthAdjust="spacing" textLength="31" x="1100.75" y="707.1855">App</text><line style="stroke:#181818;stroke-width:0.5;" x1="1018" x2="1182" y1="718.1406" y2="718.1406"/><line style="stroke:#181818;stroke-width:0.5;" x1="1018" x2="1182" y1="726.1406" y2="726.1406"/><text fill="#000000" font-family="sans-serif" font-size="18" lengthAdjust="spacing" textLength="137" x="1025" y="750.8262">+getBubbleSort()</text><text fill="#000000" font-family="sans-serif" font-size="18" lengthAdjust="spacing" textLength="127" x="1025" y="777.4668">+getQuickSort()</text><text fill="#000000" font-family="sans-serif" font-size="18" lengthAdjust="spacing" textLength="124" x="1025" y="804.1074">+getCompany()</text><text fill="#000000" font-family="sans-serif" font-size="18" lengthAdjust="spacing" textLength="150" x="1025" y="830.748">+getUserSession()</text><text fill="#000000" font-family="sans-serif" font-size="18" lengthAdjust="spacing" textLength="93" x="1025" y="857.3887">-bootstrap()</text></g><!--MD5=[7421f545a0d8420c5bec41e74b387d9c]
class Employee--><g id="elem_Employee"><rect codeLine="79" fill="#F1F1F1" height="52.6406" id="Employee" rx="2.5" ry="2.5" style="stroke:#181818;stroke-width:0.5;" width="115" x="112.5" y="1473"/><ellipse cx="127.5" cy="1491.3203" fill="#ADD1B2" rx="11" ry="11" style="stroke:#181818;stroke-width:1.0;"/><path d="M129.5,1487.8203 Q129.7031,1487.3203 129.9375,1487.0703 Q130.1719,1486.8203 130.4375,1486.8203 Q130.9063,1486.8203 131.2031,1487.1016 Q131.5,1487.3828 131.5,1488.0391 L131.5,1489.6016 Q131.5,1490.2578 131.2188,1490.5391 Q130.9375,1490.8203 130.5,1490.8203 Q130.1094,1490.8203 129.8594,1490.6484 Q129.6094,1490.4766 129.5,1490.0234 Q129.4531,1489.7109 129.2813,1489.5391 Q128.9688,1489.2109 128.4063,1489.0234 Q127.8438,1488.8203 127.2813,1488.8203 Q126.5781,1488.8203 125.9844,1489.1016 Q125.4063,1489.3828 124.9531,1490.0078 Q124.5,1490.6328 124.5,1491.4922 L124.5,1492.4141 Q124.5,1493.4453 125.3438,1494.1328 Q126.1875,1494.8203 127.6875,1494.8203 Q128.5781,1494.8203 129.2031,1494.6172 Q129.5625,1494.5078 129.9688,1494.1484 Q130.2344,1493.9453 130.375,1493.8828 Q130.5156,1493.8203 130.6875,1493.8203 Q131.0156,1493.8203 131.25,1494.0859 Q131.5,1494.3359 131.5,1494.6953 Q131.5,1495.0391 131.1563,1495.4453 Q130.6563,1496.0391 129.8594,1496.3672 Q128.8125,1496.8203 127.5313,1496.8203 Q126.0313,1496.8203 124.8281,1496.2266 Q123.8594,1495.7578 123.1719,1494.7422 Q122.5,1493.7266 122.5,1492.5234 L122.5,1491.4297 Q122.5,1490.1797 123.0938,1489.0859 Q123.7031,1487.9922 124.75,1487.4141 Q125.8125,1486.8203 127,1486.8203 Q127.7188,1486.8203 128.3438,1487.0703 Q128.9688,1487.3203 129.5,1487.8203 Z " fill="#000000"/><text fill="#000000" font-family="sans-serif" font-size="18" lengthAdjust="spacing" textLength="79" x="143.5" y="1498.6855">Employee</text><line style="stroke:#181818;stroke-width:0.5;" x1="113.5" x2="226.5" y1="1509.6406" y2="1509.6406"/><line style="stroke:#181818;stroke-width:0.5;" x1="113.5" x2="226.5" y1="1517.6406" y2="1517.6406"/></g><!--MD5=[0e501da62322464167c8ec4d233a6b7e]
class VaccineType--><g id="elem_VaccineType"><rect codeLine="92" fill="#F1F1F1" height="105.9219" id="VaccineType" rx="2.5" ry="2.5" style="stroke:#181818;stroke-width:0.5;" width="159" x="431.5" y="2463"/><ellipse cx="455.05" cy="2481.3203" fill="#ADD1B2" rx="11" ry="11" style="stroke:#181818;stroke-width:1.0;"/><path d="M457.05,2477.8203 Q457.2531,2477.3203 457.4875,2477.0703 Q457.7219,2476.8203 457.9875,2476.8203 Q458.4563,2476.8203 458.7531,2477.1016 Q459.05,2477.3828 459.05,2478.0391 L459.05,2479.6016 Q459.05,2480.2578 458.7688,2480.5391 Q458.4875,2480.8203 458.05,2480.8203 Q457.6594,2480.8203 457.4094,2480.6484 Q457.1594,2480.4766 457.05,2480.0234 Q457.0031,2479.7109 456.8313,2479.5391 Q456.5188,2479.2109 455.9563,2479.0234 Q455.3938,2478.8203 454.8313,2478.8203 Q454.1281,2478.8203 453.5344,2479.1016 Q452.9563,2479.3828 452.5031,2480.0078 Q452.05,2480.6328 452.05,2481.4922 L452.05,2482.4141 Q452.05,2483.4453 452.8938,2484.1328 Q453.7375,2484.8203 455.2375,2484.8203 Q456.1281,2484.8203 456.7531,2484.6172 Q457.1125,2484.5078 457.5188,2484.1484 Q457.7844,2483.9453 457.925,2483.8828 Q458.0656,2483.8203 458.2375,2483.8203 Q458.5656,2483.8203 458.8,2484.0859 Q459.05,2484.3359 459.05,2484.6953 Q459.05,2485.0391 458.7063,2485.4453 Q458.2063,2486.0391 457.4094,2486.3672 Q456.3625,2486.8203 455.0813,2486.8203 Q453.5813,2486.8203 452.3781,2486.2266 Q451.4094,2485.7578 450.7219,2484.7422 Q450.05,2483.7266 450.05,2482.5234 L450.05,2481.4297 Q450.05,2480.1797 450.6438,2479.0859 Q451.2531,2477.9922 452.3,2477.4141 Q453.3625,2476.8203 454.55,2476.8203 Q455.2688,2476.8203 455.8938,2477.0703 Q456.5188,2477.3203 457.05,2477.8203 Z " fill="#000000"/><text fill="#000000" font-family="sans-serif" font-size="18" lengthAdjust="spacing" textLength="104" x="472.95" y="2488.6855">VaccineType</text><line style="stroke:#181818;stroke-width:0.5;" x1="432.5" x2="589.5" y1="2499.6406" y2="2499.6406"/><line style="stroke:#181818;stroke-width:0.5;" x1="432.5" x2="589.5" y1="2507.6406" y2="2507.6406"/><text fill="#000000" font-family="sans-serif" font-size="18" lengthAdjust="spacing" textLength="139" x="439.5" y="2532.3262">+getVaccineList()</text><text fill="#000000" font-family="sans-serif" font-size="18" lengthAdjust="spacing" textLength="143" x="439.5" y="2558.9668">+getDesignation()</text></g><!--MD5=[72be06cc7ae02ccc98efe28a50e62246]
class SNSUser--><g id="elem_SNSUser"><rect codeLine="81" fill="#F1F1F1" height="265.7656" id="SNSUser" rx="2.5" ry="2.5" style="stroke:#181818;stroke-width:0.5;" width="196" x="999" y="2383"/><ellipse cx="1053.25" cy="2401.3203" fill="#ADD1B2" rx="11" ry="11" style="stroke:#181818;stroke-width:1.0;"/><path d="M1055.25,2397.8203 Q1055.4531,2397.3203 1055.6875,2397.0703 Q1055.9219,2396.8203 1056.1875,2396.8203 Q1056.6563,2396.8203 1056.9531,2397.1016 Q1057.25,2397.3828 1057.25,2398.0391 L1057.25,2399.6016 Q1057.25,2400.2578 1056.9688,2400.5391 Q1056.6875,2400.8203 1056.25,2400.8203 Q1055.8594,2400.8203 1055.6094,2400.6484 Q1055.3594,2400.4766 1055.25,2400.0234 Q1055.2031,2399.7109 1055.0313,2399.5391 Q1054.7188,2399.2109 1054.1563,2399.0234 Q1053.5938,2398.8203 1053.0313,2398.8203 Q1052.3281,2398.8203 1051.7344,2399.1016 Q1051.1563,2399.3828 1050.7031,2400.0078 Q1050.25,2400.6328 1050.25,2401.4922 L1050.25,2402.4141 Q1050.25,2403.4453 1051.0938,2404.1328 Q1051.9375,2404.8203 1053.4375,2404.8203 Q1054.3281,2404.8203 1054.9531,2404.6172 Q1055.3125,2404.5078 1055.7188,2404.1484 Q1055.9844,2403.9453 1056.125,2403.8828 Q1056.2656,2403.8203 1056.4375,2403.8203 Q1056.7656,2403.8203 1057,2404.0859 Q1057.25,2404.3359 1057.25,2404.6953 Q1057.25,2405.0391 1056.9063,2405.4453 Q1056.4063,2406.0391 1055.6094,2406.3672 Q1054.5625,2406.8203 1053.2813,2406.8203 Q1051.7813,2406.8203 1050.5781,2406.2266 Q1049.6094,2405.7578 1048.9219,2404.7422 Q1048.25,2403.7266 1048.25,2402.5234 L1048.25,2401.4297 Q1048.25,2400.1797 1048.8438,2399.0859 Q1049.4531,2397.9922 1050.5,2397.4141 Q1051.5625,2396.8203 1052.75,2396.8203 Q1053.4688,2396.8203 1054.0938,2397.0703 Q1054.7188,2397.3203 1055.25,2397.8203 Z " fill="#000000"/><text fill="#000000" font-family="sans-serif" font-size="18" lengthAdjust="spacing" textLength="75" x="1075.75" y="2408.6855">SNSUser</text><line style="stroke:#181818;stroke-width:0.5;" x1="1000" x2="1194" y1="2419.6406" y2="2419.6406"/><text fill="#000000" font-family="sans-serif" font-size="18" lengthAdjust="spacing" textLength="50" x="1007" y="2444.3262">-name</text><text fill="#000000" font-family="sans-serif" font-size="18" lengthAdjust="spacing" textLength="70" x="1007" y="2470.9668">-address</text><text fill="#000000" font-family="sans-serif" font-size="18" lengthAdjust="spacing" textLength="62" x="1007" y="2497.6074">-gender</text><text fill="#000000" font-family="sans-serif" font-size="18" lengthAdjust="spacing" textLength="48" x="1007" y="2524.248">-email</text><text fill="#000000" font-family="sans-serif" font-size="18" lengthAdjust="spacing" textLength="79" x="1007" y="2550.8887">-birthDate</text><text fill="#000000" font-family="sans-serif" font-size="18" lengthAdjust="spacing" textLength="135" x="1007" y="2577.5293">-snsUserNumber</text><text fill="#000000" font-family="sans-serif" font-size="18" lengthAdjust="spacing" textLength="158" x="1007" y="2604.1699">-citizenCardNumber</text><line style="stroke:#181818;stroke-width:0.5;" x1="1000" x2="1194" y1="2614.125" y2="2614.125"/><text fill="#000000" font-family="sans-serif" font-size="18" lengthAdjust="spacing" textLength="180" x="1007" y="2638.8105">+getSnsUserNumber()</text></g><!--MD5=[1155c950036316d3e595853e21159178]
class RegisterSNSUser--><g id="elem_RegisterSNSUser"><rect codeLine="98" fill="#F1F1F1" height="79.2813" id="RegisterSNSUser" rx="2.5" ry="2.5" style="stroke:#181818;stroke-width:0.5;" width="298" x="1036" y="174.5"/><ellipse cx="1107.75" cy="192.8203" fill="#ADD1B2" rx="11" ry="11" style="stroke:#181818;stroke-width:1.0;"/><path d="M1109.75,189.3203 Q1109.9531,188.8203 1110.1875,188.5703 Q1110.4219,188.3203 1110.6875,188.3203 Q1111.1563,188.3203 1111.4531,188.6016 Q1111.75,188.8828 1111.75,189.5391 L1111.75,191.1016 Q1111.75,191.7578 1111.4688,192.0391 Q1111.1875,192.3203 1110.75,192.3203 Q1110.3594,192.3203 1110.1094,192.1484 Q1109.8594,191.9766 1109.75,191.5234 Q1109.7031,191.2109 1109.5313,191.0391 Q1109.2188,190.7109 1108.6563,190.5234 Q1108.0938,190.3203 1107.5313,190.3203 Q1106.8281,190.3203 1106.2344,190.6016 Q1105.6563,190.8828 1105.2031,191.5078 Q1104.75,192.1328 1104.75,192.9922 L1104.75,193.9141 Q1104.75,194.9453 1105.5938,195.6328 Q1106.4375,196.3203 1107.9375,196.3203 Q1108.8281,196.3203 1109.4531,196.1172 Q1109.8125,196.0078 1110.2188,195.6484 Q1110.4844,195.4453 1110.625,195.3828 Q1110.7656,195.3203 1110.9375,195.3203 Q1111.2656,195.3203 1111.5,195.5859 Q1111.75,195.8359 1111.75,196.1953 Q1111.75,196.5391 1111.4063,196.9453 Q1110.9063,197.5391 1110.1094,197.8672 Q1109.0625,198.3203 1107.7813,198.3203 Q1106.2813,198.3203 1105.0781,197.7266 Q1104.1094,197.2578 1103.4219,196.2422 Q1102.75,195.2266 1102.75,194.0234 L1102.75,192.9297 Q1102.75,191.6797 1103.3438,190.5859 Q1103.9531,189.4922 1105,188.9141 Q1106.0625,188.3203 1107.25,188.3203 Q1107.9688,188.3203 1108.5938,188.5703 Q1109.2188,188.8203 1109.75,189.3203 Z " fill="#000000"/><text fill="#000000" font-family="sans-serif" font-size="18" lengthAdjust="spacing" textLength="142" x="1130.25" y="200.1855">RegisterSNSUser</text><line style="stroke:#181818;stroke-width:0.5;" x1="1037" x2="1333" y1="211.1406" y2="211.1406"/><line style="stroke:#181818;stroke-width:0.5;" x1="1037" x2="1333" y1="219.1406" y2="219.1406"/><text fill="#000000" font-family="sans-serif" font-size="18" lengthAdjust="spacing" textLength="282" x="1044" y="243.8262">+getSNSUserBySNSUserNumber()</text></g><!--MD5=[8d5fbb9917b0108410e61cf59607fdbc]
class LoadFromCSV--><g id="elem_LoadFromCSV"><rect codeLine="101" fill="#F1F1F1" height="105.9219" id="LoadFromCSV" rx="2.5" ry="2.5" style="stroke:#181818;stroke-width:0.5;" width="220" x="495" y="161"/><ellipse cx="539.25" cy="179.3203" fill="#B4A7E5" rx="11" ry="11" style="stroke:#181818;stroke-width:1.0;"/><path d="M540.25,176.3203 L540.25,182.3203 L542.25,182.3203 L542.7344,182.3203 L543.25,182.9453 L543.25,183.3203 L543.25,183.6953 L542.7344,184.3203 L542.25,184.3203 L536.25,184.3203 L535.7656,184.3203 L535.25,183.6953 L535.25,183.3203 L535.25,182.9453 L535.7656,182.3203 L536.25,182.3203 L538.25,182.3203 L538.25,176.3203 L536.25,176.3203 L535.7656,176.3203 L535.25,175.6953 L535.25,175.3203 L535.25,174.9453 L535.7656,174.3203 L536.25,174.3203 L542.25,174.3203 L542.7344,174.3203 L543.25,174.9453 L543.25,175.3203 L543.25,175.6953 L542.7344,176.3203 L542.25,176.3203 L540.25,176.3203 Z " fill="#000000"/><text fill="#000000" font-family="sans-serif" font-size="18" font-style="italic" lengthAdjust="spacing" textLength="119" x="561.75" y="186.6855">LoadFromCSV</text><line style="stroke:#181818;stroke-width:0.5;" x1="496" x2="714" y1="197.6406" y2="197.6406"/><line style="stroke:#181818;stroke-width:0.5;" x1="496" x2="714" y1="205.6406" y2="205.6406"/><text fill="#000000" font-family="sans-serif" font-size="18" lengthAdjust="spacing" text-decoration="underline" textLength="168" x="503" y="230.3262">+getListOfFiles(path)</text><text fill="#000000" font-family="sans-serif" font-size="18" lengthAdjust="spacing" text-decoration="underline" textLength="204" x="503" y="256.9668">+loadFromCSV(fileName)</text></g><!--MD5=[2d935fd2dd068a13da1ae531f9857c4f]
class CenterCoordinator--><g id="elem_CenterCoordinator"><rect fill="#F1F1F1" height="52.6406" id="CenterCoordinator" rx="2.5" ry="2.5" style="stroke:#181818;stroke-width:0.5;" width="184" x="7" y="1739"/><ellipse cx="22" cy="1757.3203" fill="#ADD1B2" rx="11" ry="11" style="stroke:#181818;stroke-width:1.0;"/><path d="M24,1753.8203 Q24.2031,1753.3203 24.4375,1753.0703 Q24.6719,1752.8203 24.9375,1752.8203 Q25.4063,1752.8203 25.7031,1753.1016 Q26,1753.3828 26,1754.0391 L26,1755.6016 Q26,1756.2578 25.7188,1756.5391 Q25.4375,1756.8203 25,1756.8203 Q24.6094,1756.8203 24.3594,1756.6484 Q24.1094,1756.4766 24,1756.0234 Q23.9531,1755.7109 23.7813,1755.5391 Q23.4688,1755.2109 22.9063,1755.0234 Q22.3438,1754.8203 21.7813,1754.8203 Q21.0781,1754.8203 20.4844,1755.1016 Q19.9063,1755.3828 19.4531,1756.0078 Q19,1756.6328 19,1757.4922 L19,1758.4141 Q19,1759.4453 19.8438,1760.1328 Q20.6875,1760.8203 22.1875,1760.8203 Q23.0781,1760.8203 23.7031,1760.6172 Q24.0625,1760.5078 24.4688,1760.1484 Q24.7344,1759.9453 24.875,1759.8828 Q25.0156,1759.8203 25.1875,1759.8203 Q25.5156,1759.8203 25.75,1760.0859 Q26,1760.3359 26,1760.6953 Q26,1761.0391 25.6563,1761.4453 Q25.1563,1762.0391 24.3594,1762.3672 Q23.3125,1762.8203 22.0313,1762.8203 Q20.5313,1762.8203 19.3281,1762.2266 Q18.3594,1761.7578 17.6719,1760.7422 Q17,1759.7266 17,1758.5234 L17,1757.4297 Q17,1756.1797 17.5938,1755.0859 Q18.2031,1753.9922 19.25,1753.4141 Q20.3125,1752.8203 21.5,1752.8203 Q22.2188,1752.8203 22.8438,1753.0703 Q23.4688,1753.3203 24,1753.8203 Z " fill="#000000"/><text fill="#000000" font-family="sans-serif" font-size="18" lengthAdjust="spacing" textLength="148" x="38" y="1764.6855">CenterCoordinator</text><line style="stroke:#181818;stroke-width:0.5;" x1="8" x2="190" y1="1775.6406" y2="1775.6406"/><line style="stroke:#181818;stroke-width:0.5;" x1="8" x2="190" y1="1783.6406" y2="1783.6406"/></g><!--MD5=[cf3bc92a44460320e65819fdcc32a039]
link ImportDataUI to ImportDataController--><g id="link_ImportDataUI_ImportDataController"><path codeLine="107" d="M900.58,801.19 C874.56,859.74 810.12,1004.73 771.24,1092.21 " fill="none" id="ImportDataUI-to-ImportDataController" style="stroke:#181818;stroke-width:1.0;stroke-dasharray:7.0,7.0;"/><polygon fill="#181818" points="769.18,1096.85,776.4867,1090.246,771.208,1092.2798,769.1743,1087.0011,769.18,1096.85" style="stroke:#181818;stroke-width:1.0;"/></g><!--MD5=[24a3f2383a016a4d850b83a8c26dbaa7]
reverse link ImportPerformanceFromCSV to ImportDataController--><g id="link_ImportPerformanceFromCSV_ImportDataController"><path codeLine="108" d="M648.2,899.35 C671.1,964.98 698.3,1042.95 717.11,1096.9 " fill="none" id="ImportPerformanceFromCSV-backto-ImportDataController" style="stroke:#181818;stroke-width:1.0;stroke-dasharray:7.0,7.0;"/><polygon fill="#181818" points="646.42,894.24,645.6045,904.055,648.0654,898.9615,653.1589,901.4224,646.42,894.24" style="stroke:#181818;stroke-width:1.0;"/></g><!--MD5=[8ab620674a2de1900938e66f2cba1cfc]
link ImportPerformanceFromCSV to Platform--><g id="link_ImportPerformanceFromCSV_Platform"><path codeLine="109" d="M557.23,894.17 C547.93,926.35 541,961.56 541,995 C541,995 541,995 541,1679 C541,1731.23 535.95,1789.22 530.48,1836.69 " fill="none" id="ImportPerformanceFromCSV-to-Platform" style="stroke:#181818;stroke-width:1.0;stroke-dasharray:7.0,7.0;"/><polygon fill="#181818" points="529.88,1841.83,534.8843,1833.3473,530.4526,1836.8629,526.937,1832.4311,529.88,1841.83" style="stroke:#181818;stroke-width:1.0;"/></g><!--MD5=[ca6ad753b0e50611dd869110f4f2cf0f]
link SortDataUI to SortDataController--><g id="link_SortDataUI_SortDataController"><path codeLine="110" d="M432,60.16 C432,118.59 432,264.08 432,362.48 " fill="none" id="SortDataUI-to-SortDataController" style="stroke:#181818;stroke-width:1.0;stroke-dasharray:7.0,7.0;"/><polygon fill="#181818" points="432,367.72,436,358.72,432,362.72,428,358.72,432,367.72" style="stroke:#181818;stroke-width:1.0;"/></g><!--MD5=[56d6582165390c969b13d5e4253dbe37]
link SortDataController to ImportPerformanceFromCSV--><g id="link_SortDataController_ImportPerformanceFromCSV"><path codeLine="111" d="M483.2,554.2 C499.92,584.29 518.75,618.21 536.53,650.21 " fill="none" id="SortDataController-to-ImportPerformanceFromCSV" style="stroke:#181818;stroke-width:1.0;stroke-dasharray:7.0,7.0;"/><polygon fill="#181818" points="539.14,654.92,538.2904,645.1079,536.7227,650.5432,531.2874,648.9755,539.14,654.92" style="stroke:#181818;stroke-width:1.0;"/></g><!--MD5=[3380c4e6166a02c299bd5de3cde9cd16]
link SortDataController to Platform--><g id="link_SortDataController_Platform"><path codeLine="112" d="M394.48,554.05 C372.89,615.2 350,697.87 350,773.5 C350,773.5 350,773.5 350,1679 C350,1737.82 381.48,1793.63 417.1,1837.96 " fill="none" id="SortDataController-to-Platform" style="stroke:#181818;stroke-width:1.0;stroke-dasharray:7.0,7.0;"/><polygon fill="#181818" points="420.34,1841.94,417.7731,1832.4315,417.1887,1838.0581,411.5621,1837.4737,420.34,1841.94" style="stroke:#181818;stroke-width:1.0;"/></g><!--MD5=[803eb9eb4d52b08a252d9364ed32c993]
link SortDataController to App--><g id="link_SortDataController_App"><path codeLine="113" d="M551.61,501.75 C715.36,556.31 990.35,648.42 1000,655 C1009.63,661.57 1018.87,669.31 1027.56,677.64 " fill="none" id="SortDataController-to-App" style="stroke:#181818;stroke-width:1.0;stroke-dasharray:7.0,7.0;"/><polygon fill="#181818" points="1031.26,681.24,1027.5948,672.0985,1027.6748,677.7548,1022.0185,677.8348,1031.26,681.24" style="stroke:#181818;stroke-width:1.0;"/></g><!--MD5=[0cc2960f953601c63a1c55f7c67fc7f3]
link ImportDataController to Company--><g id="link_ImportDataController_Company"><path codeLine="114" d="M740,1230.09 C740,1286.98 740,1369.14 740,1427.55 " fill="none" id="ImportDataController-to-Company" style="stroke:#181818;stroke-width:1.0;stroke-dasharray:7.0,7.0;"/><polygon fill="#181818" points="740,1432.78,744,1423.78,740,1427.78,736,1423.78,740,1432.78" style="stroke:#181818;stroke-width:1.0;"/></g><!--MD5=[ec6199e558ea7f7a100260c488373f09]
reverse link Algorithms to App--><g id="link_Algorithms_App"><path codeLine="115" d="M1079.13,532.71 C1082.94,576.72 1087.89,633.79 1092.01,681.33 " fill="none" id="Algorithms-backto-App" style="stroke:#181818;stroke-width:1.0;stroke-dasharray:7.0,7.0;"/><polygon fill="#181818" points="1078.69,527.68,1075.4755,536.9895,1079.1182,532.6616,1083.4461,536.3044,1078.69,527.68" style="stroke:#181818;stroke-width:1.0;"/></g><!--MD5=[bea9cf5bb8fe1fc2341769cad6b24660]
link Platform to SNSUser--><g id="link_Platform_SNSUser"><path codeLine="116" d="M552.97,2028.32 C580.09,2089.89 621.72,2170.04 675,2229 C768.31,2332.26 906.22,2416.57 998.72,2466.26 " fill="none" id="Platform-SNSUser" style="stroke:#181818;stroke-width:1.0;"/><polygon fill="#000000" points="676.4334,2186.1716,680.8258,2194.6071,684.9452,2190.4143,676.4334,2186.1716" style="stroke:#000000;stroke-width:1.0;"/><text fill="#000000" font-family="sans-serif" font-size="13" lengthAdjust="spacing" textLength="64" x="691" y="2194.9951">registers in</text><text fill="#000000" font-family="sans-serif" font-size="13" lengthAdjust="spacing" textLength="7" x="546.2076" y="2051.4213">1</text><text fill="#000000" font-family="sans-serif" font-size="13" lengthAdjust="spacing" textLength="5" x="983.8509" y="2457.2037">*</text></g><!--MD5=[21512c86d93a99873013bf986f866ed2]
link Platform to VaccineType--><g id="link_Platform_VaccineType"><path codeLine="117" d="M516.05,2028.06 C514.77,2150.91 512.56,2364.34 511.54,2462.66 " fill="none" id="Platform-VaccineType" style="stroke:#181818;stroke-width:1.0;"/><polygon fill="#000000" points="519.0519,2184.6761,516.0193,2193.6902,521.8968,2193.7511,519.0519,2184.6761" style="stroke:#000000;stroke-width:1.0;"/><text fill="#000000" font-family="sans-serif" font-size="13" lengthAdjust="spacing" textLength="57" x="530" y="2194.9951">register in</text><text fill="#000000" font-family="sans-serif" font-size="13" lengthAdjust="spacing" textLength="7" x="506.5562" y="2051.4651">1</text><text fill="#000000" font-family="sans-serif" font-size="13" lengthAdjust="spacing" textLength="5" x="504.0326" y="2450.0672">*</text></g><!--MD5=[b482d663aae385f5ae82dde2f71259c6]
link Employee to Platform--><g id="link_Employee_Platform"><path codeLine="118" d="M176.8,1526.03 C187.35,1563.36 209.76,1634.35 241,1689 C274.94,1748.38 328.57,1800.84 379.56,1841.83 " fill="none" id="Employee-Platform" style="stroke:#181818;stroke-width:1.0;"/><polygon fill="#000000" points="248.7014,1682.3832,246.2876,1673.1841,241.3415,1676.3597,248.7014,1682.3832" style="stroke:#000000;stroke-width:1.0;"/><text fill="#000000" font-family="sans-serif" font-size="13" lengthAdjust="spacing" textLength="64" x="257" y="1683.4951">registers in</text><text fill="#000000" font-family="sans-serif" font-size="13" lengthAdjust="spacing" textLength="5" x="170.2744" y="1549.1327">*</text><text fill="#000000" font-family="sans-serif" font-size="13" lengthAdjust="spacing" textLength="7" x="359.1695" y="1829.124">1</text></g><!--MD5=[71da4be24892bfec694db06bf9e3c284]
link Company to Platform--><g id="link_Company_Platform"><path codeLine="119" d="M706.13,1566.34 C668.36,1639.76 606.99,1759.06 564.45,1841.76 " fill="none" id="Company-Platform" style="stroke:#181818;stroke-width:1.0;"/><polygon fill="#000000" points="656.7128,1682.622,663.4638,1675.9231,658.237,1673.2343,656.7128,1682.622" style="stroke:#000000;stroke-width:1.0;"/><text fill="#000000" font-family="sans-serif" font-size="13" lengthAdjust="spacing" textLength="21" x="670" y="1683.4951">has</text><text fill="#000000" font-family="sans-serif" font-size="13" lengthAdjust="spacing" textLength="7" x="693.5006" y="1588.9552">1</text><text fill="#000000" font-family="sans-serif" font-size="13" lengthAdjust="spacing" textLength="7" x="558.7929" y="1829.0484">1</text></g><!--MD5=[9084761d50b3ae63772cbd16d81d5f7b]
link Platform to VaccinationCenter--><g id="link_Platform_VaccinationCenter"><path codeLine="120" d="M478.56,2028.26 C462.99,2065.93 444.96,2109.98 429,2150 C405.73,2208.37 380.87,2272.21 358.6,2329.95 " fill="none" id="Platform-VaccinationCenter" style="stroke:#181818;stroke-width:1.0;"/><polygon fill="#000000" points="435.8474,2185.0296,429.7744,2192.3487,435.2363,2194.5205,435.8474,2185.0296" style="stroke:#000000;stroke-width:1.0;"/><text fill="#000000" font-family="sans-serif" font-size="13" lengthAdjust="spacing" textLength="57" x="445" y="2194.9951">register in</text><text fill="#000000" font-family="sans-serif" font-size="13" lengthAdjust="spacing" textLength="7" x="466.3332" y="2051.3569">1</text><text fill="#000000" font-family="sans-serif" font-size="13" lengthAdjust="spacing" textLength="5" x="354.3886" y="2317.1748">*</text></g><!--MD5=[d5cf03d886352995267197dc535618ec]
link CenterCoordinator to VaccinationCenter--><g id="link_CenterCoordinator_VaccinationCenter"><path codeLine="121" d="M105.51,1792.27 C126.6,1875.81 194.45,2144.5 241.19,2329.63 " fill="none" id="CenterCoordinator-VaccinationCenter" style="stroke:#181818;stroke-width:1.0;"/><polygon fill="#000000" points="189.2241,2094.0236,189.8592,2084.5343,184.1602,2085.9733,189.2241,2094.0236" style="stroke:#000000;stroke-width:1.0;"/><text fill="#000000" font-family="sans-serif" font-size="13" lengthAdjust="spacing" textLength="53" x="199" y="2094.4951">manages</text><text fill="#000000" font-family="sans-serif" font-size="13" lengthAdjust="spacing" textLength="7" x="96.7088" y="1815.0742">1</text><text fill="#000000" font-family="sans-serif" font-size="13" lengthAdjust="spacing" textLength="7" x="229.9832" y="2316.8413">1</text></g><!--MD5=[98f7f3dc8d9719d04ad14614c4ea123f]
reverse link Employee to CenterCoordinator--><g id="link_Employee_CenterCoordinator"><path codeLine="122" d="M157.85,1545.67 C142.86,1601.42 117.87,1694.33 105.86,1738.99 " fill="none" id="Employee-backto-CenterCoordinator" style="stroke:#181818;stroke-width:1.0;"/><polygon fill="none" points="151.11,1543.79,163.06,1526.29,164.63,1547.43,151.11,1543.79" style="stroke:#181818;stroke-width:1.0;"/></g><!--MD5=[717d4b03d3c4372f4eafe5e342a0a7dd]
link Company to AuthFacade--><g id="link_Company_AuthFacade"><path codeLine="123" d="M754.12,1566.16 C784.1,1705.49 853.38,2027.58 878.6,2144.82 " fill="none" id="Company-to-AuthFacade" style="stroke:#181818;stroke-width:1.0;stroke-dasharray:7.0,7.0;"/><polygon fill="#181818" points="879.7,2149.91,881.7062,2140.2676,878.6426,2145.0231,873.8871,2141.9595,879.7,2149.91" style="stroke:#181818;stroke-width:1.0;"/></g><!--MD5=[407f5cddcdb18dfe0f3a2e42bd3fef57]
link App to AuthFacade--><g id="link_App_AuthFacade"><path codeLine="124" d="M1063.73,867.76 C1051.55,906.45 1041,952.28 1041,995 C1041,995 1041,995 1041,1936 C1041,2019.67 978.78,2099.31 933.7,2146.03 " fill="none" id="App-to-AuthFacade" style="stroke:#181818;stroke-width:1.0;stroke-dasharray:7.0,7.0;"/><polygon fill="#181818" points="930.21,2149.62,939.3588,2145.9731,933.7023,2146.0418,933.6336,2140.3854,930.21,2149.62" style="stroke:#181818;stroke-width:1.0;"/></g><!--MD5=[45628f1328460b055b9a5c61b7bfe2b6]
link Platform to AuthFacade--><g id="link_Platform_AuthFacade"><path codeLine="125" d="M652.25,2028.05 C712.16,2068.82 779.62,2114.74 826.98,2146.97 " fill="none" id="Platform-to-AuthFacade" style="stroke:#181818;stroke-width:1.0;stroke-dasharray:7.0,7.0;"/><polygon fill="#181818" points="831.22,2149.85,826.023,2141.484,827.084,2147.0404,821.5276,2148.1015,831.22,2149.85" style="stroke:#181818;stroke-width:1.0;"/></g><!--MD5=[5b0df4f391831e7d201621161faec5c2]
link RegisterSNSUser to ImportPerformanceFromCSV--><g id="link_RegisterSNSUser_ImportPerformanceFromCSV"><path codeLine="126" d="M1035.88,226.26 C931.37,241.99 795.88,279.39 712,368 C673.64,408.53 642.85,545.91 624.33,649.62 " fill="none" id="RegisterSNSUser-to-ImportPerformanceFromCSV" style="stroke:#181818;stroke-width:1.0;stroke-dasharray:7.0,7.0;"/><polygon fill="#181818" points="623.4,654.85,628.9059,646.6839,624.2706,649.9264,621.0281,645.291,623.4,654.85" style="stroke:#181818;stroke-width:1.0;"/></g><!--MD5=[c1315e5b078b31e19186abaff63586d3]
link LoadFromCSV to ImportPerformanceFromCSV--><g id="link_LoadFromCSV_ImportPerformanceFromCSV"><path codeLine="127" d="M605,267.04 C605,353.63 605,529.59 605,649.53 " fill="none" id="LoadFromCSV-to-ImportPerformanceFromCSV" style="stroke:#181818;stroke-width:1.0;stroke-dasharray:7.0,7.0;"/><polygon fill="#181818" points="605,654.84,609,645.84,605,649.84,601,645.84,605,654.84" style="stroke:#181818;stroke-width:1.0;"/></g><!--MD5=[83d02b89ddff32003d8ae1268f620631]
reverse link RegisterSNSUser to SNSUser--><g id="link_RegisterSNSUser_SNSUser"><path codeLine="128" d="M1291.1,255.88 C1372.14,294.82 1470,362.12 1470,460 C1470,460 1470,460 1470,2190.5 C1470,2336.42 1305.51,2431.64 1195,2479.14 " fill="none" id="RegisterSNSUser-backto-SNSUser" style="stroke:#181818;stroke-width:1.0;stroke-dasharray:7.0,7.0;"/><polygon fill="#181818" points="1286.28,253.59,1292.6952,261.063,1290.7969,255.7341,1296.1258,253.8359,1286.28,253.59" style="stroke:#181818;stroke-width:1.0;"/></g><!--MD5=[1489957ff91e86f1b68cea42df64af61]
@startuml

skinparam classAttributeIconSize 0


skinparam padding 2
skinparam ranksep 100
skinparam classFontSize 18
class AuthFacade{
+getCurrentUserSession()
}
class ImportDataUI
class ImportDataController{
+ importPerformanceFromCSV()
+ getListOfFiles(String path)
+ checkLogin()
}

class ImportPerformanceFromCSV{
- List<String[]> performanceDataListString
- RegisterUsers registerUsers
- RegisterVaccineType m_oRegisterVaccineType
+ getListOfFiles(String path)
+ importPerformanceFromCSV(String filename)
+ convertCSV(InputStream inputStream)
+ getPerformanceDataListString()
}

class SortDataUI{}

class SortDataController{
+ checkLogin()
+ selectTypeOfDataToSort()
+ sortByArrivalTime()
+ sortByLeavingTime()
- showData()
}

class Company{
- designation
+ getPlatform()
+ getAuthFacade()
}

class Platform{
- description
- ImportDataFromCSV ImportDataFromCSV
+ getLoadUsersFromCSV()
+ getRegisterEmployee()
+ getImportPerformanceFromCSV()
}
class Algorithms{
+ quickSort(int sortElementOfArray, List<String[]> arr, int begin, int end)
+ partition(int sortElementOfArray, List<String[]> arr, int begin, int end)
+ bubbleSortDates(int sortElementOfArray, List<String[]> performanceDataListString)
}

class VaccinationCenter{
name
address
phoneNumber
emailAddress
faxNumber
websiteAddress
openingHours
openingMinutes
closingHours
closingMinutes
slotDuration
maxNumberVaccines
}

class App{
+ getBubbleSort()
+ getQuickSort()
+ getCompany()
+ getUserSession()
- bootstrap()
}
class Employee
class VaccineType
class SNSUser{
- name
- address
- gender
- email
- birthDate
- snsUserNumber
- citizenCardNumber
+ getSnsUserNumber()
}

class VaccineType{
+ getVaccineList()
+ getDesignation()
}


class RegisterSNSUser{
+ getSNSUserBySNSUserNumber()
}
interface LoadFromCSV{
+ {static}getListOfFiles(path)
+ {static}loadFromCSV(fileName)
}


ImportDataUI ...> ImportDataController
ImportPerformanceFromCSV <... ImportDataController
ImportPerformanceFromCSV ...> Platform
SortDataUI ...> SortDataController
SortDataController ..> ImportPerformanceFromCSV
SortDataController ..> Platform
SortDataController ..> App
ImportDataController ...> Company
Algorithms <.. App
Platform "1" - - - "*" SNSUser : registers in <
Platform "1" - - - "*" VaccineType : register in <
Employee "*" - - - "1" Platform : registers in >
Company "1" - - - "1" Platform : has >
Platform "1" - - - "*" VaccinationCenter : register in <
CenterCoordinator "1" - "1" VaccinationCenter : manages >
Employee <|- - CenterCoordinator
Company ..> AuthFacade
App ..> AuthFacade
Platform ..> AuthFacade
RegisterSNSUser ...> ImportPerformanceFromCSV
LoadFromCSV ...> ImportPerformanceFromCSV
RegisterSNSUser <.. SNSUser

@enduml

PlantUML version 1.2022.5(Sat Apr 30 11:55:52 BST 2022)
(GPL source distribution)
Java Runtime: OpenJDK Runtime Environment
JVM: OpenJDK 64-Bit Server VM
Default Encoding: Cp1252
Language: pt
Country: PT
--></g></svg>