<?xml version="1.0" encoding="UTF-8" standalone="no"?><svg xmlns="http://www.w3.org/2000/svg" xmlns:xlink="http://www.w3.org/1999/xlink" contentStyleType="text/css" height="1000px" preserveAspectRatio="none" style="width:2501px;height:1000px;background:#FFFFFF;" version="1.1" viewBox="0 0 2501 1000" width="2501px" zoomAndPan="magnify"><defs/><g><rect fill="#FFFFFF" height="807.8438" style="stroke:#181818;stroke-width:1.0;" width="10" x="21.5" y="92.6094"/><rect fill="#FFFFFF" height="422.6797" style="stroke:#181818;stroke-width:1.0;" width="10" x="375.5" y="114.9609"/><rect fill="#FFFFFF" height="341.4609" style="stroke:#181818;stroke-width:1.0;" width="10" x="375.5" y="567.9922"/><rect fill="#FFFFFF" height="200.9219" style="stroke:#181818;stroke-width:1.0;" width="10" x="808" y="155.3125"/><rect fill="#FFFFFF" height="120.7031" style="stroke:#181818;stroke-width:1.0;" width="10" x="808" y="386.5859"/><rect fill="#FFFFFF" height="311.1094" style="stroke:#181818;stroke-width:1.0;" width="10" x="808" y="598.3438"/><rect fill="#FFFFFF" height="30" style="stroke:#181818;stroke-width:1.0;" width="10" x="960" y="205.5313"/><rect fill="#FFFFFF" height="30" style="stroke:#181818;stroke-width:1.0;" width="10" x="1060" y="416.9375"/><rect fill="#FFFFFF" height="30" style="stroke:#181818;stroke-width:1.0;" width="10" x="1060" y="628.6953"/><rect fill="#FFFFFF" height="30" style="stroke:#181818;stroke-width:1.0;" width="10" x="1142.5" y="265.8828"/><rect fill="#FFFFFF" height="90.7031" style="stroke:#181818;stroke-width:1.0;" width="10" x="1142.5" y="689.0469"/><rect fill="#FFFFFF" height="30" style="stroke:#181818;stroke-width:1.0;" width="10" x="1225" y="326.2344"/><rect fill="#FFFFFF" height="30" style="stroke:#181818;stroke-width:1.0;" width="10" x="1367.5" y="477.2891"/><rect fill="#FFFFFF" height="30" style="stroke:#181818;stroke-width:1.0;" width="10" x="1537.5" y="810.1016"/><rect fill="#FFFFFF" height="60.3516" style="stroke:#181818;stroke-width:1.0;" width="10" x="1662.5" y="719.3984"/><rect fill="#FFFFFF" height="30" style="stroke:#181818;stroke-width:1.0;" width="10" x="1768.5" y="749.75"/><rect fill="#FFFFFF" height="30" style="stroke:#181818;stroke-width:1.0;" width="10" x="1848.5" y="870.4531"/><line style="stroke:#181818;stroke-width:0.5;stroke-dasharray:5.0,5.0;" x1="26" x2="26" y1="82.6094" y2="918.4531"/><line style="stroke:#181818;stroke-width:0.5;stroke-dasharray:5.0,5.0;" x1="380" x2="380" y1="82.6094" y2="918.4531"/><line style="stroke:#181818;stroke-width:0.5;stroke-dasharray:5.0,5.0;" x1="812.5" x2="812.5" y1="163.0703" y2="918.4531"/><line style="stroke:#181818;stroke-width:0.5;stroke-dasharray:5.0,5.0;" x1="964.5" x2="964.5" y1="82.6094" y2="918.4531"/><line style="stroke:#181818;stroke-width:0.5;stroke-dasharray:5.0,5.0;" x1="1065" x2="1065" y1="82.6094" y2="918.4531"/><line style="stroke:#181818;stroke-width:0.5;stroke-dasharray:5.0,5.0;" x1="1147" x2="1147" y1="82.6094" y2="918.4531"/><line style="stroke:#181818;stroke-width:0.5;stroke-dasharray:5.0,5.0;" x1="1230" x2="1230" y1="82.6094" y2="918.4531"/><line style="stroke:#181818;stroke-width:0.5;stroke-dasharray:5.0,5.0;" x1="1372" x2="1372" y1="82.6094" y2="918.4531"/><line style="stroke:#181818;stroke-width:0.5;stroke-dasharray:5.0,5.0;" x1="1542" x2="1542" y1="82.6094" y2="918.4531"/><line style="stroke:#181818;stroke-width:0.5;stroke-dasharray:5.0,5.0;" x1="1667" x2="1667" y1="82.6094" y2="918.4531"/><line style="stroke:#181818;stroke-width:0.5;stroke-dasharray:5.0,5.0;" x1="1773.5" x2="1773.5" y1="82.6094" y2="918.4531"/><line style="stroke:#181818;stroke-width:0.5;stroke-dasharray:5.0,5.0;" x1="1853.5" x2="1853.5" y1="82.6094" y2="918.4531"/><line style="stroke:#181818;stroke-width:0.5;stroke-dasharray:5.0,5.0;" x1="1993.5" x2="1993.5" y1="82.6094" y2="918.4531"/><line style="stroke:#181818;stroke-width:0.5;stroke-dasharray:5.0,5.0;" x1="2158.5" x2="2158.5" y1="82.6094" y2="918.4531"/><line style="stroke:#181818;stroke-width:0.5;stroke-dasharray:5.0,5.0;" x1="2299.5" x2="2299.5" y1="82.6094" y2="918.4531"/><line style="stroke:#181818;stroke-width:0.5;stroke-dasharray:5.0,5.0;" x1="2434.5" x2="2434.5" y1="82.6094" y2="918.4531"/><text fill="#000000" font-family="sans-serif" font-size="14" lengthAdjust="spacing" textLength="37" x="5" y="79.5332">Nurse</text><ellipse cx="26.5" cy="13.5" fill="#E2E2F0" rx="8" ry="8" style="stroke:#181818;stroke-width:0.5;"/><path d="M26.5,21.5 L26.5,48.5 M13.5,29.5 L39.5,29.5 M26.5,48.5 L13.5,63.5 M26.5,48.5 L39.5,63.5 " fill="none" style="stroke:#181818;stroke-width:0.5;"/><text fill="#000000" font-family="sans-serif" font-size="14" lengthAdjust="spacing" textLength="37" x="5" y="931.9863">Nurse</text><ellipse cx="26.5" cy="943.5625" fill="#E2E2F0" rx="8" ry="8" style="stroke:#181818;stroke-width:0.5;"/><path d="M26.5,951.5625 L26.5,978.5625 M13.5,959.5625 L39.5,959.5625 M26.5,978.5625 L13.5,993.5625 M26.5,978.5625 L39.5,993.5625 " fill="none" style="stroke:#181818;stroke-width:0.5;"/><rect fill="#E2E2F0" height="31.6094" rx="2.5" ry="2.5" style="stroke:#181818;stroke-width:0.5;" width="181" x="290" y="50"/><text fill="#000000" font-family="sans-serif" font-size="14" lengthAdjust="spacing" textLength="167" x="297" y="71.5332">SelectVaccinationCenterUI</text><rect fill="#E2E2F0" height="31.6094" rx="2.5" ry="2.5" style="stroke:#181818;stroke-width:0.5;" width="181" x="290" y="917.4531"/><text fill="#000000" font-family="sans-serif" font-size="14" lengthAdjust="spacing" textLength="167" x="297" y="938.9863">SelectVaccinationCenterUI</text><rect fill="#E2E2F0" height="49.2188" rx="2.5" ry="2.5" style="stroke:#181818;stroke-width:0.5;" width="235" x="695.5" y="917.4531"/><text fill="#000000" font-family="sans-serif" font-size="14" lengthAdjust="spacing" textLength="59" x="783.5" y="938.9863">controller</text><text fill="#000000" font-family="sans-serif" font-size="14" lengthAdjust="spacing" textLength="221" x="702.5" y="956.5957">:SelectVaccinationCenterController</text><rect fill="#E2E2F0" height="31.6094" rx="2.5" ry="2.5" style="stroke:#181818;stroke-width:0.5;" width="43" x="943.5" y="50"/><text fill="#000000" font-family="sans-serif" font-size="14" lengthAdjust="spacing" textLength="29" x="950.5" y="71.5332">:App</text><rect fill="#E2E2F0" height="31.6094" rx="2.5" ry="2.5" style="stroke:#181818;stroke-width:0.5;" width="43" x="943.5" y="917.4531"/><text fill="#000000" font-family="sans-serif" font-size="14" lengthAdjust="spacing" textLength="29" x="950.5" y="938.9863">:App</text><rect fill="#E2E2F0" height="49.2188" rx="2.5" ry="2.5" style="stroke:#181818;stroke-width:0.5;" width="78" x="1026" y="32.3906"/><text fill="#000000" font-family="sans-serif" font-size="14" lengthAdjust="spacing" textLength="23" x="1053.5" y="53.9238">plat</text><text fill="#000000" font-family="sans-serif" font-size="14" lengthAdjust="spacing" textLength="60" x="1037" y="71.5332">: Platform</text><rect fill="#E2E2F0" height="49.2188" rx="2.5" ry="2.5" style="stroke:#181818;stroke-width:0.5;" width="78" x="1026" y="917.4531"/><text fill="#000000" font-family="sans-serif" font-size="14" lengthAdjust="spacing" textLength="23" x="1053.5" y="938.9863">plat</text><text fill="#000000" font-family="sans-serif" font-size="14" lengthAdjust="spacing" textLength="60" x="1037" y="956.5957">: Platform</text><rect fill="#E2E2F0" height="31.6094" rx="2.5" ry="2.5" style="stroke:#181818;stroke-width:0.5;" width="67" x="1114" y="50"/><text fill="#000000" font-family="sans-serif" font-size="14" lengthAdjust="spacing" textLength="53" x="1121" y="71.5332">app:App</text><rect fill="#E2E2F0" height="31.6094" rx="2.5" ry="2.5" style="stroke:#181818;stroke-width:0.5;" width="67" x="1114" y="917.4531"/><text fill="#000000" font-family="sans-serif" font-size="14" lengthAdjust="spacing" textLength="53" x="1121" y="938.9863">app:App</text><rect fill="#E2E2F0" height="49.2188" rx="2.5" ry="2.5" style="stroke:#181818;stroke-width:0.5;" width="78" x="1191" y="32.3906"/><text fill="#000000" font-family="sans-serif" font-size="14" lengthAdjust="spacing" textLength="34" x="1213" y="53.9238">comp</text><text fill="#000000" font-family="sans-serif" font-size="14" lengthAdjust="spacing" textLength="64" x="1198" y="71.5332">:Company</text><rect fill="#E2E2F0" height="49.2188" rx="2.5" ry="2.5" style="stroke:#181818;stroke-width:0.5;" width="78" x="1191" y="917.4531"/><text fill="#000000" font-family="sans-serif" font-size="14" lengthAdjust="spacing" textLength="34" x="1213" y="938.9863">comp</text><text fill="#000000" font-family="sans-serif" font-size="14" lengthAdjust="spacing" textLength="64" x="1198" y="956.5957">:Company</text><rect fill="#E2E2F0" height="49.2188" rx="2.5" ry="2.5" style="stroke:#181818;stroke-width:0.5;" width="187" x="1279" y="32.3906"/><text fill="#000000" font-family="sans-serif" font-size="14" lengthAdjust="spacing" textLength="19" x="1363" y="53.9238">rvc</text><text fill="#000000" font-family="sans-serif" font-size="14" lengthAdjust="spacing" textLength="173" x="1286" y="71.5332">:RegisterVaccinationCenter</text><rect fill="#E2E2F0" height="49.2188" rx="2.5" ry="2.5" style="stroke:#181818;stroke-width:0.5;" width="187" x="1279" y="917.4531"/><text fill="#000000" font-family="sans-serif" font-size="14" lengthAdjust="spacing" textLength="19" x="1363" y="938.9863">rvc</text><text fill="#000000" font-family="sans-serif" font-size="14" lengthAdjust="spacing" textLength="173" x="1286" y="956.5957">:RegisterVaccinationCenter</text><rect fill="#E2E2F0" height="49.2188" rx="2.5" ry="2.5" style="stroke:#181818;stroke-width:0.5;" width="133" x="1476" y="32.3906"/><text fill="#000000" font-family="sans-serif" font-size="14" lengthAdjust="spacing" textLength="21" x="1532" y="53.9238">reg</text><text fill="#000000" font-family="sans-serif" font-size="14" lengthAdjust="spacing" textLength="119" x="1483" y="71.5332">:RegisterEmployee</text><rect fill="#E2E2F0" height="49.2188" rx="2.5" ry="2.5" style="stroke:#181818;stroke-width:0.5;" width="133" x="1476" y="917.4531"/><text fill="#000000" font-family="sans-serif" font-size="14" lengthAdjust="spacing" textLength="21" x="1532" y="938.9863">reg</text><text fill="#000000" font-family="sans-serif" font-size="14" lengthAdjust="spacing" textLength="119" x="1483" y="956.5957">:RegisterEmployee</text><rect fill="#E2E2F0" height="49.2188" rx="2.5" ry="2.5" style="stroke:#181818;stroke-width:0.5;" width="97" x="1619" y="32.3906"/><text fill="#000000" font-family="sans-serif" font-size="14" lengthAdjust="spacing" textLength="48" x="1641.5" y="53.9238">session</text><text fill="#000000" font-family="sans-serif" font-size="14" lengthAdjust="spacing" textLength="83" x="1626" y="71.5332">:UserSession</text><rect fill="#E2E2F0" height="49.2188" rx="2.5" ry="2.5" style="stroke:#181818;stroke-width:0.5;" width="97" x="1619" y="917.4531"/><text fill="#000000" font-family="sans-serif" font-size="14" lengthAdjust="spacing" textLength="48" x="1641.5" y="938.9863">session</text><text fill="#000000" font-family="sans-serif" font-size="14" lengthAdjust="spacing" textLength="83" x="1626" y="956.5957">:UserSession</text><rect fill="#E2E2F0" height="49.2188" rx="2.5" ry="2.5" style="stroke:#181818;stroke-width:0.5;" width="56" x="1745.5" y="32.3906"/><text fill="#000000" font-family="sans-serif" font-size="14" lengthAdjust="spacing" textLength="33" x="1757" y="53.9238">email</text><text fill="#000000" font-family="sans-serif" font-size="14" lengthAdjust="spacing" textLength="38" x="1756.5" y="71.5332">:Email</text><rect fill="#E2E2F0" height="49.2188" rx="2.5" ry="2.5" style="stroke:#181818;stroke-width:0.5;" width="56" x="1745.5" y="917.4531"/><text fill="#000000" font-family="sans-serif" font-size="14" lengthAdjust="spacing" textLength="33" x="1757" y="938.9863">email</text><text fill="#000000" font-family="sans-serif" font-size="14" lengthAdjust="spacing" textLength="38" x="1756.5" y="956.5957">:Email</text><rect fill="#E2E2F0" height="49.2188" rx="2.5" ry="2.5" style="stroke:#181818;stroke-width:0.5;" width="84" x="1811.5" y="32.3906"/><text fill="#000000" font-family="sans-serif" font-size="14" lengthAdjust="spacing" textLength="27" x="1840" y="53.9238">emp</text><text fill="#000000" font-family="sans-serif" font-size="14" lengthAdjust="spacing" textLength="66" x="1822.5" y="71.5332">:Employee</text><rect fill="#E2E2F0" height="49.2188" rx="2.5" ry="2.5" style="stroke:#181818;stroke-width:0.5;" width="84" x="1811.5" y="917.4531"/><text fill="#000000" font-family="sans-serif" font-size="14" lengthAdjust="spacing" textLength="27" x="1840" y="938.9863">emp</text><text fill="#000000" font-family="sans-serif" font-size="14" lengthAdjust="spacing" textLength="66" x="1822.5" y="956.5957">:Employee</text><rect fill="#E2E2F0" height="49.2188" rx="2.5" ry="2.5" style="stroke:#181818;stroke-width:0.5;" width="176" x="1905.5" y="32.3906"/><text fill="#000000" font-family="sans-serif" font-size="14" lengthAdjust="spacing" textLength="14" x="1986.5" y="53.9238">lst</text><text fill="#000000" font-family="sans-serif" font-size="14" lengthAdjust="spacing" textLength="162" x="1912.5" y="71.5332">: List&lt;VaccinationCenter&gt;</text><rect fill="#E2E2F0" height="49.2188" rx="2.5" ry="2.5" style="stroke:#181818;stroke-width:0.5;" width="176" x="1905.5" y="917.4531"/><text fill="#000000" font-family="sans-serif" font-size="14" lengthAdjust="spacing" textLength="14" x="1986.5" y="938.9863">lst</text><text fill="#000000" font-family="sans-serif" font-size="14" lengthAdjust="spacing" textLength="162" x="1912.5" y="956.5957">: List&lt;VaccinationCenter&gt;</text><rect fill="#E2E2F0" height="49.2188" rx="2.5" ry="2.5" style="stroke:#181818;stroke-width:0.5;" width="134" x="2091.5" y="32.3906"/><text fill="#000000" font-family="sans-serif" font-size="14" lengthAdjust="spacing" textLength="22" x="2147.5" y="53.9238">vac</text><text fill="#000000" font-family="sans-serif" font-size="14" lengthAdjust="spacing" textLength="120" x="2098.5" y="71.5332">:VaccinationCenter</text><rect fill="#E2E2F0" height="49.2188" rx="2.5" ry="2.5" style="stroke:#181818;stroke-width:0.5;" width="134" x="2091.5" y="917.4531"/><text fill="#000000" font-family="sans-serif" font-size="14" lengthAdjust="spacing" textLength="22" x="2147.5" y="938.9863">vac</text><text fill="#000000" font-family="sans-serif" font-size="14" lengthAdjust="spacing" textLength="120" x="2098.5" y="956.5957">:VaccinationCenter</text><rect fill="#E2E2F0" height="49.2188" rx="2.5" ry="2.5" style="stroke:#181818;stroke-width:0.5;" width="128" x="2235.5" y="32.3906"/><text fill="#000000" font-family="sans-serif" font-size="14" lengthAdjust="spacing" textLength="114" x="2242.5" y="53.9238">vaccinationCenter</text><text fill="#000000" font-family="sans-serif" font-size="14" lengthAdjust="spacing" textLength="45" x="2277" y="71.5332">:Object</text><rect fill="#E2E2F0" height="49.2188" rx="2.5" ry="2.5" style="stroke:#181818;stroke-width:0.5;" width="128" x="2235.5" y="917.4531"/><text fill="#000000" font-family="sans-serif" font-size="14" lengthAdjust="spacing" textLength="114" x="2242.5" y="938.9863">vaccinationCenter</text><text fill="#000000" font-family="sans-serif" font-size="14" lengthAdjust="spacing" textLength="45" x="2277" y="956.5957">:Object</text><rect fill="#E2E2F0" height="49.2188" rx="2.5" ry="2.5" style="stroke:#181818;stroke-width:0.5;" width="122" x="2373.5" y="32.3906"/><text fill="#000000" font-family="sans-serif" font-size="14" lengthAdjust="spacing" textLength="11" x="2429" y="53.9238">le</text><text fill="#000000" font-family="sans-serif" font-size="14" lengthAdjust="spacing" textLength="104" x="2384.5" y="71.5332">:List&lt;Employee&gt;</text><rect fill="#E2E2F0" height="49.2188" rx="2.5" ry="2.5" style="stroke:#181818;stroke-width:0.5;" width="122" x="2373.5" y="917.4531"/><text fill="#000000" font-family="sans-serif" font-size="14" lengthAdjust="spacing" textLength="11" x="2429" y="938.9863">le</text><text fill="#000000" font-family="sans-serif" font-size="14" lengthAdjust="spacing" textLength="104" x="2384.5" y="956.5957">:List&lt;Employee&gt;</text><rect fill="#FFFFFF" height="807.8438" style="stroke:#181818;stroke-width:1.0;" width="10" x="21.5" y="92.6094"/><rect fill="#FFFFFF" height="422.6797" style="stroke:#181818;stroke-width:1.0;" width="10" x="375.5" y="114.9609"/><rect fill="#FFFFFF" height="341.4609" style="stroke:#181818;stroke-width:1.0;" width="10" x="375.5" y="567.9922"/><rect fill="#FFFFFF" height="200.9219" style="stroke:#181818;stroke-width:1.0;" width="10" x="808" y="155.3125"/><rect fill="#FFFFFF" height="120.7031" style="stroke:#181818;stroke-width:1.0;" width="10" x="808" y="386.5859"/><rect fill="#FFFFFF" height="311.1094" style="stroke:#181818;stroke-width:1.0;" width="10" x="808" y="598.3438"/><rect fill="#FFFFFF" height="30" style="stroke:#181818;stroke-width:1.0;" width="10" x="960" y="205.5313"/><rect fill="#FFFFFF" height="30" style="stroke:#181818;stroke-width:1.0;" width="10" x="1060" y="416.9375"/><rect fill="#FFFFFF" height="30" style="stroke:#181818;stroke-width:1.0;" width="10" x="1060" y="628.6953"/><rect fill="#FFFFFF" height="30" style="stroke:#181818;stroke-width:1.0;" width="10" x="1142.5" y="265.8828"/><rect fill="#FFFFFF" height="90.7031" style="stroke:#181818;stroke-width:1.0;" width="10" x="1142.5" y="689.0469"/><rect fill="#FFFFFF" height="30" style="stroke:#181818;stroke-width:1.0;" width="10" x="1225" y="326.2344"/><rect fill="#FFFFFF" height="30" style="stroke:#181818;stroke-width:1.0;" width="10" x="1367.5" y="477.2891"/><rect fill="#FFFFFF" height="30" style="stroke:#181818;stroke-width:1.0;" width="10" x="1537.5" y="810.1016"/><rect fill="#FFFFFF" height="60.3516" style="stroke:#181818;stroke-width:1.0;" width="10" x="1662.5" y="719.3984"/><rect fill="#FFFFFF" height="30" style="stroke:#181818;stroke-width:1.0;" width="10" x="1768.5" y="749.75"/><rect fill="#FFFFFF" height="30" style="stroke:#181818;stroke-width:1.0;" width="10" x="1848.5" y="870.4531"/><polygon fill="#181818" points="363.5,110.9609,373.5,114.9609,363.5,118.9609,367.5,114.9609" style="stroke:#181818;stroke-width:1.0;"/><line style="stroke:#181818;stroke-width:1.0;" x1="31.5" x2="369.5" y1="114.9609" y2="114.9609"/><text fill="#000000" font-family="sans-serif" font-size="13" font-weight="bold" lengthAdjust="spacing" textLength="7" x="38.5" y="110.1045">1</text><text fill="#000000" font-family="sans-serif" font-size="13" lengthAdjust="spacing" textLength="293" x="49.5" y="110.1045">Selecting the vaccination center where s(he) works</text><polygon fill="#181818" points="683.5,141.3125,693.5,145.3125,683.5,149.3125,687.5,145.3125" style="stroke:#181818;stroke-width:1.0;"/><line style="stroke:#181818;stroke-width:1.0;stroke-dasharray:2.0,2.0;" x1="385.5" x2="689.5" y1="145.3125" y2="145.3125"/><text fill="#000000" font-family="sans-serif" font-size="13" font-weight="bold" lengthAdjust="spacing" textLength="7" x="392.5" y="140.4561">2</text><text fill="#000000" font-family="sans-serif" font-size="13" lengthAdjust="spacing" textLength="275" x="403.5" y="140.4561">controller = SelectVaccinationCenterController()</text><rect fill="#E2E2F0" height="49.2188" rx="2.5" ry="2.5" style="stroke:#181818;stroke-width:0.5;" width="235" x="695.5" y="122.9609"/><text fill="#000000" font-family="sans-serif" font-size="14" lengthAdjust="spacing" textLength="59" x="783.5" y="144.4941">controller</text><text fill="#000000" font-family="sans-serif" font-size="14" lengthAdjust="spacing" textLength="221" x="702.5" y="162.1035">:SelectVaccinationCenterController</text><polygon fill="#181818" points="948,201.5313,958,205.5313,948,209.5313,952,205.5313" style="stroke:#181818;stroke-width:1.0;"/><line style="stroke:#181818;stroke-width:1.0;" x1="818" x2="954" y1="205.5313" y2="205.5313"/><text fill="#000000" font-family="sans-serif" font-size="13" font-weight="bold" lengthAdjust="spacing" textLength="7" x="825" y="200.6748">3</text><text fill="#000000" font-family="sans-serif" font-size="13" lengthAdjust="spacing" textLength="112" x="836" y="200.6748">app = getInstance()</text><polygon fill="#181818" points="1130.5,261.8828,1140.5,265.8828,1130.5,269.8828,1134.5,265.8828" style="stroke:#181818;stroke-width:1.0;"/><line style="stroke:#181818;stroke-width:1.0;" x1="818" x2="1136.5" y1="265.8828" y2="265.8828"/><text fill="#000000" font-family="sans-serif" font-size="13" font-weight="bold" lengthAdjust="spacing" textLength="7" x="825" y="261.0264">4</text><text fill="#000000" font-family="sans-serif" font-size="13" lengthAdjust="spacing" textLength="129" x="836" y="261.0264">comp = getCompany()</text><polygon fill="#181818" points="1213,322.2344,1223,326.2344,1213,330.2344,1217,326.2344" style="stroke:#181818;stroke-width:1.0;"/><line style="stroke:#181818;stroke-width:1.0;" x1="818" x2="1219" y1="326.2344" y2="326.2344"/><text fill="#000000" font-family="sans-serif" font-size="13" font-weight="bold" lengthAdjust="spacing" textLength="7" x="825" y="321.3779">5</text><text fill="#000000" font-family="sans-serif" font-size="13" lengthAdjust="spacing" textLength="111" x="836" y="321.3779">plat = getPlatform()</text><polygon fill="#181818" points="796,382.5859,806,386.5859,796,390.5859,800,386.5859" style="stroke:#181818;stroke-width:1.0;"/><line style="stroke:#181818;stroke-width:1.0;" x1="385.5" x2="802" y1="386.5859" y2="386.5859"/><text fill="#000000" font-family="sans-serif" font-size="13" font-weight="bold" lengthAdjust="spacing" textLength="7" x="392.5" y="381.7295">6</text><text fill="#000000" font-family="sans-serif" font-size="13" lengthAdjust="spacing" textLength="183" x="403.5" y="381.7295">lst = getListVaccinationCenter()</text><polygon fill="#181818" points="1048,412.9375,1058,416.9375,1048,420.9375,1052,416.9375" style="stroke:#181818;stroke-width:1.0;"/><line style="stroke:#181818;stroke-width:1.0;" x1="818" x2="1054" y1="416.9375" y2="416.9375"/><text fill="#000000" font-family="sans-serif" font-size="13" font-weight="bold" lengthAdjust="spacing" textLength="7" x="825" y="412.0811">7</text><text fill="#000000" font-family="sans-serif" font-size="13" lengthAdjust="spacing" textLength="212" x="836" y="412.0811">rvc = getRegisterVaccinationCenter()</text><polygon fill="#181818" points="1355.5,473.2891,1365.5,477.2891,1355.5,481.2891,1359.5,477.2891" style="stroke:#181818;stroke-width:1.0;"/><line style="stroke:#181818;stroke-width:1.0;" x1="818" x2="1361.5" y1="477.2891" y2="477.2891"/><text fill="#000000" font-family="sans-serif" font-size="13" font-weight="bold" lengthAdjust="spacing" textLength="7" x="825" y="472.4326">8</text><text fill="#000000" font-family="sans-serif" font-size="13" lengthAdjust="spacing" textLength="160" x="836" y="472.4326">getListVaccinationCenters()</text><polygon fill="#181818" points="42.5,533.6406,32.5,537.6406,42.5,541.6406,38.5,537.6406" style="stroke:#181818;stroke-width:1.0;"/><line style="stroke:#181818;stroke-width:1.0;stroke-dasharray:2.0,2.0;" x1="36.5" x2="379.5" y1="537.6406" y2="537.6406"/><text fill="#000000" font-family="sans-serif" font-size="13" font-weight="bold" lengthAdjust="spacing" textLength="7" x="48.5" y="532.7842">9</text><text fill="#000000" font-family="sans-serif" font-size="13" lengthAdjust="spacing" textLength="309" x="59.5" y="532.7842">show list of vaccination centers and ask to select one</text><polygon fill="#181818" points="363.5,563.9922,373.5,567.9922,363.5,571.9922,367.5,567.9922" style="stroke:#181818;stroke-width:1.0;"/><line style="stroke:#181818;stroke-width:1.0;" x1="31.5" x2="369.5" y1="567.9922" y2="567.9922"/><text fill="#000000" font-family="sans-serif" font-size="13" font-weight="bold" lengthAdjust="spacing" textLength="14" x="38.5" y="563.1357">10</text><text fill="#000000" font-family="sans-serif" font-size="13" lengthAdjust="spacing" textLength="225" x="56.5" y="563.1357">selects the intended vaccination center</text><polygon fill="#181818" points="796,594.3438,806,598.3438,796,602.3438,800,598.3438" style="stroke:#181818;stroke-width:1.0;"/><line style="stroke:#181818;stroke-width:1.0;" x1="385.5" x2="802" y1="598.3438" y2="598.3438"/><text fill="#000000" font-family="sans-serif" font-size="13" font-weight="bold" lengthAdjust="spacing" textLength="14" x="392.5" y="593.4873">11</text><text fill="#000000" font-family="sans-serif" font-size="13" lengthAdjust="spacing" textLength="199" x="410.5" y="593.4873">setWorkingVaccinationCenter(vac)</text><polygon fill="#181818" points="1048,624.6953,1058,628.6953,1048,632.6953,1052,628.6953" style="stroke:#181818;stroke-width:1.0;"/><line style="stroke:#181818;stroke-width:1.0;" x1="818" x2="1054" y1="628.6953" y2="628.6953"/><text fill="#000000" font-family="sans-serif" font-size="13" font-weight="bold" lengthAdjust="spacing" textLength="14" x="825" y="623.8389">12</text><text fill="#000000" font-family="sans-serif" font-size="13" lengthAdjust="spacing" textLength="166" x="843" y="623.8389">reg = getRegisterEmployee()</text><polygon fill="#181818" points="1130.5,685.0469,1140.5,689.0469,1130.5,693.0469,1134.5,689.0469" style="stroke:#181818;stroke-width:1.0;"/><line style="stroke:#181818;stroke-width:1.0;" x1="818" x2="1136.5" y1="689.0469" y2="689.0469"/><text fill="#000000" font-family="sans-serif" font-size="13" font-weight="bold" lengthAdjust="spacing" textLength="14" x="825" y="684.1904">13</text><text fill="#000000" font-family="sans-serif" font-size="13" lengthAdjust="spacing" textLength="189" x="843" y="684.1904">email = getCurrentUserSession()</text><polygon fill="#181818" points="1650.5,715.3984,1660.5,719.3984,1650.5,723.3984,1654.5,719.3984" style="stroke:#181818;stroke-width:1.0;"/><line style="stroke:#181818;stroke-width:1.0;" x1="1152.5" x2="1656.5" y1="719.3984" y2="719.3984"/><text fill="#000000" font-family="sans-serif" font-size="13" font-weight="bold" lengthAdjust="spacing" textLength="14" x="1159.5" y="714.542">14</text><text fill="#000000" font-family="sans-serif" font-size="13" lengthAdjust="spacing" textLength="63" x="1177.5" y="714.542">getUserId()</text><polygon fill="#181818" points="1756.5,745.75,1766.5,749.75,1756.5,753.75,1760.5,749.75" style="stroke:#181818;stroke-width:1.0;"/><line style="stroke:#181818;stroke-width:1.0;" x1="1672.5" x2="1762.5" y1="749.75" y2="749.75"/><text fill="#000000" font-family="sans-serif" font-size="13" font-weight="bold" lengthAdjust="spacing" textLength="14" x="1679.5" y="744.8936">15</text><text fill="#000000" font-family="sans-serif" font-size="13" lengthAdjust="spacing" textLength="59" x="1697.5" y="744.8936">getEmail()</text><polygon fill="#181818" points="1525.5,806.1016,1535.5,810.1016,1525.5,814.1016,1529.5,810.1016" style="stroke:#181818;stroke-width:1.0;"/><line style="stroke:#181818;stroke-width:1.0;" x1="818" x2="1531.5" y1="810.1016" y2="810.1016"/><text fill="#000000" font-family="sans-serif" font-size="13" font-weight="bold" lengthAdjust="spacing" textLength="14" x="825" y="805.2451">16</text><text fill="#000000" font-family="sans-serif" font-size="13" lengthAdjust="spacing" textLength="205" x="843" y="805.2451">emp = getEmployeeByEmail(email)</text><polygon fill="#181818" points="1836.5,866.4531,1846.5,870.4531,1836.5,874.4531,1840.5,870.4531" style="stroke:#181818;stroke-width:1.0;"/><line style="stroke:#181818;stroke-width:1.0;" x1="818" x2="1842.5" y1="870.4531" y2="870.4531"/><text fill="#000000" font-family="sans-serif" font-size="13" font-weight="bold" lengthAdjust="spacing" textLength="14" x="825" y="865.5967">17</text><text fill="#000000" font-family="sans-serif" font-size="13" lengthAdjust="spacing" textLength="199" x="843" y="865.5967">setWorkingVaccinationCenter(vac)</text><!--MD5=[49438f3d75d5442b36cec6c7e229f634]
@startuml
'https://plantuml.com/sequence-diagram

autonumber

actor "Nurse" as NRS
participant "SelectVaccinationCenterUI" as UI
participant "controller\n:SelectVaccinationCenterController" as CTRL
participant ":App" as APP
participant "plat\n : Platform" as PLAT
participant "app:App" as App
participant "comp\n:Company" as Comp
participant "rvc\n:RegisterVaccinationCenter" as RVC
participant "reg\n:RegisterEmployee" as RE
participant "emp\n :Employee" as EMP
participant "session \n:UserSession" as SESSION
participant "email\n :Email" as EMAIL
participant "emp\n :Employee" as EMP
participant "lst\n: List<VaccinationCenter>" as LVC
participant "vac\n:VaccinationCenter" as VC
participant "vaccinationCenter\n:Object"
participant "le\n :List<Employee>"

activate NRS

NRS -> UI : Selecting the vaccination center where s(he) works
activate UI

UI - -> CTRL** : controller = SelectVaccinationCenterController()

activate CTRL
CTRL -> APP : app = getInstance()
activate APP
deactivate APP
'4
CTRL -> App : comp = getCompany()
activate App
deactivate App
'5
CTRL -> Comp : plat = getPlatform()
activate Comp
deactivate Comp
deactivate CTRL



UI -> CTRL : lst = getListVaccinationCenter()
activate CTRL
CTRL -> PLAT : rvc = getRegisterVaccinationCenter()
activate PLAT
deactivate PLAT
CTRL -> RVC :  getListVaccinationCenters()
activate RVC
deactivate CTRL
deactivate RVC

UI - -> NRS : show list of vaccination centers and ask to select one
deactivate UI
NRS -> UI : selects the intended vaccination center
activate UI

'9
UI -> CTRL :setWorkingVaccinationCenter(vac)
activate CTRL
'10
CTRL -> PLAT : reg = getRegisterEmployee()
activate PLAT
deactivate PLAT
'11
CTRL -> App : email = getCurrentUserSession()
activate App
'12
App -> SESSION : getUserId()
activate SESSION
'13
SESSION -> EMAIL : getEmail()
activate EMAIL
deactivate EMAIL
deactivate SESSION
deactivate App

CTRL -> RE : emp = getEmployeeByEmail(email)
activate RE
deactivate RE

CTRL -> EMP : setWorkingVaccinationCenter(vac)
activate EMP
deactivate EMP


deactivate NRS


@enduml

@startuml

autonumber

actor "Nurse" as NRS
participant "SelectVaccinationCenterUI" as UI
participant "controller\n:SelectVaccinationCenterController" as CTRL
participant ":App" as APP
participant "plat\n : Platform" as PLAT
participant "app:App" as App
participant "comp\n:Company" as Comp
participant "rvc\n:RegisterVaccinationCenter" as RVC
participant "reg\n:RegisterEmployee" as RE
participant "emp\n :Employee" as EMP
participant "session \n:UserSession" as SESSION
participant "email\n :Email" as EMAIL
participant "emp\n :Employee" as EMP
participant "lst\n: List<VaccinationCenter>" as LVC
participant "vac\n:VaccinationCenter" as VC
participant "vaccinationCenter\n:Object"
participant "le\n :List<Employee>"

activate NRS

NRS -> UI : Selecting the vaccination center where s(he) works
activate UI

UI - -> CTRL** : controller = SelectVaccinationCenterController()

activate CTRL
CTRL -> APP : app = getInstance()
activate APP
deactivate APP
CTRL -> App : comp = getCompany()
activate App
deactivate App
CTRL -> Comp : plat = getPlatform()
activate Comp
deactivate Comp
deactivate CTRL



UI -> CTRL : lst = getListVaccinationCenter()
activate CTRL
CTRL -> PLAT : rvc = getRegisterVaccinationCenter()
activate PLAT
deactivate PLAT
CTRL -> RVC :  getListVaccinationCenters()
activate RVC
deactivate CTRL
deactivate RVC

UI - -> NRS : show list of vaccination centers and ask to select one
deactivate UI
NRS -> UI : selects the intended vaccination center
activate UI

UI -> CTRL :setWorkingVaccinationCenter(vac)
activate CTRL
CTRL -> PLAT : reg = getRegisterEmployee()
activate PLAT
deactivate PLAT
CTRL -> App : email = getCurrentUserSession()
activate App
App -> SESSION : getUserId()
activate SESSION
SESSION -> EMAIL : getEmail()
activate EMAIL
deactivate EMAIL
deactivate SESSION
deactivate App

CTRL -> RE : emp = getEmployeeByEmail(email)
activate RE
deactivate RE

CTRL -> EMP : setWorkingVaccinationCenter(vac)
activate EMP
deactivate EMP


deactivate NRS


@enduml

PlantUML version 1.2022.4(Sat Apr 09 14:29:17 BST 2022)
(GPL source distribution)
Java Runtime: OpenJDK Runtime Environment
JVM: OpenJDK 64-Bit Server VM
Default Encoding: Cp1252
Language: pt
Country: PT
--></g></svg>