<?xml version="1.0" encoding="UTF-8" standalone="no"?><svg xmlns="http://www.w3.org/2000/svg" xmlns:xlink="http://www.w3.org/1999/xlink" contentStyleType="text/css" height="681px" preserveAspectRatio="none" style="width:2095px;height:681px;background:#FFFFFF;" version="1.1" viewBox="0 0 2095 681" width="2095px" zoomAndPan="magnify"><defs/><g><!--MD5=[02e4b9b7573f1156f41e60aa5b4e25a4]
class Company--><g id="elem_Company"><rect codeLine="10" fill="#F1F1F1" height="44.6406" id="Company" rx="2.5" ry="2.5" style="stroke:#181818;stroke-width:0.5;" width="112" x="7" y="377"/><ellipse cx="22" cy="395.3203" fill="#ADD1B2" rx="11" ry="11" style="stroke:#181818;stroke-width:1.0;"/><path d="M24,391.8203 Q24.2031,391.3203 24.4375,391.0703 Q24.6719,390.8203 24.9375,390.8203 Q25.4063,390.8203 25.7031,391.1016 Q26,391.3828 26,392.0391 L26,393.6016 Q26,394.2578 25.7188,394.5391 Q25.4375,394.8203 25,394.8203 Q24.6094,394.8203 24.3594,394.6484 Q24.1094,394.4766 24,394.0234 Q23.9531,393.7109 23.7813,393.5391 Q23.4688,393.2109 22.9063,393.0234 Q22.3438,392.8203 21.7813,392.8203 Q21.0781,392.8203 20.4844,393.1016 Q19.9063,393.3828 19.4531,394.0078 Q19,394.6328 19,395.4922 L19,396.4141 Q19,397.4453 19.8438,398.1328 Q20.6875,398.8203 22.1875,398.8203 Q23.0781,398.8203 23.7031,398.6172 Q24.0625,398.5078 24.4688,398.1484 Q24.7344,397.9453 24.875,397.8828 Q25.0156,397.8203 25.1875,397.8203 Q25.5156,397.8203 25.75,398.0859 Q26,398.3359 26,398.6953 Q26,399.0391 25.6563,399.4453 Q25.1563,400.0391 24.3594,400.3672 Q23.3125,400.8203 22.0313,400.8203 Q20.5313,400.8203 19.3281,400.2266 Q18.3594,399.7578 17.6719,398.7422 Q17,397.7266 17,396.5234 L17,395.4297 Q17,394.1797 17.5938,393.0859 Q18.2031,391.9922 19.25,391.4141 Q20.3125,390.8203 21.5,390.8203 Q22.2188,390.8203 22.8438,391.0703 Q23.4688,391.3203 24,391.8203 Z " fill="#000000"/><text fill="#000000" font-family="sans-serif" font-size="18" lengthAdjust="spacing" textLength="76" x="38" y="402.6855">Company</text><line style="stroke:#181818;stroke-width:0.5;" x1="8" x2="118" y1="413.6406" y2="413.6406"/></g><!--MD5=[a059576e163b46f56762f12600c49258]
class Nurse--><g id="elem_Nurse"><rect codeLine="12" fill="#F1F1F1" height="44.6406" id="Nurse" rx="2.5" ry="2.5" style="stroke:#181818;stroke-width:0.5;" width="84" x="908" y="351"/><ellipse cx="923" cy="369.3203" fill="#ADD1B2" rx="11" ry="11" style="stroke:#181818;stroke-width:1.0;"/><path d="M925,365.8203 Q925.2031,365.3203 925.4375,365.0703 Q925.6719,364.8203 925.9375,364.8203 Q926.4063,364.8203 926.7031,365.1016 Q927,365.3828 927,366.0391 L927,367.6016 Q927,368.2578 926.7188,368.5391 Q926.4375,368.8203 926,368.8203 Q925.6094,368.8203 925.3594,368.6484 Q925.1094,368.4766 925,368.0234 Q924.9531,367.7109 924.7813,367.5391 Q924.4688,367.2109 923.9063,367.0234 Q923.3438,366.8203 922.7813,366.8203 Q922.0781,366.8203 921.4844,367.1016 Q920.9063,367.3828 920.4531,368.0078 Q920,368.6328 920,369.4922 L920,370.4141 Q920,371.4453 920.8438,372.1328 Q921.6875,372.8203 923.1875,372.8203 Q924.0781,372.8203 924.7031,372.6172 Q925.0625,372.5078 925.4688,372.1484 Q925.7344,371.9453 925.875,371.8828 Q926.0156,371.8203 926.1875,371.8203 Q926.5156,371.8203 926.75,372.0859 Q927,372.3359 927,372.6953 Q927,373.0391 926.6563,373.4453 Q926.1563,374.0391 925.3594,374.3672 Q924.3125,374.8203 923.0313,374.8203 Q921.5313,374.8203 920.3281,374.2266 Q919.3594,373.7578 918.6719,372.7422 Q918,371.7266 918,370.5234 L918,369.4297 Q918,368.1797 918.5938,367.0859 Q919.2031,365.9922 920.25,365.4141 Q921.3125,364.8203 922.5,364.8203 Q923.2188,364.8203 923.8438,365.0703 Q924.4688,365.3203 925,365.8203 Z " fill="#000000"/><text fill="#000000" font-family="sans-serif" font-size="18" lengthAdjust="spacing" textLength="48" x="939" y="376.6855">Nurse</text><line style="stroke:#181818;stroke-width:0.5;" x1="909" x2="991" y1="387.6406" y2="387.6406"/></g><!--MD5=[99b8db98afdc2c8404e39242ef4c1e65]
class Platform--><g id="elem_Platform"><rect codeLine="15" fill="#F1F1F1" height="44.6406" id="Platform" rx="2.5" ry="2.5" style="stroke:#181818;stroke-width:0.5;" width="102" x="316" y="231"/><ellipse cx="331" cy="249.3203" fill="#ADD1B2" rx="11" ry="11" style="stroke:#181818;stroke-width:1.0;"/><path d="M333,245.8203 Q333.2031,245.3203 333.4375,245.0703 Q333.6719,244.8203 333.9375,244.8203 Q334.4063,244.8203 334.7031,245.1016 Q335,245.3828 335,246.0391 L335,247.6016 Q335,248.2578 334.7188,248.5391 Q334.4375,248.8203 334,248.8203 Q333.6094,248.8203 333.3594,248.6484 Q333.1094,248.4766 333,248.0234 Q332.9531,247.7109 332.7813,247.5391 Q332.4688,247.2109 331.9063,247.0234 Q331.3438,246.8203 330.7813,246.8203 Q330.0781,246.8203 329.4844,247.1016 Q328.9063,247.3828 328.4531,248.0078 Q328,248.6328 328,249.4922 L328,250.4141 Q328,251.4453 328.8438,252.1328 Q329.6875,252.8203 331.1875,252.8203 Q332.0781,252.8203 332.7031,252.6172 Q333.0625,252.5078 333.4688,252.1484 Q333.7344,251.9453 333.875,251.8828 Q334.0156,251.8203 334.1875,251.8203 Q334.5156,251.8203 334.75,252.0859 Q335,252.3359 335,252.6953 Q335,253.0391 334.6563,253.4453 Q334.1563,254.0391 333.3594,254.3672 Q332.3125,254.8203 331.0313,254.8203 Q329.5313,254.8203 328.3281,254.2266 Q327.3594,253.7578 326.6719,252.7422 Q326,251.7266 326,250.5234 L326,249.4297 Q326,248.1797 326.5938,247.0859 Q327.2031,245.9922 328.25,245.4141 Q329.3125,244.8203 330.5,244.8203 Q331.2188,244.8203 331.8438,245.0703 Q332.4688,245.3203 333,245.8203 Z " fill="#000000"/><text fill="#000000" font-family="sans-serif" font-size="18" lengthAdjust="spacing" textLength="66" x="347" y="256.6855">Platform</text><line style="stroke:#181818;stroke-width:0.5;" x1="317" x2="417" y1="267.6406" y2="267.6406"/></g><!--MD5=[aaa7e27c4ec43917c82a021675d2c87a]
class WaitingRoom--><g id="elem_WaitingRoom"><rect codeLine="17" fill="#F1F1F1" height="44.6406" id="WaitingRoom" rx="2.5" ry="2.5" style="stroke:#181818;stroke-width:0.5;" width="143" x="1631" y="191"/><ellipse cx="1646" cy="209.3203" fill="#ADD1B2" rx="11" ry="11" style="stroke:#181818;stroke-width:1.0;"/><path d="M1648,205.8203 Q1648.2031,205.3203 1648.4375,205.0703 Q1648.6719,204.8203 1648.9375,204.8203 Q1649.4063,204.8203 1649.7031,205.1016 Q1650,205.3828 1650,206.0391 L1650,207.6016 Q1650,208.2578 1649.7188,208.5391 Q1649.4375,208.8203 1649,208.8203 Q1648.6094,208.8203 1648.3594,208.6484 Q1648.1094,208.4766 1648,208.0234 Q1647.9531,207.7109 1647.7813,207.5391 Q1647.4688,207.2109 1646.9063,207.0234 Q1646.3438,206.8203 1645.7813,206.8203 Q1645.0781,206.8203 1644.4844,207.1016 Q1643.9063,207.3828 1643.4531,208.0078 Q1643,208.6328 1643,209.4922 L1643,210.4141 Q1643,211.4453 1643.8438,212.1328 Q1644.6875,212.8203 1646.1875,212.8203 Q1647.0781,212.8203 1647.7031,212.6172 Q1648.0625,212.5078 1648.4688,212.1484 Q1648.7344,211.9453 1648.875,211.8828 Q1649.0156,211.8203 1649.1875,211.8203 Q1649.5156,211.8203 1649.75,212.0859 Q1650,212.3359 1650,212.6953 Q1650,213.0391 1649.6563,213.4453 Q1649.1563,214.0391 1648.3594,214.3672 Q1647.3125,214.8203 1646.0313,214.8203 Q1644.5313,214.8203 1643.3281,214.2266 Q1642.3594,213.7578 1641.6719,212.7422 Q1641,211.7266 1641,210.5234 L1641,209.4297 Q1641,208.1797 1641.5938,207.0859 Q1642.2031,205.9922 1643.25,205.4141 Q1644.3125,204.8203 1645.5,204.8203 Q1646.2188,204.8203 1646.8438,205.0703 Q1647.4688,205.3203 1648,205.8203 Z " fill="#000000"/><text fill="#000000" font-family="sans-serif" font-size="18" lengthAdjust="spacing" textLength="107" x="1662" y="216.6855">WaitingRoom</text><line style="stroke:#181818;stroke-width:0.5;" x1="1632" x2="1773" y1="227.6406" y2="227.6406"/></g><!--MD5=[72be06cc7ae02ccc98efe28a50e62246]
class SNSUser--><g id="elem_SNSUser"><rect codeLine="19" fill="#F1F1F1" height="231.125" id="SNSUser" rx="2.5" ry="2.5" style="stroke:#181818;stroke-width:0.5;" width="174" x="1914" y="7"/><ellipse cx="1957.35" cy="25.3203" fill="#ADD1B2" rx="11" ry="11" style="stroke:#181818;stroke-width:1.0;"/><path d="M1959.35,21.8203 Q1959.5531,21.3203 1959.7875,21.0703 Q1960.0219,20.8203 1960.2875,20.8203 Q1960.7563,20.8203 1961.0531,21.1016 Q1961.35,21.3828 1961.35,22.0391 L1961.35,23.6016 Q1961.35,24.2578 1961.0688,24.5391 Q1960.7875,24.8203 1960.35,24.8203 Q1959.9594,24.8203 1959.7094,24.6484 Q1959.4594,24.4766 1959.35,24.0234 Q1959.3031,23.7109 1959.1313,23.5391 Q1958.8188,23.2109 1958.2563,23.0234 Q1957.6938,22.8203 1957.1313,22.8203 Q1956.4281,22.8203 1955.8344,23.1016 Q1955.2563,23.3828 1954.8031,24.0078 Q1954.35,24.6328 1954.35,25.4922 L1954.35,26.4141 Q1954.35,27.4453 1955.1938,28.1328 Q1956.0375,28.8203 1957.5375,28.8203 Q1958.4281,28.8203 1959.0531,28.6172 Q1959.4125,28.5078 1959.8188,28.1484 Q1960.0844,27.9453 1960.225,27.8828 Q1960.3656,27.8203 1960.5375,27.8203 Q1960.8656,27.8203 1961.1,28.0859 Q1961.35,28.3359 1961.35,28.6953 Q1961.35,29.0391 1961.0063,29.4453 Q1960.5063,30.0391 1959.7094,30.3672 Q1958.6625,30.8203 1957.3813,30.8203 Q1955.8813,30.8203 1954.6781,30.2266 Q1953.7094,29.7578 1953.0219,28.7422 Q1952.35,27.7266 1952.35,26.5234 L1952.35,25.4297 Q1952.35,24.1797 1952.9438,23.0859 Q1953.5531,21.9922 1954.6,21.4141 Q1955.6625,20.8203 1956.85,20.8203 Q1957.5688,20.8203 1958.1938,21.0703 Q1958.8188,21.3203 1959.35,21.8203 Z " fill="#000000"/><text fill="#000000" font-family="sans-serif" font-size="18" lengthAdjust="spacing" textLength="75" x="1979.65" y="32.6855">SNSUser</text><line style="stroke:#181818;stroke-width:0.5;" x1="1915" x2="2087" y1="43.6406" y2="43.6406"/><text fill="#000000" font-family="sans-serif" font-size="18" lengthAdjust="spacing" textLength="50" x="1922" y="68.3262">-name</text><text fill="#000000" font-family="sans-serif" font-size="18" lengthAdjust="spacing" textLength="70" x="1922" y="94.9668">-address</text><text fill="#000000" font-family="sans-serif" font-size="18" lengthAdjust="spacing" textLength="62" x="1922" y="121.6074">-gender</text><text fill="#000000" font-family="sans-serif" font-size="18" lengthAdjust="spacing" textLength="48" x="1922" y="148.248">-email</text><text fill="#000000" font-family="sans-serif" font-size="18" lengthAdjust="spacing" textLength="79" x="1922" y="174.8887">-birthDate</text><text fill="#000000" font-family="sans-serif" font-size="18" lengthAdjust="spacing" textLength="135" x="1922" y="201.5293">-snsUserNumber</text><text fill="#000000" font-family="sans-serif" font-size="18" lengthAdjust="spacing" textLength="158" x="1922" y="228.1699">-citizenCardNumber</text></g><!--MD5=[7421f545a0d8420c5bec41e74b387d9c]
class Employee--><g id="elem_Employee"><rect codeLine="29" fill="#F1F1F1" height="231.125" id="Employee" rx="2.5" ry="2.5" style="stroke:#181818;stroke-width:0.5;" width="206" x="601" y="138"/><ellipse cx="658.25" cy="156.3203" fill="#ADD1B2" rx="11" ry="11" style="stroke:#181818;stroke-width:1.0;"/><path d="M660.25,152.8203 Q660.4531,152.3203 660.6875,152.0703 Q660.9219,151.8203 661.1875,151.8203 Q661.6563,151.8203 661.9531,152.1016 Q662.25,152.3828 662.25,153.0391 L662.25,154.6016 Q662.25,155.2578 661.9688,155.5391 Q661.6875,155.8203 661.25,155.8203 Q660.8594,155.8203 660.6094,155.6484 Q660.3594,155.4766 660.25,155.0234 Q660.2031,154.7109 660.0313,154.5391 Q659.7188,154.2109 659.1563,154.0234 Q658.5938,153.8203 658.0313,153.8203 Q657.3281,153.8203 656.7344,154.1016 Q656.1563,154.3828 655.7031,155.0078 Q655.25,155.6328 655.25,156.4922 L655.25,157.4141 Q655.25,158.4453 656.0938,159.1328 Q656.9375,159.8203 658.4375,159.8203 Q659.3281,159.8203 659.9531,159.6172 Q660.3125,159.5078 660.7188,159.1484 Q660.9844,158.9453 661.125,158.8828 Q661.2656,158.8203 661.4375,158.8203 Q661.7656,158.8203 662,159.0859 Q662.25,159.3359 662.25,159.6953 Q662.25,160.0391 661.9063,160.4453 Q661.4063,161.0391 660.6094,161.3672 Q659.5625,161.8203 658.2813,161.8203 Q656.7813,161.8203 655.5781,161.2266 Q654.6094,160.7578 653.9219,159.7422 Q653.25,158.7266 653.25,157.5234 L653.25,156.4297 Q653.25,155.1797 653.8438,154.0859 Q654.4531,152.9922 655.5,152.4141 Q656.5625,151.8203 657.75,151.8203 Q658.4688,151.8203 659.0938,152.0703 Q659.7188,152.3203 660.25,152.8203 Z " fill="#000000"/><text fill="#000000" font-family="sans-serif" font-size="18" lengthAdjust="spacing" textLength="79" x="680.75" y="163.6855">Employee</text><line style="stroke:#181818;stroke-width:0.5;" x1="602" x2="806" y1="174.6406" y2="174.6406"/><text fill="#000000" font-family="sans-serif" font-size="18" lengthAdjust="spacing" textLength="20" x="609" y="199.3262">-id</text><text fill="#000000" font-family="sans-serif" font-size="18" lengthAdjust="spacing" textLength="55" x="609" y="225.9668">-name;</text><text fill="#000000" font-family="sans-serif" font-size="18" lengthAdjust="spacing" textLength="75" x="609" y="252.6074">-address;</text><text fill="#000000" font-family="sans-serif" font-size="18" lengthAdjust="spacing" textLength="124" x="609" y="279.248">-phoneNumber;</text><text fill="#000000" font-family="sans-serif" font-size="18" lengthAdjust="spacing" textLength="118" x="609" y="305.8887">-emailAddress;</text><text fill="#000000" font-family="sans-serif" font-size="18" lengthAdjust="spacing" textLength="163" x="609" y="332.5293">-citizenCardNumber;</text><text fill="#000000" font-family="sans-serif" font-size="18" lengthAdjust="spacing" text-decoration="underline" textLength="190" x="609" y="359.1699">-count_num_employees</text></g><!--MD5=[de60e6d4f424ae4d0522096f76a59010]
class VaccinationCenter--><g id="elem_VaccinationCenter"><rect codeLine="40" fill="#F1F1F1" height="470.8906" id="VaccinationCenter" rx="2.5" ry="2.5" style="stroke:#181818;stroke-width:0.5;" width="316" x="1175" y="138"/><ellipse cx="1253.75" cy="156.3203" fill="#ADD1B2" rx="11" ry="11" style="stroke:#181818;stroke-width:1.0;"/><path d="M1255.75,152.8203 Q1255.9531,152.3203 1256.1875,152.0703 Q1256.4219,151.8203 1256.6875,151.8203 Q1257.1563,151.8203 1257.4531,152.1016 Q1257.75,152.3828 1257.75,153.0391 L1257.75,154.6016 Q1257.75,155.2578 1257.4688,155.5391 Q1257.1875,155.8203 1256.75,155.8203 Q1256.3594,155.8203 1256.1094,155.6484 Q1255.8594,155.4766 1255.75,155.0234 Q1255.7031,154.7109 1255.5313,154.5391 Q1255.2188,154.2109 1254.6563,154.0234 Q1254.0938,153.8203 1253.5313,153.8203 Q1252.8281,153.8203 1252.2344,154.1016 Q1251.6563,154.3828 1251.2031,155.0078 Q1250.75,155.6328 1250.75,156.4922 L1250.75,157.4141 Q1250.75,158.4453 1251.5938,159.1328 Q1252.4375,159.8203 1253.9375,159.8203 Q1254.8281,159.8203 1255.4531,159.6172 Q1255.8125,159.5078 1256.2188,159.1484 Q1256.4844,158.9453 1256.625,158.8828 Q1256.7656,158.8203 1256.9375,158.8203 Q1257.2656,158.8203 1257.5,159.0859 Q1257.75,159.3359 1257.75,159.6953 Q1257.75,160.0391 1257.4063,160.4453 Q1256.9063,161.0391 1256.1094,161.3672 Q1255.0625,161.8203 1253.7813,161.8203 Q1252.2813,161.8203 1251.0781,161.2266 Q1250.1094,160.7578 1249.4219,159.7422 Q1248.75,158.7266 1248.75,157.5234 L1248.75,156.4297 Q1248.75,155.1797 1249.3438,154.0859 Q1249.9531,152.9922 1251,152.4141 Q1252.0625,151.8203 1253.25,151.8203 Q1253.9688,151.8203 1254.5938,152.0703 Q1255.2188,152.3203 1255.75,152.8203 Z " fill="#000000"/><text fill="#000000" font-family="sans-serif" font-size="18" lengthAdjust="spacing" textLength="146" x="1276.25" y="163.6855">VaccinationCenter</text><line style="stroke:#181818;stroke-width:0.5;" x1="1176" x2="1490" y1="174.6406" y2="174.6406"/><text fill="#000000" font-family="sans-serif" font-size="18" lengthAdjust="spacing" textLength="50" x="1183" y="199.3262">-name</text><text fill="#000000" font-family="sans-serif" font-size="18" lengthAdjust="spacing" textLength="70" x="1183" y="225.9668">-address</text><text fill="#000000" font-family="sans-serif" font-size="18" lengthAdjust="spacing" textLength="119" x="1183" y="252.6074">-phoneNumber</text><text fill="#000000" font-family="sans-serif" font-size="18" lengthAdjust="spacing" textLength="113" x="1183" y="279.248">-emailAddress</text><text fill="#000000" font-family="sans-serif" font-size="18" lengthAdjust="spacing" textLength="92" x="1183" y="305.8887">-faxNumber</text><text fill="#000000" font-family="sans-serif" font-size="18" lengthAdjust="spacing" textLength="132" x="1183" y="332.5293">-websiteAddress</text><text fill="#000000" font-family="sans-serif" font-size="18" lengthAdjust="spacing" textLength="118" x="1183" y="359.1699">-openingHours</text><text fill="#000000" font-family="sans-serif" font-size="18" lengthAdjust="spacing" textLength="133" x="1183" y="385.8105">-openingMinutes</text><text fill="#000000" font-family="sans-serif" font-size="18" lengthAdjust="spacing" textLength="110" x="1183" y="412.4512">-closingHours</text><text fill="#000000" font-family="sans-serif" font-size="18" lengthAdjust="spacing" textLength="125" x="1183" y="439.0918">-closingMinutes</text><text fill="#000000" font-family="sans-serif" font-size="18" lengthAdjust="spacing" textLength="102" x="1183" y="465.7324">-slotDuration</text><text fill="#000000" font-family="sans-serif" font-size="18" lengthAdjust="spacing" textLength="173" x="1183" y="492.373">-maxNumberVaccines</text><text fill="#000000" font-family="sans-serif" font-size="18" lengthAdjust="spacing" textLength="209" x="1183" y="519.0137">-List&lt;Day&gt; operatingDays</text><text fill="#000000" font-family="sans-serif" font-size="18" lengthAdjust="spacing" textLength="221" x="1183" y="545.6543">-WaitingRoom waitingRoom</text><text fill="#000000" font-family="sans-serif" font-size="18" lengthAdjust="spacing" textLength="218" x="1183" y="572.2949">-List&lt;Vaccine&gt; listVaccines</text><text fill="#000000" font-family="sans-serif" font-size="18" lengthAdjust="spacing" textLength="300" x="1183" y="598.9355">-List&lt;VaccineType&gt; listVaccineTypes</text></g><!--MD5=[3fd616f346a44cd59a91eb10b19e157c]
class User--><g id="elem_User"><rect codeLine="60" fill="#F1F1F1" height="151.2031" id="User" rx="2.5" ry="2.5" style="stroke:#181818;stroke-width:0.5;" width="99" x="317.5" y="410"/><ellipse cx="343.75" cy="428.3203" fill="#ADD1B2" rx="11" ry="11" style="stroke:#181818;stroke-width:1.0;"/><path d="M345.75,424.8203 Q345.9531,424.3203 346.1875,424.0703 Q346.4219,423.8203 346.6875,423.8203 Q347.1563,423.8203 347.4531,424.1016 Q347.75,424.3828 347.75,425.0391 L347.75,426.6016 Q347.75,427.2578 347.4688,427.5391 Q347.1875,427.8203 346.75,427.8203 Q346.3594,427.8203 346.1094,427.6484 Q345.8594,427.4766 345.75,427.0234 Q345.7031,426.7109 345.5313,426.5391 Q345.2188,426.2109 344.6563,426.0234 Q344.0938,425.8203 343.5313,425.8203 Q342.8281,425.8203 342.2344,426.1016 Q341.6563,426.3828 341.2031,427.0078 Q340.75,427.6328 340.75,428.4922 L340.75,429.4141 Q340.75,430.4453 341.5938,431.1328 Q342.4375,431.8203 343.9375,431.8203 Q344.8281,431.8203 345.4531,431.6172 Q345.8125,431.5078 346.2188,431.1484 Q346.4844,430.9453 346.625,430.8828 Q346.7656,430.8203 346.9375,430.8203 Q347.2656,430.8203 347.5,431.0859 Q347.75,431.3359 347.75,431.6953 Q347.75,432.0391 347.4063,432.4453 Q346.9063,433.0391 346.1094,433.3672 Q345.0625,433.8203 343.7813,433.8203 Q342.2813,433.8203 341.0781,433.2266 Q340.1094,432.7578 339.4219,431.7422 Q338.75,430.7266 338.75,429.5234 L338.75,428.4297 Q338.75,427.1797 339.3438,426.0859 Q339.9531,424.9922 341,424.4141 Q342.0625,423.8203 343.25,423.8203 Q343.9688,423.8203 344.5938,424.0703 Q345.2188,424.3203 345.75,424.8203 Z " fill="#000000"/><text fill="#000000" font-family="sans-serif" font-size="18" lengthAdjust="spacing" textLength="38" x="362.25" y="435.6855">User</text><line style="stroke:#181818;stroke-width:0.5;" x1="318.5" x2="415.5" y1="446.6406" y2="446.6406"/><text fill="#000000" font-family="sans-serif" font-size="18" lengthAdjust="spacing" textLength="20" x="325.5" y="471.3262">-id</text><text fill="#000000" font-family="sans-serif" font-size="18" lengthAdjust="spacing" textLength="83" x="325.5" y="497.9668">-password</text><text fill="#000000" font-family="sans-serif" font-size="18" lengthAdjust="spacing" textLength="50" x="325.5" y="524.6074">-name</text><text fill="#000000" font-family="sans-serif" font-size="18" lengthAdjust="spacing" textLength="45" x="325.5" y="551.248">-roles</text></g><!--MD5=[45d42ff7800d812d5f83c7d3273eb427]
class UserRole--><g id="elem_UserRole"><rect codeLine="67" fill="#F1F1F1" height="97.9219" id="UserRole" rx="2.5" ry="2.5" style="stroke:#181818;stroke-width:0.5;" width="111" x="648.5" y="496.5"/><ellipse cx="663.5" cy="514.8203" fill="#ADD1B2" rx="11" ry="11" style="stroke:#181818;stroke-width:1.0;"/><path d="M665.5,511.3203 Q665.7031,510.8203 665.9375,510.5703 Q666.1719,510.3203 666.4375,510.3203 Q666.9063,510.3203 667.2031,510.6016 Q667.5,510.8828 667.5,511.5391 L667.5,513.1016 Q667.5,513.7578 667.2188,514.0391 Q666.9375,514.3203 666.5,514.3203 Q666.1094,514.3203 665.8594,514.1484 Q665.6094,513.9766 665.5,513.5234 Q665.4531,513.2109 665.2813,513.0391 Q664.9688,512.7109 664.4063,512.5234 Q663.8438,512.3203 663.2813,512.3203 Q662.5781,512.3203 661.9844,512.6016 Q661.4063,512.8828 660.9531,513.5078 Q660.5,514.1328 660.5,514.9922 L660.5,515.9141 Q660.5,516.9453 661.3438,517.6328 Q662.1875,518.3203 663.6875,518.3203 Q664.5781,518.3203 665.2031,518.1172 Q665.5625,518.0078 665.9688,517.6484 Q666.2344,517.4453 666.375,517.3828 Q666.5156,517.3203 666.6875,517.3203 Q667.0156,517.3203 667.25,517.5859 Q667.5,517.8359 667.5,518.1953 Q667.5,518.5391 667.1563,518.9453 Q666.6563,519.5391 665.8594,519.8672 Q664.8125,520.3203 663.5313,520.3203 Q662.0313,520.3203 660.8281,519.7266 Q659.8594,519.2578 659.1719,518.2422 Q658.5,517.2266 658.5,516.0234 L658.5,514.9297 Q658.5,513.6797 659.0938,512.5859 Q659.7031,511.4922 660.75,510.9141 Q661.8125,510.3203 663,510.3203 Q663.7188,510.3203 664.3438,510.5703 Q664.9688,510.8203 665.5,511.3203 Z " fill="#000000"/><text fill="#000000" font-family="sans-serif" font-size="18" lengthAdjust="spacing" textLength="75" x="679.5" y="522.1855">UserRole</text><line style="stroke:#181818;stroke-width:0.5;" x1="649.5" x2="758.5" y1="533.1406" y2="533.1406"/><text fill="#000000" font-family="sans-serif" font-size="18" lengthAdjust="spacing" textLength="20" x="656.5" y="557.8262">-id</text><text fill="#000000" font-family="sans-serif" font-size="18" lengthAdjust="spacing" textLength="93" x="656.5" y="584.4668">-description</text></g><!--MD5=[78bec0fde86ad92ec1dc3fb343b83709]
class Email--><g id="elem_Email"><rect fill="#F1F1F1" height="44.6406" id="Email" rx="2.5" ry="2.5" style="stroke:#181818;stroke-width:0.5;" width="80" x="664" y="630"/><ellipse cx="679" cy="648.3203" fill="#ADD1B2" rx="11" ry="11" style="stroke:#181818;stroke-width:1.0;"/><path d="M681,644.8203 Q681.2031,644.3203 681.4375,644.0703 Q681.6719,643.8203 681.9375,643.8203 Q682.4063,643.8203 682.7031,644.1016 Q683,644.3828 683,645.0391 L683,646.6016 Q683,647.2578 682.7188,647.5391 Q682.4375,647.8203 682,647.8203 Q681.6094,647.8203 681.3594,647.6484 Q681.1094,647.4766 681,647.0234 Q680.9531,646.7109 680.7813,646.5391 Q680.4688,646.2109 679.9063,646.0234 Q679.3438,645.8203 678.7813,645.8203 Q678.0781,645.8203 677.4844,646.1016 Q676.9063,646.3828 676.4531,647.0078 Q676,647.6328 676,648.4922 L676,649.4141 Q676,650.4453 676.8438,651.1328 Q677.6875,651.8203 679.1875,651.8203 Q680.0781,651.8203 680.7031,651.6172 Q681.0625,651.5078 681.4688,651.1484 Q681.7344,650.9453 681.875,650.8828 Q682.0156,650.8203 682.1875,650.8203 Q682.5156,650.8203 682.75,651.0859 Q683,651.3359 683,651.6953 Q683,652.0391 682.6563,652.4453 Q682.1563,653.0391 681.3594,653.3672 Q680.3125,653.8203 679.0313,653.8203 Q677.5313,653.8203 676.3281,653.2266 Q675.3594,652.7578 674.6719,651.7422 Q674,650.7266 674,649.5234 L674,648.4297 Q674,647.1797 674.5938,646.0859 Q675.2031,644.9922 676.25,644.4141 Q677.3125,643.8203 678.5,643.8203 Q679.2188,643.8203 679.8438,644.0703 Q680.4688,644.3203 681,644.8203 Z " fill="#000000"/><text fill="#000000" font-family="sans-serif" font-size="18" lengthAdjust="spacing" textLength="44" x="695" y="655.6855">Email</text><line style="stroke:#181818;stroke-width:0.5;" x1="665" x2="743" y1="666.6406" y2="666.6406"/></g><!--MD5=[71da4be24892bfec694db06bf9e3c284]
link Company to Platform--><g id="link_Company_Platform"><path codeLine="73" d="M110.86,376.85 C167.52,349.46 262.32,303.62 319.03,276.21 " fill="none" id="Company-Platform" style="stroke:#181818;stroke-width:1.0;"/><polygon fill="#000000" points="207.0015,292.4995,197.579,293.7905,200.1374,299.0824,207.0015,292.4995" style="stroke:#000000;stroke-width:1.0;"/><text fill="#000000" font-family="sans-serif" font-size="13" lengthAdjust="spacing" textLength="21" x="213.5" y="299.9951">has</text><text fill="#000000" font-family="sans-serif" font-size="13" lengthAdjust="spacing" textLength="7" x="112.7148" y="364.0696">1</text><text fill="#000000" font-family="sans-serif" font-size="13" lengthAdjust="spacing" textLength="7" x="299.0018" y="298.5249">1</text></g><!--MD5=[1dfd2b8cef5257ed6efd914f274c3279]
link WaitingRoom to SNSUser--><g id="link_WaitingRoom_SNSUser"><path codeLine="74" d="M1774.14,191.82 C1816.02,178.97 1869.41,162.58 1913.76,148.97 " fill="none" id="WaitingRoom-SNSUser" style="stroke:#181818;stroke-width:1.0;"/><polygon fill="#000000" points="1833.78,153.2088,1824.2707,153.053,1825.9952,158.6722,1833.78,153.2088" style="stroke:#000000;stroke-width:1.0;"/><text fill="#000000" font-family="sans-serif" font-size="13" lengthAdjust="spacing" textLength="21" x="1840" y="159.9951">has</text><text fill="#000000" font-family="sans-serif" font-size="13" lengthAdjust="spacing" textLength="7" x="1784.0951" y="206.1473">1</text><text fill="#000000" font-family="sans-serif" font-size="13" lengthAdjust="spacing" textLength="20" x="1883.8518" y="167.3803">1..*</text></g><!--MD5=[52273af76e8d5d694dcae9f1ae7a2c6f]
link Platform to Employee--><g id="link_Platform_Employee"><path codeLine="75" d="M418.15,253.5 C466.25,253.5 540.29,253.5 600.82,253.5 " fill="none" id="Platform-Employee" style="stroke:#181818;stroke-width:1.0;"/><polygon fill="#000000" points="468,242.6758,477.0451,245.6147,477.0451,239.7369,468,242.6758" style="stroke:#000000;stroke-width:1.0;"/><text fill="#000000" font-family="sans-serif" font-size="13" lengthAdjust="spacing" textLength="64" x="484" y="247.9951">registers in</text><text fill="#000000" font-family="sans-serif" font-size="13" lengthAdjust="spacing" textLength="7" x="428.1164" y="270.4514">1</text><text fill="#000000" font-family="sans-serif" font-size="13" lengthAdjust="spacing" textLength="5" x="585.9123" y="269.7378">*</text></g><!--MD5=[6716344a46572fc99c27bf4e50ddbd3d]
reverse link Employee to Nurse--><g id="link_Employee_Nurse"><path codeLine="76" d="M825.03,312.53 C854.83,327.19 884.79,341.92 907.79,353.23 " fill="none" id="Employee-backto-Nurse" style="stroke:#181818;stroke-width:1.0;"/><polygon fill="none" points="821.92,318.8,807.06,303.7,828.1,306.24,821.92,318.8" style="stroke:#181818;stroke-width:1.0;"/></g><!--MD5=[03efd8c9f90c050219bacdb83332548b]
link Nurse to VaccinationCenter--><g id="link_Nurse_VaccinationCenter"><path codeLine="77" d="M992.14,373.5 C1036.01,373.5 1108.2,373.5 1174.79,373.5 " fill="none" id="Nurse-VaccinationCenter" style="stroke:#181818;stroke-width:1.0;"/><polygon fill="#000000" points="1060,362.6758,1050.9549,359.7369,1050.9549,365.6147,1060,362.6758" style="stroke:#000000;stroke-width:1.0;"/><text fill="#000000" font-family="sans-serif" font-size="13" lengthAdjust="spacing" textLength="48" x="1066" y="367.9951">works in</text><text fill="#000000" font-family="sans-serif" font-size="13" lengthAdjust="spacing" textLength="5" x="1001.8648" y="390.7102">*</text><text fill="#000000" font-family="sans-serif" font-size="13" lengthAdjust="spacing" textLength="7" x="1157.8603" y="389.4907">1</text></g><!--MD5=[bea9cf5bb8fe1fc2341769cad6b24660]
link Platform to SNSUser--><g id="link_Platform_SNSUser"><path codeLine="78" d="M392.73,230.71 C445.47,184.58 574.67,84.5 703,84.5 C703,84.5 703,84.5 1703.5,84.5 C1774.73,84.5 1854.81,95.42 1913.77,105.56 " fill="none" id="Platform-SNSUser" style="stroke:#181818;stroke-width:1.0;"/><polygon fill="#000000" points="1042.0168,74.0858,1051.2725,76.2731,1050.7905,70.415,1042.0168,74.0858" style="stroke:#000000;stroke-width:1.0;"/><text fill="#000000" font-family="sans-serif" font-size="13" lengthAdjust="spacing" textLength="64" x="1058" y="78.9951">registers in</text><text fill="#000000" font-family="sans-serif" font-size="13" lengthAdjust="spacing" textLength="7" x="388.6611" y="218.2992">1</text><text fill="#000000" font-family="sans-serif" font-size="13" lengthAdjust="spacing" textLength="5" x="1898.887" y="120.4684">*</text></g><!--MD5=[de78e1efbcb885042a1719c3cec87a53]
link VaccinationCenter to WaitingRoom--><g id="link_VaccinationCenter_WaitingRoom"><path codeLine="79" d="M1491.19,305.07 C1547.92,280.37 1608.1,254.16 1649.48,236.15 " fill="none" id="VaccinationCenter-WaitingRoom" style="stroke:#181818;stroke-width:1.0;"/><polygon fill="#000000" points="1550.5843,257.6798,1541.118,258.596,1543.4644,263.9852,1550.5843,257.6798" style="stroke:#000000;stroke-width:1.0;"/><text fill="#000000" font-family="sans-serif" font-size="13" lengthAdjust="spacing" textLength="21" x="1557" y="264.9951">has</text><text fill="#000000" font-family="sans-serif" font-size="13" lengthAdjust="spacing" textLength="7" x="1501.1187" y="317.7461">1</text><text fill="#000000" font-family="sans-serif" font-size="13" lengthAdjust="spacing" textLength="7" x="1626.9473" y="259.2776">1</text></g><!--MD5=[dbc364445409b51c9b407d19a07b4adf]
link User to Email--><g id="link_User_Email"><path codeLine="80" d="M416.58,516.3 C432.76,526.25 451,537.12 468,546.5 C525.78,578.38 540.67,585.76 601,612.5 C621.52,621.59 644.79,630.8 663.92,638.09 " fill="none" id="User-Email" style="stroke:#181818;stroke-width:1.0;"/><polygon fill="#000000" points="498.9857,537.8845,492.1693,531.2522,489.5727,536.5255,498.9857,537.8845" style="stroke:#000000;stroke-width:1.0;"/><text fill="#000000" font-family="sans-serif" font-size="13" lengthAdjust="spacing" textLength="21" x="505.5" y="540.9951">has</text><text fill="#000000" font-family="sans-serif" font-size="13" lengthAdjust="spacing" textLength="7" x="426.6699" y="537.7985">1</text><text fill="#000000" font-family="sans-serif" font-size="13" lengthAdjust="spacing" textLength="7" x="647.0859" y="652.8882">1</text></g><!--MD5=[e6529539d61e4fceb49a82d3c9677c38]
link Company to User--><g id="link_Company_User"><path codeLine="81" d="M119.04,415.17 C175.69,431.31 263.12,456.2 317.32,471.64 " fill="none" id="Company-User" style="stroke:#181818;stroke-width:1.0;"/><polygon fill="#000000" points="178.8088,420.0453,170.9146,414.7413,169.3046,420.3943,178.8088,420.0453" style="stroke:#000000;stroke-width:1.0;"/><text fill="#000000" font-family="sans-serif" font-size="13" lengthAdjust="spacing" textLength="78" x="185" y="423.9951">comprehends</text><text fill="#000000" font-family="sans-serif" font-size="13" lengthAdjust="spacing" textLength="7" x="128.9248" y="433.9996">1</text><text fill="#000000" font-family="sans-serif" font-size="13" lengthAdjust="spacing" textLength="5" x="302.3623" y="486.5791">*</text></g><!--MD5=[1f12d177c84922ed4f166f09ee62ceaa]
link User to UserRole--><g id="link_User_UserRole"><path codeLine="82" d="M416.71,494.22 C478.32,505.26 584.1,524.2 648.39,535.72 " fill="none" id="User-UserRole" style="stroke:#181818;stroke-width:1.0;"/><polygon fill="#000000" points="494.4217,494.5574,486.0365,490.0697,485.0001,495.8554,494.4217,494.5574" style="stroke:#000000;stroke-width:1.0;"/><text fill="#000000" font-family="sans-serif" font-size="13" lengthAdjust="spacing" textLength="31" x="500.5" y="498.9951">plays</text><text fill="#000000" font-family="sans-serif" font-size="13" lengthAdjust="spacing" textLength="7" x="426.4739" y="512.3581">1</text><text fill="#000000" font-family="sans-serif" font-size="13" lengthAdjust="spacing" textLength="20" x="618.5726" y="551.2654">1..*</text></g><!--MD5=[e2f390ff4d92bb292ca9911c4fa65422]
link User to Nurse--><g id="link_User_Nurse"><path codeLine="83" d="M416.6,478.08 C497.79,465.45 665.98,438.21 807,408.5 C841.16,401.3 879.59,391.74 907.85,384.43 " fill="none" id="User-Nurse" style="stroke:#181818;stroke-width:1.0;"/><polygon fill="#000000" points="684.0885,398.6121,693.5239,399.8052,692.4232,394.0313,684.0885,398.6121" style="stroke:#000000;stroke-width:1.0;"/><text fill="#000000" font-family="sans-serif" font-size="13" lengthAdjust="spacing" textLength="21" x="700" y="402.9951">Is a</text><text fill="#000000" font-family="sans-serif" font-size="13" lengthAdjust="spacing" textLength="7" x="426.3484" y="471.1359">1</text><text fill="#000000" font-family="sans-serif" font-size="13" lengthAdjust="spacing" textLength="20" x="877.8967" y="403.0514">1..*</text></g><!--MD5=[12f07bde10acc48513012c03efa80884]
@startuml

skinparam classAttributeIconSize 0
hide methods

skinparam padding 2
skinparam ranksep 100
skinparam classFontSize 18
left to right direction

class Company

class Nurse


class Platform

class WaitingRoom

class SNSUser{
-name
-address
-gender
-email
-birthDate
-snsUserNumber
-citizenCardNumber
}

class Employee
{
-id
  -name;
  -address;
  -phoneNumber;
  -emailAddress;
  -citizenCardNumber;
  -{static}count_num_employees
  }

class VaccinationCenter
{
-name
- address
- phoneNumber
- emailAddress
 -faxNumber
 -websiteAddress
 -openingHours
 -openingMinutes
 -closingHours
 -closingMinutes
 -slotDuration
 -maxNumberVaccines
-List<Day> operatingDays
-WaitingRoom waitingRoom
 -List<Vaccine> listVaccines
 -List<VaccineType> listVaccineTypes
}

class User{
-id
-password
-name
-roles
}

class UserRole{
-id
-description
}


Company "1" - - "1" Platform : has >
WaitingRoom "1" - - "1..*" SNSUser : has >
Platform "1" - - "*" Employee : registers in <
Employee <|- - Nurse
Nurse "*" - - "1" VaccinationCenter : works in >
Platform "1" - - "*" SNSUser : registers in <
VaccinationCenter "1" - - "1" WaitingRoom : has >
User "1" - - "1" Email : has >
Company "1" - - "*" User :comprehends >
User "1" - - "1..*" UserRole : plays >
User "1" - - "1..*" Nurse: < Is a

@enduml

PlantUML version 1.2022.4(Sat Apr 09 14:29:17 BST 2022)
(GPL source distribution)
Java Runtime: OpenJDK Runtime Environment
JVM: OpenJDK 64-Bit Server VM
Default Encoding: Cp1252
Language: pt
Country: PT
--></g></svg>