<?xml version="1.0" encoding="UTF-8" standalone="no"?><svg xmlns="http://www.w3.org/2000/svg" xmlns:xlink="http://www.w3.org/1999/xlink" contentStyleType="text/css" height="1074px" preserveAspectRatio="none" style="width:2192px;height:1074px;background:#FFFFFF;" version="1.1" viewBox="0 0 2192 1074" width="2192px" zoomAndPan="magnify"><defs/><g><rect fill="#FFFFFF" height="890.2891" style="stroke:#181818;stroke-width:1.0;" width="10" x="21.5" y="92.6094"/><rect fill="#FFFFFF" height="798.2344" style="stroke:#181818;stroke-width:1.0;" width="10" x="482.5" y="114.9609"/><rect fill="#FFFFFF" height="30.3516" style="stroke:#181818;stroke-width:1.0;" width="10" x="482.5" y="943.5469"/><rect fill="#FFFFFF" height="183.3125" style="stroke:#181818;stroke-width:1.0;" width="10" x="814.5" y="155.3125"/><rect fill="#FFFFFF" height="120.7031" style="stroke:#181818;stroke-width:1.0;" width="10" x="814.5" y="368.9766"/><rect fill="#FFFFFF" height="272.1094" style="stroke:#181818;stroke-width:1.0;" width="10" x="814.5" y="520.0313"/><rect fill="#FFFFFF" height="60.3516" style="stroke:#181818;stroke-width:1.0;" width="10" x="814.5" y="822.4922"/><rect fill="#FFFFFF" height="30" style="stroke:#181818;stroke-width:1.0;" width="10" x="966.5" y="187.9219"/><rect fill="#FFFFFF" height="30" style="stroke:#181818;stroke-width:1.0;" width="10" x="1057.5" y="248.2734"/><rect fill="#FFFFFF" height="30" style="stroke:#181818;stroke-width:1.0;" width="10" x="1057.5" y="399.3281"/><rect fill="#FFFFFF" height="90.7031" style="stroke:#181818;stroke-width:1.0;" width="10" x="1057.5" y="610.7344"/><rect fill="#FFFFFF" height="30" style="stroke:#181818;stroke-width:1.0;" width="10" x="1180.5" y="459.6797"/><rect fill="#FFFFFF" height="60.3516" style="stroke:#181818;stroke-width:1.0;" width="10" x="1180.5" y="641.0859"/><rect fill="#FFFFFF" height="30" style="stroke:#181818;stroke-width:1.0;" width="10" x="1278" y="308.625"/><rect fill="#FFFFFF" height="30" style="stroke:#181818;stroke-width:1.0;" width="10" x="1362" y="550.3828"/><rect fill="#FFFFFF" height="60.3516" style="stroke:#181818;stroke-width:1.0;" width="10" x="1475.5" y="731.7891"/><rect fill="#FFFFFF" height="30" style="stroke:#181818;stroke-width:1.0;" width="10" x="1582" y="671.4375"/><rect fill="#FFFFFF" height="30" style="stroke:#181818;stroke-width:1.0;" width="10" x="1733.5" y="762.1406"/><rect fill="#FFFFFF" height="30" style="stroke:#181818;stroke-width:1.0;" width="10" x="1854.5" y="852.8438"/><line style="stroke:#181818;stroke-width:0.5;stroke-dasharray:5.0,5.0;" x1="26" x2="26" y1="82.6094" y2="991.8984"/><line style="stroke:#181818;stroke-width:0.5;stroke-dasharray:5.0,5.0;" x1="487.5" x2="487.5" y1="82.6094" y2="991.8984"/><line style="stroke:#181818;stroke-width:0.5;stroke-dasharray:5.0,5.0;" x1="819.5" x2="819.5" y1="154.2656" y2="991.8984"/><line style="stroke:#181818;stroke-width:0.5;stroke-dasharray:5.0,5.0;" x1="971" x2="971" y1="82.6094" y2="991.8984"/><line style="stroke:#181818;stroke-width:0.5;stroke-dasharray:5.0,5.0;" x1="1062" x2="1062" y1="82.6094" y2="991.8984"/><line style="stroke:#181818;stroke-width:0.5;stroke-dasharray:5.0,5.0;" x1="1185" x2="1185" y1="82.6094" y2="991.8984"/><line style="stroke:#181818;stroke-width:0.5;stroke-dasharray:5.0,5.0;" x1="1283" x2="1283" y1="82.6094" y2="991.8984"/><line style="stroke:#181818;stroke-width:0.5;stroke-dasharray:5.0,5.0;" x1="1367" x2="1367" y1="82.6094" y2="991.8984"/><line style="stroke:#181818;stroke-width:0.5;stroke-dasharray:5.0,5.0;" x1="1480" x2="1480" y1="82.6094" y2="991.8984"/><line style="stroke:#181818;stroke-width:0.5;stroke-dasharray:5.0,5.0;" x1="1587" x2="1587" y1="82.6094" y2="991.8984"/><line style="stroke:#181818;stroke-width:0.5;stroke-dasharray:5.0,5.0;" x1="1738.5" x2="1738.5" y1="82.6094" y2="991.8984"/><line style="stroke:#181818;stroke-width:0.5;stroke-dasharray:5.0,5.0;" x1="1859.5" x2="1859.5" y1="82.6094" y2="991.8984"/><line style="stroke:#181818;stroke-width:0.5;stroke-dasharray:5.0,5.0;" x1="1999.5" x2="1999.5" y1="82.6094" y2="991.8984"/><line style="stroke:#181818;stroke-width:0.5;stroke-dasharray:5.0,5.0;" x1="2128.5" x2="2128.5" y1="82.6094" y2="991.8984"/><text fill="#000000" font-family="sans-serif" font-size="14" lengthAdjust="spacing" textLength="37" x="5" y="79.5332">Nurse</text><ellipse cx="26.5" cy="13.5" fill="#E2E2F0" rx="8" ry="8" style="stroke:#181818;stroke-width:0.5;"/><path d="M26.5,21.5 L26.5,48.5 M13.5,29.5 L39.5,29.5 M26.5,48.5 L13.5,63.5 M26.5,48.5 L39.5,63.5 " fill="none" style="stroke:#181818;stroke-width:0.5;"/><text fill="#000000" font-family="sans-serif" font-size="14" lengthAdjust="spacing" textLength="37" x="5" y="1005.4316">Nurse</text><ellipse cx="26.5" cy="1017.0078" fill="#E2E2F0" rx="8" ry="8" style="stroke:#181818;stroke-width:0.5;"/><path d="M26.5,1025.0078 L26.5,1052.0078 M13.5,1033.0078 L39.5,1033.0078 M26.5,1052.0078 L13.5,1067.0078 M26.5,1052.0078 L39.5,1067.0078 " fill="none" style="stroke:#181818;stroke-width:0.5;"/><rect fill="#E2E2F0" height="31.6094" rx="2.5" ry="2.5" style="stroke:#181818;stroke-width:0.5;" width="114" x="430.5" y="50"/><text fill="#000000" font-family="sans-serif" font-size="14" lengthAdjust="spacing" textLength="100" x="437.5" y="71.5332">:WaitingRoomUI</text><rect fill="#E2E2F0" height="31.6094" rx="2.5" ry="2.5" style="stroke:#181818;stroke-width:0.5;" width="114" x="430.5" y="990.8984"/><text fill="#000000" font-family="sans-serif" font-size="14" lengthAdjust="spacing" textLength="100" x="437.5" y="1012.4316">:WaitingRoomUI</text><rect fill="#E2E2F0" height="31.6094" rx="2.5" ry="2.5" style="stroke:#181818;stroke-width:0.5;" width="164" x="737.5" y="990.8984"/><text fill="#000000" font-family="sans-serif" font-size="14" lengthAdjust="spacing" textLength="150" x="744.5" y="1012.4316">:WaitingRoomController</text><rect fill="#E2E2F0" height="31.6094" rx="2.5" ry="2.5" style="stroke:#181818;stroke-width:0.5;" width="43" x="950" y="50"/><text fill="#000000" font-family="sans-serif" font-size="14" lengthAdjust="spacing" textLength="29" x="957" y="71.5332">:App</text><rect fill="#E2E2F0" height="31.6094" rx="2.5" ry="2.5" style="stroke:#181818;stroke-width:0.5;" width="43" x="950" y="990.8984"/><text fill="#000000" font-family="sans-serif" font-size="14" lengthAdjust="spacing" textLength="29" x="957" y="1012.4316">:App</text><rect fill="#E2E2F0" height="31.6094" rx="2.5" ry="2.5" style="stroke:#181818;stroke-width:0.5;" width="67" x="1029" y="50"/><text fill="#000000" font-family="sans-serif" font-size="14" lengthAdjust="spacing" textLength="53" x="1036" y="71.5332">app:App</text><rect fill="#E2E2F0" height="31.6094" rx="2.5" ry="2.5" style="stroke:#181818;stroke-width:0.5;" width="67" x="1029" y="990.8984"/><text fill="#000000" font-family="sans-serif" font-size="14" lengthAdjust="spacing" textLength="53" x="1036" y="1012.4316">app:App</text><rect fill="#E2E2F0" height="49.2188" rx="2.5" ry="2.5" style="stroke:#181818;stroke-width:0.5;" width="97" x="1137" y="32.3906"/><text fill="#000000" font-family="sans-serif" font-size="14" lengthAdjust="spacing" textLength="48" x="1159.5" y="53.9238">session</text><text fill="#000000" font-family="sans-serif" font-size="14" lengthAdjust="spacing" textLength="83" x="1144" y="71.5332">:UserSession</text><rect fill="#E2E2F0" height="49.2188" rx="2.5" ry="2.5" style="stroke:#181818;stroke-width:0.5;" width="97" x="1137" y="990.8984"/><text fill="#000000" font-family="sans-serif" font-size="14" lengthAdjust="spacing" textLength="48" x="1159.5" y="1012.4316">session</text><text fill="#000000" font-family="sans-serif" font-size="14" lengthAdjust="spacing" textLength="83" x="1144" y="1030.041">:UserSession</text><rect fill="#E2E2F0" height="49.2188" rx="2.5" ry="2.5" style="stroke:#181818;stroke-width:0.5;" width="78" x="1244" y="32.3906"/><text fill="#000000" font-family="sans-serif" font-size="14" lengthAdjust="spacing" textLength="34" x="1266" y="53.9238">comp</text><text fill="#000000" font-family="sans-serif" font-size="14" lengthAdjust="spacing" textLength="64" x="1251" y="71.5332">:Company</text><rect fill="#E2E2F0" height="49.2188" rx="2.5" ry="2.5" style="stroke:#181818;stroke-width:0.5;" width="78" x="1244" y="990.8984"/><text fill="#000000" font-family="sans-serif" font-size="14" lengthAdjust="spacing" textLength="34" x="1266" y="1012.4316">comp</text><text fill="#000000" font-family="sans-serif" font-size="14" lengthAdjust="spacing" textLength="64" x="1251" y="1030.041">:Company</text><rect fill="#E2E2F0" height="49.2188" rx="2.5" ry="2.5" style="stroke:#181818;stroke-width:0.5;" width="70" x="1332" y="32.3906"/><text fill="#000000" font-family="sans-serif" font-size="14" lengthAdjust="spacing" textLength="23" x="1355.5" y="53.9238">plat</text><text fill="#000000" font-family="sans-serif" font-size="14" lengthAdjust="spacing" textLength="56" x="1339" y="71.5332">:Platform</text><rect fill="#E2E2F0" height="49.2188" rx="2.5" ry="2.5" style="stroke:#181818;stroke-width:0.5;" width="70" x="1332" y="990.8984"/><text fill="#000000" font-family="sans-serif" font-size="14" lengthAdjust="spacing" textLength="23" x="1355.5" y="1012.4316">plat</text><text fill="#000000" font-family="sans-serif" font-size="14" lengthAdjust="spacing" textLength="56" x="1339" y="1030.041">:Platform</text><rect fill="#E2E2F0" height="49.2188" rx="2.5" ry="2.5" style="stroke:#181818;stroke-width:0.5;" width="137" x="1412" y="32.3906"/><text fill="#000000" font-family="sans-serif" font-size="14" lengthAdjust="spacing" textLength="21" x="1470" y="53.9238">reg</text><text fill="#000000" font-family="sans-serif" font-size="14" lengthAdjust="spacing" textLength="119" x="1423" y="71.5332">:RegisterEmployee</text><rect fill="#E2E2F0" height="49.2188" rx="2.5" ry="2.5" style="stroke:#181818;stroke-width:0.5;" width="137" x="1412" y="990.8984"/><text fill="#000000" font-family="sans-serif" font-size="14" lengthAdjust="spacing" textLength="21" x="1470" y="1012.4316">reg</text><text fill="#000000" font-family="sans-serif" font-size="14" lengthAdjust="spacing" textLength="119" x="1423" y="1030.041">:RegisterEmployee</text><rect fill="#E2E2F0" height="49.2188" rx="2.5" ry="2.5" style="stroke:#181818;stroke-width:0.5;" width="56" x="1559" y="32.3906"/><text fill="#000000" font-family="sans-serif" font-size="14" lengthAdjust="spacing" textLength="33" x="1570.5" y="53.9238">email</text><text fill="#000000" font-family="sans-serif" font-size="14" lengthAdjust="spacing" textLength="38" x="1570" y="71.5332">:Email</text><rect fill="#E2E2F0" height="49.2188" rx="2.5" ry="2.5" style="stroke:#181818;stroke-width:0.5;" width="56" x="1559" y="990.8984"/><text fill="#000000" font-family="sans-serif" font-size="14" lengthAdjust="spacing" textLength="33" x="1570.5" y="1012.4316">email</text><text fill="#000000" font-family="sans-serif" font-size="14" lengthAdjust="spacing" textLength="38" x="1570" y="1030.041">:Email</text><rect fill="#E2E2F0" height="49.2188" rx="2.5" ry="2.5" style="stroke:#181818;stroke-width:0.5;" width="84" x="1696.5" y="32.3906"/><text fill="#000000" font-family="sans-serif" font-size="14" lengthAdjust="spacing" textLength="27" x="1725" y="53.9238">emp</text><text fill="#000000" font-family="sans-serif" font-size="14" lengthAdjust="spacing" textLength="66" x="1707.5" y="71.5332">:Employee</text><rect fill="#E2E2F0" height="49.2188" rx="2.5" ry="2.5" style="stroke:#181818;stroke-width:0.5;" width="84" x="1696.5" y="990.8984"/><text fill="#000000" font-family="sans-serif" font-size="14" lengthAdjust="spacing" textLength="27" x="1725" y="1012.4316">emp</text><text fill="#000000" font-family="sans-serif" font-size="14" lengthAdjust="spacing" textLength="66" x="1707.5" y="1030.041">:Employee</text><rect fill="#E2E2F0" height="49.2188" rx="2.5" ry="2.5" style="stroke:#181818;stroke-width:0.5;" width="138" x="1790.5" y="32.3906"/><text fill="#000000" font-family="sans-serif" font-size="14" lengthAdjust="spacing" textLength="22" x="1848.5" y="53.9238">vac</text><text fill="#000000" font-family="sans-serif" font-size="14" lengthAdjust="spacing" textLength="120" x="1801.5" y="71.5332">:VaccinationCenter</text><rect fill="#E2E2F0" height="49.2188" rx="2.5" ry="2.5" style="stroke:#181818;stroke-width:0.5;" width="138" x="1790.5" y="990.8984"/><text fill="#000000" font-family="sans-serif" font-size="14" lengthAdjust="spacing" textLength="22" x="1848.5" y="1012.4316">vac</text><text fill="#000000" font-family="sans-serif" font-size="14" lengthAdjust="spacing" textLength="120" x="1801.5" y="1030.041">:VaccinationCenter</text><rect fill="#E2E2F0" height="49.2188" rx="2.5" ry="2.5" style="stroke:#181818;stroke-width:0.5;" width="122" x="1938.5" y="32.3906"/><text fill="#000000" font-family="sans-serif" font-size="14" lengthAdjust="spacing" textLength="11" x="1994" y="53.9238">le</text><text fill="#000000" font-family="sans-serif" font-size="14" lengthAdjust="spacing" textLength="104" x="1949.5" y="71.5332">:List&lt;Employee&gt;</text><rect fill="#E2E2F0" height="49.2188" rx="2.5" ry="2.5" style="stroke:#181818;stroke-width:0.5;" width="122" x="1938.5" y="990.8984"/><text fill="#000000" font-family="sans-serif" font-size="14" lengthAdjust="spacing" textLength="11" x="1994" y="1012.4316">le</text><text fill="#000000" font-family="sans-serif" font-size="14" lengthAdjust="spacing" textLength="104" x="1949.5" y="1030.041">:List&lt;Employee&gt;</text><rect fill="#E2E2F0" height="49.2188" rx="2.5" ry="2.5" style="stroke:#181818;stroke-width:0.5;" width="116" x="2070.5" y="32.3906"/><text fill="#000000" font-family="sans-serif" font-size="14" lengthAdjust="spacing" textLength="25" x="2116" y="53.9238">lsns</text><text fill="#000000" font-family="sans-serif" font-size="14" lengthAdjust="spacing" textLength="98" x="2081.5" y="71.5332">:List&lt;SNSUser&gt;</text><rect fill="#E2E2F0" height="49.2188" rx="2.5" ry="2.5" style="stroke:#181818;stroke-width:0.5;" width="116" x="2070.5" y="990.8984"/><text fill="#000000" font-family="sans-serif" font-size="14" lengthAdjust="spacing" textLength="25" x="2116" y="1012.4316">lsns</text><text fill="#000000" font-family="sans-serif" font-size="14" lengthAdjust="spacing" textLength="98" x="2081.5" y="1030.041">:List&lt;SNSUser&gt;</text><rect fill="#FFFFFF" height="890.2891" style="stroke:#181818;stroke-width:1.0;" width="10" x="21.5" y="92.6094"/><rect fill="#FFFFFF" height="798.2344" style="stroke:#181818;stroke-width:1.0;" width="10" x="482.5" y="114.9609"/><rect fill="#FFFFFF" height="30.3516" style="stroke:#181818;stroke-width:1.0;" width="10" x="482.5" y="943.5469"/><rect fill="#FFFFFF" height="183.3125" style="stroke:#181818;stroke-width:1.0;" width="10" x="814.5" y="155.3125"/><rect fill="#FFFFFF" height="120.7031" style="stroke:#181818;stroke-width:1.0;" width="10" x="814.5" y="368.9766"/><rect fill="#FFFFFF" height="272.1094" style="stroke:#181818;stroke-width:1.0;" width="10" x="814.5" y="520.0313"/><rect fill="#FFFFFF" height="60.3516" style="stroke:#181818;stroke-width:1.0;" width="10" x="814.5" y="822.4922"/><rect fill="#FFFFFF" height="30" style="stroke:#181818;stroke-width:1.0;" width="10" x="966.5" y="187.9219"/><rect fill="#FFFFFF" height="30" style="stroke:#181818;stroke-width:1.0;" width="10" x="1057.5" y="248.2734"/><rect fill="#FFFFFF" height="30" style="stroke:#181818;stroke-width:1.0;" width="10" x="1057.5" y="399.3281"/><rect fill="#FFFFFF" height="90.7031" style="stroke:#181818;stroke-width:1.0;" width="10" x="1057.5" y="610.7344"/><rect fill="#FFFFFF" height="30" style="stroke:#181818;stroke-width:1.0;" width="10" x="1180.5" y="459.6797"/><rect fill="#FFFFFF" height="60.3516" style="stroke:#181818;stroke-width:1.0;" width="10" x="1180.5" y="641.0859"/><rect fill="#FFFFFF" height="30" style="stroke:#181818;stroke-width:1.0;" width="10" x="1278" y="308.625"/><rect fill="#FFFFFF" height="30" style="stroke:#181818;stroke-width:1.0;" width="10" x="1362" y="550.3828"/><rect fill="#FFFFFF" height="60.3516" style="stroke:#181818;stroke-width:1.0;" width="10" x="1475.5" y="731.7891"/><rect fill="#FFFFFF" height="30" style="stroke:#181818;stroke-width:1.0;" width="10" x="1582" y="671.4375"/><rect fill="#FFFFFF" height="30" style="stroke:#181818;stroke-width:1.0;" width="10" x="1733.5" y="762.1406"/><rect fill="#FFFFFF" height="30" style="stroke:#181818;stroke-width:1.0;" width="10" x="1854.5" y="852.8438"/><polygon fill="#181818" points="470.5,110.9609,480.5,114.9609,470.5,118.9609,474.5,114.9609" style="stroke:#181818;stroke-width:1.0;"/><line style="stroke:#181818;stroke-width:1.0;" x1="31.5" x2="476.5" y1="114.9609" y2="114.9609"/><text fill="#000000" font-family="sans-serif" font-size="13" font-weight="bold" lengthAdjust="spacing" textLength="7" x="38.5" y="110.1045">1</text><text fill="#000000" font-family="sans-serif" font-size="13" lengthAdjust="spacing" textLength="295" x="49.5" y="110.1045">asks to consult the list of users in the waiting room</text><polygon fill="#181818" points="725.5,141.3125,735.5,145.3125,725.5,149.3125,729.5,145.3125" style="stroke:#181818;stroke-width:1.0;"/><line style="stroke:#181818;stroke-width:1.0;" x1="492.5" x2="731.5" y1="145.3125" y2="145.3125"/><text fill="#000000" font-family="sans-serif" font-size="13" font-weight="bold" lengthAdjust="spacing" textLength="7" x="499.5" y="140.4561">2</text><text fill="#000000" font-family="sans-serif" font-size="13" lengthAdjust="spacing" textLength="210" x="510.5" y="140.4561">controller = WaitingRoomController()</text><rect fill="#E2E2F0" height="31.6094" rx="2.5" ry="2.5" style="stroke:#181818;stroke-width:0.5;" width="164" x="737.5" y="122.9609"/><text fill="#000000" font-family="sans-serif" font-size="14" lengthAdjust="spacing" textLength="150" x="744.5" y="144.4941">:WaitingRoomController</text><polygon fill="#181818" points="954.5,183.9219,964.5,187.9219,954.5,191.9219,958.5,187.9219" style="stroke:#181818;stroke-width:1.0;"/><line style="stroke:#181818;stroke-width:1.0;" x1="824.5" x2="960.5" y1="187.9219" y2="187.9219"/><text fill="#000000" font-family="sans-serif" font-size="13" font-weight="bold" lengthAdjust="spacing" textLength="7" x="831.5" y="183.0654">3</text><text fill="#000000" font-family="sans-serif" font-size="13" lengthAdjust="spacing" textLength="112" x="842.5" y="183.0654">app = getInstance()</text><polygon fill="#181818" points="1045.5,244.2734,1055.5,248.2734,1045.5,252.2734,1049.5,248.2734" style="stroke:#181818;stroke-width:1.0;"/><line style="stroke:#181818;stroke-width:1.0;" x1="824.5" x2="1051.5" y1="248.2734" y2="248.2734"/><text fill="#000000" font-family="sans-serif" font-size="13" font-weight="bold" lengthAdjust="spacing" textLength="7" x="831.5" y="243.417">4</text><text fill="#000000" font-family="sans-serif" font-size="13" lengthAdjust="spacing" textLength="129" x="842.5" y="243.417">comp = getCompany()</text><polygon fill="#181818" points="1266,304.625,1276,308.625,1266,312.625,1270,308.625" style="stroke:#181818;stroke-width:1.0;"/><line style="stroke:#181818;stroke-width:1.0;" x1="824.5" x2="1272" y1="308.625" y2="308.625"/><text fill="#000000" font-family="sans-serif" font-size="13" font-weight="bold" lengthAdjust="spacing" textLength="7" x="831.5" y="303.7686">5</text><text fill="#000000" font-family="sans-serif" font-size="13" lengthAdjust="spacing" textLength="111" x="842.5" y="303.7686">plat = getPlatform()</text><polygon fill="#181818" points="802.5,364.9766,812.5,368.9766,802.5,372.9766,806.5,368.9766" style="stroke:#181818;stroke-width:1.0;"/><line style="stroke:#181818;stroke-width:1.0;" x1="492.5" x2="808.5" y1="368.9766" y2="368.9766"/><text fill="#000000" font-family="sans-serif" font-size="13" font-weight="bold" lengthAdjust="spacing" textLength="7" x="499.5" y="364.1201">6</text><text fill="#000000" font-family="sans-serif" font-size="13" lengthAdjust="spacing" textLength="74" x="510.5" y="364.1201">checkLogin()</text><polygon fill="#181818" points="1045.5,395.3281,1055.5,399.3281,1045.5,403.3281,1049.5,399.3281" style="stroke:#181818;stroke-width:1.0;"/><line style="stroke:#181818;stroke-width:1.0;" x1="824.5" x2="1051.5" y1="399.3281" y2="399.3281"/><text fill="#000000" font-family="sans-serif" font-size="13" font-weight="bold" lengthAdjust="spacing" textLength="7" x="831.5" y="394.4717">7</text><text fill="#000000" font-family="sans-serif" font-size="13" lengthAdjust="spacing" textLength="203" x="842.5" y="394.4717">session = getCurrentUserSession()</text><polygon fill="#181818" points="1168.5,455.6797,1178.5,459.6797,1168.5,463.6797,1172.5,459.6797" style="stroke:#181818;stroke-width:1.0;"/><line style="stroke:#181818;stroke-width:1.0;" x1="824.5" x2="1174.5" y1="459.6797" y2="459.6797"/><text fill="#000000" font-family="sans-serif" font-size="13" font-weight="bold" lengthAdjust="spacing" textLength="7" x="831.5" y="454.8232">8</text><text fill="#000000" font-family="sans-serif" font-size="13" lengthAdjust="spacing" textLength="326" x="842.5" y="454.8232">answer= isLoggedInWithRole(Constants.ROLE_NURSE)</text><polygon fill="#181818" points="802.5,516.0313,812.5,520.0313,802.5,524.0313,806.5,520.0313" style="stroke:#181818;stroke-width:1.0;"/><line style="stroke:#181818;stroke-width:1.0;" x1="492.5" x2="808.5" y1="520.0313" y2="520.0313"/><text fill="#000000" font-family="sans-serif" font-size="13" font-weight="bold" lengthAdjust="spacing" textLength="7" x="499.5" y="515.1748">9</text><text fill="#000000" font-family="sans-serif" font-size="13" lengthAdjust="spacing" textLength="215" x="510.5" y="515.1748">vac = getWorkingVaccinationCenter()</text><polygon fill="#181818" points="1350,546.3828,1360,550.3828,1350,554.3828,1354,550.3828" style="stroke:#181818;stroke-width:1.0;"/><line style="stroke:#181818;stroke-width:1.0;" x1="824.5" x2="1356" y1="550.3828" y2="550.3828"/><text fill="#000000" font-family="sans-serif" font-size="13" font-weight="bold" lengthAdjust="spacing" textLength="14" x="831.5" y="545.5264">10</text><text fill="#000000" font-family="sans-serif" font-size="13" lengthAdjust="spacing" textLength="166" x="849.5" y="545.5264">reg = getRegisterEmployee()</text><polygon fill="#181818" points="1045.5,606.7344,1055.5,610.7344,1045.5,614.7344,1049.5,610.7344" style="stroke:#181818;stroke-width:1.0;"/><line style="stroke:#181818;stroke-width:1.0;" x1="824.5" x2="1051.5" y1="610.7344" y2="610.7344"/><text fill="#000000" font-family="sans-serif" font-size="13" font-weight="bold" lengthAdjust="spacing" textLength="14" x="831.5" y="605.8779">11</text><text fill="#000000" font-family="sans-serif" font-size="13" lengthAdjust="spacing" textLength="189" x="849.5" y="605.8779">email = getCurrentUserSession()</text><polygon fill="#181818" points="1168.5,637.0859,1178.5,641.0859,1168.5,645.0859,1172.5,641.0859" style="stroke:#181818;stroke-width:1.0;"/><line style="stroke:#181818;stroke-width:1.0;" x1="1067.5" x2="1174.5" y1="641.0859" y2="641.0859"/><text fill="#000000" font-family="sans-serif" font-size="13" font-weight="bold" lengthAdjust="spacing" textLength="14" x="1074.5" y="636.2295">12</text><text fill="#000000" font-family="sans-serif" font-size="13" lengthAdjust="spacing" textLength="63" x="1092.5" y="636.2295">getUserId()</text><polygon fill="#181818" points="1570,667.4375,1580,671.4375,1570,675.4375,1574,671.4375" style="stroke:#181818;stroke-width:1.0;"/><line style="stroke:#181818;stroke-width:1.0;" x1="1190.5" x2="1576" y1="671.4375" y2="671.4375"/><text fill="#000000" font-family="sans-serif" font-size="13" font-weight="bold" lengthAdjust="spacing" textLength="14" x="1197.5" y="666.5811">13</text><text fill="#000000" font-family="sans-serif" font-size="13" lengthAdjust="spacing" textLength="59" x="1215.5" y="666.5811">getEmail()</text><polygon fill="#181818" points="1463.5,727.7891,1473.5,731.7891,1463.5,735.7891,1467.5,731.7891" style="stroke:#181818;stroke-width:1.0;"/><line style="stroke:#181818;stroke-width:1.0;" x1="824.5" x2="1469.5" y1="731.7891" y2="731.7891"/><text fill="#000000" font-family="sans-serif" font-size="13" font-weight="bold" lengthAdjust="spacing" textLength="14" x="831.5" y="726.9326">14</text><text fill="#000000" font-family="sans-serif" font-size="13" lengthAdjust="spacing" textLength="211" x="849.5" y="726.9326">getWorkingVaccinationCenter(email)</text><polygon fill="#181818" points="1721.5,758.1406,1731.5,762.1406,1721.5,766.1406,1725.5,762.1406" style="stroke:#181818;stroke-width:1.0;"/><line style="stroke:#181818;stroke-width:1.0;" x1="1485.5" x2="1727.5" y1="762.1406" y2="762.1406"/><text fill="#000000" font-family="sans-serif" font-size="13" font-weight="bold" lengthAdjust="spacing" textLength="14" x="1492.5" y="757.2842">15</text><text fill="#000000" font-family="sans-serif" font-size="13" lengthAdjust="spacing" textLength="211" x="1510.5" y="757.2842">getWorkingVaccinationCenter(email)</text><polygon fill="#181818" points="802.5,818.4922,812.5,822.4922,802.5,826.4922,806.5,822.4922" style="stroke:#181818;stroke-width:1.0;"/><line style="stroke:#181818;stroke-width:1.0;" x1="492.5" x2="808.5" y1="822.4922" y2="822.4922"/><text fill="#000000" font-family="sans-serif" font-size="13" font-weight="bold" lengthAdjust="spacing" textLength="14" x="499.5" y="817.6357">16</text><text fill="#000000" font-family="sans-serif" font-size="13" lengthAdjust="spacing" textLength="228" x="517.5" y="817.6357">lsns = getListUsersInWaitingRoom(vac)</text><polygon fill="#181818" points="1842.5,848.8438,1852.5,852.8438,1842.5,856.8438,1846.5,852.8438" style="stroke:#181818;stroke-width:1.0;"/><line style="stroke:#181818;stroke-width:1.0;" x1="824.5" x2="1848.5" y1="852.8438" y2="852.8438"/><text fill="#000000" font-family="sans-serif" font-size="13" font-weight="bold" lengthAdjust="spacing" textLength="14" x="831.5" y="847.9873">17</text><text fill="#000000" font-family="sans-serif" font-size="13" lengthAdjust="spacing" textLength="165" x="849.5" y="847.9873">getWaitingRoomSNSUsers()</text><polygon fill="#181818" points="42.5,909.1953,32.5,913.1953,42.5,917.1953,38.5,913.1953" style="stroke:#181818;stroke-width:1.0;"/><line style="stroke:#181818;stroke-width:1.0;stroke-dasharray:2.0,2.0;" x1="36.5" x2="486.5" y1="913.1953" y2="913.1953"/><text fill="#000000" font-family="sans-serif" font-size="13" font-weight="bold" lengthAdjust="spacing" textLength="14" x="48.5" y="908.3389">18</text><text fill="#000000" font-family="sans-serif" font-size="13" lengthAdjust="spacing" textLength="409" x="66.5" y="908.3389">show list of SNS users in the waiting room and requests a confirmation</text><polygon fill="#181818" points="470.5,939.5469,480.5,943.5469,470.5,947.5469,474.5,943.5469" style="stroke:#181818;stroke-width:1.0;"/><line style="stroke:#181818;stroke-width:1.0;" x1="31.5" x2="476.5" y1="943.5469" y2="943.5469"/><text fill="#000000" font-family="sans-serif" font-size="13" font-weight="bold" lengthAdjust="spacing" textLength="14" x="38.5" y="938.6904">19</text><text fill="#000000" font-family="sans-serif" font-size="13" lengthAdjust="spacing" textLength="100" x="56.5" y="938.6904">confirms the data</text><polygon fill="#181818" points="42.5,969.8984,32.5,973.8984,42.5,977.8984,38.5,973.8984" style="stroke:#181818;stroke-width:1.0;"/><line style="stroke:#181818;stroke-width:1.0;stroke-dasharray:2.0,2.0;" x1="36.5" x2="486.5" y1="973.8984" y2="973.8984"/><text fill="#000000" font-family="sans-serif" font-size="13" font-weight="bold" lengthAdjust="spacing" textLength="14" x="48.5" y="969.042">20</text><text fill="#000000" font-family="sans-serif" font-size="13" lengthAdjust="spacing" textLength="152" x="66.5" y="969.042">informs operation success</text><!--MD5=[1cb10df9d52bdf10112bf019b2124cb3]
@startuml
'https://plantuml.com/sequence-diagram

autonumber

actor "Nurse" as NRS
participant ":WaitingRoomUI" as UI
participant ":WaitingRoomController" as CTRL
participant ":App" as APP
participant "app:App" as App
participant "session \n:UserSession" as SESSION
participant "comp\n:Company" as Comp
participant "plat\n:Platform" as PLAT
participant "reg\n :RegisterEmployee" as RE
participant "email\n :Email" as EMAIL
participant "emp\n :Employee" as EMP
participant "vac\n :VaccinationCenter" as VAC
participant "le\n :List<Employee>"
participant "lsns\n :List<SNSUser>"



activate NRS
'1
NRS -> UI : asks to consult the list of users in the waiting room
activate UI
'2
UI -> CTRL** : controller = WaitingRoomController()
activate CTRL
'3
CTRL -> APP : app = getInstance()
activate APP
deactivate APP
'4
CTRL -> App : comp = getCompany()
activate App
deactivate App
'5
CTRL -> Comp : plat = getPlatform()
activate Comp
deactivate Comp
deactivate CTRL

'6
UI ->CTRL :checkLogin()
activate CTRL
'7
CTRL -> App : session = getCurrentUserSession()
activate App
deactivate App
'8
CTRL -> SESSION : answer= isLoggedInWithRole(Constants.ROLE_NURSE)
activate SESSION
deactivate SESSION
deactivate CTRL


'9
UI -> CTRL : vac = getWorkingVaccinationCenter()
activate CTRL
'10
CTRL -> PLAT : reg = getRegisterEmployee()
activate PLAT
deactivate PLAT
'11
CTRL -> App : email = getCurrentUserSession()
activate App
'12
App -> SESSION : getUserId()
activate SESSION
'13
SESSION -> EMAIL : getEmail()
activate EMAIL
deactivate EMAIL
deactivate SESSION
deactivate App

'14
CTRL -> RE : getWorkingVaccinationCenter(email)
activate RE
'15
RE -> EMP : getWorkingVaccinationCenter(email)
activate EMP
deactivate EMP
deactivate RE
deactivate CTRL
'16
UI -> CTRL : lsns = getListUsersInWaitingRoom(vac)
activate CTRL
'17
CTRL -> VAC : getWaitingRoomSNSUsers()
activate VAC
deactivate VAC
deactivate RE
deactivate CTRL
'18
UI - -> NRS : show list of SNS users in the waiting room and requests a confirmation
deactivate UI
'19
NRS -> UI:  confirms the data
activate UI
'20
UI - -> NRS : informs operation success
deactivate UI

@enduml

@startuml

autonumber

actor "Nurse" as NRS
participant ":WaitingRoomUI" as UI
participant ":WaitingRoomController" as CTRL
participant ":App" as APP
participant "app:App" as App
participant "session \n:UserSession" as SESSION
participant "comp\n:Company" as Comp
participant "plat\n:Platform" as PLAT
participant "reg\n :RegisterEmployee" as RE
participant "email\n :Email" as EMAIL
participant "emp\n :Employee" as EMP
participant "vac\n :VaccinationCenter" as VAC
participant "le\n :List<Employee>"
participant "lsns\n :List<SNSUser>"



activate NRS
NRS -> UI : asks to consult the list of users in the waiting room
activate UI
UI -> CTRL** : controller = WaitingRoomController()
activate CTRL
CTRL -> APP : app = getInstance()
activate APP
deactivate APP
CTRL -> App : comp = getCompany()
activate App
deactivate App
CTRL -> Comp : plat = getPlatform()
activate Comp
deactivate Comp
deactivate CTRL

UI ->CTRL :checkLogin()
activate CTRL
CTRL -> App : session = getCurrentUserSession()
activate App
deactivate App
CTRL -> SESSION : answer= isLoggedInWithRole(Constants.ROLE_NURSE)
activate SESSION
deactivate SESSION
deactivate CTRL


UI -> CTRL : vac = getWorkingVaccinationCenter()
activate CTRL
CTRL -> PLAT : reg = getRegisterEmployee()
activate PLAT
deactivate PLAT
CTRL -> App : email = getCurrentUserSession()
activate App
App -> SESSION : getUserId()
activate SESSION
SESSION -> EMAIL : getEmail()
activate EMAIL
deactivate EMAIL
deactivate SESSION
deactivate App

CTRL -> RE : getWorkingVaccinationCenter(email)
activate RE
RE -> EMP : getWorkingVaccinationCenter(email)
activate EMP
deactivate EMP
deactivate RE
deactivate CTRL
UI -> CTRL : lsns = getListUsersInWaitingRoom(vac)
activate CTRL
CTRL -> VAC : getWaitingRoomSNSUsers()
activate VAC
deactivate VAC
deactivate RE
deactivate CTRL
UI - -> NRS : show list of SNS users in the waiting room and requests a confirmation
deactivate UI
NRS -> UI:  confirms the data
activate UI
UI - -> NRS : informs operation success
deactivate UI

@enduml

PlantUML version 1.2022.4(Sat Apr 09 14:29:17 BST 2022)
(GPL source distribution)
Java Runtime: OpenJDK Runtime Environment
JVM: OpenJDK 64-Bit Server VM
Default Encoding: Cp1252
Language: pt
Country: PT
--></g></svg>