<?xml version="1.0" encoding="UTF-8" standalone="no"?><svg xmlns="http://www.w3.org/2000/svg" xmlns:xlink="http://www.w3.org/1999/xlink" contentStyleType="text/css" height="2142px" preserveAspectRatio="none" style="width:646px;height:2142px;background:#FFFFFF;" version="1.1" viewBox="0 0 646 2142" width="646px" zoomAndPan="magnify"><defs/><g><!--MD5=[573c365837752a8a4a55568ee206132a]
class WaitingRoomUI--><g id="elem_WaitingRoomUI"><rect codeLine="7" fill="#F1F1F1" height="52.6406" id="WaitingRoomUI" rx="2.5" ry="2.5" style="stroke:#181818;stroke-width:0.5;" width="160" x="218.5" y="7"/><ellipse cx="233.5" cy="25.3203" fill="#ADD1B2" rx="11" ry="11" style="stroke:#181818;stroke-width:1.0;"/><path d="M235.5,21.8203 Q235.7031,21.3203 235.9375,21.0703 Q236.1719,20.8203 236.4375,20.8203 Q236.9063,20.8203 237.2031,21.1016 Q237.5,21.3828 237.5,22.0391 L237.5,23.6016 Q237.5,24.2578 237.2188,24.5391 Q236.9375,24.8203 236.5,24.8203 Q236.1094,24.8203 235.8594,24.6484 Q235.6094,24.4766 235.5,24.0234 Q235.4531,23.7109 235.2813,23.5391 Q234.9688,23.2109 234.4063,23.0234 Q233.8438,22.8203 233.2813,22.8203 Q232.5781,22.8203 231.9844,23.1016 Q231.4063,23.3828 230.9531,24.0078 Q230.5,24.6328 230.5,25.4922 L230.5,26.4141 Q230.5,27.4453 231.3438,28.1328 Q232.1875,28.8203 233.6875,28.8203 Q234.5781,28.8203 235.2031,28.6172 Q235.5625,28.5078 235.9688,28.1484 Q236.2344,27.9453 236.375,27.8828 Q236.5156,27.8203 236.6875,27.8203 Q237.0156,27.8203 237.25,28.0859 Q237.5,28.3359 237.5,28.6953 Q237.5,29.0391 237.1563,29.4453 Q236.6563,30.0391 235.8594,30.3672 Q234.8125,30.8203 233.5313,30.8203 Q232.0313,30.8203 230.8281,30.2266 Q229.8594,29.7578 229.1719,28.7422 Q228.5,27.7266 228.5,26.5234 L228.5,25.4297 Q228.5,24.1797 229.0938,23.0859 Q229.7031,21.9922 230.75,21.4141 Q231.8125,20.8203 233,20.8203 Q233.7188,20.8203 234.3438,21.0703 Q234.9688,21.3203 235.5,21.8203 Z " fill="#000000"/><text fill="#000000" font-family="sans-serif" font-size="18" lengthAdjust="spacing" textLength="124" x="249.5" y="32.6855">WaitingRoomUI</text><line style="stroke:#181818;stroke-width:0.5;" x1="219.5" x2="377.5" y1="43.6406" y2="43.6406"/><line style="stroke:#181818;stroke-width:0.5;" x1="219.5" x2="377.5" y1="51.6406" y2="51.6406"/></g><!--MD5=[8dbe935b50738be731cb9db88d966ed4]
class WaitingRoomController--><g id="elem_WaitingRoomController"><rect codeLine="8" fill="#F1F1F1" height="185.8438" id="WaitingRoomController" rx="2.5" ry="2.5" style="stroke:#181818;stroke-width:0.5;" width="276" x="160.5" y="161"/><ellipse cx="200.25" cy="179.3203" fill="#ADD1B2" rx="11" ry="11" style="stroke:#181818;stroke-width:1.0;"/><path d="M202.25,175.8203 Q202.4531,175.3203 202.6875,175.0703 Q202.9219,174.8203 203.1875,174.8203 Q203.6563,174.8203 203.9531,175.1016 Q204.25,175.3828 204.25,176.0391 L204.25,177.6016 Q204.25,178.2578 203.9688,178.5391 Q203.6875,178.8203 203.25,178.8203 Q202.8594,178.8203 202.6094,178.6484 Q202.3594,178.4766 202.25,178.0234 Q202.2031,177.7109 202.0313,177.5391 Q201.7188,177.2109 201.1563,177.0234 Q200.5938,176.8203 200.0313,176.8203 Q199.3281,176.8203 198.7344,177.1016 Q198.1563,177.3828 197.7031,178.0078 Q197.25,178.6328 197.25,179.4922 L197.25,180.4141 Q197.25,181.4453 198.0938,182.1328 Q198.9375,182.8203 200.4375,182.8203 Q201.3281,182.8203 201.9531,182.6172 Q202.3125,182.5078 202.7188,182.1484 Q202.9844,181.9453 203.125,181.8828 Q203.2656,181.8203 203.4375,181.8203 Q203.7656,181.8203 204,182.0859 Q204.25,182.3359 204.25,182.6953 Q204.25,183.0391 203.9063,183.4453 Q203.4063,184.0391 202.6094,184.3672 Q201.5625,184.8203 200.2813,184.8203 Q198.7813,184.8203 197.5781,184.2266 Q196.6094,183.7578 195.9219,182.7422 Q195.25,181.7266 195.25,180.5234 L195.25,179.4297 Q195.25,178.1797 195.8438,177.0859 Q196.4531,175.9922 197.5,175.4141 Q198.5625,174.8203 199.75,174.8203 Q200.4688,174.8203 201.0938,175.0703 Q201.7188,175.3203 202.25,175.8203 Z " fill="#000000"/><text fill="#000000" font-family="sans-serif" font-size="18" lengthAdjust="spacing" textLength="185" x="221.75" y="186.6855">WaitingRoomController</text><line style="stroke:#181818;stroke-width:0.5;" x1="161.5" x2="435.5" y1="197.6406" y2="197.6406"/><text fill="#000000" font-family="sans-serif" font-size="18" lengthAdjust="spacing" textLength="107" x="168.5" y="222.3262">-App m_oApp</text><text fill="#000000" font-family="sans-serif" font-size="18" lengthAdjust="spacing" textLength="177" x="168.5" y="248.9668">-Platform m_oPlatform</text><line style="stroke:#181818;stroke-width:0.5;" x1="161.5" x2="435.5" y1="258.9219" y2="258.9219"/><text fill="#000000" font-family="sans-serif" font-size="18" lengthAdjust="spacing" textLength="114" x="168.5" y="283.6074">+checkLogin()</text><text fill="#000000" font-family="sans-serif" font-size="18" lengthAdjust="spacing" textLength="260" x="168.5" y="310.248">+getWorkingVaccinationCenter()</text><text fill="#000000" font-family="sans-serif" font-size="18" lengthAdjust="spacing" textLength="244" x="168.5" y="336.8887">+getListUsersInWaitingRoom()</text></g><!--MD5=[02e4b9b7573f1156f41e60aa5b4e25a4]
class Company--><g id="elem_Company"><rect codeLine="15" fill="#F1F1F1" height="132.5625" id="Company" rx="2.5" ry="2.5" style="stroke:#181818;stroke-width:0.5;" width="160" x="218.5" y="461"/><ellipse cx="255.1" cy="479.3203" fill="#ADD1B2" rx="11" ry="11" style="stroke:#181818;stroke-width:1.0;"/><path d="M257.1,475.8203 Q257.3031,475.3203 257.5375,475.0703 Q257.7719,474.8203 258.0375,474.8203 Q258.5063,474.8203 258.8031,475.1016 Q259.1,475.3828 259.1,476.0391 L259.1,477.6016 Q259.1,478.2578 258.8188,478.5391 Q258.5375,478.8203 258.1,478.8203 Q257.7094,478.8203 257.4594,478.6484 Q257.2094,478.4766 257.1,478.0234 Q257.0531,477.7109 256.8813,477.5391 Q256.5688,477.2109 256.0063,477.0234 Q255.4438,476.8203 254.8813,476.8203 Q254.1781,476.8203 253.5844,477.1016 Q253.0063,477.3828 252.5531,478.0078 Q252.1,478.6328 252.1,479.4922 L252.1,480.4141 Q252.1,481.4453 252.9438,482.1328 Q253.7875,482.8203 255.2875,482.8203 Q256.1781,482.8203 256.8031,482.6172 Q257.1625,482.5078 257.5688,482.1484 Q257.8344,481.9453 257.975,481.8828 Q258.1156,481.8203 258.2875,481.8203 Q258.6156,481.8203 258.85,482.0859 Q259.1,482.3359 259.1,482.6953 Q259.1,483.0391 258.7563,483.4453 Q258.2563,484.0391 257.4594,484.3672 Q256.4125,484.8203 255.1313,484.8203 Q253.6313,484.8203 252.4281,484.2266 Q251.4594,483.7578 250.7719,482.7422 Q250.1,481.7266 250.1,480.5234 L250.1,479.4297 Q250.1,478.1797 250.6938,477.0859 Q251.3031,475.9922 252.35,475.4141 Q253.4125,474.8203 254.6,474.8203 Q255.3188,474.8203 255.9438,475.0703 Q256.5688,475.3203 257.1,475.8203 Z " fill="#000000"/><text fill="#000000" font-family="sans-serif" font-size="18" lengthAdjust="spacing" textLength="76" x="275.9" y="486.6855">Company</text><line style="stroke:#181818;stroke-width:0.5;" x1="219.5" x2="377.5" y1="497.6406" y2="497.6406"/><text fill="#000000" font-family="sans-serif" font-size="18" lengthAdjust="spacing" textLength="98" x="226.5" y="522.3262">-designation</text><line style="stroke:#181818;stroke-width:0.5;" x1="219.5" x2="377.5" y1="532.2813" y2="532.2813"/><text fill="#000000" font-family="sans-serif" font-size="18" lengthAdjust="spacing" textLength="114" x="226.5" y="556.9668">+getPlatform()</text><text fill="#000000" font-family="sans-serif" font-size="18" lengthAdjust="spacing" textLength="144" x="226.5" y="583.6074">+getAuthFacade()</text></g><!--MD5=[99b8db98afdc2c8404e39242ef4c1e65]
class Platform--><g id="elem_Platform"><rect codeLine="21" fill="#F1F1F1" height="132.5625" id="Platform" rx="2.5" ry="2.5" style="stroke:#181818;stroke-width:0.5;" width="353" x="7" y="729"/><ellipse cx="144.25" cy="747.3203" fill="#ADD1B2" rx="11" ry="11" style="stroke:#181818;stroke-width:1.0;"/><path d="M146.25,743.8203 Q146.4531,743.3203 146.6875,743.0703 Q146.9219,742.8203 147.1875,742.8203 Q147.6563,742.8203 147.9531,743.1016 Q148.25,743.3828 148.25,744.0391 L148.25,745.6016 Q148.25,746.2578 147.9688,746.5391 Q147.6875,746.8203 147.25,746.8203 Q146.8594,746.8203 146.6094,746.6484 Q146.3594,746.4766 146.25,746.0234 Q146.2031,745.7109 146.0313,745.5391 Q145.7188,745.2109 145.1563,745.0234 Q144.5938,744.8203 144.0313,744.8203 Q143.3281,744.8203 142.7344,745.1016 Q142.1563,745.3828 141.7031,746.0078 Q141.25,746.6328 141.25,747.4922 L141.25,748.4141 Q141.25,749.4453 142.0938,750.1328 Q142.9375,750.8203 144.4375,750.8203 Q145.3281,750.8203 145.9531,750.6172 Q146.3125,750.5078 146.7188,750.1484 Q146.9844,749.9453 147.125,749.8828 Q147.2656,749.8203 147.4375,749.8203 Q147.7656,749.8203 148,750.0859 Q148.25,750.3359 148.25,750.6953 Q148.25,751.0391 147.9063,751.4453 Q147.4063,752.0391 146.6094,752.3672 Q145.5625,752.8203 144.2813,752.8203 Q142.7813,752.8203 141.5781,752.2266 Q140.6094,751.7578 139.9219,750.7422 Q139.25,749.7266 139.25,748.5234 L139.25,747.4297 Q139.25,746.1797 139.8438,745.0859 Q140.4531,743.9922 141.5,743.4141 Q142.5625,742.8203 143.75,742.8203 Q144.4688,742.8203 145.0938,743.0703 Q145.7188,743.3203 146.25,743.8203 Z " fill="#000000"/><text fill="#000000" font-family="sans-serif" font-size="18" lengthAdjust="spacing" textLength="66" x="166.75" y="754.6855">Platform</text><line style="stroke:#181818;stroke-width:0.5;" x1="8" x2="359" y1="765.6406" y2="765.6406"/><text fill="#000000" font-family="sans-serif" font-size="18" lengthAdjust="spacing" textLength="93" x="15" y="790.3262">-description</text><text fill="#000000" font-family="sans-serif" font-size="18" lengthAdjust="spacing" textLength="337" x="15" y="816.9668">-RegisterEmployee m_oRegisterEmployee</text><line style="stroke:#181818;stroke-width:0.5;" x1="8" x2="359" y1="826.9219" y2="826.9219"/><text fill="#000000" font-family="sans-serif" font-size="18" lengthAdjust="spacing" textLength="194" x="15" y="851.6074">+getRegisterEmployee()</text></g><!--MD5=[335f4d9be48430461c68bf6d6fdba145]
class App--><g id="elem_App"><rect codeLine="28" fill="#F1F1F1" height="159.2031" id="App" rx="2.5" ry="2.5" style="stroke:#181818;stroke-width:0.5;" width="226" x="413.5" y="448"/><ellipse cx="504.75" cy="466.3203" fill="#ADD1B2" rx="11" ry="11" style="stroke:#181818;stroke-width:1.0;"/><path d="M506.75,462.8203 Q506.9531,462.3203 507.1875,462.0703 Q507.4219,461.8203 507.6875,461.8203 Q508.1563,461.8203 508.4531,462.1016 Q508.75,462.3828 508.75,463.0391 L508.75,464.6016 Q508.75,465.2578 508.4688,465.5391 Q508.1875,465.8203 507.75,465.8203 Q507.3594,465.8203 507.1094,465.6484 Q506.8594,465.4766 506.75,465.0234 Q506.7031,464.7109 506.5313,464.5391 Q506.2188,464.2109 505.6563,464.0234 Q505.0938,463.8203 504.5313,463.8203 Q503.8281,463.8203 503.2344,464.1016 Q502.6563,464.3828 502.2031,465.0078 Q501.75,465.6328 501.75,466.4922 L501.75,467.4141 Q501.75,468.4453 502.5938,469.1328 Q503.4375,469.8203 504.9375,469.8203 Q505.8281,469.8203 506.4531,469.6172 Q506.8125,469.5078 507.2188,469.1484 Q507.4844,468.9453 507.625,468.8828 Q507.7656,468.8203 507.9375,468.8203 Q508.2656,468.8203 508.5,469.0859 Q508.75,469.3359 508.75,469.6953 Q508.75,470.0391 508.4063,470.4453 Q507.9063,471.0391 507.1094,471.3672 Q506.0625,471.8203 504.7813,471.8203 Q503.2813,471.8203 502.0781,471.2266 Q501.1094,470.7578 500.4219,469.7422 Q499.75,468.7266 499.75,467.5234 L499.75,466.4297 Q499.75,465.1797 500.3438,464.0859 Q500.9531,462.9922 502,462.4141 Q503.0625,461.8203 504.25,461.8203 Q504.9688,461.8203 505.5938,462.0703 Q506.2188,462.3203 506.75,462.8203 Z " fill="#000000"/><text fill="#000000" font-family="sans-serif" font-size="18" lengthAdjust="spacing" textLength="31" x="527.25" y="473.6855">App</text><line style="stroke:#181818;stroke-width:0.5;" x1="414.5" x2="638.5" y1="484.6406" y2="484.6406"/><line style="stroke:#181818;stroke-width:0.5;" x1="414.5" x2="638.5" y1="492.6406" y2="492.6406"/><text fill="#000000" font-family="sans-serif" font-size="18" lengthAdjust="spacing" textLength="124" x="421.5" y="517.3262">+getCompany()</text><text fill="#000000" font-family="sans-serif" font-size="18" lengthAdjust="spacing" textLength="210" x="421.5" y="543.9668">+getCurrentUserSession()</text><text fill="#000000" font-family="sans-serif" font-size="18" lengthAdjust="spacing" text-decoration="underline" textLength="162" x="421.5" y="570.6074">+static getInstance()</text><text fill="#000000" font-family="sans-serif" font-size="18" lengthAdjust="spacing" textLength="93" x="421.5" y="597.248">-bootstrap()</text></g><!--MD5=[aaa7e27c4ec43917c82a021675d2c87a]
class WaitingRoom--><g id="elem_WaitingRoom"><rect codeLine="37" fill="#F1F1F1" height="105.9219" id="WaitingRoom" rx="2.5" ry="2.5" style="stroke:#181818;stroke-width:0.5;" width="274" x="46.5" y="1668"/><ellipse cx="123.75" cy="1686.3203" fill="#ADD1B2" rx="11" ry="11" style="stroke:#181818;stroke-width:1.0;"/><path d="M125.75,1682.8203 Q125.9531,1682.3203 126.1875,1682.0703 Q126.4219,1681.8203 126.6875,1681.8203 Q127.1563,1681.8203 127.4531,1682.1016 Q127.75,1682.3828 127.75,1683.0391 L127.75,1684.6016 Q127.75,1685.2578 127.4688,1685.5391 Q127.1875,1685.8203 126.75,1685.8203 Q126.3594,1685.8203 126.1094,1685.6484 Q125.8594,1685.4766 125.75,1685.0234 Q125.7031,1684.7109 125.5313,1684.5391 Q125.2188,1684.2109 124.6563,1684.0234 Q124.0938,1683.8203 123.5313,1683.8203 Q122.8281,1683.8203 122.2344,1684.1016 Q121.6563,1684.3828 121.2031,1685.0078 Q120.75,1685.6328 120.75,1686.4922 L120.75,1687.4141 Q120.75,1688.4453 121.5938,1689.1328 Q122.4375,1689.8203 123.9375,1689.8203 Q124.8281,1689.8203 125.4531,1689.6172 Q125.8125,1689.5078 126.2188,1689.1484 Q126.4844,1688.9453 126.625,1688.8828 Q126.7656,1688.8203 126.9375,1688.8203 Q127.2656,1688.8203 127.5,1689.0859 Q127.75,1689.3359 127.75,1689.6953 Q127.75,1690.0391 127.4063,1690.4453 Q126.9063,1691.0391 126.1094,1691.3672 Q125.0625,1691.8203 123.7813,1691.8203 Q122.2813,1691.8203 121.0781,1691.2266 Q120.1094,1690.7578 119.4219,1689.7422 Q118.75,1688.7266 118.75,1687.5234 L118.75,1686.4297 Q118.75,1685.1797 119.3438,1684.0859 Q119.9531,1682.9922 121,1682.4141 Q122.0625,1681.8203 123.25,1681.8203 Q123.9688,1681.8203 124.5938,1682.0703 Q125.2188,1682.3203 125.75,1682.8203 Z " fill="#000000"/><text fill="#000000" font-family="sans-serif" font-size="18" lengthAdjust="spacing" textLength="107" x="146.25" y="1693.6855">WaitingRoom</text><line style="stroke:#181818;stroke-width:0.5;" x1="47.5" x2="319.5" y1="1704.6406" y2="1704.6406"/><text fill="#000000" font-family="sans-serif" font-size="18" lengthAdjust="spacing" textLength="258" x="54.5" y="1729.3262">-TreeMap&lt;SNSUser,Date&gt; map</text><line style="stroke:#181818;stroke-width:0.5;" x1="47.5" x2="319.5" y1="1739.2813" y2="1739.2813"/><text fill="#000000" font-family="sans-serif" font-size="18" lengthAdjust="spacing" textLength="204" x="54.5" y="1763.9668">+getUsersByArrivalDate()</text></g><!--MD5=[72be06cc7ae02ccc98efe28a50e62246]
class SNSUser--><g id="elem_SNSUser"><rect codeLine="43" fill="#F1F1F1" height="239.125" id="SNSUser" rx="2.5" ry="2.5" style="stroke:#181818;stroke-width:0.5;" width="174" x="96.5" y="1896"/><ellipse cx="139.85" cy="1914.3203" fill="#ADD1B2" rx="11" ry="11" style="stroke:#181818;stroke-width:1.0;"/><path d="M141.85,1910.8203 Q142.0531,1910.3203 142.2875,1910.0703 Q142.5219,1909.8203 142.7875,1909.8203 Q143.2563,1909.8203 143.5531,1910.1016 Q143.85,1910.3828 143.85,1911.0391 L143.85,1912.6016 Q143.85,1913.2578 143.5688,1913.5391 Q143.2875,1913.8203 142.85,1913.8203 Q142.4594,1913.8203 142.2094,1913.6484 Q141.9594,1913.4766 141.85,1913.0234 Q141.8031,1912.7109 141.6313,1912.5391 Q141.3188,1912.2109 140.7563,1912.0234 Q140.1938,1911.8203 139.6313,1911.8203 Q138.9281,1911.8203 138.3344,1912.1016 Q137.7563,1912.3828 137.3031,1913.0078 Q136.85,1913.6328 136.85,1914.4922 L136.85,1915.4141 Q136.85,1916.4453 137.6938,1917.1328 Q138.5375,1917.8203 140.0375,1917.8203 Q140.9281,1917.8203 141.5531,1917.6172 Q141.9125,1917.5078 142.3188,1917.1484 Q142.5844,1916.9453 142.725,1916.8828 Q142.8656,1916.8203 143.0375,1916.8203 Q143.3656,1916.8203 143.6,1917.0859 Q143.85,1917.3359 143.85,1917.6953 Q143.85,1918.0391 143.5063,1918.4453 Q143.0063,1919.0391 142.2094,1919.3672 Q141.1625,1919.8203 139.8813,1919.8203 Q138.3813,1919.8203 137.1781,1919.2266 Q136.2094,1918.7578 135.5219,1917.7422 Q134.85,1916.7266 134.85,1915.5234 L134.85,1914.4297 Q134.85,1913.1797 135.4438,1912.0859 Q136.0531,1910.9922 137.1,1910.4141 Q138.1625,1909.8203 139.35,1909.8203 Q140.0688,1909.8203 140.6938,1910.0703 Q141.3188,1910.3203 141.85,1910.8203 Z " fill="#000000"/><text fill="#000000" font-family="sans-serif" font-size="18" lengthAdjust="spacing" textLength="75" x="162.15" y="1921.6855">SNSUser</text><line style="stroke:#181818;stroke-width:0.5;" x1="97.5" x2="269.5" y1="1932.6406" y2="1932.6406"/><text fill="#000000" font-family="sans-serif" font-size="18" lengthAdjust="spacing" textLength="50" x="104.5" y="1957.3262">-name</text><text fill="#000000" font-family="sans-serif" font-size="18" lengthAdjust="spacing" textLength="70" x="104.5" y="1983.9668">-address</text><text fill="#000000" font-family="sans-serif" font-size="18" lengthAdjust="spacing" textLength="62" x="104.5" y="2010.6074">-gender</text><text fill="#000000" font-family="sans-serif" font-size="18" lengthAdjust="spacing" textLength="48" x="104.5" y="2037.248">-email</text><text fill="#000000" font-family="sans-serif" font-size="18" lengthAdjust="spacing" textLength="79" x="104.5" y="2063.8887">-birthDate</text><text fill="#000000" font-family="sans-serif" font-size="18" lengthAdjust="spacing" textLength="135" x="104.5" y="2090.5293">-snsUserNumber</text><text fill="#000000" font-family="sans-serif" font-size="18" lengthAdjust="spacing" textLength="158" x="104.5" y="2117.1699">-citizenCardNumber</text><line style="stroke:#181818;stroke-width:0.5;" x1="97.5" x2="269.5" y1="2127.125" y2="2127.125"/></g><!--MD5=[1607d1a70f046fb6f069cf8c3b040e6d]
class RegisterEmployee--><g id="elem_RegisterEmployee"><rect codeLine="54" fill="#F1F1F1" height="105.9219" id="RegisterEmployee" rx="2.5" ry="2.5" style="stroke:#181818;stroke-width:0.5;" width="318" x="24.5" y="984"/><ellipse cx="104.25" cy="1002.3203" fill="#ADD1B2" rx="11" ry="11" style="stroke:#181818;stroke-width:1.0;"/><path d="M106.25,998.8203 Q106.4531,998.3203 106.6875,998.0703 Q106.9219,997.8203 107.1875,997.8203 Q107.6563,997.8203 107.9531,998.1016 Q108.25,998.3828 108.25,999.0391 L108.25,1000.6016 Q108.25,1001.2578 107.9688,1001.5391 Q107.6875,1001.8203 107.25,1001.8203 Q106.8594,1001.8203 106.6094,1001.6484 Q106.3594,1001.4766 106.25,1001.0234 Q106.2031,1000.7109 106.0313,1000.5391 Q105.7188,1000.2109 105.1563,1000.0234 Q104.5938,999.8203 104.0313,999.8203 Q103.3281,999.8203 102.7344,1000.1016 Q102.1563,1000.3828 101.7031,1001.0078 Q101.25,1001.6328 101.25,1002.4922 L101.25,1003.4141 Q101.25,1004.4453 102.0938,1005.1328 Q102.9375,1005.8203 104.4375,1005.8203 Q105.3281,1005.8203 105.9531,1005.6172 Q106.3125,1005.5078 106.7188,1005.1484 Q106.9844,1004.9453 107.125,1004.8828 Q107.2656,1004.8203 107.4375,1004.8203 Q107.7656,1004.8203 108,1005.0859 Q108.25,1005.3359 108.25,1005.6953 Q108.25,1006.0391 107.9063,1006.4453 Q107.4063,1007.0391 106.6094,1007.3672 Q105.5625,1007.8203 104.2813,1007.8203 Q102.7813,1007.8203 101.5781,1007.2266 Q100.6094,1006.7578 99.9219,1005.7422 Q99.25,1004.7266 99.25,1003.5234 L99.25,1002.4297 Q99.25,1001.1797 99.8438,1000.0859 Q100.4531,998.9922 101.5,998.4141 Q102.5625,997.8203 103.75,997.8203 Q104.4688,997.8203 105.0938,998.0703 Q105.7188,998.3203 106.25,998.8203 Z " fill="#000000"/><text fill="#000000" font-family="sans-serif" font-size="18" lengthAdjust="spacing" textLength="146" x="126.75" y="1009.6855">RegisterEmployee</text><line style="stroke:#181818;stroke-width:0.5;" x1="25.5" x2="341.5" y1="1020.6406" y2="1020.6406"/><text fill="#000000" font-family="sans-serif" font-size="18" lengthAdjust="spacing" textLength="241" x="32.5" y="1045.3262">-List&lt;Employee&gt; listEmployee</text><line style="stroke:#181818;stroke-width:0.5;" x1="25.5" x2="341.5" y1="1055.2813" y2="1055.2813"/><text fill="#000000" font-family="sans-serif" font-size="18" lengthAdjust="spacing" textLength="302" x="32.5" y="1079.9668">+getWorkingVaccinationCenter(email)</text></g><!--MD5=[7421f545a0d8420c5bec41e74b387d9c]
class Employee--><g id="elem_Employee"><rect codeLine="59" fill="#F1F1F1" height="105.9219" id="Employee" rx="2.5" ry="2.5" style="stroke:#181818;stroke-width:0.5;" width="317" x="25" y="1212"/><ellipse cx="137.75" cy="1230.3203" fill="#ADD1B2" rx="11" ry="11" style="stroke:#181818;stroke-width:1.0;"/><path d="M139.75,1226.8203 Q139.9531,1226.3203 140.1875,1226.0703 Q140.4219,1225.8203 140.6875,1225.8203 Q141.1563,1225.8203 141.4531,1226.1016 Q141.75,1226.3828 141.75,1227.0391 L141.75,1228.6016 Q141.75,1229.2578 141.4688,1229.5391 Q141.1875,1229.8203 140.75,1229.8203 Q140.3594,1229.8203 140.1094,1229.6484 Q139.8594,1229.4766 139.75,1229.0234 Q139.7031,1228.7109 139.5313,1228.5391 Q139.2188,1228.2109 138.6563,1228.0234 Q138.0938,1227.8203 137.5313,1227.8203 Q136.8281,1227.8203 136.2344,1228.1016 Q135.6563,1228.3828 135.2031,1229.0078 Q134.75,1229.6328 134.75,1230.4922 L134.75,1231.4141 Q134.75,1232.4453 135.5938,1233.1328 Q136.4375,1233.8203 137.9375,1233.8203 Q138.8281,1233.8203 139.4531,1233.6172 Q139.8125,1233.5078 140.2188,1233.1484 Q140.4844,1232.9453 140.625,1232.8828 Q140.7656,1232.8203 140.9375,1232.8203 Q141.2656,1232.8203 141.5,1233.0859 Q141.75,1233.3359 141.75,1233.6953 Q141.75,1234.0391 141.4063,1234.4453 Q140.9063,1235.0391 140.1094,1235.3672 Q139.0625,1235.8203 137.7813,1235.8203 Q136.2813,1235.8203 135.0781,1235.2266 Q134.1094,1234.7578 133.4219,1233.7422 Q132.75,1232.7266 132.75,1231.5234 L132.75,1230.4297 Q132.75,1229.1797 133.3438,1228.0859 Q133.9531,1226.9922 135,1226.4141 Q136.0625,1225.8203 137.25,1225.8203 Q137.9688,1225.8203 138.5938,1226.0703 Q139.2188,1226.3203 139.75,1226.8203 Z " fill="#000000"/><text fill="#000000" font-family="sans-serif" font-size="18" lengthAdjust="spacing" textLength="79" x="160.25" y="1237.6855">Employee</text><line style="stroke:#181818;stroke-width:0.5;" x1="26" x2="341" y1="1248.6406" y2="1248.6406"/><text fill="#000000" font-family="sans-serif" font-size="18" lengthAdjust="spacing" textLength="301" x="33" y="1273.3262">-VaccinationCenter vaccinationCenter</text><line style="stroke:#181818;stroke-width:0.5;" x1="26" x2="341" y1="1283.2813" y2="1283.2813"/><text fill="#000000" font-family="sans-serif" font-size="18" lengthAdjust="spacing" textLength="260" x="33" y="1307.9668">+getWorkingVaccinationCenter()</text></g><!--MD5=[de60e6d4f424ae4d0522096f76a59010]
class VaccinationCenter--><g id="elem_VaccinationCenter"><rect codeLine="65" fill="#F1F1F1" height="105.9219" id="VaccinationCenter" rx="2.5" ry="2.5" style="stroke:#181818;stroke-width:0.5;" width="255" x="56" y="1440"/><ellipse cx="104.25" cy="1458.3203" fill="#ADD1B2" rx="11" ry="11" style="stroke:#181818;stroke-width:1.0;"/><path d="M106.25,1454.8203 Q106.4531,1454.3203 106.6875,1454.0703 Q106.9219,1453.8203 107.1875,1453.8203 Q107.6563,1453.8203 107.9531,1454.1016 Q108.25,1454.3828 108.25,1455.0391 L108.25,1456.6016 Q108.25,1457.2578 107.9688,1457.5391 Q107.6875,1457.8203 107.25,1457.8203 Q106.8594,1457.8203 106.6094,1457.6484 Q106.3594,1457.4766 106.25,1457.0234 Q106.2031,1456.7109 106.0313,1456.5391 Q105.7188,1456.2109 105.1563,1456.0234 Q104.5938,1455.8203 104.0313,1455.8203 Q103.3281,1455.8203 102.7344,1456.1016 Q102.1563,1456.3828 101.7031,1457.0078 Q101.25,1457.6328 101.25,1458.4922 L101.25,1459.4141 Q101.25,1460.4453 102.0938,1461.1328 Q102.9375,1461.8203 104.4375,1461.8203 Q105.3281,1461.8203 105.9531,1461.6172 Q106.3125,1461.5078 106.7188,1461.1484 Q106.9844,1460.9453 107.125,1460.8828 Q107.2656,1460.8203 107.4375,1460.8203 Q107.7656,1460.8203 108,1461.0859 Q108.25,1461.3359 108.25,1461.6953 Q108.25,1462.0391 107.9063,1462.4453 Q107.4063,1463.0391 106.6094,1463.3672 Q105.5625,1463.8203 104.2813,1463.8203 Q102.7813,1463.8203 101.5781,1463.2266 Q100.6094,1462.7578 99.9219,1461.7422 Q99.25,1460.7266 99.25,1459.5234 L99.25,1458.4297 Q99.25,1457.1797 99.8438,1456.0859 Q100.4531,1454.9922 101.5,1454.4141 Q102.5625,1453.8203 103.75,1453.8203 Q104.4688,1453.8203 105.0938,1454.0703 Q105.7188,1454.3203 106.25,1454.8203 Z " fill="#000000"/><text fill="#000000" font-family="sans-serif" font-size="18" lengthAdjust="spacing" textLength="146" x="126.75" y="1465.6855">VaccinationCenter</text><line style="stroke:#181818;stroke-width:0.5;" x1="57" x2="310" y1="1476.6406" y2="1476.6406"/><text fill="#000000" font-family="sans-serif" font-size="18" lengthAdjust="spacing" textLength="221" x="64" y="1501.3262">-WaitingRoom waitingRoom</text><line style="stroke:#181818;stroke-width:0.5;" x1="57" x2="310" y1="1511.2813" y2="1511.2813"/><text fill="#000000" font-family="sans-serif" font-size="18" lengthAdjust="spacing" textLength="239" x="64" y="1535.9668">+getWaitingRoomSNSUsers()</text></g><!--MD5=[8ae808d068a8995f06b9b3ec51357f0b]
class AuthFacade--><g id="elem_AuthFacade"><rect codeLine="70" fill="#F1F1F1" height="79.2813" id="AuthFacade" rx="2.5" ry="2.5" style="stroke:#181818;stroke-width:0.5;" width="226" x="404.5" y="756"/><ellipse cx="463.25" cy="774.3203" fill="#ADD1B2" rx="11" ry="11" style="stroke:#181818;stroke-width:1.0;"/><path d="M465.25,770.8203 Q465.4531,770.3203 465.6875,770.0703 Q465.9219,769.8203 466.1875,769.8203 Q466.6563,769.8203 466.9531,770.1016 Q467.25,770.3828 467.25,771.0391 L467.25,772.6016 Q467.25,773.2578 466.9688,773.5391 Q466.6875,773.8203 466.25,773.8203 Q465.8594,773.8203 465.6094,773.6484 Q465.3594,773.4766 465.25,773.0234 Q465.2031,772.7109 465.0313,772.5391 Q464.7188,772.2109 464.1563,772.0234 Q463.5938,771.8203 463.0313,771.8203 Q462.3281,771.8203 461.7344,772.1016 Q461.1563,772.3828 460.7031,773.0078 Q460.25,773.6328 460.25,774.4922 L460.25,775.4141 Q460.25,776.4453 461.0938,777.1328 Q461.9375,777.8203 463.4375,777.8203 Q464.3281,777.8203 464.9531,777.6172 Q465.3125,777.5078 465.7188,777.1484 Q465.9844,776.9453 466.125,776.8828 Q466.2656,776.8203 466.4375,776.8203 Q466.7656,776.8203 467,777.0859 Q467.25,777.3359 467.25,777.6953 Q467.25,778.0391 466.9063,778.4453 Q466.4063,779.0391 465.6094,779.3672 Q464.5625,779.8203 463.2813,779.8203 Q461.7813,779.8203 460.5781,779.2266 Q459.6094,778.7578 458.9219,777.7422 Q458.25,776.7266 458.25,775.5234 L458.25,774.4297 Q458.25,773.1797 458.8438,772.0859 Q459.4531,770.9922 460.5,770.4141 Q461.5625,769.8203 462.75,769.8203 Q463.4688,769.8203 464.0938,770.0703 Q464.7188,770.3203 465.25,770.8203 Z " fill="#000000"/><text fill="#000000" font-family="sans-serif" font-size="18" lengthAdjust="spacing" textLength="96" x="485.75" y="781.6855">AuthFacade</text><line style="stroke:#181818;stroke-width:0.5;" x1="405.5" x2="629.5" y1="792.6406" y2="792.6406"/><line style="stroke:#181818;stroke-width:0.5;" x1="405.5" x2="629.5" y1="800.6406" y2="800.6406"/><text fill="#000000" font-family="sans-serif" font-size="18" lengthAdjust="spacing" textLength="210" x="412.5" y="825.3262">+getCurrentUserSession()</text></g><!--MD5=[8fb4cf35dccb63f417b3b4d6bc63e6fb]
link WaitingRoomUI to WaitingRoomController--><g id="link_WaitingRoomUI_WaitingRoomController"><path codeLine="77" d="M298.5,60.42 C298.5,84.13 298.5,120.72 298.5,155.66 " fill="none" id="WaitingRoomUI-to-WaitingRoomController" style="stroke:#181818;stroke-width:1.0;stroke-dasharray:7.0,7.0;"/><polygon fill="#181818" points="298.5,160.8,302.5,151.8,298.5,155.8,294.5,151.8,298.5,160.8" style="stroke:#181818;stroke-width:1.0;"/></g><!--MD5=[00048e66bd1eb75c6fecd6b3aa644c51]
link WaitingRoomController to Company--><g id="link_WaitingRoomController_Company"><path codeLine="78" d="M298.5,347.3 C298.5,382.61 298.5,422.31 298.5,455.35 " fill="none" id="WaitingRoomController-to-Company" style="stroke:#181818;stroke-width:1.0;stroke-dasharray:7.0,7.0;"/><polygon fill="#181818" points="298.5,460.59,302.5,451.59,298.5,455.59,294.5,451.59,298.5,460.59" style="stroke:#181818;stroke-width:1.0;"/></g><!--MD5=[cb3a652dea1eca260db432150529f15b]
link WaitingRoomController to Platform--><g id="link_WaitingRoomController_Platform"><path codeLine="79" d="M241.84,347.05 C225.52,378.02 209.66,413.49 200.5,448 C175.83,540.95 175.32,652.74 178.43,723.72 " fill="none" id="WaitingRoomController-to-Platform" style="stroke:#181818;stroke-width:1.0;stroke-dasharray:7.0,7.0;"/><polygon fill="#181818" points="178.66,728.76,182.2448,719.5867,178.4317,723.7652,174.2532,719.9521,178.66,728.76" style="stroke:#181818;stroke-width:1.0;"/></g><!--MD5=[71da4be24892bfec694db06bf9e3c284]
link Company to Platform--><g id="link_Company_Platform"><path codeLine="80" d="M270.07,594.25 C253.07,633.58 231.47,683.55 214.1,723.73 " fill="none" id="Company-to-Platform" style="stroke:#181818;stroke-width:1.0;"/><polygon fill="#181818" points="212,728.58,219.2469,721.9105,213.9868,723.9917,211.9057,718.7316,212,728.58" style="stroke:#181818;stroke-width:1.0;"/><polygon fill="#000000" points="244.5161,672.7653,250.8027,665.6289,245.4073,663.2966,244.5161,672.7653" style="stroke:#000000;stroke-width:1.0;"/><text fill="#000000" font-family="sans-serif" font-size="13" lengthAdjust="spacing" textLength="21" x="257.5" y="673.4951">has</text><text fill="#000000" font-family="sans-serif" font-size="13" lengthAdjust="spacing" textLength="7" x="257.836" y="617.098">1</text><text fill="#000000" font-family="sans-serif" font-size="13" lengthAdjust="spacing" textLength="7" x="205.3719" y="716.1834">1</text></g><!--MD5=[9a80ca622aa33540c5ebfb66ac08c660]
link Platform to RegisterEmployee--><g id="link_Platform_RegisterEmployee"><path codeLine="81" d="M183.5,862.26 C183.5,898.69 183.5,943.55 183.5,978.56 " fill="none" id="Platform-to-RegisterEmployee" style="stroke:#181818;stroke-width:1.0;"/><polygon fill="#181818" points="183.5,983.65,187.5,974.65,183.5,978.65,179.5,974.65,183.5,983.65" style="stroke:#181818;stroke-width:1.0;"/><polygon fill="#000000" points="188.5,928.1758,191.4389,919.1307,185.5611,919.1307,188.5,928.1758" style="stroke:#000000;stroke-width:1.0;"/><text fill="#000000" font-family="sans-serif" font-size="13" lengthAdjust="spacing" textLength="21" x="199.5" y="928.4951">has</text><text fill="#000000" font-family="sans-serif" font-size="13" lengthAdjust="spacing" textLength="7" x="173.9758" y="885.1089">1</text><text fill="#000000" font-family="sans-serif" font-size="13" lengthAdjust="spacing" textLength="7" x="173.7953" y="971.0559">1</text></g><!--MD5=[eab00be0507a9170c24b1176aa61d4c9]
link RegisterEmployee to Employee--><g id="link_RegisterEmployee_Employee"><path codeLine="82" d="M183.5,1090.13 C183.5,1124.92 183.5,1170.68 183.5,1206.52 " fill="none" id="RegisterEmployee-to-Employee" style="stroke:#181818;stroke-width:1.0;"/><polygon fill="#181818" points="183.5,1211.74,187.5,1202.74,183.5,1206.74,179.5,1202.74,183.5,1211.74" style="stroke:#181818;stroke-width:1.0;"/><polygon fill="#000000" points="188.5,1156.1758,191.4389,1147.1307,185.5611,1147.1307,188.5,1156.1758" style="stroke:#000000;stroke-width:1.0;"/><text fill="#000000" font-family="sans-serif" font-size="13" lengthAdjust="spacing" textLength="37" x="199.5" y="1156.4951">knows</text><text fill="#000000" font-family="sans-serif" font-size="13" lengthAdjust="spacing" textLength="7" x="173.8297" y="1113.3453">1</text><text fill="#000000" font-family="sans-serif" font-size="13" lengthAdjust="spacing" textLength="5" x="175.9234" y="1199.1575">*</text></g><!--MD5=[de78e1efbcb885042a1719c3cec87a53]
link VaccinationCenter to WaitingRoom--><g id="link_VaccinationCenter_WaitingRoom"><path codeLine="83" d="M183.5,1546.13 C183.5,1580.92 183.5,1626.68 183.5,1662.52 " fill="none" id="VaccinationCenter-to-WaitingRoom" style="stroke:#181818;stroke-width:1.0;"/><polygon fill="#181818" points="183.5,1667.74,187.5,1658.74,183.5,1662.74,179.5,1658.74,183.5,1667.74" style="stroke:#181818;stroke-width:1.0;"/><polygon fill="#000000" points="188.5,1612.1758,191.4389,1603.1307,185.5611,1603.1307,188.5,1612.1758" style="stroke:#000000;stroke-width:1.0;"/><text fill="#000000" font-family="sans-serif" font-size="13" lengthAdjust="spacing" textLength="21" x="199.5" y="1612.4951">has</text><text fill="#000000" font-family="sans-serif" font-size="13" lengthAdjust="spacing" textLength="7" x="173.8297" y="1569.3453">1</text><text fill="#000000" font-family="sans-serif" font-size="13" lengthAdjust="spacing" textLength="7" x="173.7953" y="1655.1575">1</text></g><!--MD5=[1dfd2b8cef5257ed6efd914f274c3279]
link WaitingRoom to SNSUser--><g id="link_WaitingRoom_SNSUser"><path codeLine="84" d="M183.5,1774.29 C183.5,1806.69 183.5,1849.75 183.5,1890.46 " fill="none" id="WaitingRoom-to-SNSUser" style="stroke:#181818;stroke-width:1.0;"/><polygon fill="#181818" points="183.5,1895.93,187.5,1886.93,183.5,1890.93,179.5,1886.93,183.5,1895.93" style="stroke:#181818;stroke-width:1.0;"/><polygon fill="#000000" points="188.5,1840.1758,191.4389,1831.1307,185.5611,1831.1307,188.5,1840.1758" style="stroke:#000000;stroke-width:1.0;"/><text fill="#000000" font-family="sans-serif" font-size="13" lengthAdjust="spacing" textLength="21" x="199.5" y="1840.4951">has</text><text fill="#000000" font-family="sans-serif" font-size="13" lengthAdjust="spacing" textLength="7" x="173.8297" y="1797.5248">1</text><text fill="#000000" font-family="sans-serif" font-size="13" lengthAdjust="spacing" textLength="5" x="176.2117" y="1883.1318">*</text></g><!--MD5=[cbae9d9a4e381c6216117454f8cf2e83]
link WaitingRoomController to App--><g id="link_WaitingRoomController_App"><path codeLine="85" d="M376.01,347.3 C402.2,378.49 431.27,413.1 456.82,443.52 " fill="none" id="WaitingRoomController-to-App" style="stroke:#181818;stroke-width:1.0;stroke-dasharray:7.0,7.0;"/><polygon fill="#181818" points="460.23,447.59,457.5066,438.1252,457.015,443.7606,451.3796,443.2691,460.23,447.59" style="stroke:#181818;stroke-width:1.0;"/></g><!--MD5=[7454cd36f47ee2c1597ee5b79ae5e9ce]
link Employee to VaccinationCenter--><g id="link_Employee_VaccinationCenter"><path codeLine="86" d="M183.5,1318.13 C183.5,1354.63 183.5,1403.21 183.5,1439.74 " fill="none" id="Employee-VaccinationCenter" style="stroke:#181818;stroke-width:1.0;"/><polygon fill="#000000" points="188.5,1384.1758,191.4389,1375.1307,185.5611,1375.1307,188.5,1384.1758" style="stroke:#000000;stroke-width:1.0;"/><text fill="#000000" font-family="sans-serif" font-size="13" lengthAdjust="spacing" textLength="48" x="199.5" y="1384.4951">works in</text><text fill="#000000" font-family="sans-serif" font-size="13" lengthAdjust="spacing" textLength="5" x="175.9516" y="1341.3453">*</text><text fill="#000000" font-family="sans-serif" font-size="13" lengthAdjust="spacing" textLength="7" x="173.7953" y="1427.1575">1</text></g><!--MD5=[717d4b03d3c4372f4eafe5e342a0a7dd]
link Company to AuthFacade--><g id="link_Company_AuthFacade"><path codeLine="87" d="M352.63,594.25 C393.13,643.44 447.33,709.27 482.33,751.79 " fill="none" id="Company-to-AuthFacade" style="stroke:#181818;stroke-width:1.0;stroke-dasharray:7.0,7.0;"/><polygon fill="#181818" points="485.66,755.83,483.0128,746.3436,482.476,751.9749,476.8446,751.438,485.66,755.83" style="stroke:#181818;stroke-width:1.0;"/></g><!--MD5=[407f5cddcdb18dfe0f3a2e42bd3fef57]
link App to AuthFacade--><g id="link_App_AuthFacade"><path codeLine="88" d="M523.84,607.23 C522.25,654.15 520.29,711.94 518.98,750.81 " fill="none" id="App-to-AuthFacade" style="stroke:#181818;stroke-width:1.0;stroke-dasharray:7.0,7.0;"/><polygon fill="#181818" points="518.81,755.93,523.1169,747.0728,518.9818,750.933,515.1216,746.7979,518.81,755.93" style="stroke:#181818;stroke-width:1.0;"/></g><!--MD5=[64728958a43505fa04872530b9227225]
@startuml

skinparam classAttributeIconSize 0
skinparam padding 2
skinparam ranksep 100
skinparam classFontSize 18

class WaitingRoomUI
class WaitingRoomController{
  -App m_oApp
   -Platform m_oPlatform
   + checkLogin()
   +getWorkingVaccinationCenter()
   +getListUsersInWaitingRoom()
}
class Company{
-designation
+getPlatform()
+getAuthFacade()

}
class Platform{
-description
-RegisterEmployee m_oRegisterEmployee
+getRegisterEmployee()

}

class App{
+getCompany()
    +getCurrentUserSession()
    +{static} static getInstance()
    -bootstrap()
}



class WaitingRoom{
- TreeMap<SNSUser,Date> map
+getUsersByArrivalDate()
}


class SNSUser
{
-name
-address
-gender
-email
-birthDate
-snsUserNumber
-citizenCardNumber
}

class RegisterEmployee{
-List<Employee> listEmployee
+getWorkingVaccinationCenter(email)
}

class Employee{
-VaccinationCenter vaccinationCenter
+getWorkingVaccinationCenter()
}


class VaccinationCenter{
-WaitingRoom waitingRoom
+getWaitingRoomSNSUsers()
}

class AuthFacade
{
+getCurrentUserSession()

}


WaitingRoomUI ..> WaitingRoomController
WaitingRoomController ..> Company
WaitingRoomController ..> Platform
Company "1" - -> "1" Platform : has >
Platform "1" - -> "1" RegisterEmployee : has >
RegisterEmployee "1" - -> "*" Employee : knows >
VaccinationCenter "1" - -> "1" WaitingRoom : has >
WaitingRoom "1" - -> "*" SNSUser : has >
WaitingRoomController ..> App
Employee "*" - - "1" VaccinationCenter : works in >
Company ..> AuthFacade
App ..> AuthFacade
@enduml

PlantUML version 1.2022.4(Sat Apr 09 14:29:17 BST 2022)
(GPL source distribution)
Java Runtime: OpenJDK Runtime Environment
JVM: OpenJDK 64-Bit Server VM
Default Encoding: Cp1252
Language: en
Country: US
--></g></svg>